<?xml version="1.0" encoding="iso-8859-1"?>
<!-- Generator: Adobe Illustrator 19.0.0, SVG Export Plug-In . SVG Version: 6.00 Build 0)  -->
<svg version="1.1" id="Layer_1" xmlns="http://www.w3.org/2000/svg" xmlns:xlink="http://www.w3.org/1999/xlink" x="0px" y="0px"
	 viewBox="0 0 473.935 473.935" style="enable-background:new 0 0 473.935 473.935;" xml:space="preserve">
<circle style="fill:#EFC849;" cx="236.967" cy="236.967" r="236.967"/>
<path style="fill:#F5F5F5;" d="M144.399,93.788c-8.823,0-15.981,7.158-15.981,15.985v255.755c0,8.827,7.158,15.981,15.981,15.981
	h183.827c8.827,0,15.981-7.154,15.981-15.981V167.812l-77.051-74.024H144.399z"/>
<path style="fill:#E1E1E1;" d="M344.207,167.812h-61.066c-8.827,0-15.981-7.154-15.981-15.981V93.788L344.207,167.812z"/>
<path style="fill:#62C4B5;" d="M310.28,209.596c-11.397,12.105-25.583,27.18-52.984,29.68c-8.876,0.812-26.222,5.302-36.58,7.992
	c-1.504,0.393-2.855,0.745-4,1.029c-25.074,6.402-36.83,11.779-52.355,39.719c-5.074,9.149-10.496,13.77-16.127,13.77
	c-0.116,0-0.228,0-0.34-0.007c-2.702-0.086-5.074-1.257-7.102-2.821v56.142c0,7.82,6.339,14.155,14.148,14.155h162.738
	c7.813,0,14.148-6.335,14.148-14.155V195.684C324.151,194.973,318.217,201.173,310.28,209.596z"/>
<path style="fill:#42A392;" d="M310.471,205.05c-2.039-1.717-4.636-2.791-7.514-2.791c-6.473,0-11.716,5.246-11.716,11.716
	c0,2.784,1.007,5.306,2.623,7.315c-9.014,7.308-20.505,13.523-36.838,15.016c-0.43,0.041-0.962,0.123-1.426,0.18
	c-1.624-4.528-5.908-7.787-10.997-7.787c-6.47,0-11.719,5.246-11.719,11.719c0,0.228,0.052,0.438,0.067,0.659
	c-4.745,1.164-9.306,2.346-12.98,3.297c-1.5,0.393-2.848,0.745-3.989,1.036c-8.471,2.163-15.525,4.269-21.781,7.169
	c-2.148-2.398-5.231-3.933-8.7-3.933c-6.473,0-11.719,5.253-11.719,11.723c0,2.238,0.659,4.303,1.747,6.08
	c-4.584,5.123-9.044,11.6-13.781,20.127c-4.587,8.251-9.205,12.4-13.747,12.228c-2.788-0.094-5.246-1.792-7.21-3.802v2.062v1.901
	c2.028,1.564,4.404,2.732,7.102,2.821c0.112,0.007,0.225,0.007,0.34,0.007c5.631,0,11.053-4.617,16.127-13.77
	c4.524-8.142,8.73-14.324,13.033-19.214c2.107,2.017,4.954,3.274,8.105,3.274c6.473,0,11.723-5.238,11.723-11.716
	c0-1.923-0.509-3.712-1.328-5.313c5.927-2.683,12.662-4.67,20.823-6.754c1.145-0.284,2.496-0.636,4-1.029
	c3.622-0.943,8.116-2.107,12.786-3.252c1.53,4.7,5.893,8.12,11.098,8.12c6.477,0,11.723-5.246,11.723-11.723
	c0-0.341-0.075-0.666-0.101-1.003c0.344-0.041,0.752-0.105,1.074-0.135c17.313-1.579,29.347-8.183,38.739-15.884
	c1.946,1.437,4.322,2.309,6.926,2.309c6.473,0,11.723-5.242,11.723-11.73c0-2.514-0.808-4.831-2.159-6.739
	c6.848-7.177,12.374-12.191,19.304-11.551v-1.56v-1.515C323.758,191.969,317.584,197.593,310.471,205.05z"/>
<path style="fill:#A2D8D4;" d="M163.711,333.827V171.299h-5.74v18.339h-7.603v6.047h7.603v12.026h-7.603v6.028h7.603v12.019h-7.603
	v6.043h7.603v12.022h-7.603v6.043h7.603v12.015h-7.603v6.043h7.603v12.022h-7.603v6.028h7.603v12.022h-7.603v6.043h7.603v12.022
	h-7.603v6.035h7.603v11.723h-13.519v5.736h13.519v13.893h5.74v-13.893h12.097v7.6h6.039v-7.6h12.019v7.6h6.039v-7.6h12.011v7.6h6.05
	v-7.6h12.011v7.6h6.039v-7.6h12.022v7.6h6.039v-7.6h12.022v7.6h6.028v-7.6h12.037v7.6h6.035v-7.6h12.015v7.6h6.047v-7.6h18.346
	v-5.736H163.711V333.827z"/>
<g>
</g>
<g>
</g>
<g>
</g>
<g>
</g>
<g>
</g>
<g>
</g>
<g>
</g>
<g>
</g>
<g>
</g>
<g>
</g>
<g>
</g>
<g>
</g>
<g>
</g>
<g>
</g>
<g>
</g>
</svg>
