<?xml version="1.0" encoding="iso-8859-1"?>
<!-- Generator: Adobe Illustrator 19.0.0, SVG Export Plug-In . SVG Version: 6.00 Build 0)  -->
<svg version="1.1" id="Layer_1" xmlns="http://www.w3.org/2000/svg" xmlns:xlink="http://www.w3.org/1999/xlink" x="0px" y="0px"
	 viewBox="0 0 473.935 473.935" style="enable-background:new 0 0 473.935 473.935;" xml:space="preserve">
<circle style="fill:#EFC849;" cx="236.967" cy="236.967" r="236.967"/>
<path style="fill:#F5F5F5;" d="M144.396,93.788c-8.823,0-15.981,7.158-15.981,15.985v255.755c0,8.827,7.158,15.981,15.981,15.981
	h183.827c8.827,0,15.981-7.154,15.981-15.981V167.812l-77.047-74.024H144.396z"/>
<path style="fill:#E1E1E1;" d="M344.207,167.812h-61.066c-8.827,0-15.981-7.154-15.981-15.981V93.788L344.207,167.812z"/>
<g>
	<path style="fill:#C9C9C8;" d="M321.719,189.641c0,2.754-2.234,4.992-4.992,4.992H157.08c-2.754,0-4.988-2.238-4.988-4.992l0,0
		c0-2.754,2.234-4.992,4.988-4.992h159.647C319.485,184.65,321.719,186.887,321.719,189.641L321.719,189.641z"/>
	<path style="fill:#C9C9C8;" d="M321.719,215.834c0,2.754-2.234,4.992-4.992,4.992H157.08c-2.754,0-4.988-2.238-4.988-4.992l0,0
		c0-2.754,2.234-4.992,4.988-4.992h159.647C319.485,210.842,321.719,213.08,321.719,215.834L321.719,215.834z"/>
	<path style="fill:#C9C9C8;" d="M321.719,240.78c0,2.754-2.234,4.992-4.992,4.992H157.08c-2.754,0-4.988-2.238-4.988-4.992l0,0
		c0-2.758,2.234-4.988,4.988-4.988h159.647C319.485,235.789,321.719,238.023,321.719,240.78L321.719,240.78z"/>
	<path style="fill:#C9C9C8;" d="M321.719,266.973c0,2.754-2.234,4.992-4.992,4.992H157.08c-2.754,0-4.988-2.238-4.988-4.992l0,0
		c0-2.754,2.234-4.992,4.988-4.992h159.647C319.485,261.981,321.719,264.219,321.719,266.973L321.719,266.973z"/>
	<path style="fill:#C9C9C8;" d="M240.649,288.174H157.08c-2.754,0-4.988,2.238-4.988,4.992s2.234,4.992,4.988,4.992h83.569
		c2.758,0,4.992-2.238,4.992-4.992S243.407,288.174,240.649,288.174z"/>
</g>
<circle style="fill:#3CB881;" cx="328.23" cy="358.014" r="57.062"/>
<polygon style="fill:#F7D98B;" points="359.088,326.957 306.25,356.248 303.545,358.778 329.607,383.589 331.47,381.479 "/>
<polygon style="fill:#626463;" points="359.249,326.651 336.192,339.47 347.227,350.504 "/>
<g>
	<path style="fill:#E84849;" d="M331.949,377.625l-7.861,0.453l-27.491,27.465c2.249,1.489,4.621,2.784,7.079,3.955l25.931-25.908
		L331.949,377.625z"/>
	<path style="fill:#E84849;" d="M287.313,397.827l28.28-28.254l0.348-7.959l-7.652,0.659l-27.536,27.517
		C282.685,392.667,284.896,395.35,287.313,397.827z"/>
</g>
<g>
	<path style="fill:#F06668;" d="M308.29,362.272l1.078-7.237l-5.224,3.083l-26.477,26.454c0.943,1.792,1.961,3.536,3.087,5.212
		L308.29,362.272z"/>
	<path style="fill:#F06668;" d="M296.6,405.542l27.491-27.465l-0.097-8.412l-8.397-0.094l-28.28,28.254
		C290.127,400.704,293.236,403.301,296.6,405.542z"/>
</g>
<g>
</g>
<g>
</g>
<g>
</g>
<g>
</g>
<g>
</g>
<g>
</g>
<g>
</g>
<g>
</g>
<g>
</g>
<g>
</g>
<g>
</g>
<g>
</g>
<g>
</g>
<g>
</g>
<g>
</g>
</svg>
