<?xml version="1.0" encoding="iso-8859-1"?>
<!-- Generator: Adobe Illustrator 19.0.0, SVG Export Plug-In . SVG Version: 6.00 Build 0)  -->
<svg version="1.1" id="Layer_1" xmlns="http://www.w3.org/2000/svg" xmlns:xlink="http://www.w3.org/1999/xlink" x="0px" y="0px"
	 viewBox="0 0 512 512" style="enable-background:new 0 0 512 512;" xml:space="preserve">
<circle style="fill:#FFC91B;" cx="256" cy="256" r="256"/>
<path style="fill:#D48B07;" d="M512,256c0-2.339-0.036-4.67-0.098-6.994l-98.164-98.164L98.263,361.158l150.743,150.743
	C251.33,511.964,253.661,512,256,512C397.384,512,512,397.384,512,256z"/>
<rect x="98.263" y="150.842" style="fill:#FFFFFF;" width="315.475" height="210.316"/>
<rect x="255.431" y="150.842" style="fill:#E2E2E2;" width="158.306" height="210.316"/>
<rect x="124.552" y="177.131" style="fill:#71E2EF;" width="262.896" height="157.737"/>
<rect x="255.431" y="177.131" style="fill:#38C6D9;" width="132.017" height="157.737"/>
<polygon style="fill:#1CA038;" points="124.552,334.869 203.421,229.71 256,282.29 308.579,203.421 387.448,334.869 "/>
<polygon style="fill:#0F7C23;" points="308.579,203.421 256,282.29 255.426,281.716 255.426,334.869 387.448,334.869 "/>
<circle style="fill:#FFEDB5;" cx="158.013" cy="219.35" r="19.118"/>
<g>
</g>
<g>
</g>
<g>
</g>
<g>
</g>
<g>
</g>
<g>
</g>
<g>
</g>
<g>
</g>
<g>
</g>
<g>
</g>
<g>
</g>
<g>
</g>
<g>
</g>
<g>
</g>
<g>
</g>
</svg>
