<?xml version="1.0" encoding="iso-8859-1"?>
<!-- Generator: Adobe Illustrator 19.0.0, SVG Export Plug-In . SVG Version: 6.00 Build 0)  -->
<svg version="1.1" id="Layer_1" xmlns="http://www.w3.org/2000/svg" xmlns:xlink="http://www.w3.org/1999/xlink" x="0px" y="0px"
	 viewBox="0 0 512 512" style="enable-background:new 0 0 512 512;" xml:space="preserve">
<g>
	<path style="fill:#C7CFE2;" d="M150.069,97.103h52.966c4.875,0,8.828,3.953,8.828,8.828v17.655h-70.621v-17.655
		C141.241,101.056,145.194,97.103,150.069,97.103z"/>
	<path style="fill:#C7CFE2;" d="M79.448,88.276h35.31c4.875,0,8.828,3.953,8.828,8.828v26.483H70.621V97.103
		C70.621,92.228,74.573,88.276,79.448,88.276z"/>
</g>
<path style="fill:#E4EAF6;" d="M503.172,88.276H238.345c-4.875,0-8.828,3.953-8.828,8.828v8.828c0,4.875-3.953,8.828-8.828,8.828
	H8.828c-4.875,0-8.828,3.953-8.828,8.828v291.31c0,4.875,3.953,8.828,8.828,8.828h494.345c4.875,0,8.828-3.953,8.828-8.828V97.103
	C512,92.228,508.047,88.276,503.172,88.276z"/>
<rect y="194.207" style="fill:#FF6464;" width="512" height="211.862"/>
<circle style="fill:#C7CFE2;" cx="256" cy="282.483" r="105.931"/>
<circle style="fill:#464655;" cx="256" cy="282.483" r="88.276"/>
<circle style="fill:#5B5D6E;" cx="256" cy="282.483" r="61.793"/>
<path style="fill:#464655;" d="M256,264.828c-9.737,0-17.655,7.918-17.655,17.655s7.918,17.655,17.655,17.655
	c9.737,0,17.655-7.918,17.655-17.655S265.737,264.828,256,264.828z"/>
<path style="fill:#D7DEED;" d="M295.724,220.69c-12.171,0-22.069,9.898-22.069,22.069s9.898,22.069,22.069,22.069
	c12.171,0,22.069-9.898,22.069-22.069S307.895,220.69,295.724,220.69z"/>
<g>
	<path style="fill:#FFFFFF;" d="M264.828,260.414c-7.303,0-13.241,5.939-13.241,13.241s5.939,13.241,13.241,13.241
		s13.241-5.939,13.241-13.241S272.13,260.414,264.828,260.414z"/>
	<path style="fill:#FFFFFF;" d="M312.32,257.15c-6.193-13.743-17.244-24.793-30.987-30.987c-4.663,4.049-7.678,9.948-7.678,16.596
		c0,12.171,9.898,22.069,22.069,22.069C302.372,264.828,308.271,261.813,312.32,257.15z"/>
</g>
<path style="fill:#5B5D6E;" d="M397.241,105.931h88.276c4.875,0,8.828,3.953,8.828,8.828v52.966c0,4.875-3.953,8.828-8.828,8.828
	h-88.276c-4.875,0-8.828-3.953-8.828-8.828v-52.966C388.414,109.884,392.366,105.931,397.241,105.931z"/>
<path style="fill:#464655;" d="M467.862,158.897h-52.966c-4.875,0-8.828-3.953-8.828-8.828v-17.655c0-4.875,3.953-8.828,8.828-8.828
	h52.966c4.875,0,8.828,3.953,8.828,8.828v17.655C476.69,154.944,472.737,158.897,467.862,158.897z"/>
<circle style="fill:#FFFFFF;" cx="441.379" cy="141.241" r="8.828"/>
<circle style="fill:#D7DEED;" cx="472.276" cy="128" r="13.241"/>
<path style="fill:#FFFFFF;" d="M467.862,123.586h-8.018c-0.493,1.387-0.81,2.858-0.81,4.414c0,7.313,5.929,13.241,13.241,13.241
	c1.556,0,3.027-0.318,4.414-0.81v-8.018C476.69,127.539,472.737,123.586,467.862,123.586z"/>
<path style="fill:#5B5D6E;" d="M158.897,167.724h35.31c4.875,0,8.828-3.953,8.828-8.828v-17.655c0-4.875-3.953-8.828-8.828-8.828
	h-35.31c-4.875,0-8.828,3.953-8.828,8.828v17.655C150.069,163.772,154.022,167.724,158.897,167.724z"/>
<circle style="fill:#959CB3;" cx="97.103" cy="194.207" r="26.483"/>
<circle style="fill:#5B5D6E;" cx="97.103" cy="194.207" r="8.828"/>
<circle style="fill:#959CB3;" cx="123.586" cy="282.483" r="26.483"/>
<circle style="fill:#5B5D6E;" cx="123.586" cy="282.483" r="8.828"/>
<g>
</g>
<g>
</g>
<g>
</g>
<g>
</g>
<g>
</g>
<g>
</g>
<g>
</g>
<g>
</g>
<g>
</g>
<g>
</g>
<g>
</g>
<g>
</g>
<g>
</g>
<g>
</g>
<g>
</g>
</svg>
