<?xml version="1.0" encoding="iso-8859-1"?>
<!-- Generator: Adobe Illustrator 19.0.0, SVG Export Plug-In . SVG Version: 6.00 Build 0)  -->
<svg version="1.1" id="Capa_1" xmlns="http://www.w3.org/2000/svg" xmlns:xlink="http://www.w3.org/1999/xlink" x="0px" y="0px"
	 viewBox="0 0 294.842 294.842" style="enable-background:new 0 0 294.842 294.842;" xml:space="preserve">
<g>
	<path d="M288.842,55.421c-3.313,0-6,2.687-6,6v221.421H12V12h276.842c3.313,0,6-2.687,6-6s-2.687-6-6-6H6C2.687,0,0,2.687,0,6
		v282.842c0,3.313,2.687,6,6,6h282.842c3.313,0,6-2.687,6-6V61.421C294.842,58.107,292.155,55.421,288.842,55.421z"/>
	<path d="M39.12,33.12c-3.313,0-6,2.687-6,6v173.858c0,3.313,2.687,6,6,6h216.602c3.313,0,6-2.687,6-6V39.12c0-3.313-2.687-6-6-6
		H39.12z M45.12,45.12h204.602v152.99l-62.709-62.709c-2.342-2.344-6.143-2.344-8.484,0l-17.321,17.32l-30.916-30.915
		c-2.342-2.344-6.143-2.344-8.484,0l-59.5,59.5c-2.344,2.343-2.344,6.142,0,8.484c2.342,2.344,6.143,2.344,8.484,0l55.258-55.257
		l30.916,30.915c2.342,2.344,6.143,2.344,8.484,0l17.321-17.32l58.85,58.85H45.12V45.12z"/>
</g>
<g>
</g>
<g>
</g>
<g>
</g>
<g>
</g>
<g>
</g>
<g>
</g>
<g>
</g>
<g>
</g>
<g>
</g>
<g>
</g>
<g>
</g>
<g>
</g>
<g>
</g>
<g>
</g>
<g>
</g>
</svg>
