<?xml version="1.0" encoding="iso-8859-1"?>
<!-- Generator: Adobe Illustrator 19.0.0, SVG Export Plug-In . SVG Version: 6.00 Build 0)  -->
<svg version="1.1" id="Layer_1" xmlns="http://www.w3.org/2000/svg" xmlns:xlink="http://www.w3.org/1999/xlink" x="0px" y="0px"
	 viewBox="0 0 460 460" style="enable-background:new 0 0 460 460;" xml:space="preserve">
<g>
	<path style="fill:#FF7F4F;" d="M230,0C102.975,0,0,102.975,0,230c0,96.854,59.867,179.727,144.615,213.63l313.816-240.638
		C445.062,88.693,347.889,0,230,0z"/>
	<path style="fill:#FF5419;" d="M460,230c0-9.137-0.55-18.145-1.586-27.004L379,123.583l-11.583,62.834L261,80l-100,20l-20-20
		l-20.002,19.998L101,80L81,380l63.619,63.619C171.019,454.181,199.829,460,230,460C357.025,460,460,357.025,460,230z"/>
	<polygon style="fill:#FFC61B;" points="379,123.583 379,358 289.505,367.423 309.505,208.823 	"/>
	<polygon style="fill:#FFEDB5;" points="309.505,208.823 309.505,367.423 220,367.423 240,183.583 	"/>
	<polygon style="fill:#FFC61B;" points="240,183.583 240,367.423 150.505,367.423 170.505,268.823 	"/>
	<polygon style="fill:#FFEDB5;" points="170.505,268.823 170.505,367.423 91,367.423 101,243.583 	"/>
	<polygon style="fill:#940030;" points="379,380 81,380 81,80 101,80 101,358 379,358 	"/>
	<rect x="121" y="80" style="fill:#FFC61B;" width="20" height="20"/>
	<rect x="161" y="120" style="fill:#FFEDB5;" width="100" height="20"/>
	<rect x="121" y="120" style="fill:#FFEDB5;" width="20" height="20"/>
	<rect x="161" y="80" style="fill:#FFC61B;" width="100" height="20"/>
</g>
<g>
</g>
<g>
</g>
<g>
</g>
<g>
</g>
<g>
</g>
<g>
</g>
<g>
</g>
<g>
</g>
<g>
</g>
<g>
</g>
<g>
</g>
<g>
</g>
<g>
</g>
<g>
</g>
<g>
</g>
</svg>
