<?xml version="1.0" encoding="iso-8859-1"?>
<!-- Generator: Adobe Illustrator 19.0.0, SVG Export Plug-In . SVG Version: 6.00 Build 0)  -->
<svg version="1.1" id="Capa_1" xmlns="http://www.w3.org/2000/svg" xmlns:xlink="http://www.w3.org/1999/xlink" x="0px" y="0px"
	 viewBox="0 0 205.996 205.996" style="enable-background:new 0 0 205.996 205.996;" xml:space="preserve">
<g>
	<path d="M102.996,61.363c22.958,0,41.635,18.678,41.635,41.635c0,3.313,2.687,6,6,6s6-2.687,6-6
		c0-29.574-24.061-53.635-53.635-53.635S49.36,73.424,49.36,102.998s24.061,53.635,53.635,53.635
		c18.99,0,36.745-10.195,46.336-26.607c1.672-2.861,0.708-6.535-2.153-8.208c-2.86-1.67-6.535-0.707-8.208,2.153
		c-7.448,12.745-21.233,20.662-35.976,20.662c-22.958,0-41.635-18.678-41.635-41.635S80.038,61.363,102.996,61.363z"/>
	<path d="M205.698,95.053c-3.76-50.059-44.326-90.782-94.359-94.727C81.095-2.059,51.51,8.817,30.163,30.165
		C8.815,51.513-2.061,81.1,0.324,111.341c3.931,49.847,44.483,90.399,94.329,94.329c2.747,0.217,5.484,0.323,8.214,0.323
		c27.329,0,53.553-10.753,72.962-30.161c2.343-2.344,2.343-6.143,0-8.485s-6.142-2.344-8.485-0.001
		c-18.862,18.861-45.012,28.47-71.747,26.361c-44.023-3.471-79.838-39.286-83.31-83.31c-2.108-26.735,7.5-52.887,26.361-71.747
		c18.861-18.861,45.008-28.473,71.747-26.361c44.189,3.483,80.016,39.451,83.337,83.662c0.455,6.057,0.321,12.142-0.397,18.086
		c-0.762,6.304-4.578,11.805-10.208,14.713c-5.095,2.633-10.819,2.623-15.706-0.026c-2.913-1.582-6.556-0.499-8.134,2.415
		c-1.58,2.913-0.499,6.555,2.415,8.134c8.435,4.573,18.251,4.623,26.933,0.139c9.164-4.734,15.375-13.682,16.613-23.935
		C206.06,108.758,206.211,101.887,205.698,95.053z"/>
</g>
<g>
</g>
<g>
</g>
<g>
</g>
<g>
</g>
<g>
</g>
<g>
</g>
<g>
</g>
<g>
</g>
<g>
</g>
<g>
</g>
<g>
</g>
<g>
</g>
<g>
</g>
<g>
</g>
<g>
</g>
</svg>
