<?xml version="1.0" encoding="iso-8859-1"?>
<!-- Generator: Adobe Illustrator 19.0.0, SVG Export Plug-In . SVG Version: 6.00 Build 0)  -->
<svg version="1.1" id="Capa_1" xmlns="http://www.w3.org/2000/svg" xmlns:xlink="http://www.w3.org/1999/xlink" x="0px" y="0px"
	 viewBox="0 0 294.843 294.843" style="enable-background:new 0 0 294.843 294.843;" xml:space="preserve">
<g>
	<path d="M212.921,0h-131c-3.313,0-6,2.687-6,6v282.843c0,2.302,1.317,4.402,3.391,5.403c0.83,0.401,1.721,0.597,2.608,0.597
		c1.33,0,2.65-0.442,3.731-1.301l65.491-51.992c2.596-2.061,3.029-5.834,0.969-8.43c-2.06-2.595-5.834-3.028-8.43-0.969
		l-55.761,44.267V12h119v264.421l-26.771-21.247c-2.594-2.06-6.369-1.625-8.43,0.97c-2.06,2.596-1.625,6.37,0.971,8.43
		l36.501,28.969c1.801,1.43,4.266,1.704,6.339,0.703c2.073-1.001,3.391-3.101,3.391-5.403V6C218.921,2.687,216.235,0,212.921,0z"/>
	<path d="M102.921,35.755h89c3.313,0,6-2.687,6-6s-2.687-6-6-6h-89c-3.313,0-6,2.687-6,6S99.608,35.755,102.921,35.755z"/>
	<path d="M102.921,59.409h89c3.313,0,6-2.687,6-6s-2.687-6-6-6h-89c-3.313,0-6,2.687-6,6S99.608,59.409,102.921,59.409z"/>
	<path d="M165.421,71.063h-62.5c-3.313,0-6,2.687-6,6s2.687,6,6,6h62.5c3.313,0,6-2.687,6-6S168.735,71.063,165.421,71.063z"/>
</g>
<g>
</g>
<g>
</g>
<g>
</g>
<g>
</g>
<g>
</g>
<g>
</g>
<g>
</g>
<g>
</g>
<g>
</g>
<g>
</g>
<g>
</g>
<g>
</g>
<g>
</g>
<g>
</g>
<g>
</g>
</svg>
