<?xml version="1.0" encoding="iso-8859-1"?>
<!-- Generator: Adobe Illustrator 19.0.0, SVG Export Plug-In . SVG Version: 6.00 Build 0)  -->
<svg version="1.1" id="Capa_1" xmlns="http://www.w3.org/2000/svg" xmlns:xlink="http://www.w3.org/1999/xlink" x="0px" y="0px"
	 viewBox="0 0 294.843 294.843" style="enable-background:new 0 0 294.843 294.843;" xml:space="preserve">
<g>
	<path d="M288.842,0H6C2.687,0,0,2.687,0,6v282.843c0,3.313,2.687,6,6,6h282.842c3.313,0,6-2.687,6-6V6
		C294.842,2.687,292.156,0,288.842,0z M12,282.843V12h270.842v39.992H32.421c-3.313,0-6,2.686-6,6s2.687,6,6,6h250.421v218.851H12z"
		/>
	<path d="M31.921,37.991c1.58,0,3.13-0.64,4.25-1.75c1.109-1.12,1.75-2.66,1.75-4.24c0-1.58-0.641-3.13-1.75-4.25
		c-1.12-1.11-2.67-1.75-4.25-1.75c-1.57,0-3.12,0.64-4.24,1.75c-1.11,1.12-1.75,2.67-1.75,4.25c0,1.58,0.64,3.12,1.75,4.24
		C28.801,37.351,30.341,37.991,31.921,37.991z"/>
	<path d="M51.921,38.001c1.58,0,3.13-0.64,4.24-1.76c1.119-1.12,1.76-2.67,1.76-4.25c0-1.57-0.641-3.12-1.76-4.24
		c-1.11-1.12-2.66-1.76-4.24-1.76s-3.13,0.64-4.24,1.76c-1.12,1.12-1.76,2.67-1.76,4.24c0,1.58,0.64,3.13,1.76,4.25
		C48.792,37.361,50.341,38.001,51.921,38.001z"/>
	<path d="M71.912,37.991c1.579,0,3.13-0.64,4.25-1.75c1.119-1.12,1.76-2.67,1.76-4.25c0-1.57-0.641-3.12-1.76-4.24
		c-1.12-1.11-2.671-1.75-4.25-1.75c-1.58,0-3.12,0.64-4.24,1.75c-1.11,1.12-1.75,2.67-1.75,4.24c0,1.58,0.64,3.13,1.75,4.25
		C68.792,37.351,70.332,37.991,71.912,37.991z"/>
	<path d="M246.488,163.478c-3.029-1.337-6.573,0.035-7.912,3.066c-15.95,36.137-51.73,59.486-91.154,59.486
		c-38.536,0-73.591-22.309-90.047-57.063c16.456-34.755,51.511-57.064,90.047-57.064c27.941,0,54.772,11.868,73.612,32.56
		c2.229,2.449,6.025,2.628,8.476,0.397s2.628-6.026,0.397-8.476c-21.108-23.184-51.174-36.48-82.485-36.48
		c-44.175,0-84.265,26.158-102.133,66.641c-0.681,1.543-0.681,3.302,0,4.846c17.868,40.482,57.958,66.641,102.133,66.641
		s84.265-26.158,102.133-66.641C250.892,168.358,249.519,164.816,246.488,163.478z"/>
	<path d="M105.553,168.967c0,23.086,18.782,41.868,41.868,41.868s41.868-18.782,41.868-41.868c0-23.086-18.782-41.869-41.868-41.869
		S105.553,145.88,105.553,168.967z M177.29,168.967c0,16.469-13.398,29.868-29.868,29.868s-29.868-13.399-29.868-29.868
		c0-16.47,13.398-29.869,29.868-29.869S177.29,152.497,177.29,168.967z"/>
</g>
<g>
</g>
<g>
</g>
<g>
</g>
<g>
</g>
<g>
</g>
<g>
</g>
<g>
</g>
<g>
</g>
<g>
</g>
<g>
</g>
<g>
</g>
<g>
</g>
<g>
</g>
<g>
</g>
<g>
</g>
</svg>
