<?xml version="1.0" encoding="iso-8859-1"?>
<!-- Generator: Adobe Illustrator 19.0.0, SVG Export Plug-In . SVG Version: 6.00 Build 0)  -->
<svg version="1.1" id="Capa_1" xmlns="http://www.w3.org/2000/svg" xmlns:xlink="http://www.w3.org/1999/xlink" x="0px" y="0px"
	 viewBox="0 0 294.843 294.843" style="enable-background:new 0 0 294.843 294.843;" xml:space="preserve">
<g>
	<path d="M147.421,0C66.133,0,0,66.133,0,147.421c0,3.313,2.687,6,6,6s6-2.687,6-6C12,72.75,72.75,12,147.421,12
		s135.421,60.75,135.421,135.421s-60.75,135.421-135.421,135.421c-50.805,0-96.902-28.042-120.305-73.184
		c-1.526-2.941-5.146-4.089-8.089-2.565c-2.941,1.525-4.09,5.146-2.565,8.088c25.475,49.136,75.654,79.66,130.959,79.66
		c81.288,0,147.421-66.133,147.421-147.421S228.709,0,147.421,0z"/>
	<circle cx="147.421" cy="147.421" r="7.741"/>
	<path d="M121.442,173.401c7.162,7.162,16.571,10.743,25.979,10.743s18.817-3.581,25.98-10.743
		c22.521-22.522,42.158-84.787,42.982-87.426c0.988-3.163-0.774-6.528-3.937-7.517c-3.168-0.987-6.529,0.775-7.517,3.938
		c-0.049,0.155-4.947,15.763-12.417,33.833c-9.721,23.517-19.264,40.353-27.598,48.687c-9.646,9.645-25.342,9.646-34.99,0
		c-9.646-9.646-9.646-25.342,0-34.988c7.157-7.156,21.646-15.624,41.9-24.487c3.036-1.328,4.42-4.866,3.092-7.902
		c-1.329-3.036-4.866-4.419-7.902-3.091c-21.92,9.592-37.254,18.675-45.574,26.995C107.117,135.767,107.117,159.076,121.442,173.401
		z"/>
	<path d="M153.421,57.992V35.255c0-3.313-2.687-6-6-6s-6,2.687-6,6v22.737c0,3.313,2.687,6,6,6S153.421,61.305,153.421,57.992z"/>
	<path d="M141.421,236.851v22.737c0,3.313,2.687,6,6,6s6-2.687,6-6v-22.737c0-3.313-2.687-6-6-6S141.421,233.538,141.421,236.851z"
		/>
	<path d="M259.588,153.421c3.313,0,6-2.687,6-6s-2.687-6-6-6h-22.737c-3.313,0-6,2.687-6,6s2.687,6,6,6H259.588z"/>
	<path d="M57.992,153.421c3.313,0,6-2.687,6-6s-2.687-6-6-6H35.254c-3.313,0-6,2.687-6,6s2.687,6,6,6H57.992z"/>
</g>
<g>
</g>
<g>
</g>
<g>
</g>
<g>
</g>
<g>
</g>
<g>
</g>
<g>
</g>
<g>
</g>
<g>
</g>
<g>
</g>
<g>
</g>
<g>
</g>
<g>
</g>
<g>
</g>
<g>
</g>
</svg>
