<?xml version="1.0" encoding="iso-8859-1"?>
<!-- Generator: Adobe Illustrator 19.0.0, SVG Export Plug-In . SVG Version: 6.00 Build 0)  -->
<svg version="1.1" id="Capa_1" xmlns="http://www.w3.org/2000/svg" xmlns:xlink="http://www.w3.org/1999/xlink" x="0px" y="0px"
	 viewBox="0 0 294.844 294.844" style="enable-background:new 0 0 294.844 294.844;" xml:space="preserve">
<g>
	<path d="M191.563,212.179c-2.871-1.652-6.541-0.665-8.194,2.206l-35.946,62.435l-35.947-62.435
		c-1.49-2.586-4.657-3.688-7.426-2.577l-34.994,13.98l13.981-34.994c1.107-2.771,0.009-5.936-2.578-7.426L8.995,142.222
		c-2.872-1.652-6.54-0.665-8.193,2.206c-1.653,2.872-0.666,6.54,2.206,8.193l66.957,38.552l-17.24,43.15
		c-0.89,2.228-0.367,4.771,1.329,6.469c1.696,1.695,4.24,2.221,6.469,1.328l43.149-17.239l38.551,66.957
		c1.071,1.859,3.054,3.006,5.2,3.006c2.146,0,4.129-1.146,5.2-3.006l41.146-71.465C195.423,217.501,194.434,213.833,191.563,212.179
		z"/>
	<path d="M291.838,142.222l-66.956-38.551l17.239-43.15c0.89-2.228,0.367-4.771-1.33-6.469c-1.695-1.696-4.241-2.22-6.469-1.328
		l-43.148,17.239L152.623,3.006C151.552,1.146,149.569,0,147.423,0c-2.146,0-4.129,1.146-5.2,3.006l-38.551,66.957L60.522,52.724
		c-2.229-0.894-4.773-0.367-6.469,1.329c-1.696,1.696-2.219,4.24-1.329,6.469l17.24,43.149l-19.535,11.247
		c-2.872,1.654-3.859,5.322-2.206,8.194c1.653,2.87,5.322,3.858,8.193,2.206l24.043-13.843c2.587-1.49,3.686-4.654,2.578-7.426
		L69.056,69.056l34.994,13.98c2.769,1.108,5.937,0.01,7.426-2.577l35.947-62.435l35.946,62.435c1.49,2.586,4.652,3.688,7.427,2.577
		l34.993-13.98l-13.98,34.994c-1.108,2.771-0.01,5.936,2.577,7.425l62.434,35.947l-62.434,35.946
		c-2.587,1.49-3.686,4.654-2.577,7.426l19.168,47.98c0.938,2.348,3.191,3.776,5.574,3.776c0.74,0,1.494-0.139,2.224-0.431
		c3.078-1.229,4.575-4.72,3.347-7.797l-17.239-43.15l66.956-38.551c1.859-1.071,3.006-3.054,3.006-5.2
		S293.697,143.293,291.838,142.222z"/>
	<path d="M147.423,185.271c20.87,0,37.849-16.979,37.849-37.849s-16.979-37.849-37.849-37.849c-20.87,0-37.849,16.979-37.849,37.849
		S126.553,185.271,147.423,185.271z M147.423,121.573c14.253,0,25.849,11.596,25.849,25.849s-11.596,25.849-25.849,25.849
		s-25.849-11.596-25.849-25.849S133.17,121.573,147.423,121.573z"/>
</g>
<g>
</g>
<g>
</g>
<g>
</g>
<g>
</g>
<g>
</g>
<g>
</g>
<g>
</g>
<g>
</g>
<g>
</g>
<g>
</g>
<g>
</g>
<g>
</g>
<g>
</g>
<g>
</g>
<g>
</g>
</svg>
