<?xml version="1.0" encoding="iso-8859-1"?>
<!-- Generator: Adobe Illustrator 19.0.0, SVG Export Plug-In . SVG Version: 6.00 Build 0)  -->
<svg version="1.1" id="Capa_1" xmlns="http://www.w3.org/2000/svg" xmlns:xlink="http://www.w3.org/1999/xlink" x="0px" y="0px"
	 viewBox="0 0 294.843 294.843" style="enable-background:new 0 0 294.843 294.843;" xml:space="preserve">
<g>
	<path d="M251.663,43.225C223.836,15.414,186.818,0.064,147.431,0c-0.08,0-0.157,0-0.236,0c-34.112,0-67.342,11.912-93.59,33.555
		c-2.557,2.108-2.92,5.89-0.813,8.446c2.108,2.557,5.89,2.92,8.446,0.813C85.344,22.938,115.86,12,147.195,12
		c0.071,0,0.146,0,0.217,0c74.677,0.12,135.431,60.87,135.431,135.421c0,74.671-60.75,135.421-135.421,135.421
		C72.833,282.843,12.083,222.09,12,147.415c-0.018-15.792,2.652-31.257,7.935-45.965c1.12-3.119-0.5-6.555-3.619-7.675
		c-3.116-1.12-6.555,0.5-7.675,3.619C2.888,113.411-0.019,130.245,0,147.428c0.09,81.285,66.223,147.415,147.421,147.415
		c81.289,0,147.421-66.133,147.421-147.421C294.843,108.057,279.508,71.052,251.663,43.225z"/>
	<path d="M190.804,46.997c-13.72-5.935-28.316-8.944-43.383-8.944c-60.306,0-109.368,49.063-109.368,109.368
		S87.116,256.79,147.421,256.79S256.79,207.727,256.79,147.421c0-3.313-2.687-6-6-6h-21.943c-3.313,0-6,2.687-6,6s2.687,6,6,6
		h15.753c-2.989,48.919-42.258,88.189-91.178,91.178v-15.753c0-3.313-2.687-6-6-6s-6,2.687-6,6v15.753
		c-48.919-2.989-88.189-42.258-91.178-91.178h15.753c3.313,0,6-2.687,6-6s-2.687-6-6-6H50.244
		c2.989-48.919,42.258-88.189,91.178-91.178v15.753c0,3.313,2.687,6,6,6s6-2.687,6-6V50.241c11.293,0.681,22.241,3.281,32.619,7.77
		c3.041,1.317,6.573-0.083,7.889-3.125S193.845,48.313,190.804,46.997z"/>
	<path d="M190.003,97.098l-53.101,21.508c-4.137,1.514-7.931,3.92-11.139,7.128c-2.748,2.748-4.857,5.893-6.343,9.25
		c-0.15,0.255-0.289,0.519-0.404,0.801l-21.989,54.289c-0.905,2.233-0.386,4.791,1.318,6.495c1.147,1.148,2.682,1.758,4.244,1.758
		c0.757,0,1.521-0.144,2.25-0.438l54.294-21.983c0.262-0.106,0.508-0.234,0.746-0.372c3.423-1.513,6.575-3.655,9.3-6.381
		c2.904-2.904,5.098-6.252,6.593-9.826c0.018-0.042,0.043-0.078,0.06-0.12l21.983-54.294c0.904-2.233,0.385-4.791-1.319-6.495
		C194.794,96.712,192.236,96.193,190.003,97.098z M147.471,128.741c4.996,0,9.692,1.945,13.224,5.478
		c7.292,7.292,7.292,19.156,0,26.448c-3.532,3.532-8.229,5.478-13.224,5.478c-4.995,0-9.691-1.945-13.224-5.478
		c-7.292-7.292-7.292-19.156,0-26.448c1.72-1.72,3.72-3.056,5.893-3.983c0.026-0.01,0.052-0.017,0.078-0.027l0.432-0.175
		C142.796,129.193,145.098,128.741,147.471,128.741z M120.965,162.935c1.298,2.221,2.895,4.314,4.797,6.216
		c1.884,1.884,3.973,3.488,6.213,4.802l-18.507,7.494L120.965,162.935z M173.946,131.892c-1.292-2.2-2.879-4.273-4.765-6.159
		c-1.866-1.866-3.932-3.458-6.147-4.765l18.343-7.43L173.946,131.892z"/>
</g>
<g>
</g>
<g>
</g>
<g>
</g>
<g>
</g>
<g>
</g>
<g>
</g>
<g>
</g>
<g>
</g>
<g>
</g>
<g>
</g>
<g>
</g>
<g>
</g>
<g>
</g>
<g>
</g>
<g>
</g>
</svg>
