<?xml version="1.0" encoding="iso-8859-1"?>
<!-- Generator: Adobe Illustrator 19.0.0, SVG Export Plug-In . SVG Version: 6.00 Build 0)  -->
<svg version="1.1" id="Capa_1" xmlns="http://www.w3.org/2000/svg" xmlns:xlink="http://www.w3.org/1999/xlink" x="0px" y="0px"
	 viewBox="0 0 294.843 294.843" style="enable-background:new 0 0 294.843 294.843;" xml:space="preserve">
<g>
	<path d="M147.421,0C66.133,0,0,66.133,0,147.421s66.133,147.421,147.421,147.421c45.697,0,88.061-20.676,116.23-56.727
		c2.04-2.611,1.577-6.382-1.034-8.422c-2.612-2.041-6.382-1.578-8.422,1.034c-25.879,33.12-64.797,52.116-106.774,52.116
		C72.75,282.843,12,222.093,12,147.421S72.75,12,147.421,12s135.421,60.75,135.421,135.421c0,3.313,2.687,6,6,6s6-2.687,6-6
		C294.843,66.133,228.71,0,147.421,0z"/>
	<path d="M144.995,238.9c0.393,0.078,0.785,0.116,1.173,0.116c2.386,0,4.598-1.43,5.541-3.705l63.236-152.666
		c0.929-2.242,0.415-4.823-1.301-6.539s-4.296-2.228-6.539-1.301L54.44,138.042c-2.645,1.096-4.147,3.907-3.589,6.714
		c0.559,2.808,3.022,4.83,5.885,4.83h83.43v83.43C140.166,235.877,142.188,238.341,144.995,238.9z M86.9,137.585l111.415-46.15
		l-46.15,111.416v-59.266c0-3.313-2.687-6-6-6H86.9z"/>
</g>
<g>
</g>
<g>
</g>
<g>
</g>
<g>
</g>
<g>
</g>
<g>
</g>
<g>
</g>
<g>
</g>
<g>
</g>
<g>
</g>
<g>
</g>
<g>
</g>
<g>
</g>
<g>
</g>
<g>
</g>
</svg>
