<?xml version="1.0" encoding="iso-8859-1"?>
<!-- Generator: Adobe Illustrator 19.0.0, SVG Export Plug-In . SVG Version: 6.00 Build 0)  -->
<svg version="1.1" id="Capa_1" xmlns="http://www.w3.org/2000/svg" xmlns:xlink="http://www.w3.org/1999/xlink" x="0px" y="0px"
	 viewBox="0 0 294.842 294.842" style="enable-background:new 0 0 294.842 294.842;" xml:space="preserve">
<g>
	<path d="M147.421,0C66.133,0,0,66.133,0,147.421c0,51.101,25.882,97.829,69.233,125.001c2.809,1.761,6.51,0.91,8.271-1.897
		c1.76-2.808,0.91-6.511-1.897-8.271C35.778,237.291,12,194.363,12,147.421C12,72.75,72.75,12,147.421,12
		c74.671,0,135.421,60.75,135.421,135.421s-60.75,135.421-135.421,135.421c-3.313,0-6,2.687-6,6s2.687,6,6,6
		c81.288,0,147.421-66.133,147.421-147.421S228.709,0,147.421,0z"/>
	<path d="M135.025,81.165l65.518,8.692c2.309,0.306,4.136,2.133,4.441,4.442l8.692,65.517c0.4,3.018,2.978,5.212,5.94,5.212
		c0.263,0,0.529-0.018,0.797-0.053c3.285-0.437,5.595-3.452,5.159-6.737l-8.692-65.516c-1.018-7.674-7.088-13.744-14.761-14.762
		l-65.517-8.692c-7.417-0.984-14.341,2.713-17.651,9.418c-3.311,6.705-2.033,14.453,3.254,19.74l46.975,46.975
		c2.342,2.344,6.143,2.344,8.484,0c2.344-2.343,2.344-6.142,0-8.484l-46.974-46.975c-2.431-2.432-1.364-5.163-0.979-5.943
		C130.097,83.221,131.626,80.714,135.025,81.165z"/>
	<path d="M160.617,225.732c0.002,0,0.002,0,0.003,0c6.892,0,13.075-4.174,15.752-10.634c2.7-6.52,1.27-13.679-3.735-18.683
		l-74.208-74.21c-3.266-3.266-7.542-5.063-12.042-5.063c-5.014,0-9.791,2.17-13.105,5.953c-3.25,3.71-4.675,8.508-4.012,13.508
		l8.692,65.518c1.018,7.674,7.088,13.743,14.761,14.761l65.518,8.692C159.032,225.678,159.832,225.732,160.617,225.732z
		 M89.857,200.542l-8.692-65.518c-0.208-1.566,0.176-2.92,1.142-4.022c1.021-1.165,2.546-1.86,4.079-1.86
		c1.332,0,2.528,0.521,3.556,1.549l74.209,74.209c2.205,2.206,1.526,4.654,1.133,5.605c-0.646,1.56-2.211,3.227-4.665,3.227h-0.001
		c-0.26,0-0.529-0.019-0.801-0.055L94.3,204.985C91.99,204.679,90.164,202.852,89.857,200.542z"/>
</g>
<g>
</g>
<g>
</g>
<g>
</g>
<g>
</g>
<g>
</g>
<g>
</g>
<g>
</g>
<g>
</g>
<g>
</g>
<g>
</g>
<g>
</g>
<g>
</g>
<g>
</g>
<g>
</g>
<g>
</g>
</svg>
