<?xml version="1.0" encoding="iso-8859-1"?>
<!-- Generator: Adobe Illustrator 19.0.0, SVG Export Plug-In . SVG Version: 6.00 Build 0)  -->
<svg version="1.1" id="Layer_1" xmlns="http://www.w3.org/2000/svg" xmlns:xlink="http://www.w3.org/1999/xlink" x="0px" y="0px"
	 viewBox="0 0 512 512" style="enable-background:new 0 0 512 512;" xml:space="preserve">
<g>
	<path style="fill:#FFFFFF;" d="M342.78,182.237c0,5.207,3.471,8.678,8.678,8.678c5.207,0,8.678-3.471,8.678-8.678
		s-3.471-8.678-8.678-8.678C346.251,173.559,342.78,177.031,342.78,182.237L342.78,182.237z"/>
	<path style="fill:#FFFFFF;" d="M290.712,182.237c0,5.207,3.471,8.678,8.678,8.678s8.678-3.471,8.678-8.678
		s-3.471-8.678-8.678-8.678S290.712,177.031,290.712,182.237L290.712,182.237z"/>
	<path style="fill:#FFFFFF;" d="M342.78,130.169c0,5.207,3.471,8.678,8.678,8.678c5.207,0,8.678-3.471,8.678-8.678
		s-3.471-8.678-8.678-8.678C346.251,121.492,342.78,124.963,342.78,130.169L342.78,130.169z"/>
	<path style="fill:#FFFFFF;" d="M290.712,130.169c0,5.207,3.471,8.678,8.678,8.678s8.678-3.471,8.678-8.678
		s-3.471-8.678-8.678-8.678S290.712,124.963,290.712,130.169L290.712,130.169z"/>
	<path style="fill:#FFFFFF;" d="M316.746,156.203c0,5.207,3.471,8.678,8.678,8.678c5.207,0,8.678-3.471,8.678-8.678
		c0-5.207-3.471-8.678-8.678-8.678C320.217,147.525,316.746,150.997,316.746,156.203L316.746,156.203z"/>
	<path style="fill:#FFFFFF;" d="M264.678,156.203c0,5.207,3.471,8.678,8.678,8.678s8.678-3.471,8.678-8.678
		c0-5.207-3.471-8.678-8.678-8.678S264.678,150.997,264.678,156.203L264.678,156.203z"/>
	<path style="fill:#FFFFFF;" d="M316.746,104.136c0,5.207,3.471,8.678,8.678,8.678c5.207,0,8.678-3.471,8.678-8.678
		c0-5.207-3.471-8.678-8.678-8.678C320.217,95.458,316.746,98.929,316.746,104.136L316.746,104.136z"/>
	<path style="fill:#FFFFFF;" d="M264.678,104.136c0,5.207,3.471,8.678,8.678,8.678s8.678-3.471,8.678-8.678
		c0-5.207-3.471-8.678-8.678-8.678S264.678,98.929,264.678,104.136L264.678,104.136z"/>
	<path style="fill:#FFFFFF;" d="M238.644,182.237c0,5.207,3.471,8.678,8.678,8.678s8.678-3.471,8.678-8.678
		s-3.471-8.678-8.678-8.678S238.644,177.031,238.644,182.237L238.644,182.237z"/>
	<path style="fill:#FFFFFF;" d="M186.576,182.237c0,5.207,3.471,8.678,8.678,8.678c5.207,0,8.678-3.471,8.678-8.678
		s-3.471-8.678-8.678-8.678C190.047,173.559,186.576,177.031,186.576,182.237L186.576,182.237z"/>
	<path style="fill:#FFFFFF;" d="M238.644,130.169c0,5.207,3.471,8.678,8.678,8.678s8.678-3.471,8.678-8.678
		s-3.471-8.678-8.678-8.678S238.644,124.963,238.644,130.169L238.644,130.169z"/>
	<path style="fill:#FFFFFF;" d="M186.576,130.169c0,5.207,3.471,8.678,8.678,8.678c5.207,0,8.678-3.471,8.678-8.678
		s-3.471-8.678-8.678-8.678C190.047,121.492,186.576,124.963,186.576,130.169L186.576,130.169z"/>
	<path style="fill:#FFFFFF;" d="M212.61,156.203c0,5.207,3.471,8.678,8.678,8.678c5.207,0,8.678-3.471,8.678-8.678
		c0-5.207-3.471-8.678-8.678-8.678C216.081,147.525,212.61,150.997,212.61,156.203L212.61,156.203z"/>
	<path style="fill:#FFFFFF;" d="M160.542,156.203c0,5.207,3.471,8.678,8.678,8.678s8.678-3.471,8.678-8.678
		c0-5.207-3.471-8.678-8.678-8.678S160.542,150.997,160.542,156.203L160.542,156.203z"/>
	<path style="fill:#FFFFFF;" d="M212.61,104.136c0,5.207,3.471,8.678,8.678,8.678c5.207,0,8.678-3.471,8.678-8.678
		c0-5.207-3.471-8.678-8.678-8.678C216.081,95.458,212.61,98.929,212.61,104.136L212.61,104.136z"/>
	<path style="fill:#FFFFFF;" d="M160.542,104.136c0,5.207,3.471,8.678,8.678,8.678s8.678-3.471,8.678-8.678
		c0-5.207-3.471-8.678-8.678-8.678S160.542,98.929,160.542,104.136L160.542,104.136z"/>
	<path style="fill:#FFFFFF;" d="M342.78,78.102c0,5.207,3.471,8.678,8.678,8.678c5.207,0,8.678-3.471,8.678-8.678
		c0-5.207-3.471-8.678-8.678-8.678C346.251,69.424,342.78,72.895,342.78,78.102L342.78,78.102z"/>
	<path style="fill:#FFFFFF;" d="M290.712,78.102c0,5.207,3.471,8.678,8.678,8.678s8.678-3.471,8.678-8.678
		c0-5.207-3.471-8.678-8.678-8.678S290.712,72.895,290.712,78.102L290.712,78.102z"/>
	<path style="fill:#FFFFFF;" d="M238.644,78.102c0,5.207,3.471,8.678,8.678,8.678S256,83.308,256,78.102
		c0-5.207-3.471-8.678-8.678-8.678S238.644,72.895,238.644,78.102L238.644,78.102z"/>
	<path style="fill:#FFFFFF;" d="M186.576,78.102c0,5.207,3.471,8.678,8.678,8.678c5.207,0,8.678-3.471,8.678-8.678
		c0-5.207-3.471-8.678-8.678-8.678C190.047,69.424,186.576,72.895,186.576,78.102L186.576,78.102z"/>
</g>
<path style="fill:#FBF7F2;" d="M82.441,503.322h347.119V0H82.441V503.322z"/>
<path style="fill:#E65252;" d="M117.153,503.322h277.695V34.712H117.153V503.322z"/>
<path style="fill:#FBF7F2;" d="M325.424,286.373h34.712v-34.712h-34.712V286.373z"/>
<path style="fill:#F8B563;" d="M325.424,277.695H299.39c-5.207,0-8.678-3.471-8.678-8.678c0-5.207,3.471-8.678,8.678-8.678h26.034
	c5.207,0,8.678,3.471,8.678,8.678C334.102,274.224,330.63,277.695,325.424,277.695"/>
<path style="fill:#7FABDA;" d="M151.864,190.915h208.271V69.424H151.864V190.915z"/>
<g>
	<path style="fill:#A4C9EB;" d="M203.932,78.102c0,5.207-3.471,8.678-8.678,8.678c-5.207,0-8.678-3.471-8.678-8.678
		c0-5.207,3.471-8.678,8.678-8.678C200.461,69.424,203.932,72.895,203.932,78.102"/>
	<path style="fill:#A4C9EB;" d="M256,78.102c0,5.207-3.471,8.678-8.678,8.678s-8.678-3.471-8.678-8.678
		c0-5.207,3.471-8.678,8.678-8.678S256,72.895,256,78.102"/>
	<path style="fill:#A4C9EB;" d="M308.068,78.102c0,5.207-3.471,8.678-8.678,8.678s-8.678-3.471-8.678-8.678
		c0-5.207,3.471-8.678,8.678-8.678S308.068,72.895,308.068,78.102"/>
	<path style="fill:#A4C9EB;" d="M360.136,78.102c0,5.207-3.471,8.678-8.678,8.678c-5.207,0-8.678-3.471-8.678-8.678
		c0-5.207,3.471-8.678,8.678-8.678C356.664,69.424,360.136,72.895,360.136,78.102"/>
	<path style="fill:#A4C9EB;" d="M177.898,104.136c0,5.207-3.471,8.678-8.678,8.678s-8.678-3.471-8.678-8.678
		c0-5.207,3.471-8.678,8.678-8.678S177.898,98.929,177.898,104.136"/>
	<path style="fill:#A4C9EB;" d="M229.966,104.136c0,5.207-3.471,8.678-8.678,8.678c-5.207,0-8.678-3.471-8.678-8.678
		c0-5.207,3.471-8.678,8.678-8.678C226.495,95.458,229.966,98.929,229.966,104.136"/>
	<path style="fill:#A4C9EB;" d="M177.898,156.203c0,5.207-3.471,8.678-8.678,8.678s-8.678-3.471-8.678-8.678
		c0-5.207,3.471-8.678,8.678-8.678S177.898,150.997,177.898,156.203"/>
	<path style="fill:#A4C9EB;" d="M229.966,156.203c0,5.207-3.471,8.678-8.678,8.678c-5.207,0-8.678-3.471-8.678-8.678
		c0-5.207,3.471-8.678,8.678-8.678C226.495,147.525,229.966,150.997,229.966,156.203"/>
	<path style="fill:#A4C9EB;" d="M203.932,130.169c0,5.207-3.471,8.678-8.678,8.678c-5.207,0-8.678-3.471-8.678-8.678
		s3.471-8.678,8.678-8.678C200.461,121.492,203.932,124.963,203.932,130.169"/>
	<path style="fill:#A4C9EB;" d="M256,130.169c0,5.207-3.471,8.678-8.678,8.678s-8.678-3.471-8.678-8.678s3.471-8.678,8.678-8.678
		S256,124.963,256,130.169"/>
	<path style="fill:#A4C9EB;" d="M203.932,182.237c0,5.207-3.471,8.678-8.678,8.678c-5.207,0-8.678-3.471-8.678-8.678
		s3.471-8.678,8.678-8.678C200.461,173.559,203.932,177.031,203.932,182.237"/>
	<path style="fill:#A4C9EB;" d="M256,182.237c0,5.207-3.471,8.678-8.678,8.678s-8.678-3.471-8.678-8.678s3.471-8.678,8.678-8.678
		S256,177.031,256,182.237"/>
	<path style="fill:#A4C9EB;" d="M282.034,104.136c0,5.207-3.471,8.678-8.678,8.678s-8.678-3.471-8.678-8.678
		c0-5.207,3.471-8.678,8.678-8.678S282.034,98.929,282.034,104.136"/>
	<path style="fill:#A4C9EB;" d="M334.102,104.136c0,5.207-3.471,8.678-8.678,8.678c-5.207,0-8.678-3.471-8.678-8.678
		c0-5.207,3.471-8.678,8.678-8.678C330.63,95.458,334.102,98.929,334.102,104.136"/>
	<path style="fill:#A4C9EB;" d="M282.034,156.203c0,5.207-3.471,8.678-8.678,8.678s-8.678-3.471-8.678-8.678
		c0-5.207,3.471-8.678,8.678-8.678S282.034,150.997,282.034,156.203"/>
	<path style="fill:#A4C9EB;" d="M334.102,156.203c0,5.207-3.471,8.678-8.678,8.678c-5.207,0-8.678-3.471-8.678-8.678
		c0-5.207,3.471-8.678,8.678-8.678C330.63,147.525,334.102,150.997,334.102,156.203"/>
	<path style="fill:#A4C9EB;" d="M308.068,130.169c0,5.207-3.471,8.678-8.678,8.678s-8.678-3.471-8.678-8.678
		s3.471-8.678,8.678-8.678S308.068,124.963,308.068,130.169"/>
	<path style="fill:#A4C9EB;" d="M360.136,130.169c0,5.207-3.471,8.678-8.678,8.678c-5.207,0-8.678-3.471-8.678-8.678
		s3.471-8.678,8.678-8.678C356.664,121.492,360.136,124.963,360.136,130.169"/>
	<path style="fill:#A4C9EB;" d="M308.068,182.237c0,5.207-3.471,8.678-8.678,8.678s-8.678-3.471-8.678-8.678
		s3.471-8.678,8.678-8.678S308.068,177.031,308.068,182.237"/>
	<path style="fill:#A4C9EB;" d="M360.136,182.237c0,5.207-3.471,8.678-8.678,8.678c-5.207,0-8.678-3.471-8.678-8.678
		s3.471-8.678,8.678-8.678C356.664,173.559,360.136,177.031,360.136,182.237"/>
</g>
<path style="fill:#DBD6D2;" d="M490.305,512H21.695c-5.207,0-8.678-3.471-8.678-8.678c0-5.207,3.471-8.678,8.678-8.678h468.61
	c5.207,0,8.678,3.471,8.678,8.678C498.983,508.529,495.512,512,490.305,512"/>
<g>
</g>
<g>
</g>
<g>
</g>
<g>
</g>
<g>
</g>
<g>
</g>
<g>
</g>
<g>
</g>
<g>
</g>
<g>
</g>
<g>
</g>
<g>
</g>
<g>
</g>
<g>
</g>
<g>
</g>
</svg>
