<?xml version="1.0" encoding="iso-8859-1"?>
<!-- Generator: Adobe Illustrator 19.0.0, SVG Export Plug-In . SVG Version: 6.00 Build 0)  -->
<svg version="1.1" id="Capa_1" xmlns="http://www.w3.org/2000/svg" xmlns:xlink="http://www.w3.org/1999/xlink" x="0px" y="0px"
	 viewBox="0 0 294.842 294.842" style="enable-background:new 0 0 294.842 294.842;" xml:space="preserve">
<g>
	<path d="M240.072,0H54.77c-3.313,0-6,2.687-6,6v282.842c0,3.313,2.687,6,6,6h185.303c3.313,0,6-2.687,6-6V6
		C246.072,2.687,243.386,0,240.072,0z M234.072,12v230.818H60.77V52.023h152.651c3.313,0,6-2.687,6-6s-2.687-6-6-6H60.77V12H234.072
		z M60.77,282.842v-28.023h173.303v28.023H60.77z"/>
	<path d="M147.421,174.421c3.313,0,6-2.687,6-6V95.956c0-3.313-2.687-6-6-6s-6,2.687-6,6v72.465
		C141.421,171.734,144.107,174.421,147.421,174.421z"/>
	<path d="M175.706,162.116L147.421,190.4l-28.285-28.284c-2.342-2.342-6.142-2.343-8.485,0.001
		c-2.343,2.343-2.343,6.142,0.001,8.485l32.527,32.526c1.171,1.171,2.707,1.757,4.242,1.757s3.071-0.586,4.242-1.757l32.527-32.526
		c2.344-2.344,2.344-6.143,0.001-8.485S178.049,159.773,175.706,162.116z"/>
</g>
<g>
</g>
<g>
</g>
<g>
</g>
<g>
</g>
<g>
</g>
<g>
</g>
<g>
</g>
<g>
</g>
<g>
</g>
<g>
</g>
<g>
</g>
<g>
</g>
<g>
</g>
<g>
</g>
<g>
</g>
</svg>
