<?xml version="1.0" encoding="iso-8859-1"?>
<!-- Generator: Adobe Illustrator 19.0.0, SVG Export Plug-In . SVG Version: 6.00 Build 0)  -->
<svg version="1.1" id="Capa_1" xmlns="http://www.w3.org/2000/svg" xmlns:xlink="http://www.w3.org/1999/xlink" x="0px" y="0px"
	 viewBox="0 0 289.088 289.088" style="enable-background:new 0 0 289.088 289.088;" xml:space="preserve">
<g>
	<path d="M144.209,153.421h0.67c21.596,0,39.165-17.569,39.165-39.165V39.165C184.044,17.569,166.475,0,144.879,0h-0.67
		c-21.596,0-39.165,17.569-39.165,39.165c0,3.313,2.687,6,6,6s6-2.687,6-6C117.044,24.187,129.23,12,144.209,12h0.67
		c14.979,0,27.165,12.187,27.165,27.165v75.091c0,14.979-12.187,27.165-27.165,27.165h-0.67c-14.979,0-27.165-12.187-27.165-27.165
		V71.544c0-3.313-2.687-6-6-6s-6,2.687-6,6v42.712C105.044,135.852,122.613,153.421,144.209,153.421z"/>
	<path d="M203.111,114.675c-3.313,0-6,2.687-6,6c0,28.663-23.318,51.982-51.981,51.982h-1.172
		c-28.663,0-51.981-23.319-51.981-51.982c0-3.313-2.687-6-6-6s-6,2.687-6,6c0,35.28,28.702,63.982,63.981,63.982h1.172
		c35.279,0,63.981-28.702,63.981-63.982C209.111,117.361,206.425,114.675,203.111,114.675z"/>
	<path d="M143.958,194.544c-3.313,0-6,2.687-6,6v82.544c0,3.313,2.687,6,6,6s6-2.687,6-6v-82.544
		C149.958,197.23,147.271,194.544,143.958,194.544z"/>
</g>
<g>
</g>
<g>
</g>
<g>
</g>
<g>
</g>
<g>
</g>
<g>
</g>
<g>
</g>
<g>
</g>
<g>
</g>
<g>
</g>
<g>
</g>
<g>
</g>
<g>
</g>
<g>
</g>
<g>
</g>
</svg>
