<?xml version="1.0" encoding="iso-8859-1"?>
<!-- Generator: Adobe Illustrator 19.0.0, SVG Export Plug-In . SVG Version: 6.00 Build 0)  -->
<svg version="1.1" id="Capa_1" xmlns="http://www.w3.org/2000/svg" xmlns:xlink="http://www.w3.org/1999/xlink" x="0px" y="0px"
	 viewBox="0 0 272.434 272.434" style="enable-background:new 0 0 272.434 272.434;" xml:space="preserve">
<path d="M208.084,75.85V59.095c0-31.857-25.918-57.775-57.774-57.775h-1.046c-31.857,0-57.775,25.918-57.775,57.775v52.193
	c0,21.663-17.624,39.287-39.286,39.287h-0.915C29.624,150.575,12,132.951,12,111.288V7.32c0-3.313-2.687-6-6-6s-6,2.687-6,6v103.968
	c0,28.279,23.007,51.287,51.287,51.287h0.915c28.279,0,51.286-23.007,51.286-51.287V59.095c0-25.241,20.535-45.775,45.775-45.775
	h1.046c25.24,0,45.774,20.535,45.774,45.775v16.808c-35.582,2.915-63.65,32.785-63.65,69.106v56.745
	c0,38.246,31.114,69.36,69.359,69.36h1.28c24.798,0,47.87-13.378,60.214-34.914c1.648-2.875,0.653-6.542-2.222-8.189
	c-2.873-1.647-6.54-0.653-8.188,2.222c-10.212,17.815-29.295,28.881-49.804,28.881h-1.28c-31.628,0-57.359-25.732-57.359-57.36
	v-56.745c0-29.702,22.693-54.199,51.65-57.074v6.844v55.796h-32.867c-3.313,0-6,2.686-6,6s2.687,6,6,6h97.217v23.642
	c0,3.313,2.687,6,6,6s6-2.687,6-6v-41.208C272.434,108.45,243.997,78.429,208.084,75.85z M208.084,150.575V94.779v-6.898
	c29.29,2.549,52.35,27.189,52.35,57.128v5.566H208.084z"/>
<g>
</g>
<g>
</g>
<g>
</g>
<g>
</g>
<g>
</g>
<g>
</g>
<g>
</g>
<g>
</g>
<g>
</g>
<g>
</g>
<g>
</g>
<g>
</g>
<g>
</g>
<g>
</g>
<g>
</g>
</svg>
