<?xml version="1.0" encoding="iso-8859-1"?>
<!-- Generator: Adobe Illustrator 19.0.0, SVG Export Plug-In . SVG Version: 6.00 Build 0)  -->
<svg version="1.1" id="Capa_1" xmlns="http://www.w3.org/2000/svg" xmlns:xlink="http://www.w3.org/1999/xlink" x="0px" y="0px"
	 viewBox="0 0 253.071 253.071" style="enable-background:new 0 0 253.071 253.071;" xml:space="preserve">
<g>
	<path d="M247.071,167.022h-25.87V119.88c0-49.777-38.985-90.614-88.024-93.598V7.081c0-3.313-2.687-6-6-6s-6,2.687-6,6v19.13
		c-49.641,2.342-89.306,43.46-89.306,93.67v30.655c0,3.313,2.687,6,6,6s6-2.687,6-6V119.88c0-45.093,36.686-81.779,81.778-81.779
		h1.773c45.093,0,81.779,36.687,81.779,81.779v47.142H6c-3.313,0-6,2.687-6,6v34.788c0,3.313,2.687,6,6,6h241.071
		c3.313,0,6-2.687,6-6v-34.788C253.071,169.708,250.385,167.022,247.071,167.022z M241.071,201.81H12v-22.788h229.071V201.81z"/>
	<path d="M148.172,218.571c-3.313,0-6,2.687-6,6c0,8.503-6.917,15.42-15.42,15.42h-0.433c-8.502,0-15.419-6.917-15.419-15.42
		c0-3.313-2.687-6-6-6s-6,2.687-6,6c0,15.119,12.3,27.42,27.419,27.42h0.433c15.12,0,27.42-12.301,27.42-27.42
		C154.172,221.257,151.485,218.571,148.172,218.571z"/>
</g>
<g>
</g>
<g>
</g>
<g>
</g>
<g>
</g>
<g>
</g>
<g>
</g>
<g>
</g>
<g>
</g>
<g>
</g>
<g>
</g>
<g>
</g>
<g>
</g>
<g>
</g>
<g>
</g>
<g>
</g>
</svg>
