<?xml version="1.0" encoding="iso-8859-1"?>
<!-- Generator: Adobe Illustrator 19.0.0, SVG Export Plug-In . SVG Version: 6.00 Build 0)  -->
<svg version="1.1" id="Capa_1" xmlns="http://www.w3.org/2000/svg" xmlns:xlink="http://www.w3.org/1999/xlink" x="0px" y="0px"
	 viewBox="0 0 294.844 294.844" style="enable-background:new 0 0 294.844 294.844;" xml:space="preserve">
<path d="M288.843,235.422c3.313,0,6-2.687,6-6V76.004C294.843,34.096,260.748,0,218.839,0h-1.414
	c-31.416,0-58.44,19.161-70.004,46.409C135.858,19.161,108.834,0,77.417,0h-1.414C34.095,0,0,34.096,0,76.004v212.84
	c0,3.313,2.687,6,6,6h0.13c3.229,0,5.878-2.555,5.996-5.781c1.262-34.567,29.319-61.645,63.877-61.645h1.414
	c34.558,0,62.616,27.077,63.878,61.645c0.118,3.227,2.768,5.781,5.996,5.781h0.13h0.13c3.229,0,5.878-2.555,5.996-5.781
	c1.263-34.567,29.321-61.645,63.878-61.645h1.414c34.558,0,62.615,27.077,63.877,61.645c0.118,3.227,2.768,5.781,5.996,5.781h0.131
	c3.313,0,6-2.687,6-6c0-0.523-0.067-1.031-0.193-1.516c-1.024-19.22-9.176-37.13-23.041-50.555
	c-14.223-13.771-32.964-21.355-52.77-21.355h-1.414c-19.806,0-38.547,7.584-52.77,21.355c-7.494,7.256-13.302,15.829-17.234,25.204
	c-3.933-9.375-9.74-17.949-17.234-25.204c-14.223-13.771-32.964-21.355-52.77-21.355h-1.414c-19.806,0-38.546,7.584-52.77,21.355
	c-4.311,4.174-8.069,8.782-11.233,13.728V76.004C12,40.712,40.712,12,76.003,12h1.414c35.292,0,64.004,28.712,64.004,64.004v134.418
	c0,3.313,2.687,6,6,6s6-2.687,6-6V76.004c0-35.292,28.712-64.004,64.004-64.004h1.414c35.292,0,64.004,28.712,64.004,64.004v153.418
	C282.843,232.735,285.53,235.422,288.843,235.422z"/>
<g>
</g>
<g>
</g>
<g>
</g>
<g>
</g>
<g>
</g>
<g>
</g>
<g>
</g>
<g>
</g>
<g>
</g>
<g>
</g>
<g>
</g>
<g>
</g>
<g>
</g>
<g>
</g>
<g>
</g>
</svg>
