<?xml version="1.0" encoding="iso-8859-1"?>
<!-- Generator: Adobe Illustrator 19.0.0, SVG Export Plug-In . SVG Version: 6.00 Build 0)  -->
<svg version="1.1" id="Capa_1" xmlns="http://www.w3.org/2000/svg" xmlns:xlink="http://www.w3.org/1999/xlink" x="0px" y="0px"
	 viewBox="0 0 294.842 294.842" style="enable-background:new 0 0 294.842 294.842;" xml:space="preserve">
<g>
	<path d="M241.118,124.088h-14.364V78.6c0-43.34-35.26-78.6-78.6-78.6h-1.467c-43.34,0-78.6,35.26-78.6,78.6v45.488H53.724
		c-3.313,0-6,2.687-6,6v158.754c0,3.313,2.687,6,6,6c3.314,0,6-2.687,6-6V136.088h14.364h146.667h14.364v146.754H124.42
		c-3.313,0-6,2.687-6,6s2.687,6,6,6h116.698c3.313,0,6-2.687,6-6V130.088C247.118,126.774,244.432,124.088,241.118,124.088z
		 M80.087,124.088V78.6c0-36.723,29.876-66.6,66.6-66.6h1.467c36.724,0,66.6,29.877,66.6,66.6v45.488H80.087z"/>
	<path d="M147.421,179.399c3.313,0,6-2.687,6-6s-2.687-6-6-6c-14.253,0-25.849,11.596-25.849,25.849s11.596,25.849,25.849,25.849
		s25.849-11.596,25.849-25.849c0-3.313-2.687-6-6-6s-6,2.687-6,6c0,7.636-6.212,13.849-13.849,13.849s-13.849-6.213-13.849-13.849
		S139.785,179.399,147.421,179.399z"/>
</g>
<g>
</g>
<g>
</g>
<g>
</g>
<g>
</g>
<g>
</g>
<g>
</g>
<g>
</g>
<g>
</g>
<g>
</g>
<g>
</g>
<g>
</g>
<g>
</g>
<g>
</g>
<g>
</g>
<g>
</g>
</svg>
