<?xml version="1.0" encoding="iso-8859-1"?>
<!-- Generator: Adobe Illustrator 19.0.0, SVG Export Plug-In . SVG Version: 6.00 Build 0)  -->
<svg version="1.1" id="Capa_1" xmlns="http://www.w3.org/2000/svg" xmlns:xlink="http://www.w3.org/1999/xlink" x="0px" y="0px"
	 viewBox="0 0 294.843 294.843" style="enable-background:new 0 0 294.843 294.843;" xml:space="preserve">
<g>
	<path d="M147.421,0c-52.62,0-95.43,42.81-95.43,95.43c0,47.057,32.64,108.738,60.022,152.195c1.766,2.804,5.47,3.645,8.275,1.878
		c2.803-1.766,3.644-5.471,1.877-8.274C74.084,164.917,63.992,119.822,63.992,95.43c0-46.003,37.426-83.43,83.43-83.43
		s83.43,37.426,83.43,83.43c0,74.708-87.296,188.604-88.178,189.745c-2.025,2.623-1.542,6.391,1.081,8.416
		c1.092,0.844,2.383,1.252,3.664,1.252c1.794,0,3.57-0.802,4.752-2.332c3.703-4.792,90.682-118.277,90.682-197.082
		C242.851,42.81,200.042,0,147.421,0z"/>
	<path d="M147.421,65c3.313,0,6-2.687,6-6s-2.687-6-6-6c-23.396,0-42.43,19.034-42.43,42.43s19.034,42.43,42.43,42.43
		s42.43-19.034,42.43-42.43c0-9.344-2.979-18.208-8.617-25.635c-2.003-2.639-5.767-3.154-8.407-1.151
		c-2.639,2.003-3.155,5.767-1.151,8.407c4.04,5.321,6.175,11.677,6.175,18.379c0,16.779-13.651,30.43-30.43,30.43
		s-30.43-13.651-30.43-30.43S130.643,65,147.421,65z"/>
</g>
<g>
</g>
<g>
</g>
<g>
</g>
<g>
</g>
<g>
</g>
<g>
</g>
<g>
</g>
<g>
</g>
<g>
</g>
<g>
</g>
<g>
</g>
<g>
</g>
<g>
</g>
<g>
</g>
<g>
</g>
</svg>
