<?xml version="1.0" encoding="iso-8859-1"?>
<!-- Generator: Adobe Illustrator 19.0.0, SVG Export Plug-In . SVG Version: 6.00 Build 0)  -->
<svg version="1.1" id="Capa_1" xmlns="http://www.w3.org/2000/svg" xmlns:xlink="http://www.w3.org/1999/xlink" x="0px" y="0px"
	 viewBox="0 0 247.235 247.235" style="enable-background:new 0 0 247.235 247.235;" xml:space="preserve">
<g>
	<path d="M204.912,183.175h-165.2v-39.771h21.712c2.196,0,4.216-1.199,5.268-3.127s0.966-4.276-0.224-6.122L38.756,91.133
		c-1.104-1.715-3.004-2.751-5.044-2.751s-3.939,1.036-5.044,2.751L0.956,134.154c-1.189,1.846-1.275,4.194-0.224,6.122
		s3.072,3.127,5.268,3.127h21.712v45.771c0,3.313,2.686,6,6,6h171.2c3.313,0,6-2.687,6-6S208.226,183.175,204.912,183.175z
		 M33.712,105.462l16.71,25.941h-33.42L33.712,105.462z"/>
	<path d="M246.502,106.958c-1.052-1.928-3.071-3.127-5.268-3.127h-21.712V58.06c0-3.313-2.687-6-6-6h-171.2c-3.313,0-6,2.687-6,6
		s2.687,6,6,6h165.2v45.771c0,3.313,2.687,6,6,6h16.71l-16.71,25.941l-22.669-35.19c-1.794-2.786-5.506-3.59-8.293-1.795
		c-2.786,1.794-3.59,5.508-1.795,8.293l27.713,43.021c1.104,1.715,3.004,2.751,5.044,2.751s3.939-1.036,5.044-2.751l27.712-43.021
		C247.468,111.234,247.554,108.886,246.502,106.958z"/>
</g>
<g>
</g>
<g>
</g>
<g>
</g>
<g>
</g>
<g>
</g>
<g>
</g>
<g>
</g>
<g>
</g>
<g>
</g>
<g>
</g>
<g>
</g>
<g>
</g>
<g>
</g>
<g>
</g>
<g>
</g>
</svg>
