<?xml version="1.0" encoding="iso-8859-1"?>
<!-- Generator: Adobe Illustrator 19.0.0, SVG Export Plug-In . SVG Version: 6.00 Build 0)  -->
<svg version="1.1" id="Capa_1" xmlns="http://www.w3.org/2000/svg" xmlns:xlink="http://www.w3.org/1999/xlink" x="0px" y="0px"
	 viewBox="0 0 275.334 275.334" style="enable-background:new 0 0 275.334 275.334;" xml:space="preserve">
<g>
	<path d="M137.667,168.021c16.737,0,30.354-13.617,30.354-30.354s-13.617-30.354-30.354-30.354s-30.354,13.617-30.354,30.354
		S120.93,168.021,137.667,168.021z M137.667,119.313c10.121,0,18.354,8.233,18.354,18.354s-8.233,18.354-18.354,18.354
		s-18.354-8.233-18.354-18.354S127.546,119.313,137.667,119.313z"/>
	<path d="M269.334,131.667h-23.775c-3.015-54.818-47.074-98.877-101.892-101.892V6c0-3.313-2.687-6-6-6s-6,2.687-6,6v29.605
		c0,3.313,2.687,6,6,6c52.969,0,96.062,43.093,96.062,96.062s-43.093,96.062-96.062,96.062s-96.062-43.093-96.062-96.062
		c0-36.783,21.452-70.817,54.651-86.704c2.989-1.431,4.253-5.013,2.822-8.002c-1.43-2.988-5.015-4.252-8.002-2.822
		c-18.131,8.676-33.473,22.217-44.366,39.158c-10.11,15.724-15.897,33.718-16.924,52.37H6c-3.313,0-6,2.687-6,6s2.687,6,6,6h23.775
		c3.015,54.818,47.074,98.877,101.892,101.892v23.775c0,3.313,2.687,6,6,6s6-2.687,6-6v-23.775
		c54.818-3.015,98.877-47.074,101.892-101.892h23.775c3.313,0,6-2.687,6-6S272.647,131.667,269.334,131.667z"/>
</g>
<g>
</g>
<g>
</g>
<g>
</g>
<g>
</g>
<g>
</g>
<g>
</g>
<g>
</g>
<g>
</g>
<g>
</g>
<g>
</g>
<g>
</g>
<g>
</g>
<g>
</g>
<g>
</g>
<g>
</g>
</svg>
