<?xml version="1.0" encoding="iso-8859-1"?>
<!-- Generator: Adobe Illustrator 19.0.0, SVG Export Plug-In . SVG Version: 6.00 Build 0)  -->
<svg version="1.1" id="Capa_1" xmlns="http://www.w3.org/2000/svg" xmlns:xlink="http://www.w3.org/1999/xlink" x="0px" y="0px"
	 viewBox="0 0 294.842 294.842" style="enable-background:new 0 0 294.842 294.842;" xml:space="preserve">
<g>
	<path d="M248.346,51.991h-80.048c-3.313,0-6,2.687-6,6s2.687,6,6,6h74.048v218.851H52.495V63.991h74.048c3.313,0,6-2.687,6-6
		s-2.687-6-6-6H46.495c-3.313,0-6,2.687-6,6v230.851c0,3.313,2.687,6,6,6h201.851c3.313,0,6-2.687,6-6V57.991
		C254.346,54.677,251.66,51.991,248.346,51.991z"/>
	<path d="M122.351,39.554l19.07-19.069v178.736c0,3.313,2.687,6,6,6s6-2.687,6-6V20.485l19.146,19.145
		c1.171,1.172,2.707,1.758,4.242,1.758s3.071-0.586,4.242-1.758c2.344-2.343,2.344-6.142,0-8.484L151.663,1.758
		c-2.341-2.343-6.142-2.344-8.485-0.001l-29.313,29.312c-2.343,2.344-2.343,6.143,0,8.485
		C116.209,41.897,120.007,41.896,122.351,39.554z"/>
</g>
<g>
</g>
<g>
</g>
<g>
</g>
<g>
</g>
<g>
</g>
<g>
</g>
<g>
</g>
<g>
</g>
<g>
</g>
<g>
</g>
<g>
</g>
<g>
</g>
<g>
</g>
<g>
</g>
<g>
</g>
</svg>
