<?xml version="1.0" encoding="iso-8859-1"?>
<!-- Generator: Adobe Illustrator 19.0.0, SVG Export Plug-In . SVG Version: 6.00 Build 0)  -->
<svg version="1.1" id="Layer_1" xmlns="http://www.w3.org/2000/svg" xmlns:xlink="http://www.w3.org/1999/xlink" x="0px" y="0px"
	 viewBox="0 0 504.131 504.131" style="enable-background:new 0 0 504.131 504.131;" xml:space="preserve">
<path style="fill:#0783D8;" d="M386.229,386.245H117.886V117.894h268.343V386.245z M125.865,378.266h252.4V125.873h-252.4V378.266z"
	/>
<path style="fill:#F47B29;" d="M417.17,417.178H86.953V86.961H417.17V417.178z M94.941,409.19h314.25V94.948H94.941V409.19z"/>
<path style="fill:#0783D8;" d="M446.102,446.11H58.014V58.029h388.088L446.102,446.11L446.102,446.11z M66.009,438.122h372.098
	V66.017H66.009V438.122z"/>
<rect x="197.522" y="197.538" style="fill:#FF9827;" width="109.072" height="109.072"/>
<polyline style="fill:#FF7C24;" points="197.522,197.538 306.593,197.538 306.593,306.609 "/>
<g>
	<path style="fill:#09C8D6;" d="M252.062,207.525c-2.213,0-3.994-1.796-3.994-3.994v-35.919c0-2.206,1.78-3.994,3.994-3.994
		c2.206,0,3.994,1.788,3.994,3.994v35.919C256.055,205.73,254.267,207.525,252.062,207.525z"/>
	<path style="fill:#09C8D6;" d="M252.062,340.527c-2.213,0-3.994-1.788-3.994-3.994v-35.919c0-2.198,1.78-3.986,3.994-3.986
		c2.206,0,3.994,1.788,3.994,3.986v35.919C256.055,338.747,254.267,340.527,252.062,340.527z"/>
	<path style="fill:#09C8D6;" d="M336.526,256.071h-35.919c-2.206,0-3.994-1.788-3.994-3.994s1.788-3.994,3.994-3.994h35.919
		c2.198,0,3.994,1.788,3.994,3.994S338.723,256.071,336.526,256.071z"/>
	<path style="fill:#09C8D6;" d="M203.508,256.071h-35.911c-2.206,0-4.001-1.788-4.001-3.994s1.796-3.994,4.001-3.994h35.911
		c2.213,0,4.001,1.788,4.001,3.994S205.722,256.071,203.508,256.071z"/>
	<path style="fill:#09C8D6;" d="M252.062,43.898c-2.213,0-3.994-1.788-3.994-3.986V3.994c0-2.206,1.78-3.994,3.994-3.994
		c2.206,0,3.994,1.788,3.994,3.994v35.919C256.055,42.118,254.267,43.898,252.062,43.898z"/>
	<path style="fill:#09C8D6;" d="M252.062,504.131c-2.213,0-3.994-1.788-3.994-3.994v-35.919c0-2.198,1.78-3.986,3.994-3.986
		c2.206,0,3.994,1.788,3.994,3.986v35.919C256.055,502.343,254.267,504.131,252.062,504.131z"/>
	<path style="fill:#09C8D6;" d="M460.233,252.069c0-2.206,1.788-3.994,3.986-3.994h35.919c2.206,0,3.994,1.788,3.994,3.994
		c0,2.206-1.788,3.994-3.994,3.994h-35.919C462.013,256.063,460.233,254.275,460.233,252.069z"/>
	<path style="fill:#09C8D6;" d="M0,252.069c0-2.206,1.788-3.994,3.994-3.994h35.919c2.198,0,3.986,1.788,3.986,3.994
		c0,2.206-1.788,3.994-3.986,3.994H3.994C1.788,256.063,0,254.275,0,252.069z"/>
</g>
<circle style="fill:#29FFDB;" cx="252.062" cy="252.069" r="9.972"/>
<polyline style="fill:#09C8D6;" points="163.107,192.039 163.107,163.107 192.039,163.107 "/>
<path style="fill:#0783D8;" d="M163.107,196.033c-2.198,0-3.986-1.788-3.986-3.994v-28.932c0-2.198,1.788-3.986,3.986-3.986h28.932
	c2.206,0,3.994,1.788,3.994,3.986c0,2.206-1.788,3.994-3.994,3.994h-24.938v24.938C167.101,194.245,165.305,196.033,163.107,196.033
	z"/>
<polyline style="fill:#09C8D6;" points="341.016,312.099 341.016,341.031 312.076,341.031 "/>
<path style="fill:#0783D8;" d="M341.016,345.025h-28.94c-2.198,0-3.986-1.796-3.986-3.994c0-2.206,1.788-3.994,3.986-3.994h24.938
	v-24.938c0-2.206,1.796-3.994,4.001-3.994c2.198,0,3.986,1.788,3.986,3.994v28.932C345.001,343.229,343.213,345.025,341.016,345.025
	z"/>
<polyline style="fill:#09C8D6;" points="192.039,341.031 163.107,341.031 163.107,312.099 "/>
<path style="fill:#0783D8;" d="M192.039,345.025h-28.932c-2.198,0-3.986-1.796-3.986-3.994v-28.932c0-2.206,1.788-3.994,3.986-3.994
	s3.994,1.788,3.994,3.994v24.938h24.938c2.206,0,3.994,1.788,3.994,3.994C196.033,343.229,194.245,345.025,192.039,345.025z"/>
<polyline style="fill:#09C8D6;" points="312.076,163.123 341.016,163.123 341.016,192.055 "/>
<path style="fill:#0783D8;" d="M341.016,196.049c-2.206,0-4.001-1.788-4.001-3.994v-24.938h-24.938
	c-2.198,0-3.986-1.788-3.986-3.994c0-2.198,1.788-3.986,3.986-3.986h28.94c2.198,0,3.986,1.788,3.986,3.986v28.932
	C345.001,194.261,343.213,196.049,341.016,196.049z"/>
<g>
	<circle style="fill:#FF7C24;" cx="252.062" cy="142.328" r="4.49"/>
	<circle style="fill:#FF7C24;" cx="252.062" cy="361.795" r="4.49"/>
	<circle style="fill:#FF7C24;" cx="361.787" cy="252.069" r="4.49"/>
	<circle style="fill:#FF7C24;" cx="142.32" cy="252.069" r="4.49"/>
</g>
<g>
	<rect x="61.519" y="31.602" style="fill:#09C8D6;" width="11.981" height="11.973"/>
	<rect x="86.788" y="31.602" style="fill:#09C8D6;" width="11.973" height="11.973"/>
	<rect x="112.057" y="31.602" style="fill:#09C8D6;" width="11.973" height="11.973"/>
	<rect x="137.326" y="31.602" style="fill:#09C8D6;" width="11.973" height="11.973"/>
	<rect x="354.832" y="460.572" style="fill:#09C8D6;" width="11.973" height="11.981"/>
	<rect x="380.093" y="460.572" style="fill:#09C8D6;" width="11.981" height="11.981"/>
	<rect x="405.37" y="460.572" style="fill:#09C8D6;" width="11.973" height="11.981"/>
	<rect x="430.631" y="460.572" style="fill:#09C8D6;" width="11.981" height="11.981"/>
</g>
<g>
</g>
<g>
</g>
<g>
</g>
<g>
</g>
<g>
</g>
<g>
</g>
<g>
</g>
<g>
</g>
<g>
</g>
<g>
</g>
<g>
</g>
<g>
</g>
<g>
</g>
<g>
</g>
<g>
</g>
</svg>
