<?xml version="1.0" encoding="iso-8859-1"?>
<!-- Generator: Adobe Illustrator 19.0.0, SVG Export Plug-In . SVG Version: 6.00 Build 0)  -->
<svg version="1.1" id="Layer_1" xmlns="http://www.w3.org/2000/svg" xmlns:xlink="http://www.w3.org/1999/xlink" x="0px" y="0px"
	 viewBox="0 0 504.139 504.139" style="enable-background:new 0 0 504.139 504.139;" xml:space="preserve">
<path style="fill:#B5DCE5;" d="M458.035,79.982c-94.247-16.998-184.446,45.631-201.444,139.878"/>
<path style="fill:#EA5706;" d="M254.425,231.881c6.656,1.213,13.028-3.182,14.241-9.862
	C284.444,134.585,368.412,76.28,455.877,92.05c6.632,1.197,13.028-3.214,14.218-9.878c1.205-6.617-3.237-12.997-9.886-14.202
	c-100.714-18.204-197.467,48.987-215.639,149.709C243.373,224.327,247.8,230.691,254.425,231.881z"/>
<path style="fill:#FFC45C;" d="M465.558,40.046c3.426,0.614,6.593,2.536,8.751,5.648l29.822,43.016l-42.984,29.893
	c-6.16,4.23-14.604,2.725-18.834-3.434c-4.293-6.136-2.773-14.525,3.379-18.818l20.811-14.431L452.08,61.101
	c-4.277-6.136-2.781-14.557,3.411-18.834C458.516,40.125,462.147,39.448,465.558,40.046z"/>
<path style="fill:#FF7C24;" d="M441.517,113.428l41.196-28.601L454.128,43.67c-4.829,4.49-5.939,11.831-2.056,17.432l14.423,20.819
	l-20.811,14.431C440.099,100.273,438.603,107.504,441.517,113.428z"/>
<path style="fill:#B5DCE5;" d="M46.104,424.157c94.263,16.983,184.446-45.631,201.46-139.863"/>
<path style="fill:#EA5706;" d="M249.73,272.258c-6.672-1.229-13.036,3.182-14.241,9.862
	c-15.762,87.418-99.761,145.739-187.219,129.953c-6.617-1.197-13.013,3.245-14.218,9.893c-1.182,6.617,3.261,12.981,9.901,14.202
	c100.699,18.188,197.459-48.987,215.639-149.725C260.773,279.804,256.354,273.432,249.73,272.258z"/>
<path style="fill:#FFC45C;" d="M38.581,464.093c-3.411-0.63-6.569-2.552-8.743-5.648l-29.83-43.016l43-29.893
	c6.168-4.23,14.604-2.725,18.834,3.434c4.277,6.136,2.757,14.525-3.371,18.818L37.66,422.219l14.423,20.819
	c4.261,6.136,2.773,14.557-3.411,18.849C45.639,464.014,42.008,464.691,38.581,464.093z"/>
<path style="fill:#FF7C24;" d="M62.622,390.711l-41.188,28.585l28.585,41.173c4.829-4.506,5.923-11.831,2.064-17.432L37.66,422.219
	l20.811-14.431C64.055,403.866,65.544,396.619,62.622,390.711z"/>
<path style="fill:#B5DCE5;" d="M424.164,458.027c16.983-94.263-45.647-184.43-139.878-201.444"/>
<path style="fill:#EA5706;" d="M272.25,254.432c-1.221,6.648,3.206,13.028,9.87,14.218c87.434,15.77,145.747,99.753,129.969,187.234
	c-1.205,6.617,3.222,13.013,9.886,14.218c6.609,1.182,12.981-3.245,14.202-9.878c18.196-100.722-49.002-197.49-149.725-215.662
	C279.82,243.373,273.44,247.8,272.25,254.432z"/>
<path style="fill:#FFC45C;" d="M464.093,465.558c-0.614,3.403-2.536,6.585-5.648,8.736l-43.024,29.846l-29.877-43
	c-4.238-6.152-2.725-14.604,3.426-18.818c6.128-4.293,14.517-2.788,18.826,3.356l14.415,20.803l20.842-14.415
	c6.12-4.277,14.549-2.773,18.826,3.403C464.014,458.508,464.699,462.139,464.093,465.558z"/>
<path style="fill:#FF7C24;" d="M390.703,441.509l28.609,41.196l41.157-28.585c-4.498-4.829-11.839-5.939-17.416-2.064
	l-20.842,14.423l-14.415-20.803C403.866,440.092,396.642,438.603,390.703,441.509z"/>
<path style="fill:#B5DCE5;" d="M79.974,46.096C63,140.359,125.621,230.558,219.829,247.556"/>
<path style="fill:#EA5706;" d="M231.889,249.706c1.221-6.664-3.182-13.028-9.878-14.234C134.609,219.719,76.28,135.719,92.073,48.27
	c1.182-6.632-3.245-13.028-9.909-14.234c-6.609-1.197-12.973,3.245-14.202,9.893c-18.188,100.738,48.987,197.474,149.725,215.647
	C224.343,260.766,230.699,256.354,231.889,249.706z"/>
<path style="fill:#FFC45C;" d="M40.038,38.581c0.638-3.419,2.56-6.569,5.648-8.751L88.702,0l29.909,43
	c4.222,6.183,2.71,14.612-3.458,18.818c-6.105,4.293-14.509,2.773-18.786-3.371L81.896,37.66L61.117,52.059
	c-6.144,4.309-14.557,2.788-18.849-3.387C40.125,45.631,39.44,42.016,40.038,38.581z"/>
<path style="fill:#FF7C24;" d="M113.428,62.614L84.834,21.441L43.678,50.034c4.498,4.813,11.808,5.908,17.44,2.032l20.787-14.399
	l14.462,20.787C100.281,64.047,107.52,65.536,113.428,62.614z"/>
<circle style="fill:#F29A19;" cx="252.069" cy="252.054" r="43.441"/>
<path style="fill:#FF7C24;" d="M221.349,221.342c16.967-16.967,44.481-16.967,61.448,0s16.967,44.473,0,61.432"/>
<g>
	<circle style="fill:#6695B2;" cx="252.069" cy="57.029" r="8.365"/>
	<circle style="fill:#6695B2;" cx="252.069" cy="447.102" r="8.365"/>
	<circle style="fill:#6695B2;" cx="447.102" cy="252.069" r="8.365"/>
	<circle style="fill:#6695B2;" cx="57.029" cy="252.069" r="8.365"/>
	<circle style="fill:#6695B2;" cx="154.553" cy="83.188" r="8.365"/>
	<circle style="fill:#6695B2;" cx="349.578" cy="420.974" r="8.365"/>
	<circle style="fill:#6695B2;" cx="420.974" cy="154.553" r="8.365"/>
	<circle style="fill:#6695B2;" cx="83.188" cy="349.586" r="8.365"/>
	<circle style="fill:#6695B2;" cx="302.553" cy="63.677" r="8.373"/>
	<circle style="fill:#6695B2;" cx="201.578" cy="440.485" r="8.373"/>
	<circle style="fill:#6695B2;" cx="440.485" cy="302.545" r="8.365"/>
	<path style="fill:#6695B2;" d="M61.503,209.676c-4.443-1.189-7.105-5.782-5.908-10.256c1.197-4.474,5.782-7.105,10.248-5.916
		c4.474,1.197,7.121,5.782,5.923,10.248C70.561,208.226,65.993,210.881,61.503,209.676z"/>
	<path style="fill:#6695B2;" d="M209.684,61.511c1.166,4.482-1.481,9.058-5.923,10.248c-4.474,1.205-9.058-1.441-10.264-5.916
		c-1.197-4.443,1.449-9.035,5.923-10.248C203.871,54.39,208.471,57.06,209.684,61.511z"/>
	<path style="fill:#6695B2;" d="M310.642,438.304c1.166,4.45-1.481,9.043-5.923,10.248c-4.474,1.205-9.058-1.465-10.264-5.916
		c-1.197-4.474,1.449-9.051,5.908-10.256C304.853,431.183,309.437,433.829,310.642,438.304z"/>
	<path style="fill:#6695B2;" d="M442.636,209.668c-4.49,1.205-9.058-1.457-10.264-5.916c-1.213-4.45,1.434-9.043,5.908-10.248
		c4.474-1.189,9.058,1.449,10.264,5.916C449.749,203.886,447.102,208.479,442.636,209.668z"/>
	<path style="fill:#6695B2;" d="M65.835,310.642c-4.443,1.189-9.043-1.457-10.248-5.923c-1.205-4.466,1.449-9.043,5.908-10.248
		c4.49-1.197,9.058,1.449,10.248,5.908C72.948,304.853,70.333,309.429,65.835,310.642z"/>
</g>
<g>
</g>
<g>
</g>
<g>
</g>
<g>
</g>
<g>
</g>
<g>
</g>
<g>
</g>
<g>
</g>
<g>
</g>
<g>
</g>
<g>
</g>
<g>
</g>
<g>
</g>
<g>
</g>
<g>
</g>
</svg>
