<?xml version="1.0" encoding="iso-8859-1"?>
<!-- Generator: Adobe Illustrator 19.0.0, SVG Export Plug-In . SVG Version: 6.00 Build 0)  -->
<svg version="1.1" id="Layer_1" xmlns="http://www.w3.org/2000/svg" xmlns:xlink="http://www.w3.org/1999/xlink" x="0px" y="0px"
	 viewBox="0 0 491.685 491.685" style="enable-background:new 0 0 491.685 491.685;" xml:space="preserve">
<path style="fill:#064093;" d="M361.129,256.15l-20.937-34.257V119.501C340.193,53.508,286.7,0,220.7,0h-63.488
	C91.234,0,71.345,53.508,71.345,119.501v128.197v6.223v237.757h163.052l-27.743-118.256H220.7c66.001,0,119.493,3.757,119.493-62.22
	v-20.133l14.667-8.98C363.784,276.645,366.557,265.043,361.129,256.15z"/>
<path style="fill:#05346D;" d="M340.193,311.201v-20.133l14.667-8.98c8.925-5.443,11.697-17.046,6.27-25.947l-20.937-34.257V119.501
	C340.193,53.508,286.7,0,220.7,0h-63.488C91.234,0,71.345,53.508,71.345,119.501v118.012l135.908,135.908H220.7
	C286.7,373.421,340.193,377.179,340.193,311.201z"/>
<path style="fill:#F47B29;" d="M264.779,207.25c0,5.049-4.088,9.137-9.145,9.137H65.95c-5.057,0-9.153-4.096-9.153-9.137v-57.533
	c0-5.041,4.104-9.137,9.153-9.137h189.684c5.065,0,9.145,4.104,9.145,9.137V207.25z"/>
<path style="fill:#F29C2A;" d="M255.634,140.579H65.95c-5.057,0-9.153,4.104-9.153,9.137v30.641c0,5.049,4.104,9.145,9.153,9.145
	h189.684c5.065,0,9.145-4.104,9.145-9.145v-30.641C264.779,144.675,260.699,140.579,255.634,140.579z"/>
<g>
	<path style="fill:#05346D;" d="M154.108,193.528c0,1.418-1.134,2.552-2.544,2.552l0,0c-1.426,0-2.568-1.142-2.568-2.552v-30.082
		c0-1.426,1.15-2.568,2.568-2.568l0,0c1.418,0,2.544,1.15,2.544,2.568V193.528z"/>
	<path style="fill:#05346D;" d="M171.406,193.528c0,1.418-1.142,2.552-2.544,2.552l0,0c-1.434,0-2.576-1.142-2.576-2.552v-30.082
		c0-1.426,1.15-2.568,2.576-2.568l0,0c1.41,0,2.544,1.15,2.544,2.568V193.528z"/>
	<path style="fill:#05346D;" d="M188.688,193.528c0,1.418-1.142,2.552-2.544,2.552l0,0c-1.426,0-2.568-1.142-2.568-2.552v-30.082
		c0-1.426,1.15-2.568,2.568-2.568l0,0c1.41,0,2.544,1.15,2.544,2.568V193.528z"/>
	<path style="fill:#05346D;" d="M205.97,193.528c0,1.418-1.142,2.552-2.544,2.552l0,0c-1.426,0-2.568-1.142-2.568-2.552v-30.082
		c0-1.426,1.15-2.568,2.568-2.568l0,0c1.41,0,2.544,1.15,2.544,2.568V193.528z"/>
</g>
<path style="fill:#E86105;" d="M385.871,222.862c0,11.217-9.082,20.291-20.291,20.291l-89.387-7.609
	c-11.209,0-20.283-9.09-20.283-20.283v-71.01c0-11.209,9.074-20.283,20.283-20.283l89.387-10.138
	c11.209,0,20.291,9.074,20.291,20.283V222.862z"/>
<g>
	<path style="fill:#F29C2A;" d="M365.58,113.829c11.209,0,20.291,9.074,20.291,20.283v88.749c0,11.217-9.082,20.291-20.291,20.291"
		/>
	<path style="fill:#F29C2A;" d="M252.065,491.678v-34.572c0-33.942-27.514-61.464-61.456-61.464H86.886
		c-33.942,0-28.042,27.522-28.042,61.464v34.572H252.065z"/>
</g>
<path style="fill:#F47B29;" d="M148.358,395.65H86.886c-33.942,0-28.042,27.522-28.042,61.464v34.572h150.969v-34.572
	C209.822,423.172,182.3,395.65,148.358,395.65z"/>
<g>
	<path style="fill:#09C8D6;" d="M434.889,399.368c0,1.623-1.3,2.938-2.938,2.938H324.935c-1.623,0-2.938-1.315-2.938-2.938l0,0
		c0-1.615,1.315-2.946,2.938-2.946h107.016C433.589,396.422,434.889,397.753,434.889,399.368L434.889,399.368z"/>
	<path style="fill:#09C8D6;" d="M434.889,421.715c0,1.631-1.3,2.954-2.938,2.954H324.935c-1.623,0-2.938-1.323-2.938-2.954l0,0
		c0-1.623,1.315-2.946,2.938-2.946h107.016C433.589,418.769,434.889,420.092,434.889,421.715L434.889,421.715z"/>
	<path style="fill:#09C8D6;" d="M434.889,444.069c0,1.623-1.3,2.938-2.938,2.938H324.935c-1.623,0-2.938-1.315-2.938-2.938l0,0
		c0-1.615,1.315-2.946,2.938-2.946h107.016C433.589,441.123,434.889,442.455,434.889,444.069L434.889,444.069z"/>
	<path style="fill:#09C8D6;" d="M434.889,466.416c0,1.599-1.3,2.938-2.938,2.938H324.935c-1.623,0-2.938-1.339-2.938-2.938l0,0
		c0-1.623,1.315-2.946,2.938-2.946h107.016C433.589,463.47,434.889,464.794,434.889,466.416L434.889,466.416z"/>
	<path style="fill:#09C8D6;" d="M434.889,488.755c0,1.607-1.3,2.922-2.938,2.922h-64.693c-1.599,0-2.938-1.315-2.938-2.922l0,0
		c0-1.623,1.339-2.962,2.938-2.962h64.693C433.589,485.793,434.889,487.133,434.889,488.755L434.889,488.755z"/>
</g>
<g>
	<polygon style="fill:#E86105;" points="406.248,49.215 414.133,76.808 422.042,49.215 	"/>
	<polygon style="fill:#E86105;" points="422.026,307.743 414.117,280.151 406.248,307.743 	"/>
</g>
<g>
	<path style="fill:#09C8D6;" d="M416.591,187.187c0,1.347-1.103,2.45-2.465,2.45l0,0c-1.331,0-2.434-1.103-2.434-2.45v-17.424
		c0-1.331,1.103-2.426,2.434-2.426l0,0c1.371,0,2.465,1.095,2.465,2.426V187.187z"/>
	<path style="fill:#09C8D6;" d="M405.421,180.917c-1.339,0-2.434-1.087-2.434-2.442l0,0c0-1.331,1.095-2.426,2.434-2.426h17.424
		c1.347,0,2.45,1.095,2.45,2.426l0,0c0,1.355-1.103,2.442-2.45,2.442H405.421z"/>
</g>
<g>
</g>
<g>
</g>
<g>
</g>
<g>
</g>
<g>
</g>
<g>
</g>
<g>
</g>
<g>
</g>
<g>
</g>
<g>
</g>
<g>
</g>
<g>
</g>
<g>
</g>
<g>
</g>
<g>
</g>
</svg>
