<?xml version="1.0" encoding="iso-8859-1"?>
<!-- Generator: Adobe Illustrator 19.0.0, SVG Export Plug-In . SVG Version: 6.00 Build 0)  -->
<svg version="1.1" id="Layer_1" xmlns="http://www.w3.org/2000/svg" xmlns:xlink="http://www.w3.org/1999/xlink" x="0px" y="0px"
	 viewBox="0 0 504.123 504.123" style="enable-background:new 0 0 504.123 504.123;" xml:space="preserve">
<path style="fill:#064093;" d="M11.815,264.617C5.293,264.617,0,259.324,0,252.802V142.525c0-41.259,33.571-74.831,74.831-74.831
	h85.339c6.522,0,11.815,5.293,11.815,11.815c0,6.522-5.293,11.815-11.815,11.815H74.831c-28.231,0-51.2,22.969-51.2,51.2v110.277
	C23.631,259.324,18.337,264.617,11.815,264.617z"/>
<path style="fill:#05346D;" d="M74.831,91.325C33.571,91.325,0,124.896,0,166.156v86.646c0,6.522,5.293,11.815,11.815,11.815
	s11.815-5.293,11.815-11.815v-86.646v-23.631C23.631,114.294,46.6,91.325,74.831,91.325z"/>
<path style="fill:#EA5706;" d="M209.566,88.222c0,4.017-3.253,7.27-7.278,7.27H82.306c-4.009,0-7.263-3.253-7.263-7.27V72.16
	c0-4.017,3.253-7.27,7.263-7.27h119.981c4.025,0,7.278,3.253,7.278,7.27V88.222z"/>
<path style="fill:#FF7C24;" d="M202.295,64.89H82.306c-4.009,0-7.263,3.253-7.263,7.27v2.938c0,4.017,3.253,7.27,7.263,7.27h119.981
	c4.025,0,7.278-3.253,7.278-7.27V72.16C209.566,68.143,206.312,64.89,202.295,64.89z"/>
<path style="fill:#064093;" d="M492.308,264.617c6.522,0,11.815-5.293,11.815-11.815V142.525c0-41.259-33.571-74.831-74.831-74.831
	h-85.339c-6.522,0-11.815,5.293-11.815,11.815c0,6.522,5.293,11.815,11.815,11.815h85.339c28.231,0,51.2,22.969,51.2,51.2v110.277
	C480.492,259.324,485.786,264.617,492.308,264.617z"/>
<path style="fill:#05346D;" d="M429.292,91.325c41.259,0,74.831,33.571,74.831,74.831v86.646c0,6.522-5.293,11.815-11.815,11.815
	c-6.522,0-11.815-5.293-11.815-11.815v-86.646v-23.631C480.492,114.294,457.523,91.325,429.292,91.325z"/>
<path style="fill:#EA5706;" d="M294.558,88.222c0,4.017,3.253,7.27,7.278,7.27h119.973c4.017,0,7.27-3.253,7.27-7.27V72.16
	c0-4.017-3.253-7.27-7.27-7.27H301.828c-4.025,0-7.278,3.253-7.278,7.27v16.061H294.558z"/>
<path style="fill:#FF7C24;" d="M301.828,64.89h119.981c4.017,0,7.27,3.253,7.27,7.27v2.938c0,4.017-3.253,7.27-7.27,7.27H301.828
	c-4.025,0-7.278-3.253-7.278-7.27V72.16C294.558,68.143,297.811,64.89,301.828,64.89z"/>
<path style="fill:#09C8D6;" d="M338.582,218.663v-18.377H149.536v18.377H0v81.621c0,24.552,19.913,44.465,44.473,44.465h140.816
	c24.552,0,44.465-19.905,44.465-44.465v-21.228h44.615v21.228c0,24.552,19.921,44.465,44.473,44.465h140.816
	c24.552,0,44.465-19.905,44.465-44.465v-81.621H338.582z"/>
<path style="fill:#EA5706;" d="M504.123,221.68c0,4.482-3.647,8.129-8.137,8.129H8.129c-4.482,0-8.129-3.647-8.129-8.129v-24.403
	c0-4.482,3.647-8.129,8.129-8.129h487.857c4.49,0,8.137,3.647,8.137,8.129V221.68z"/>
<path style="fill:#FF7C24;" d="M495.986,189.149H8.129c-4.482,0-8.129,3.647-8.129,8.129v1.757c0,4.482,3.647,8.129,8.129,8.129
	h487.857c4.49,0,8.137-3.647,8.137-8.129v-1.757C504.123,192.796,500.476,189.149,495.986,189.149z"/>
<path style="fill:#15E5AA;" d="M0,224.343v75.941c0,24.552,19.913,44.465,44.473,44.465h75.926L0,224.343z"/>
<g>
	<circle style="fill:#0B9BD3;" cx="427.536" cy="248.517" r="4.923"/>
	<circle style="fill:#0B9BD3;" cx="446.858" cy="248.517" r="4.923"/>
	<circle style="fill:#0B9BD3;" cx="466.251" cy="248.517" r="4.923"/>
</g>
<g>
	<path style="fill:#15E5AA;" d="M471.174,283.664c0,1.804-1.473,3.277-3.285,3.277H348.428c-1.812,0-3.285-1.473-3.285-3.277l0,0
		c0-1.812,1.473-3.285,3.285-3.285h119.461C469.709,280.379,471.174,281.844,471.174,283.664L471.174,283.664z"/>
	<path style="fill:#15E5AA;" d="M471.174,308.602c0,1.804-1.473,3.277-3.285,3.277H348.428c-1.812,0-3.285-1.473-3.285-3.277l0,0
		c0-1.812,1.473-3.285,3.285-3.285h119.461C469.709,305.317,471.174,306.783,471.174,308.602L471.174,308.602z"/>
	<path style="fill:#15E5AA;" d="M471.174,333.54c0,1.804-1.473,3.277-3.285,3.277H348.428c-1.812,0-3.285-1.473-3.285-3.277l0,0
		c0-1.812,1.473-3.285,3.285-3.285h119.461C469.709,330.256,471.174,331.721,471.174,333.54L471.174,333.54z"/>
</g>
<g>
	<path style="fill:#0B9BD3;" d="M471.174,358.479c0,1.804-1.473,3.277-3.285,3.277H348.428c-1.812,0-3.285-1.473-3.285-3.277l0,0
		c0-1.812,1.473-3.285,3.285-3.285h119.461C469.709,355.194,471.174,356.659,471.174,358.479L471.174,358.479z"/>
	<path style="fill:#0B9BD3;" d="M471.174,383.417c0,1.804-1.473,3.277-3.285,3.277h-72.2c-1.812,0-3.285-1.473-3.285-3.277l0,0
		c0-1.812,1.473-3.285,3.285-3.285h72.2C469.709,380.132,471.174,381.598,471.174,383.417L471.174,383.417z"/>
</g>
<path style="fill:#C2FEFF;" d="M123.29,252.298c0,4.356-3.537,7.877-7.877,7.877H16.951c-4.356,0-7.877-3.521-7.877-7.877V231.96
	c0-4.356,3.521-7.877,7.877-7.877h98.462c4.34,0,7.877,3.521,7.877,7.877V252.298z"/>
<path style="fill:#0B9BD3;" d="M42.338,261.522c0,0.985-0.796,1.78-1.78,1.78H1.772c-0.985,0-1.772-0.796-1.772-1.78v-38.794
	c0-0.977,0.788-1.772,1.772-1.772h38.794c0.985,0,1.78,0.796,1.78,1.772v38.794H42.338z"/>
<path style="fill:#0D7DD1;" d="M0,222.728c0-0.977,0.788-1.772,1.772-1.772h38.794c0.985,0,1.78,0.796,1.78,1.772v38.794
	c0,0.985-0.796,1.78-1.78,1.78"/>
<circle style="fill:#09C8D6;" cx="21.173" cy="242.137" r="9.184"/>
<g>
	<path style="fill:#15E5AA;" d="M62.692,387.04c0,1.276-1.032,2.308-2.308,2.308l0,0c-1.26,0-2.292-1.032-2.292-2.308v-16.415
		c0-1.26,1.032-2.292,2.292-2.292l0,0c1.276,0,2.308,1.032,2.308,2.292V387.04z"/>
	<path style="fill:#15E5AA;" d="M52.185,381.133c-1.26,0-2.292-1.016-2.292-2.292l0,0c0-1.26,1.032-2.292,2.292-2.292H68.6
		c1.26,0,2.292,1.032,2.292,2.292l0,0c0,1.276-1.032,2.292-2.292,2.292H52.185z"/>
</g>
<g>
	<path style="fill:#0D7DD1;" d="M182.855,269.698c0,1.268-1.024,2.3-2.3,2.3l0,0c-1.26,0-2.292-1.032-2.292-2.3v-16.416
		c0-1.26,1.032-2.292,2.292-2.292l0,0c1.276,0,2.3,1.032,2.3,2.292V269.698z"/>
	<path style="fill:#0D7DD1;" d="M172.355,263.79c-1.276,0-2.3-1.024-2.3-2.3l0,0c0-1.26,1.024-2.292,2.3-2.292h16.415
		c1.26,0,2.292,1.032,2.292,2.292l0,0c0,1.276-1.032,2.3-2.292,2.3H172.355z"/>
</g>
<g>
	<path style="fill:#09C8D6;" d="M252.062,112.325c30.586,0,55.461,24.883,55.461,55.461h-4.096
		c0-28.325-23.048-51.365-51.365-51.365c-28.341,0-51.365,23.048-51.365,51.365H196.6
		C196.6,137.208,221.475,112.325,252.062,112.325z"/>
	<path style="fill:#09C8D6;" d="M252.062,129.528c21.094,0,38.242,17.164,38.242,38.25h-4.096c0-18.842-15.321-34.162-34.154-34.162
		c-18.849,0-34.17,15.321-34.17,34.162h-4.096C213.803,146.692,230.967,129.528,252.062,129.528z"/>
	<path style="fill:#09C8D6;" d="M252.062,147.251c11.311,0,20.535,9.216,20.535,20.527h-4.096c0-9.066-7.389-16.447-16.447-16.447
		c-9.074,0-16.447,7.381-16.447,16.447h-4.096C231.526,156.467,240.735,147.251,252.062,147.251z"/>
</g>
<path style="fill:#0D7DD1;" d="M120.785,439.233H0V318.448h120.785V439.233z M7.877,431.356h105.031V326.325H7.877V431.356z"/>
<g>
</g>
<g>
</g>
<g>
</g>
<g>
</g>
<g>
</g>
<g>
</g>
<g>
</g>
<g>
</g>
<g>
</g>
<g>
</g>
<g>
</g>
<g>
</g>
<g>
</g>
<g>
</g>
<g>
</g>
</svg>
