<?xml version="1.0" encoding="iso-8859-1"?>
<!-- Generator: Adobe Illustrator 19.0.0, SVG Export Plug-In . SVG Version: 6.00 Build 0)  -->
<svg version="1.1" id="Layer_1" xmlns="http://www.w3.org/2000/svg" xmlns:xlink="http://www.w3.org/1999/xlink" x="0px" y="0px"
	 viewBox="0 0 504.123 504.123" style="enable-background:new 0 0 504.123 504.123;" xml:space="preserve">
<path style="fill:#08375E;" d="M279.363,439.792c0,8.696-7.058,15.754-15.754,15.754H56.186c-8.696,0-15.754-7.058-15.754-15.754
	V51.2c0-8.696,7.058-15.754,15.754-15.754h207.423c8.696,0,15.754,7.058,15.754,15.754V439.792z"/>
<g>
	<path style="fill:#081E34;" d="M40.432,51.2c0-8.696,7.058-15.754,15.754-15.754h207.423c8.696,0,15.754,7.058,15.754,15.754
		v388.592c0,8.696-7.058,15.754-15.754,15.754"/>
	<path style="fill:#081E34;" d="M129.371,74.831c0,8.696-7.05,15.754-15.754,15.754h-11.815c-8.696,0-15.754-7.058-15.754-15.754
		V15.754C86.048,7.058,93.105,0,101.801,0h11.815c8.704,0,15.754,7.058,15.754,15.754V74.831z"/>
	<path style="fill:#081E34;" d="M233.74,74.831c0,8.696-7.05,15.754-15.754,15.754h-11.815c-8.696,0-15.754-7.058-15.754-15.754
		V15.754C190.417,7.058,197.474,0,206.171,0h11.815c8.704,0,15.754,7.058,15.754,15.754V74.831z"/>
</g>
<polygon style="fill:#FFB727;" points="234.646,175.183 163.753,175.183 100.415,238.521 162.446,238.521 85.157,315.817 
	229.4,227.69 182.138,227.69 "/>
<polygon style="fill:#FF7C24;" points="163.753,175.183 128.386,210.55 143.825,238.521 162.446,238.521 150.449,250.526 
	160.933,269.525 229.4,227.69 182.138,227.69 234.646,175.183 "/>
<circle style="fill:#FFB727;" cx="352.414" cy="392.822" r="111.222"/>
<path style="fill:#FF7C24;" d="M352.429,281.6c61.448,0,111.262,49.814,111.262,111.262s-49.814,111.262-111.262,111.262"/>
<g>
	<circle style="fill:#08375E;" cx="352.414" cy="392.901" r="19.031"/>
	<path style="fill:#08375E;" d="M361.622,387.277c0,5.081-4.112,9.192-9.192,9.192l0,0c-5.081,0-9.192-4.112-9.192-9.192v-61.7
		c0-5.081,4.112-9.192,9.192-9.192l0,0c5.081,0,9.192,4.112,9.192,9.192V387.277z"/>
	<path style="fill:#08375E;" d="M364.473,397.682c-2.662,0-4.821-2.166-4.821-4.829l0,0c0-2.662,2.158-4.813,4.821-4.813h75.681
		c2.67,0,4.821,2.15,4.821,4.813l0,0c0,2.662-2.15,4.829-4.821,4.829H364.473z"/>
</g>
<g>
</g>
<g>
</g>
<g>
</g>
<g>
</g>
<g>
</g>
<g>
</g>
<g>
</g>
<g>
</g>
<g>
</g>
<g>
</g>
<g>
</g>
<g>
</g>
<g>
</g>
<g>
</g>
<g>
</g>
</svg>
