<?xml version="1.0" encoding="iso-8859-1"?>
<!-- Generator: Adobe Illustrator 19.0.0, SVG Export Plug-In . SVG Version: 6.00 Build 0)  -->
<svg version="1.1" id="Layer_1" xmlns="http://www.w3.org/2000/svg" xmlns:xlink="http://www.w3.org/1999/xlink" x="0px" y="0px"
	 viewBox="0 0 496.246 496.246" style="enable-background:new 0 0 496.246 496.246;" xml:space="preserve">
<path style="fill:#064093;" d="M496.246,248.304c-11.13-57.99-117.933-139.193-248.123-139.193S11.13,190.314,0,248.304H496.246z"/>
<path style="fill:#05346D;" d="M0.008,247.942c11.122,57.99,117.925,139.185,248.115,139.185s236.993-81.195,248.123-139.185H0.008z
	"/>
<g>
	<path style="fill:#B0FFF7;" d="M253.661,139.634c0,3.048-2.481,5.522-5.537,5.522c-3.08,0-5.545-2.473-5.545-5.522
		c0-3.08,2.465-5.561,5.545-5.561C251.179,134.073,253.661,136.554,253.661,139.634z"/>
	<circle style="fill:#B0FFF7;" cx="248.123" cy="356.588" r="5.545"/>
	<path style="fill:#B0FFF7;" d="M328.783,175.309c-2.182,2.166-5.695,2.166-7.853,0c-2.158-2.158-2.158-5.679-0.008-7.83
		c2.174-2.158,5.664-2.158,7.861,0C330.925,169.63,330.925,173.143,328.783,175.309z"/>
	<path style="fill:#B0FFF7;" d="M175.325,328.767c-2.182,2.158-5.687,2.143-7.853,0c-2.15-2.166-2.15-5.671,0-7.845
		c2.166-2.15,5.671-2.15,7.853,0C177.459,323.088,177.459,326.617,175.325,328.767z"/>
	<path style="fill:#B0FFF7;" d="M356.628,253.668c-3.064,0-5.545-2.481-5.53-5.545c-0.016-3.08,2.465-5.545,5.522-5.561
		c3.08,0.016,5.545,2.481,5.561,5.561C362.173,251.187,359.7,253.668,356.628,253.668z"/>
	<path style="fill:#B0FFF7;" d="M139.634,253.668c-3.08,0-5.553-2.481-5.569-5.545c0.016-3.08,2.489-5.545,5.561-5.561
		c3.048,0.016,5.53,2.481,5.53,5.561C145.156,251.171,142.667,253.668,139.634,253.668z"/>
	<path style="fill:#B0FFF7;" d="M320.929,328.767c-2.158-2.15-2.158-5.687,0-7.83c2.166-2.182,5.671-2.166,7.853-0.032
		c2.135,2.19,2.135,5.679,0,7.861C326.601,330.917,323.104,330.933,320.929,328.767z"/>
	<path style="fill:#B0FFF7;" d="M167.479,175.325c-2.158-2.174-2.158-5.695-0.008-7.845c2.198-2.158,5.671-2.158,7.853,0
		c2.135,2.15,2.174,5.671,0,7.845C173.174,177.475,169.637,177.475,167.479,175.325z"/>
	<path style="fill:#B0FFF7;" d="M198.688,151.387c1.52,2.631,0.599,6.042-2.032,7.57c-2.639,1.528-6.057,0.622-7.57-2.032
		c-1.552-2.662-0.622-6.026,2.032-7.554C193.741,147.842,197.12,148.732,198.688,151.387z"/>
	<path style="fill:#B0FFF7;" d="M307.161,339.322c1.56,2.662,0.638,6.042-2.009,7.57c-2.662,1.528-6.034,0.622-7.578-2.032
		c-1.528-2.631-0.622-6.042,2.048-7.57C302.253,335.762,305.656,336.683,307.161,339.322z"/>
	<path style="fill:#B0FFF7;" d="M281.561,144.731c-0.803,2.97-3.812,4.75-6.782,3.923c-2.985-0.788-4.71-3.812-3.931-6.782
		c0.819-2.954,3.828-4.695,6.798-3.923C280.576,138.768,282.364,141.777,281.561,144.731z"/>
	<circle style="fill:#B0FFF7;" cx="220.034" cy="352.933" r="5.545"/>
	<circle style="fill:#B0FFF7;" cx="342.095" cy="193.867" r="5.537"/>
	<path style="fill:#B0FFF7;" d="M156.956,307.168c-2.686,1.528-6.065,0.622-7.593-2.017c-1.544-2.662-0.622-6.042,2.04-7.585
		c2.623-1.512,6.026-0.638,7.562,2.032C160.477,302.23,159.579,305.64,156.956,307.168z"/>
	<path style="fill:#B0FFF7;" d="M351.5,281.561c-2.946-0.803-4.726-3.844-3.899-6.782c0.788-2.985,3.805-4.71,6.751-3.938
		c2.985,0.803,4.726,3.828,3.938,6.798C357.478,280.592,354.485,282.364,351.5,281.561z"/>
	<path style="fill:#B0FFF7;" d="M141.887,225.39c-2.962-0.803-4.718-3.828-3.931-6.782c0.819-2.97,3.836-4.71,6.774-3.923
		c2.962,0.803,4.75,3.812,3.946,6.782C147.905,224.421,144.833,226.194,141.887,225.39z"/>
	<path style="fill:#B0FFF7;" d="M156.956,189.078c2.623,1.512,3.552,4.923,2.009,7.57c-1.505,2.639-4.939,3.545-7.562,2.016
		c-2.662-1.528-3.529-4.907-2.024-7.554C150.89,188.455,154.27,187.55,156.956,189.078z"/>
	<path style="fill:#B0FFF7;" d="M344.867,297.582c2.694,1.528,3.552,4.907,2.032,7.554c-1.528,2.67-4.907,3.56-7.57,2.032
		c-2.647-1.512-3.568-4.923-2.032-7.57C338.842,296.96,342.229,296.054,344.867,297.582z"/>
	<path style="fill:#B0FFF7;" d="M225.39,141.871c0.811,2.97-0.945,6.018-3.875,6.766c-3.009,0.819-6.042-0.937-6.845-3.907
		c-0.74-2.954,0.985-5.963,3.938-6.782C221.57,137.177,224.618,138.902,225.39,141.871z"/>
	<path style="fill:#B0FFF7;" d="M281.561,351.5c0.819,2.954-0.953,5.979-3.915,6.798c-2.954,0.772-5.979-0.969-6.798-3.938
		c-0.78-2.954,0.977-5.971,3.931-6.782C277.748,346.766,280.765,348.546,281.561,351.5z"/>
	<path style="fill:#B0FFF7;" d="M307.184,156.908c-1.505,2.655-4.931,3.576-7.562,2.032c-2.67-1.528-3.56-4.923-2.024-7.57
		c1.536-2.639,4.892-3.545,7.585-2.032C307.799,150.882,308.72,154.262,307.184,156.908z"/>
	<path style="fill:#B0FFF7;" d="M198.688,344.828c-1.536,2.686-4.947,3.576-7.57,2.064c-2.678-1.544-3.552-4.907-2.032-7.585
		c1.52-2.623,4.907-3.56,7.57-2.032C199.286,338.81,200.208,342.213,198.688,344.828z"/>
	<path style="fill:#B0FFF7;" d="M354.359,225.39c-2.93,0.788-6.01-0.969-6.758-3.923c-0.811-2.97,0.953-6.002,3.899-6.782
		c2.985-0.788,5.979,0.953,6.79,3.923C359.077,221.562,357.368,224.579,354.359,225.39z"/>
	<path style="fill:#B0FFF7;" d="M144.762,281.561c-2.97,0.788-5.986-0.953-6.806-3.923c-0.788-2.985,0.992-6.002,3.931-6.782
		c2.946-0.788,6.01,0.937,6.79,3.923C149.496,277.701,147.708,280.781,144.762,281.561z"/>
</g>
<g>
	<polygon style="fill:#E86105;" points="398.076,78.659 373.744,122.533 417.595,98.178 	"/>
	<polygon style="fill:#E86105;" points="98.17,417.587 122.494,373.713 78.651,398.068 	"/>
</g>
<path style="fill:#F29C2A;" d="M196.12,288.658c-19.031-19.015-19.031-49.885,0-68.931c19.039-19.023,49.9-19.023,68.931,0"/>
<path style="fill:#F47B29;" d="M300.142,207.588c19.015,19.015,19.015,49.885,0,68.931c-19.062,19.039-49.924,19.039-68.931,0"/>
<g>
	<path style="fill:#06B6ED;" d="M78.241,96.721c0,1.544-1.252,2.788-2.788,2.788H37.864c-1.528,0-2.773-1.245-2.773-2.788l0,0
		c0-1.52,1.237-2.788,2.773-2.788h37.581C76.981,93.94,78.241,95.2,78.241,96.721L78.241,96.721z"/>
	<path style="fill:#06B6ED;" d="M78.241,116.216c0,1.544-1.252,2.788-2.788,2.788H37.864c-1.528,0-2.773-1.237-2.773-2.788l0,0
		c0-1.528,1.237-2.788,2.773-2.788h37.581C76.981,113.428,78.241,114.688,78.241,116.216L78.241,116.216z"/>
	<path style="fill:#06B6ED;" d="M78.241,135.719c0,1.528-1.252,2.773-2.788,2.773H37.864c-1.528,0-2.773-1.237-2.773-2.773l0,0
		c0-1.544,1.237-2.796,2.773-2.796h37.581C76.981,132.923,78.241,134.176,78.241,135.719L78.241,135.719z"/>
	<path style="fill:#06B6ED;" d="M461.154,360.535c0,1.544-1.245,2.788-2.788,2.788h-37.581c-1.528,0-2.781-1.237-2.781-2.788l0,0
		c0-1.528,1.245-2.788,2.781-2.788h37.581C459.91,357.754,461.154,359.007,461.154,360.535L461.154,360.535z"/>
	<path style="fill:#06B6ED;" d="M461.154,380.03c0,1.544-1.245,2.788-2.788,2.788h-37.581c-1.528,0-2.781-1.237-2.781-2.788l0,0
		c0-1.528,1.245-2.788,2.781-2.788h37.581C459.91,377.249,461.154,378.502,461.154,380.03L461.154,380.03z"/>
	<path style="fill:#06B6ED;" d="M461.154,399.541c0,1.52-1.245,2.773-2.788,2.773h-37.581c-1.528,0-2.781-1.245-2.781-2.773l0,0
		c0-1.544,1.245-2.804,2.781-2.804h37.581C459.91,396.729,461.154,397.989,461.154,399.541L461.154,399.541z"/>
</g>
<g>
</g>
<g>
</g>
<g>
</g>
<g>
</g>
<g>
</g>
<g>
</g>
<g>
</g>
<g>
</g>
<g>
</g>
<g>
</g>
<g>
</g>
<g>
</g>
<g>
</g>
<g>
</g>
<g>
</g>
</svg>
