<?xml version="1.0" encoding="iso-8859-1"?>
<!-- Generator: Adobe Illustrator 19.0.0, SVG Export Plug-In . SVG Version: 6.00 Build 0)  -->
<svg version="1.1" id="Layer_1" xmlns="http://www.w3.org/2000/svg" xmlns:xlink="http://www.w3.org/1999/xlink" x="0px" y="0px"
	 viewBox="0 0 506.273 506.273" style="enable-background:new 0 0 506.273 506.273;" xml:space="preserve">
<circle style="fill:#09C8D6;" cx="253.137" cy="250.51" r="178.751"/>
<path style="fill:#00233F;" d="M429.619,140.201c0-14.297-121.604-26.112-154.01-27.995v-10.902
	c15.116-12.28,25.427-35.052,25.427-53.39C301.036,21.465,279.58,0,253.129,0c-26.466,0-47.923,21.465-47.923,47.915
	c0,18.33,10.311,41.102,25.427,53.382v10.91c-32.429,1.875-153.986,13.698-153.986,27.995c0,10.012,59.683,18.81,106.583,23.828
	c-0.063,0.89-0.189,1.764-0.189,2.67l8.586,129.363c0,3.198,0.362,6.317,0.922,9.374c-0.142,1.142-0.354,2.269-0.354,3.45
	c0,15.155,12.296,192.126,27.451,192.126c10.957,0,20.417-92.388,24.82-149.37c2.828,0.362,5.719,0.614,8.673,0.614
	s5.829-0.252,8.673-0.614c4.403,56.974,13.863,149.37,24.812,149.37c15.163,0,27.443-176.971,27.443-192.126
	c0-1.182-0.197-2.316-0.354-3.458c0.567-3.056,0.929-6.168,0.929-9.366l8.586-129.363c0-0.906-0.142-1.78-0.189-2.67
	C369.936,159.011,429.619,150.221,429.619,140.201z"/>
<path style="fill:#FF7C24;" d="M292.616,36.313c0,5.451-4.419,9.886-9.878,9.886h-58.88c-5.474,0-9.893-4.427-9.893-9.886l0,0
	c0-5.459,4.419-9.886,9.893-9.886h58.88C288.197,26.427,292.616,30.846,292.616,36.313L292.616,36.313z"/>
<path style="fill:#09C8D6;" d="M309.087,53.406c0,6.624-5.38,11.981-11.989,11.981h-87.922c-6.617,0-11.989-5.364-11.989-11.981l0,0
	c0-6.624,5.372-11.981,11.989-11.981h87.914C303.699,41.425,309.087,46.789,309.087,53.406L309.087,53.406z"/>
<path style="fill:#0B9BD3;" d="M309.087,53.406L309.087,53.406c0,6.624-5.38,11.981-11.989,11.981h-87.922
	c-6.617,0-11.989-5.364-11.989-11.981l0,0"/>
<path style="fill:#FF7C24;" d="M300.461,69.183c0,2.859-2.324,5.183-5.183,5.183h-84.283c-2.859,0-5.183-2.324-5.183-5.183V37.644
	c0-2.875,2.324-5.199,5.183-5.199h84.283c2.859,0,5.183,2.324,5.183,5.199V69.183z"/>
<path style="fill:#FF9827;" d="M295.278,32.445h-84.283c-2.859,0-5.183,2.324-5.183,5.199v24.529c0,2.867,2.324,5.183,5.183,5.183
	h84.283c2.859,0,5.183-2.316,5.183-5.183V37.644C300.461,34.769,298.13,32.445,295.278,32.445z"/>
<path style="fill:#FFB829;" d="M295.278,67.363c2.859,0,5.183-2.316,5.183-5.183V37.644c0-2.875-2.324-5.199-5.183-5.199h-84.283
	c-2.859,0-5.183,2.324-5.183,5.199"/>
<circle style="fill:#15E5AA;" cx="213.973" cy="38.337" r="2.946"/>
<path style="fill:#09C8D6;" d="M216.911,38.337c0,1.631-1.315,2.946-2.954,2.946c-1.623,0-2.938-1.315-2.938-2.946"/>
<circle style="fill:#15E5AA;" cx="223.33" cy="38.337" r="2.946"/>
<path style="fill:#09C8D6;" d="M226.269,38.337c0,1.631-1.315,2.946-2.954,2.946c-1.623,0-2.938-1.315-2.938-2.946"/>
<circle style="fill:#15E5AA;" cx="232.688" cy="38.337" r="2.946"/>
<g>
	<path style="fill:#09C8D6;" d="M235.626,38.337c0,1.631-1.315,2.946-2.954,2.946c-1.623,0-2.938-1.315-2.938-2.946"/>
	<polygon style="fill:#09C8D6;" points="237.509,218.868 229.679,218.868 229.679,177.357 194.714,142.391 85.776,142.391 
		85.776,134.569 197.967,134.569 237.509,174.119 	"/>
</g>
<circle style="fill:#FF9827;" cx="135.392" cy="139.918" r="9.76"/>
<path style="fill:#FF7C24;" d="M128.484,133.018c3.805-3.82,9.996-3.82,13.816,0c3.805,3.805,3.805,10.004,0,13.808"/>
<circle style="fill:#FF9827;" cx="81.735" cy="139.918" r="9.767"/>
<path style="fill:#FF7C24;" d="M74.827,133.018c3.805-3.82,10.004-3.82,13.808,0c3.812,3.805,3.812,10.004,0,13.808"/>
<circle style="fill:#FF9827;" cx="194.926" cy="139.918" r="9.76"/>
<path style="fill:#FF7C24;" d="M188.01,133.018c3.797-3.82,10.004-3.82,13.816,0c3.805,3.805,3.805,10.004,0,13.808"/>
<circle style="fill:#FF9827;" cx="233.76" cy="223.256" r="9.76"/>
<path style="fill:#FF7C24;" d="M226.828,216.348c3.805-3.82,10.004-3.82,13.816,0c3.805,3.805,3.805,10.004,0,13.808"/>
<polygon style="fill:#09C8D6;" points="222.755,496.459 214.926,496.459 214.926,321.953 229.939,306.956 229.939,257.04 
	237.769,257.04 237.769,310.193 222.755,325.191 "/>
<circle style="fill:#FF9827;" cx="233.76" cy="259.174" r="9.759"/>
<path style="fill:#FF7C24;" d="M226.828,252.235c3.805-3.82,10.004-3.82,13.816,0c3.805,3.805,3.805,10.004,0,13.808"/>
<circle style="fill:#FF9827;" cx="219.345" cy="323.726" r="9.767"/>
<path style="fill:#FF7C24;" d="M212.476,316.818c3.805-3.82,9.988-3.82,13.808,0c3.805,3.805,3.805,10.004,0,13.808"/>
<circle style="fill:#FF9827;" cx="219.345" cy="401.983" r="9.767"/>
<path style="fill:#FF7C24;" d="M212.476,395.099c3.805-3.82,9.988-3.82,13.808,0c3.805,3.805,3.805,10.004,0,13.8"/>
<circle style="fill:#FF9827;" cx="219.345" cy="496.506" r="9.767"/>
<path style="fill:#FF7C24;" d="M212.476,489.551c3.805-3.812,9.988-3.812,13.808,0c3.805,3.805,3.805,10.004,0,13.808"/>
<polygon style="fill:#09C8D6;" points="268.757,218.868 276.586,218.868 276.586,177.357 311.552,142.391 420.498,142.391 
	420.498,134.569 308.307,134.569 268.757,174.119 "/>
<circle style="fill:#FF9827;" cx="370.897" cy="139.918" r="9.76"/>
<path style="fill:#FF7C24;" d="M377.789,133.018c-3.812-3.82-10.004-3.82-13.816,0c-3.805,3.805-3.805,10.004,0,13.808"/>
<circle style="fill:#FF9827;" cx="424.539" cy="139.918" r="9.767"/>
<path style="fill:#FF7C24;" d="M431.447,133.018c-3.805-3.82-10.004-3.82-13.816,0c-3.797,3.805-3.797,10.004,0,13.808"/>
<circle style="fill:#FF9827;" cx="311.355" cy="139.918" r="9.76"/>
<path style="fill:#FF7C24;" d="M318.271,133.018c-3.812-3.82-10.012-3.82-13.824,0c-3.805,3.805-3.805,10.004,0,13.808"/>
<circle style="fill:#FF9827;" cx="272.538" cy="223.256" r="9.767"/>
<path style="fill:#FF7C24;" d="M279.454,216.348c-3.812-3.82-10.012-3.82-13.824,0c-3.805,3.805-3.805,10.004,0,13.808"/>
<polygon style="fill:#09C8D6;" points="283.51,496.459 291.34,496.459 291.34,321.953 276.334,306.956 276.334,257.04 
	268.505,257.04 268.505,310.193 283.51,325.191 "/>
<circle style="fill:#FF9827;" cx="272.538" cy="259.174" r="9.767"/>
<path style="fill:#FF7C24;" d="M279.454,252.235c-3.812-3.82-10.012-3.82-13.824,0c-3.805,3.805-3.805,10.004,0,13.808"/>
<circle style="fill:#FF9827;" cx="286.897" cy="323.726" r="9.767"/>
<path style="fill:#FF7C24;" d="M293.797,316.818c-3.805-3.82-9.996-3.82-13.808,0c-3.805,3.805-3.805,10.004,0,13.808"/>
<circle style="fill:#FF9827;" cx="286.897" cy="401.983" r="9.767"/>
<path style="fill:#FF7C24;" d="M293.797,395.099c-3.805-3.82-9.996-3.82-13.808,0c-3.805,3.805-3.805,10.004,0,13.8"/>
<circle style="fill:#FF9827;" cx="286.897" cy="496.506" r="9.767"/>
<path style="fill:#FF7C24;" d="M293.797,489.551c-3.805-3.812-9.996-3.812-13.808,0c-3.805,3.805-3.805,10.004,0,13.808"/>
<g>
	<path style="fill:#09C8D6;" d="M267.488,130.804c0,1.26-1.032,2.284-2.284,2.284h-24.127c-1.26,0-2.292-1.024-2.292-2.284l0,0
		c0-1.26,1.032-2.292,2.292-2.292h24.127C266.457,128.512,267.488,129.536,267.488,130.804L267.488,130.804z"/>
	<path style="fill:#09C8D6;" d="M267.488,141.887c0,1.26-1.032,2.284-2.284,2.284h-24.127c-1.26,0-2.292-1.024-2.292-2.284l0,0
		c0-1.26,1.032-2.292,2.292-2.292h24.127C266.457,139.595,267.488,140.627,267.488,141.887L267.488,141.887z"/>
	<path style="fill:#09C8D6;" d="M267.488,152.97c0,1.26-1.032,2.284-2.284,2.284h-24.127c-1.26,0-2.292-1.024-2.292-2.284l0,0
		c0-1.26,1.032-2.284,2.292-2.284h24.127C266.457,150.686,267.488,151.71,267.488,152.97L267.488,152.97z"/>
</g>
<g>
</g>
<g>
</g>
<g>
</g>
<g>
</g>
<g>
</g>
<g>
</g>
<g>
</g>
<g>
</g>
<g>
</g>
<g>
</g>
<g>
</g>
<g>
</g>
<g>
</g>
<g>
</g>
<g>
</g>
</svg>
