<?xml version="1.0" encoding="iso-8859-1"?>
<!-- Generator: Adobe Illustrator 19.0.0, SVG Export Plug-In . SVG Version: 6.00 Build 0)  -->
<svg version="1.1" id="Layer_1" xmlns="http://www.w3.org/2000/svg" xmlns:xlink="http://www.w3.org/1999/xlink" x="0px" y="0px"
	 viewBox="0 0 504.147 504.147" style="enable-background:new 0 0 504.147 504.147;" xml:space="preserve">
<path style="fill:#0092FF;" d="M277.984,194.391h-51.846c-1.804,4.017-4.356,8.586-7.373,13.044
	c-0.969,1.449-1.189,3.245-0.614,4.876c0.583,1.631,1.89,2.875,3.552,3.387c9.295,2.812,19.787,4.293,30.358,4.293
	c10.563,0,21.063-1.481,30.358-4.293c1.654-0.504,2.97-1.757,3.553-3.387c0.575-1.631,0.347-3.434-0.614-4.876
	C282.34,202.976,279.788,198.408,277.984,194.391z"/>
<ellipse style="fill:#093568;" cx="252.062" cy="115.172" rx="100.061" ry="41.889"/>
<path style="fill:#041D35;" d="M352.122,115.172c0,23.142-44.804,41.889-100.061,41.889s-100.061-18.755-100.061-41.889"/>
<path style="fill:#093568;" d="M215.725,105.728c0,15.368-12.438,27.829-27.829,27.829c-15.352,0-125.605-12.461-125.605-27.829
	c0-15.352,110.253-27.813,125.605-27.813C203.288,77.915,215.725,90.376,215.725,105.728z"/>
<path style="fill:#074584;" d="M187.896,77.915c15.392,0,27.829,12.461,27.829,27.813"/>
<g>
	<path style="fill:#041D35;" d="M215.725,105.728c0,15.368,17.904,48.065,2.536,48.065S62.283,121.104,62.283,105.728"/>
	<path style="fill:#041D35;" d="M90.01,112.266c0,8.862-7.176,16.03-16.022,16.03l0,0c-8.862,0-15.998-7.168-15.998-16.03V97.93
		c0-8.846,7.136-16.014,15.998-16.014l0,0c8.846,0,16.022,7.168,16.022,16.014V112.266z"/>
</g>
<path style="fill:#093568;" d="M90.01,96.465c0,8.846-7.176,16.014-16.022,16.014l0,0c-8.862,0-15.998-7.168-15.998-16.014V82.129
	c0-8.846,7.136-16.03,15.998-16.03l0,0c8.846,0,16.022,7.184,16.022,16.03V96.465z"/>
<path style="fill:#041D35;" d="M58.478,82.129c1.694,7.018,7.971,12.233,15.51,12.233c7.538,0,13.808-5.215,15.518-12.233
	c-1.709-7.003-7.979-12.233-15.518-12.233C66.45,69.896,60.172,75.126,58.478,82.129z"/>
<ellipse style="fill:#00B1FF;" cx="73.98" cy="69.376" rx="73.98" ry="11.705"/>
<ellipse style="fill:#0092FF;" cx="73.988" cy="69.376" rx="41.102" ry="11.705"/>
<path style="fill:#00CFFF;" d="M147.495,69.376c0,1.142-0.906,2.048-2.056,2.048H2.521c-1.126,0-2.04-0.906-2.04-2.048l0,0
	c0-1.142,0.914-2.064,2.04-2.064h142.919C146.582,67.312,147.495,68.234,147.495,69.376L147.495,69.376z"/>
<path style="fill:#041D35;" d="M90.277,55.158c0,4.695,6.294,8.523,1.56,8.523H56.123c-4.71,0,1.575-3.828,1.575-8.523l0,0
	c0-4.742,3.828-8.554,8.539-8.554h15.486C86.441,46.604,90.277,50.416,90.277,55.158L90.277,55.158z"/>
<path style="fill:#093568;" d="M288.398,105.728c0,15.368,12.446,27.829,27.821,27.829c15.352,0,125.613-12.461,125.613-27.829
	c0-15.352-110.261-27.813-125.613-27.813C300.843,77.915,288.398,90.376,288.398,105.728z"/>
<path style="fill:#074584;" d="M316.227,77.915c-15.376,0-27.821,12.461-27.821,27.813"/>
<g>
	<path style="fill:#041D35;" d="M288.398,105.728c0,15.368-17.904,48.065-2.536,48.065s155.979-32.689,155.979-48.065"/>
	<path style="fill:#041D35;" d="M414.113,112.266c0,8.862,7.176,16.03,16.022,16.03l0,0c8.854,0,16.006-7.168,16.006-16.03V97.93
		c0-8.846-7.152-16.014-16.006-16.014l0,0c-8.846,0-16.022,7.168-16.022,16.014V112.266z"/>
</g>
<path style="fill:#093568;" d="M414.113,96.465c0,8.846,7.176,16.014,16.022,16.014l0,0c8.854,0,16.006-7.168,16.006-16.014V82.129
	c0-8.846-7.152-16.03-16.006-16.03l0,0c-8.846,0-16.022,7.184-16.022,16.03V96.465z"/>
<path style="fill:#041D35;" d="M445.645,82.129c-1.694,7.018-7.979,12.233-15.51,12.233c-7.538,0-13.816-5.215-15.525-12.233
	c1.709-7.003,7.987-12.233,15.525-12.233C437.665,69.896,443.951,75.126,445.645,82.129z"/>
<ellipse style="fill:#00B1FF;" cx="430.159" cy="69.376" rx="73.988" ry="11.705"/>
<ellipse style="fill:#0092FF;" cx="430.159" cy="69.376" rx="41.102" ry="11.705"/>
<path style="fill:#00CFFF;" d="M356.628,69.376c0,1.142,0.906,2.048,2.056,2.048h142.919c1.126,0,2.032-0.906,2.032-2.048l0,0
	c0-1.142-0.906-2.064-2.032-2.064H358.684C357.541,67.312,356.628,68.234,356.628,69.376L356.628,69.376z"/>
<path style="fill:#041D35;" d="M413.846,55.158c0,4.695-6.294,8.523-1.56,8.523H448c4.71,0-1.575-3.828-1.575-8.523l0,0
	c0-4.742-3.836-8.554-8.539-8.554H422.4C417.69,46.604,413.846,50.416,413.846,55.158L413.846,55.158z"/>
<path style="fill:#081E34;" d="M299.402,119.237h-15.265c-2.316,0-4.521,1.032-6.018,2.796c-2.135,2.521-11.902,6.262-26.065,6.262
	c-14.171,0-23.914-3.742-26.049-6.262c-1.504-1.772-3.702-2.796-6.026-2.796h-15.258c-4.356,0-7.877,3.521-7.877,7.877v16.14
	c0,2.001,0.772,3.938,2.135,5.404c3.009,3.182,7.176,4.506,11.201,5.782c7.704,2.434,8.539,3.434,8.539,6.294
	c0,6.412-6.081,19.952-14.816,32.91c-1.386,2.08-1.717,4.695-0.874,7.05c0.843,2.355,2.749,4.167,5.136,4.892
	c13.438,4.064,28.617,6.215,43.89,6.215c15.273,0,30.46-2.15,43.898-6.215c2.395-0.725,4.285-2.536,5.136-4.892
	c0.835-2.355,0.504-4.97-0.882-7.05c-8.72-12.958-14.801-26.49-14.801-32.91c0-2.859,0.827-3.86,8.515-6.294
	c4.033-1.276,8.2-2.599,11.209-5.782c1.371-1.465,2.135-3.403,2.135-5.404v-16.14C307.279,122.758,303.75,119.237,299.402,119.237z"
	/>
<g>
	<path style="fill:#0092FF;" d="M268.138,86.894c0,0.819-0.662,1.481-1.481,1.481h-29.2c-0.819,0-1.481-0.662-1.481-1.481l0,0
		c0-0.819,0.662-1.481,1.481-1.481h29.2C267.477,85.421,268.138,86.083,268.138,86.894L268.138,86.894z"/>
	<path style="fill:#0092FF;" d="M268.138,95.756c0,0.819-0.662,1.481-1.481,1.481h-29.2c-0.819,0-1.481-0.662-1.481-1.481l0,0
		c0-0.819,0.662-1.481,1.481-1.481h29.2C267.477,94.283,268.138,94.944,268.138,95.756L268.138,95.756z"/>
	<path style="fill:#0092FF;" d="M268.138,104.617c0,0.819-0.662,1.481-1.481,1.481h-29.2c-0.819,0-1.481-0.662-1.481-1.481l0,0
		c0-0.819,0.662-1.481,1.481-1.481h29.2C267.477,103.144,268.138,103.806,268.138,104.617L268.138,104.617z"/>
</g>
<g>
	<path style="fill:#89C6CC;" d="M397.785,457.543c-6.522,0-11.815-5.293-11.815-11.815c0-122.754-46.348-222.106-73.972-270.407
		c-3.237-5.671-1.276-12.887,4.387-16.124c5.679-3.245,12.895-1.268,16.124,4.387c28.79,50.341,77.091,153.931,77.091,282.144
		C409.6,452.25,404.307,457.543,397.785,457.543z"/>
	<path style="fill:#89C6CC;" d="M106.338,457.543c-6.522,0-11.815-5.293-11.815-11.815c0-128.189,48.301-231.794,77.091-282.136
		c3.237-5.663,10.468-7.641,16.116-4.395c5.671,3.237,7.633,10.453,4.395,16.116c-27.632,48.317-73.972,147.692-73.972,270.415
		C118.154,452.25,112.861,457.543,106.338,457.543z"/>
	<path style="fill:#89C6CC;" d="M222.941,194.682v-8.231c0-29.05-23.56-52.61-52.602-52.61H159.35
		c-29.042,0-52.602,23.56-52.602,52.61v4.254h-6.183c-32.075,0-58.092,26.017-58.092,58.092s26.017,58.092,58.092,58.092h101.352
		c32.083,0,58.1-26.017,58.1-58.092C260.025,224.126,244.634,203.103,222.941,194.682z"/>
</g>
<path style="fill:#AADFE8;" d="M170.338,133.841H159.35c-29.042,0-52.602,23.56-52.602,52.61v4.254h-6.183
	c-32.075,0-58.092,26.017-58.092,58.092s26.017,58.092,58.092,58.092h6.585l115.783-115.775v-4.663
	C222.941,157.401,199.381,133.841,170.338,133.841z"/>
<path style="fill:#FFFFFF;" d="M201.925,318.704H100.573c-38.55,0-69.908-31.358-69.908-69.908c0-36.793,28.57-67.04,64.693-69.719
	c3.663-32.067,30.972-57.053,64-57.053h10.988c35.517,0,64.417,28.9,64.417,64.425v0.654c22.772,12.028,37.085,35.446,37.085,61.692
	C271.841,287.346,240.475,318.704,201.925,318.704z M100.573,202.52c-25.513,0-46.277,20.764-46.277,46.277
	s20.764,46.277,46.277,46.277h101.352c25.521,0,46.285-20.764,46.285-46.277c0-19.212-11.611-36.131-29.546-43.103
	c-4.545-1.772-7.538-6.136-7.538-11.012v-8.231c0-22.489-18.29-40.795-40.787-40.795H159.35c-22.489,0-40.787,18.298-40.787,40.795
	v4.254c0,6.522-5.293,11.815-11.815,11.815H100.573z"/>
<path style="fill:#89C6CC;" d="M356.848,257.697v-8.231c0-29.05-23.56-52.61-52.602-52.61h-10.988
	c-29.042,0-52.602,23.56-52.602,52.61v4.254h-6.183c-32.075,0-58.092,26.018-58.092,58.092s26.017,58.092,58.092,58.092h101.352
	c32.083,0,58.1-26.017,58.1-58.092C393.933,287.141,378.541,266.118,356.848,257.697z"/>
<path style="fill:#AADFE8;" d="M304.246,196.856h-10.988c-29.042,0-52.602,23.56-52.602,52.61v4.254h-6.183
	c-32.075,0-58.092,26.018-58.092,58.092s26.017,58.092,58.092,58.092h6.585L356.84,254.129v-4.663
	C356.848,220.416,333.288,196.856,304.246,196.856z"/>
<path style="fill:#FFFFFF;" d="M335.833,381.72H234.48c-38.55,0-69.908-31.358-69.908-69.908c0-36.793,28.57-67.04,64.693-69.719
	c3.663-32.067,30.972-57.053,64-57.053h10.988c35.517,0,64.417,28.9,64.417,64.425v0.654c22.772,12.028,37.085,35.446,37.085,61.692
	C405.748,350.362,374.382,381.72,335.833,381.72z M234.48,265.535c-25.513,0-46.277,20.764-46.277,46.277
	c0,25.513,20.764,46.277,46.277,46.277h101.352c25.521,0,46.285-20.764,46.285-46.277c0-19.212-11.611-36.131-29.546-43.103
	c-4.545-1.772-7.538-6.136-7.538-11.012v-8.231c0-22.489-18.29-40.795-40.787-40.795h-10.988c-22.489,0-40.787,18.298-40.787,40.795
	v4.254c0,6.522-5.293,11.815-11.815,11.815L234.48,265.535L234.48,265.535z"/>
<g>
</g>
<g>
</g>
<g>
</g>
<g>
</g>
<g>
</g>
<g>
</g>
<g>
</g>
<g>
</g>
<g>
</g>
<g>
</g>
<g>
</g>
<g>
</g>
<g>
</g>
<g>
</g>
<g>
</g>
</svg>
