<?xml version="1.0" encoding="iso-8859-1"?>
<!-- Generator: Adobe Illustrator 19.0.0, SVG Export Plug-In . SVG Version: 6.00 Build 0)  -->
<svg version="1.1" id="Layer_1" xmlns="http://www.w3.org/2000/svg" xmlns:xlink="http://www.w3.org/1999/xlink" x="0px" y="0px"
	 viewBox="0 0 504.123 504.123" style="enable-background:new 0 0 504.123 504.123;" xml:space="preserve">
<path style="fill:#00CFFF;" d="M210.597,105.102c-22.678-22.678-22.662-59.581,0.016-82.267s59.581-22.686,82.267,0
	c22.678,22.678,22.678,59.581,0,82.259C270.202,127.779,233.283,127.787,210.597,105.102z"/>
<path style="fill:#00B7FF;" d="M292.888,22.827c22.678,22.678,22.678,59.581,0,82.259c-22.686,22.686-59.597,22.693-82.282,0.008"/>
<path style="fill:#1791BC;" d="M288.768,26.939c20.456,20.456,20.456,53.602,0.008,74.051
	c-20.456,20.448-53.602,20.448-74.043-0.008c-20.449-20.448-20.456-53.595,0-74.043C235.173,6.491,268.319,6.498,288.768,26.939
	 M296.999,18.716c-24.954-24.954-65.552-24.954-90.49,0c-24.962,24.954-24.962,65.544-0.016,90.498
	c24.954,24.946,65.552,24.954,90.506,0C321.953,84.259,321.953,43.662,296.999,18.716L296.999,18.716z"/>
<g>
	<path style="fill:none;stroke:#1791BC;stroke-linecap:round;stroke-linejoin:round;stroke-miterlimit:10;" d="M277.717,37.99
		c14.336,14.344,14.344,37.597-0.008,51.956"/>
	<path style="fill:none;stroke:#1791BC;stroke-linecap:round;stroke-linejoin:round;stroke-miterlimit:10;" d="M225.792,89.939
		c-14.352-14.344-14.352-37.597-0.008-51.948"/>
	<path style="fill:none;stroke:#1791BC;stroke-linecap:round;stroke-linejoin:round;stroke-miterlimit:10;" d="M267.327,48.388
		c8.609,8.609,8.617,22.552,0,31.161"/>
	<path style="fill:none;stroke:#1791BC;stroke-linecap:round;stroke-linejoin:round;stroke-miterlimit:10;" d="M236.182,79.557
		c-8.625-8.617-8.617-22.56,0-31.161"/>
</g>
<g>
	<circle style="fill:#093568;" cx="251.746" cy="63.961" r="13.084"/>
	<path style="fill:#093568;" d="M270.659,219.963c0,10.437-8.476,18.905-18.905,18.905c-10.445,0-18.913-8.468-18.913-18.912
		c0-10.445,8.468-158.531,18.913-158.531C262.183,61.416,270.659,209.518,270.659,219.963z"/>
</g>
<g>
	<path style="fill:#041D35;" d="M251.754,61.424c10.429-0.008,18.905,148.094,18.905,158.539c0,10.437-8.476,18.905-18.905,18.905"
		/>
	<path style="fill:#041D35;" d="M301.387,252.062c0-7.987,0.788-15.636,2.135-22.788c-5.167-3.403-10.547-7.735-15.738-12.934
		c-12.824-12.816-20.74-26.852-21.016-35.848l-14.698-14.69l-13.903,13.911c0.733,8.846-7.357,23.843-20.968,37.478
		c-4.663,4.655-9.46,8.602-14.139,11.831c1.394,7.223,2.19,14.95,2.19,23.04c0,8.554-0.898,16.707-2.45,24.285
		c4.498,3.151,9.098,6.979,13.548,11.429c12.824,12.824,20.74,26.852,21.016,35.848l14.698,14.69l13.911-13.911
		c-0.748-8.846,7.341-23.843,20.961-37.478c5.396-5.388,10.988-9.862,16.337-13.312
		C302.064,266.823,301.387,259.592,301.387,252.062z"/>
</g>
<path style="fill:#00CFFF;" d="M293.526,399.013c22.678,22.686,22.678,59.597,0,82.274c-22.693,22.686-59.589,22.678-82.259,0
	c-22.693-22.686-22.709-59.581,0-82.267C233.929,376.344,270.832,376.336,293.526,399.013z"/>
<path style="fill:#00B7FF;" d="M211.259,481.296c-22.693-22.686-22.709-59.581,0-82.267c22.67-22.678,59.565-22.686,82.259-0.008"/>
<path style="fill:#1791BC;" d="M215.363,477.184c-20.448-20.456-20.456-53.602,0-74.051c20.441-20.448,53.602-20.448,74.043,0.008
	c20.441,20.448,20.441,53.595,0,74.043C268.965,497.64,235.804,497.625,215.363,477.184 M207.132,485.408
	c24.954,24.954,65.544,24.954,90.498,0c24.954-24.954,24.954-65.544,0-90.498c-24.938-24.946-65.544-24.946-90.498,0
	C182.177,419.864,182.185,460.461,207.132,485.408L207.132,485.408z"/>
<g>
	<path style="fill:none;stroke:#1791BC;stroke-linecap:round;stroke-linejoin:round;stroke-miterlimit:10;" d="M226.414,466.133
		c-14.328-14.336-14.336-37.597,0.008-51.948"/>
	<path style="fill:none;stroke:#1791BC;stroke-linecap:round;stroke-linejoin:round;stroke-miterlimit:10;" d="M278.339,414.177
		c14.352,14.352,14.344,37.597,0,51.948"/>
	<path style="fill:none;stroke:#1791BC;stroke-linecap:round;stroke-linejoin:round;stroke-miterlimit:10;" d="M236.804,455.735
		c-8.609-8.602-8.609-22.552,0-31.161"/>
	<path style="fill:none;stroke:#1791BC;stroke-linecap:round;stroke-linejoin:round;stroke-miterlimit:10;" d="M267.957,424.566
		c8.617,8.617,8.617,22.56,0.008,31.161"/>
</g>
<g>
	<path style="fill:#093568;" d="M243.121,430.907c5.112-5.112,13.414-5.112,18.527-0.008c5.112,5.104,5.096,13.406-0.016,18.519
		c-5.088,5.112-13.383,5.104-18.511-0.008C238.025,444.298,238.017,436.019,243.121,430.907z"/>
	<path style="fill:#093568;" d="M233.48,284.168c0-10.445,8.46-18.905,18.905-18.905c10.429-0.008,18.92,8.468,18.92,18.913
		c-0.016,10.429-8.491,158.523-18.92,158.523C241.94,442.707,233.472,294.605,233.48,284.168z"/>
</g>
<path style="fill:#041D35;" d="M252.384,442.699c-10.445,0.008-18.912-148.094-18.905-158.531c0-10.445,8.46-18.905,18.905-18.905"
	/>
<path style="fill:#00CFFF;" d="M399.021,210.597c22.678-22.686,59.573-22.67,82.267,0.008c22.686,22.686,22.686,59.581,0,82.267
	c-22.678,22.678-59.581,22.678-82.259,0C376.344,270.194,376.336,233.275,399.021,210.597z"/>
<path style="fill:#00B7FF;" d="M481.296,292.88c-22.678,22.678-59.581,22.678-82.259,0c-22.686-22.686-22.693-59.597-0.008-82.274"
	/>
<path style="fill:#1791BC;" d="M477.184,288.76c-20.449,20.456-53.602,20.456-74.051,0.008
	c-20.456-20.456-20.456-53.602,0.008-74.043c20.448-20.449,53.602-20.456,74.043,0C497.632,235.166,497.625,268.312,477.184,288.76
	 M485.408,296.991c24.954-24.946,24.954-65.544,0-90.49c-24.954-24.962-65.544-24.962-90.498-0.008
	c-24.954,24.946-24.954,65.552,0,90.498C419.864,321.946,460.461,321.946,485.408,296.991L485.408,296.991z"/>
<g>
	<path style="fill:none;stroke:#1791BC;stroke-linecap:round;stroke-linejoin:round;stroke-miterlimit:10;" d="M466.133,277.709
		c-14.344,14.336-37.604,14.344-51.956-0.008"/>
	<path style="fill:none;stroke:#1791BC;stroke-linecap:round;stroke-linejoin:round;stroke-miterlimit:10;" d="M414.184,225.784
		c14.336-14.352,37.597-14.352,51.948-0.008"/>
	<path style="fill:none;stroke:#1791BC;stroke-linecap:round;stroke-linejoin:round;stroke-miterlimit:10;" d="M455.735,267.327
		c-8.609,8.602-22.552,8.609-31.153,0"/>
	<path style="fill:none;stroke:#1791BC;stroke-linecap:round;stroke-linejoin:round;stroke-miterlimit:10;" d="M424.566,236.166
		c8.617-8.617,22.56-8.609,31.161,0"/>
</g>
<g>
	<circle style="fill:#093568;" cx="440.162" cy="251.739" r="13.091"/>
	<path style="fill:#093568;" d="M284.16,270.651c-10.437,0-18.905-8.468-18.905-18.905c0-10.445,8.468-18.913,18.913-18.913
		s158.523,8.468,158.523,18.913C442.707,262.176,294.613,270.651,284.16,270.651z"/>
</g>
<g>
	<path style="fill:#041D35;" d="M442.691,251.746c0.016,10.429-148.078,18.905-158.531,18.905c-10.437,0-18.905-8.468-18.905-18.905
		"/>
	<path style="fill:#041D35;" d="M252.062,301.379c7.987,0,15.644,0.78,22.788,2.135c3.403-5.167,7.735-10.547,12.926-15.738
		c12.824-12.824,26.86-20.74,35.856-21.016l14.683-14.698l-13.911-13.911c-8.838,0.74-23.836-7.341-37.471-20.96
		c-4.655-4.663-8.609-9.46-11.831-14.139c-7.223,1.394-14.943,2.19-23.04,2.19c-8.554,0-16.707-0.898-24.285-2.45
		c-3.159,4.49-6.979,9.09-11.429,13.548c-12.824,12.824-26.852,20.74-35.848,21.016l-14.69,14.706l13.911,13.911
		c8.838-0.748,23.843,7.341,37.478,20.961c5.388,5.396,9.862,10.988,13.312,16.337C237.3,302.056,244.531,301.379,252.062,301.379z"
		/>
</g>
<path style="fill:#00CFFF;" d="M105.11,293.518c-22.686,22.678-59.597,22.678-82.274,0c-22.686-22.686-22.678-59.589,0-82.267
	c22.686-22.686,59.581-22.693,82.267,0C127.772,233.921,127.787,270.832,105.11,293.518z"/>
<path style="fill:#00B7FF;" d="M22.827,211.243c22.686-22.686,59.581-22.693,82.267,0c22.67,22.678,22.686,59.581,0.008,82.267"/>
<path style="fill:#1791BC;" d="M26.939,215.355c20.448-20.448,53.602-20.456,74.043,0c20.456,20.449,20.456,53.602,0,74.043
	c-20.448,20.449-53.602,20.449-74.043,0C6.483,268.958,6.498,235.804,26.939,215.355 M18.716,207.124
	c-24.954,24.954-24.954,65.544,0,90.498c24.954,24.954,65.544,24.962,90.498,0c24.946-24.938,24.946-65.544,0-90.498
	C84.259,182.17,43.662,182.177,18.716,207.124L18.716,207.124z"/>
<g>
	<path style="fill:none;stroke:#1791BC;stroke-linecap:round;stroke-linejoin:round;stroke-miterlimit:10;" d="M37.99,226.406
		c14.336-14.328,37.597-14.336,51.948,0.008"/>
	<path style="fill:none;stroke:#1791BC;stroke-linecap:round;stroke-linejoin:round;stroke-miterlimit:10;" d="M89.939,278.331
		c-14.344,14.352-37.589,14.344-51.94,0.008"/>
	<path style="fill:none;stroke:#1791BC;stroke-linecap:round;stroke-linejoin:round;stroke-miterlimit:10;" d="M48.388,236.796
		c8.602-8.602,22.552-8.609,31.161,0"/>
	<path style="fill:none;stroke:#1791BC;stroke-linecap:round;stroke-linejoin:round;stroke-miterlimit:10;" d="M79.557,267.949
		c-8.617,8.617-22.552,8.617-31.161,0.008"/>
</g>
<g>
	<circle style="fill:#093568;" cx="63.961" cy="252.377" r="13.084"/>
	<path style="fill:#093568;" d="M219.955,233.472c10.445,0,18.905,8.46,18.905,18.905c0.008,10.437-8.468,18.913-18.912,18.913
		c-10.429-0.008-158.523-8.476-158.523-18.913C61.416,241.94,209.518,233.464,219.955,233.472z"/>
</g>
<path style="fill:#041D35;" d="M61.424,252.377c-0.008-10.437,148.094-18.912,158.531-18.905c10.445,0,18.905,8.46,18.905,18.905"/>
<path style="fill:#00CFFF;" d="M141.926,200.546c-32.075,0-58.171-26.096-58.171-58.179s26.088-58.171,58.171-58.171
	s58.171,26.088,58.171,58.171S174.001,200.546,141.926,200.546z"/>
<path style="fill:#00B7FF;" d="M141.926,84.196c32.075,0,58.171,26.088,58.171,58.171s-26.088,58.179-58.171,58.179"/>
<path style="fill:#1791BC;" d="M141.926,90.01c28.924,0,52.358,23.442,52.358,52.358s-23.442,52.35-52.358,52.35
	s-52.35-23.434-52.35-52.35S113.01,90.01,141.926,90.01 M141.926,78.375c-35.289,0-63.992,28.711-63.992,63.992
	s28.704,63.992,63.992,63.992c35.281,0,64-28.711,64-63.992S177.207,78.375,141.926,78.375L141.926,78.375z"/>
<g>
	<path style="fill:none;stroke:#1791BC;stroke-linecap:round;stroke-linejoin:round;stroke-miterlimit:10;" d="M141.926,105.645
		c20.283,0,36.73,16.439,36.73,36.73"/>
	<path style="fill:none;stroke:#1791BC;stroke-linecap:round;stroke-linejoin:round;stroke-miterlimit:10;" d="M141.942,179.09
		c-20.291,0-36.738-16.447-36.738-36.722"/>
	<path style="fill:none;stroke:#1791BC;stroke-linecap:round;stroke-linejoin:round;stroke-miterlimit:10;" d="M141.926,120.336
		c12.17,0,22.04,9.862,22.04,22.032"/>
	<path style="fill:none;stroke:#1791BC;stroke-linecap:round;stroke-linejoin:round;stroke-miterlimit:10;" d="M141.942,164.399
		c-12.186,0-22.048-9.862-22.048-22.032"/>
</g>
<g>
	<circle style="fill:#093568;" cx="141.926" cy="142.368" r="13.091"/>
	<path style="fill:#093568;" d="M265.602,239.301c7.389,7.389,7.389,19.354,0,26.75c-7.389,7.389-19.361,7.389-26.75,0
		S132.734,147.968,140.13,140.572C147.511,133.183,258.213,231.912,265.602,239.301z"/>
</g>
<path style="fill:#041D35;" d="M140.13,140.572c7.381-7.389,118.083,91.349,125.472,98.729s7.389,19.354,0,26.75"/>
<path style="fill:#00CFFF;" d="M362.212,200.546c32.075,0,58.171-26.096,58.171-58.179s-26.088-58.171-58.171-58.171
	s-58.179,26.088-58.179,58.171S330.138,200.546,362.212,200.546z"/>
<path style="fill:#00B7FF;" d="M362.212,84.196c-32.075,0-58.179,26.088-58.179,58.171s26.096,58.179,58.179,58.179"/>
<path style="fill:#1791BC;" d="M362.212,90.01c28.908,0,52.35,23.442,52.35,52.358s-23.45,52.35-52.35,52.35
	c-28.924,0-52.366-23.434-52.366-52.35S333.288,90.01,362.212,90.01 M362.212,78.375c-35.289,0-64,28.711-64,63.992
	s28.711,63.992,64,63.992c35.281,0,64-28.711,64-63.992S397.501,78.375,362.212,78.375L362.212,78.375z"/>
<g>
	<path style="fill:none;stroke:#1791BC;stroke-linecap:round;stroke-linejoin:round;stroke-miterlimit:10;" d="M362.212,105.645
		c-20.283,0-36.738,16.439-36.738,36.73"/>
	<path style="fill:none;stroke:#1791BC;stroke-linecap:round;stroke-linejoin:round;stroke-miterlimit:10;" d="M362.197,179.09
		c20.291,0,36.738-16.447,36.738-36.722"/>
	<path style="fill:none;stroke:#1791BC;stroke-linecap:round;stroke-linejoin:round;stroke-miterlimit:10;" d="M362.212,120.336
		c-12.17,0-22.047,9.862-22.047,22.032"/>
	<path style="fill:none;stroke:#1791BC;stroke-linecap:round;stroke-linejoin:round;stroke-miterlimit:10;" d="M362.197,164.399
		c12.186,0,22.04-9.862,22.04-22.032"/>
</g>
<g>
	<circle style="fill:#093568;" cx="362.181" cy="142.368" r="13.091"/>
	<path style="fill:#093568;" d="M238.537,239.301c-7.389,7.389-7.389,19.354,0,26.75c7.373,7.389,19.361,7.389,26.75,0
		c7.381-7.389,106.11-118.083,98.721-125.479C356.628,133.183,245.91,231.912,238.537,239.301z"/>
</g>
<path style="fill:#041D35;" d="M364.008,140.572c-7.381-7.389-118.099,91.349-125.472,98.729c-7.389,7.389-7.389,19.354,0,26.75"/>
<path style="fill:#00CFFF;" d="M362.212,303.577c32.067,0,58.171,26.096,58.171,58.179s-26.096,58.171-58.171,58.171
	c-32.083,0-58.187-26.088-58.187-58.171S330.13,303.577,362.212,303.577z"/>
<path style="fill:#00B7FF;" d="M362.212,419.927c-32.083,0-58.187-26.088-58.187-58.171s26.096-58.179,58.187-58.179"/>
<path style="fill:#1791BC;" d="M362.212,414.113c-28.932,0-52.366-23.442-52.366-52.358s23.442-52.35,52.366-52.35
	c28.908,0,52.35,23.434,52.35,52.35S391.121,414.113,362.212,414.113 M362.212,425.748c35.281,0,63.984-28.711,63.984-63.992
	s-28.703-63.992-63.984-63.992c-35.289,0-64,28.711-64,63.992S326.924,425.748,362.212,425.748L362.212,425.748z"/>
<g>
	<path style="fill:none;stroke:#1791BC;stroke-linecap:round;stroke-linejoin:round;stroke-miterlimit:10;" d="M362.212,398.478
		c-20.283,0-36.738-16.447-36.738-36.73"/>
	<path style="fill:none;stroke:#1791BC;stroke-linecap:round;stroke-linejoin:round;stroke-miterlimit:10;" d="M362.189,325.033
		c20.291,0,36.73,16.447,36.73,36.722"/>
	<path style="fill:none;stroke:#1791BC;stroke-linecap:round;stroke-linejoin:round;stroke-miterlimit:10;" d="M362.212,383.787
		c-12.17,0-22.047-9.862-22.047-22.032"/>
	<path style="fill:none;stroke:#1791BC;stroke-linecap:round;stroke-linejoin:round;stroke-miterlimit:10;" d="M362.189,339.724
		c12.186,0,22.048,9.862,22.048,22.032"/>
</g>
<g>
	<circle style="fill:#093568;" cx="362.181" cy="361.787" r="13.091"/>
	<path style="fill:#093568;" d="M238.537,264.822c-7.389-7.389-7.389-19.354,0-26.75c7.373-7.389,19.361-7.389,26.75,0
		c7.373,7.389,106.102,118.083,98.714,125.479C356.628,370.94,245.91,272.211,238.537,264.822z"/>
</g>
<path style="fill:#041D35;" d="M364,363.552c-7.373,7.389-118.091-91.349-125.464-98.729c-7.389-7.389-7.389-19.354,0-26.75"/>
<path style="fill:#00CFFF;" d="M141.911,303.577c-32.067,0-58.163,26.096-58.163,58.179s26.088,58.171,58.163,58.171
	c32.083,0,58.187-26.088,58.187-58.171S173.993,303.577,141.911,303.577z"/>
<path style="fill:#00B7FF;" d="M141.911,419.927c32.083,0,58.187-26.088,58.187-58.171s-26.096-58.179-58.187-58.179"/>
<path style="fill:#1791BC;" d="M141.911,414.113c-28.9,0-52.35-23.442-52.35-52.358s23.457-52.35,52.35-52.35
	c28.924,0,52.374,23.434,52.374,52.35S170.835,414.113,141.911,414.113 M141.911,425.748c35.296,0,64.008-28.711,64.008-63.992
	s-28.711-63.992-64.008-63.992c-35.281,0-63.976,28.711-63.976,63.992S106.63,425.748,141.911,425.748L141.911,425.748z"/>
<g>
	<path style="fill:none;stroke:#1791BC;stroke-linecap:round;stroke-linejoin:round;stroke-miterlimit:10;" d="M141.911,398.478
		c20.299,0,36.738-16.447,36.738-36.73"/>
	<path style="fill:none;stroke:#1791BC;stroke-linecap:round;stroke-linejoin:round;stroke-miterlimit:10;" d="M141.934,325.033
		c-20.283,0-36.73,16.447-36.73,36.722"/>
	<path style="fill:none;stroke:#1791BC;stroke-linecap:round;stroke-linejoin:round;stroke-miterlimit:10;" d="M141.911,383.787
		c12.186,0,22.048-9.862,22.048-22.032"/>
	<path style="fill:none;stroke:#1791BC;stroke-linecap:round;stroke-linejoin:round;stroke-miterlimit:10;" d="M141.934,339.724
		c-12.193,0-22.04,9.862-22.04,22.032"/>
</g>
<g>
	<circle style="fill:#093568;" cx="141.919" cy="361.787" r="13.091"/>
	<path style="fill:#093568;" d="M265.602,264.822c7.381-7.389,7.381-19.354,0-26.75c-7.389-7.389-19.361-7.389-26.75,0
		s-106.118,118.083-98.729,125.479C147.511,370.94,258.213,272.211,265.602,264.822z"/>
</g>
<g>
	<path style="fill:#041D35;" d="M140.123,363.552c7.389,7.389,118.091-91.349,125.479-98.729c7.381-7.389,7.381-19.354,0-26.75"/>
	<path style="fill:#041D35;" d="M302.576,252.062c0-18.133,4.324-33.65,10.484-40.204v-20.787h-19.669
		c-5.734,6.782-22.055,11.674-41.322,11.674s-35.596-4.892-41.33-11.674h-19.661v20.787c6.16,6.554,10.484,22.079,10.484,40.204
		c0,18.125-4.324,33.65-10.484,40.204v20.787h19.661c5.742-6.782,22.063-11.674,41.33-11.674s35.596,4.892,41.322,11.674h19.669
		v-20.787C306.901,285.712,302.576,270.194,302.576,252.062z"/>
</g>
<g>
	<path style="fill:#00B7FF;" d="M231.007,268.729c0,0.496-0.41,0.906-0.906,0.906h-12.698c-0.496,0-0.906-0.41-0.906-0.906l0,0
		c0-0.504,0.41-0.914,0.906-0.914h12.698C230.597,267.815,231.007,268.225,231.007,268.729L231.007,268.729z"/>
	<path style="fill:#00B7FF;" d="M231.007,277.339c0,0.504-0.41,0.914-0.906,0.914h-12.698c-0.496,0-0.906-0.41-0.906-0.914l0,0
		c0-0.496,0.41-0.906,0.906-0.906h12.698C230.597,276.433,231.007,276.842,231.007,277.339L231.007,277.339z"/>
	<path style="fill:#00B7FF;" d="M231.007,285.956c0,0.504-0.41,0.914-0.906,0.914h-12.698c-0.496,0-0.906-0.41-0.906-0.914l0,0
		c0-0.496,0.41-0.906,0.906-0.906h12.698C230.597,285.05,231.007,285.452,231.007,285.956L231.007,285.956z"/>
	<circle style="fill:#00B7FF;" cx="275.117" cy="229.841" r="9.972"/>
</g>
<g>
</g>
<g>
</g>
<g>
</g>
<g>
</g>
<g>
</g>
<g>
</g>
<g>
</g>
<g>
</g>
<g>
</g>
<g>
</g>
<g>
</g>
<g>
</g>
<g>
</g>
<g>
</g>
<g>
</g>
</svg>
