<?xml version="1.0" encoding="iso-8859-1"?>
<!-- Generator: Adobe Illustrator 19.0.0, SVG Export Plug-In . SVG Version: 6.00 Build 0)  -->
<svg version="1.1" id="Layer_1" xmlns="http://www.w3.org/2000/svg" xmlns:xlink="http://www.w3.org/1999/xlink" x="0px" y="0px"
	 viewBox="0 0 504.118 504.118" style="enable-background:new 0 0 504.118 504.118;" xml:space="preserve">
<path style="fill:#081E34;" d="M298.063,284.815c0,3.127-2.536,5.664-5.664,5.664h-80.675c-3.119,0-5.664-2.529-5.664-5.664v-49.065
	c0-3.119,2.536-5.663,5.664-5.663h80.675c3.119,0,5.664,2.536,5.664,5.663V284.815z"/>
<circle style="fill:#EBF0F2;" cx="267.07" cy="260.288" r="21.04"/>
<path style="fill:#BDD0D6;" d="M267.075,239.24c11.611,0,21.039,9.421,21.039,21.047c0,11.618-9.429,21.039-21.039,21.039"/>
<path style="fill:#EBF0F2;" d="M238.356,250.764c0,0.882-0.717,1.599-1.591,1.599H217.12c-0.898,0-1.615-0.717-1.615-1.599v-9.555
	c0-0.882,0.717-1.607,1.615-1.607h19.645c0.874,0,1.591,0.725,1.591,1.607V250.764z"/>
<path style="fill:#BDD0D6;" d="M215.497,241.209c0-0.882,0.717-1.607,1.615-1.607h19.645c0.874,0,1.591,0.725,1.591,1.607v9.555
	c0,0.882-0.717,1.599-1.591,1.599"/>
<g>
	<path style="fill:#081E34;" d="M255.874,232.34c0,2.111-1.709,3.812-3.812,3.812l0,0c-2.111,0-3.812-1.709-3.812-3.812v-15.754
		c0-2.111,1.709-3.812,3.812-3.812l0,0c2.111,0,3.812,1.709,3.812,3.812V232.34z"/>
	<path style="fill:#081E34;" d="M264.523,230.245c0,2.261-1.827,4.104-4.096,4.104h-16.738c-2.261,0-4.104-1.835-4.104-4.104l0,0
		c0-2.261,1.835-4.104,4.104-4.104h16.738C262.695,226.149,264.523,227.984,264.523,230.245L264.523,230.245z"/>
</g>
<path style="fill:#0092FF;" d="M277.984,195.035h-51.846c-1.804,4.017-4.356,8.586-7.373,13.044
	c-0.969,1.449-1.189,3.245-0.614,4.876c0.583,1.631,1.89,2.875,3.552,3.387c9.295,2.812,19.787,4.293,30.358,4.293
	c10.563,0,21.063-1.481,30.358-4.293c1.654-0.504,2.97-1.757,3.553-3.387c0.575-1.631,0.347-3.434-0.614-4.876
	C282.34,203.621,279.788,199.052,277.984,195.035z"/>
<ellipse style="fill:#093568;" cx="252.06" cy="115.818" rx="100.06" ry="41.889"/>
<path style="fill:#041D35;" d="M352.122,115.816c0,23.142-44.804,41.889-100.061,41.889S152,138.95,152,115.816"/>
<path style="fill:#093568;" d="M215.725,106.372c0,15.368-12.438,27.829-27.829,27.829c-15.344,0-125.605-12.461-125.605-27.829
	c0-15.352,110.261-27.813,125.605-27.813C203.288,78.559,215.725,91.02,215.725,106.372z"/>
<path style="fill:#074584;" d="M187.896,78.559c15.392,0,27.829,12.461,27.829,27.813"/>
<g>
	<path style="fill:#041D35;" d="M215.725,106.372c0,15.368,17.904,48.065,2.536,48.065S62.283,121.748,62.283,106.372"/>
	<path style="fill:#041D35;" d="M90.01,112.91c0,8.862-7.176,16.03-16.022,16.03l0,0c-8.862,0-15.998-7.168-15.998-16.03V98.574
		c0-8.846,7.136-16.014,15.998-16.014l0,0c8.846,0,16.022,7.168,16.022,16.014C90.01,98.574,90.01,112.91,90.01,112.91z"/>
</g>
<path style="fill:#093568;" d="M90.01,97.109c0,8.846-7.176,16.014-16.022,16.014l0,0c-8.862,0-15.998-7.168-15.998-16.014V82.773
	c0-8.846,7.136-16.03,15.998-16.03l0,0c8.846,0,16.022,7.184,16.022,16.03C90.01,82.773,90.01,97.109,90.01,97.109z"/>
<path style="fill:#041D35;" d="M58.478,82.773c1.694,7.018,7.971,12.233,15.51,12.233c7.538,0,13.808-5.215,15.518-12.233
	C87.797,75.77,81.527,70.54,73.988,70.54C66.45,70.54,60.172,75.77,58.478,82.773z"/>
<ellipse style="fill:#00B1FF;" cx="73.98" cy="70.018" rx="73.98" ry="11.705"/>
<ellipse style="fill:#0092FF;" cx="73.988" cy="70.018" rx="41.1" ry="11.705"/>
<path style="fill:#00CFFF;" d="M147.495,70.02c0,1.142-0.906,2.048-2.056,2.048H2.521c-1.126,0-2.04-0.906-2.04-2.048l0,0
	c0-1.142,0.914-2.064,2.04-2.064H145.44C146.582,67.956,147.495,68.878,147.495,70.02L147.495,70.02z"/>
<path style="fill:#041D35;" d="M90.277,55.802c0,4.695,6.294,8.523,1.56,8.523H56.123c-4.71,0,1.575-3.828,1.575-8.523l0,0
	c0-4.742,3.828-8.554,8.539-8.554h15.486C86.441,47.248,90.277,51.06,90.277,55.802L90.277,55.802z"/>
<path style="fill:#093568;" d="M288.398,106.372c0,15.368,12.446,27.829,27.821,27.829c15.352,0,125.613-12.461,125.613-27.829
	c0-15.352-110.261-27.813-125.613-27.813C300.843,78.559,288.398,91.02,288.398,106.372z"/>
<path style="fill:#074584;" d="M316.227,78.559c-15.376,0-27.821,12.461-27.821,27.813"/>
<g>
	<path style="fill:#041D35;" d="M288.398,106.372c0,15.368-17.904,48.065-2.536,48.065s155.978-32.689,155.978-48.065"/>
	<path style="fill:#041D35;" d="M414.113,112.91c0,8.862,7.176,16.03,16.022,16.03l0,0c8.854,0,16.006-7.168,16.006-16.03V98.574
		c0-8.846-7.152-16.014-16.006-16.014l0,0c-8.846,0-16.022,7.168-16.022,16.014V112.91z"/>
</g>
<path style="fill:#093568;" d="M414.113,97.109c0,8.846,7.176,16.014,16.022,16.014l0,0c8.854,0,16.006-7.168,16.006-16.014V82.773
	c0-8.846-7.152-16.03-16.006-16.03l0,0c-8.846,0-16.022,7.184-16.022,16.03V97.109z"/>
<path style="fill:#041D35;" d="M445.645,82.773c-1.694,7.018-7.979,12.233-15.51,12.233c-7.538,0-13.816-5.215-15.525-12.233
	c1.709-7.003,7.987-12.233,15.525-12.233C437.665,70.54,443.951,75.77,445.645,82.773z"/>
<ellipse style="fill:#00B1FF;" cx="430.13" cy="70.018" rx="73.988" ry="11.705"/>
<ellipse style="fill:#0092FF;" cx="430.13" cy="70.018" rx="41.1" ry="11.705"/>
<path style="fill:#00CFFF;" d="M356.628,70.02c0,1.142,0.906,2.048,2.056,2.048h142.919c1.126,0,2.04-0.906,2.04-2.048l0,0
	c0-1.142-0.914-2.064-2.04-2.064H358.684C357.541,67.956,356.628,68.878,356.628,70.02L356.628,70.02z"/>
<path style="fill:#041D35;" d="M413.846,55.802c0,4.695-6.294,8.523-1.56,8.523H448c4.71,0-1.575-3.828-1.575-8.523l0,0
	c0-4.742-3.828-8.554-8.539-8.554H422.4C417.69,47.248,413.846,51.06,413.846,55.802L413.846,55.802z"/>
<path style="fill:#081E34;" d="M299.402,119.881h-15.265c-2.316,0-4.521,1.032-6.018,2.796c-2.135,2.521-11.902,6.262-26.065,6.262
	c-14.171,0-23.914-3.742-26.049-6.262c-1.504-1.772-3.702-2.796-6.026-2.796h-15.258c-4.356,0-7.877,3.521-7.877,7.877v16.14
	c0,2.001,0.772,3.938,2.135,5.404c3.009,3.182,7.176,4.506,11.201,5.782c7.704,2.434,8.539,3.434,8.539,6.294
	c0,6.412-6.081,19.952-14.816,32.91c-1.386,2.08-1.717,4.695-0.874,7.05s2.749,4.167,5.136,4.892
	c13.438,4.064,28.617,6.215,43.89,6.215s30.46-2.15,43.898-6.215c2.395-0.725,4.285-2.536,5.136-4.892
	c0.835-2.355,0.504-4.97-0.882-7.05c-8.72-12.958-14.809-26.49-14.809-32.91c0-2.859,0.835-3.86,8.523-6.294
	c4.033-1.276,8.2-2.599,11.209-5.782c1.371-1.465,2.135-3.403,2.135-5.404v-16.14C307.279,123.402,303.75,119.881,299.402,119.881z"
	/>
<g>
	<path style="fill:#0092FF;" d="M268.138,87.538c0,0.819-0.662,1.481-1.481,1.481h-29.2c-0.819,0-1.481-0.662-1.481-1.481l0,0
		c0-0.819,0.662-1.481,1.481-1.481h29.2C267.477,86.065,268.138,86.727,268.138,87.538L268.138,87.538z"/>
	<path style="fill:#0092FF;" d="M268.138,96.4c0,0.819-0.662,1.481-1.481,1.481h-29.2c-0.819,0-1.481-0.662-1.481-1.481l0,0
		c0-0.819,0.662-1.481,1.481-1.481h29.2C267.477,94.927,268.138,95.589,268.138,96.4L268.138,96.4z"/>
	<path style="fill:#0092FF;" d="M268.138,105.261c0,0.819-0.662,1.481-1.481,1.481h-29.2c-0.819,0-1.481-0.662-1.481-1.481l0,0
		c0-0.819,0.662-1.481,1.481-1.481h29.2C267.477,103.788,268.138,104.45,268.138,105.261L268.138,105.261z"/>
</g>
<path style="fill:#00CFFF;" d="M397.784,456.87H106.338c-5.799,0-10.5-4.701-10.5-10.5c0-127.902,48.191-231.261,76.917-281.488
	c2.879-5.034,9.293-6.78,14.328-3.902c5.034,2.879,6.781,9.294,3.902,14.328c-26.899,47.032-71.502,142.364-74.034,260.562h270.221
	c-2.531-118.221-47.135-213.541-74.033-260.561c-2.879-5.034-1.133-11.448,3.9-14.328c5.034-2.878,11.447-1.133,14.328,3.9
	c28.726,50.216,76.917,153.56,76.917,281.489C408.284,452.169,403.583,456.87,397.784,456.87z"/>
<g>
</g>
<g>
</g>
<g>
</g>
<g>
</g>
<g>
</g>
<g>
</g>
<g>
</g>
<g>
</g>
<g>
</g>
<g>
</g>
<g>
</g>
<g>
</g>
<g>
</g>
<g>
</g>
<g>
</g>
</svg>
