<?xml version="1.0" encoding="iso-8859-1"?>
<!-- Generator: Adobe Illustrator 19.0.0, SVG Export Plug-In . SVG Version: 6.00 Build 0)  -->
<svg version="1.1" id="Layer_1" xmlns="http://www.w3.org/2000/svg" xmlns:xlink="http://www.w3.org/1999/xlink" x="0px" y="0px"
	 viewBox="0 0 504.147 504.147" style="enable-background:new 0 0 504.147 504.147;" xml:space="preserve">
<polygon style="fill:#8E1700;" points="193.229,487.483 134.396,385.571 193.229,283.668 310.894,283.668 369.727,385.571 
	310.894,487.483 "/>
<polygon style="fill:#6B1105;" points="193.229,487.483 134.396,385.571 193.229,394.756 310.894,394.756 369.727,385.571 
	310.894,487.483 "/>
<path style="fill:#8E1700;" d="M277.984,263.991h-51.846c-1.804,4.017-4.356,8.586-7.373,13.044
	c-0.969,1.449-1.197,3.245-0.614,4.876s1.906,2.875,3.552,3.387c9.295,2.812,19.787,4.293,30.358,4.293
	c10.555,0,21.063-1.481,30.358-4.293c1.654-0.504,2.97-1.757,3.553-3.387c0.575-1.631,0.347-3.434-0.614-4.876
	C282.34,272.577,279.788,268,277.984,263.991z"/>
<ellipse style="fill:#E86105;" cx="252.062" cy="184.773" rx="100.061" ry="41.889"/>
<path style="fill:#B22504;" d="M352.122,184.773c0,23.142-44.804,41.889-100.061,41.889s-100.061-18.755-100.061-41.889"/>
<path style="fill:#E86105;" d="M215.725,175.328c0,15.368-12.446,27.829-27.813,27.829S62.275,190.696,62.275,175.328
	c0-15.352,110.261-27.813,125.629-27.813S215.725,159.976,215.725,175.328z"/>
<path style="fill:#FF9827;" d="M187.904,147.515c15.368,0,27.813,12.461,27.813,27.813"/>
<g>
	<path style="fill:#B22504;" d="M215.725,175.328c0,15.368,17.904,48.065,2.536,48.065S62.275,190.704,62.275,175.328"/>
	<path style="fill:#B22504;" d="M90.01,181.866c0,8.862-7.176,16.03-16.022,16.03l0,0c-8.862,0-15.998-7.168-15.998-16.03V167.53
		c0-8.846,7.136-16.014,15.998-16.014l0,0c8.846,0,16.022,7.168,16.022,16.014V181.866z"/>
</g>
<path style="fill:#CC5200;" d="M90.01,166.065c0,8.846-7.176,16.014-16.022,16.014l0,0c-8.862,0-15.998-7.168-15.998-16.014v-14.336
	c0-8.846,7.136-16.03,15.998-16.03l0,0c8.846,0,16.022,7.184,16.022,16.03V166.065z"/>
<path style="fill:#B22504;" d="M58.478,151.729c1.694,7.018,7.987,12.233,15.51,12.233c7.538,0,13.816-5.215,15.518-12.233
	c-1.701-7.003-7.979-12.233-15.518-12.233C66.465,139.496,60.172,144.727,58.478,151.729z"/>
<ellipse style="fill:#00B1FF;" cx="73.98" cy="138.961" rx="73.98" ry="11.705"/>
<ellipse style="fill:#0092FF;" cx="73.988" cy="138.961" rx="41.102" ry="11.705"/>
<path style="fill:#00CFFF;" d="M147.495,138.976c0,1.142-0.906,2.048-2.056,2.048H2.521c-1.126,0-2.032-0.906-2.032-2.048l0,0
	c0-1.142,0.906-2.064,2.032-2.064h142.919C146.582,136.913,147.495,137.834,147.495,138.976L147.495,138.976z"/>
<path style="fill:#B22504;" d="M90.277,124.759c0,4.695,6.294,8.523,1.56,8.523H56.123c-4.71,0,1.575-3.828,1.575-8.523l0,0
	c0-4.742,3.836-8.554,8.539-8.554h15.486C86.433,116.204,90.277,120.017,90.277,124.759L90.277,124.759z"/>
<path style="fill:#E86105;" d="M288.398,175.328c0,15.368,12.446,27.829,27.829,27.829c15.344,0,125.605-12.461,125.605-27.829
	c0-15.352-110.261-27.813-125.605-27.813C300.843,147.515,288.398,159.976,288.398,175.328z"/>
<path style="fill:#FF9827;" d="M316.227,147.515c-15.384,0-27.829,12.461-27.829,27.813"/>
<g>
	<path style="fill:#B22504;" d="M288.398,175.328c0,15.368-17.904,48.065-2.536,48.065s155.979-32.689,155.979-48.065"/>
	<path style="fill:#B22504;" d="M414.106,181.866c0,8.862,7.184,16.03,16.03,16.03l0,0c8.854,0,15.998-7.168,15.998-16.03V167.53
		c0-8.846-7.144-16.014-15.998-16.014l0,0c-8.846,0-16.03,7.168-16.03,16.014V181.866z"/>
</g>
<path style="fill:#CC5200;" d="M414.106,166.065c0,8.846,7.184,16.014,16.03,16.014l0,0c8.854,0,15.998-7.168,15.998-16.014v-14.336
	c0-8.846-7.144-16.03-15.998-16.03l0,0c-8.846,0-16.03,7.184-16.03,16.03V166.065z"/>
<path style="fill:#B22504;" d="M445.645,151.729c-1.694,7.018-7.979,12.233-15.51,12.233c-7.538,0-13.8-5.215-15.525-12.233
	c1.725-7.003,7.987-12.233,15.525-12.233C437.665,139.496,443.951,144.727,445.645,151.729z"/>
<ellipse style="fill:#00B1FF;" cx="430.159" cy="138.961" rx="73.988" ry="11.705"/>
<ellipse style="fill:#0092FF;" cx="430.159" cy="138.961" rx="41.102" ry="11.705"/>
<path style="fill:#00CFFF;" d="M356.628,138.976c0,1.142,0.906,2.048,2.048,2.048h142.927c1.126,0,2.048-0.906,2.048-2.048l0,0
	c0-1.142-0.922-2.064-2.048-2.064H358.676C357.541,136.913,356.628,137.834,356.628,138.976L356.628,138.976z"/>
<g>
	<path style="fill:#B22504;" d="M413.846,124.759c0,4.695-6.294,8.523-1.568,8.523H448c4.71,0-1.575-3.828-1.575-8.523l0,0
		c0-4.742-3.82-8.554-8.546-8.554H422.4C417.69,116.204,413.846,120.017,413.846,124.759L413.846,124.759z"/>
	<path style="fill:#B22504;" d="M299.402,188.837h-15.265c-2.316,0-4.521,1.032-6.018,2.796c-2.135,2.521-11.902,6.262-26.065,6.262
		c-14.171,0-23.914-3.742-26.049-6.262c-1.504-1.772-3.71-2.796-6.026-2.796h-15.258c-4.356,0-7.877,3.521-7.877,7.877v16.14
		c0,2.001,0.772,3.938,2.135,5.404c3.009,3.182,7.168,4.506,11.201,5.782c7.704,2.434,8.539,3.434,8.539,6.294
		c0,6.412-6.081,19.952-14.816,32.91c-1.386,2.08-1.725,4.695-0.874,7.05c0.835,2.355,2.741,4.167,5.136,4.892
		c13.438,4.064,28.617,6.215,43.89,6.215c15.273,0,30.46-2.15,43.89-6.215c2.402-0.725,4.293-2.536,5.144-4.892
		c0.835-2.355,0.496-4.97-0.882-7.05c-8.72-12.958-14.801-26.49-14.801-32.91c0-2.859,0.827-3.86,8.515-6.294
		c4.033-1.276,8.192-2.599,11.209-5.782c1.371-1.465,2.135-3.403,2.135-5.404v-16.14
		C307.279,192.358,303.75,188.837,299.402,188.837z"/>
</g>
<g>
	<path style="fill:#FF9827;" d="M268.138,156.495c0,0.819-0.662,1.481-1.481,1.481h-29.2c-0.819,0-1.481-0.662-1.481-1.481l0,0
		c0-0.819,0.662-1.481,1.481-1.481h29.2C267.477,155.022,268.138,155.683,268.138,156.495L268.138,156.495z"/>
	<path style="fill:#FF9827;" d="M268.138,165.356c0,0.819-0.662,1.481-1.481,1.481h-29.2c-0.819,0-1.481-0.662-1.481-1.481l0,0
		c0-0.819,0.662-1.481,1.481-1.481h29.2C267.477,163.883,268.138,164.545,268.138,165.356L268.138,165.356z"/>
	<path style="fill:#FF9827;" d="M268.138,174.218c0,0.819-0.662,1.481-1.481,1.481h-29.2c-0.819,0-1.481-0.662-1.481-1.481l0,0
		c0-0.819,0.662-1.481,1.481-1.481h29.2C267.477,172.745,268.138,173.407,268.138,174.218L268.138,174.218z"/>
	<path style="fill:#FF9827;" d="M257.969,58.017c0,3.261-2.647,5.908-5.908,5.908l0,0c-3.261,0-5.908-2.647-5.908-5.908V22.571
		c0-3.261,2.647-5.908,5.908-5.908l0,0c3.261,0,5.908,2.647,5.908,5.908V58.017z"/>
	<path style="fill:#FF9827;" d="M180.539,80.159c2.308,2.308,2.308,6.065,0,8.365l0,0c-2.308,2.308-6.049,2.292-8.357-0.016
		l-25.064-25.064c-2.308-2.308-2.308-6.049,0-8.357l0,0c2.308-2.308,6.049-2.308,8.357,0L180.539,80.159z"/>
	<path style="fill:#FF9827;" d="M215.339,66.454c1.016,3.096-0.662,6.443-3.773,7.459l0,0c-3.096,1.016-6.428-0.677-7.459-3.781
		l-11.043-33.666c-1.016-3.111,0.662-6.443,3.773-7.459l0,0c3.111-1.016,6.428,0.662,7.459,3.773L215.339,66.454z"/>
	<path style="fill:#FF9827;" d="M323.584,80.159c-2.308,2.308-2.308,6.065,0,8.365l0,0c2.308,2.308,6.049,2.292,8.357-0.016
		l25.064-25.064c2.308-2.308,2.308-6.049,0-8.357l0,0c-2.308-2.308-6.049-2.308-8.357,0L323.584,80.159z"/>
	<path style="fill:#FF9827;" d="M288.784,66.454c-1.016,3.096,0.662,6.443,3.773,7.459l0,0c3.096,1.016,6.428-0.677,7.459-3.781
		l11.043-33.658c1.016-3.111-0.662-6.443-3.773-7.459l0,0c-3.111-1.016-6.428,0.662-7.459,3.773L288.784,66.454z"/>
</g>
<g>
	<path style="fill:#FF9700;" d="M216.844,402.727c-0.315-1.016-1.26-1.701-2.308-1.701h-35.998c-1.056,0-2.001,0.685-2.324,1.701
		l-4.876,15.25c-0.228,0.748-0.11,1.552,0.354,2.182c0.465,0.63,1.189,1,1.969,1h45.741h0.063c1.339,0,2.434-1.095,2.434-2.442
		c0-0.433-0.11-0.835-0.307-1.182L216.844,402.727z"/>
	<path style="fill:#FF9700;" d="M272.353,402.727c-0.323-1.016-1.268-1.701-2.324-1.701h-35.982c-1.063,0-2.001,0.685-2.324,1.701
		l-4.884,15.25c-0.236,0.748-0.102,1.552,0.362,2.182c0.465,0.63,1.189,1,1.961,1h45.741h0.047c1.355,0,2.45-1.095,2.45-2.442
		c0-0.433-0.126-0.835-0.307-1.182L272.353,402.727z"/>
	<path style="fill:#FF9700;" d="M332.595,417.536l-4.75-14.809c-0.315-1.016-1.252-1.701-2.316-1.701h-35.99
		c-1.056,0-2.001,0.685-2.316,1.701l-4.876,15.25c-0.236,0.748-0.118,1.552,0.354,2.182c0.457,0.63,1.182,1,1.961,1h45.757h0.047
		c1.347,0,2.442-1.095,2.442-2.442C332.902,418.292,332.792,417.883,332.595,417.536z"/>
	<path style="fill:#FF9700;" d="M201.413,394.323h45.741c0.024,0,0.032,0,0.032,0c1.371,0,2.458-1.095,2.458-2.45
		c0-0.425-0.118-0.827-0.307-1.174l-4.742-14.809c-0.315-1.016-1.26-1.701-2.324-1.701h-35.982c-1.063,0-2.001,0.685-2.324,1.701
		l-4.876,15.25c-0.236,0.74-0.11,1.544,0.354,2.174C199.908,393.945,200.633,394.323,201.413,394.323z"/>
	<path style="fill:#FF9700;" d="M259.466,375.891l-4.884,15.25c-0.228,0.74-0.102,1.544,0.354,2.174
		c0.473,0.63,1.197,1.008,1.977,1.008h45.749c0,0,0.039,0,0.047,0c1.339,0,2.442-1.095,2.442-2.45c0-0.425-0.118-0.827-0.307-1.174
		l-4.742-14.809c-0.315-1.016-1.268-1.701-2.316-1.701h-35.982C260.742,374.189,259.789,374.875,259.466,375.891z"/>
	<path style="fill:#FF9700;" d="M231.723,349.779l-4.884,15.25c-0.236,0.748-0.102,1.552,0.362,2.182
		c0.465,0.622,1.189,1.008,1.961,1.008h45.741h0.047c1.355,0,2.434-1.103,2.434-2.45c0-0.433-0.11-0.827-0.291-1.182l-4.742-14.809
		c-0.323-1.008-1.268-1.701-2.324-1.701h-35.982C232.984,348.077,232.046,348.77,231.723,349.779z"/>
	<path style="fill:#FF9700;" d="M217.45,333.615c0.024,9.736,0.433,17.487,0.937,17.487s0.898-7.751,0.929-17.487
		c9.736-0.024,17.487-0.441,17.479-0.929c0.008-0.496-7.735-0.906-17.479-0.937c-0.016-9.736-0.425-17.487-0.929-17.487
		s-0.914,7.743-0.937,17.487c-9.744,0.031-17.487,0.433-17.487,0.937S207.707,333.592,217.45,333.615z"/>
	<path style="fill:#FF9700;" d="M281.34,321.792c3.679,3.663,6.751,6.428,6.94,6.246c0.181-0.189-2.568-3.269-6.231-6.955
		c3.663-3.671,6.412-6.735,6.231-6.932s-3.261,2.576-6.94,6.239c-3.679-3.655-6.735-6.428-6.94-6.239
		c-0.181,0.189,2.584,3.261,6.246,6.94c-3.663,3.679-6.428,6.751-6.246,6.947C274.597,328.22,277.662,325.447,281.34,321.792z"/>
	<path style="fill:#FF9700;" d="M304.742,364.201c0.016,3.844,0.173,6.924,0.386,6.924c0.197,0,0.354-3.08,0.362-6.924
		c3.852-0.016,6.924-0.165,6.916-0.37c0.008-0.197-3.064-0.354-6.916-0.37c-0.008-3.844-0.165-6.924-0.362-6.924
		c-0.205,0-0.37,3.08-0.386,6.924c-3.836,0.016-6.908,0.165-6.908,0.37S300.891,364.186,304.742,364.201z"/>
</g>
<g>
</g>
<g>
</g>
<g>
</g>
<g>
</g>
<g>
</g>
<g>
</g>
<g>
</g>
<g>
</g>
<g>
</g>
<g>
</g>
<g>
</g>
<g>
</g>
<g>
</g>
<g>
</g>
<g>
</g>
</svg>
