<?xml version="1.0" encoding="iso-8859-1"?>
<!-- Generator: Adobe Illustrator 19.0.0, SVG Export Plug-In . SVG Version: 6.00 Build 0)  -->
<svg version="1.1" id="Layer_1" xmlns="http://www.w3.org/2000/svg" xmlns:xlink="http://www.w3.org/1999/xlink" x="0px" y="0px"
	 viewBox="0 0 504.147 504.147" style="enable-background:new 0 0 504.147 504.147;" xml:space="preserve">
<polygon style="fill:#8E1700;" points="193.229,487.483 134.396,385.571 193.229,283.668 310.894,283.668 369.727,385.571 
	310.894,487.483 "/>
<polygon style="fill:#6B1105;" points="193.229,487.483 134.396,385.571 193.229,394.756 310.894,394.756 369.727,385.571 
	310.894,487.483 "/>
<path style="fill:#8E1700;" d="M277.984,263.991h-51.846c-1.804,4.017-4.356,8.586-7.373,13.044
	c-0.969,1.449-1.189,3.245-0.614,4.876c0.583,1.631,1.906,2.875,3.552,3.387c9.295,2.812,19.787,4.293,30.358,4.293
	c10.555,0,21.063-1.481,30.358-4.293c1.654-0.504,2.97-1.757,3.553-3.387c0.575-1.631,0.347-3.434-0.614-4.876
	C282.34,272.577,279.788,268,277.984,263.991z"/>
<ellipse style="fill:#E86105;" cx="252.062" cy="184.773" rx="100.061" ry="41.889"/>
<path style="fill:#B22504;" d="M352.122,184.773c0,23.142-44.804,41.889-100.061,41.889s-100.061-18.755-100.061-41.889"/>
<path style="fill:#E86105;" d="M215.725,175.328c0,15.368-12.446,27.829-27.813,27.829c-15.36,0-125.629-12.461-125.629-27.829
	c0-15.352,110.269-27.813,125.629-27.813C203.28,147.515,215.725,159.976,215.725,175.328z"/>
<path style="fill:#FF9827;" d="M187.904,147.515c15.368,0,27.813,12.461,27.813,27.813"/>
<g>
	<path style="fill:#B22504;" d="M215.725,175.328c0,15.368,17.904,48.065,2.536,48.065S62.275,190.704,62.275,175.328"/>
	<path style="fill:#B22504;" d="M90.01,181.866c0,8.862-7.176,16.03-16.022,16.03l0,0c-8.862,0-15.998-7.168-15.998-16.03V167.53
		c0-8.846,7.136-16.014,15.998-16.014l0,0c8.846,0,16.022,7.168,16.022,16.014V181.866z"/>
</g>
<path style="fill:#CC5200;" d="M90.01,166.065c0,8.846-7.176,16.014-16.022,16.014l0,0c-8.862,0-15.998-7.168-15.998-16.014v-14.336
	c0-8.846,7.136-16.03,15.998-16.03l0,0c8.846,0,16.022,7.184,16.022,16.03V166.065z"/>
<path style="fill:#B22504;" d="M58.478,151.729c1.694,7.018,7.987,12.233,15.51,12.233c7.538,0,13.816-5.215,15.518-12.233
	c-1.701-7.003-7.979-12.233-15.518-12.233C66.465,139.496,60.172,144.727,58.478,151.729z"/>
<ellipse style="fill:#00B1FF;" cx="73.98" cy="138.961" rx="73.98" ry="11.705"/>
<ellipse style="fill:#0092FF;" cx="73.988" cy="138.961" rx="41.102" ry="11.705"/>
<path style="fill:#00CFFF;" d="M147.495,138.976c0,1.142-0.906,2.048-2.056,2.048H2.521c-1.126,0-2.032-0.906-2.032-2.048l0,0
	c0-1.142,0.906-2.064,2.032-2.064h142.919C146.582,136.913,147.495,137.834,147.495,138.976L147.495,138.976z"/>
<path style="fill:#B22504;" d="M90.277,124.759c0,4.695,6.294,8.523,1.56,8.523H56.123c-4.71,0,1.575-3.828,1.575-8.523l0,0
	c0-4.742,3.836-8.554,8.539-8.554h15.486C86.433,116.204,90.277,120.017,90.277,124.759L90.277,124.759z"/>
<path style="fill:#E86105;" d="M288.398,175.328c0,15.368,12.446,27.829,27.829,27.829c15.344,0,125.605-12.461,125.605-27.829
	c0-15.352-110.261-27.813-125.605-27.813C300.843,147.515,288.398,159.976,288.398,175.328z"/>
<path style="fill:#FF9827;" d="M316.227,147.515c-15.384,0-27.829,12.461-27.829,27.813"/>
<g>
	<path style="fill:#B22504;" d="M288.398,175.328c0,15.368-17.904,48.065-2.536,48.065s155.979-32.689,155.979-48.065"/>
	<path style="fill:#B22504;" d="M414.106,181.866c0,8.862,7.184,16.03,16.03,16.03l0,0c8.854,0,15.998-7.168,15.998-16.03V167.53
		c0-8.846-7.144-16.014-15.998-16.014l0,0c-8.846,0-16.03,7.168-16.03,16.014V181.866z"/>
</g>
<path style="fill:#CC5200;" d="M414.106,166.065c0,8.846,7.184,16.014,16.03,16.014l0,0c8.854,0,15.998-7.168,15.998-16.014v-14.336
	c0-8.846-7.144-16.03-15.998-16.03l0,0c-8.846,0-16.03,7.184-16.03,16.03V166.065z"/>
<path style="fill:#B22504;" d="M445.645,151.729c-1.694,7.018-7.979,12.233-15.51,12.233c-7.538,0-13.8-5.215-15.525-12.233
	c1.725-7.003,7.987-12.233,15.525-12.233C437.665,139.496,443.951,144.727,445.645,151.729z"/>
<ellipse style="fill:#00B1FF;" cx="430.159" cy="138.961" rx="73.988" ry="11.705"/>
<ellipse style="fill:#0092FF;" cx="430.159" cy="138.961" rx="41.102" ry="11.705"/>
<path style="fill:#00CFFF;" d="M356.628,138.976c0,1.142,0.906,2.048,2.048,2.048h142.927c1.126,0,2.048-0.906,2.048-2.048l0,0
	c0-1.142-0.922-2.064-2.048-2.064H358.676C357.541,136.913,356.628,137.834,356.628,138.976L356.628,138.976z"/>
<g>
	<path style="fill:#B22504;" d="M413.846,124.759c0,4.695-6.294,8.523-1.568,8.523H448c4.71,0-1.575-3.828-1.575-8.523l0,0
		c0-4.742-3.82-8.554-8.546-8.554H422.4C417.69,116.204,413.846,120.017,413.846,124.759L413.846,124.759z"/>
	<path style="fill:#B22504;" d="M299.402,188.837h-15.265c-2.316,0-4.521,1.032-6.018,2.796c-2.135,2.521-11.902,6.262-26.065,6.262
		c-14.171,0-23.914-3.742-26.049-6.262c-1.504-1.772-3.71-2.796-6.026-2.796h-15.258c-4.356,0-7.877,3.521-7.877,7.877v16.14
		c0,2.001,0.772,3.938,2.135,5.404c3.009,3.182,7.168,4.506,11.201,5.782c7.704,2.434,8.539,3.434,8.539,6.294
		c0,6.412-6.081,19.952-14.816,32.91c-1.386,2.08-1.725,4.695-0.874,7.05c0.835,2.355,2.741,4.167,5.136,4.892
		c13.438,4.064,28.617,6.215,43.89,6.215c15.273,0,30.46-2.15,43.89-6.215c2.402-0.725,4.293-2.536,5.144-4.892
		c0.835-2.355,0.496-4.97-0.882-7.05c-8.72-12.958-14.809-26.49-14.809-32.91c0-2.859,0.835-3.86,8.523-6.294
		c4.033-1.276,8.192-2.599,11.209-5.782c1.371-1.465,2.135-3.403,2.135-5.404v-16.14
		C307.279,192.358,303.75,188.837,299.402,188.837z"/>
</g>
<g>
	<path style="fill:#FF9827;" d="M268.138,156.495c0,0.819-0.662,1.481-1.481,1.481h-29.2c-0.819,0-1.481-0.662-1.481-1.481l0,0
		c0-0.819,0.662-1.481,1.481-1.481h29.2C267.477,155.022,268.138,155.683,268.138,156.495L268.138,156.495z"/>
	<path style="fill:#FF9827;" d="M268.138,165.356c0,0.819-0.662,1.481-1.481,1.481h-29.2c-0.819,0-1.481-0.662-1.481-1.481l0,0
		c0-0.819,0.662-1.481,1.481-1.481h29.2C267.477,163.883,268.138,164.545,268.138,165.356L268.138,165.356z"/>
	<path style="fill:#FF9827;" d="M268.138,174.218c0,0.819-0.662,1.481-1.481,1.481h-29.2c-0.819,0-1.481-0.662-1.481-1.481l0,0
		c0-0.819,0.662-1.481,1.481-1.481h29.2C267.477,172.745,268.138,173.407,268.138,174.218L268.138,174.218z"/>
	<path style="fill:#FF9827;" d="M257.969,58.017c0,3.261-2.647,5.908-5.908,5.908l0,0c-3.261,0-5.908-2.647-5.908-5.908V22.571
		c0-3.261,2.647-5.908,5.908-5.908l0,0c3.261,0,5.908,2.647,5.908,5.908V58.017z"/>
	<path style="fill:#FF9827;" d="M180.539,80.159c2.308,2.308,2.308,6.065,0,8.365l0,0c-2.308,2.308-6.049,2.292-8.357-0.016
		l-25.064-25.064c-2.308-2.308-2.308-6.049,0-8.357l0,0c2.308-2.308,6.049-2.308,8.357,0L180.539,80.159z"/>
	<path style="fill:#FF9827;" d="M215.339,66.454c1.016,3.096-0.662,6.443-3.773,7.459l0,0c-3.096,1.016-6.428-0.677-7.459-3.781
		l-11.043-33.666c-1.016-3.111,0.662-6.443,3.773-7.459l0,0c3.111-1.016,6.428,0.662,7.459,3.773L215.339,66.454z"/>
	<path style="fill:#FF9827;" d="M323.584,80.159c-2.308,2.308-2.308,6.065,0,8.365l0,0c2.308,2.308,6.049,2.292,8.357-0.016
		l25.064-25.064c2.308-2.308,2.308-6.049,0-8.357l0,0c-2.308-2.308-6.049-2.308-8.357,0L323.584,80.159z"/>
	<path style="fill:#FF9827;" d="M288.784,66.454c-1.016,3.096,0.662,6.443,3.773,7.459l0,0c3.096,1.016,6.428-0.677,7.459-3.781
		l11.043-33.658c1.016-3.111-0.662-6.443-3.773-7.459l0,0c-3.111-1.016-6.428,0.662-7.459,3.773L288.784,66.454z"/>
	<path style="fill:#FF9827;" d="M253.542,359.648c0.008,0.016,0.016,0.032,0.016,0.032l0.032-0.008
		c4.569,3.08,10.807,2.615,14.856-1.426c4.033-4.041,9.586-15.368,7.719-21.157l0.031-0.032c0,0-0.031-0.008-0.047-0.016
		c-0.008-0.016-0.008-0.031-0.008-0.031l-0.039,0.024c-5.782-1.867-17.117,3.686-21.157,7.719c-0.63,0.622-1.126,1.3-1.583,2.009
		v-13.966c4.758-1.497,8.231-5.892,8.231-11.154c0-5.719-4.088-17.644-9.492-20.409v-0.055l-0.039,0.039
		c-0.016-0.008-0.032-0.024-0.032-0.024l-0.016,0.047c-5.411,2.765-9.492,14.69-9.492,20.409c0,5.262,3.466,9.657,8.224,11.154
		v13.982c-0.457-0.725-0.953-1.402-1.575-2.024c-4.049-4.041-15.368-9.594-21.157-7.719l-0.039-0.039c0,0,0,0.031-0.008,0.047
		l-0.055,0.016l0.039,0.039c-1.875,5.774,3.686,17.109,7.719,21.15c4.049,4.041,10.287,4.498,14.856,1.426l0.016,0.024
		c0,0,0.016-0.032,0.024-0.047l0.039-0.024l-0.016-0.016c0.055-0.087,0.102-0.189,0.158-0.276v14.021
		c-0.457-0.717-0.953-1.402-1.575-2.024c-4.049-4.041-15.368-9.594-21.157-7.719l-0.039-0.039l-0.008,0.055l-0.055,0.008
		l0.039,0.047c-1.875,5.774,3.686,17.101,7.719,21.142c4.049,4.049,10.287,4.506,14.856,1.434l0.016,0.016l0.024-0.039l0.039-0.024
		l-0.016-0.016c0.055-0.095,0.095-0.197,0.158-0.291v14.029c-0.457-0.709-0.953-1.402-1.575-2.017
		c-4.049-4.049-15.368-9.602-21.15-7.719l-0.047-0.047l-0.008,0.055l-0.055,0.016l0.039,0.039
		c-1.875,5.774,3.686,17.109,7.719,21.142c4.049,4.049,10.287,4.506,14.856,1.434l0.016,0.016l0.024-0.039l0.039-0.024l-0.016-0.016
		c0.055-0.095,0.095-0.189,0.158-0.284v16.36c-0.378-0.599-0.803-1.182-1.323-1.709c-3.324-3.324-12.635-7.893-17.392-6.357
		l-0.032-0.024c0,0,0,0.024-0.008,0.032l-0.039,0.016l0.032,0.031c-1.536,4.75,3.017,14.068,6.349,17.392s8.444,3.702,12.209,1.166
		l0.016,0.016l0.016-0.032c0.008-0.008,0.024-0.016,0.024-0.016l-0.008-0.024c0.063-0.095,0.11-0.189,0.165-0.284v2.922
		c-2.221,0.583-3.852,2.584-3.852,4.978c0,2.851,2.308,5.167,5.167,5.167c2.844,0,5.159-2.316,5.159-5.167
		c0-2.395-1.638-4.395-3.852-4.978v-2.914c0.063,0.087,0.102,0.189,0.158,0.276l-0.016,0.016c0,0,0.032,0.016,0.047,0.024
		l0.016,0.032l0.016-0.016c3.757,2.528,8.877,2.15,12.209-1.166c3.332-3.316,7.885-12.642,6.349-17.392l0.032-0.031
		c0,0-0.024-0.008-0.039-0.016c-0.008-0.008-0.008-0.024-0.008-0.024l-0.031,0.016c-4.75-1.536-14.068,3.033-17.384,6.357
		c-0.52,0.52-0.953,1.111-1.339,1.709v-16.353c0.063,0.095,0.102,0.181,0.158,0.276l-0.016,0.016l0.039,0.024
		c0.016,0.016,0.016,0.032,0.016,0.032l0.032-0.008c4.561,3.08,10.807,2.615,14.856-1.434c4.033-4.041,9.586-15.36,7.719-21.15
		l0.032-0.032c0,0-0.032-0.008-0.047-0.016l-0.008-0.055l-0.055,0.047c-5.766-1.875-17.101,3.678-21.142,7.719
		c-0.63,0.614-1.126,1.292-1.583,2.009v-14.005c0.063,0.095,0.102,0.181,0.158,0.276l-0.016,0.016l0.039,0.024
		c0.016,0.008,0.016,0.024,0.016,0.024h0.032c4.561,3.08,10.807,2.615,14.856-1.434c4.033-4.041,9.586-15.368,7.719-21.15
		l0.032-0.039c0,0-0.032,0-0.047-0.008l-0.008-0.055l-0.039,0.039c-5.782-1.867-17.117,3.679-21.157,7.719
		c-0.63,0.622-1.126,1.3-1.583,2.009v-13.997c0.063,0.095,0.102,0.181,0.158,0.268l-0.016,0.016L253.542,359.648z"/>
	<path style="fill:#FF9827;" d="M206.415,394.165l0.016,0.024l0.016-0.008c2.859,1.93,6.766,1.638,9.311-0.898
		c2.528-2.529,6.002-9.626,4.829-13.249l0.031-0.031h-0.031v-0.032l-0.032,0.024c-3.631-1.166-10.72,2.3-13.265,4.836
		c-0.386,0.386-0.701,0.819-0.985,1.26v-8.751c2.985-0.945,5.152-3.702,5.152-7.003c0-3.568-2.568-11.043-5.955-12.784v-0.032
		l-0.016,0.008l-0.032-0.008v0.032c-3.403,1.741-5.955,9.216-5.955,12.784c0,3.3,2.166,6.057,5.152,7.003v8.751
		c-0.276-0.449-0.599-0.874-0.992-1.26c-2.528-2.536-9.626-6.01-13.257-4.836l-0.031-0.024v0.031h-0.032l0.032,0.032
		c-1.166,3.623,2.3,10.713,4.829,13.249c2.536,2.536,6.443,2.828,9.311,0.89l0.016,0.016c0,0,0-0.016,0.016-0.032l0.016-0.008
		v-0.008c0,0,0.055-0.118,0.095-0.165v8.783c-0.276-0.457-0.599-0.874-0.992-1.268c-2.528-2.529-9.626-6.01-13.257-4.836
		l-0.031-0.032v0.039h-0.032l0.032,0.032c-1.166,3.623,2.3,10.713,4.829,13.249c2.536,2.529,6.443,2.82,9.311,0.898l0.016,0.008
		c0,0,0-0.016,0.016-0.024l0.016-0.016v-0.016c0.032-0.047,0.055-0.11,0.095-0.165v8.783c-0.276-0.449-0.599-0.874-0.992-1.26
		c-2.528-2.529-9.626-6.01-13.257-4.836l-0.031-0.024v0.032h-0.032l0.032,0.032c-1.166,3.623,2.3,10.72,4.829,13.249
		c2.536,2.536,6.443,2.828,9.311,0.898l0.016,0.008v-0.016l0.032-0.016v-0.016c0.032-0.063,0.055-0.118,0.095-0.165v10.248
		c-0.228-0.386-0.504-0.74-0.827-1.071c-2.08-2.087-7.916-4.947-10.894-3.986l-0.032-0.024v0.032h-0.031l0.031,0.031
		c-0.969,2.97,1.89,8.806,3.97,10.894c2.087,2.087,5.293,2.324,7.656,0.74l0.008,0.008v-0.016l0.032-0.024v-0.008
		c0.032-0.055,0.055-0.126,0.095-0.173v1.827c-1.386,0.37-2.418,1.623-2.418,3.119c0,1.788,1.449,3.237,3.23,3.237
		c1.804,0,3.245-1.457,3.245-3.237c0-1.497-1.024-2.757-2.418-3.119v-1.827c0.032,0.063,0.063,0.126,0.095,0.173l-0.016,0.008
		l0.031,0.016l0.016,0.024l0.008-0.008c2.363,1.583,5.569,1.347,7.656-0.74c2.087-2.087,4.939-7.924,3.97-10.902l0.016-0.024h-0.016
		v-0.032l-0.024,0.024c-2.977-0.961-8.822,1.898-10.894,3.986c-0.331,0.331-0.599,0.693-0.835,1.071v-10.248
		c0.032,0.047,0.063,0.11,0.095,0.165l-0.016,0.016l0.039,0.016l0.008,0.016l0.016-0.008c2.859,1.93,6.766,1.638,9.311-0.898
		c2.528-2.521,6.002-9.626,4.829-13.249l0.031-0.032h-0.031v-0.032l-0.031,0.016c-3.631-1.166-10.72,2.308-13.265,4.836
		c-0.386,0.386-0.701,0.819-0.985,1.26v-8.783c0,0,0.063,0.126,0.095,0.165l-0.016,0.016l0.039,0.016l0.008,0.016h0.016
		c2.859,1.922,6.766,1.631,9.311-0.898c2.528-2.528,6.002-9.626,4.829-13.249l0.031-0.032h-0.031v-0.039l-0.031,0.032
		c-3.631-1.166-10.72,2.308-13.265,4.836c-0.386,0.394-0.701,0.819-0.985,1.26v-8.775c0.032,0.055,0.063,0.118,0.063,0.118
		l0.016,0.063L206.415,394.165z"/>
	<path style="fill:#FF9827;" d="M299.567,410.817l0.016,0.016h0.016c2.859,1.922,6.774,1.631,9.311-0.898
		c2.521-2.528,6.01-9.626,4.829-13.249l0.032-0.032h-0.031l-0.008-0.039l-0.024,0.032c-3.631-1.166-10.72,2.308-13.265,4.836
		c-0.386,0.394-0.709,0.819-0.985,1.26v-8.775c0.032,0.055,0.055,0.118,0.095,0.165l-0.008,0.008l0.024,0.016l0.016,0.024
		l0.016-0.008c2.859,1.93,6.774,1.638,9.311-0.898c2.521-2.528,6.01-9.626,4.829-13.249l0.032-0.031h-0.032l-0.008-0.032
		l-0.024,0.024c-3.631-1.166-10.72,2.3-13.265,4.836c-0.386,0.386-0.709,0.819-0.985,1.26v-8.751
		c2.985-0.945,5.151-3.702,5.151-7.003c0-3.568-2.552-11.043-5.955-12.784v-0.032l-0.016,0.008l-0.031-0.008v0.032
		c-3.395,1.741-5.955,9.216-5.955,12.784c0,3.3,2.166,6.057,5.151,7.003v8.751c-0.284-0.449-0.599-0.874-0.992-1.26
		c-2.528-2.536-9.626-6.01-13.249-4.836l-0.032-0.024l-0.008,0.032h-0.032l0.032,0.031c-1.166,3.623,2.292,10.713,4.829,13.249
		c2.536,2.536,6.443,2.828,9.311,0.89l0.016,0.016l0.016-0.032l0.016-0.008l-0.008-0.008c0.039-0.055,0.055-0.118,0.102-0.165v8.783
		c-0.284-0.457-0.599-0.874-0.992-1.268c-2.528-2.529-9.626-6.01-13.249-4.836l-0.032-0.032l-0.008,0.039h-0.032l0.032,0.032
		c-1.166,3.623,2.292,10.713,4.829,13.249c2.536,2.536,6.443,2.82,9.311,0.898l0.016,0.008l0.016-0.024l0.016-0.016l-0.008-0.016
		c0.039-0.047,0.055-0.11,0.055-0.11l0.047,8.72c-0.284-0.449-0.599-0.874-0.992-1.26c-2.528-2.529-9.626-6.01-13.249-4.836
		l-0.032-0.024l-0.008,0.032h-0.032l0.032,0.032c-1.166,3.623,2.292,10.72,4.829,13.249c2.536,2.536,6.443,2.828,9.311,0.898
		l0.016,0.008l0.008-0.016l0.024-0.016l-0.008-0.016c0.039-0.063,0.055-0.118,0.102-0.165v10.248
		c-0.236-0.386-0.504-0.74-0.827-1.071c-2.079-2.087-7.924-4.947-10.894-3.986l-0.032-0.024v0.032h-0.032l0.024,0.032
		c-0.961,2.97,1.89,8.806,3.978,10.894c2.087,2.087,5.293,2.324,7.656,0.74l0.008,0.008v-0.016l0.031-0.024l-0.008-0.008
		c0.039-0.055,0.055-0.126,0.102-0.173v1.827c-1.386,0.37-2.418,1.623-2.418,3.119c0,1.788,1.449,3.237,3.237,3.237
		c1.788,0,3.237-1.457,3.237-3.237c0-1.497-1.032-2.757-2.418-3.119v-1.827c0.032,0.063,0.063,0.126,0.095,0.173l-0.008,0.008
		c0.008,0.008,0.016,0.016,0.016,0.016l0.024,0.024v-0.008c2.363,1.583,5.577,1.347,7.664-0.74c2.08-2.087,4.939-7.924,3.97-10.902
		l0.024-0.024h-0.016v-0.032l-0.024,0.024c-2.977-0.961-8.822,1.898-10.902,3.986c-0.331,0.331-0.591,0.693-0.827,1.071V427.28
		c0.032,0.047,0.063,0.11,0.095,0.165l-0.008,0.016l0.024,0.016l0.016,0.016l0.016-0.008c2.859,1.93,6.774,1.638,9.311-0.898
		c2.521-2.521,6.01-9.626,4.829-13.249l0.032-0.032h-0.039l-0.008-0.032l-0.024,0.024c-3.631-1.166-10.72,2.308-13.265,4.836
		c-0.386,0.386-0.709,0.819-0.985,1.26v-8.783c0.032,0.063,0.063,0.126,0.095,0.165l-0.008,0.016L299.567,410.817z"/>
</g>
<g>
</g>
<g>
</g>
<g>
</g>
<g>
</g>
<g>
</g>
<g>
</g>
<g>
</g>
<g>
</g>
<g>
</g>
<g>
</g>
<g>
</g>
<g>
</g>
<g>
</g>
<g>
</g>
<g>
</g>
</svg>
