<?xml version="1.0" encoding="iso-8859-1"?>
<!-- Generator: Adobe Illustrator 19.0.0, SVG Export Plug-In . SVG Version: 6.00 Build 0)  -->
<svg version="1.1" id="Layer_1" xmlns="http://www.w3.org/2000/svg" xmlns:xlink="http://www.w3.org/1999/xlink" x="0px" y="0px"
	 viewBox="0 0 504.139 504.139" style="enable-background:new 0 0 504.139 504.139;" xml:space="preserve">
<polygon style="fill:#8E1700;" points="193.229,487.479 134.388,385.568 193.229,283.664 310.894,283.664 369.727,385.568 
	310.894,487.479 "/>
<polygon style="fill:#6B1105;" points="193.229,487.479 134.388,385.568 193.229,394.752 310.894,394.752 369.727,385.568 
	310.894,487.479 "/>
<path style="fill:#8E1700;" d="M277.984,263.987h-51.846c-1.804,4.017-4.356,8.586-7.373,13.044
	c-0.969,1.449-1.189,3.245-0.614,4.876c0.583,1.631,1.906,2.875,3.552,3.387c9.295,2.812,19.787,4.293,30.358,4.293
	c10.555,0,21.063-1.481,30.358-4.293c1.646-0.504,2.97-1.757,3.553-3.387c0.567-1.631,0.347-3.434-0.614-4.876
	C282.34,272.573,279.788,267.997,277.984,263.987z"/>
<ellipse style="fill:#E86105;" cx="252.062" cy="184.769" rx="100.061" ry="41.889"/>
<path style="fill:#B22504;" d="M352.122,184.769c0,23.142-44.804,41.889-100.061,41.889s-100.061-18.755-100.061-41.889"/>
<path style="fill:#E86105;" d="M215.725,175.325c0,15.368-12.446,27.829-27.813,27.829c-15.36,0-125.629-12.461-125.629-27.829
	c0-15.352,110.269-27.813,125.629-27.813C203.28,147.511,215.725,159.972,215.725,175.325z"/>
<path style="fill:#FF9827;" d="M187.904,147.511c15.368,0,27.813,12.461,27.813,27.813"/>
<g>
	<path style="fill:#B22504;" d="M215.725,175.325c0,15.368,17.904,48.065,2.536,48.065S62.275,190.7,62.275,175.325"/>
	<path style="fill:#B22504;" d="M90.002,181.862c0,8.862-7.168,16.03-16.014,16.03l0,0c-8.854,0-15.998-7.168-15.998-16.03v-14.336
		c0-8.846,7.144-16.014,15.998-16.014l0,0c8.846,0,16.014,7.168,16.014,16.014V181.862z"/>
</g>
<path style="fill:#CC5200;" d="M90.002,166.061c0,8.846-7.168,16.014-16.014,16.014l0,0c-8.854,0-15.998-7.168-15.998-16.014
	v-14.336c0-8.846,7.144-16.03,15.998-16.03l0,0c8.846,0,16.014,7.184,16.014,16.03V166.061z"/>
<path style="fill:#B22504;" d="M58.478,151.725c1.694,7.018,7.987,12.233,15.51,12.233c7.538,0,13.816-5.215,15.51-12.233
	c-1.694-7.003-7.971-12.233-15.51-12.233C66.465,139.492,60.172,144.723,58.478,151.725z"/>
<ellipse style="fill:#00B1FF;" cx="73.98" cy="138.957" rx="73.98" ry="11.705"/>
<ellipse style="fill:#0092FF;" cx="73.988" cy="138.957" rx="41.11" ry="11.705"/>
<path style="fill:#00CFFF;" d="M147.495,138.973c0,1.142-0.906,2.048-2.056,2.048H2.521c-1.126,0-2.032-0.906-2.032-2.048l0,0
	c0-1.142,0.906-2.064,2.032-2.064h142.919C146.582,136.909,147.495,137.83,147.495,138.973L147.495,138.973z"/>
<path style="fill:#B22504;" d="M90.277,124.755c0,4.695,6.294,8.523,1.56,8.523H56.123c-4.71,0,1.568-3.828,1.568-8.523l0,0
	c0-4.742,3.844-8.554,8.539-8.554h15.494C86.433,116.2,90.277,120.013,90.277,124.755L90.277,124.755z"/>
<path style="fill:#E86105;" d="M288.398,175.325c0,15.368,12.446,27.829,27.829,27.829c15.336,0,125.605-12.461,125.605-27.829
	c0-15.352-110.269-27.813-125.605-27.813C300.843,147.511,288.398,159.972,288.398,175.325z"/>
<path style="fill:#FF9827;" d="M316.227,147.511c-15.384,0-27.829,12.461-27.829,27.813"/>
<g>
	<path style="fill:#B22504;" d="M288.398,175.325c0,15.368-17.904,48.065-2.536,48.065S441.84,190.7,441.84,175.325"/>
	<path style="fill:#B22504;" d="M414.106,181.862c0,8.862,7.184,16.03,16.03,16.03l0,0c8.854,0,15.998-7.168,15.998-16.03v-14.336
		c0-8.846-7.144-16.014-15.998-16.014l0,0c-8.846,0-16.03,7.168-16.03,16.014V181.862z"/>
</g>
<path style="fill:#CC5200;" d="M414.106,166.061c0,8.846,7.184,16.014,16.03,16.014l0,0c8.854,0,15.998-7.168,15.998-16.014v-14.336
	c0-8.846-7.144-16.03-15.998-16.03l0,0c-8.846,0-16.03,7.184-16.03,16.03V166.061z"/>
<path style="fill:#B22504;" d="M445.645,151.725c-1.694,7.018-7.987,12.233-15.51,12.233c-7.538,0-13.8-5.215-15.525-12.233
	c1.725-7.003,7.987-12.233,15.525-12.233C437.658,139.492,443.951,144.723,445.645,151.725z"/>
<ellipse style="fill:#00B1FF;" cx="430.159" cy="138.957" rx="73.98" ry="11.705"/>
<ellipse style="fill:#0092FF;" cx="430.159" cy="138.957" rx="41.102" ry="11.705"/>
<path style="fill:#00CFFF;" d="M356.628,138.973c0,1.142,0.906,2.048,2.048,2.048h142.927c1.126,0,2.048-0.906,2.048-2.048l0,0
	c0-1.142-0.922-2.064-2.048-2.064H358.676C357.541,136.909,356.628,137.83,356.628,138.973L356.628,138.973z"/>
<g>
	<path style="fill:#B22504;" d="M413.846,124.755c0,4.695-6.294,8.523-1.568,8.523H448c4.71,0-1.583-3.828-1.583-8.523l0,0
		c0-4.742-3.812-8.554-8.539-8.554H422.4C417.69,116.2,413.846,120.013,413.846,124.755L413.846,124.755z"/>
	<path style="fill:#B22504;" d="M299.402,188.833h-15.265c-2.324,0-4.521,1.032-6.018,2.796c-2.135,2.521-11.902,6.262-26.065,6.262
		s-23.914-3.742-26.049-6.262c-1.497-1.772-3.71-2.796-6.034-2.796h-15.25c-4.356,0-7.877,3.521-7.877,7.877v16.14
		c0,2.001,0.772,3.938,2.135,5.404c3.001,3.182,7.168,4.506,11.209,5.782c7.688,2.434,8.531,3.434,8.531,6.294
		c0,6.412-6.089,19.952-14.809,32.91c-1.394,2.08-1.733,4.695-0.882,7.05c0.835,2.355,2.741,4.167,5.136,4.892
		c13.438,4.064,28.617,6.215,43.89,6.215s30.46-2.15,43.89-6.215c2.402-0.725,4.301-2.536,5.144-4.892
		c0.835-2.355,0.496-4.97-0.882-7.05c-8.72-12.958-14.801-26.49-14.801-32.91c0-2.859,0.827-3.86,8.515-6.294
		c4.033-1.276,8.192-2.599,11.209-5.782c1.371-1.465,2.135-3.403,2.135-5.404v-16.14
		C307.279,192.354,303.75,188.833,299.402,188.833z"/>
</g>
<g>
	<path style="fill:#FF9827;" d="M268.138,156.491c0,0.819-0.662,1.481-1.481,1.481h-29.2c-0.819,0-1.481-0.662-1.481-1.481l0,0
		c0-0.819,0.662-1.481,1.481-1.481h29.2C267.477,155.018,268.138,155.68,268.138,156.491L268.138,156.491z"/>
	<path style="fill:#FF9827;" d="M268.138,165.352c0,0.819-0.662,1.481-1.481,1.481h-29.2c-0.819,0-1.481-0.662-1.481-1.481l0,0
		c0-0.819,0.662-1.481,1.481-1.481h29.2C267.477,163.879,268.138,164.541,268.138,165.352L268.138,165.352z"/>
	<path style="fill:#FF9827;" d="M268.138,174.214c0,0.819-0.662,1.481-1.481,1.481h-29.2c-0.819,0-1.481-0.662-1.481-1.481l0,0
		c0-0.819,0.662-1.481,1.481-1.481h29.2C267.477,172.741,268.138,173.403,268.138,174.214L268.138,174.214z"/>
	<path style="fill:#FF9827;" d="M257.969,58.014c0,3.261-2.647,5.908-5.908,5.908l0,0c-3.261,0-5.908-2.647-5.908-5.908V22.567
		c0-3.261,2.647-5.908,5.908-5.908l0,0c3.261,0,5.908,2.647,5.908,5.908V58.014z"/>
	<path style="fill:#FF9827;" d="M180.539,80.156c2.308,2.308,2.308,6.065,0,8.365l0,0c-2.308,2.308-6.049,2.292-8.357-0.016
		l-25.064-25.064c-2.308-2.308-2.308-6.049,0-8.357l0,0c2.308-2.308,6.049-2.308,8.357,0L180.539,80.156z"/>
	<path style="fill:#FF9827;" d="M215.339,66.45c1.016,3.096-0.662,6.443-3.773,7.459l0,0c-3.096,1.016-6.428-0.677-7.459-3.781
		l-11.043-33.666c-1.016-3.111,0.662-6.443,3.773-7.459l0,0c3.111-1.016,6.428,0.662,7.459,3.773L215.339,66.45z"/>
	<path style="fill:#FF9827;" d="M323.584,80.156c-2.308,2.308-2.308,6.065,0,8.365l0,0c2.308,2.308,6.049,2.292,8.357-0.016
		l25.064-25.064c2.308-2.308,2.308-6.049,0-8.357l0,0c-2.308-2.308-6.049-2.308-8.357,0L323.584,80.156z"/>
	<path style="fill:#FF9827;" d="M288.784,66.45c-1.016,3.096,0.662,6.443,3.773,7.459l0,0c3.096,1.016,6.428-0.677,7.459-3.781
		L311.06,36.47c1.016-3.111-0.662-6.443-3.773-7.459l0,0c-3.111-1.016-6.428,0.662-7.459,3.773L288.784,66.45z"/>
	<polygon style="fill:#FF9827;" points="259.812,420.061 244.311,420.061 233.354,319.677 270.769,319.677 	"/>
	<rect x="242.452" y="433.711" style="fill:#FF9827;" width="19.172" height="20.07"/>
</g>
<g>
</g>
<g>
</g>
<g>
</g>
<g>
</g>
<g>
</g>
<g>
</g>
<g>
</g>
<g>
</g>
<g>
</g>
<g>
</g>
<g>
</g>
<g>
</g>
<g>
</g>
<g>
</g>
<g>
</g>
</svg>
