<?xml version="1.0" encoding="iso-8859-1"?>
<!-- Generator: Adobe Illustrator 19.0.0, SVG Export Plug-In . SVG Version: 6.00 Build 0)  -->
<svg version="1.1" id="Layer_1" xmlns="http://www.w3.org/2000/svg" xmlns:xlink="http://www.w3.org/1999/xlink" x="0px" y="0px"
	 viewBox="0 0 504.147 504.147" style="enable-background:new 0 0 504.147 504.147;" xml:space="preserve">
<path style="fill:#0092FF;" d="M277.984,192.697h-51.846c-1.804,4.017-4.356,8.586-7.373,13.044
	c-0.969,1.449-1.189,3.245-0.614,4.876c0.583,1.631,1.89,2.875,3.552,3.387c9.295,2.812,19.787,4.293,30.358,4.293
	c10.563,0,21.063-1.481,30.358-4.293c1.654-0.504,2.97-1.757,3.553-3.387c0.575-1.631,0.347-3.434-0.614-4.876
	C282.34,201.283,279.788,196.714,277.984,192.697z"/>
<ellipse style="fill:#093568;" cx="252.062" cy="113.487" rx="100.061" ry="41.889"/>
<path style="fill:#041D35;" d="M352.122,113.487c0,23.142-44.804,41.889-100.061,41.889s-100.061-18.755-100.061-41.889"/>
<path style="fill:#093568;" d="M215.725,104.042c0,15.368-12.438,27.829-27.829,27.829c-15.344,0-125.605-12.461-125.605-27.829
	c0-15.352,110.261-27.813,125.605-27.813C203.288,76.221,215.725,88.682,215.725,104.042z"/>
<path style="fill:#074584;" d="M187.896,76.221c15.392,0,27.829,12.461,27.829,27.813"/>
<g>
	<path style="fill:#041D35;" d="M215.725,104.042c0,15.368,17.904,48.065,2.536,48.065S62.283,119.418,62.283,104.042"/>
	<path style="fill:#041D35;" d="M90.01,110.58c0,8.862-7.176,16.03-16.022,16.03l0,0c-8.862,0-15.998-7.168-15.998-16.03V96.244
		c0-8.846,7.136-16.014,15.998-16.014l0,0c8.846,0,16.022,7.168,16.022,16.014V110.58z"/>
</g>
<path style="fill:#093568;" d="M90.01,94.779c0,8.846-7.176,16.014-16.022,16.014l0,0c-8.862,0-15.998-7.168-15.998-16.014V80.443
	c0-8.846,7.136-16.03,15.998-16.03l0,0c8.846,0,16.022,7.184,16.022,16.03V94.779z"/>
<path style="fill:#041D35;" d="M58.478,80.435c1.694,7.018,7.971,12.233,15.51,12.233c7.538,0,13.808-5.215,15.518-12.233
	c-1.709-7.003-7.979-12.233-15.518-12.233C66.45,68.202,60.172,73.44,58.478,80.435z"/>
<ellipse style="fill:#00B1FF;" cx="73.98" cy="67.675" rx="73.98" ry="11.705"/>
<ellipse style="fill:#0092FF;" cx="73.988" cy="67.675" rx="41.102" ry="11.705"/>
<path style="fill:#00CFFF;" d="M147.495,67.682c0,1.142-0.906,2.048-2.056,2.048H2.521c-1.126,0-2.04-0.906-2.04-2.048l0,0
	c0-1.142,0.914-2.064,2.04-2.064h142.919C146.582,65.627,147.495,66.548,147.495,67.682L147.495,67.682z"/>
<path style="fill:#041D35;" d="M90.277,53.472c0,4.695,6.294,8.523,1.56,8.523H56.123c-4.71,0,1.575-3.828,1.575-8.523l0,0
	c0-4.742,3.828-8.554,8.539-8.554h15.486C86.441,44.918,90.277,48.731,90.277,53.472L90.277,53.472z"/>
<path style="fill:#093568;" d="M288.398,104.042c0,15.368,12.446,27.829,27.821,27.829c15.352,0,125.613-12.461,125.613-27.829
	c0-15.352-110.261-27.813-125.613-27.813C300.843,76.221,288.398,88.682,288.398,104.042z"/>
<path style="fill:#074584;" d="M316.227,76.221c-15.376,0-27.821,12.461-27.821,27.813"/>
<g>
	<path style="fill:#041D35;" d="M288.398,104.042c0,15.368-17.904,48.065-2.536,48.065s155.979-32.689,155.979-48.065"/>
	<path style="fill:#041D35;" d="M414.113,110.58c0,8.862,7.176,16.03,16.022,16.03l0,0c8.854,0,16.006-7.168,16.006-16.03V96.244
		c0-8.846-7.152-16.014-16.006-16.014l0,0c-8.846,0-16.022,7.168-16.022,16.014V110.58z"/>
</g>
<path style="fill:#093568;" d="M414.113,94.779c0,8.846,7.176,16.014,16.022,16.014l0,0c8.854,0,16.006-7.168,16.006-16.014V80.443
	c0-8.846-7.152-16.03-16.006-16.03l0,0c-8.846,0-16.022,7.184-16.022,16.03V94.779z"/>
<path style="fill:#041D35;" d="M445.645,80.435c-1.694,7.018-7.979,12.233-15.51,12.233c-7.538,0-13.816-5.215-15.525-12.233
	c1.709-7.003,7.987-12.233,15.525-12.233C437.665,68.21,443.951,73.44,445.645,80.435z"/>
<ellipse style="fill:#00B1FF;" cx="430.159" cy="67.675" rx="73.988" ry="11.705"/>
<ellipse style="fill:#0092FF;" cx="430.159" cy="67.675" rx="41.102" ry="11.705"/>
<path style="fill:#00CFFF;" d="M356.628,67.682c0,1.142,0.906,2.048,2.056,2.048h142.919c1.126,0,2.032-0.906,2.032-2.048l0,0
	c0-1.142-0.906-2.064-2.032-2.064H358.684C357.541,65.627,356.628,66.548,356.628,67.682L356.628,67.682z"/>
<path style="fill:#041D35;" d="M413.846,53.472c0,4.695-6.294,8.523-1.56,8.523H448c4.71,0-1.575-3.828-1.575-8.523l0,0
	c0-4.742-3.836-8.554-8.539-8.554H422.4C417.69,44.918,413.846,48.731,413.846,53.472L413.846,53.472z"/>
<path style="fill:#081E34;" d="M299.402,117.543h-15.265c-2.316,0-4.521,1.032-6.018,2.796c-2.135,2.521-11.902,6.262-26.065,6.262
	c-14.171,0-23.914-3.742-26.049-6.262c-1.504-1.772-3.702-2.796-6.026-2.796h-15.258c-4.356,0-7.877,3.521-7.877,7.877v16.14
	c0,2.001,0.772,3.938,2.135,5.404c3.009,3.182,7.176,4.506,11.201,5.782c7.704,2.434,8.539,3.434,8.539,6.294
	c0,6.412-6.081,19.952-14.816,32.91c-1.386,2.08-1.717,4.695-0.874,7.05c0.843,2.355,2.749,4.167,5.136,4.892
	c13.438,4.064,28.617,6.215,43.89,6.215c15.273,0,30.46-2.15,43.898-6.215c2.395-0.725,4.285-2.536,5.136-4.892
	c0.835-2.355,0.504-4.97-0.882-7.05c-8.72-12.958-14.801-26.49-14.801-32.91c0-2.859,0.827-3.86,8.515-6.294
	c4.033-1.276,8.2-2.599,11.209-5.782c1.371-1.465,2.135-3.403,2.135-5.404v-16.14C307.279,121.072,303.75,117.543,299.402,117.543z"
	/>
<g>
	<path style="fill:#0092FF;" d="M268.138,85.209c0,0.819-0.662,1.481-1.481,1.481h-29.2c-0.819,0-1.481-0.662-1.481-1.481l0,0
		c0-0.819,0.662-1.481,1.481-1.481h29.2C267.477,83.728,268.138,84.389,268.138,85.209L268.138,85.209z"/>
	<path style="fill:#0092FF;" d="M268.138,94.07c0,0.819-0.662,1.481-1.481,1.481h-29.2c-0.819,0-1.481-0.662-1.481-1.481l0,0
		c0-0.819,0.662-1.481,1.481-1.481h29.2C267.477,92.589,268.138,93.251,268.138,94.07L268.138,94.07z"/>
	<path style="fill:#0092FF;" d="M268.138,102.932c0,0.819-0.662,1.481-1.481,1.481h-29.2c-0.819,0-1.481-0.662-1.481-1.481l0,0
		c0-0.819,0.662-1.481,1.481-1.481h29.2C267.477,101.451,268.138,102.112,268.138,102.932L268.138,102.932z"/>
</g>
<polygon style="fill:#FF7C24;" points="252.062,459.229 156.751,363.918 198.585,322.068 252.062,375.52 305.522,322.068 
	347.372,363.918 "/>
<polygon style="fill:#E86105;" points="252.062,397.182 198.585,343.729 167.582,374.749 252.062,459.229 336.542,374.749 
	305.522,343.729 "/>
<g>
	<polygon style="fill:#FF9827;" points="252.062,335.167 216.277,299.382 231.983,283.668 252.062,303.738 272.14,283.668 
		287.846,299.382 	"/>
	<polygon style="fill:#FF9827;" points="252.062,284.952 216.277,249.167 231.983,233.452 252.062,253.523 272.14,233.452 
		287.846,249.167 	"/>
	<polygon style="fill:#FF9827;" points="252.062,335.167 216.277,299.382 231.983,283.668 252.062,303.738 272.14,283.668 
		287.846,299.382 	"/>
</g>
<g>
	<polygon style="fill:#FFB229;" points="252.062,303.738 231.983,283.668 223.492,292.159 252.062,320.729 280.631,292.159 
		272.14,283.668 	"/>
	<polygon style="fill:#FFB229;" points="252.062,253.523 231.983,233.452 223.492,241.944 252.062,270.513 280.631,241.944 
		272.14,233.452 	"/>
</g>
<g>
</g>
<g>
</g>
<g>
</g>
<g>
</g>
<g>
</g>
<g>
</g>
<g>
</g>
<g>
</g>
<g>
</g>
<g>
</g>
<g>
</g>
<g>
</g>
<g>
</g>
<g>
</g>
<g>
</g>
</svg>
