<?xml version="1.0" encoding="iso-8859-1"?>
<!-- Generator: Adobe Illustrator 19.0.0, SVG Export Plug-In . SVG Version: 6.00 Build 0)  -->
<svg version="1.1" id="Layer_1" xmlns="http://www.w3.org/2000/svg" xmlns:xlink="http://www.w3.org/1999/xlink" x="0px" y="0px"
	 viewBox="0 0 504.123 504.123" style="enable-background:new 0 0 504.123 504.123;" xml:space="preserve">
<path style="fill:#00CFFF;" d="M210.597,105.102c-22.686-22.678-22.662-59.581,0-82.267c22.693-22.686,59.589-22.686,82.274,0
	c22.678,22.678,22.678,59.581,0,82.259C270.194,127.779,233.275,127.787,210.597,105.102z"/>
<path style="fill:#00B7FF;" d="M292.88,22.827c22.678,22.678,22.678,59.581,0,82.259c-22.686,22.686-59.597,22.693-82.274,0.008"/>
<path style="fill:#1791BC;" d="M288.76,26.939c20.456,20.456,20.456,53.602,0.008,74.051c-20.456,20.448-53.602,20.448-74.043-0.008
	c-20.449-20.448-20.456-53.595,0-74.043C235.166,6.491,268.312,6.498,288.76,26.939 M296.984,18.716
	c-24.938-24.954-65.536-24.954-90.49,0s-24.954,65.544,0,90.498c24.946,24.946,65.552,24.954,90.49,0
	C321.946,84.259,321.946,43.662,296.984,18.716L296.984,18.716z"/>
<g>
	<path style="fill:none;stroke:#1791BC;stroke-linecap:round;stroke-linejoin:round;stroke-miterlimit:10;" d="M277.709,37.99
		c14.336,14.344,14.344,37.597-0.016,51.956"/>
	<path style="fill:none;stroke:#1791BC;stroke-linecap:round;stroke-linejoin:round;stroke-miterlimit:10;" d="M225.784,89.939
		c-14.352-14.344-14.352-37.597-0.008-51.948"/>
	<path style="fill:none;stroke:#1791BC;stroke-linecap:round;stroke-linejoin:round;stroke-miterlimit:10;" d="M267.327,48.388
		c8.602,8.609,8.609,22.552,0,31.161"/>
	<path style="fill:none;stroke:#1791BC;stroke-linecap:round;stroke-linejoin:round;stroke-miterlimit:10;" d="M236.166,79.557
		c-8.617-8.617-8.609-22.56,0-31.161"/>
</g>
<g>
	<circle style="fill:#093568;" cx="251.739" cy="63.961" r="13.091"/>
	<path style="fill:#093568;" d="M270.659,219.963c0,10.437-8.476,18.905-18.912,18.905c-10.445,0-18.913-8.468-18.913-18.912
		c0-10.445,8.468-158.531,18.913-158.531C262.176,61.416,270.659,209.518,270.659,219.963z"/>
</g>
<g>
	<path style="fill:#041D35;" d="M251.746,61.424c10.429-0.008,18.912,148.094,18.912,158.539c0,10.437-8.476,18.905-18.912,18.905"
		/>
	<path style="fill:#041D35;" d="M301.379,252.062c0-7.987,0.78-15.636,2.135-22.788c-5.167-3.403-10.547-7.735-15.746-12.934
		c-12.816-12.816-20.724-26.852-21.016-35.848l-14.69-14.683l-13.911,13.911c0.74,8.846-7.341,23.843-20.96,37.478
		c-4.663,4.655-9.46,8.602-14.139,11.831c1.394,7.223,2.19,14.95,2.19,23.04c0,8.554-0.89,16.707-2.45,24.285
		c4.49,3.151,9.09,6.979,13.548,11.429c12.824,12.824,20.74,26.852,21.016,35.848l14.706,14.683l13.911-13.911
		c-0.756-8.846,7.341-23.843,20.96-37.478c5.396-5.388,10.98-9.862,16.337-13.312C302.056,266.823,301.379,259.592,301.379,252.062z
		"/>
</g>
<path style="fill:#00CFFF;" d="M293.518,399.013c22.678,22.686,22.678,59.597,0,82.274c-22.686,22.686-59.589,22.678-82.267,0
	c-22.693-22.686-22.693-59.581,0-82.267C233.921,376.344,270.832,376.336,293.518,399.013z"/>
<path style="fill:#00B7FF;" d="M211.243,481.296c-22.693-22.686-22.693-59.581,0-82.267c22.678-22.678,59.581-22.686,82.267-0.008"
	/>
<path style="fill:#1791BC;" d="M215.355,477.184c-20.449-20.456-20.456-53.602,0-74.051c20.448-20.448,53.602-20.448,74.043,0.008
	c20.448,20.448,20.448,53.595,0,74.043C268.95,497.633,235.804,497.625,215.355,477.184 M207.124,485.408
	c24.954,24.954,65.544,24.954,90.498,0c24.954-24.954,24.962-65.544,0-90.498c-24.946-24.946-65.544-24.946-90.498,0
	C182.17,419.864,182.177,460.461,207.124,485.408L207.124,485.408z"/>
<g>
	<path style="fill:none;stroke:#1791BC;stroke-linecap:round;stroke-linejoin:round;stroke-miterlimit:10;" d="M226.406,466.133
		c-14.328-14.336-14.336-37.597,0.008-51.948"/>
	<path style="fill:none;stroke:#1791BC;stroke-linecap:round;stroke-linejoin:round;stroke-miterlimit:10;" d="M278.323,414.177
		c14.36,14.352,14.352,37.597,0.016,51.948"/>
	<path style="fill:none;stroke:#1791BC;stroke-linecap:round;stroke-linejoin:round;stroke-miterlimit:10;" d="M236.796,455.735
		c-8.602-8.602-8.609-22.552,0-31.161"/>
	<path style="fill:none;stroke:#1791BC;stroke-linecap:round;stroke-linejoin:round;stroke-miterlimit:10;" d="M267.941,424.566
		c8.633,8.617,8.633,22.56,0.016,31.161"/>
</g>
<g>
	<circle style="fill:#093568;" cx="252.377" cy="440.162" r="13.084"/>
	<path style="fill:#093568;" d="M233.472,284.168c0-10.445,8.46-18.905,18.905-18.905c10.437-0.008,18.913,8.468,18.913,18.913
		c-0.008,10.429-8.476,158.523-18.913,158.523C241.94,442.707,233.464,294.605,233.472,284.168z"/>
</g>
<path style="fill:#041D35;" d="M252.377,442.699c-10.437,0.008-18.913-148.094-18.905-158.531c0-10.445,8.46-18.905,18.905-18.905"
	/>
<path style="fill:#00CFFF;" d="M141.911,200.546c-32.067,0-58.163-26.096-58.163-58.179s26.088-58.171,58.163-58.171
	c32.083,0,58.187,26.088,58.187,58.171S173.993,200.546,141.911,200.546z"/>
<path style="fill:#00B7FF;" d="M141.911,84.196c32.083,0,58.187,26.088,58.187,58.171s-26.096,58.179-58.187,58.179"/>
<path style="fill:#1791BC;" d="M141.911,90.01c28.924,0,52.366,23.442,52.366,52.358s-23.45,52.35-52.366,52.35
	c-28.908,0-52.35-23.434-52.35-52.35S113.002,90.01,141.911,90.01 M141.911,78.375c-35.281,0-63.984,28.711-63.984,63.992
	s28.711,63.992,63.984,63.992c35.289,0,64.008-28.711,64.008-63.992S177.199,78.375,141.911,78.375L141.911,78.375z"/>
<g>
	<path style="fill:none;stroke:#1791BC;stroke-linecap:round;stroke-linejoin:round;stroke-miterlimit:10;" d="M141.911,105.645
		c20.291,0,36.738,16.439,36.738,36.73"/>
	<path style="fill:none;stroke:#1791BC;stroke-linecap:round;stroke-linejoin:round;stroke-miterlimit:10;" d="M141.934,179.09
		c-20.283,0-36.746-16.447-36.746-36.722"/>
	<path style="fill:none;stroke:#1791BC;stroke-linecap:round;stroke-linejoin:round;stroke-miterlimit:10;" d="M141.911,120.336
		c12.178,0,22.048,9.862,22.048,22.032"/>
	<path style="fill:none;stroke:#1791BC;stroke-linecap:round;stroke-linejoin:round;stroke-miterlimit:10;" d="M141.934,164.399
		c-12.193,0-22.04-9.862-22.04-22.032"/>
</g>
<g>
	<circle style="fill:#093568;" cx="141.919" cy="142.368" r="13.091"/>
	<path style="fill:#093568;" d="M265.594,239.301c7.389,7.389,7.389,19.354,0,26.75c-7.389,7.389-19.361,7.389-26.75,0
		s-106.11-118.083-98.721-125.479C147.503,133.183,258.206,231.912,265.594,239.301z"/>
</g>
<path style="fill:#041D35;" d="M140.123,140.572c7.381-7.389,118.083,91.349,125.471,98.729c7.389,7.381,7.389,19.354,0,26.75"/>
<path style="fill:#00CFFF;" d="M362.212,200.546c32.067,0,58.171-26.096,58.171-58.179s-26.096-58.171-58.171-58.171
	c-32.083,0-58.187,26.088-58.187,58.171S330.13,200.546,362.212,200.546z"/>
<path style="fill:#00B7FF;" d="M362.212,84.196c-32.083,0-58.187,26.088-58.187,58.171s26.096,58.179,58.187,58.179"/>
<path style="fill:#1791BC;" d="M362.212,90.01c28.893,0,52.35,23.442,52.35,52.358s-23.457,52.35-52.35,52.35
	c-28.932,0-52.382-23.434-52.382-52.35S333.288,90.01,362.212,90.01 M362.212,78.375c-35.289,0-64,28.711-64,63.992
	s28.711,63.992,64,63.992c35.281,0,63.984-28.711,63.984-63.992S397.493,78.375,362.212,78.375L362.212,78.375z"/>
<g>
	<path style="fill:none;stroke:#1791BC;stroke-linecap:round;stroke-linejoin:round;stroke-miterlimit:10;" d="M362.212,105.645
		c-20.291,0-36.738,16.439-36.738,36.73"/>
	<path style="fill:none;stroke:#1791BC;stroke-linecap:round;stroke-linejoin:round;stroke-miterlimit:10;" d="M362.189,179.09
		c20.291,0,36.738-16.447,36.738-36.722"/>
	<path style="fill:none;stroke:#1791BC;stroke-linecap:round;stroke-linejoin:round;stroke-miterlimit:10;" d="M362.212,120.336
		c-12.186,0-22.048,9.862-22.048,22.032"/>
	<path style="fill:none;stroke:#1791BC;stroke-linecap:round;stroke-linejoin:round;stroke-miterlimit:10;" d="M362.189,164.399
		c12.186,0,22.04-9.862,22.04-22.032"/>
</g>
<g>
	<circle style="fill:#093568;" cx="362.181" cy="142.368" r="13.091"/>
	<path style="fill:#093568;" d="M238.529,239.301c-7.389,7.389-7.389,19.354,0,26.75c7.381,7.389,19.361,7.389,26.75,0
		c7.381-7.389,106.11-118.083,98.721-125.479C356.62,133.183,245.91,231.912,238.529,239.301z"/>
</g>
<path style="fill:#041D35;" d="M364,140.572c-7.381-7.389-118.091,91.349-125.471,98.729c-7.389,7.389-7.389,19.354,0,26.75"/>
<path style="fill:#00CFFF;" d="M362.197,303.577c32.075,0,58.179,26.096,58.179,58.179s-26.096,58.171-58.179,58.171
	s-58.179-26.088-58.179-58.171S330.122,303.577,362.197,303.577z"/>
<path style="fill:#00B7FF;" d="M362.197,419.927c-32.075,0-58.179-26.088-58.179-58.171s26.096-58.179,58.179-58.179"/>
<path style="fill:#1791BC;" d="M362.197,414.113c-28.924,0-52.366-23.442-52.366-52.358s23.45-52.35,52.366-52.35
	c28.908,0,52.358,23.434,52.358,52.35S391.105,414.113,362.197,414.113 M362.197,425.748c35.289,0,63.992-28.711,63.992-63.992
	s-28.704-63.992-63.992-63.992c-35.281,0-63.984,28.711-63.984,63.992S326.924,425.748,362.197,425.748L362.197,425.748z"/>
<g>
	<path style="fill:none;stroke:#1791BC;stroke-linecap:round;stroke-linejoin:round;stroke-miterlimit:10;" d="M362.197,398.478
		c-20.275,0-36.722-16.447-36.722-36.73"/>
	<path style="fill:none;stroke:#1791BC;stroke-linecap:round;stroke-linejoin:round;stroke-miterlimit:10;" d="M362.181,325.033
		c20.291,0,36.73,16.447,36.73,36.722"/>
	<path style="fill:none;stroke:#1791BC;stroke-linecap:round;stroke-linejoin:round;stroke-miterlimit:10;" d="M362.197,383.787
		c-12.17,0-22.032-9.862-22.032-22.032"/>
	<path style="fill:none;stroke:#1791BC;stroke-linecap:round;stroke-linejoin:round;stroke-miterlimit:10;" d="M362.181,339.724
		c12.186,0,22.048,9.862,22.048,22.032"/>
</g>
<g>
	<circle style="fill:#093568;" cx="362.181" cy="361.787" r="13.091"/>
	<path style="fill:#093568;" d="M238.529,264.822c-7.389-7.389-7.389-19.354,0-26.75c7.381-7.389,19.361-7.389,26.75,0
		c7.373,7.389,106.102,118.083,98.714,125.479C356.62,370.94,245.91,272.211,238.529,264.822z"/>
</g>
<path style="fill:#041D35;" d="M363.993,363.552c-7.373,7.389-118.083-91.349-125.464-98.729c-7.389-7.389-7.389-19.354,0-26.75"/>
<path style="fill:#00CFFF;" d="M141.911,303.577c-32.075,0-58.171,26.096-58.171,58.179s26.088,58.171,58.171,58.171
	s58.187-26.088,58.187-58.171S173.985,303.577,141.911,303.577z"/>
<path style="fill:#00B7FF;" d="M141.911,419.927c32.075,0,58.187-26.088,58.187-58.171s-26.104-58.179-58.187-58.179"/>
<path style="fill:#1791BC;" d="M141.911,414.113c-28.908,0-52.358-23.442-52.358-52.358s23.457-52.35,52.358-52.35
	c28.924,0,52.366,23.434,52.366,52.35S170.835,414.113,141.911,414.113 M141.911,425.748c35.289,0,64-28.711,64-63.992
	s-28.711-63.992-64-63.992c-35.281,0-63.984,28.711-63.984,63.992S106.63,425.748,141.911,425.748L141.911,425.748z"/>
<g>
	<path style="fill:none;stroke:#1791BC;stroke-linecap:round;stroke-linejoin:round;stroke-miterlimit:10;" d="M141.911,398.478
		c20.291,0,36.73-16.447,36.73-36.73"/>
	<path style="fill:none;stroke:#1791BC;stroke-linecap:round;stroke-linejoin:round;stroke-miterlimit:10;" d="M141.926,325.033
		c-20.291,0-36.738,16.447-36.738,36.722"/>
	<path style="fill:none;stroke:#1791BC;stroke-linecap:round;stroke-linejoin:round;stroke-miterlimit:10;" d="M141.911,383.787
		c12.178,0,22.04-9.862,22.04-22.032"/>
	<path style="fill:none;stroke:#1791BC;stroke-linecap:round;stroke-linejoin:round;stroke-miterlimit:10;" d="M141.926,339.724
		c-12.186,0-22.048,9.862-22.048,22.032"/>
</g>
<g>
	<circle style="fill:#093568;" cx="141.911" cy="361.787" r="13.091"/>
	<path style="fill:#093568;" d="M265.594,264.822c7.381-7.389,7.381-19.354,0-26.75c-7.389-7.389-19.361-7.389-26.75,0
		s-106.118,118.083-98.737,125.479C147.503,370.94,258.206,272.211,265.594,264.822z"/>
</g>
<g>
	<path style="fill:#041D35;" d="M140.107,363.552c7.389,7.389,118.099-91.349,125.487-98.729c7.381-7.389,7.381-19.354,0-26.75"/>
	<path style="fill:#041D35;" d="M302.568,252.062c0-18.133,4.324-33.65,10.484-40.204v-20.787h-19.669
		c-5.734,6.782-22.055,11.674-41.322,11.674c-19.275,0-35.596-4.892-41.322-11.674h-19.669v20.787
		c6.16,6.554,10.484,22.079,10.484,40.204c0,18.125-4.324,33.65-10.484,40.204v20.787h19.669
		c5.734-6.782,22.048-11.674,41.322-11.674c19.267,0,35.596,4.892,41.322,11.674h19.669v-20.787
		C306.893,285.712,302.568,270.194,302.568,252.062z"/>
</g>
<g>
	<path style="fill:#00B7FF;" d="M230.999,268.729c0,0.496-0.41,0.906-0.906,0.906h-12.69c-0.504,0-0.906-0.41-0.906-0.906l0,0
		c0-0.504,0.402-0.914,0.906-0.914h12.69C230.589,267.815,230.999,268.225,230.999,268.729L230.999,268.729z"/>
	<path style="fill:#00B7FF;" d="M230.999,277.339c0,0.504-0.41,0.914-0.906,0.914h-12.69c-0.504,0-0.906-0.41-0.906-0.914l0,0
		c0-0.496,0.402-0.906,0.906-0.906h12.69C230.589,276.433,230.999,276.842,230.999,277.339L230.999,277.339z"/>
	<path style="fill:#00B7FF;" d="M230.999,285.956c0,0.504-0.41,0.914-0.906,0.914h-12.69c-0.504,0-0.906-0.41-0.906-0.914l0,0
		c0-0.496,0.402-0.906,0.906-0.906h12.69C230.589,285.05,230.999,285.452,230.999,285.956L230.999,285.956z"/>
	<circle style="fill:#00B7FF;" cx="275.117" cy="229.841" r="9.98"/>
</g>
<g>
</g>
<g>
</g>
<g>
</g>
<g>
</g>
<g>
</g>
<g>
</g>
<g>
</g>
<g>
</g>
<g>
</g>
<g>
</g>
<g>
</g>
<g>
</g>
<g>
</g>
<g>
</g>
<g>
</g>
</svg>
