<?xml version="1.0" encoding="iso-8859-1"?>
<!-- Generator: Adobe Illustrator 19.0.0, SVG Export Plug-In . SVG Version: 6.00 Build 0)  -->
<svg version="1.1" id="Layer_1" xmlns="http://www.w3.org/2000/svg" xmlns:xlink="http://www.w3.org/1999/xlink" x="0px" y="0px"
	 viewBox="0 0 504.147 504.147" style="enable-background:new 0 0 504.147 504.147;" xml:space="preserve">
<path style="fill:#0092FF;" d="M277.984,226.868h-51.846c-1.804,4.017-4.356,8.586-7.373,13.044
	c-0.969,1.449-1.189,3.245-0.614,4.876c0.583,1.631,1.89,2.875,3.552,3.387c9.295,2.812,19.787,4.293,30.358,4.293
	c10.563,0,21.063-1.481,30.358-4.293c1.654-0.504,2.97-1.757,3.553-3.387c0.575-1.631,0.347-3.434-0.614-4.876
	C282.34,235.454,279.788,230.885,277.984,226.868z"/>
<ellipse style="fill:#093568;" cx="252.062" cy="147.658" rx="100.061" ry="41.889"/>
<path style="fill:#041D35;" d="M352.122,147.658c0,23.142-44.804,41.889-100.061,41.889s-100.061-18.755-100.061-41.889"/>
<path style="fill:#093568;" d="M215.725,138.206c0,15.368-12.438,27.829-27.829,27.829c-15.344,0-125.605-12.461-125.605-27.829
	c0-15.352,110.261-27.813,125.605-27.813C203.288,110.392,215.725,122.853,215.725,138.206z"/>
<path style="fill:#074584;" d="M187.896,110.392c15.392,0,27.829,12.461,27.829,27.813"/>
<g>
	<path style="fill:#041D35;" d="M215.725,138.206c0,15.368,17.904,48.065,2.536,48.065S62.283,153.581,62.283,138.206"/>
	<path style="fill:#041D35;" d="M90.01,144.751c0,8.862-7.176,16.03-16.022,16.03l0,0c-8.862,0-15.998-7.168-15.998-16.03v-14.336
		c0-8.846,7.136-16.014,15.998-16.014l0,0c8.846,0,16.022,7.168,16.022,16.014V144.751z"/>
</g>
<path style="fill:#093568;" d="M90.01,128.95c0,8.846-7.176,16.014-16.022,16.014l0,0c-8.862,0-15.998-7.168-15.998-16.014v-14.336
	c0-8.846,7.136-16.03,15.998-16.03l0,0c8.846,0,16.022,7.184,16.022,16.03V128.95z"/>
<path style="fill:#041D35;" d="M58.478,114.606c1.694,7.018,7.971,12.233,15.51,12.233c7.538,0,13.808-5.215,15.518-12.233
	c-1.709-7.003-7.979-12.233-15.518-12.233C66.45,102.373,60.172,107.612,58.478,114.606z"/>
<ellipse style="fill:#00B1FF;" cx="73.98" cy="101.854" rx="73.98" ry="11.705"/>
<ellipse style="fill:#0092FF;" cx="73.988" cy="101.854" rx="41.102" ry="11.705"/>
<path style="fill:#00CFFF;" d="M147.495,101.854c0,1.142-0.906,2.048-2.056,2.048H2.521c-1.126,0-2.04-0.906-2.04-2.048l0,0
	c0-1.142,0.914-2.064,2.04-2.064h142.919C146.582,99.79,147.495,100.719,147.495,101.854L147.495,101.854z"/>
<path style="fill:#041D35;" d="M90.277,87.644c0,4.695,6.294,8.523,1.56,8.523H56.123c-4.71,0,1.575-3.828,1.575-8.523l0,0
	c0-4.742,3.828-8.554,8.539-8.554h15.486C86.441,79.089,90.277,82.902,90.277,87.644L90.277,87.644z"/>
<path style="fill:#093568;" d="M288.398,138.206c0,15.368,12.438,27.829,27.821,27.829c15.352,0,125.613-12.461,125.613-27.829
	c0-15.352-110.261-27.813-125.613-27.813C300.835,110.392,288.398,122.853,288.398,138.206z"/>
<path style="fill:#074584;" d="M316.227,110.392c-15.384,0-27.821,12.461-27.821,27.813"/>
<g>
	<path style="fill:#041D35;" d="M288.398,138.206c0,15.368-17.904,48.065-2.536,48.065s155.979-32.689,155.979-48.065"/>
	<path style="fill:#041D35;" d="M414.113,144.751c0,8.862,7.176,16.03,16.022,16.03l0,0c8.854,0,16.006-7.168,16.006-16.03v-14.336
		c0-8.846-7.152-16.014-16.006-16.014l0,0c-8.846,0-16.022,7.168-16.022,16.014V144.751z"/>
</g>
<path style="fill:#093568;" d="M414.113,128.95c0,8.846,7.176,16.014,16.022,16.014l0,0c8.854,0,16.006-7.168,16.006-16.014v-14.336
	c0-8.846-7.152-16.03-16.006-16.03l0,0c-8.846,0-16.022,7.184-16.022,16.03V128.95z"/>
<path style="fill:#041D35;" d="M445.645,114.606c-1.694,7.018-7.979,12.233-15.51,12.233c-7.538,0-13.816-5.215-15.525-12.233
	c1.709-7.003,7.987-12.233,15.525-12.233C437.665,102.381,443.951,107.612,445.645,114.606z"/>
<ellipse style="fill:#00B1FF;" cx="430.159" cy="101.854" rx="73.988" ry="11.705"/>
<ellipse style="fill:#0092FF;" cx="430.159" cy="101.854" rx="41.102" ry="11.705"/>
<path style="fill:#00CFFF;" d="M356.628,101.854c0,1.142,0.906,2.048,2.056,2.048h142.919c1.126,0,2.04-0.906,2.04-2.048l0,0
	c0-1.142-0.914-2.064-2.04-2.064H358.684C357.541,99.79,356.628,100.719,356.628,101.854L356.628,101.854z"/>
<path style="fill:#041D35;" d="M413.846,87.644c0,4.695-6.294,8.523-1.56,8.523H448c4.71,0-1.575-3.828-1.575-8.523l0,0
	c0-4.742-3.828-8.554-8.539-8.554H422.4C417.69,79.089,413.846,82.902,413.846,87.644L413.846,87.644z"/>
<path style="fill:#081E34;" d="M299.402,151.714h-15.265c-2.316,0-4.521,1.032-6.018,2.796c-2.135,2.521-11.902,6.262-26.065,6.262
	c-14.171,0-23.914-3.742-26.049-6.262c-1.504-1.772-3.702-2.796-6.026-2.796h-15.258c-4.356,0-7.877,3.521-7.877,7.877v16.14
	c0,2.001,0.772,3.938,2.135,5.404c3.009,3.182,7.176,4.506,11.201,5.782c7.704,2.434,8.539,3.434,8.539,6.294
	c0,6.412-6.081,19.952-14.816,32.91c-1.386,2.08-1.717,4.695-0.874,7.05s2.749,4.167,5.136,4.892
	c13.438,4.064,28.617,6.215,43.89,6.215c15.273,0,30.46-2.15,43.898-6.215c2.395-0.725,4.285-2.536,5.136-4.892
	c0.835-2.355,0.504-4.97-0.882-7.05c-8.72-12.958-14.809-26.49-14.809-32.91c0-2.859,0.835-3.86,8.523-6.294
	c4.033-1.276,8.2-2.599,11.209-5.782c1.371-1.465,2.135-3.403,2.135-5.404v-16.14C307.279,155.243,303.75,151.714,299.402,151.714z"
	/>
<g>
	<path style="fill:#0092FF;" d="M268.138,119.38c0,0.819-0.662,1.481-1.481,1.481h-29.2c-0.819,0-1.481-0.662-1.481-1.481l0,0
		c0-0.819,0.662-1.481,1.481-1.481h29.2C267.477,117.899,268.138,118.56,268.138,119.38L268.138,119.38z"/>
	<path style="fill:#0092FF;" d="M268.138,128.241c0,0.819-0.662,1.481-1.481,1.481h-29.2c-0.819,0-1.481-0.662-1.481-1.481l0,0
		c0-0.819,0.662-1.481,1.481-1.481h29.2C267.477,126.76,268.138,127.422,268.138,128.241L268.138,128.241z"/>
	<path style="fill:#0092FF;" d="M268.138,137.103c0,0.819-0.662,1.481-1.481,1.481h-29.2c-0.819,0-1.481-0.662-1.481-1.481l0,0
		c0-0.819,0.662-1.481,1.481-1.481h29.2C267.477,135.622,268.138,136.284,268.138,137.103L268.138,137.103z"/>
</g>
<path style="fill:#8DF4FF;" d="M86.158,339.437c4.687-4.695,12.312-4.695,17.014,0c82.085,82.109,215.67,82.109,297.779,0
	c4.695-4.695,12.304-4.695,16.998,0c4.71,4.71,4.71,12.32,0,17.014c-91.475,91.475-240.325,91.475-331.792,0
	C81.463,351.765,81.463,344.148,86.158,339.437z"/>
<path style="fill:#39E3FF;" d="M130.812,299.359c3.434-3.434,9.019-3.434,12.446,0c59.983,59.983,157.617,59.983,217.6,0
	c3.434-3.434,9.003-3.434,12.43,0s3.434,9.003,0,12.43c-66.844,66.844-175.616,66.859-242.467,0
	C127.393,308.363,127.386,302.794,130.812,299.359z"/>
<path style="fill:#00CFFF;" d="M169.819,264.378c2.324-2.339,6.097-2.339,8.428,0c40.692,40.692,106.921,40.692,147.614-0.016
	c2.332-2.324,6.105-2.324,8.436,0.016c2.332,2.324,2.332,6.089,0,8.428c-45.347,45.34-119.131,45.355-164.486,0
	C167.487,270.467,167.487,266.702,169.819,264.378z"/>
<g>
</g>
<g>
</g>
<g>
</g>
<g>
</g>
<g>
</g>
<g>
</g>
<g>
</g>
<g>
</g>
<g>
</g>
<g>
</g>
<g>
</g>
<g>
</g>
<g>
</g>
<g>
</g>
<g>
</g>
</svg>
