<?xml version="1.0" encoding="iso-8859-1"?>
<!-- Generator: Adobe Illustrator 19.0.0, SVG Export Plug-In . SVG Version: 6.00 Build 0)  -->
<svg version="1.1" id="Layer_1" xmlns="http://www.w3.org/2000/svg" xmlns:xlink="http://www.w3.org/1999/xlink" x="0px" y="0px"
	 viewBox="0 0 504.123 504.123" style="enable-background:new 0 0 504.123 504.123;" xml:space="preserve">
<path style="fill:#FF7C24;" d="M504.123,364.095c0,22.095-17.912,40.007-40.007,40.007H40.007C17.912,404.102,0,386.19,0,364.095
	V140.028c0-22.095,17.912-40.007,40.007-40.007h424.109c22.095,0,40.007,17.912,40.007,40.007V364.095z"/>
<rect y="203.894" style="fill:#08375E;" width="504.123" height="49.231"/>
<rect y="203.894" style="fill:#011726;" width="504.123" height="22.977"/>
<path style="fill:#FF9827;" d="M464.116,100.021H40.007C17.912,100.021,0,117.933,0,140.028v9.704h504.123v-9.704
	C504.123,117.941,486.211,100.021,464.116,100.021z"/>
<path style="fill:#D65B07;" d="M308.185,380.629H195.938c-28.231,0-51.2-22.969-51.2-51.2v-18.708
	c0-6.522,5.293-11.815,11.815-11.815c6.522,0,11.815,5.293,11.815,11.815v18.708c0,15.202,12.367,27.569,27.569,27.569h112.246
	c15.202,0,27.569-12.367,27.569-27.569v-18.708c0-6.522,5.293-11.815,11.815-11.815c6.522,0,11.815,5.293,11.815,11.815v18.708
	C359.385,357.66,336.415,380.629,308.185,380.629z"/>
<path style="fill:#BDDBD8;" d="M308.185,366.356H195.938c-28.231,0-51.2-22.969-51.2-51.2v-18.708
	c0-6.522,5.293-11.815,11.815-11.815c6.522,0,11.815,5.293,11.815,11.815v18.708c0,15.202,12.367,27.569,27.569,27.569h112.246
	c15.202,0,27.569-12.367,27.569-27.569v-18.708c0-6.522,5.293-11.815,11.815-11.815c6.522,0,11.815,5.293,11.815,11.815v18.708
	C359.385,343.387,336.415,366.356,308.185,366.356z"/>
<g>
	<path style="fill:#90AFAC;" d="M156.554,284.633c-5.971,0-10.847,4.427-11.65,10.169c1.701,26.711,23.906,47.923,51.035,47.923
		c-15.202,0-27.569-12.367-27.569-27.569v-18.708C168.369,289.926,163.076,284.633,156.554,284.633z"/>
	<path style="fill:#90AFAC;" d="M308.185,342.725c27.12,0,49.333-21.22,51.035-47.923c-0.803-5.742-5.695-10.169-11.65-10.169
		c-6.522,0-11.815,5.293-11.815,11.815v18.708C335.754,330.35,323.387,342.725,308.185,342.725z"/>
</g>
<path style="fill:#D65B07;" d="M492.308,266.579c0,1.631-1.323,2.954-2.954,2.954H14.769c-1.631,0-2.954-1.323-2.954-2.954l0,0
	c0-1.631,1.323-2.954,2.954-2.954h474.585C490.984,263.625,492.308,264.948,492.308,266.579L492.308,266.579z"/>
<path style="fill:#08375E;" d="M308.366,361.441c0,4.348-3.537,7.877-7.877,7.877h-89.923c-4.356,0-7.877-3.529-7.877-7.877v-15.1
	c0-4.356,3.521-7.877,7.877-7.877h89.923c4.34,0,7.877,3.521,7.877,7.877L308.366,361.441L308.366,361.441z"/>
<path style="fill:#034B7C;" d="M300.489,338.464h-89.923c-4.356,0-7.877,3.521-7.877,7.877v0.087c0,4.348,3.521,7.877,7.877,7.877
	h89.923c4.34,0,7.877-3.529,7.877-7.877v-0.087C308.366,341.984,304.829,338.464,300.489,338.464z"/>
<path style="fill:#D65B07;" d="M116.185,295.637c0,7.097-5.75,12.855-12.863,12.855H67.34c-7.089,0-12.863-5.75-12.863-12.855
	V188.944c0-7.097,5.766-12.855,12.863-12.855h35.982c7.105,0,12.863,5.75,12.863,12.855V295.637z"/>
<path style="fill:#BDDBD8;" d="M116.185,281.852c0,7.097-5.75,12.855-12.863,12.855H67.34c-7.089,0-12.863-5.75-12.863-12.855
	V175.159c0-7.097,5.766-12.855,12.863-12.855h35.982c7.105,0,12.863,5.75,12.863,12.855V281.852z"/>
<path style="fill:#CEEFEB;" d="M109.789,270.785c0,5.632-4.561,10.193-10.193,10.193H71.081c-5.632,0-10.185-4.561-10.185-10.193
	v-84.551c0-5.632,4.553-10.185,10.185-10.185h28.514c5.632,0,10.193,4.553,10.193,10.185V270.785z"/>
<path style="fill:#E9FFFC;" d="M99.596,176.049H71.081c-5.632,0-10.185,4.553-10.185,10.185v35.32
	c0,5.632,4.553,10.193,10.185,10.193h28.514c5.632,0,10.193-4.561,10.193-10.193v-35.32
	C109.789,180.602,105.22,176.049,99.596,176.049z"/>
<g>
	<circle style="fill:#BDDBD8;" cx="69.656" cy="186.998" r="3.119"/>
	<circle style="fill:#BDDBD8;" cx="101.006" cy="186.998" r="3.119"/>
	<circle style="fill:#BDDBD8;" cx="69.656" cy="269.367" r="3.119"/>
	<circle style="fill:#BDDBD8;" cx="101.006" cy="269.367" r="3.119"/>
</g>
<path style="fill:#D65B07;" d="M449.638,295.637c0,7.097-5.75,12.855-12.855,12.855h-35.998c-7.089,0-12.847-5.75-12.847-12.855
	V188.944c0-7.097,5.75-12.855,12.847-12.855h35.998c7.097,0,12.855,5.75,12.855,12.855V295.637z"/>
<path style="fill:#BDDBD8;" d="M449.638,281.852c0,7.097-5.75,12.855-12.855,12.855h-35.998c-7.089,0-12.847-5.75-12.847-12.855
	V175.159c0-7.097,5.75-12.855,12.847-12.855h35.998c7.097,0,12.855,5.75,12.855,12.855V281.852z"/>
<path style="fill:#CEEFEB;" d="M443.242,270.785c0,5.632-4.561,10.193-10.193,10.193h-28.522c-5.624,0-10.185-4.561-10.185-10.193
	v-84.551c0-5.632,4.561-10.185,10.185-10.185h28.522c5.632,0,10.193,4.553,10.193,10.185V270.785z"/>
<path style="fill:#E9FFFC;" d="M433.05,176.049h-28.522c-5.624,0-10.185,4.553-10.185,10.185v35.32
	c0,5.632,4.561,10.193,10.185,10.193h28.522c5.632,0,10.193-4.561,10.193-10.193v-35.32
	C443.242,180.602,438.674,176.049,433.05,176.049z"/>
<g>
	<circle style="fill:#BDDBD8;" cx="403.117" cy="186.998" r="3.119"/>
	<circle style="fill:#BDDBD8;" cx="434.46" cy="186.998" r="3.111"/>
	<circle style="fill:#BDDBD8;" cx="403.117" cy="269.367" r="3.119"/>
	<circle style="fill:#BDDBD8;" cx="434.46" cy="269.367" r="3.111"/>
</g>
<g>
	<path style="fill:#FF7C24;" d="M58.447,113.31c3.45,0,6.231-2.788,6.231-6.231v-7.058H52.216v7.058
		C52.216,110.513,54.997,113.31,58.447,113.31z"/>
	<path style="fill:#FF7C24;" d="M97.17,113.31c3.45,0,6.231-2.788,6.231-6.231v-7.058H90.939v7.058
		C90.939,110.513,93.72,113.31,97.17,113.31z"/>
	<path style="fill:#FF7C24;" d="M135.893,113.31c3.45,0,6.231-2.788,6.231-6.231v-7.058h-12.461v7.058
		C129.662,110.513,132.443,113.31,135.893,113.31z"/>
	<path style="fill:#FF7C24;" d="M174.616,113.31c3.45,0,6.231-2.788,6.231-6.231v-7.058h-12.461v7.058
		C168.385,110.513,171.166,113.31,174.616,113.31z"/>
	<path style="fill:#FF7C24;" d="M213.339,113.31c3.45,0,6.231-2.788,6.231-6.231v-7.058h-12.461v7.058
		C207.108,110.513,209.888,113.31,213.339,113.31z"/>
	<path style="fill:#FF7C24;" d="M252.062,113.31c3.45,0,6.231-2.788,6.231-6.231v-7.058h-12.461v7.058
		C245.831,110.513,248.611,113.31,252.062,113.31z"/>
	<path style="fill:#FF7C24;" d="M290.784,113.31c3.45,0,6.231-2.788,6.231-6.231v-7.058h-12.461v7.058
		C284.554,110.513,287.342,113.31,290.784,113.31z"/>
	<path style="fill:#FF7C24;" d="M329.507,113.31c3.45,0,6.231-2.788,6.231-6.231v-7.058h-12.461v7.058
		C323.277,110.513,326.065,113.31,329.507,113.31z"/>
	<path style="fill:#FF7C24;" d="M368.23,113.31c3.45,0,6.231-2.788,6.231-6.231v-7.058H362v7.058
		C362,110.513,364.788,113.31,368.23,113.31z"/>
	<path style="fill:#FF7C24;" d="M406.953,113.31c3.45,0,6.231-2.788,6.231-6.231v-7.058h-12.461v7.058
		C400.723,110.513,403.511,113.31,406.953,113.31z"/>
	<path style="fill:#FF7C24;" d="M445.676,113.31c3.45,0,6.231-2.788,6.231-6.231v-7.058h-12.461v7.058
		C439.446,110.513,442.234,113.31,445.676,113.31z"/>
</g>
<g>
</g>
<g>
</g>
<g>
</g>
<g>
</g>
<g>
</g>
<g>
</g>
<g>
</g>
<g>
</g>
<g>
</g>
<g>
</g>
<g>
</g>
<g>
</g>
<g>
</g>
<g>
</g>
<g>
</g>
</svg>
