<?xml version="1.0" encoding="iso-8859-1"?>
<!-- Generator: Adobe Illustrator 19.0.0, SVG Export Plug-In . SVG Version: 6.00 Build 0)  -->
<svg version="1.1" id="Layer_1" xmlns="http://www.w3.org/2000/svg" xmlns:xlink="http://www.w3.org/1999/xlink" x="0px" y="0px"
	 viewBox="0 0 504.123 504.123" style="enable-background:new 0 0 504.123 504.123;" xml:space="preserve">
<path style="fill:#1C96D3;" d="M503.178,407.702V235.229H0.937V407.67C0.362,410.333,0,413.042,0,415.823
	c0,26.726,27.112,48.136,80.605,63.653c46.017,13.351,106.906,20.708,171.457,20.708s125.44-7.357,171.457-20.708
	c53.484-15.518,80.605-36.927,80.605-63.653C504.123,413.05,503.753,410.364,503.178,407.702z"/>
<path style="fill:#1382CE;" d="M252.062,500.185c64.551,0,125.44-7.357,171.457-20.708c53.484-15.518,80.605-36.927,80.605-63.653
	c0-2.773-0.37-5.459-0.945-8.121V235.229H0.937"/>
<path style="fill:#003E7C;" d="M252.062,309.051c-118.359,0-244.153-26.789-244.153-76.461c0-49.664,125.794-76.453,244.153-76.453
	c118.367,0,244.145,26.789,244.145,76.453C496.207,282.262,370.428,309.051,252.062,309.051z"/>
<g>
	<path style="fill:#34B2EA;" d="M252.062,164.045c130.465,0,236.237,30.688,236.237,68.545c0,37.864-105.771,68.553-236.237,68.553
		c-130.473,0-236.245-30.689-236.245-68.553C15.817,194.741,121.588,164.045,252.062,164.045 M252.062,148.228
		c-64.551,0-125.44,7.357-171.457,20.708C27.112,184.454,0,205.871,0,232.59c0,26.734,27.112,48.144,80.605,63.661
		c46.017,13.351,106.898,20.708,171.457,20.708s125.44-7.357,171.457-20.708c53.484-15.518,80.605-36.927,80.605-63.661
		c0-26.726-27.12-48.136-80.605-63.653C377.502,155.585,316.613,148.228,252.062,148.228L252.062,148.228z"/>
	<path style="fill:#34B2EA;" d="M252.062,191.732c84.173,0,152.434,15.927,152.434,35.604c0,19.645-68.261,35.596-152.434,35.596
		c-84.189,0-152.442-15.943-152.442-35.596C99.619,207.659,167.873,191.732,252.062,191.732 M252.062,183.824
		c-41.307,0-80.234,3.773-109.584,10.634c-34.154,7.971-50.759,18.723-50.759,32.878c0,14.139,16.605,24.883,50.759,32.863
		c29.373,6.861,68.277,10.642,109.584,10.642c41.291,0,80.211-3.773,109.584-10.642c34.154-7.979,50.759-18.723,50.759-32.863
		c0-14.155-16.605-24.907-50.759-32.878C332.28,187.597,293.368,183.824,252.062,183.824L252.062,183.824z"/>
	<path style="fill:#34B2EA;" d="M252.062,213.449c31.248,0,56.58,5.916,56.58,13.217c0,7.294-25.332,13.21-56.58,13.21
		c-31.256,0-56.58-5.916-56.58-13.21C195.482,219.364,220.806,213.449,252.062,213.449 M252.062,210.519
		c-15.336,0-29.783,1.402-40.676,3.946c-12.674,2.954-18.842,6.955-18.842,12.201c0,5.254,6.16,9.232,18.842,12.209
		c10.894,2.528,25.34,3.938,40.676,3.938c15.321,0,29.767-1.41,40.676-3.938c12.666-2.977,18.834-6.955,18.834-12.209
		c0-5.246-6.16-9.248-18.834-12.201C281.836,211.913,267.39,210.519,252.062,210.519L252.062,210.519z"/>
</g>
<polygon style="fill:#FF7C24;" points="252.062,229.715 156.751,134.396 198.585,92.554 252.062,146.007 305.522,92.554 
	347.372,134.396 "/>
<polygon style="fill:#E86105;" points="252.062,167.668 198.585,114.215 167.582,145.235 252.062,229.715 336.542,145.235 
	305.522,114.215 "/>
<g>
	<polygon style="fill:#FF9827;" points="252.062,105.653 216.277,69.868 231.983,54.154 252.062,74.224 272.14,54.154 
		287.846,69.868 	"/>
	<polygon style="fill:#FF9827;" points="252.062,55.438 216.277,19.653 231.983,3.938 252.062,24.009 272.14,3.938 287.846,19.653 	
		"/>
	<polygon style="fill:#FF9827;" points="252.062,105.653 216.277,69.868 231.983,54.154 252.062,74.224 272.14,54.154 
		287.846,69.868 	"/>
</g>
<g>
	<polygon style="fill:#FFB229;" points="252.062,74.224 231.983,54.154 223.492,62.645 252.062,91.215 280.631,62.645 
		272.14,54.154 	"/>
	<polygon style="fill:#FFB229;" points="252.062,24.009 231.983,3.938 223.492,12.43 252.062,40.999 280.631,12.43 272.14,3.938 	
		"/>
</g>
<g>
</g>
<g>
</g>
<g>
</g>
<g>
</g>
<g>
</g>
<g>
</g>
<g>
</g>
<g>
</g>
<g>
</g>
<g>
</g>
<g>
</g>
<g>
</g>
<g>
</g>
<g>
</g>
<g>
</g>
</svg>
