<?xml version="1.0" encoding="iso-8859-1"?>
<!-- Generator: Adobe Illustrator 19.0.0, SVG Export Plug-In . SVG Version: 6.00 Build 0)  -->
<svg version="1.1" id="Layer_1" xmlns="http://www.w3.org/2000/svg" xmlns:xlink="http://www.w3.org/1999/xlink" x="0px" y="0px"
	 viewBox="0 0 500.185 500.185" style="enable-background:new 0 0 500.185 500.185;" xml:space="preserve">
<path style="fill:#08375E;" d="M395.815,197.325c0,45.529-38.368,15.352-83.889,15.352H188.258
	c-45.536,0-83.889,30.176-83.889-15.352V78.494C104.369,32.973,142.722,0,188.258,0h123.668c45.521,0,83.889,32.973,83.889,78.494
	V197.325z"/>
<circle style="fill:#0C4AA5;" cx="250.092" cy="295.503" r="204.674"/>
<path style="fill:#08375E;" d="M250.092,90.821c113.05,0,204.674,91.632,204.674,204.674s-91.624,204.69-204.674,204.69"/>
<path style="fill:#EBF0F2;" d="M370.664,295.534c0,66.552-54.044,120.548-120.572,120.548c-66.599,0-120.588-53.988-120.588-120.548
	c0-66.615,53.988-120.611,120.588-120.611C316.613,174.923,370.664,228.919,370.664,295.534z"/>
<path style="fill:#BDD0D6;" d="M250.092,174.923c66.521,0,120.572,53.988,120.572,120.611c0,66.552-54.044,120.548-120.572,120.548"
	/>
<path style="fill:#18A8E8;" d="M302.23,243.365c28.782,28.782,28.751,75.492,0,104.259c-28.798,28.814-75.492,28.798-104.275,0.016
	c-28.798-28.798-28.798-75.477,0-104.29C226.706,214.599,273.432,214.575,302.23,243.365z"/>
<path style="fill:#39E3FF;" d="M197.955,243.35c28.751-28.743,75.477-28.767,104.275,0.016c28.782,28.782,28.751,75.492,0,104.259"
	/>
<g>
	<circle style="fill:#B3F8FF;" cx="259.285" cy="248.367" r="18.605"/>
	<circle style="fill:#B3F8FF;" cx="277.898" cy="278.607" r="4.655"/>
	<path style="fill:#B3F8FF;" d="M318.968,299.544c0,5.986-4.86,10.839-10.846,10.839c-6.002,0-10.847-4.852-10.847-10.839
		c0-6.01,4.844-10.862,10.847-10.862C314.108,288.681,318.968,293.541,318.968,299.544z"/>
</g>
<g>
	<path style="fill:#0C4AA5;" d="M167.385,59.077c0,2.174-1.764,3.938-3.938,3.938h-23.631c-2.174,0-3.938-1.764-3.938-3.938l0,0
		c0-2.174,1.764-3.938,3.938-3.938h23.631C165.62,55.138,167.385,56.903,167.385,59.077L167.385,59.077z"/>
	<path style="fill:#0C4AA5;" d="M167.385,74.831c0,2.174-1.764,3.938-3.938,3.938h-23.631c-2.174,0-3.938-1.764-3.938-3.938l0,0
		c0-2.174,1.764-3.938,3.938-3.938h23.631C165.62,70.892,167.385,72.657,167.385,74.831L167.385,74.831z"/>
	<path style="fill:#0C4AA5;" d="M167.385,90.585c0,2.174-1.764,3.938-3.938,3.938h-23.631c-2.174,0-3.938-1.764-3.938-3.938l0,0
		c0-2.174,1.764-3.938,3.938-3.938h23.631C165.62,86.646,167.385,88.411,167.385,90.585L167.385,90.585z"/>
</g>
<g>
</g>
<g>
</g>
<g>
</g>
<g>
</g>
<g>
</g>
<g>
</g>
<g>
</g>
<g>
</g>
<g>
</g>
<g>
</g>
<g>
</g>
<g>
</g>
<g>
</g>
<g>
</g>
<g>
</g>
</svg>
