<?xml version="1.0" encoding="iso-8859-1"?>
<!-- Generator: Adobe Illustrator 19.0.0, SVG Export Plug-In . SVG Version: 6.00 Build 0)  -->
<svg version="1.1" id="Layer_1" xmlns="http://www.w3.org/2000/svg" xmlns:xlink="http://www.w3.org/1999/xlink" x="0px" y="0px"
	 viewBox="0 0 504.123 504.123" style="enable-background:new 0 0 504.123 504.123;" xml:space="preserve">
<path style="fill:#08375E;" d="M480.303,476.034c0,15.533-12.603,28.089-28.089,28.089H51.917
	c-15.494,0-28.089-12.564-28.089-28.089V232.558c0-15.502,12.603-28.089,28.089-28.089h400.289
	c15.494,0,28.089,12.595,28.089,28.089v243.476H480.303z"/>
<path style="fill:#081E34;" d="M23.82,232.558c0-15.502,12.603-28.089,28.089-28.089h400.289c15.494,0,28.089,12.595,28.089,28.089
	v243.468c0,15.533-12.603,28.089-28.089,28.089"/>
<path style="fill:#EBF0F2;" d="M430.954,354.312c0,57.628-46.797,104.385-104.393,104.385c-57.683,0-104.424-46.757-104.424-104.385
	c0-57.667,46.742-104.424,104.424-104.424C384.158,249.895,430.954,296.645,430.954,354.312z"/>
<path style="fill:#BDD0D6;" d="M326.561,249.895c57.596,0,104.393,46.757,104.393,104.424c0,57.628-46.797,104.385-104.393,104.385"
	/>
<path style="fill:#18A8E8;" d="M371.696,309.153c24.923,24.923,24.915,65.371,0,90.277c-24.93,24.954-65.363,24.938-90.285,0.016
	c-24.938-24.938-24.938-65.363-0.008-90.309C306.31,284.239,346.758,284.223,371.696,309.153z"/>
<path style="fill:#39E3FF;" d="M281.403,309.138c24.907-24.899,65.363-24.915,90.293,0.016c24.923,24.923,24.915,65.371,0,90.277"/>
<path style="fill:#EBF0F2;" d="M184.044,307.058c0,4.395-3.545,7.94-7.901,7.94H78.675c-4.427,0-8.027-3.545-8.027-7.94v-47.403
	c0-4.395,3.592-7.979,8.027-7.979h97.469c4.356,0,7.901,3.584,7.901,7.979V307.058z"/>
<path style="fill:#BDD0D6;" d="M70.656,259.663c0-4.395,3.592-7.979,8.027-7.979h97.469c4.356,0,7.901,3.584,7.901,7.979v47.403
	c0,4.395-3.545,7.94-7.901,7.94"/>
<g>
	<path style="fill:#081E34;" d="M270.982,215.654c0,10.453-8.468,18.928-18.912,18.928l0,0c-10.461,0-18.936-8.476-18.936-18.928
		v-78.171c0-10.453,8.476-18.92,18.936-18.92l0,0c10.445,0,18.912,8.468,18.912,18.92V215.654z"/>
	<path style="fill:#081E34;" d="M313.927,205.273c0,11.232-9.114,20.346-20.338,20.346h-83.046
		c-11.232,0-20.346-9.114-20.346-20.346l0,0c0-11.217,9.114-20.338,20.346-20.338h83.046
		C304.805,184.934,313.927,194.056,313.927,205.273L313.927,205.273z"/>
</g>
<circle style="fill:#EA5706;" cx="94.878" cy="436.326" r="16.108"/>
<g>
	<circle style="fill:#B3F8FF;" cx="334.509" cy="313.502" r="16.108"/>
	<circle style="fill:#B3F8FF;" cx="350.602" cy="339.661" r="4.025"/>
	<circle style="fill:#B3F8FF;" cx="376.832" cy="357.793" r="9.397"/>
</g>
<g>
	<path style="fill:#081E34;" d="M342.016,132.907c0,8.901-7.231,16.116-16.116,16.116H178.223c-8.893,0-16.116-7.215-16.116-16.116
		V95.319c0-8.893,7.223-16.108,16.116-16.108H325.9c8.885,0,16.116,7.215,16.116,16.108L342.016,132.907L342.016,132.907z"/>
	<path style="fill:#081E34;" d="M342.016,53.697c0,8.901-7.231,16.116-16.116,16.116H178.223c-8.893,0-16.116-7.215-16.116-16.116
		V16.108C162.107,7.215,169.33,0,178.223,0H325.9c8.885,0,16.116,7.215,16.116,16.108L342.016,53.697L342.016,53.697z"/>
</g>
<g>
</g>
<g>
</g>
<g>
</g>
<g>
</g>
<g>
</g>
<g>
</g>
<g>
</g>
<g>
</g>
<g>
</g>
<g>
</g>
<g>
</g>
<g>
</g>
<g>
</g>
<g>
</g>
<g>
</g>
</svg>
