<?xml version="1.0" encoding="iso-8859-1"?>
<!-- Generator: Adobe Illustrator 19.0.0, SVG Export Plug-In . SVG Version: 6.00 Build 0)  -->
<svg version="1.1" id="Layer_1" xmlns="http://www.w3.org/2000/svg" xmlns:xlink="http://www.w3.org/1999/xlink" x="0px" y="0px"
	 viewBox="0 0 504.123 504.123" style="enable-background:new 0 0 504.123 504.123;" xml:space="preserve">
<path style="fill:#033251;" d="M261.908,393.354c0,5.435-4.411,9.846-9.846,9.846l0,0c-5.435,0-9.846-4.411-9.846-9.846v-24.615
	c0-5.435,4.411-9.846,9.846-9.846l0,0c5.435,0,9.846,4.411,9.846,9.846V393.354z"/>
<g>
	<path style="fill:#074170;" d="M344.615,352.488c0,9.783-7.94,17.723-17.723,17.723H177.231c-9.783,0-17.723-7.94-17.723-17.723
		l0,0c0-9.783,7.94-17.723,17.723-17.723h149.662C336.675,334.765,344.615,342.705,344.615,352.488L344.615,352.488z"/>
	<path style="fill:#074170;" d="M344.615,182.15c0,9.783-7.94,17.723-17.723,17.723H177.231c-9.783,0-17.723-7.94-17.723-17.723l0,0
		c0-9.783,7.94-17.723,17.723-17.723h149.662C336.675,164.427,344.615,172.367,344.615,182.15L344.615,182.15z"/>
</g>
<rect x="97.871" y="182.969" style="fill:#1C94D1;" width="308.382" height="164.754"/>
<polyline style="fill:#0F72BC;" points="97.871,182.969 406.252,182.969 406.252,347.731 "/>
<path style="fill:#1E5C9B;" d="M406.252,356.175H97.871c-4.671,0-8.452-3.773-8.452-8.444V182.969c0-4.671,3.781-8.444,8.452-8.444
	h308.382c4.671,0,8.444,3.773,8.444,8.444v164.754C414.696,352.394,410.923,356.175,406.252,356.175z M106.323,339.279H397.8
	v-147.85H106.323V339.279z"/>
<polygon style="fill:#4FB1D3;" points="108.434,347.731 8.444,415.323 8.444,115.377 108.434,182.969 "/>
<polyline style="fill:#1C94D1;" points="108.434,182.969 108.434,347.731 8.444,415.323 "/>
<path style="fill:#1E5C9B;" d="M8.444,423.767c-1.355,0-2.725-0.331-3.954-0.992C1.717,421.309,0,418.442,0,415.323V115.377
	c0-3.119,1.725-5.994,4.49-7.452c2.741-1.473,6.097-1.3,8.688,0.465l99.974,67.592c2.332,1.56,3.726,4.183,3.726,6.995v164.754
	c0,2.804-1.394,5.427-3.726,6.995l-99.974,67.584C11.752,423.278,10.106,423.767,8.444,423.767z M16.904,131.289v268.123
	l83.086-56.178V187.467L16.904,131.289z"/>
<polygon style="fill:#4FB1D3;" points="395.689,182.969 495.679,115.377 495.679,415.323 395.689,347.731 "/>
<polyline style="fill:#1C94D1;" points="495.679,415.323 395.689,347.731 395.689,182.969 "/>
<path style="fill:#1E5C9B;" d="M495.679,423.767c-1.662,0-3.308-0.488-4.734-1.457l-99.982-67.592
	c-2.332-1.56-3.718-4.183-3.718-6.995V182.969c0-2.804,1.386-5.427,3.718-6.995l99.982-67.592c2.576-1.764,5.947-1.93,8.688-0.465
	c2.773,1.465,4.49,4.332,4.49,7.452v299.937c0,3.119-1.725,5.994-4.49,7.452C498.397,423.436,497.034,423.767,495.679,423.767z
	 M404.141,343.233l83.078,56.178V131.289l-83.078,56.178V343.233z"/>
<circle style="fill:#8DF4FF;" cx="252.062" cy="265.37" r="64.323"/>
<path style="fill:#5DCEE8;" d="M252.062,201.023c-24.56,0-45.891,13.777-56.73,34.013l113.451,60.613
	c4.844-9.027,7.601-19.346,7.601-30.31C316.384,229.829,287.586,201.023,252.062,201.023z"/>
<path style="fill:#61DFE5;" d="M252.062,201.023c35.525,0,64.323,28.798,64.323,64.323s-28.798,64.323-64.323,64.323"/>
<path style="fill:#45B7D6;" d="M252.062,201.023v64.323l56.722,30.31c4.844-9.027,7.601-19.346,7.601-30.31
	C316.384,229.829,287.586,201.023,252.062,201.023z"/>
<path style="fill:#041D35;" d="M270.462,272.979c-2.198,0-4.23,0.677-5.939,1.812c-0.74-0.906-1.504-1.812-2.276-2.71v-0.016
	c-1.032-1.095-1.741-3.694-1.741-6.727c0-3.033,0.709-5.632,1.741-6.727v-0.016c0.772-0.89,1.536-1.812,2.276-2.71
	c1.709,1.142,3.742,1.812,5.939,1.812c5.908,0,10.689-4.797,10.689-10.689c0-5.908-4.781-10.705-10.689-10.705
	c-5.892,0-10.689,4.797-10.689,10.705c0,2.182,0.677,4.23,1.812,5.939c-1.079,0.89-2.182,1.812-3.261,2.725
	c-1.245,0.843-3.568,1.418-6.262,1.418s-5.002-0.567-6.262-1.418c-1.079-0.906-2.182-1.827-3.261-2.725
	c1.142-1.709,1.812-3.757,1.812-5.939c0-5.908-4.797-10.705-10.705-10.705c-5.892,0-10.673,4.797-10.673,10.705
	c0,5.892,4.781,10.689,10.673,10.689c2.213,0,4.246-0.677,5.955-1.812c0.74,0.89,1.505,1.812,2.261,2.71v0.016
	c1.048,1.095,1.757,3.694,1.757,6.727c0,3.033-0.709,5.632-1.757,6.727l0,0c-0.756,0.906-1.52,1.812-2.261,2.725
	c-1.709-1.142-3.757-1.812-5.955-1.812c-5.892,0-10.673,4.797-10.673,10.705c0,5.892,4.781,10.673,10.673,10.673
	c5.908,0,10.705-4.781,10.705-10.673c0-2.213-0.677-4.246-1.812-5.955c1.079-0.89,2.182-1.812,3.261-2.725
	c1.245-0.843,3.568-1.418,6.262-1.418s5.002,0.567,6.262,1.418c1.079,0.906,2.182,1.827,3.261,2.725
	c-1.142,1.709-1.812,3.742-1.812,5.955c0,5.892,4.797,10.673,10.689,10.673c5.908,0,10.689-4.781,10.689-10.673
	C281.151,277.784,276.37,272.979,270.462,272.979z"/>
<g>
	<path style="fill:#8DF4FF;" d="M160.705,249.6c0,0.725-0.599,1.315-1.323,1.315h-26.908c-0.725,0-1.308-0.591-1.308-1.315l0,0
		c0-0.725,0.583-1.315,1.308-1.315h26.908C160.106,248.285,160.705,248.875,160.705,249.6L160.705,249.6z"/>
	<path style="fill:#8DF4FF;" d="M160.705,260.754c0,0.725-0.599,1.315-1.323,1.315h-26.908c-0.725,0-1.308-0.591-1.308-1.315l0,0
		c0-0.725,0.583-1.315,1.308-1.315h26.908C160.106,259.438,160.705,260.029,160.705,260.754L160.705,260.754z"/>
	<path style="fill:#8DF4FF;" d="M160.705,271.907c0,0.725-0.599,1.315-1.323,1.315h-26.908c-0.725,0-1.308-0.591-1.308-1.315l0,0
		c0-0.725,0.583-1.315,1.308-1.315h26.908C160.106,270.592,160.705,271.183,160.705,271.907L160.705,271.907z"/>
	<path style="fill:#8DF4FF;" d="M160.705,283.061c0,0.725-0.599,1.315-1.323,1.315h-26.908c-0.725,0-1.308-0.591-1.308-1.315l0,0
		c0-0.725,0.583-1.315,1.308-1.315h26.908C160.106,281.746,160.705,282.337,160.705,283.061L160.705,283.061z"/>
	<path style="fill:#8DF4FF;" d="M144.447,303.013c0,3.671-2.97,6.648-6.64,6.648l0,0c-3.671,0-6.64-2.977-6.64-6.648l0,0
		c0-3.671,2.97-6.648,6.64-6.648l0,0C141.477,296.365,144.447,299.343,144.447,303.013L144.447,303.013z"/>
</g>
<g>
	<path style="fill:#30C3E5;" d="M371.736,307.858c0,0.992-0.819,1.804-1.812,1.804h-16.4c-1,0-1.804-0.811-1.804-1.804l0,0
		c0-1,0.803-1.804,1.804-1.804h16.4C370.924,306.046,371.736,306.857,371.736,307.858L371.736,307.858z"/>
	<path style="fill:#30C3E5;" d="M371.736,314.75c0,0.992-0.819,1.804-1.812,1.804h-16.4c-1,0-1.804-0.811-1.804-1.804l0,0
		c0-1,0.803-1.804,1.804-1.804h16.4C370.924,312.938,371.736,313.75,371.736,314.75L371.736,314.75z"/>
</g>
<g>
	<path style="fill:#8DF4FF;" d="M371.736,321.642c0,0.992-0.819,1.804-1.812,1.804h-16.4c-1,0-1.804-0.811-1.804-1.804l0,0
		c0-1,0.803-1.804,1.804-1.804h16.4C370.924,319.831,371.736,320.642,371.736,321.642L371.736,321.642z"/>
	<path style="fill:#8DF4FF;" d="M371.736,328.535c0,0.992-0.819,1.804-1.812,1.804h-16.4c-1,0-1.804-0.811-1.804-1.804l0,0
		c0-1,0.803-1.804,1.804-1.804h16.4C370.924,326.723,371.736,327.534,371.736,328.535L371.736,328.535z"/>
	<path style="fill:#8DF4FF;" d="M365.332,301.123c0,1.268-1.024,2.3-2.3,2.3h-2.615c-1.276,0-2.3-1.032-2.3-2.3l0,0
		c0-1.26,1.024-2.292,2.3-2.292h2.615C364.308,298.831,365.332,299.855,365.332,301.123L365.332,301.123z"/>
</g>
<g>
	<rect x="127.669" y="208.246" style="fill:#30C3E5;" width="248.785" height="1.315"/>
	<circle style="fill:#30C3E5;" cx="129.638" cy="208.892" r="1.969"/>
	<circle style="fill:#30C3E5;" cx="374.469" cy="208.892" r="1.969"/>
</g>
<path style="fill:#074170;" d="M409.6,444.554c0,8.696-7.058,15.754-15.754,15.754H110.277c-8.696,0-15.754-7.058-15.754-15.754
	v-39.385c0-8.696,7.058-15.754,15.754-15.754h283.569c8.696,0,15.754,7.058,15.754,15.754V444.554z"/>
<path style="fill:#1E5C9B;" d="M393.846,389.415H110.277c-8.696,0-15.754,7.058-15.754,15.754v9.846
	c0,8.696,7.058,15.754,15.754,15.754h283.569c8.696,0,15.754-7.058,15.754-15.754v-9.846
	C409.6,396.465,402.542,389.415,393.846,389.415z"/>
<path style="fill:#0C4AA5;" d="M268.658,166.64c0,7.57-9.027,2.158-16.597,2.158s-16.597,5.411-16.597-2.158
	s9.027-64.693,16.597-64.693C259.631,101.947,268.658,159.071,268.658,166.64z"/>
<path style="fill:#08375E;" d="M252.062,101.947c7.57,0,16.597,57.123,16.597,64.693s-9.027,2.158-16.597,2.158"/>
<circle style="fill:#FF7C24;" cx="252.062" cy="94.968" r="12.737"/>
<path style="fill:#DD4400;" d="M252.062,82.223c7.05,0,12.737,5.711,12.737,12.737c0,7.05-5.695,12.753-12.737,12.753"/>
<path style="fill:#39E3FF;" d="M252.062,133.037c-10.169,0-19.724-3.962-26.908-11.146c-14.848-14.848-14.848-38.991,0-53.831
	c7.184-7.192,16.738-11.154,26.908-11.154s19.724,3.962,26.923,11.154c14.832,14.84,14.832,38.983,0,53.831
	C271.785,129.075,262.231,133.037,252.062,133.037z M252.062,59.798c-9.397,0-18.227,3.663-24.875,10.303
	c-13.706,13.714-13.706,36.037,0,49.751c6.648,6.64,15.478,10.303,24.875,10.303s18.227-3.663,24.875-10.303
	c13.706-13.714,13.706-36.037,0-49.751C270.289,63.46,261.459,59.798,252.062,59.798z"/>
<path style="fill:#0092FF;" d="M252.062,120.285c-6.751,0-13.123-2.631-17.888-7.404c-9.862-9.878-9.862-25.931,0-35.801
	c4.766-4.781,11.138-7.412,17.888-7.412c6.766,0,13.123,2.631,17.889,7.412c4.781,4.781,7.412,11.138,7.412,17.888
	c0,6.766-2.631,13.123-7.412,17.904C265.185,117.654,258.828,120.285,252.062,120.285z M252.062,72.55
	c-5.986,0-11.618,2.324-15.864,6.569c-8.736,8.736-8.736,22.969,0,31.705c4.246,4.238,9.878,6.569,15.864,6.569
	c6.002,0,11.634-2.332,15.864-6.569c4.23-4.23,6.569-9.87,6.569-15.864c0-5.986-2.339-11.618-6.569-15.848
	C263.696,74.874,258.064,72.55,252.062,72.55z"/>
<path style="fill:#8DF4FF;" d="M252.062,146.129c-13.659,0-26.506-5.317-36.171-14.974c-19.952-19.952-19.952-52.413,0-72.357
	c9.665-9.665,22.504-14.982,36.171-14.982s26.506,5.325,36.171,14.982c19.952,19.936,19.952,52.397,0,72.357
	C278.567,140.812,265.72,146.129,252.062,146.129z M252.062,46.698c-12.895,0-25.017,5.025-34.139,14.139
	c-18.818,18.826-18.818,49.443,0,68.269c9.121,9.121,21.244,14.139,34.139,14.139s25.017-5.018,34.139-14.139
	c18.818-18.826,18.818-49.443,0-68.269C277.079,51.716,264.956,46.698,252.062,46.698z"/>
<g>
</g>
<g>
</g>
<g>
</g>
<g>
</g>
<g>
</g>
<g>
</g>
<g>
</g>
<g>
</g>
<g>
</g>
<g>
</g>
<g>
</g>
<g>
</g>
<g>
</g>
<g>
</g>
<g>
</g>
</svg>
