<?xml version="1.0" encoding="iso-8859-1"?>
<!-- Generator: Adobe Illustrator 19.0.0, SVG Export Plug-In . SVG Version: 6.00 Build 0)  -->
<svg version="1.1" id="Layer_1" xmlns="http://www.w3.org/2000/svg" xmlns:xlink="http://www.w3.org/1999/xlink" x="0px" y="0px"
	 viewBox="0 0 504.131 504.131" style="enable-background:new 0 0 504.131 504.131;" xml:space="preserve">
<path style="fill:#E88C07;" d="M504.123,464.115c0,4.773-3.86,8.641-8.641,8.641H8.641c-4.766,0-8.641-3.86-8.641-8.641V242.829
	c0-4.773,3.868-8.641,8.641-8.641H495.49c4.773,0,8.641,3.86,8.641,8.641v221.286H504.123z"/>
<path style="fill:#EA5706;" d="M0,242.829c0-4.773,3.868-8.641,8.641-8.641H495.49c4.773,0,8.641,3.86,8.641,8.641v221.294
	c0,4.773-3.86,8.641-8.641,8.641"/>
<path style="fill:#041D35;" d="M445.684,447.109c0,4.049-3.261,7.31-7.294,7.31H26.364c-4.033,0-7.31-3.261-7.31-7.31V259.835
	c0-4.049,3.277-7.31,7.31-7.31h412.034c4.033,0,7.294,3.261,7.294,7.31v187.274H445.684z"/>
<g>
	<path style="fill:#020F19;" d="M19.054,259.835c0-4.049,3.277-7.31,7.31-7.31h412.034c4.033,0,7.294,3.261,7.294,7.31v187.274
		c0,4.049-3.261,7.31-7.294,7.31"/>
	<circle style="fill:#020F19;" cx="387.789" cy="396.799" r="40.566"/>
</g>
<g>
	<path style="fill:#E88C07;" d="M387.789,440.193c-23.922,0-43.402-19.472-43.402-43.402c0-23.93,19.48-43.402,43.402-43.402
		c23.938,0,43.402,19.472,43.402,43.402C431.191,420.721,411.735,440.193,387.789,440.193z M387.789,359.061
		c-20.803,0-37.723,16.928-37.723,37.73c0,20.803,16.92,37.73,37.723,37.73s37.738-16.927,37.738-37.73
		C425.527,375.988,408.592,359.061,387.789,359.061z"/>
	<path style="fill:#E88C07;" d="M408.379,388.418h-12.201v-12.209c0-2.135-1.725-3.828-3.844-3.828h-9.09
		c-2.111,0-3.828,1.701-3.828,3.828v12.209h-12.201c-2.127,0-3.828,1.709-3.828,3.828v9.098c0,2.111,1.709,3.828,3.828,3.828h12.201
		v12.209c0,2.119,1.725,3.82,3.828,3.82h9.09c2.127,0,3.844-1.709,3.844-3.82v-12.209h12.201c2.127,0,3.828-1.725,3.828-3.828
		v-9.098C412.207,390.127,410.498,388.418,408.379,388.418z"/>
</g>
<path style="fill:#EA5706;" d="M408.379,393.475h-12.201v-5.057v-7.144c0-2.135-1.725-3.828-3.844-3.828h-9.09
	c-2.111,0-3.828,1.701-3.828,3.828v7.144v5.057h-12.201c-2.127,0-3.828,1.709-3.828,3.836v4.041c0,2.111,1.709,3.828,3.828,3.828
	h12.201v5.065v7.144c0,2.119,1.725,3.82,3.828,3.82h9.09c2.127,0,3.844-1.709,3.844-3.82v-7.144v-5.065h12.201
	c2.127,0,3.828-1.725,3.828-3.828v-4.041C412.207,395.176,410.498,393.475,408.379,393.475z"/>
<g>
	<circle style="fill:#175077;" cx="387.789" cy="366.276" r="1.772"/>
	<circle style="fill:#175077;" cx="387.789" cy="427.322" r="1.772"/>
	<circle style="fill:#175077;" cx="418.312" cy="396.799" r="1.772"/>
	<circle style="fill:#175077;" cx="357.266" cy="396.799" r="1.772"/>
	<circle style="fill:#175077;" cx="409.364" cy="375.177" r="1.772"/>
	<circle style="fill:#175077;" cx="366.214" cy="418.382" r="1.772"/>
	<circle style="fill:#175077;" cx="409.364" cy="418.382" r="1.772"/>
	<circle style="fill:#175077;" cx="366.214" cy="375.177" r="1.772"/>
</g>
<circle style="fill:#020F19;" cx="76.95" cy="396.799" r="40.566"/>
<path style="fill:#E88C07;" d="M76.95,440.193c-23.938,0-43.402-19.472-43.402-43.402c0-23.93,19.464-43.402,43.402-43.402
	c23.922,0,43.402,19.472,43.402,43.402C120.352,420.721,100.872,440.193,76.95,440.193z M76.95,359.061
	c-20.803,0-37.738,16.928-37.738,37.73c0,20.803,16.935,37.73,37.738,37.73s37.723-16.927,37.723-37.73
	C114.672,375.988,97.745,359.061,76.95,359.061z"/>
<g>
	<circle style="fill:#175077;" cx="76.95" cy="366.276" r="1.772"/>
	<circle style="fill:#175077;" cx="76.95" cy="427.322" r="1.772"/>
	<circle style="fill:#175077;" cx="107.441" cy="396.799" r="1.772"/>
	<circle style="fill:#175077;" cx="46.427" cy="396.799" r="1.772"/>
	<circle style="fill:#175077;" cx="98.54" cy="375.177" r="1.772"/>
	<circle style="fill:#175077;" cx="55.359" cy="418.382" r="1.764"/>
	<circle style="fill:#175077;" cx="98.54" cy="418.382" r="1.772"/>
	<circle style="fill:#175077;" cx="55.359" cy="375.177" r="1.764"/>
</g>
<path style="fill:#0B4B77;" d="M83.858,396.799c0,3.812-3.096,6.908-6.908,6.908s-6.908-3.096-6.908-6.908
	s3.096-14.265,6.908-14.265S83.858,392.979,83.858,396.799z"/>
<path style="fill:#08375E;" d="M76.95,382.534c3.812,0,6.908,10.445,6.908,14.265s-3.096,6.908-6.908,6.908"/>
<circle style="fill:#E88C07;" cx="76.95" cy="378.729" r="15.935"/>
<path style="fill:#EA5706;" d="M92.885,378.729c0,8.799-7.136,15.943-15.935,15.943s-15.935-7.144-15.935-15.943
	s7.136,1.772,15.935,1.772S92.885,369.923,92.885,378.729z"/>
<g>
	<path style="fill:#FFC45C;" d="M82.251,368.765c0,1.867-2.434,0.291-5.427,0.291s-5.427,1.575-5.427-0.291
		c0-1.875,2.434-3.387,5.427-3.387S82.251,366.89,82.251,368.765z"/>
	<path style="fill:#FFC45C;" d="M243.996,400.737c-1.386,0-2.678,0.417-3.757,1.142c-0.48-0.567-0.953-1.142-1.434-1.709v-0.024
		c-0.646-0.693-1.111-2.324-1.111-4.238s0.465-3.552,1.111-4.238v-0.016c0.48-0.567,0.953-1.15,1.434-1.709
		c1.079,0.717,2.371,1.142,3.757,1.142c3.726,0,6.751-3.033,6.751-6.75c0-3.718-3.033-6.751-6.751-6.751
		c-3.718,0-6.751,3.033-6.751,6.751c0,1.386,0.417,2.678,1.142,3.757c-0.677,0.567-1.371,1.15-2.048,1.725
		c-0.803,0.536-2.261,0.89-3.954,0.89c-1.709,0-3.167-0.354-3.97-0.89c-0.677-0.575-1.371-1.15-2.048-1.725
		c0.725-1.079,1.142-2.371,1.142-3.757c0-3.726-3.033-6.751-6.751-6.751s-6.751,3.033-6.751,6.751c0,3.718,3.033,6.75,6.751,6.75
		c1.402,0,2.678-0.425,3.757-1.142c0.48,0.559,0.953,1.142,1.434,1.709v0.016c0.662,0.685,1.111,2.324,1.111,4.238
		s-0.449,3.545-1.111,4.238v0.008c-0.48,0.575-0.953,1.15-1.434,1.717c-1.079-0.725-2.371-1.142-3.757-1.142
		c-3.726,0-6.751,3.033-6.751,6.751c0,3.718,3.033,6.743,6.751,6.743s6.751-3.025,6.751-6.743c0-1.394-0.417-2.686-1.142-3.757
		c0.677-0.567,1.371-1.15,2.048-1.725c0.803-0.536,2.261-0.898,3.97-0.898c1.694,0,3.151,0.362,3.954,0.898
		c0.677,0.567,1.371,1.15,2.048,1.725c-0.725,1.071-1.142,2.363-1.142,3.757c0,3.726,3.033,6.743,6.751,6.743
		c3.718,0,6.751-3.025,6.751-6.743C250.746,403.762,247.713,400.737,243.996,400.737z"/>
	<path style="fill:#FFC45C;" d="M259.277,273.872c0,1.993-1.615,3.608-3.6,3.608h-46.6c-2.001,0-3.616-1.615-3.616-3.608l0,0
		c0-2.001,1.615-3.616,3.616-3.616h46.6C257.662,270.256,259.277,271.871,259.277,273.872L259.277,273.872z"/>
	<path style="fill:#FFC45C;" d="M259.277,288.31c0,1.993-1.615,3.608-3.6,3.608h-46.6c-2.001,0-3.616-1.615-3.616-3.608l0,0
		c0-2.001,1.615-3.616,3.616-3.616h46.6C257.662,284.695,259.277,286.309,259.277,288.31L259.277,288.31z"/>
	<path style="fill:#FFC45C;" d="M259.277,302.749c0,1.993-1.615,3.608-3.6,3.608h-46.6c-2.001,0-3.616-1.615-3.616-3.608l0,0
		c0-2.001,1.615-3.616,3.616-3.616h46.6C257.662,299.133,259.277,300.748,259.277,302.749L259.277,302.749z"/>
	<path style="fill:#FFC45C;" d="M259.277,317.187c0,1.993-1.615,3.608-3.6,3.608h-46.6c-2.001,0-3.616-1.615-3.616-3.608l0,0
		c0-2.001,1.615-3.616,3.616-3.616h46.6C257.662,313.571,259.277,315.186,259.277,317.187L259.277,317.187z"/>
	<path style="fill:#FFC45C;" d="M259.277,331.625c0,1.993-1.615,3.608-3.6,3.608h-46.6c-2.001,0-3.616-1.615-3.616-3.608l0,0
		c0-2.001,1.615-3.616,3.616-3.616h46.6C257.662,328.01,259.277,329.625,259.277,331.625L259.277,331.625z"/>
</g>
<circle style="fill:#E88C07;" cx="476.79" cy="353.437" r="19.031"/>
<path style="fill:#FEC45E;" d="M476.759,374.476c-11.579,0-21-9.421-21-21c0-11.579,9.421-21,21-21c11.579,0,21,9.421,21,21
	C497.759,365.055,488.338,374.476,476.759,374.476z M476.759,336.407c-9.405,0-17.061,7.656-17.061,17.061
	c0,9.405,7.656,17.061,17.061,17.061c9.397,0,17.061-7.656,17.061-17.061C493.82,344.063,486.164,336.407,476.759,336.407z"/>
<path style="fill:#8DF4FF;" d="M398.265,116.987c-4.695,4.695-12.304,4.695-17.006,0c-82.101-82.109-215.678-82.109-297.779,0
	c-4.703,4.695-12.304,4.695-16.998,0c-4.71-4.71-4.71-12.32,0-17.014c91.475-91.475,240.309-91.475,331.784,0
	C402.968,104.668,402.968,112.277,398.265,116.987z"/>
<path style="fill:#39E3FF;" d="M353.619,157.065c-3.434,3.434-9.019,3.434-12.446,0c-59.983-59.983-157.625-59.983-217.608,0
	c-3.426,3.434-8.995,3.434-12.414,0c-3.442-3.434-3.442-9.003,0-12.43c66.836-66.844,175.6-66.859,242.452,0
	C357.029,148.062,357.045,153.631,353.619,157.065z"/>
<path style="fill:#00CFFF;" d="M314.612,192.046c-2.339,2.339-6.113,2.339-8.436,0c-40.692-40.692-106.913-40.692-147.606,0.016
	c-2.347,2.324-6.112,2.324-8.444-0.016c-2.324-2.324-2.324-6.089,0-8.428c45.355-45.34,119.131-45.355,164.494,0
	C316.944,185.957,316.944,189.723,314.612,192.046z"/>
<g>
</g>
<g>
</g>
<g>
</g>
<g>
</g>
<g>
</g>
<g>
</g>
<g>
</g>
<g>
</g>
<g>
</g>
<g>
</g>
<g>
</g>
<g>
</g>
<g>
</g>
<g>
</g>
<g>
</g>
</svg>
