<?xml version="1.0" encoding="iso-8859-1"?>
<!-- Generator: Adobe Illustrator 19.0.0, SVG Export Plug-In . SVG Version: 6.00 Build 0)  -->
<svg version="1.1" id="Layer_1" xmlns="http://www.w3.org/2000/svg" xmlns:xlink="http://www.w3.org/1999/xlink" x="0px" y="0px"
	 viewBox="0 0 504.12 504.12" style="enable-background:new 0 0 504.12 504.12;" xml:space="preserve">
<g>
	<ellipse style="fill:#003E7C;" cx="253.057" cy="251.078" rx="166.046" ry="73.437"/>
	
		<ellipse transform="matrix(0.7071 -0.7071 0.7071 0.7071 -103.4206 252.4872)" style="fill:#003E7C;" cx="253.069" cy="251.083" rx="166.044" ry="73.428"/>
	<path style="fill:#003E7C;" d="M326.501,251.071c-0.016,91.727-32.894,166.061-73.437,166.061s-73.429-74.342-73.429-166.046
		c0-91.735,32.886-166.093,73.429-166.077C293.607,84.993,326.501,159.344,326.501,251.071z"/>
</g>
<path style="fill:#0068C6;" d="M320.176,318.198c58.258-11.398,98.95-37.14,98.95-67.111c0-19.432-17.164-37.029-45.001-50.152
	c-8.893,24.781-25.663,52.752-48.884,80.045C324.186,293.976,322.492,306.453,320.176,318.198z"/>
<path style="fill:#0050C4;" d="M325.241,280.979c-1.056,12.997-2.749,25.474-5.065,37.218c58.258-11.398,98.95-37.14,98.95-67.111"
	/>
<path style="fill:#0068C6;" d="M185.93,183.951c-58.258,11.398-98.95,37.155-98.942,67.135c0,19.401,17.156,37.014,44.993,50.137
	c8.901-24.781,25.671-52.768,48.9-80.045C181.928,208.181,183.622,195.704,185.93,183.951z"/>
<path style="fill:#0050C4;" d="M180.889,221.178c1.04-12.997,2.741-25.474,5.049-37.234c-58.258,11.398-98.95,37.155-98.942,67.135"
	/>
<path style="fill:#0068C6;" d="M374.125,200.934c10.398-28.971,10.098-53.555-3.631-67.277
	c-13.737-13.737-38.313-14.045-67.285-3.647c7.152,15.139,12.965,33.414,16.983,53.957
	C340.719,187.961,358.978,193.797,374.125,200.934z"/>
<path style="fill:#0050C4;" d="M320.192,183.959c20.519,4.001,38.786,9.83,53.933,16.967c10.398-28.971,10.098-53.555-3.631-67.277"
	/>
<path style="fill:#0068C6;" d="M131.989,301.223c-10.382,28.971-10.082,53.555,3.639,67.277
	c13.737,13.722,38.321,14.045,67.285,3.647c-7.144-15.155-12.958-33.414-16.975-53.957
	C165.41,314.196,147.136,308.375,131.989,301.223z"/>
<path style="fill:#0050C4;" d="M185.93,318.198c-20.519-4.001-38.802-9.815-53.949-16.967
	c-10.382,28.971-10.082,53.555,3.639,67.277"/>
<path style="fill:#0068C6;" d="M303.209,130.01c-13.131-27.845-30.736-45.017-50.145-45.001
	c-29.987-0.016-55.729,40.676-67.127,98.942c11.752-2.308,24.222-4.001,37.242-5.065
	C250.442,155.689,278.421,138.887,303.209,130.01z"/>
<path style="fill:#0050C4;" d="M223.172,178.886c27.27-23.198,55.249-39.999,80.037-48.876
	c-13.131-27.845-30.736-45.017-50.145-45.001"/>
<path style="fill:#0068C6;" d="M282.958,323.255c-27.294,23.213-55.249,39.983-80.045,48.892
	c13.139,27.829,30.736,44.985,50.152,44.985c29.964,0,55.714-40.676,67.119-98.942C308.424,320.513,295.963,322.207,282.958,323.255
	z"/>
<path style="fill:#0050C4;" d="M282.958,323.255c-27.294,23.213-55.249,39.983-80.045,48.892
	c13.139,27.829,30.736,44.985,50.152,44.985"/>
<path style="fill:#0068C6;" d="M325.241,280.979c0.788-9.72,1.245-19.692,1.26-29.909c0-23.906-2.276-46.584-6.309-67.111
	c-20.535-4.049-43.229-6.325-67.135-6.325c-10.232,0-20.181,0.48-29.885,1.245c-7.428,6.325-14.809,13.044-22.032,20.275
	c-7.239,7.215-13.95,14.588-20.252,22.016c-0.788,9.72-1.252,19.677-1.252,29.909c0,23.906,2.276,46.568,6.302,67.111
	c20.535,4.049,43.205,6.325,67.119,6.325c10.216,0,20.181-0.48,29.901-1.26c7.42-6.309,14.801-13.028,22.024-20.244
	C312.213,295.78,318.932,288.376,325.241,280.979z"/>
<path style="fill:#0050C4;" d="M201.14,199.162c-7.239,7.215-13.95,14.588-20.252,22.016c-0.788,9.72-1.252,19.677-1.252,29.909
	c0,23.906,2.276,46.568,6.302,67.111c20.535,4.049,43.205,6.325,67.119,6.325c10.216,0,20.181-0.48,29.901-1.26
	c7.42-6.309,14.801-13.028,22.024-20.244c7.231-7.231,13.95-14.627,20.259-22.032"/>
<path style="fill:#FF9827;" d="M78.363,425.749C31.96,379.346,6.407,317.686,6.399,252.071c0-65.599,25.561-127.291,71.964-173.694
	c95.776-95.768,251.613-95.768,347.388,0s95.776,251.597,0,347.388c-95.76,95.783-251.597,95.783-347.388,0l0,0
	C78.363,425.765,78.363,425.749,78.363,425.749z M387.414,116.714c-74.634-74.634-196.072-74.634-270.698,0
	c-36.155,36.155-56.076,84.212-56.06,135.357c-0.008,51.121,19.897,99.186,56.06,135.341l0.008,0.016l0,0
	c74.634,74.634,196.072,74.634,270.69,0C462.04,312.778,462.04,191.348,387.414,116.714z"/>
<g>
	<path style="fill:#FF7C24;" d="M407.185,96.951C321.633,11.423,182.472,11.439,96.96,96.966
		c-41.448,41.409-64.276,96.516-64.276,155.104c0.016,58.596,22.819,113.68,64.252,155.104h0.008
		c85.536,85.536,224.689,85.52,310.233,0C492.704,321.656,492.697,182.486,407.185,96.951z M116.715,387.428l-0.008-0.016
		C80.544,351.257,60.64,303.2,60.647,252.071c-0.016-51.137,19.905-99.202,56.06-135.357c74.634-74.634,196.072-74.634,270.698,0
		s74.634,196.065,0,270.706C312.788,462.054,191.349,462.054,116.715,387.428z"/>
	
		<rect x="409.121" y="43.612" transform="matrix(-0.7068 -0.7074 0.7074 -0.7068 663.8532 437.9364)" style="fill:#FF7C24;" width="27.12" height="75.57"/>
</g>
<path style="fill:#FF9827;" d="M437.535,66.593c-15.218-15.202-15.218-39.968-0.008-55.17c15.21-15.218,39.944-15.218,55.178-0.016
	c15.218,15.218,15.218,39.968,0.016,55.186C477.486,81.811,452.745,81.811,437.535,66.593z M473.532,30.595
	c-4.632-4.647-12.201-4.647-16.841,0c-4.632,4.632-4.632,12.201,0.008,16.833c4.647,4.632,12.209,4.632,16.849,0
	C478.187,42.797,478.187,35.227,473.532,30.595z"/>
<rect x="43.564" y="409.151" transform="matrix(0.707 -0.7073 0.7073 0.707 -275.1211 181.4137)" style="fill:#FF7C24;" width="75.592" height="27.114"/>
<path style="fill:#FF9827;" d="M11.409,492.719l-0.008-0.016c-15.202-15.218-15.202-39.952,0.008-55.17
	c15.226-15.218,39.968-15.218,55.17,0c15.218,15.202,15.226,39.952,0.039,55.17C51.376,507.913,26.635,507.913,11.409,492.719z
	 M47.414,456.698c-4.632-4.647-12.186-4.647-16.833,0c-4.64,4.647-4.64,12.201-0.008,16.833c4.655,4.647,12.225,4.647,16.864,0
	C52.069,468.915,52.054,461.329,47.414,456.698z"/>
<g>
	<path style="fill:#229BFF;" d="M132.438,371.698c-30.917-30.909-2.135-108.111,65.497-175.742
		c67.647-67.647,144.841-96.414,175.75-65.505s2.135,108.095-65.504,175.742S163.347,402.607,132.438,371.698z M367.296,136.839
		c-26.411-26.419-101.037,3.584-162.958,65.504s-91.916,136.554-65.504,162.966c26.411,26.403,101.037-3.584,162.958-65.505
		S393.699,163.259,367.296,136.839z"/>
	<path style="fill:#229BFF;" d="M220.202,406.222c-27.396-27.404-45.095-88.292-45.095-155.136c0-44.969,7.775-87.339,21.898-119.28
		c14.627-33.091,34.548-51.326,56.052-51.326c11.563,0,22.607,5.199,32.855,15.431c27.404,27.404,45.103,88.308,45.103,155.152
		c0,44.969-7.782,87.324-21.898,119.264c-14.643,33.091-34.548,51.326-56.052,51.326
		C241.494,421.653,230.442,416.454,220.202,406.222z M279.531,102.315c-8.483-8.476-17.4-12.8-26.466-12.8
		c-17.463,0-34.887,16.754-47.789,45.954c-13.619,30.799-21.126,71.861-21.126,115.617c0,64.567,16.66,122.967,42.449,148.74
		c8.491,8.491,17.392,12.8,26.466,12.8c17.455,0,34.871-16.754,47.781-45.954c13.619-30.799,21.126-71.861,21.142-115.602
		C321.988,186.488,305.313,128.104,279.531,102.315z"/>
	<path style="fill:#229BFF;" d="M97.913,283.933c-10.248-10.248-15.447-21.291-15.439-32.847c0-21.52,18.227-41.433,51.326-56.06
		c31.933-14.123,74.287-21.89,119.264-21.89c66.859,0,127.756,17.692,155.144,45.095c10.24,10.232,15.439,21.276,15.439,32.863
		c0,21.504-18.219,41.401-51.334,56.044c-31.933,14.123-74.287,21.89-119.257,21.89C186.198,329.028,125.293,311.329,97.913,283.933
		z M401.821,224.612c-25.781-25.781-84.181-42.449-148.764-42.449c-43.748,0-84.795,7.507-115.617,21.126
		c-29.192,12.926-45.938,30.342-45.938,47.797c0,9.058,4.309,17.967,12.8,26.459c25.773,25.781,84.165,42.449,148.756,42.449
		c43.741,0,84.803-7.507,115.602-21.126c29.192-12.91,45.938-30.342,45.938-47.781C414.597,242.012,410.296,233.103,401.821,224.612
		z"/>
</g>
<circle style="fill:#FF9827;" cx="253.065" cy="251.078" r="29.365"/>
<path style="fill:#FF7C24;" d="M273.836,230.315c11.469,11.461,11.469,30.058,0,41.519c-11.477,11.477-30.074,11.477-41.535,0"/>
<g>
	<circle style="fill:#0050C4;" cx="134.47" cy="132.483" r="2.505"/>
	<path style="fill:#0050C4;" d="M149.121,147.135c-0.977,0.985-2.56,0.985-3.545,0c-0.969-0.969-0.992-2.568,0-3.537
		c0.961-1,2.568-0.985,3.537,0C150.098,144.575,150.098,146.166,149.121,147.135z"/>
	<circle style="fill:#0050C4;" cx="160.212" cy="158.233" r="2.513"/>
	<path style="fill:#0050C4;" d="M347.659,345.688c-0.961,0.985-2.544,0.985-3.529,0c-0.969-0.969-0.977-2.568,0-3.537
		c0.985-0.985,2.568-0.969,3.529,0C348.659,343.12,348.659,344.719,347.659,345.688z"/>
	<circle style="fill:#0050C4;" cx="358.789" cy="356.787" r="2.513"/>
	<circle style="fill:#0050C4;" cx="371.644" cy="369.665" r="2.513"/>
</g>
<g>
</g>
<g>
</g>
<g>
</g>
<g>
</g>
<g>
</g>
<g>
</g>
<g>
</g>
<g>
</g>
<g>
</g>
<g>
</g>
<g>
</g>
<g>
</g>
<g>
</g>
<g>
</g>
<g>
</g>
</svg>
