<?xml version="1.0" encoding="iso-8859-1"?>
<!-- Generator: Adobe Illustrator 19.0.0, SVG Export Plug-In . SVG Version: 6.00 Build 0)  -->
<svg version="1.1" id="Layer_1" xmlns="http://www.w3.org/2000/svg" xmlns:xlink="http://www.w3.org/1999/xlink" x="0px" y="0px"
	 viewBox="0 0 504.123 504.123" style="enable-background:new 0 0 504.123 504.123;" xml:space="preserve">
<path style="fill:#0C4AA5;" d="M447.354,467.283c-11.768-73.98-93.562-131.285-192.788-131.285
	c-99.233,0-181.012,57.305-192.788,131.285H447.354z"/>
<path style="fill:#08375E;" d="M504.123,484.131c0,4.458-3.623,8.082-8.09,8.082H8.09c-4.466,0-8.09-3.623-8.09-8.082v-26.955
	c0-4.466,3.623-8.082,8.09-8.082h487.936c4.466,0,8.09,3.616,8.09,8.082v26.955H504.123z"/>
<path style="fill:#0C4AA5;" d="M299.859,347.152c0,20.661-24.631,5.908-45.292,5.908s-45.292,14.753-45.292-5.908
	c0-20.661,24.631-176.577,45.292-176.577S299.859,326.491,299.859,347.152z"/>
<path style="fill:#08375E;" d="M254.566,170.575c20.661,0,45.292,155.916,45.292,176.577c0,20.661-24.631,5.908-45.292,5.908"/>
<circle style="fill:#FF7C24;" cx="254.566" cy="151.536" r="34.784"/>
<path style="fill:#DD4400;" d="M254.566,116.752c19.212,0,34.784,15.581,34.784,34.784c0,19.212-15.573,34.792-34.784,34.792"/>
<path style="fill:#08375E;" d="M447.354,467.283c-11.768-73.98-93.562-114.215-192.788-114.215
	c-99.233,0-181.012,40.235-192.788,114.215H447.354z"/>
<path style="fill:#39E3FF;" d="M254.566,255.425c-27.75,0-53.831-10.799-73.46-30.421c-40.511-40.519-40.511-106.425,0-146.928
	c19.629-19.621,45.71-30.421,73.46-30.421s53.831,10.799,73.46,30.421c40.511,40.511,40.511,106.417,0,146.928
	C308.397,244.626,282.325,255.425,254.566,255.425z M254.566,55.524c-25.647,0-49.759,9.988-67.891,28.113
	c-37.431,37.431-37.431,98.351,0,135.79c18.133,18.133,42.244,28.113,67.891,28.113s49.751-9.988,67.891-28.113
	c37.431-37.439,37.431-98.359,0-135.79C304.325,65.512,280.214,55.524,254.566,55.524z"/>
<path style="fill:#0092FF;" d="M254.566,220.617c-18.456,0-35.801-7.184-48.845-20.228c-26.923-26.939-26.923-70.766,0-97.697
	c13.044-13.044,30.389-20.228,48.845-20.228c18.456,0,35.801,7.184,48.845,20.228c13.052,13.044,20.236,30.389,20.236,48.845
	s-7.184,35.801-20.236,48.853C290.367,213.433,273.022,220.617,254.566,220.617z M254.566,90.333
	c-16.352,0-31.72,6.365-43.276,17.92c-23.851,23.859-23.851,62.692,0,86.56c11.555,11.563,26.923,17.92,43.276,17.92
	s31.72-6.365,43.276-17.92c11.563-11.563,17.928-26.939,17.928-43.284s-6.372-31.712-17.928-43.276
	C286.295,96.697,270.927,90.333,254.566,90.333z"/>
<path style="fill:#8DF4FF;" d="M254.566,291.163c-37.305,0-72.365-14.525-98.729-40.889c-54.437-54.453-54.437-143.037,0-197.474
	c26.372-26.372,61.424-40.889,98.729-40.889c37.289,0,72.357,14.525,98.721,40.889c54.445,54.437,54.445,143.021,0,197.474
	C326.924,276.645,291.864,291.163,254.566,291.163z M254.566,19.779c-35.194,0-68.277,13.698-93.16,38.581
	c-51.365,51.365-51.365,134.955,0,186.336c24.883,24.883,57.966,38.581,93.16,38.581c35.186,0,68.277-13.698,93.16-38.581
	c51.365-51.381,51.365-134.971,0-186.336C322.844,33.477,289.753,19.779,254.566,19.779z"/>
<g>
	<circle style="fill:#0C4AA5;" cx="134.451" cy="424.645" r="7.223"/>
	<circle style="fill:#0C4AA5;" cx="174.49" cy="424.645" r="7.215"/>
	<circle style="fill:#0C4AA5;" cx="214.528" cy="424.645" r="7.223"/>
	<circle style="fill:#0C4AA5;" cx="254.566" cy="424.645" r="7.215"/>
	<circle style="fill:#0C4AA5;" cx="294.605" cy="424.645" r="7.223"/>
	<circle style="fill:#0C4AA5;" cx="334.643" cy="424.645" r="7.215"/>
	<circle style="fill:#0C4AA5;" cx="374.705" cy="424.645" r="7.223"/>
</g>
<g>
</g>
<g>
</g>
<g>
</g>
<g>
</g>
<g>
</g>
<g>
</g>
<g>
</g>
<g>
</g>
<g>
</g>
<g>
</g>
<g>
</g>
<g>
</g>
<g>
</g>
<g>
</g>
<g>
</g>
</svg>
