<?xml version="1.0" encoding="iso-8859-1"?>
<!-- Generator: Adobe Illustrator 19.0.0, SVG Export Plug-In . SVG Version: 6.00 Build 0)  -->
<svg version="1.1" id="Layer_1" xmlns="http://www.w3.org/2000/svg" xmlns:xlink="http://www.w3.org/1999/xlink" x="0px" y="0px"
	 viewBox="0 0 504.123 504.123" style="enable-background:new 0 0 504.123 504.123;" xml:space="preserve">
<path style="fill:#064093;" d="M390.632,488.29c0,8.743-7.089,15.833-15.84,15.833H129.323c-8.736,0-15.833-7.081-15.833-15.833
	V15.84c0-8.743,7.089-15.84,15.833-15.84h245.469c8.743,0,15.84,7.089,15.84,15.84L390.632,488.29L390.632,488.29z"/>
<path style="fill:#05346D;" d="M113.491,15.84c0-8.743,7.089-15.84,15.833-15.84h245.469c8.743,0,15.84,7.089,15.84,15.84v472.45
	c0,8.743-7.089,15.833-15.84,15.833"/>
<rect x="113.491" y="52.515" style="fill:#15E5AA;" width="277.11" height="399.092"/>
<polyline style="fill:#09C8D6;" points="390.632,451.608 390.632,52.515 113.491,52.515 "/>
<path style="fill:#06B6ED;" d="M494.954,389.939h-22.449v-148.37h-57.769v72.2h-13.123v-36.762h-35.446v-23.631L307.09,191.59
	v-41.929H190.243V307.2h-26.246v-30.192h-24.308l-41.354,77.462h-11.8v-19.692H28.767v55.162H9.161C4.104,389.939,0,394.043,0,399.1
	c0,5.065,4.104,9.169,9.161,9.169h485.793c5.065,0,9.169-4.104,9.169-9.169C504.123,394.043,500.019,389.939,494.954,389.939z
	 M270.336,173.946h15.754V189.7h-15.754V173.946z M270.336,198.561h15.754v15.754h-15.754V198.561z M270.336,223.177h15.754v15.754
	h-15.754V223.177z M270.336,247.792h15.754v15.754h-15.754V247.792z M270.336,272.408h15.754v15.754h-15.754V272.408z
	 M270.336,297.023h15.754v15.754h-15.754V297.023z M270.336,321.638h15.754v15.754h-15.754V321.638z M270.336,346.254h15.754v15.754
	h-15.754V346.254z M240.798,173.946h15.754V189.7h-15.754V173.946z M240.798,198.561h15.754v15.754h-15.754V198.561z
	 M240.798,223.177h15.754v15.754h-15.754V223.177z M240.798,247.792h15.754v15.754h-15.754V247.792z M240.798,272.408h15.754v15.754
	h-15.754V272.408z M240.798,297.023h15.754v15.754h-15.754V297.023z M240.798,321.638h15.754v15.754h-15.754V321.638z
	 M240.798,346.254h15.754v15.754h-15.754V346.254z M211.259,173.946h15.754V189.7h-15.754V173.946z M211.259,198.561h15.754v15.754
	h-15.754V198.561z M211.259,223.177h15.754v15.754h-15.754V223.177z M211.259,247.792h15.754v15.754h-15.754V247.792z
	 M211.259,272.408h15.754v15.754h-15.754V272.408z M211.259,297.023h15.754v15.754h-15.754V297.023z M211.259,321.638h15.754v15.754
	h-15.754V321.638z M211.259,346.254h15.754v15.754h-15.754V346.254z"/>
<path style="fill:#0B9BD3;" d="M113.491,408.269h277.142V277.008h-24.458v-23.631l-59.077-61.787v-41.929H190.243V307.2h-26.246
	v-30.192h-24.308l-26.199,49.073C113.491,326.081,113.491,408.269,113.491,408.269z M270.336,173.946h15.754V189.7h-15.754V173.946z
	 M270.336,198.561h15.754v15.754h-15.754V198.561z M270.336,223.177h15.754v15.754h-15.754V223.177z M270.336,247.792h15.754v15.754
	h-15.754V247.792z M270.336,272.408h15.754v15.754h-15.754V272.408z M270.336,297.023h15.754v15.754h-15.754V297.023z
	 M270.336,321.638h15.754v15.754h-15.754V321.638z M270.336,346.254h15.754v15.754h-15.754V346.254z M240.798,173.946h15.754V189.7
	h-15.754V173.946z M240.798,198.561h15.754v15.754h-15.754V198.561z M240.798,223.177h15.754v15.754h-15.754V223.177z
	 M240.798,247.792h15.754v15.754h-15.754V247.792z M240.798,272.408h15.754v15.754h-15.754V272.408z M240.798,297.023h15.754v15.754
	h-15.754V297.023z M240.798,321.638h15.754v15.754h-15.754V321.638z M240.798,346.254h15.754v15.754h-15.754V346.254z
	 M211.259,173.946h15.754V189.7h-15.754V173.946z M211.259,198.561h15.754v15.754h-15.754V198.561z M211.259,223.177h15.754v15.754
	h-15.754V223.177z M211.259,247.792h15.754v15.754h-15.754V247.792z M211.259,272.408h15.754v15.754h-15.754V272.408z
	 M211.259,297.023h15.754v15.754h-15.754V297.023z M211.259,321.638h15.754v15.754h-15.754V321.638z M211.259,346.254h15.754v15.754
	h-15.754V346.254z"/>
<g>
	<path style="fill:#0D7DD1;" d="M366.167,253.377L307.09,191.59v-41.929H190.243v13.391l24.663,35.509h12.107v15.754h-1.166
		l14.95,21.528v-12.666h15.754v15.754h-13.619l6.152,8.862h7.459v10.736l13.785,19.85v-5.971h15.754v15.754h-8.964l6.152,8.862
		h2.804v4.049l74.445,107.197h30.09V277.008h-24.458v-23.631H366.167z M227.013,189.7h-15.754v-15.754h15.754V189.7z
		 M256.551,214.315h-15.754v-15.754h15.754V214.315z M256.551,189.7h-15.754v-15.754h15.754V189.7z M286.09,263.546h-15.754v-15.754
		h15.754V263.546z M286.09,238.931h-15.754v-15.754h15.754V238.931z M286.09,214.315h-15.754v-15.754h15.754V214.315z M286.09,189.7
		h-15.754v-15.754h15.754V189.7z"/>
	<rect x="160.366" y="421.085" style="fill:#0D7DD1;" width="17.723" height="17.723"/>
	<rect x="334.643" y="421.085" style="fill:#0D7DD1;" width="17.723" height="17.723"/>
	<circle style="fill:#0D7DD1;" cx="256.394" cy="429.922" r="9.846"/>
	<path style="fill:#0D7DD1;" d="M372.287,73.949c-0.071,0-0.142,0.039-0.205,0.047v-1.772c0-1.103-0.89-1.985-1.969-1.985h-34.139
		c-1.095,0-1.985,0.882-1.985,1.985v12.115c0,1.095,0.89,1.977,1.985,1.977h34.139c1.079,0,1.969-0.882,1.969-1.977v-1.78
		c0.071,0.008,0.142,0.047,0.205,0.047c1.024,0,1.851-0.827,1.851-1.851V75.8C374.138,74.784,373.311,73.949,372.287,73.949z"/>
	<path style="fill:#0D7DD1;" d="M280.663,83.448c0,1.221-0.992,2.213-2.213,2.213l0,0c-1.221,0-2.213-0.992-2.213-2.213V73.106
		c0-1.221,0.992-2.213,2.213-2.213l0,0c1.221,0,2.213,0.992,2.213,2.213V83.448z"/>
	<path style="fill:#0D7DD1;" d="M289.28,83.448c0,1.221-0.992,2.213-2.213,2.213l0,0c-1.221,0-2.213-0.992-2.213-2.213V73.106
		c0-1.221,0.992-2.213,2.213-2.213l0,0c1.221,0,2.213,0.992,2.213,2.213V83.448z"/>
	<path style="fill:#0D7DD1;" d="M297.889,83.448c0,1.221-0.992,2.213-2.213,2.213l0,0c-1.221,0-2.213-0.992-2.213-2.213V73.106
		c0-1.221,0.992-2.213,2.213-2.213l0,0c1.221,0,2.213,0.992,2.213,2.213V83.448z"/>
	<path style="fill:#0D7DD1;" d="M306.507,83.448c0,1.221-1,2.213-2.213,2.213l0,0c-1.221,0-2.213-0.992-2.213-2.213V73.106
		c0-1.221,0.992-2.213,2.213-2.213l0,0c1.213,0,2.213,0.992,2.213,2.213V83.448z"/>
	<path style="fill:#0D7DD1;" d="M315.124,83.448c0,1.221-0.992,2.213-2.213,2.213l0,0c-1.213,0-2.213-0.992-2.213-2.213V73.106
		c0-1.221,1-2.213,2.213-2.213l0,0c1.221,0,2.213,0.992,2.213,2.213V83.448z"/>
</g>
<path style="fill:#FF7C24;" d="M183.083,212.913c0,31.303-38.219,125.125-69.53,125.125c-31.303,0-69.514-93.822-69.514-125.125
	c0-31.311,38.219-56.69,69.514-56.69C144.872,156.223,183.083,181.61,183.083,212.913z"/>
<path style="fill:#EA5706;" d="M113.554,156.223c31.319,0,69.53,25.387,69.53,56.69s-38.219,125.125-69.53,125.125"/>
<circle style="fill:#08375E;" cx="113.562" cy="216.292" r="35.486"/>
<path style="fill:#032135;" d="M113.562,180.815c19.59,0,35.486,15.888,35.486,35.478s-15.896,35.478-35.486,35.478"/>
<circle style="fill:#EA5706;" cx="113.562" cy="368.325" r="10.587"/>
<g>
	<path style="fill:#06B6ED;" d="M290.784,28.231c0,1.804-1.465,3.277-3.277,3.277h-70.892c-1.812,0-3.277-1.473-3.277-3.277l0,0
		c0-1.812,1.465-3.285,3.277-3.285h70.892C289.319,24.946,290.784,26.419,290.784,28.231L290.784,28.231z"/>
	<path style="fill:#06B6ED;" d="M290.784,475.9c0,1.804-1.465,3.277-3.277,3.277h-70.892c-1.812,0-3.277-1.473-3.277-3.277l0,0
		c0-1.812,1.465-3.285,3.277-3.285h70.892C289.319,472.615,290.784,474.088,290.784,475.9L290.784,475.9z"/>
	<circle style="fill:#06B6ED;" cx="342.032" cy="26.75" r="8.365"/>
</g>
<g>
</g>
<g>
</g>
<g>
</g>
<g>
</g>
<g>
</g>
<g>
</g>
<g>
</g>
<g>
</g>
<g>
</g>
<g>
</g>
<g>
</g>
<g>
</g>
<g>
</g>
<g>
</g>
<g>
</g>
</svg>
