<?xml version="1.0" encoding="iso-8859-1"?>
<!-- Generator: Adobe Illustrator 19.0.0, SVG Export Plug-In . SVG Version: 6.00 Build 0)  -->
<svg version="1.1" id="Layer_1" xmlns="http://www.w3.org/2000/svg" xmlns:xlink="http://www.w3.org/1999/xlink" x="0px" y="0px"
	 viewBox="0 0 504.119 504.119" style="enable-background:new 0 0 504.119 504.119;" xml:space="preserve">
<path style="fill:#61DFE5;" d="M107.562,72.255c87.765-74.098,219.002-63.023,293.1,24.749"/>
<path style="fill:#F47B29;" d="M410.115,108.221c-6.183,5.222-15.455,4.45-20.685-1.757c-68.766-81.432-190.952-91.75-272.4-22.985
	c-6.183,5.23-15.47,4.443-20.693-1.749c-5.215-6.183-4.427-15.462,1.757-20.685C191.901-18.18,332.677-6.285,411.864,87.529
	C417.094,93.728,416.306,102.991,410.115,108.221z"/>
<path style="fill:#F2B02A;" d="M75.811,35.242c-3.174,2.678-5.333,6.577-5.687,11.075l-5.27,62.59l62.582,5.309
	c8.932,0.74,16.786-5.9,17.534-14.809c0.772-8.964-5.845-16.801-14.785-17.55l-30.263-2.56l2.513-30.263
	c0.78-8.948-5.845-16.786-14.801-17.526C83.175,31.106,78.993,32.564,75.811,35.242z"/>
<path style="fill:#F47B29;" d="M144.718,97.107l-59.896-5.049l5.057-59.912c7.704,1.812,13.273,8.743,12.572,16.904l-2.513,30.263
	l30.263,2.56C138.338,82.574,144.222,89.214,144.718,97.107z"/>
<circle style="fill:#61DFE5;" cx="433.462" cy="133.924" r="15.911"/>
<path style="fill:#0EACC1;" d="M423.191,121.762c6.711-5.656,16.723-4.813,22.41,1.906c5.648,6.711,4.805,16.731-1.898,22.402"/>
<path style="fill:#61DFE5;" d="M157.305,446.898c-109.04-36.1-168.18-153.765-132.072-262.814"/>
<path style="fill:#F47B29;" d="M29.857,170.166c7.68,2.528,11.871,10.847,9.318,18.542C5.69,289.887,60.742,399.478,161.945,432.971
	c7.68,2.529,11.871,10.854,9.334,18.55c-2.56,7.672-10.87,11.847-18.59,9.311C36.142,422.259-27.29,296.031,11.306,179.468
	C13.843,171.78,22.161,167.613,29.857,170.166z"/>
<path style="fill:#F2B02A;" d="M142.363,493.332c3.931,1.284,8.373,1.095,12.422-0.945l56.092-28.215l-28.16-56.147
	c-4.057-8.003-13.824-11.232-21.795-7.192c-8.042,4.009-11.28,13.745-7.247,21.756l13.627,27.144L140.197,463.4
	c-8.027,4.017-11.248,13.761-7.215,21.788C134.966,489.197,138.401,492.001,142.363,493.332z"/>
<path style="fill:#F47B29;" d="M159.07,402.228l27.018,53.721l-53.705,27.002c-2.497-7.507,0.52-15.888,7.822-19.551l27.104-13.666
	l-13.627-27.144C150.027,415.272,152.603,406.78,159.07,402.228z"/>
<path style="fill:#61DFE5;" d="M24.492,131.844c2.757-8.334,11.752-12.863,20.07-10.106c8.357,2.765,12.879,11.752,10.13,20.118
	c-2.773,8.334-11.792,12.839-20.126,10.082C26.241,149.166,21.72,140.194,24.492,131.844z"/>
<path style="fill:#0EACC1;" d="M34.567,151.938c-8.334-2.773-12.847-11.737-10.075-20.094c2.757-8.334,11.752-12.863,20.07-10.106"
	/>
<path style="fill:#61DFE5;" d="M455.935,228.029c20.409,113.057-54.697,221.231-167.739,241.625"/>
<path style="fill:#F47B29;" d="M273.766,472.246c-1.465-7.971,3.836-15.612,11.815-17.061
	c104.873-18.92,174.844-119.643,155.908-224.563c-1.434-7.948,3.868-15.62,11.847-17.061c7.964-1.418,15.596,3.899,17.03,11.871
	c21.827,120.816-58.754,236.867-179.586,258.662C282.832,485.518,275.183,480.217,273.766,472.246z"/>
<path style="fill:#F2B02A;" d="M503.858,218.995c-0.733-4.088-3.033-7.885-6.735-10.468l-51.617-35.793l-35.864,51.57
	c-5.073,7.381-3.261,17.51,4.104,22.567c7.365,5.152,17.455,3.332,22.567-4.033l17.329-24.946l24.962,17.282
	c7.373,5.128,17.455,3.316,22.575-4.088C503.78,227.447,504.599,223.098,503.858,218.995z"/>
<path style="fill:#F47B29;" d="M415.857,247.832l34.296-49.404l49.38,34.296c-5.411,5.782-14.202,7.121-20.913,2.458L453.659,217.9
	l-17.329,24.946C431.635,249.549,422.954,251.353,415.857,247.832z"/>
<path style="fill:#61DFE5;" d="M242.667,495.262c-8.649,1.56-16.92-4.167-18.479-12.8c-1.568-8.665,4.175-16.935,12.816-18.519
	c8.641-1.536,16.912,4.222,18.479,12.855C257.035,485.455,251.324,493.702,242.667,495.262z"/>
<path style="fill:#0EACC1;" d="M255.483,476.798c1.552,8.657-4.159,16.904-12.816,18.464c-8.649,1.56-16.92-4.167-18.479-12.8"/>
<g>
</g>
<g>
</g>
<g>
</g>
<g>
</g>
<g>
</g>
<g>
</g>
<g>
</g>
<g>
</g>
<g>
</g>
<g>
</g>
<g>
</g>
<g>
</g>
<g>
</g>
<g>
</g>
<g>
</g>
</svg>
