<?xml version="1.0" encoding="iso-8859-1"?>
<!-- Generator: Adobe Illustrator 19.0.0, SVG Export Plug-In . SVG Version: 6.00 Build 0)  -->
<svg version="1.1" id="Layer_1" xmlns="http://www.w3.org/2000/svg" xmlns:xlink="http://www.w3.org/1999/xlink" x="0px" y="0px"
	 viewBox="0 0 504.096 504.096" style="enable-background:new 0 0 504.096 504.096;" xml:space="preserve">
<polyline style="fill:#064093;" points="68.295,343.57 68.295,72.848 339.017,72.848 "/>
<polyline style="fill:#05346D;" points="68.295,242.036 68.295,72.848 339.017,72.848 "/>
<path style="fill:#F29C2A;" d="M68.295,357.725c-7.822,0-14.171-6.341-14.171-14.155V72.848c0-7.83,6.349-14.171,14.171-14.171
	h270.722c7.814,0,14.163,6.341,14.163,14.171c0,7.814-6.349,14.155-14.163,14.155H82.458V343.57
	C82.458,351.384,76.109,357.725,68.295,357.725z"/>
<rect x="339.647" y="30.631" transform="matrix(-0.7073 -0.7069 0.7069 -0.7073 598.0851 388.5643)" style="fill:#09C8D6;" width="79.674" height="79.666"/>
<path style="fill:#F47B29;" d="M379.488,140.952c-3.631,0-7.255-1.386-10.012-4.151l-56.352-56.32
	c-2.655-2.662-4.143-6.262-4.143-10.012c0-3.773,1.489-7.357,4.143-10.012l56.352-56.304c5.53-5.537,14.494-5.537,20.023,0
	l56.32,56.304c2.662,2.662,4.151,6.262,4.151,10.012c0,3.749-1.489,7.357-4.151,10.012L389.5,136.8
	C386.735,139.573,383.112,140.952,379.488,140.952z M343.184,70.461l36.297,36.289l36.281-36.289l-36.281-36.273L343.184,70.461z"/>
<polyline style="fill:#064093;" points="435.801,160.526 435.801,431.248 165.071,431.248 "/>
<polyline style="fill:#05346D;" points="435.801,262.059 435.801,431.248 165.071,431.248 "/>
<path style="fill:#F29C2A;" d="M435.801,146.355c7.814,0,14.171,6.357,14.171,14.171v270.722c0,7.83-6.357,14.171-14.171,14.171
	h-270.73c-7.822,0-14.171-6.341-14.171-14.171c0-7.814,6.349-14.155,14.171-14.155h256.567V160.526
	C421.638,152.712,427.987,146.355,435.801,146.355z"/>
<polygon style="fill:#09C8D6;" points="124.599,377.307 180.959,433.634 124.599,489.939 68.295,433.634 "/>
<path style="fill:#F47B29;" d="M124.599,363.144c3.639,0,7.255,1.386,10.012,4.151l56.352,56.32
	c2.647,2.662,4.143,6.262,4.143,10.012c0,3.773-1.497,7.357-4.143,10.012l-56.352,56.304c-5.53,5.537-14.509,5.537-20.031,0
	l-56.304-56.296c-2.662-2.662-4.151-6.262-4.151-10.012c0-3.749,1.489-7.357,4.151-10.012l56.304-56.32
	C117.352,364.522,120.984,363.144,124.599,363.144z M160.92,433.634l-36.313-36.289l-36.273,36.289l36.273,36.273L160.92,433.634z"
	/>
<g>
</g>
<g>
</g>
<g>
</g>
<g>
</g>
<g>
</g>
<g>
</g>
<g>
</g>
<g>
</g>
<g>
</g>
<g>
</g>
<g>
</g>
<g>
</g>
<g>
</g>
<g>
</g>
<g>
</g>
</svg>
