<?xml version="1.0" encoding="iso-8859-1"?>
<!-- Generator: Adobe Illustrator 19.0.0, SVG Export Plug-In . SVG Version: 6.00 Build 0)  -->
<svg version="1.1" id="Layer_1" xmlns="http://www.w3.org/2000/svg" xmlns:xlink="http://www.w3.org/1999/xlink" x="0px" y="0px"
	 viewBox="0 0 504.123 504.123" style="enable-background:new 0 0 504.123 504.123;" xml:space="preserve">
<path style="fill:#09C8D6;" d="M385.071,156.491c-8.2,0-15.604,3.379-20.929,8.775c-2.599-13.58-14.517-23.859-28.869-23.859
	c-8.539,0-16.171,3.71-21.52,9.531c-3.466-12.414-14.714-21.599-28.239-21.599c-7.932,0-15.069,3.174-20.37,8.271V29.42
	c0-16.242-13.178-29.42-29.405-29.42c-16.258,0-29.412,13.186-29.412,29.42v114.271v116.901v50.901l-68.584-59.132
	c-9.555-13.139-27.971-16.022-41.094-6.404c-13.131,9.563-15.974,27.971-6.412,41.07l119.115,148.527
	c3.946,5.427,14.1,18.015,25.6,30.279c-3.718,18.306-11.5,31.586,8.72,31.586h125.574c24.978,0,45.214-20.267,45.214-45.261v-17.337
	v-47.529V185.919C414.452,169.677,401.29,156.491,385.071,156.491z"/>
<path style="fill:#0B9BD3;" d="M385.071,156.491c-8.2,0-15.604,3.379-20.929,8.775c-2.599-13.58-14.517-23.859-28.869-23.859
	c-8.539,0-16.171,3.71-21.52,9.531c-3.466-12.414-14.714-21.599-28.239-21.599c-7.932,0-15.069,3.174-20.37,8.271V29.42
	c0-16.242-13.178-29.42-29.405-29.42c-16.258,0-29.412,13.186-29.412,29.42v105.74l208.14,208.163V185.919
	C414.452,169.677,401.29,156.491,385.071,156.491z"/>
<path style="fill:#09C8D6;" d="M265.137,29.42c0-16.242-13.178-29.42-29.405-29.42c-16.258,0-29.412,13.186-29.412,29.42v45.269
	c8.011-0.969,18.519-4.246,30.05-4.246c10.91,0,20.929,2.985,28.767,4.096V29.42z"/>
<path style="fill:#FF7C24;" d="M419.541,486.211c0,9.909-8.034,17.912-17.912,17.912H240.388c-9.909,0-17.928-8.011-17.928-17.912
	l0,0c0-9.886,8.027-17.912,17.928-17.912h161.241C411.506,468.291,419.541,476.325,419.541,486.211L419.541,486.211z"/>
<g>
	<path style="fill:#FF9827;" d="M401.621,468.291H240.38c-6.112,0-11.508,3.08-14.746,7.743c3.237,4.671,8.633,7.735,14.746,7.735
		h161.241c6.105,0,11.492-3.072,14.722-7.735C413.113,471.371,407.733,468.291,401.621,468.291z"/>
	<path style="fill:#FF9827;" d="M396.666,357.912c0,26.325-21.339,47.671-47.663,47.671h-78.95
		c-26.325,0-47.663-21.346-47.663-47.671V223.673c0-26.325,21.339-22.15,47.663-22.15h78.95c26.325,0,47.663-4.167,47.663,22.15
		L396.666,357.912L396.666,357.912z"/>
</g>
<path style="fill:#FF7C24;" d="M349.011,201.515h-76.343l124.006,124.022V223.673C396.666,197.348,375.328,201.515,349.011,201.515z
	"/>
<path style="fill:#FFC729;" d="M243.066,214.977c-1.812,0-3.45-1.26-3.844-3.111l-6.987-32.666V17.723
	c0-2.174,1.764-3.938,3.938-3.938s3.938,1.764,3.938,3.938v161.052l6.798,31.429c0.465,2.127-0.874,4.222-3.017,4.679
	C243.625,214.945,243.342,214.977,243.066,214.977z"/>
<path style="fill:#FF9827;" d="M251.928,152.285c0,8.696-7.058,5.254-15.754,5.254s-15.754,3.45-15.754-5.254
	c0-8.704,7.058-15.754,15.754-15.754S251.928,143.588,251.928,152.285z"/>
<path style="fill:#FF7C24;" d="M251.928,152.285c0,8.696-7.058,5.254-15.754,5.254s-15.754,3.45-15.754-5.254
	c0-8.704,7.058-7.877,15.754-7.877S251.928,143.588,251.928,152.285z"/>
<ellipse style="fill:#FF9827;" cx="235.851" cy="77.454" rx="14.769" ry="11.815"/>
<g>
	<path style="fill:#FFC729;" d="M286.389,216.781c-2.182,0-3.938-1.764-3.938-3.938v-64.819c0-2.174,1.757-3.938,3.938-3.938
		c2.166,0,3.938,1.764,3.938,3.938v64.819C290.328,215.016,288.563,216.781,286.389,216.781z"/>
	<path style="fill:#FFC729;" d="M335.132,218.908c-2.182,0-3.938-1.764-3.938-3.938v-57.596c0-2.174,1.757-3.938,3.938-3.938
		c2.174,0,3.938,1.764,3.938,3.938v57.596C339.07,217.143,337.306,218.908,335.132,218.908z"/>
	<path style="fill:#FFC729;" d="M386.82,221.208c-2.174,0-3.938-1.764-3.938-3.938v-43.158c0-2.174,1.764-3.938,3.938-3.938
		s3.938,1.764,3.938,3.938v43.158C390.758,219.443,389.002,221.208,386.82,221.208z"/>
</g>
<path style="fill:#FF9827;" d="M302.143,152.938c0,8.696-7.058,5.254-15.754,5.254c-8.704,0-15.754,3.45-15.754-5.254
	s7.05-15.754,15.754-15.754C295.093,137.184,302.143,144.242,302.143,152.938z"/>
<path style="fill:#FF7C24;" d="M302.143,152.938c0,8.696-7.058,5.254-15.754,5.254c-8.704,0-15.754,3.45-15.754-5.254
	s7.05-7.877,15.754-7.877C295.093,145.061,302.143,144.242,302.143,152.938z"/>
<path style="fill:#FF9827;" d="M351.87,165.069c0,8.696-7.05,5.254-15.754,5.254c-8.696,0-15.754,3.45-15.754-5.254
	c0-8.704,7.058-15.754,15.754-15.754C344.82,149.315,351.87,156.373,351.87,165.069z"/>
<path style="fill:#FF7C24;" d="M351.87,165.069c0,8.696-7.05,5.254-15.754,5.254c-8.696,0-15.754,3.45-15.754-5.254
	c0-8.704,7.058-7.877,15.754-7.877C344.82,157.192,351.87,156.373,351.87,165.069z"/>
<path style="fill:#FF9827;" d="M401.589,180.326c0,8.696-7.058,5.254-15.754,5.254c-8.696,0-15.754,3.45-15.754-5.254
	s7.058-15.754,15.754-15.754C394.532,164.573,401.589,171.622,401.589,180.326z"/>
<g>
	<path style="fill:#FF7C24;" d="M401.589,180.326c0,8.696-7.058,5.254-15.754,5.254c-8.696,0-15.754,3.45-15.754-5.254
		s7.058-7.877,15.754-7.877C394.532,172.449,401.589,171.622,401.589,180.326z"/>
	<path style="fill:#FF7C24;" d="M271.132,336.163c0,1.489-1.213,2.71-2.71,2.71h-28.058c-1.489,0-2.71-1.213-2.71-2.71l0,0
		c0-1.489,1.213-2.71,2.71-2.71h28.058C269.919,333.454,271.132,334.667,271.132,336.163L271.132,336.163z"/>
	<path style="fill:#FF7C24;" d="M271.132,351.177c0,1.489-1.213,2.71-2.71,2.71h-28.058c-1.489,0-2.71-1.213-2.71-2.71l0,0
		c0-1.489,1.213-2.71,2.71-2.71h28.058C269.919,348.467,271.132,349.688,271.132,351.177L271.132,351.177z"/>
	<path style="fill:#FF7C24;" d="M271.132,366.19c0,1.489-1.213,2.71-2.71,2.71h-28.058c-1.489,0-2.71-1.213-2.71-2.71l0,0
		c0-1.489,1.213-2.71,2.71-2.71h28.058C269.919,363.488,271.132,364.702,271.132,366.19L271.132,366.19z"/>
</g>
<g>
	<path style="fill:#FFC729;" d="M356.959,422.723c0,1.449-3.97,2.623-8.862,2.623h-71.538c-4.899,0-8.862-1.174-8.862-2.623l0,0
		c0-1.457,3.962-2.623,8.862-2.623h71.538C352.989,420.1,356.959,421.266,356.959,422.723L356.959,422.723z"/>
	<path style="fill:#FFC729;" d="M356.959,433.877c0,1.449-3.97,2.623-8.862,2.623h-71.538c-4.899,0-8.862-1.174-8.862-2.623l0,0
		c0-1.457,3.962-2.623,8.862-2.623h71.538C352.989,431.254,356.959,432.419,356.959,433.877L356.959,433.877z"/>
	<path style="fill:#FFC729;" d="M356.959,445.03c0,1.449-3.97,2.623-8.862,2.623h-71.538c-4.899,0-8.862-1.174-8.862-2.623l0,0
		c0-1.457,3.962-2.623,8.862-2.623h71.538C352.989,442.407,356.959,443.573,356.959,445.03L356.959,445.03z"/>
</g>
<path style="fill:#FF9827;" d="M180.996,374.256c9.673,10.673,19.086,17.92,8.405,27.601c-10.681,9.681-27.183,8.862-36.864-1.804
	c-9.681-10.673-8.869-27.175,1.812-36.856C165.037,353.508,171.315,363.575,180.996,374.256z"/>
<g>
</g>
<g>
</g>
<g>
</g>
<g>
</g>
<g>
</g>
<g>
</g>
<g>
</g>
<g>
</g>
<g>
</g>
<g>
</g>
<g>
</g>
<g>
</g>
<g>
</g>
<g>
</g>
<g>
</g>
</svg>
