<?xml version="1.0" encoding="iso-8859-1"?>
<!-- Generator: Adobe Illustrator 19.0.0, SVG Export Plug-In . SVG Version: 6.00 Build 0)  -->
<svg version="1.1" id="Layer_1" xmlns="http://www.w3.org/2000/svg" xmlns:xlink="http://www.w3.org/1999/xlink" x="0px" y="0px"
	 viewBox="0 0 504.123 504.123" style="enable-background:new 0 0 504.123 504.123;" xml:space="preserve">
<polyline style="fill:#C0E0E2;" points="189.956,478.964 65.863,478.964 65.863,336.715 "/>
<polygon style="fill:#0E9BD3;" points="61.326,336.715 61.326,483.501 189.956,483.501 189.956,474.419 70.408,474.419 
	70.408,336.715 "/>
<circle style="fill:#FF9827;" cx="200.724" cy="482.186" r="21.937"/>
<path style="fill:#FF7C24;" d="M216.249,497.695c8.57-8.57,8.57-22.465,0-31.027c-8.57-8.578-22.465-8.578-31.027,0"/>
<path style="fill:#064093;" d="M184.159,197.191c2.402,2.418,2.402,6.317,0,8.712l0,0c-2.402,2.426-6.309,2.402-8.72,0.008
	l-14.95-14.943c-2.418-2.418-2.418-6.333,0-8.736l0,0c2.402-2.395,6.309-2.395,8.704,0L184.159,197.191z"/>
<path style="fill:#05346D;" d="M448.634,124.975c0,4.112-3.356,7.444-7.459,7.444l-6.987,0.016
	c-4.12-0.016-22.804-3.348-22.804-7.459l15.352-33.981c0-4.128,3.34-7.459,7.459-7.444h6.971c4.104-0.016,7.459,3.332,7.444,7.436
	L448.634,124.975z"/>
<path style="fill:#064093;" d="M116.401,106.748c2.71,2.718,2.725,16.88,0.016,19.566l0,0c-2.71,2.725-16.864,2.718-19.566,0
	L70.219,89.907c-2.71-2.71-2.725-7.081-0.016-9.791l0,0c2.71-2.718,7.089-2.733,9.799-0.024L116.401,106.748z"/>
<path style="fill:#05346D;" d="M116.401,106.748c2.71,2.718,2.725,16.88,0.016,19.566l0,0c-2.71,2.725-16.864,2.718-19.566,0
	L70.219,89.907"/>
<path style="fill:#FF7C24;" d="M185.45,245.406h-8.153c-32.784,0-59.447-26.671-59.463-59.463c0-32.76,26.695-59.416,59.463-59.416
	l8.153-0.008c32.768-0.008,59.416,26.663,59.416,59.439S218.218,245.406,185.45,245.406z M177.282,155.829
	c-16.597,0.016-30.137,13.525-30.121,30.121c0,16.612,13.525,30.137,30.137,30.121h8.137c16.612,0.008,30.121-13.509,30.121-30.113
	c0.016-16.605-13.509-30.113-30.106-30.113L177.282,155.829z"/>
<path style="fill:#E86D1A;" d="M185.45,126.519l-8.153,0.008c-30.381-0.016-55.446,22.882-58.967,52.303
	c3.521,29.428,28.601,52.334,58.967,52.334h8.153c30.342-0.016,55.414-22.898,58.951-52.319
	C240.864,149.417,215.792,126.519,185.45,126.519z M215.556,185.958c0,16.605-13.509,30.121-30.121,30.113h-8.137
	c-16.612,0.016-30.137-13.509-30.137-30.121c0-2.458,0.37-4.829,0.953-7.113c-0.567-2.3-0.969-4.663-0.953-7.136
	c-0.016-16.605,13.525-30.098,30.137-30.113h8.153c16.597,0,30.121,13.517,30.106,30.129c0,2.458-0.386,4.821-0.937,7.121
	C215.17,181.122,215.556,183.501,215.556,185.958z"/>
<path style="fill:#313530;" d="M449.233,162.658c0,6.191-5.018,11.217-11.217,11.217H212.5c-6.183,0-11.201-5.025-11.185-11.217
	l-0.031-46.222c0.031-6.191,5.033-11.201,11.217-11.209l225.524-0.008c6.183,0,11.232,5.025,11.217,11.217v46.222H449.233z"/>
<path style="fill:#064093;" d="M449.233,162.658c0,6.191-5.018,11.217-11.217,11.217H212.5c-6.183,0-11.201-5.025-11.185-11.217
	l-0.031-46.222c0.031-6.191,5.033-11.201,11.217-11.209l225.524-0.008c6.183,0,11.232,5.025,11.217,11.217v46.222H449.233z"/>
<path style="fill:#05346D;" d="M438.016,137.602H212.5c-6.183,0-11.201,5.025-11.201,11.217l0.016,13.848
	c-0.016,6.191,5.002,11.217,11.185,11.217h225.524c6.199,0,11.217-5.025,11.217-11.217v-13.863
	C449.233,142.62,444.223,137.602,438.016,137.602z"/>
<path style="fill:#FF9827;" d="M131.123,298.693c-0.016,24.521-25.033,44.418-55.926,44.426
	c-30.862-0.008-55.895-19.873-55.895-44.426c0-24.521,83.984-148.559,114.877-148.551
	C165.049,150.142,131.123,274.172,131.123,298.693z"/>
<g>
	<path style="fill:#FF7C24;" d="M131.123,298.693c-0.016,24.521-25.033,44.418-55.926,44.426
		c-30.862-0.008-7.648-19.889-7.648-44.426c0-24.521,35.738-148.559,66.631-148.551
		C165.049,150.142,131.123,274.172,131.123,298.693z"/>
	<path style="fill:#FF7C24;" d="M305.093,141.186c0.016,26.986-2.292,48.853-29.294,48.853l-175.876-0.008
		c-26.986,0-19.535-21.858-19.551-48.845v-3.269c0-26.971,21.89-48.845,48.861-48.853l156.341,0.008
		c26.986,0,19.551,21.874,19.551,48.853L305.093,141.186z"/>
</g>
<path style="fill:#FF9827;" d="M80.372,137.917c0-26.971,21.89-48.845,48.861-48.853l127.031,0.008"/>
<path style="fill:#E86D1A;" d="M305.124,137.925l-0.032,3.261c0.016,26.986-2.292,48.853-29.294,48.853l-175.876-0.008
	c-26.986,0-19.535-21.858-19.551-48.845v-3.269"/>
<g>
	<path style="fill:#FF9827;" d="M271.529,115.019c0,1.52-1.213,2.765-2.757,2.765H123.451c-1.536,0-2.757-1.229-2.757-2.749l0,0
		c-0.016-1.536,1.213-2.765,2.757-2.749l145.337-0.016C270.293,112.27,271.529,113.491,271.529,115.019L271.529,115.019z"/>
	<path style="fill:#FF9827;" d="M271.545,135.782c-0.016,1.512-1.245,2.757-2.773,2.757l-145.321,0.016
		c-1.536-0.024-2.773-1.252-2.757-2.765l0,0c0-1.52,1.213-2.749,2.757-2.749l145.337-0.016
		C270.293,133.033,271.529,134.27,271.545,135.782L271.545,135.782z"/>
	<path style="fill:#FF9827;" d="M271.529,156.546c0,1.52-1.229,2.749-2.741,2.749H123.451c-1.52,0.008-2.757-1.221-2.757-2.733l0,0
		c0-1.52,1.229-2.749,2.757-2.757l145.321-0.024C270.308,153.805,271.545,155.026,271.529,156.546L271.529,156.546z"/>
</g>
<g>
	<polygon style="fill:#E86105;" points="281.202,2.371 289.3,30.673 297.405,2.371 	"/>
	<polygon style="fill:#E86105;" points="297.389,267.453 289.284,239.151 281.202,267.453 	"/>
</g>
<g>
	<path style="fill:#15E5AA;" d="M475.896,143.84c0,1.386-1.126,2.505-2.521,2.505l0,0c-1.371,0-2.489-1.126-2.489-2.505v-17.873
		c0-1.371,1.126-2.489,2.489-2.489l0,0c1.402,0,2.521,1.126,2.521,2.489V143.84z"/>
	<path style="fill:#15E5AA;" d="M464.451,137.405c-1.371,0-2.489-1.111-2.489-2.489l0,0c0-1.378,1.126-2.497,2.489-2.497h17.865
		c1.386,0,2.505,1.126,2.505,2.497l0,0c0,1.386-1.126,2.489-2.505,2.489H464.451z"/>
</g>
<g>
	<path style="fill:#09C8D6;" d="M449.233,211.677c0,1.662-1.339,3.017-3.017,3.017H336.49c-1.662,0-3.017-1.355-3.017-3.017l0,0
		c0-1.67,1.355-3.017,3.017-3.017h109.726C447.894,208.66,449.233,210.007,449.233,211.677L449.233,211.677z"/>
	<path style="fill:#09C8D6;" d="M449.233,234.583c0,1.678-1.339,3.025-3.017,3.025H336.49c-1.662,0-3.017-1.347-3.017-3.025l0,0
		c0-1.67,1.355-3.017,3.017-3.017h109.726C447.894,231.566,449.233,232.913,449.233,234.583L449.233,234.583z"/>
	<path style="fill:#09C8D6;" d="M449.233,257.497c0,1.67-1.339,3.017-3.017,3.017H336.49c-1.662,0-3.017-1.347-3.017-3.017l0,0
		c0-1.662,1.355-3.017,3.017-3.017h109.726C447.894,254.488,449.233,255.835,449.233,257.497L449.233,257.497z"/>
	<path style="fill:#09C8D6;" d="M449.233,280.411c0,1.654-1.339,3.017-3.017,3.017H336.49c-1.662,0-3.017-1.363-3.017-3.017l0,0
		c0-1.662,1.355-3.009,3.017-3.009h109.726C447.894,277.402,449.233,278.749,449.233,280.411L449.233,280.411z"/>
	<path style="fill:#09C8D6;" d="M449.233,303.325c0,1.646-1.339,2.993-3.017,2.993h-66.324c-1.646,0-3.017-1.347-3.017-2.993l0,0
		c0-1.67,1.371-3.033,3.017-3.033h66.324C447.894,300.292,449.233,301.655,449.233,303.325L449.233,303.325z"/>
	<path style="fill:#09C8D6;" d="M182.158,0c33.28,0,60.353,27.081,60.353,60.345h-4.443c0-30.815-25.096-55.895-55.91-55.895
		c-30.83,0-55.895,25.08-55.895,55.895h-4.443C121.821,27.081,148.878,0,182.158,0z"/>
	<path style="fill:#09C8D6;" d="M182.158,18.723c22.953,0,41.614,18.676,41.614,41.622h-4.443c0-20.496-16.675-37.171-37.171-37.171
		c-20.512,0-37.187,16.675-37.187,37.171h-4.443C140.528,37.4,159.204,18.723,182.158,18.723z"/>
	<path style="fill:#09C8D6;" d="M182.158,38.006c12.32,0,22.355,10.027,22.355,22.339h-4.458c0-9.862-8.034-17.888-17.888-17.888
		c-9.878,0-17.888,8.034-17.888,17.888h-4.443C159.819,48.041,169.838,38.006,182.158,38.006z"/>
</g>
<g>
</g>
<g>
</g>
<g>
</g>
<g>
</g>
<g>
</g>
<g>
</g>
<g>
</g>
<g>
</g>
<g>
</g>
<g>
</g>
<g>
</g>
<g>
</g>
<g>
</g>
<g>
</g>
<g>
</g>
</svg>
