<?xml version="1.0" encoding="iso-8859-1"?>
<!-- Generator: Adobe Illustrator 19.0.0, SVG Export Plug-In . SVG Version: 6.00 Build 0)  -->
<svg version="1.1" id="Layer_1" xmlns="http://www.w3.org/2000/svg" xmlns:xlink="http://www.w3.org/1999/xlink" x="0px" y="0px"
	 viewBox="0 0 504.123 504.123" style="enable-background:new 0 0 504.123 504.123;" xml:space="preserve">
<rect x="386.812" y="57.722" style="fill:#0E9BD3;" width="8.342" height="97.343"/>
<rect x="270.69" y="155.412" style="fill:#0E9BD3;" width="87.591" height="8.342"/>
<rect x="270.69" y="173.143" style="fill:#0E9BD3;" width="87.591" height="8.342"/>
<rect x="270.69" y="190.874" style="fill:#0E9BD3;" width="87.591" height="8.35"/>
<polyline style="fill:#C0E0E2;" points="41.228,335.856 162.217,335.856 233.141,264.932 281.112,264.932 281.112,216.946 
	343.694,216.946 "/>
<polygon style="fill:#0E9BD3;" points="163.935,340.023 41.228,340.023 41.228,331.674 160.492,331.674 231.416,260.758 
	276.937,260.758 276.937,212.779 343.694,212.779 343.694,221.121 285.294,221.121 285.294,269.099 234.858,269.099 "/>
<polyline style="fill:#C0E0E2;" points="103.109,45.206 103.109,159.248 233.834,159.248 "/>
<polygon style="fill:#0E9BD3;" points="233.834,163.415 98.942,163.415 98.942,45.206 107.276,45.206 107.276,155.073 
	233.834,155.073 "/>
<rect x="375.335" y="53.547" style="fill:#0E9BD3;" width="31.295" height="8.35"/>
<path style="fill:#06B6ED;" d="M434.664,206.501c0,33.004-26.75,59.77-59.77,59.77c-33.044,0-59.786-26.758-59.786-59.77
	s26.742-59.77,59.786-59.77C407.906,146.731,434.664,173.481,434.664,206.501z"/>
<g>
	<path style="fill:#0B9BD3;" d="M417.138,164.242c23.355,23.339,23.355,61.18,0,84.519c-23.324,23.347-61.188,23.355-84.519,0"/>
	<circle style="fill:#0B9BD3;" cx="374.863" cy="206.501" r="42.693"/>
</g>
<path style="fill:#0D7DD1;" d="M374.894,163.801c23.568,0,42.677,19.125,42.677,42.701s-19.109,42.693-42.677,42.693"/>
<path style="fill:#0D53B7;" d="M374.894,222.192v26.474l0.323,0.504c17.904-0.134,33.17-11.303,39.369-27.049l-25.923-25.923
	L374.894,222.192z"/>
<path style="fill:#09C8D6;" d="M468.448,288.256c-5.088,0-9.689,2.095-12.997,5.443c-1.615-8.428-9.019-14.816-17.92-14.816
	c-5.309,0-10.043,2.3-13.367,5.916c-2.15-7.711-9.137-13.406-17.542-13.406c-4.923,0-9.358,1.969-12.642,5.128v-67.174
	c0-10.082-8.184-18.267-18.259-18.267c-10.09,0-18.259,8.184-18.259,18.267V280.3v72.594v31.61L314.88,347.79
	c-5.939-8.16-17.369-9.949-25.521-3.986c-8.153,5.939-9.925,17.369-3.986,25.505l73.972,92.231
	c2.45,3.371,8.751,11.185,15.896,18.81c-2.308,11.359-7.136,19.606,5.419,19.606h77.982c15.51,0,28.073-12.587,28.073-28.105v-10.76
	v-29.515V306.523C486.691,296.44,478.523,288.256,468.448,288.256z"/>
<path style="fill:#0B9BD3;" d="M468.448,288.256c-5.088,0-9.689,2.095-12.997,5.443c-1.615-8.428-9.019-14.816-17.92-14.816
	c-5.309,0-10.043,2.3-13.367,5.916c-2.15-7.711-9.137-13.406-17.542-13.406c-4.923,0-9.358,1.969-12.642,5.128v-67.174
	c0-10.082-8.184-18.267-18.259-18.267c-10.09,0-18.259,8.184-18.259,18.267v65.662l129.245,129.26v-97.745
	C486.691,296.44,478.523,288.256,468.448,288.256z"/>
<path style="fill:#09C8D6;" d="M393.972,209.345c0-10.082-8.184-18.267-18.259-18.267c-10.09,0-18.259,8.184-18.259,18.267v28.105
	c4.97-0.599,11.492-2.631,18.66-2.631c6.766,0,12.997,1.843,17.865,2.536v-28.01H393.972z"/>
<path style="fill:#0D53B7;" d="M489.85,492.993c0,6.152-4.986,11.13-11.122,11.13H378.596c-6.152,0-11.138-4.978-11.138-11.13l0,0
	c0-6.136,4.986-11.122,11.138-11.122H478.72C484.864,481.871,489.85,486.857,489.85,492.993L489.85,492.993z"/>
<g>
	<path style="fill:#09C8D6;" d="M147.614,208.392c0,1.528-1.229,2.773-2.773,2.773H44c-1.52,0-2.773-1.237-2.773-2.773l0,0
		c0-1.528,1.245-2.773,2.773-2.773h100.848C146.385,205.619,147.614,206.864,147.614,208.392L147.614,208.392z"/>
	<path style="fill:#09C8D6;" d="M147.614,229.447c0,1.536-1.229,2.781-2.773,2.781H44c-1.52,0-2.773-1.237-2.773-2.781l0,0
		c0-1.528,1.245-2.773,2.773-2.773h100.848C146.385,226.674,147.614,227.919,147.614,229.447L147.614,229.447z"/>
	<path style="fill:#09C8D6;" d="M147.614,250.51c0,1.528-1.229,2.773-2.773,2.773H44c-1.52,0-2.773-1.237-2.773-2.773l0,0
		c0-1.528,1.245-2.781,2.773-2.781h100.848C146.385,247.729,147.614,248.974,147.614,250.51L147.614,250.51z"/>
	<path style="fill:#09C8D6;" d="M147.614,271.565c0,1.512-1.229,2.773-2.773,2.773H44c-1.52,0-2.773-1.252-2.773-2.773l0,0
		c0-1.528,1.245-2.773,2.773-2.773h100.848C146.385,268.792,147.614,270.029,147.614,271.565L147.614,271.565z"/>
	<path style="fill:#09C8D6;" d="M147.614,292.612c0,1.512-1.229,2.757-2.773,2.757H83.889c-1.52,0-2.773-1.237-2.773-2.757l0,0
		c0-1.528,1.245-2.788,2.773-2.788h60.952C146.385,289.831,147.614,291.084,147.614,292.612L147.614,292.612z"/>
</g>
<circle style="fill:#FF9827;" cx="34.438" cy="334.643" r="20.165"/>
<path style="fill:#FF7C24;" d="M20.181,320.378c7.877-7.869,20.645-7.869,28.522,0c7.861,7.877,7.861,20.645,0,28.522"/>
<g>
	<path style="fill:#15E5AA;" d="M186.557,229.809c0,1.355-1.095,2.45-2.45,2.45l0,0c-1.339,0-2.434-1.095-2.434-2.45v-17.384
		c0-1.339,1.095-2.434,2.434-2.434l0,0c1.355,0,2.45,1.095,2.45,2.434V229.809z"/>
	<path style="fill:#15E5AA;" d="M175.419,223.547c-1.323,0-2.418-1.071-2.418-2.426l0,0c0-1.339,1.095-2.434,2.418-2.434h17.4
		c1.339,0,2.434,1.095,2.434,2.434l0,0c0,1.355-1.095,2.426-2.434,2.426H175.419z"/>
	<circle style="fill:#15E5AA;" cx="252.952" cy="149.157" r="6.262"/>
	<circle style="fill:#15E5AA;" cx="252.952" cy="177.31" r="6.262"/>
	<circle style="fill:#15E5AA;" cx="252.952" cy="205.477" r="6.262"/>
	<circle style="fill:#15E5AA;" cx="252.952" cy="233.63" r="6.262"/>
</g>
<circle style="fill:#FF9827;" cx="100.147" cy="35.304" r="20.165"/>
<path style="fill:#FF7C24;" d="M85.89,21.039c7.877-7.869,20.645-7.869,28.522,0c7.877,7.877,7.877,20.645,0,28.514"/>
<circle style="fill:#FF9827;" cx="391.01" cy="20.181" r="20.165"/>
<path style="fill:#FF7C24;" d="M376.722,5.908c7.861-7.877,20.645-7.877,28.522,0c7.861,7.877,7.861,20.645,0,28.514"/>
<g>
</g>
<g>
</g>
<g>
</g>
<g>
</g>
<g>
</g>
<g>
</g>
<g>
</g>
<g>
</g>
<g>
</g>
<g>
</g>
<g>
</g>
<g>
</g>
<g>
</g>
<g>
</g>
<g>
</g>
</svg>
