<svg height="466pt" viewBox="-49 0 466 466.984" width="466pt" xmlns="http://www.w3.org/2000/svg"><path d="m80.492188 306.984375h208v32h-208zm0 0" fill="#e1462b"/><path d="m40.492188 402.984375h288v32h-288zm0 0" fill="#e1462b"/><path d="m184.492188 50.984375-184 416h40l144-336 144 336h40zm0 0" fill="#fc8535"/><path d="m224.492188 42.984375c0 22.089844-17.910157 40-40 40-22.089844 0-40-17.910156-40-40s17.910156-40 40-40c22.089843 0 40 17.910156 40 40zm0 0" fill="#195c85"/><g fill="#dd3e46"><path d="m113.707031 71.222656c-16.800781-26.902344-6.726562-49.511718.953125-57.710937l11.664063 10.945312-5.832031-5.472656 5.886718 5.40625c-.550781.625-13.421875 15.433594.898438 38.351563zm0 0"/><path d="m72.996094 93.800781c-19.082032-50.914062-.289063-85.304687.527344-86.738281l13.9375 7.839844-6.96875-3.917969 6.992187 3.878906c-.65625 1.199219-15.839844 29.738281.503906 73.304688zm0 0"/><path d="m32.765625 117.054688c-18.472656-68.984376-.464844-115.125.300781-117.054688l14.847656 5.96875-7.421874-2.984375 7.433593 2.960937c-.167969.429688-16.714843 43.46875.292969 106.964844zm0 0"/><path d="m255.277344 71.222656-13.601563-8.480468c14.566407-23.300782 1.089844-38.140626.953125-38.285157l11.664063-10.945312c7.710937 8.199219 17.800781 30.808593.984375 57.710937zm0 0"/><path d="m295.988281 93.800781-14.992187-5.601562c16.34375-43.566407 1.160156-72.101563.503906-73.304688l13.960938-7.796875c.816406 1.398438 19.605468 35.789063.527343 86.703125zm0 0"/><path d="m336.21875 117.054688-15.453125-4.144532c17.109375-63.878906.476563-106.519531.300781-106.941406l14.847656-5.96875c.769532 1.929688 18.777344 48.070312.304688 117.054688zm0 0"/></g></svg>