<svg height="464pt" viewBox="0 -31 464 463" width="464pt" xmlns="http://www.w3.org/2000/svg"><path d="m0 80.5h464v320h-464zm0 0" fill="#7d8d9c"/><path d="m282.910156 236.210938-22.621094-22.621094-28.289062 28.285156-28.289062-28.285156-22.621094 22.621094 28.285156 28.289062-28.285156 28.289062 22.621094 22.621094 28.289062-28.285156 28.289062 28.285156 22.621094-22.621094-28.285156-28.289062zm0 0" fill="#143441"/><path d="m112 .5v80h32v-48h176v48h32v-80zm0 0" fill="#143441"/><g fill="#394d5c"><path d="m80 80.5h32v48h-32zm0 0"/><path d="m144 80.5h32v48h-32zm0 0"/><path d="m288 80.5h32v48h-32zm0 0"/><path d="m352 80.5h32v48h-32zm0 0"/><path d="m216 208.5c0 22.089844-17.910156 40-40 40s-40-17.910156-40-40 17.910156-40 40-40 40 17.910156 40 40zm0 0"/><path d="m216 320.5c0 22.089844-17.910156 40-40 40s-40-17.910156-40-40 17.910156-40 40-40 40 17.910156 40 40zm0 0"/><path d="m328 320.5c0 22.089844-17.910156 40-40 40s-40-17.910156-40-40 17.910156-40 40-40 40 17.910156 40 40zm0 0"/><path d="m328 208.5c0 22.089844-17.910156 40-40 40s-40-17.910156-40-40 17.910156-40 40-40 40 17.910156 40 40zm0 0"/></g><path d="m24 360.5h32v16h-32zm0 0" fill="#fff"/><path d="m408 360.5h32v16h-32zm0 0" fill="#fff"/></svg>