<svg height="464pt" viewBox="0 -4 464 464" width="464pt" xmlns="http://www.w3.org/2000/svg"><path d="m72 152h320c39.765625 0 72 32.234375 72 72v160c0 39.765625-32.234375 72-72 72h-320c-39.765625 0-72-32.234375-72-72v-160c0-39.765625 32.234375-72 72-72zm0 0" fill="#394d5c"/><path d="m216 40h32v112h-32zm0 0" fill="#7d8d9c"/><path d="m264 32c0 17.671875-14.328125 32-32 32s-32-14.328125-32-32 14.328125-32 32-32 32 14.328125 32 32zm0 0" fill="#394d5c"/><path d="m144 216h176v208h-176zm0 0" fill="#7fcac9"/><path d="m112 264c0 22.089844-17.910156 40-40 40s-40-17.910156-40-40 17.910156-40 40-40 40 17.910156 40 40zm0 0" fill="#cfdfe8"/><path d="m432 264c0 22.089844-17.910156 40-40 40s-40-17.910156-40-40 17.910156-40 40-40 40 17.910156 40 40zm0 0" fill="#cfdfe8"/><path d="m80 280c-2.121094 0-4.15625-.84375-5.65625-2.34375l-16-16c-3.03125-3.140625-2.988281-8.128906.097656-11.214844 3.085938-3.085937 8.074219-3.128906 11.214844-.097656l16 16c2.285156 2.289062 2.972656 5.730469 1.734375 8.71875s-4.15625 4.9375-7.390625 4.9375zm0 0" fill="#e1462b"/><path d="m384 280c-3.234375 0-6.152344-1.949219-7.390625-4.9375s-.550781-6.429688 1.734375-8.71875l16-16c3.140625-3.03125 8.128906-2.988281 11.214844.097656 3.085937 3.085938 3.128906 8.074219.097656 11.214844l-16 16c-1.5 1.5-3.535156 2.34375-5.65625 2.34375zm0 0" fill="#e1462b"/><path d="m32 336h80v32h-80zm0 0" fill="#fff"/><path d="m352 336h80v32h-80zm0 0" fill="#fff"/><path d="m168 192h-24c-4.417969 0-8-3.582031-8-8s3.582031-8 8-8h24c4.417969 0 8 3.582031 8 8s-3.582031 8-8 8zm0 0" fill="#cfdfe8"/><path d="m320 192h-120c-4.417969 0-8-3.582031-8-8s3.582031-8 8-8h120c4.417969 0 8 3.582031 8 8s-3.582031 8-8 8zm0 0" fill="#cfdfe8"/><g fill="#195c85"><path d="m168 312h128v16h-128zm0 0"/><path d="m224 240h16v160h-16zm0 0"/><path d="m168 240h32v16h-32zm0 0"/><path d="m168 272h16v16h-16zm0 0"/><path d="m264 384h32v16h-32zm0 0"/></g></svg>