<svg height="464pt" viewBox="-56 0 464 464" width="464pt" xmlns="http://www.w3.org/2000/svg"><path d="m0 184h352v280h-352zm0 0" fill="#394d5c"/><path d="m32 216h96v96h-96zm0 0" fill="#cfdfe8"/><path d="m224 216h96v96h-96zm0 0" fill="#cfdfe8"/><path d="m256 184h-160l64-32h32zm0 0" fill="#7d8d9c"/><path d="m176 0c8.835938 0 16 7.164062 16 16v104h-32v-104c0-8.835938 7.164062-16 16-16zm0 0" fill="#7d8d9c"/><path d="m96 264c0 8.835938-7.164062 16-16 16s-16-7.164062-16-16 7.164062-16 16-16 16 7.164062 16 16zm0 0" fill="#394d5c"/><path d="m288 264c0 8.835938-7.164062 16-16 16s-16-7.164062-16-16 7.164062-16 16-16 16 7.164062 16 16zm0 0" fill="#394d5c"/><path d="m160 120h32v32h-32zm0 0" fill="#394d5c"/><path d="m88 352h176v112h-176zm0 0" fill="#7fcac9"/><path d="m192 232c0 8.835938-7.164062 16-16 16s-16-7.164062-16-16 7.164062-16 16-16 16 7.164062 16 16zm0 0" fill="#e1462b"/><path d="m192 296c0 8.835938-7.164062 16-16 16s-16-7.164062-16-16 7.164062-16 16-16 16 7.164062 16 16zm0 0" fill="#e1462b"/><path d="m112 424h16v16h-16zm0 0" fill="#394d5c"/><path d="m144 424h16v16h-16zm0 0" fill="#394d5c"/><path d="m224 376v48h-48v16h64v-64zm0 0" fill="#394d5c"/><g fill="#cfdfe8"><path d="m24 344h40v16h-40zm0 0"/><path d="m24 376h40v16h-40zm0 0"/><path d="m24 408h40v16h-40zm0 0"/><path d="m288 344h40v16h-40zm0 0"/><path d="m288 376h40v16h-40zm0 0"/><path d="m288 408h40v16h-40zm0 0"/></g></svg>