<svg height="464pt" viewBox="0 0 464 464" width="464pt" xmlns="http://www.w3.org/2000/svg"><path d="m256.625 230 31.375-31.375c6.0625-6.277344 5.976562-16.257812-.195312-22.429688-6.171876-6.171874-16.152344-6.257812-22.429688-.195312l-31.375 31.375-31.375-31.375c-6.277344-6.0625-16.257812-5.976562-22.429688.195312-6.171874 6.171876-6.257812 16.152344-.195312 22.429688l31.375 31.375-31.375 31.375c-6.0625 6.277344-5.976562 16.257812.195312 22.429688 6.171876 6.171874 16.152344 6.257812 22.429688.195312l31.375-31.375 31.375 31.375c6.277344 6.0625 16.257812 5.976562 22.429688-.195312 6.171874-6.171876 6.257812-16.152344.195312-22.429688zm0 0" fill="#cfdfe8"/><path d="m224 112c0 61.855469-50.144531 112-112 112s-112-50.144531-112-112 50.144531-112 112-112 112 50.144531 112 112zm0 0" fill="#394d5c"/><path d="m192 112c0 44.183594-35.816406 80-80 80s-80-35.816406-80-80 35.816406-80 80-80 80 35.816406 80 80zm0 0" fill="#7d8d9c"/><path d="m224 352c0 61.855469-50.144531 112-112 112s-112-50.144531-112-112 50.144531-112 112-112 112 50.144531 112 112zm0 0" fill="#394d5c"/><path d="m192 352c0 44.183594-35.816406 80-80 80s-80-35.816406-80-80 35.816406-80 80-80 80 35.816406 80 80zm0 0" fill="#7d8d9c"/><path d="m464 352c0 61.855469-50.144531 112-112 112s-112-50.144531-112-112 50.144531-112 112-112 112 50.144531 112 112zm0 0" fill="#394d5c"/><path d="m432 352c0 44.183594-35.816406 80-80 80s-80-35.816406-80-80 35.816406-80 80-80 80 35.816406 80 80zm0 0" fill="#7d8d9c"/><path d="m464 112c0 61.855469-50.144531 112-112 112s-112-50.144531-112-112 50.144531-112 112-112 112 50.144531 112 112zm0 0" fill="#394d5c"/><path d="m432 112c0 44.183594-35.816406 80-80 80s-80-35.816406-80-80 35.816406-80 80-80 80 35.816406 80 80zm0 0" fill="#7d8d9c"/><g fill="#195c85"><path d="m136 112c0 13.253906-10.746094 24-24 24s-24-10.746094-24-24 10.746094-24 24-24 24 10.746094 24 24zm0 0"/><path d="m136 352c0 13.253906-10.746094 24-24 24s-24-10.746094-24-24 10.746094-24 24-24 24 10.746094 24 24zm0 0"/><path d="m376 352c0 13.253906-10.746094 24-24 24s-24-10.746094-24-24 10.746094-24 24-24 24 10.746094 24 24zm0 0"/><path d="m376 112c0 13.253906-10.746094 24-24 24s-24-10.746094-24-24 10.746094-24 24-24 24 10.746094 24 24zm0 0"/></g></svg>