<svg height="464pt" viewBox="0 -16 464 464" width="464pt" xmlns="http://www.w3.org/2000/svg"><g fill="#7d8d9c"><path d="m74.179688 86.625 22.625-22.625 99.601562 99.597656-22.628906 22.628906zm0 0"/><path d="m96 367.996094-22.628906-22.625 96.003906-96.003906 22.628906 22.628906zm0 0"/><path d="m290.222656 186.226562-22.625-22.628906 99.597656-99.597656 22.628907 22.625zm0 0"/><path d="m267.996094 268.003906 22.628906-22.625 100 100-22.628906 22.628906zm0 0"/></g><path d="m224 104h16c39.765625 0 72 32.234375 72 72v80c0 39.765625-32.234375 72-72 72h-16c-39.765625 0-72-32.234375-72-72v-80c0-39.765625 32.234375-72 72-72zm0 0" fill="#394d5c"/><path d="m56 0h32c30.929688 0 56 25.070312 56 56v32c0 30.929688-25.070312 56-56 56h-32c-30.929688 0-56-25.070312-56-56v-32c0-30.929688 25.070312-56 56-56zm0 0" fill="#394d5c"/><path d="m56 288h32c30.929688 0 56 25.070312 56 56v32c0 30.929688-25.070312 56-56 56h-32c-30.929688 0-56-25.070312-56-56v-32c0-30.929688 25.070312-56 56-56zm0 0" fill="#394d5c"/><path d="m112 72c0 22.089844-17.910156 40-40 40s-40-17.910156-40-40 17.910156-40 40-40 40 17.910156 40 40zm0 0" fill="#aabece"/><path d="m112 360c0 22.089844-17.910156 40-40 40s-40-17.910156-40-40 17.910156-40 40-40 40 17.910156 40 40zm0 0" fill="#aabece"/><path d="m408 144h-32c-30.929688 0-56-25.070312-56-56v-32c0-30.929688 25.070312-56 56-56h32c30.929688 0 56 25.070312 56 56v32c0 30.929688-25.070312 56-56 56zm0 0" fill="#394d5c"/><path d="m408 432h-32c-30.929688 0-56-25.070312-56-56v-32c0-30.929688 25.070312-56 56-56h32c30.929688 0 56 25.070312 56 56v32c0 30.929688-25.070312 56-56 56zm0 0" fill="#394d5c"/><path d="m432 72c0 22.089844-17.910156 40-40 40s-40-17.910156-40-40 17.910156-40 40-40 40 17.910156 40 40zm0 0" fill="#aabece"/><path d="m432 360c0 22.089844-17.910156 40-40 40s-40-17.910156-40-40 17.910156-40 40-40 40 17.910156 40 40zm0 0" fill="#aabece"/><path d="m216 128h32v16h-32zm0 0" fill="#dd3e46"/><path d="m216 160h32v16h-32zm0 0" fill="#dd3e46"/><path d="m216 192h32v16h-32zm0 0" fill="#dd3e46"/><path d="m256 328c0 13.253906-10.746094 24-24 24s-24-10.746094-24-24 10.746094-24 24-24 24 10.746094 24 24zm0 0" fill="#7fcac9"/></svg>