<svg height="464pt" viewBox="0 -56 464 464" width="464pt" xmlns="http://www.w3.org/2000/svg"><g fill="#7d8d9c"><path d="m80 176v-112h-32v144h64v-32zm0 0"/><path d="m133.378906 253.375 22.628906 22.628906-68 68-22.628906-22.628906zm0 0"/><path d="m308.003906 276 22.628906-22.625 68.566407 68.566406-22.628907 22.625zm0 0"/><path d="m216 288h32v64h-32zm0 0"/><path d="m384 176v-112h32v144h-64v-32zm0 0"/></g><path d="m112 144h240v96h-240zm0 0" fill="#394d5c"/><path d="m16 32h96c8.835938 0 16 7.164062 16 16s-7.164062 16-16 16h-96c-8.835938 0-16-7.164062-16-16s7.164062-16 16-16zm0 0" fill="#394d5c"/><path d="m120 240h224v48h-224zm0 0" fill="#cfdfe8"/><path d="m216 176h32v32h-32zm0 0" fill="#7fcac9"/><path d="m320 144h-176l16-32h144zm0 0" fill="#7d8d9c"/><path d="m64 0c8.835938 0 16 7.164062 16 16v16h-32v-16c0-8.835938 7.164062-16 16-16zm0 0" fill="#aabece"/><path d="m448 64h-96c-8.835938 0-16-7.164062-16-16s7.164062-16 16-16h96c8.835938 0 16 7.164062 16 16s-7.164062 16-16 16zm0 0" fill="#394d5c"/><path d="m416 32h-32v-16c0-8.835938 7.164062-16 16-16s16 7.164062 16 16zm0 0" fill="#aabece"/></svg>