<svg height="464pt" viewBox="0 -16 464 464" width="464pt" xmlns="http://www.w3.org/2000/svg"><path d="m208 192h-128l-48 192h32l43.433594-160h100.566406zm0 0" fill="#394d5c"/><path d="m440 384-56-192h-128v32h100.566406l51.433594 160zm0 0" fill="#394d5c"/><path d="m160 288h144v96h-144zm0 0" fill="#cfdfe8"/><path d="m208 288h96v96h-96zm0 0" fill="#7d8d9c"/><path d="m308.359375 256h-152.71875l-43.640625-96h240zm0 0" fill="#143441"/><path d="m464 160h-464l16-64h432zm0 0" fill="#7d8d9c"/><path d="m216 256h32v32h-32zm0 0" fill="#cfdfe8"/><path d="m272 336c0 8.835938-7.164062 16-16 16s-16-7.164062-16-16 7.164062-16 16-16 16 7.164062 16 16zm0 0" fill="#cfdfe8"/><path d="m96 64h32v32h-32zm0 0" fill="#cfdfe8"/><path d="m64 32h96c8.835938 0 16 7.164062 16 16s-7.164062 16-16 16h-96c-8.835938 0-16-7.164062-16-16s7.164062-16 16-16zm0 0" fill="#143441"/><path d="m112 0c8.835938 0 16 7.164062 16 16v16h-32v-16c0-8.835938 7.164062-16 16-16zm0 0" fill="#cfdfe8"/><path d="m336 64h32v32h-32zm0 0" fill="#cfdfe8"/><path d="m304 32h96c8.835938 0 16 7.164062 16 16s-7.164062 16-16 16h-96c-8.835938 0-16-7.164062-16-16s7.164062-16 16-16zm0 0" fill="#143441"/><path d="m352 0c8.835938 0 16 7.164062 16 16v16h-32v-16c0-8.835938 7.164062-16 16-16zm0 0" fill="#cfdfe8"/><g fill="#143441"><path d="m16 384h64v48h-64zm0 0"/><path d="m456 432h-64v-48h64zm0 0"/><path d="m24 120h88v16h-88zm0 0"/><path d="m352 120h88v16h-88zm0 0"/><path d="m128 120h16v16h-16zm0 0"/><path d="m160 120h16v16h-16zm0 0"/><path d="m192 120h16v16h-16zm0 0"/><path d="m224 120h16v16h-16zm0 0"/><path d="m256 120h16v16h-16zm0 0"/><path d="m288 120h16v16h-16zm0 0"/><path d="m320 120h16v16h-16zm0 0"/></g></svg>