<svg height="472pt" viewBox="0 0 472 472" width="472pt" xmlns="http://www.w3.org/2000/svg"><path d="m432 40v40h-24v16h40v-56zm0 0" fill="#7d8d9c"/><path d="m224 48h-16v48h56v-16h-40zm0 0" fill="#7d8d9c"/><path d="m288 472h-288l144-411.433594zm0 0" fill="#c8d952"/><path d="m288 472-70.488281-201.382812-7.945313-6.617188-38.429687 32-38.402344-32-38.367187 32-25.367188-21.152344-69 197.152344zm0 0" fill="#55b56a"/><path d="m364.800781 472h-156.800781l78.398438-224zm0 0" fill="#c8d952"/><path d="m256 0h-48c-13.253906 0-24 10.746094-24 24s10.746094 24 24 24h48c13.253906 0 24-10.746094 24-24s-10.746094-24-24-24zm0 0" fill="#195c85"/><path d="m448 0h-48c-13.253906 0-24 10.746094-24 24s10.746094 24 24 24h48c13.253906 0 24-10.746094 24-24s-10.746094-24-24-24zm0 0" fill="#195c85"/><path d="m136.519531 152c.53125-1.859375.816407-3.785156.839844-5.71875-.277344-12.917969-10.96875-23.164062-23.886719-22.898438-2.574218.03125-5.128906.460938-7.570312 1.28125-5.269532-14.925781-19.617188-24.703124-35.433594-24.152343-15.820312.546875-29.453125 11.296875-33.675781 26.550781-3.875-2.402344-8.34375-3.671875-12.90625-3.671875-12.914063-.265625-23.601563 9.976563-23.886719 22.890625.0234375 1.933594.308594 3.859375.847656 5.71875zm0 0" fill="#7fcac9"/><path d="m463.359375 200c.40625-1.449219.621094-2.945312.640625-4.449219-.035156-5.78125-2.859375-11.191406-7.585938-14.523437-4.726562-3.335938-10.769531-4.179688-16.230468-2.273438-3.777344-11.539062-14.730469-19.1875-26.863282-18.757812-12.128906.429687-22.515624 8.835937-25.464843 20.613281-2.917969-1.867187-6.304688-2.855469-9.765625-2.855469-9.914063-.085937-18.015625 7.886719-18.089844 17.796875.019531 1.503907.234375 3 .640625 4.449219zm0 0" fill="#7fcac9"/><path d="m336 144v-24h-16v24h-16v16h48v-16zm0 0" fill="#7d8d9c"/><path d="m408 108.871094-17.175781 3.960937c-41.335938 9.558594-84.3125 9.558594-125.648438 0l-17.175781-3.960937v-36.871094h160zm0 0" fill="#394d5c"/><path d="m464 472h-152l76-192zm0 0" fill="#55b56a"/></svg>