<svg height="464pt" viewBox="0 -64 464 464" width="464pt" xmlns="http://www.w3.org/2000/svg"><path d="m104 304-104 24v-320l104 24zm0 0" fill="#ffd782"/><path d="m464 336-104-32v-272l104-32zm0 0" fill="#ffd782"/><path d="m104 32h256v272h-256zm0 0" fill="#fff69a"/><path d="m176 272h-144l72-128zm0 0" fill="#55b56a"/><path d="m432 272h-144l72-128zm0 0" fill="#55b56a"/><path d="m208 96c0 22.089844-17.910156 40-40 40s-40-17.910156-40-40 17.910156-40 40-40 40 17.910156 40 40zm0 0" fill="#fc8535"/><path d="m310.984375 89.808594c-6.625-11.136719-18.667969-17.917969-31.625-17.804688-12.960937.109375-24.882813 7.09375-31.320313 18.339844-1.804687-.375-3.644531-.5625-5.488281-.558594-14.4375-.195312-26.3125 11.328125-26.550781 25.765625.019531 2.210938.332031 4.410157.9375 6.539063.941406 3.484375 4.105469 5.910156 7.71875 5.910156h105.351562c3.617188.003906 6.785157-2.421875 7.726563-5.910156.597656-2.128906.910156-4.328125.929687-6.539063-.152343-7.121093-3.179687-13.875-8.394531-18.726562-5.214843-4.851563-12.171875-7.382813-19.285156-7.015625zm0 0" fill="#7fcac9"/><path d="m312 272h-160l80-128zm0 0" fill="#c8d952"/></svg>