<svg height="464pt" viewBox="0 -40 464 464" width="464pt" xmlns="http://www.w3.org/2000/svg"><path d="m0 0h464v384h-464zm0 0" fill="#7fcac9"/><path d="m248 200h48v16h-48zm0 0" fill="#55b56a"/><path d="m64 96c35.347656 0 64 28.652344 64 64v16h-128v-16c0-35.347656 28.652344-64 64-64zm0 0" fill="#c8d952"/><g fill="#cfdfe8"><path d="m184 233.945312-63.03125 63.023438c-9.371094 9.367188-24.566406 9.367188-33.9375 0-9.367188-9.371094-9.367188-24.566406 0-33.9375l33.9375-33.941406c9.371094-9.375 24.570312-9.375 33.941406 0 9.378906 9.375 38.464844-4.523438 29.089844 4.855468zm0 0"/><path d="m391.050781 220.667969 28.28125 28.285156c6.25 6.25 6.25 16.378906 0 22.628906-6.246093 6.246094-16.378906 6.246094-22.625 0l-28.285156-28.285156c-6.25-6.246094-6.25-16.378906 0-22.628906 6.25-6.246094 16.378906-6.246094 22.628906 0zm0 0"/><path d="m323.535156 176c-31.941406 34.902344-73.597656 80-75.535156 80h-32c-8.835938 0-16 7.164062-16 16s7.164062 16 16 16h12.304688l-46.152344 48h-102.152344c-26.507812 0-48 21.492188-48 48h224l12.304688-32h91.695312c8.835938 0 16-7.164062 16-16s-7.164062-16-16-16h-79.382812l62.125-144zm0 0"/></g><path d="m0 200h96v16h-96zm0 0" fill="#55b56a"/><path d="m216 200h16v16h-16zm0 0" fill="#55b56a"/><path d="m400 96c35.347656 0 64 28.652344 64 64v16h-128v-16c0-35.347656 28.652344-64 64-64zm0 0" fill="#c8d952"/><path d="m296 64-32 80-32-112-32 112-32-80-40 112h208zm0 0" fill="#55b56a"/></svg>