<svg height="480pt" viewBox="0 0 480 480" width="480pt" xmlns="http://www.w3.org/2000/svg"><path d="m432 240c0 106.039062-85.960938 192-192 192s-192-85.960938-192-192 85.960938-192 192-192 192 85.960938 192 192zm0 0" fill="#7fcac9"/><path d="m392 240c0 83.949219-68.050781 152-152 152s-152-68.050781-152-152 68.050781-152 152-152 152 68.050781 152 152zm0 0" fill="#cfdfe8"/><path d="m0 232h480v16h-480zm0 0" fill="#7d8d9c"/><path d="m232 0h16v480h-16zm0 0" fill="#7d8d9c"/><path d="m56 56h-48l24-48zm0 0" fill="#195c85"/><path d="m8 56h48l-24 48zm0 0" fill="#e1462b"/><path d="m214.0625 351.761719c-75.460938-18.867188-85.597656-83.875-85.984375-86.625l15.832031-2.296875c.355469 2.328125 9.265625 57.207031 74.027344 73.398437zm0 0" fill="#55b56a"/><path d="m265.136719 351.921875-2.273438-15.84375 1.136719 7.921875-1.160156-7.910156c2.328125-.355469 57.207031-9.265625 73.398437-74.035156l15.523438 3.890624c-18.875 75.453126-83.875 85.582032-86.625 85.976563zm0 0" fill="#55b56a"/><path d="m272 240c0 17.671875-14.328125 32-32 32s-32-14.328125-32-32 14.328125-32 32-32 32 14.328125 32 32zm0 0" fill="#394d5c"/><path d="m296.566406 184.566406-33.941406-38.742187-22.625-25.824219-22.625 25.824219-33.941406 38.742187 56.566406-18.261718zm0 0" fill="#143441"/></svg>