<svg height="464pt" viewBox="0 0 464 464" width="464pt" xmlns="http://www.w3.org/2000/svg"><path d="m464 232c0 128.128906-103.871094 232-232 232s-232-103.871094-232-232 103.871094-232 232-232 232 103.871094 232 232zm0 0" fill="#7fcac9"/><path d="m320 184h-176l16-32h144zm0 0" fill="#ccdeea"/><path d="m80 216v-120h-32v152h64v-32zm0 0" fill="#7d8d9c"/><path d="m384 216v-120h32v152h-64v-32zm0 0" fill="#7d8d9c"/><path d="m152 328h-32l16-48h32zm0 0" fill="#7d8d9c"/><path d="m312 328h32l-16-48h-32zm0 0" fill="#7d8d9c"/><path d="m112 184h240v96h-240zm0 0" fill="#394d5c"/><path d="m256 232c0 13.253906-10.746094 24-24 24s-24-10.746094-24-24 10.746094-24 24-24 24 10.746094 24 24zm0 0" fill="#7d8d9c"/><path d="m224 0h16v128h-16zm0 0" fill="#fcf05a"/><path d="m152 216h16v32h-16zm0 0" fill="#fff"/><path d="m104 216h16v32h-16zm0 0" fill="#fff"/><path d="m216 152h32v16h-32zm0 0" fill="#394d5c"/><g fill="#fcf05a"><path d="m216 96h32v16h-32zm0 0"/><path d="m216 48h32v16h-32zm0 0"/><path d="m224 336h16v128h-16zm0 0"/><path d="m216 352h32v16h-32zm0 0"/><path d="m216 400h32v16h-32zm0 0"/></g><path d="m296 216h16v32h-16zm0 0" fill="#fff"/><path d="m344 216h16v32h-16zm0 0" fill="#fff"/><path d="m16 64h96c8.835938 0 16 7.164062 16 16s-7.164062 16-16 16h-96c-8.835938 0-16-7.164062-16-16s7.164062-16 16-16zm0 0" fill="#394d5c"/><path d="m448 96h-96c-8.835938 0-16-7.164062-16-16s7.164062-16 16-16h96c8.835938 0 16 7.164062 16 16s-7.164062 16-16 16zm0 0" fill="#394d5c"/><path d="m416 64h-32v-16c0-8.835938 7.164062-16 16-16s16 7.164062 16 16zm0 0" fill="#aabece"/><path d="m80 64h-32v-16c0-8.835938 7.164062-16 16-16s16 7.164062 16 16zm0 0" fill="#aabece"/><path d="m216 280h32v32h-32zm0 0" fill="#ccdeea"/></svg>