<?xml version="1.0" encoding="iso-8859-1"?>
<!-- Generator: Adobe Illustrator 19.0.0, SVG Export Plug-In . SVG Version: 6.00 Build 0)  -->
<svg version="1.1" id="Capa_1" xmlns="http://www.w3.org/2000/svg" xmlns:xlink="http://www.w3.org/1999/xlink" x="0px" y="0px"
	 viewBox="0 0 512 512" style="enable-background:new 0 0 512 512;" xml:space="preserve">
<g>
	<g>
		<path d="M332.625,249.296c3.014,3.013,8.048,3.013,11.061,0L508.871,84.114c3.055-3.056,3.055-8.007,0-11.062L438.077,2.258
			c-3.011-3.011-8.05-3.011-11.061,0L261.833,167.442c-3.012,3.013-3.012,8.05,0,11.062l6.268,6.268l-18.436,18.435l-24.334-24.334
			l23.966-23.966c3.055-3.056,3.055-8.007,0-11.062l-94.39-94.391c-3.011-3.011-8.05-3.011-11.061,0l-94.391,94.391
			c-3.055,3.056-3.055,8.007,0,11.062l94.391,94.391c3.011,3.011,8.05,3.011,11.061,0l23.966-23.966l24.334,24.334l-18.435,18.436
			l-6.268-6.269c-3.055-3.054-8.007-3.054-11.061,0L2.259,427.015c-3.012,3.013-3.012,8.05,0,11.062l70.793,70.792
			c3.014,3.013,8.048,3.013,11.061,0l165.183-165.183c3.012-3.013,3.012-8.05,0-11.062l-6.268-6.268l18.435-18.435l21.781,21.781
			c-16.325,29.92-18.958,66.072-5.891,98.811c2.043,5.118,8.889,6.536,12.795,2.631l43.115-43.115l67.312,22.439
			c6,1.998,11.891-3.9,9.894-9.894l-22.436-67.312l43.114-43.114c3.907-3.909,2.491-10.749-2.631-12.796
			c-32.739-13.068-68.891-10.435-98.811,5.89l-21.781-21.782l18.435-18.435L332.625,249.296z M338.156,232.704l-6.262-6.263
			c-0.002-0.002-0.003-0.004-0.005-0.006c-0.002-0.002-0.004-0.003-0.006-0.005l-18.062-18.062l30.234-30.234l24.334,24.334
			L338.156,232.704z M379.453,191.408l-24.334-24.334l30.233-30.234l24.336,24.334L379.453,191.408z M420.749,150.113
			l-24.336-24.334l30.234-30.234l24.336,24.334L420.749,150.113z M492.279,78.583l-30.234,30.234l-24.336-24.334l30.234-30.235
			L492.279,78.583z M432.547,18.851l24.334,24.334l-30.234,30.235l-24.335-24.334L432.547,18.851z M391.25,60.147l24.336,24.334
			l-30.234,30.234l-24.334-24.334L391.25,60.147z M349.955,101.443l24.334,24.334l-30.234,30.234l-24.334-24.334L349.955,101.443z
			 M308.66,142.739l24.334,24.334l-30.234,30.234l-18.057-18.056c-0.003-0.003-0.006-0.007-0.009-0.01
			c-0.003-0.003-0.006-0.006-0.01-0.009l-6.258-6.258L308.66,142.739z M95.545,178.872l46.618-46.618
			c3.055-3.056,3.055-8.007,0-11.062c-3.055-3.054-8.007-3.054-11.061,0l-46.619,46.619l-18.435-18.436l83.328-83.33l18.436,18.436
			l-12.204,12.205c-2.848,2.848-3.037,7.55-0.416,10.612c2.924,3.415,8.296,3.629,11.477,0.448l12.204-12.204l24.336,24.334
			l-83.329,83.329L95.545,178.872z M149.376,232.704l-18.436-18.436l83.329-83.329l18.435,18.436L149.376,232.704z M172.973,278.425
			l24.334,24.335l-30.234,30.234l-24.334-24.335L172.973,278.425z M131.677,319.721l24.334,24.334l-30.234,30.234l-24.334-24.334
			L131.677,319.721z M90.382,361.017l24.336,24.334l-30.234,30.234l-24.336-24.334L90.382,361.017z M18.852,432.547l30.234-30.234
			l24.336,24.334l-30.234,30.234L18.852,432.547z M78.583,492.277l-24.334-24.334l30.234-30.234l24.334,24.334L78.583,492.277z
			 M119.879,450.983l-24.334-24.334l30.234-30.234l24.334,24.334L119.879,450.983z M161.175,409.687l-24.334-24.334l30.234-30.234
			l24.336,24.334L161.175,409.687z M202.471,368.391l-24.336-24.334l30.234-30.234l24.336,24.334L202.471,368.391z M231.968,315.296
			l-18.06-18.059c-0.002-0.002-0.004-0.005-0.007-0.008c-0.003-0.003-0.005-0.004-0.008-0.007l-18.058-18.058l18.435-18.435
			l36.134,36.134L231.968,315.296z M390.684,390.683l-45.052-15.017l30.035-30.035L390.684,390.683z M385.354,284.689
			c8.608,0,17.268,1.105,25.771,3.36L288.048,411.125c-9.117-34.384,0.554-71.346,26.142-96.934
			C333.45,294.93,359.156,284.689,385.354,284.689z M316.195,291.86c-4.581,3.394-8.951,7.152-13.066,11.268
			c-4.115,4.115-7.875,8.486-11.268,13.067L189.934,214.269l24.334-24.334L316.195,291.86z M296.862,250.402l-36.134-36.134
			l18.435-18.435l36.134,36.134L296.862,250.402z"/>
	</g>
</g>
<g>
	<g>
		<path d="M504.178,412.927c-4.32,0-7.822,3.502-7.822,7.822c0,20.195-7.864,39.182-22.144,53.463
			c-14.281,14.281-33.268,22.146-53.464,22.146c-4.32,0-7.822,3.501-7.822,7.822c0,4.321,3.502,7.822,7.822,7.822
			c24.374,0,47.29-9.492,64.525-26.727C502.508,468.038,512,445.122,512,420.749C512,416.428,508.498,412.927,504.178,412.927z"/>
	</g>
</g>
<g>
	<g>
		<path d="M470.806,412.927c-4.32,0-7.822,3.501-7.822,7.822c0,11.282-4.393,21.888-12.371,29.866
			c-7.978,7.978-18.584,12.371-29.866,12.371c-4.32,0-7.822,3.501-7.822,7.822c0,4.321,3.502,7.822,7.822,7.822
			c15.461,0,29.995-6.021,40.928-16.953c10.932-10.932,16.952-25.466,16.952-40.927
			C478.628,416.428,475.126,412.927,470.806,412.927z"/>
	</g>
</g>
<g>
	<g>
		<path d="M437.434,412.927c-4.32,0-7.822,3.501-7.822,7.822c0,2.368-0.922,4.594-2.596,6.268c-1.674,1.675-3.9,2.597-6.269,2.597
			c-4.32,0-7.822,3.501-7.822,7.822c0,4.321,3.502,7.822,7.822,7.822c6.546,0,12.701-2.549,17.329-7.178s7.178-10.783,7.178-17.329
			C445.256,416.428,441.754,412.927,437.434,412.927z"/>
	</g>
</g>
<g>
</g>
<g>
</g>
<g>
</g>
<g>
</g>
<g>
</g>
<g>
</g>
<g>
</g>
<g>
</g>
<g>
</g>
<g>
</g>
<g>
</g>
<g>
</g>
<g>
</g>
<g>
</g>
<g>
</g>
</svg>
