<?xml version="1.0" encoding="iso-8859-1"?>
<!-- Generator: Adobe Illustrator 19.0.0, SVG Export Plug-In . SVG Version: 6.00 Build 0)  -->
<svg version="1.1" id="Capa_1" xmlns="http://www.w3.org/2000/svg" xmlns:xlink="http://www.w3.org/1999/xlink" x="0px" y="0px"
	 viewBox="0 0 512 512" style="enable-background:new 0 0 512 512;" xml:space="preserve">
<g>
	<g>
		<path d="M255.999,0C154.611,0,72.128,82.484,72.128,183.871c0,32.162,9.497,69.406,28.227,110.698
			c14.817,32.666,35.444,68.003,61.306,105.032c43.912,62.874,88.463,109.647,88.909,110.113c2.918,3.048,7.944,3.048,10.862,0
			c0.445-0.466,44.996-47.239,88.909-110.113c25.862-37.029,46.489-72.367,61.306-105.032
			c18.73-41.291,28.227-78.536,28.227-110.698C439.871,82.484,357.387,0,255.999,0z M338.135,390.824
			c-34.333,49.183-69.052,88.354-82.136,102.651c-13.083-14.298-47.803-53.468-82.136-102.651
			c-56.723-81.257-86.705-152.821-86.705-206.953c0-93.099,75.742-168.841,168.841-168.841S424.84,90.772,424.84,183.871
			C424.84,238.004,394.858,309.567,338.135,390.824z"/>
	</g>
</g>
<g>
	<g>
		<path d="M349.451,85.374c-3.011-2.858-7.768-2.733-10.625,0.278c-2.857,3.011-2.733,7.768,0.278,10.625
			c24.273,23.034,37.639,54.143,37.639,87.594c0,18.873-4.356,36.746-12.11,52.673c-7.298-7.645-17.421-12.091-28.512-12.091
			H183.366c-13.668,0-25.89,6.951-33.038,17.778c-9.597-17.309-15.072-37.206-15.072-58.36c0-66.578,54.165-120.744,120.744-120.744
			c18.545,0,36.332,4.09,52.869,12.157c3.732,1.822,8.231,0.272,10.048-3.459c1.82-3.731,0.272-8.23-3.459-10.048
			c-18.606-9.077-38.61-13.68-59.458-13.68c-74.866,0-135.774,60.908-135.774,135.774c0,29.156,9.24,56.193,24.941,78.341
			c0.294,0.533,0.654,1.025,1.067,1.472c24.711,33.891,64.707,55.961,109.766,55.961c48.566,0,91.25-25.637,115.253-64.083
			c0.356-0.45,0.657-0.934,0.901-1.448c12.447-20.506,19.621-44.552,19.621-70.243C391.773,146.257,376.743,111.278,349.451,85.374z
			 M279.372,239.484c-3.181,9.873-12.457,17.034-23.373,17.034c-10.916,0-20.192-7.162-23.373-17.034H279.372z M255.999,304.615
			c-39.169,0-74.034-18.752-96.11-47.744c2.855-9.061,11.276-17.387,23.476-17.387h33.778c3.522,18.242,19.601,32.065,38.855,32.065
			s35.333-13.823,38.855-32.065h41.265c8.444,0,15.992,4.155,20.498,11.054C334.969,283.105,297.952,304.615,255.999,304.615z"/>
	</g>
</g>
<g>
	<g>
		<path d="M255.999,80.162c-39.505,0-71.645,32.14-71.645,71.645c0,26.253,14.203,49.239,35.32,61.717
			c0.314,0.216,0.647,0.405,0.993,0.572c10.435,5.942,22.488,9.356,35.331,9.356s24.896-3.414,35.331-9.356
			c0.346-0.167,0.679-0.355,0.993-0.572c21.117-12.477,35.32-35.464,35.32-61.717C327.644,112.302,295.504,80.162,255.999,80.162z
			 M280.55,202.816c-7.431,3.59-15.759,5.605-24.55,5.605s-17.12-2.014-24.551-5.605v-49.401l22.727,5.682
			c1.197,0.3,2.448,0.3,3.646,0l22.727-5.682V202.816z M295.579,192.234V143.79c0-4.809-4.666-8.457-9.338-7.291l-30.242,7.561
			l-30.242-7.561c-4.671-1.167-9.338,2.484-9.338,7.291v48.444c-10.501-10.283-17.034-24.604-17.034-40.428
			c0-31.217,25.397-56.614,56.614-56.614s56.614,25.397,56.614,56.614C312.614,167.631,306.08,181.95,295.579,192.234z"/>
	</g>
</g>
<g>
</g>
<g>
</g>
<g>
</g>
<g>
</g>
<g>
</g>
<g>
</g>
<g>
</g>
<g>
</g>
<g>
</g>
<g>
</g>
<g>
</g>
<g>
</g>
<g>
</g>
<g>
</g>
<g>
</g>
</svg>
