<?xml version="1.0" encoding="iso-8859-1"?>
<!-- Generator: Adobe Illustrator 19.0.0, SVG Export Plug-In . SVG Version: 6.00 Build 0)  -->
<svg version="1.1" id="Capa_1" xmlns="http://www.w3.org/2000/svg" xmlns:xlink="http://www.w3.org/1999/xlink" x="0px" y="0px"
	 viewBox="0 0 512 512" style="enable-background:new 0 0 512 512;" xml:space="preserve">
<g>
	<g>
		<circle cx="223.937" cy="39.577" r="7.515"/>
	</g>
</g>
<g>
	<g>
		<circle cx="255.499" cy="40.078" r="7.515"/>
	</g>
</g>
<g>
	<g>
		<circle cx="192.376" cy="40.078" r="7.515"/>
	</g>
</g>
<g>
	<g>
		<path d="M247.984,464.908H199.89c-4.151,0-7.515,3.364-7.515,7.515c0,4.151,3.364,7.515,7.515,7.515h48.094
			c4.151,0,7.515-3.364,7.515-7.515C255.499,468.272,252.135,464.908,247.984,464.908z"/>
	</g>
</g>
<g>
	<g>
		<path d="M400.282,112.219h-24.548V23.546C375.734,10.563,365.171,0,352.188,0H95.687C82.704,0,72.141,10.563,72.141,23.546
			v464.908c0,12.983,10.563,23.546,23.546,23.546h256.501c12.983,0,23.546-10.563,23.546-23.546V343.671h24.548
			c21.823,0,39.577-17.755,39.577-39.577V151.796C439.859,129.974,422.104,112.219,400.282,112.219z M360.705,488.454
			c0,4.696-3.82,8.517-8.517,8.517H95.687c-4.696,0-8.517-3.82-8.517-8.517v-40.579h273.534V488.454z M360.705,432.845H87.17V79.155
			h25.55c4.151,0,7.515-3.364,7.515-7.515c0-4.151-3.364-7.515-7.515-7.515H87.17V23.546c0-4.696,3.82-8.517,8.517-8.517h256.501
			c4.696,0,8.517,3.82,8.517,8.517v40.579H147.789c-4.151,0-7.515,3.364-7.515,7.515c0,4.151,3.364,7.515,7.515,7.515h212.916
			v33.065h-168.83c-21.823,0-39.577,17.755-39.577,39.577v248.485c0,6.539,8.187,9.952,12.829,5.314l61.923-61.925h133.655V432.845z
			 M424.83,304.094c0,13.536-11.012,24.548-24.548,24.548H223.937c-1.993,0-3.904,0.792-5.314,2.2l-51.296,51.298V151.796
			c0-13.536,11.012-24.548,24.548-24.548h208.407c13.536,0,24.548,11.012,24.548,24.548V304.094z"/>
	</g>
</g>
<g>
	<g>
		<path d="M250.595,199.89l18.734-18.733c2.149-2.15,2.792-5.382,1.629-8.19c-1.162-2.808-3.904-4.639-6.943-4.639h-56.611v-8.517
			c0-4.151-3.364-7.515-7.515-7.515c-4.151,0-7.515,3.364-7.515,7.515v120.235c0,4.151,3.364,7.515,7.515,7.515
			c4.151,0,7.515-3.364,7.515-7.515v-48.595h56.611c6.55,0,9.95-8.191,5.314-12.829L250.595,199.89z M234.654,205.205l11.22,11.218
			h-38.469v-33.065h38.469l-11.219,11.218C231.721,197.512,231.721,202.269,234.654,205.205z"/>
	</g>
</g>
<g>
	<g>
		<path d="M392.266,168.329h-64.125c-4.151,0-7.515,3.364-7.515,7.515s3.364,7.515,7.515,7.515h64.125
			c4.151,0,7.515-3.364,7.515-7.515S396.417,168.329,392.266,168.329z"/>
	</g>
</g>
<g>
	<g>
		<path d="M392.266,208.407h-64.125c-4.151,0-7.515,3.364-7.515,7.515c0,4.151,3.364,7.515,7.515,7.515h64.125
			c4.151,0,7.515-3.364,7.515-7.515C399.781,211.771,396.417,208.407,392.266,208.407z"/>
	</g>
</g>
<g>
	<g>
		<path d="M392.266,248.485h-64.125c-4.151,0-7.515,3.364-7.515,7.515s3.364,7.515,7.515,7.515h64.125
			c4.151,0,7.515-3.364,7.515-7.515S396.417,248.485,392.266,248.485z"/>
	</g>
</g>
<g>
	<g>
		<circle cx="296.078" cy="175.342" r="7.515"/>
	</g>
</g>
<g>
	<g>
		<circle cx="296.078" cy="215.421" r="7.515"/>
	</g>
</g>
<g>
	<g>
		<circle cx="296.078" cy="255.499" r="7.515"/>
	</g>
</g>
<g>
</g>
<g>
</g>
<g>
</g>
<g>
</g>
<g>
</g>
<g>
</g>
<g>
</g>
<g>
</g>
<g>
</g>
<g>
</g>
<g>
</g>
<g>
</g>
<g>
</g>
<g>
</g>
<g>
</g>
</svg>
