<?xml version="1.0" encoding="iso-8859-1"?>
<!-- Generator: Adobe Illustrator 19.0.0, SVG Export Plug-In . SVG Version: 6.00 Build 0)  -->
<svg version="1.1" id="Capa_1" xmlns="http://www.w3.org/2000/svg" xmlns:xlink="http://www.w3.org/1999/xlink" x="0px" y="0px"
	 viewBox="0 0 512 512" style="enable-background:new 0 0 512 512;" xml:space="preserve">
<g>
	<g>
		<path d="M504.485,156.305h-112.72V99.194h88.673c3.176,0,6.132-2.127,7.131-5.144c0.996-3.01-0.084-6.48-2.622-8.382L460.9,67.632
			l24.047-18.035c2.641-1.981,3.686-5.568,2.525-8.657c-1.088-2.897-3.939-4.87-7.034-4.87h-88.673v-8.517
			c0-4.151-3.365-7.515-7.515-7.515s-7.515,3.364-7.515,7.515v128.751H95.186V83.663c0-4.151-3.365-7.515-7.515-7.515
			C39.329,76.149,0,115.478,0,163.82v240.47c0,48.342,39.329,87.671,87.671,87.671h416.814c4.15,0,7.515-3.364,7.515-7.515V163.82
			C512,159.669,508.635,156.305,504.485,156.305z M391.765,51.1h66.129L443.867,61.62c-3.943,2.956-3.943,9.067,0,12.023
			l14.027,10.521h-66.129V51.1z M384.25,235.46c4.15,0,7.515-3.364,7.515-7.515v-24.548h73.143v47.989l-39.763,64.378
			l-132.568-46.111l-53.004-66.255h137.163v24.548C376.736,232.096,380.1,235.46,384.25,235.46z M315.37,373.828l-34.747-7.446
			l13.386-80.319l64.836,22.552L315.37,373.828z M319.745,444.869h-40.2v-63.346l33.969,7.279L319.745,444.869z M373.508,313.717
			l43.547,15.147l-36.412,58.952l-49.468-10.6L373.508,313.717z M379.829,403.012l29.897,41.857h-74.859l-5.86-52.748
			L379.829,403.012z M393.27,395.971l38.326-62.051l33.312,11.587v99.362h-36.712L393.27,395.971z M439.686,320.821l25.222-40.835
			v49.608L439.686,320.821z M279.192,283.554l-13.622,81.727l-76.252,7.094l-27.032-88.82H279.192z M157.713,268.524l-19.822-65.127
			h82.434l52.102,65.127H157.713z M95.186,171.335h281.55v17.033H95.186V171.335z M95.186,203.397h26.996l19.822,65.127H95.186
			V203.397z M95.186,324.133v-40.579h51.391l27.465,90.241l-126.95,11.81v-41.539c11.595-7.837,25.562-12.418,40.579-12.418
			C91.821,331.648,95.186,328.284,95.186,324.133z M165.405,389.694l-49.046,55.175H87.671c-22.376,0-40.579-18.204-40.579-40.579
			v-3.59L165.405,389.694z M15.029,163.82c0-37.517,28.591-68.484,65.127-72.256v225.374c-27.071,2.31-50.674,16.974-65.127,38.315
			V163.82z M496.971,476.932H87.671c-40.055,0-72.642-32.587-72.642-72.642c0-17.757,6.414-34.037,17.033-46.67v46.67
			c0,30.663,24.946,55.609,55.609,55.609h88.841c4.15,0,7.515-3.364,7.515-7.515s-3.365-7.515-7.515-7.515h-40.044l50.857-57.215
			l77.192-7.181v64.396h-52.269c-4.15,0-7.515,3.364-7.515,7.515s3.365,7.515,7.515,7.515h260.175c4.15,0,7.515-3.364,7.515-7.515
			V195.883c0-4.151-3.365-7.515-7.515-7.515h-80.658v-17.033h105.206V476.932z"/>
	</g>
</g>
<g>
	<g>
		<path d="M410.589,260.768c-3.17-1.605-6.357-3.178-9.536-4.767l10.605-5.302c3.712-1.857,5.217-6.369,3.361-10.083
			c-1.857-3.711-6.368-5.215-10.082-3.361l-20.686,10.343l-20.686-10.343c-3.712-1.859-8.226-0.352-10.082,3.361
			c-1.857,3.712-0.352,8.226,3.361,10.083l10.605,5.302c-3.29,1.645-6.598,3.259-9.871,4.936c-2.703,1.384-4.691,3.525-4.863,6.687
			c-0.306,5.631,5.801,9.645,10.851,7.122l20.686-10.343l20.686,10.343c5.277,2.642,11.518-1.83,10.805-7.661
			C415.363,263.984,413.231,262.106,410.589,260.768z"/>
	</g>
</g>
<g>
</g>
<g>
</g>
<g>
</g>
<g>
</g>
<g>
</g>
<g>
</g>
<g>
</g>
<g>
</g>
<g>
</g>
<g>
</g>
<g>
</g>
<g>
</g>
<g>
</g>
<g>
</g>
<g>
</g>
</svg>
