<?xml version="1.0" encoding="iso-8859-1"?>
<!-- Generator: Adobe Illustrator 19.0.0, SVG Export Plug-In . SVG Version: 6.00 Build 0)  -->
<svg version="1.1" id="Capa_1" xmlns="http://www.w3.org/2000/svg" xmlns:xlink="http://www.w3.org/1999/xlink" x="0px" y="0px"
	 viewBox="0 0 512.003 512.003" style="enable-background:new 0 0 512.003 512.003;" xml:space="preserve">
<g>
	<g>
		<path d="M368.22,88.176c-21.822,0-39.577,17.755-39.577,39.577s17.755,39.577,39.577,39.577s39.577-17.755,39.577-39.577
			S390.042,88.176,368.22,88.176z M368.22,152.3c-13.536,0-24.548-11.012-24.548-24.548c0-13.535,11.011-24.548,24.548-24.548
			c13.536,0,24.548,11.012,24.548,24.548C392.768,141.288,381.756,152.3,368.22,152.3z"/>
	</g>
</g>
<g>
	<g>
		<path d="M223.939,360.706c-26.242,0-47.593,21.351-47.593,47.593c0,32.794,40.552,73.723,42.278,75.45
			c1.411,1.41,3.321,2.201,5.314,2.201s3.904-0.792,5.314-2.201c1.725-1.725,42.278-42.656,42.278-75.45
			C271.532,382.056,250.181,360.706,223.939,360.706z M223.939,467.478c-12.366-13.763-32.563-40.224-32.563-59.18
			c0-17.955,14.607-32.563,32.563-32.563s32.563,14.608,32.563,32.563C256.503,427.255,236.304,453.718,223.939,467.478z"/>
	</g>
</g>
<g>
	<g>
		<path d="M223.939,385.754c-12.43,0-22.544,10.113-22.544,22.544c0,12.431,10.114,22.544,22.544,22.544
			s22.544-10.113,22.544-22.544C246.483,395.867,236.369,385.754,223.939,385.754z M223.939,415.813
			c-4.144,0-7.515-3.371-7.515-7.515s3.371-7.515,7.515-7.515c4.144,0,7.515,3.371,7.515,7.515S228.083,415.813,223.939,415.813z"/>
	</g>
</g>
<g>
	<g>
		<path d="M322.955,0.571c-3.839-1.583-8.231,0.244-9.813,4.08l-36.459,88.352L142.627,57.548V7.519c0-4.15-3.364-7.515-7.515-7.515
			s-7.515,3.365-7.515,7.515v55.816c0,3.41,2.296,6.392,5.593,7.264l146.007,38.617c0.642,0.169,1.286,0.25,1.924,0.25
			c2.98,0,5.761-1.781,6.945-4.649l38.968-94.433C328.617,6.548,326.79,2.154,322.955,0.571z"/>
	</g>
</g>
<g>
	<g>
		<path d="M96.956,299.397L9.44,276.249c-4.009-1.061-8.124,1.332-9.187,5.343c-1.061,4.013,1.332,8.125,5.343,9.186l81.923,21.668
			v52.768c0,4.15,3.364,7.515,7.515,7.515s7.515-3.365,7.515-7.515v-58.553C102.549,303.252,100.253,300.269,96.956,299.397z"/>
	</g>
</g>
<g>
	<g>
		<path d="M95.034,0.004c-4.151,0-7.515,3.365-7.515,7.515v35.454L9.44,22.322c-4.009-1.062-8.124,1.332-9.187,5.343
			c-1.061,4.013,1.332,8.125,5.343,9.186l87.516,23.147c0.634,0.167,1.279,0.25,1.922,0.25c1.64,0,3.256-0.538,4.584-1.56
			c1.849-1.423,2.931-3.623,2.931-5.955V7.519C102.549,3.369,99.184,0.004,95.034,0.004z"/>
	</g>
</g>
<g>
	<g>
		<path d="M95.034,393.77c-4.151,0-7.515,3.365-7.515,7.515v103.201c0,4.15,3.364,7.515,7.515,7.515s7.515-3.365,7.515-7.515
			V401.285C102.549,397.135,99.184,393.77,95.034,393.77z"/>
	</g>
</g>
<g>
	<g>
		<path d="M96.956,86.925L9.44,63.778c-4.009-1.062-8.124,1.332-9.187,5.343c-1.061,4.012,1.332,8.125,5.343,9.186L87.52,99.976
			v155.469L9.44,234.794c-4.009-1.062-8.124,1.332-9.187,5.343c-1.061,4.013,1.332,8.125,5.343,9.186l87.516,23.147
			c0.634,0.167,1.279,0.25,1.922,0.25c1.64,0,3.256-0.538,4.584-1.56c1.849-1.423,2.931-3.622,2.931-5.955V94.189
			C102.549,90.78,100.253,87.797,96.956,86.925z"/>
	</g>
</g>
<g>
	<g>
		<path d="M507.352,68.478c-3.839-1.585-8.231,0.243-9.813,4.08l-29.34,71.1l-28.881-7.639c0.348-2.786,0.542-5.548,0.542-8.268
			c0-39.502-32.138-71.639-71.639-71.639c-6.074,0-11.971,0.766-17.607,2.195l19.776-47.924c1.583-3.836-0.244-8.23-4.079-9.813
			c-3.84-1.583-8.231,0.243-9.813,4.08L330.93,66.607c-20.583,12.601-34.349,35.293-34.349,61.143c0,4.018,0.404,8.122,1.143,12.274
			L137.034,97.526c-2.253-0.595-4.658-0.112-6.506,1.311c-1.849,1.423-2.931,3.622-2.931,5.955v38.069
			c-9.445,8.703-15.376,21.166-15.376,34.991c0,13.662,7.039,28.734,15.376,41.796v56.158c0,3.41,2.296,6.392,5.593,7.264
			l258.473,68.365c0.642,0.169,1.286,0.25,1.924,0.25c2.98,0,5.761-1.781,6.945-4.649l63.626-154.187
			c0.827-2.003,0.748-4.264-0.214-6.205c-0.963-1.941-2.716-3.372-4.81-3.926l-32.643-8.634c3.932-7.683,7.272-15.55,9.633-23.362
			l34.592,9.149c0.642,0.169,1.286,0.25,1.924,0.25c2.98,0,5.761-1.781,6.945-4.649l31.849-77.181
			C513.015,74.455,511.188,70.061,507.352,68.478z M368.22,71.142c31.215,0,56.61,25.395,56.61,56.61
			c0,36.579-41.6,85.015-56.61,101.301c-15.01-16.285-56.61-64.722-56.61-101.301C311.61,96.538,337.005,71.142,368.22,71.142z
			 M127.251,177.85c0-17.955,14.607-32.563,32.563-32.563c17.956,0,32.563,14.608,32.563,32.563
			c0,18.957-20.198,45.419-32.563,59.18C147.448,223.267,127.251,196.806,127.251,177.85z M446.99,195.051l-57.841,140.172
			L142.627,270.02v-29.937c6.332,7.631,11.294,12.638,11.874,13.218c1.41,1.41,3.32,2.201,5.314,2.201s3.904-0.792,5.314-2.201
			c1.726-1.726,42.278-42.656,42.278-75.45c0-26.242-21.351-47.593-47.593-47.593c-6.06,0-11.852,1.15-17.187,3.225v-18.933
			l159.709,42.241c15.718,43.25,58.364,86.286,60.569,88.492c1.41,1.41,3.32,2.201,5.314,2.201c1.994,0,3.904-0.792,5.314-2.201
			c1.671-1.671,26.555-26.783,45.355-57.665L446.99,195.051z"/>
	</g>
</g>
<g>
	<g>
		<path d="M506.407,407.693l-87.233-23.072c-3.644-0.963-7.431,0.918-8.868,4.399l-46.465,112.6
			c-1.583,3.836,0.244,8.23,4.079,9.813c0.939,0.387,1.909,0.57,2.864,0.57c2.952,0,5.753-1.751,6.95-4.65l43.956-106.52
			l80.874,21.391c4.014,1.065,8.125-1.332,9.187-5.343C512.811,412.867,510.418,408.754,506.407,407.693z"/>
	</g>
</g>
<g>
	<g>
		<path d="M506.407,366.236l-63.511-16.798l60.351-146.251c1.583-3.836-0.243-8.23-4.079-9.813c-3.838-1.583-8.231,0.243-9.813,4.08
			l-63.627,154.187c-0.827,2.003-0.748,4.264,0.214,6.205c0.963,1.941,2.716,3.372,4.81,3.926l71.81,18.993
			c0.644,0.17,1.29,0.252,1.927,0.252c3.326,0,6.368-2.227,7.26-5.595C512.811,371.412,510.418,367.299,506.407,366.236z"/>
	</g>
</g>
<g>
	<g>
		<path d="M384.894,378.208c-0.963-1.941-2.716-3.372-4.81-3.926l-243.05-64.285c-2.253-0.595-4.658-0.111-6.506,1.311
			c-1.849,1.423-2.931,3.622-2.931,5.955v187.223c0,4.15,3.364,7.515,7.515,7.515c4.151,0,7.515-3.365,7.515-7.515V327.022
			l225.314,59.594l-47.456,115.003c-1.583,3.836,0.243,8.23,4.079,9.813c0.939,0.387,1.909,0.57,2.864,0.57
			c2.952,0,5.753-1.751,6.95-4.65l50.732-122.939C385.935,382.411,385.856,380.149,384.894,378.208z"/>
	</g>
</g>
<g>
	<g>
		<path d="M159.814,155.306c-12.43,0-22.544,10.113-22.544,22.544c0,12.431,10.114,22.544,22.544,22.544
			c12.43,0,22.544-10.113,22.544-22.544C182.358,165.419,172.245,155.306,159.814,155.306z M159.814,185.365
			c-4.144,0-7.515-3.371-7.515-7.515c0-4.144,3.371-7.515,7.515-7.515c4.144,0,7.515,3.371,7.515,7.515
			C167.329,181.994,163.958,185.365,159.814,185.365z"/>
	</g>
</g>
<g>
</g>
<g>
</g>
<g>
</g>
<g>
</g>
<g>
</g>
<g>
</g>
<g>
</g>
<g>
</g>
<g>
</g>
<g>
</g>
<g>
</g>
<g>
</g>
<g>
</g>
<g>
</g>
<g>
</g>
</svg>
