<?xml version="1.0" encoding="iso-8859-1"?>
<!-- Generator: Adobe Illustrator 19.0.0, SVG Export Plug-In . SVG Version: 6.00 Build 0)  -->
<svg version="1.1" id="Capa_1" xmlns="http://www.w3.org/2000/svg" xmlns:xlink="http://www.w3.org/1999/xlink" x="0px" y="0px"
	 viewBox="0 0 512.001 512.001" style="enable-background:new 0 0 512.001 512.001;" xml:space="preserve">
<g>
	<g>
		<path d="M509.804,92.067l-89.87-89.869c-1.573-1.572-3.839-2.375-6.05-2.164c-2.353,0.224-4.076,1.661-5.684,3.269
			c-10.171,10.171-11.432,25.929-3.785,37.485l-52.003,52.005c-11.558-7.647-27.315-6.386-37.487,3.785
			c-1.405,1.405-2.679,2.766-3.127,4.781c-0.554,2.49,0.217,5.147,2.021,6.952l31.195,31.195l-18.184,18.184
			c-35.686-29.358-80.581-45.474-126.94-45.474c-25.878,0-51.063,4.876-74.856,14.49c-3.849,1.555-5.707,5.935-4.153,9.783
			c1.556,3.848,5.933,5.705,9.784,4.152c21.995-8.888,45.285-13.395,69.225-13.395c42.382,0,83.437,14.574,116.25,41.134
			l-55.683,55.683c-0.963,0.963-1.646,2.17-1.977,3.491l-5.616,22.467c-1.35,5.401,3.708,10.467,9.114,9.113l22.467-5.616
			c1.321-0.331,2.527-1.013,3.491-1.977l55.686-55.686c14.353,17.732,25.204,37.905,32.148,59.386l-88.494,9.315
			c-1.945,0.205-3.734,1.16-4.987,2.663c-0.101,0.121-10.229,12.286-20.223,25.279c-21.595,28.075-21.595,32.628-21.595,35.641
			c0,8.569,12.566,46.932,16.417,58.487c0.822,2.466,2.86,4.333,5.389,4.934l92.117,21.933
			c-33.081,50.243-89.978,83.478-154.501,83.478c-22.323,0-43.734-3.978-63.563-11.261l52.586-47.806
			c0.687-0.624,1.251-1.37,1.666-2.199l32.063-64.126c0.71-1.42,0.952-3.029,0.691-4.596l-8.016-48.094
			c-0.166-0.996-0.531-1.948-1.073-2.799l-56.11-88.173c-1.202-1.89-3.185-3.145-5.407-3.423l-61.568-7.696l-28.553-28.553
			c10.9-12.049,23.475-22.784,37.57-31.83c3.493-2.242,4.507-6.891,2.265-10.383c-2.24-3.493-6.89-4.507-10.382-2.265
			C34.415,180.766,0,243.697,0,312.109C0,422.33,89.671,512,199.892,512s199.892-89.671,199.892-199.892
			c0-46.284-16.144-91.272-45.482-126.932l18.192-18.192l31.196,31.196c1.575,1.574,3.835,2.37,6.048,2.162
			c2.361-0.221,4.074-1.655,5.686-3.267c10.171-10.171,11.431-25.929,3.784-37.487l52.004-52.004
			c4.961,3.281,10.694,4.924,16.427,4.924c7.626,0,15.253-2.903,21.059-8.709c1.607-1.607,3.045-3.332,3.269-5.683
			C512.178,95.906,511.376,93.64,509.804,92.067z M15.029,312.109c0-6.468,0.351-12.879,1.005-19.221l58.4-4.867
			c2.348,6.804,6.595,18.864,11.244,30.818c4.156,10.688,7.832,19.246,10.928,25.436c4.822,9.647,8.822,15.283,14.881,15.424
			c3.929,0.731,17.47,9.3,29.882,18.207L85,456.824C42.395,422.928,15.029,370.657,15.029,312.109z M97.127,465.7l60.784-85.099
			c2.373-3.322,1.66-7.931-1.606-10.379c-14.159-10.62-32.31-23.096-42.002-25.232c-5.336-6.568-18.173-39.285-27.519-67.322
			c-1.096-3.287-4.298-5.4-7.753-5.112l-60.791,5.066c5.354-28.46,17.275-55.037,34.698-77.791l29.42,29.418
			c1.182,1.181,2.724,1.936,4.382,2.143l60.617,7.578l53.39,83.899l7.363,44.175l-30.342,60.685l-56.717,51.561
			C112.717,475.344,104.722,470.799,97.127,465.7z M384.755,312.11c-0.001,31.781-8.065,61.715-22.252,87.865l-92.669-22.064
			c-6.809-20.702-13.75-43.91-14.3-49.287c2.142-6.032,19.938-29.571,36.359-49.44l87.964-9.259
			C383.083,283.67,384.755,297.822,384.755,312.11z M278.782,239.442l-8.297,2.074l2.074-8.297l83.084-83.084l6.223,6.223
			L278.782,239.442z M408.116,181.353l-77.469-77.469c5.281-2.041,11.511-0.934,15.767,3.321l58.38,58.38
			C409.05,169.841,410.158,176.071,408.116,181.353z M409.003,148.539l-45.541-45.541l51.157-51.157l45.541,45.541L409.003,148.539z
			 M477.208,93.173l-58.38-58.38c-4.255-4.255-5.364-10.486-3.322-15.768l77.469,77.469
			C487.692,98.534,481.463,97.429,477.208,93.173z"/>
	</g>
</g>
<g>
</g>
<g>
</g>
<g>
</g>
<g>
</g>
<g>
</g>
<g>
</g>
<g>
</g>
<g>
</g>
<g>
</g>
<g>
</g>
<g>
</g>
<g>
</g>
<g>
</g>
<g>
</g>
<g>
</g>
</svg>
