<?xml version="1.0" encoding="iso-8859-1"?>
<!-- Generator: Adobe Illustrator 19.0.0, SVG Export Plug-In . SVG Version: 6.00 Build 0)  -->
<svg version="1.1" id="Capa_1" xmlns="http://www.w3.org/2000/svg" xmlns:xlink="http://www.w3.org/1999/xlink" x="0px" y="0px"
	 viewBox="0 0 512.001 512.001" style="enable-background:new 0 0 512.001 512.001;" xml:space="preserve">
<g>
	<g>
		<path d="M408.298,400.783h-16.993c-2.207-18.007-13.469-44.167-56.693-59.885c-9.701-3.528-20.551-6.326-32.322-8.377
			l27.362-54.725c1.832-3.662,0.302-8.25-3.361-10.082c-3.663-1.832-8.251-0.304-10.083,3.361L256,391.494l-98.329-196.656
			c-3.832-7.665-3.431-16.594,1.075-23.884c4.506-7.29,12.312-11.643,20.882-11.643h46.459l6.29,25.163l-7.912,94.948
			c-0.183,2.203,0.612,4.375,2.175,5.938l24.047,24.047c2.896,2.896,7.732,2.895,10.628,0l24.047-24.047
			c1.563-1.563,2.359-3.735,2.174-5.938l-7.912-94.945l6.291-25.166h46.458c8.571,0,16.377,4.352,20.883,11.643
			c4.505,7.29,4.907,16.219,1.074,23.884l-21.287,42.572c-1.832,3.662-0.302,8.25,3.361,10.082
			c3.663,1.833,8.251,0.304,10.083-3.361l21.287-42.572c6.179-12.357,5.532-26.752-1.732-38.506
			c-7.265-11.754-19.851-18.771-33.668-18.771H179.628c-13.817,0-26.403,7.017-33.667,18.77
			c-7.264,11.753-7.911,26.149-1.732,38.507l65.482,130.963c-11.772,2.051-22.622,4.849-32.322,8.376
			c-43.223,15.718-54.485,41.877-56.693,59.885h-16.993c-4.15,0-7.515,3.365-7.515,7.515c0,4.15,3.365,7.515,7.515,7.515h16.993
			c2.207,18.007,13.468,44.167,56.693,59.885c19.846,7.217,44.854,11.461,71.097,12.147v16.643c0,4.15,3.365,7.515,7.515,7.515
			c4.151,0,7.515-3.365,7.515-7.515v-16.643c26.243-0.685,51.25-4.93,71.097-12.147c43.223-15.718,54.485-41.877,56.693-59.885
			h16.993c4.151,0,7.515-3.365,7.515-7.515C415.812,404.147,412.449,400.783,408.298,400.783z M270.423,159.311l-4.258,17.033
			h-20.329l-4.258-17.033H270.423z M246.883,191.374h18.234l7.153,85.824L256,293.467l-16.269-16.269L246.883,191.374z
			 M249.279,411.658c1.272,2.546,3.875,4.154,6.721,4.154c2.847,0,5.449-1.608,6.721-4.154l13.512-27.026
			c39.427,3.48,60.424,15.918,60.424,23.665c0,3.698-5.468,10.006-20.879,15.609c-15.851,5.764-37.081,8.938-59.779,8.938
			c-22.698,0-43.928-3.174-59.779-8.938c-15.41-5.604-20.879-11.911-20.879-15.609c0-7.836,20.985-20.199,60.423-23.666
			L249.279,411.658z M368.219,415.812h7.878c-2.35,13.902-12.291,33.276-46.623,45.76c-18.27,6.644-41.457,10.567-65.96,11.237
			v-8.402c0-4.15-3.364-7.515-7.515-7.515c-4.15,0-7.515,3.365-7.515,7.515v8.402c-24.503-0.67-47.691-4.593-65.961-11.237
			c-34.331-12.484-44.272-31.858-46.622-45.76h7.878c4.15,0,7.515-3.365,7.515-7.515c0-4.15-3.365-7.515-7.515-7.515h-7.878
			c2.35-13.902,12.291-33.276,46.622-45.76c10.072-3.662,21.576-6.487,34.222-8.429l11.833,23.667
			c-16.897,1.949-32.19,5.703-43.729,10.802c-20.28,8.961-24.537,19.757-24.537,27.235c0,25.983,48.136,39.577,95.687,39.577
			c47.55,0,95.687-13.595,95.687-39.577c0-22.367-35.307-34.204-68.266-38.039l11.833-23.666c12.645,1.942,24.147,4.767,34.221,8.43
			c34.332,12.484,44.273,31.858,46.623,45.76h-7.878c-4.151,0-7.515,3.365-7.515,7.515
			C360.705,412.448,364.068,415.812,368.219,415.812z"/>
	</g>
</g>
<g>
	<g>
		<path d="M453.428,139.23c-6.384-20.298-20.289-36.894-39.154-46.732c-3.679-1.919-8.218-0.493-10.138,3.188
			c-1.919,3.68-0.491,8.219,3.189,10.138c15.305,7.982,26.586,21.447,31.765,37.914c5.178,16.469,3.634,33.966-4.348,49.271
			c-1.746,3.347-0.67,7.604,2.466,9.71c3.673,2.466,8.817,1.157,10.859-2.759C457.907,181.096,459.81,159.528,453.428,139.23z"/>
	</g>
</g>
<g>
	<g>
		<path d="M415.195,151.252c-3.171-10.085-10.081-18.331-19.454-23.219c-3.678-1.919-8.219-0.493-10.138,3.188
			c-1.919,3.68-0.491,8.219,3.189,10.138c5.813,3.032,10.099,8.147,12.066,14.402c1.967,6.255,1.381,12.901-1.65,18.715
			c-1.745,3.346-0.67,7.604,2.466,9.71c3.673,2.466,8.817,1.157,10.859-2.759C417.423,172.053,418.367,161.337,415.195,151.252z"/>
	</g>
</g>
<g>
	<g>
		<path d="M491.659,127.206c-9.593-30.509-30.495-55.455-58.852-70.244c-3.678-1.919-8.218-0.493-10.138,3.188
			c-1.919,3.68-0.491,8.219,3.189,10.138c24.798,12.933,43.075,34.748,51.465,61.428c8.39,26.68,5.889,55.029-7.044,79.827
			c-1.746,3.347-0.669,7.605,2.467,9.71c3.673,2.466,8.816,1.157,10.859-2.759C498.393,190.135,501.254,157.716,491.659,127.206z"/>
	</g>
</g>
<g>
	<g>
		<path d="M107.865,95.686c-1.919-3.68-6.457-5.105-10.138-3.188c-18.866,9.838-32.77,26.435-39.153,46.731
			c-6.383,20.297-4.479,41.865,5.359,60.73c2.042,3.917,7.186,5.226,10.859,2.759c3.136-2.106,4.212-6.363,2.467-9.71
			c-7.983-15.306-9.527-32.804-4.348-49.271c5.177-16.466,16.458-29.931,31.765-37.913
			C108.356,103.905,109.784,99.366,107.865,95.686z"/>
	</g>
</g>
<g>
	<g>
		<path d="M126.398,131.221c-1.919-3.679-6.459-5.107-10.138-3.188c-9.373,4.889-16.282,13.135-19.454,23.218
			c-3.171,10.084-2.225,20.801,2.663,30.174c1.339,2.571,3.958,4.042,6.668,4.042c5.559,0,9.214-6.088,6.657-10.99
			c-3.032-5.814-3.618-12.461-1.651-18.716c1.967-6.255,6.252-11.369,12.067-14.402C126.89,139.439,128.317,134.901,126.398,131.221
			z"/>
	</g>
</g>
<g>
	<g>
		<path d="M89.332,60.149c-1.919-3.68-6.458-5.106-10.138-3.188C50.837,71.75,29.936,96.697,20.341,127.205
			c-9.594,30.51-6.733,62.929,8.057,91.285c2.043,3.917,7.185,5.226,10.859,2.759c3.136-2.106,4.212-6.363,2.467-9.71
			c-12.933-24.796-15.435-53.146-7.046-79.825c8.39-26.679,26.667-48.495,51.466-61.428C89.823,68.368,91.251,63.83,89.332,60.149z"
			/>
	</g>
</g>
<g>
	<g>
		<path d="M256,0h-88.172c-5.155,0-8.848,5.321-7.036,10.153l23.605,62.948c0.44,21.788,10.639,41.218,26.413,54.078
			c0.315,0.293,0.651,0.561,1.013,0.797c12.182,9.574,27.518,15.305,44.177,15.305c16.766,0,32.193-5.804,44.411-15.489
			c0.121-0.086,0.251-0.153,0.369-0.246c14.162-11.357,23.307-27.319,26.014-44.9c0.564-3.637,0.847-7.324,0.847-11.005
			C327.64,32.138,295.502,0,256,0z M288.564,117.904c-9.218,6.508-20.447,10.346-32.564,10.346
			c-12.117,0-23.346-3.839-32.564-10.346V63.123h65.127V117.904z M311.432,83.151c-1.432,6.904-4.136,13.345-7.838,19.084V55.609
			c0-4.15-3.364-7.515-7.515-7.515h-80.157c-4.15,0-7.515,3.365-7.515,7.515v46.627c-5.696-8.83-9.018-19.329-9.018-30.596
			c0-0.89-0.167-1.805-0.479-2.638l-20.24-53.972H256c31.215,0,56.611,25.396,56.611,56.611
			C312.611,75.502,312.21,79.369,311.432,83.151z"/>
	</g>
</g>
<g>
</g>
<g>
</g>
<g>
</g>
<g>
</g>
<g>
</g>
<g>
</g>
<g>
</g>
<g>
</g>
<g>
</g>
<g>
</g>
<g>
</g>
<g>
</g>
<g>
</g>
<g>
</g>
<g>
</g>
</svg>
