<?xml version="1.0" encoding="iso-8859-1"?>
<!-- Generator: Adobe Illustrator 19.0.0, SVG Export Plug-In . SVG Version: 6.00 Build 0)  -->
<svg version="1.1" id="Capa_1" xmlns="http://www.w3.org/2000/svg" xmlns:xlink="http://www.w3.org/1999/xlink" x="0px" y="0px"
	 viewBox="0 0 511.999 511.999" style="enable-background:new 0 0 511.999 511.999;" xml:space="preserve">
<g>
	<g>
		<path d="M255.999,0C154.613,0,72.128,82.484,72.128,183.871c0,32.162,9.497,69.406,28.227,110.696
			c14.818,32.666,35.444,68.004,61.305,105.033c43.912,62.874,88.464,109.647,88.908,110.112c2.917,3.049,7.945,3.049,10.862,0
			c0.445-0.465,44.996-47.238,88.908-110.112c25.862-37.03,46.489-72.367,61.306-105.033c18.73-41.291,28.227-78.534,28.227-110.696
			C439.87,82.484,357.387,0,255.999,0z M338.135,390.824c-34.333,49.183-69.052,88.354-82.136,102.652
			c-13.083-14.298-47.802-53.468-82.136-102.652c-56.722-81.256-86.705-152.819-86.705-206.953
			c0-93.099,75.742-168.841,168.841-168.841S424.84,90.772,424.84,183.871C424.84,238.004,394.857,309.568,338.135,390.824z"/>
	</g>
</g>
<g>
	<g>
		<path d="M341.212,78.162c-3.232-2.608-7.961-2.101-10.567,1.128c-2.607,3.231-2.102,7.961,1.128,10.568
			c28.579,23.066,44.97,57.331,44.97,94.013c0,66.578-54.165,120.744-120.744,120.744s-120.744-54.165-120.744-120.744
			S189.421,63.127,255.999,63.127c15.684,0,30.939,2.961,45.34,8.8c3.851,1.559,8.23-0.295,9.789-4.141
			c1.56-3.846-0.295-8.229-4.14-9.789c-16.205-6.568-33.359-9.9-50.989-9.9c-74.866,0-135.774,60.908-135.774,135.774
			s60.908,135.774,135.774,135.774s135.774-60.908,135.774-135.774C391.773,142.624,373.345,104.095,341.212,78.162z"/>
	</g>
</g>
<g>
	<g>
		<path d="M325.443,146.493l-24.049-24.049c-1.41-1.41-3.321-2.201-5.315-2.201h-8.016H191.87c-4.15,0-7.515,3.365-7.515,7.515
			v128.259c0,4.15,3.365,7.515,7.515,7.515h128.259c4.151,0,7.515-3.365,7.515-7.515v-104.21
			C327.644,149.813,326.852,147.901,325.443,146.493z M231.45,135.273h49.099v17.034H231.45V135.273z M280.549,248.501H231.45
			v-41.083h49.099V248.501z M312.613,248.501h-17.034v-48.598c0-4.15-3.364-7.515-7.515-7.515h-64.129
			c-4.15,0-7.515,3.365-7.515,7.515v48.598h-17.034V135.273h17.034v24.549c0,4.15,3.365,7.515,7.515,7.515h64.129
			c4.151,0,7.515-3.365,7.515-7.515v-21.938l17.034,17.034V248.501z"/>
	</g>
</g>
<g>
	<g>
		<path d="M264.015,224.453h-16.032c-4.15,0-7.515,3.365-7.515,7.515s3.365,7.515,7.515,7.515h16.032
			c4.151,0,7.515-3.365,7.515-7.515S268.167,224.453,264.015,224.453z"/>
	</g>
</g>
<g>
</g>
<g>
</g>
<g>
</g>
<g>
</g>
<g>
</g>
<g>
</g>
<g>
</g>
<g>
</g>
<g>
</g>
<g>
</g>
<g>
</g>
<g>
</g>
<g>
</g>
<g>
</g>
<g>
</g>
</svg>
