<?xml version="1.0" encoding="iso-8859-1"?>
<!-- Generator: Adobe Illustrator 19.0.0, SVG Export Plug-In . SVG Version: 6.00 Build 0)  -->
<svg version="1.1" id="Capa_1" xmlns="http://www.w3.org/2000/svg" xmlns:xlink="http://www.w3.org/1999/xlink" x="0px" y="0px"
	 viewBox="0 0 511.999 511.999" style="enable-background:new 0 0 511.999 511.999;" xml:space="preserve">
<g>
	<g>
		<path d="M360.21,176.356h-8.812c-3.652-46.785-41.098-84.232-87.883-87.884v-8.811c0-4.15-3.365-7.515-7.515-7.515
			s-7.515,3.365-7.515,7.515v8.811c-46.785,3.652-84.232,41.098-87.883,87.884h-8.812c-4.15,0-7.515,3.365-7.515,7.515
			s3.365,7.515,7.515,7.515h8.812c3.652,46.785,41.098,84.232,87.883,87.884v8.811c0,4.15,3.365,7.515,7.515,7.515
			s7.515-3.365,7.515-7.515v-8.811c46.785-3.652,84.232-41.098,87.883-87.884h8.812c4.15,0,7.515-3.365,7.515-7.515
			S364.36,176.356,360.21,176.356z M247.983,240.485c-9.116,0-16.533-7.417-16.533-16.533c0-4.15-3.365-7.515-7.515-7.515
			s-7.515,3.365-7.515,7.515c0,17.404,14.16,31.564,31.564,31.564h0.501v0.501v8.154c-38.489-3.574-69.211-34.295-72.785-72.785
			h8.154c4.15,0,7.515-3.365,7.515-7.515s-3.365-7.515-7.515-7.515H175.7c3.574-38.49,34.296-69.211,72.785-72.785v8.154v0.501
			h-0.501c-17.404,0-31.564,14.16-31.564,31.564v16.032c0,17.404,14.16,31.564,31.564,31.564h16.032
			c9.116,0,16.533,7.417,16.533,16.533v16.032c0,9.116-7.417,16.533-16.533,16.533H247.983z M328.146,191.386h8.154
			c-3.574,38.49-34.296,69.211-72.785,72.785v-8.154v-0.501h0.501c17.404,0,31.564-14.16,31.564-31.564v-16.032
			c0-17.404-14.16-31.564-31.564-31.564h-16.032c-9.116,0-16.533-7.417-16.533-16.533V143.79c0-9.116,7.417-16.533,16.533-16.533
			h16.032c9.116,0,16.533,7.417,16.533,16.533c0,4.15,3.365,7.515,7.515,7.515c4.15,0,7.515-3.365,7.515-7.515
			c0-17.404-14.16-31.564-31.564-31.564h-0.501v-0.501v-8.154c38.489,3.574,69.211,34.295,72.785,72.785h-8.154
			c-4.15,0-7.515,3.365-7.515,7.515S323.996,191.386,328.146,191.386z"/>
	</g>
</g>
<g>
	<g>
		<path d="M256,0C154.613,0,72.129,82.484,72.129,183.871c0,32.162,9.497,69.406,28.227,110.696
			c14.818,32.666,35.444,68.004,61.305,105.033c43.912,62.874,88.464,109.647,88.908,110.112c2.917,3.049,7.945,3.049,10.862,0
			c0.445-0.465,44.997-47.238,88.908-110.112c25.861-37.03,46.488-72.367,61.305-105.033c18.73-41.291,28.227-78.534,28.227-110.696
			C439.871,82.484,357.386,0,256,0z M338.135,390.824c-34.333,49.183-69.052,88.354-82.136,102.652
			c-13.083-14.298-47.802-53.468-82.136-102.652c-56.722-81.256-86.705-152.819-86.705-206.953
			C87.159,90.772,162.901,15.03,256,15.03S424.84,90.772,424.84,183.871C424.84,238.004,394.859,309.568,338.135,390.824z"/>
	</g>
</g>
<g>
	<g>
		<path d="M341.177,78.133c-3.232-2.606-7.963-2.099-10.567,1.131c-2.606,3.232-2.099,7.962,1.131,10.567
			c28.6,23.067,45.003,57.342,45.003,94.04c0,66.578-54.165,120.744-120.744,120.744s-120.744-54.165-120.744-120.744
			S189.421,63.127,256,63.127c15.665,0,30.901,2.953,45.287,8.778c3.795,1.537,8.25-0.35,9.786-4.145
			c1.537-3.796-0.349-8.25-4.145-9.787c-16.186-6.553-33.32-9.876-50.928-9.876c-74.866,0-135.774,60.908-135.774,135.774
			S181.134,319.645,256,319.645s135.774-60.908,135.774-135.774C391.774,142.606,373.331,104.065,341.177,78.133z"/>
	</g>
</g>
<g>
</g>
<g>
</g>
<g>
</g>
<g>
</g>
<g>
</g>
<g>
</g>
<g>
</g>
<g>
</g>
<g>
</g>
<g>
</g>
<g>
</g>
<g>
</g>
<g>
</g>
<g>
</g>
<g>
</g>
</svg>
