<?xml version="1.0" encoding="iso-8859-1"?>
<!-- Generator: Adobe Illustrator 19.0.0, SVG Export Plug-In . SVG Version: 6.00 Build 0)  -->
<svg version="1.1" id="Capa_1" xmlns="http://www.w3.org/2000/svg" xmlns:xlink="http://www.w3.org/1999/xlink" x="0px" y="0px"
	 viewBox="0 0 511.999 511.999" style="enable-background:new 0 0 511.999 511.999;" xml:space="preserve">
<g>
	<g>
		<path d="M507.083,56.572L354.786,0.462c-1.492-0.552-3.175-0.607-4.702-0.163L160.086,55.715L10.113,0.462
			C5.284-1.314,0,2.377,0,7.514v440.861c0,3.148,1.963,5.963,4.917,7.052l152.297,56.11c1.457,0.538,3.1,0.607,4.597,0.192
			l190.115-52.479l150.084,52.332c4.809,1.676,9.989-2.015,9.989-7.096V63.624C512,60.475,510.037,57.661,507.083,56.572z
			 M167.327,69.259l177.346-51.726V33.94L167.327,85.666V69.259z M152.297,493.707L15.029,443.135V18.291l137.268,50.573v16.47
			L41.906,49.357c-4.781-1.557-9.843,2.125-9.843,7.145v372.523c0,3.166,1.985,5.993,4.964,7.069l115.271,41.605V493.707z
			 M344.673,445.66l-177.346,48.955v-16.556l177.346-51.726V445.66z M344.673,410.676l-177.346,51.726V195.882
			c0-4.15-3.365-7.515-7.515-7.515s-7.515,3.365-7.515,7.515V461.72L47.092,423.747V66.854l105.206,34.286v60.174
			c0,4.15,3.365,7.515,7.515,7.515s7.515-3.365,7.515-7.515v-59.992l177.346-51.726v63.195
			c-13.459-10.397-30.311-16.604-48.595-16.604c-43.922,0-79.656,35.734-79.656,79.656c0,41.387,31.731,75.49,72.141,79.291v89.038
			c0,4.15,3.365,7.515,7.515,7.515c4.15,0,7.515-3.365,7.515-7.515v-89.038c15.377-1.446,29.488-7.284,41.08-16.24V410.676z
			 M296.078,240.469c-35.635,0-64.626-28.992-64.626-64.626s28.992-64.626,64.626-64.626c35.635,0,64.626,28.992,64.626,64.626
			S331.713,240.469,296.078,240.469z M375.734,175.843c0-18.098-6.078-34.798-16.286-48.189c0.16-0.61,0.254-1.248,0.254-1.909
			V50.788l105.206,43.233v356.634l-105.206-39.547V225.607c0-0.57-0.069-1.124-0.189-1.658
			C369.682,210.573,375.734,193.904,375.734,175.843z M496.971,493.906l-137.268-47.863v-18.877l110.076,41.378
			c4.835,1.817,10.159-1.877,10.159-7.035V88.986c0-3.047-1.84-5.792-4.658-6.951L359.703,34.54V18.291l137.268,50.573V493.906z"/>
	</g>
</g>
<g>
	<g>
		<path d="M296.078,128.25c-4.15,0-7.515,3.365-7.515,7.515c0,4.15,3.365,7.515,7.515,7.515c17.955,0,32.564,14.609,32.564,32.564
			c0,4.15,3.365,7.515,7.515,7.515s7.515-3.365,7.515-7.515C343.671,149.599,322.321,128.25,296.078,128.25z"/>
	</g>
</g>
<g>
	<g>
		<path d="M323.486,377.529l-10.605-5.302l10.605-5.302c3.712-1.856,5.217-6.369,3.361-10.082
			c-1.856-3.712-6.369-5.218-10.082-3.361l-20.686,10.343l-20.686-10.343c-3.712-1.857-8.226-0.352-10.082,3.361
			c-1.857,3.712-0.352,8.226,3.361,10.082l10.605,5.302l-10.605,5.302c-3.712,1.856-5.217,6.369-3.361,10.082
			c1.831,3.661,6.416,5.194,10.082,3.361l20.686-10.343l20.686,10.343c3.914,1.958,8.776,0.062,10.364-4.001
			C328.524,383.403,326.907,379.239,323.486,377.529z"/>
	</g>
</g>
<g>
</g>
<g>
</g>
<g>
</g>
<g>
</g>
<g>
</g>
<g>
</g>
<g>
</g>
<g>
</g>
<g>
</g>
<g>
</g>
<g>
</g>
<g>
</g>
<g>
</g>
<g>
</g>
<g>
</g>
</svg>
