<?xml version="1.0" encoding="iso-8859-1"?>
<!-- Generator: Adobe Illustrator 19.0.0, SVG Export Plug-In . SVG Version: 6.00 Build 0)  -->
<svg version="1.1" id="Capa_1" xmlns="http://www.w3.org/2000/svg" xmlns:xlink="http://www.w3.org/1999/xlink" x="0px" y="0px"
	 viewBox="0 0 511.999 511.999" style="enable-background:new 0 0 511.999 511.999;" xml:space="preserve">
<g>
	<g>
		<path d="M255.999,0C154.613,0,72.128,82.484,72.128,183.871c0,32.162,9.497,69.406,28.227,110.696
			c14.818,32.666,35.444,68.004,61.305,105.033c43.912,62.874,88.464,109.647,88.908,110.112c2.917,3.049,7.945,3.049,10.862,0
			c0.445-0.465,44.996-47.238,88.908-110.112c25.862-37.03,46.489-72.367,61.306-105.033c18.73-41.291,28.227-78.534,28.227-110.696
			C439.87,82.484,357.387,0,255.999,0z M338.135,390.824c-34.333,49.183-69.052,88.354-82.136,102.652
			c-13.083-14.298-47.802-53.468-82.136-102.652c-56.722-81.256-86.705-152.819-86.705-206.953
			c0-93.099,75.742-168.841,168.841-168.841S424.84,90.772,424.84,183.871C424.84,238.004,394.857,309.568,338.135,390.824z"/>
	</g>
</g>
<g>
	<g>
		<path d="M338.865,76.31c-3.284-2.534-8.004-1.928-10.541,1.36c-2.535,3.286-1.926,8.005,1.36,10.54
			c29.906,23.073,47.058,57.94,47.058,95.661c0,66.578-54.165,120.744-120.744,120.744s-120.744-54.165-120.744-120.744
			S189.421,63.127,255.999,63.127c15.684,0,30.939,2.961,45.34,8.8c3.851,1.56,8.23-0.295,9.789-4.141
			c1.56-3.846-0.295-8.229-4.14-9.789c-16.205-6.568-33.359-9.9-50.989-9.9c-74.866,0-135.774,60.908-135.774,135.774
			s60.908,135.774,135.774,135.774s135.774-60.908,135.774-135.774C391.773,141.454,372.489,102.25,338.865,76.31z"/>
	</g>
</g>
<g>
	<g>
		<path d="M255.999,208.421c-17.404,0-31.564,14.16-31.564,31.564s14.16,31.564,31.564,31.564s31.564-14.16,31.564-31.564
			S273.403,208.421,255.999,208.421z M255.999,256.518c-9.116,0-16.533-7.417-16.533-16.533s7.417-16.533,16.533-16.533
			s16.533,7.417,16.533,16.533S265.116,256.518,255.999,256.518z"/>
	</g>
</g>
<g>
	<g>
		<path d="M312.328,159.607c-15.046-15.045-35.051-23.332-56.329-23.332c-21.278,0-41.282,8.287-56.329,23.332
			c-2.737,2.735-2.918,7.256-0.4,10.197c2.811,3.282,7.97,3.488,11.027,0.431c12.208-12.207,28.438-18.929,45.701-18.929
			s33.494,6.723,45.701,18.93c2.934,2.935,7.693,2.934,10.628,0C315.264,167.301,315.264,162.542,312.328,159.607z"/>
	</g>
</g>
<g>
	<g>
		<path d="M283.986,187.949c-7.475-7.476-17.414-11.593-27.987-11.593c-10.572,0-20.511,4.117-27.987,11.592
			c-2.896,2.895-2.896,7.733,0,10.627c2.897,2.896,7.735,2.896,10.629,0.001c4.636-4.636,10.802-7.19,17.359-7.19
			c6.558,0,12.723,2.553,17.358,7.189c3.057,3.057,8.217,2.852,11.027-0.43C286.904,195.205,286.722,190.686,283.986,187.949z"/>
	</g>
</g>
<g>
	<g>
		<path d="M340.671,131.266c-22.618-22.617-52.688-35.072-84.672-35.072s-62.053,12.455-84.67,35.072
			c-2.896,2.895-2.896,7.733,0,10.627c2.895,2.895,7.733,2.895,10.627,0c19.778-19.777,46.074-30.669,74.042-30.669
			c27.969,0,54.264,10.892,74.042,30.669c1.468,1.468,3.392,2.201,5.315,2.201C341.927,144.095,345.3,135.895,340.671,131.266z"/>
	</g>
</g>
<g>
</g>
<g>
</g>
<g>
</g>
<g>
</g>
<g>
</g>
<g>
</g>
<g>
</g>
<g>
</g>
<g>
</g>
<g>
</g>
<g>
</g>
<g>
</g>
<g>
</g>
<g>
</g>
<g>
</g>
</svg>
