<?xml version="1.0" encoding="iso-8859-1"?>
<!-- Generator: Adobe Illustrator 19.0.0, SVG Export Plug-In . SVG Version: 6.00 Build 0)  -->
<svg version="1.1" id="Capa_1" xmlns="http://www.w3.org/2000/svg" xmlns:xlink="http://www.w3.org/1999/xlink" x="0px" y="0px"
	 viewBox="0 0 511.999 511.999" style="enable-background:new 0 0 511.999 511.999;" xml:space="preserve">
<g>
	<g>
		<path d="M256,0C154.613,0,72.129,82.484,72.129,183.871c0,32.162,9.497,69.406,28.227,110.696
			c14.818,32.666,35.444,68.004,61.305,105.033c43.912,62.874,88.464,109.647,88.908,110.112c2.917,3.049,7.945,3.049,10.862,0
			c0.445-0.465,44.997-47.238,88.908-110.112c25.861-37.03,46.488-72.367,61.305-105.033c18.73-41.291,28.227-78.534,28.227-110.696
			C439.871,82.484,357.386,0,256,0z M338.135,390.824c-34.333,49.183-69.052,88.354-82.136,102.652
			c-13.083-14.298-47.802-53.468-82.136-102.652c-56.722-81.256-86.705-152.819-86.705-206.953
			C87.159,90.772,162.901,15.03,256,15.03S424.84,90.772,424.84,183.871C424.84,238.004,394.859,309.568,338.135,390.824z"/>
	</g>
</g>
<g>
	<g>
		<path d="M341.659,78.523c-3.175-2.585-7.987-2.091-10.572,1.084c-2.585,3.175-2.092,7.988,1.084,10.572
			c28.327,23.06,44.573,57.208,44.573,93.691c0,66.578-54.165,120.744-120.744,120.744s-120.744-54.165-120.744-120.744
			S189.421,63.127,256,63.127c15.922,0,31.392,3.048,45.979,9.06c3.787,1.561,8.252-0.298,9.812-4.084
			c1.56-3.787-0.298-8.251-4.084-9.812C291.294,51.527,273.897,48.097,256,48.097c-74.866,0-135.774,60.908-135.774,135.774
			S181.134,319.645,256,319.645s135.774-60.908,135.774-135.774C391.774,142.847,373.508,104.45,341.659,78.523z"/>
	</g>
</g>
<g>
	<g>
		<path d="M293.265,136.822l-57.086,23.076c-1.857,0.752-3.4,2.295-4.151,4.151l-23.076,57.086
			c-2.432,6.016,3.753,12.221,9.784,9.784l57.086-23.076c1.351-0.546,2.544-1.517,3.368-2.717c0.306-0.444,0.581-0.935,0.784-1.435
			l23.076-57.086C305.482,140.584,299.287,134.389,293.265,136.822z M229.525,210.345l12.183-30.139l17.956,17.956L229.525,210.345z
			 M270.292,187.535l-17.956-17.956l30.139-12.183L270.292,187.535z"/>
	</g>
</g>
<g>
	<g>
		<path d="M272.033,80.162c-4.15,0-7.515,3.365-7.515,7.515v13.922l-19.236-19.236c-2.149-2.15-5.382-2.792-8.19-1.629
			c-2.809,1.163-4.639,3.904-4.639,6.943v32.065c-0.001,4.15,3.364,7.515,7.514,7.515s7.515-3.365,7.515-7.515V105.82l19.236,19.236
			c1.438,1.438,3.36,2.201,5.316,2.201c0.968,0,1.945-0.187,2.875-0.572c2.809-1.163,4.639-3.904,4.639-6.943V87.677
			C279.548,83.527,276.183,80.162,272.033,80.162z"/>
	</g>
</g>
<g>
	<g>
		<path d="M264.016,256.518h-16.032c-0.277,0-0.501-0.224-0.501-0.501V248c0-0.277,0.224-0.501,0.501-0.501h24.049
			c4.15,0,7.515-3.365,7.515-7.515s-3.365-7.515-7.515-7.515h-24.049c-8.564,0-15.531,6.967-15.531,15.531v8.016
			c0,8.564,6.967,15.531,15.531,15.531h16.032c0.277,0,0.501,0.224,0.501,0.501v8.016c0,0.277-0.224,0.501-0.501,0.501h-24.049
			c-4.15,0-7.515,3.365-7.515,7.515s3.365,7.515,7.515,7.515h24.049c8.564,0,15.531-6.967,15.531-15.531v-8.016
			C279.547,263.485,272.58,256.518,264.016,256.518z"/>
	</g>
</g>
<g>
</g>
<g>
</g>
<g>
</g>
<g>
</g>
<g>
</g>
<g>
</g>
<g>
</g>
<g>
</g>
<g>
</g>
<g>
</g>
<g>
</g>
<g>
</g>
<g>
</g>
<g>
</g>
<g>
</g>
</svg>
