<?xml version="1.0" encoding="iso-8859-1"?>
<!-- Generator: Adobe Illustrator 19.0.0, SVG Export Plug-In . SVG Version: 6.00 Build 0)  -->
<svg version="1.1" id="Capa_1" xmlns="http://www.w3.org/2000/svg" xmlns:xlink="http://www.w3.org/1999/xlink" x="0px" y="0px"
	 viewBox="0 0 512.002 512.002" style="enable-background:new 0 0 512.002 512.002;" xml:space="preserve">
<g>
	<g>
		<path d="M322.954,0.57c-3.839-1.583-8.231,0.244-9.813,4.08l-36.459,88.352L142.627,57.547V7.518c0-4.15-3.364-7.515-7.515-7.515
			s-7.515,3.365-7.515,7.515v55.816c0,3.41,2.296,6.392,5.593,7.264l146.007,38.617c3.597,0.951,7.449-0.961,8.868-4.399
			l38.968-94.433C328.616,6.547,326.79,2.153,322.954,0.57z"/>
	</g>
</g>
<g>
	<g>
		<path d="M95.034,0.003c-4.151,0-7.515,3.365-7.515,7.515v35.454L9.439,22.321c-4.009-1.063-8.124,1.332-9.187,5.343
			c-1.061,4.013,1.332,8.125,5.343,9.186l87.516,23.147c4.698,1.243,9.436-2.417,9.436-7.264V7.518
			C102.549,3.368,99.185,0.003,95.034,0.003z"/>
	</g>
</g>
<g>
	<g>
		<path d="M506.406,407.692l-87.233-23.072c-3.644-0.964-7.431,0.917-8.868,4.399l-46.465,112.6
			c-1.583,3.836,0.244,8.23,4.079,9.813c0.939,0.387,1.909,0.57,2.864,0.57c2.952,0,5.753-1.751,6.95-4.65l43.956-106.52
			l80.874,21.391c4.014,1.064,8.125-1.331,9.187-5.343C512.811,412.866,510.418,408.753,506.406,407.692z"/>
	</g>
</g>
<g>
	<g>
		<path d="M507.352,68.476c-3.839-1.584-8.231,0.243-9.813,4.08l-29.34,71.1l-137.77-36.437l39.96-96.835
			c1.583-3.836-0.243-8.23-4.079-9.813c-3.841-1.583-8.231,0.243-9.813,4.08l-43.234,104.771c-0.828,2.003-0.749,4.265,0.213,6.206
			c0.963,1.941,2.716,3.372,4.81,3.926l152.428,40.315c3.597,0.951,7.449-0.961,8.868-4.398l31.849-77.181
			C513.014,74.453,511.187,70.059,507.352,68.476z"/>
	</g>
</g>
<g>
	<g>
		<path d="M459.132,182.717L410.3,169.801c-4.01-1.064-8.125,1.332-9.187,5.343c-1.061,4.013,1.332,8.125,5.343,9.186l40.533,10.721
			l-57.841,140.171l-164.99-43.638c-0.103-0.027-0.205-0.043-0.309-0.065l2.904-12.816c1.323-5.837-4.696-10.902-10.221-8.597
			l-28.556,11.908l-45.349-11.994V114.55l229.042,60.579c4.012,1.065,8.125-1.332,9.187-5.343c1.061-4.013-1.332-8.125-5.343-9.186
			L137.034,97.525c-4.695-1.241-9.436,2.416-9.436,7.264v171.016c0,3.411,2.296,6.392,5.593,7.264l31.974,8.456l-62.616,26.111
			V306.66c0-3.41-2.296-6.392-5.593-7.264L9.439,276.248c-4.009-1.062-8.124,1.332-9.187,5.343
			c-1.061,4.013,1.332,8.125,5.343,9.186l81.923,21.668v11.457L41.698,343.01c-6.03,2.515-6.038,11.345-0.009,13.868l45.863,19.195
			c-0.019,0.218-0.033,0.439-0.033,0.662v127.749c0,4.15,3.364,7.515,7.515,7.515s7.515-3.365,7.515-7.515V382.35l20.939,8.763
			l4.11,6.43v106.94c0,4.15,3.364,7.515,7.515,7.515s7.515-3.365,7.515-7.515V421.06l28.613,44.771
			c3.52,5.511,12.219,3.979,13.661-2.386l26.77-118.164l156.272,41.332l-47.456,115.003c-1.583,3.836,0.243,8.23,4.079,9.813
			c0.939,0.387,1.909,0.57,2.864,0.57c2.952,0,5.753-1.751,6.95-4.65l50.732-122.939c0.826-2.001,0.746-4.263-0.215-6.204
			c-0.963-1.941-2.716-3.372-4.81-3.926l-164.82-43.594c-0.091-0.024-0.183-0.037-0.275-0.058l5.542-24.459l171.132,45.263
			c3.597,0.951,7.449-0.961,8.868-4.399l63.626-154.187C465.867,188.705,463.456,183.861,459.132,182.717z M174.216,442.582
			l-39.329-61.54c-0.823-1.289-2.02-2.295-3.431-2.886L64.085,349.96l144.794-60.378L174.216,442.582z"/>
	</g>
</g>
<g>
	<g>
		<path d="M96.956,86.924L9.439,63.777c-4.009-1.063-8.124,1.332-9.187,5.343c-1.061,4.012,1.332,8.125,5.343,9.186l81.923,21.668
			v155.469l-78.08-20.651c-4.009-1.063-8.124,1.332-9.187,5.343c-1.061,4.013,1.332,8.125,5.343,9.186l87.516,23.147
			c4.698,1.243,9.436-2.417,9.436-7.264V94.188C102.549,90.779,100.252,87.796,96.956,86.924z"/>
	</g>
</g>
<g>
	<g>
		<path d="M506.406,366.236l-63.511-16.798l60.351-146.251c1.583-3.836-0.243-8.23-4.079-9.813c-3.838-1.583-8.231,0.243-9.813,4.08
			L425.728,351.64c-1.71,4.143,0.701,8.987,5.025,10.131l71.81,18.993c0.644,0.17,1.29,0.252,1.927,0.252
			c3.326,0,6.368-2.227,7.26-5.595C512.811,371.411,510.418,367.298,506.406,366.236z"/>
	</g>
</g>
<g>
</g>
<g>
</g>
<g>
</g>
<g>
</g>
<g>
</g>
<g>
</g>
<g>
</g>
<g>
</g>
<g>
</g>
<g>
</g>
<g>
</g>
<g>
</g>
<g>
</g>
<g>
</g>
<g>
</g>
</svg>
