<?xml version="1.0" encoding="iso-8859-1"?>
<!-- Generator: Adobe Illustrator 19.0.0, SVG Export Plug-In . SVG Version: 6.00 Build 0)  -->
<svg version="1.1" id="Capa_1" xmlns="http://www.w3.org/2000/svg" xmlns:xlink="http://www.w3.org/1999/xlink" x="0px" y="0px"
	 viewBox="0 0 512.001 512.001" style="enable-background:new 0 0 512.001 512.001;" xml:space="preserve">
<g>
	<g>
		<path d="M511.778,502.594l-11.421-45.689c-0.333-1.332-1.022-2.547-1.992-3.517l-177.401-177.4l68.89-68.89
			c2.213-2.213,2.868-5.763,1.475-8.585c-0.731-1.479-1.951-2.599-3.099-3.748c-1.363-1.363-2.726-2.725-4.088-4.088
			c-18.697-18.698-49.118-18.698-67.819,0l-0.356,0.356L201.031,76.1l0.356-0.356c18.698-18.698,18.698-49.121,0-67.819
			c-1.735-1.735-3.47-3.47-5.205-5.205c-1.185-1.185-2.476-2.137-4.147-2.525c-2.524-0.587-5.235,0.188-7.067,2.02L2.213,184.967
			c-1.871,1.87-2.636,4.656-1.985,7.219c0.413,1.623,1.363,2.867,2.518,4.023c1.726,1.726,3.452,3.452,5.178,5.178
			c9.057,9.057,21.098,14.045,33.909,14.045c12.81,0,24.852-4.988,33.91-14.046l0.356-0.356l14.72,14.719
			c2.957,2.958,7.752,2.957,10.708,0c2.957-2.957,2.957-7.752,0-10.708l-14.72-14.719L190.322,86.808l114.935,114.935
			L201.744,305.256l-73.882-73.883c-2.958-2.957-7.752-2.957-10.709,0c-2.957,2.957-2.957,7.752,0,10.708l73.883,73.883
			l-0.357,0.357c-18.697,18.699-18.697,49.121,0,67.819c1.363,1.363,2.726,2.726,4.088,4.088c1.157,1.157,2.283,2.385,3.776,3.114
			c2.818,1.377,6.351,0.714,8.557-1.49l68.889-68.889l177.4,177.399c0.971,0.97,2.187,1.659,3.517,1.992l45.689,11.422
			C508.042,513.14,513.138,508.036,511.778,502.594z M190.679,65.035L65.035,190.679c-6.197,6.198-14.437,9.61-23.2,9.61
			c-8.765,0-17.004-3.412-23.2-9.61l-0.358-0.357L190.322,18.276l0.356,0.356C203.472,31.426,203.472,52.242,190.679,65.035z
			 M201.744,373.79l-0.357-0.357c-12.792-12.792-12.792-33.609,0.001-46.403l125.644-125.644c12.791-12.793,33.61-12.793,46.402,0
			l0.357,0.357L201.744,373.79z M462.613,486.171L286.696,310.255l23.559-23.559l175.917,175.917l7.853,31.411L462.613,486.171z"/>
	</g>
</g>
<g>
</g>
<g>
</g>
<g>
</g>
<g>
</g>
<g>
</g>
<g>
</g>
<g>
</g>
<g>
</g>
<g>
</g>
<g>
</g>
<g>
</g>
<g>
</g>
<g>
</g>
<g>
</g>
<g>
</g>
</svg>
