<?xml version="1.0" encoding="iso-8859-1"?>
<!-- Generator: Adobe Illustrator 19.0.0, SVG Export Plug-In . SVG Version: 6.00 Build 0)  -->
<svg version="1.1" id="Capa_1" xmlns="http://www.w3.org/2000/svg" xmlns:xlink="http://www.w3.org/1999/xlink" x="0px" y="0px"
	 viewBox="0 0 511.999 511.999" style="enable-background:new 0 0 511.999 511.999;" xml:space="preserve">
<g>
	<g>
		<path d="M255.999,0C154.613,0,72.128,82.484,72.128,183.871c0,32.162,9.497,69.406,28.227,110.696
			c14.818,32.666,35.444,68.004,61.305,105.033c43.912,62.874,88.464,109.647,88.908,110.112c2.917,3.049,7.945,3.049,10.862,0
			c0.445-0.465,44.996-47.238,88.908-110.112c25.862-37.03,46.489-72.367,61.306-105.033c18.73-41.291,28.227-78.534,28.227-110.696
			C439.87,82.484,357.387,0,255.999,0z M338.135,390.824c-34.333,49.183-69.052,88.354-82.136,102.652
			c-13.083-14.298-47.802-53.468-82.136-102.652c-56.722-81.256-86.705-152.819-86.705-206.953
			c0-93.099,75.742-168.841,168.841-168.841S424.84,90.772,424.84,183.871C424.84,238.004,394.857,309.568,338.135,390.824z"/>
	</g>
</g>
<g>
	<g>
		<path d="M335.526,73.814c-3.361-2.433-8.061-1.681-10.494,1.681c-2.434,3.362-1.681,8.06,1.681,10.494
			c31.327,22.674,50.03,59.266,50.03,97.881c0,66.578-54.165,120.744-120.744,120.744s-120.744-54.165-120.744-120.744
			S189.421,63.127,255.999,63.127c13.274,0,26.314,2.137,38.76,6.354c3.933,1.33,8.198-0.776,9.529-4.706
			c1.332-3.931-0.776-8.198-4.706-9.529c-14.002-4.744-28.666-7.148-43.583-7.148c-74.866,0-135.774,60.908-135.774,135.774
			s60.908,135.774,135.774,135.774s135.774-60.908,135.774-135.774C391.773,140.448,370.747,99.305,335.526,73.814z"/>
	</g>
</g>
<g>
	<g>
		<path d="M337.825,145.588c-5.963-15.397-18.514-25.828-33.571-27.904c-9.863-1.357-28.48,0.05-48.255,22.244
			c-19.774-22.192-38.404-23.603-48.255-22.244c-15.057,2.075-27.608,12.507-33.571,27.904
			c-7.421,19.159-2.964,41.262,11.923,59.127c23.056,27.667,63.878,56.263,65.604,57.467c2.554,1.781,6.041,1.782,8.596,0
			c1.727-1.204,42.55-29.8,65.605-57.467C340.789,186.85,345.247,164.746,337.825,145.588z M314.355,195.093
			c-17.548,21.058-47.302,43.599-58.356,51.67c-11.053-8.071-40.807-30.612-58.356-51.67c-11.34-13.607-14.874-30.085-9.455-44.077
			c4.074-10.518,13.478-18.683,25.115-18.683c12.094,0,24.987,8.387,36.683,23.982c2.957,3.943,9.067,3.944,12.024,0
			c12.836-17.114,27.107-25.544,40.19-23.743c9.569,1.32,17.648,8.214,21.61,18.443
			C329.229,165.008,325.695,181.485,314.355,195.093z"/>
	</g>
</g>
<g>
</g>
<g>
</g>
<g>
</g>
<g>
</g>
<g>
</g>
<g>
</g>
<g>
</g>
<g>
</g>
<g>
</g>
<g>
</g>
<g>
</g>
<g>
</g>
<g>
</g>
<g>
</g>
<g>
</g>
</svg>
