<?xml version="1.0" encoding="iso-8859-1"?>
<!-- Generator: Adobe Illustrator 19.0.0, SVG Export Plug-In . SVG Version: 6.00 Build 0)  -->
<svg version="1.1" id="Capa_1" xmlns="http://www.w3.org/2000/svg" xmlns:xlink="http://www.w3.org/1999/xlink" x="0px" y="0px"
	 viewBox="0 0 511.999 511.999" style="enable-background:new 0 0 511.999 511.999;" xml:space="preserve">
<g>
	<g>
		<path d="M328.373,71.604c-3.429-2.338-8.105-1.452-10.442,1.977c-2.338,3.43-1.453,8.104,1.977,10.442
			c33.079,22.547,52.828,59.873,52.828,99.847c0,66.578-54.165,120.744-120.744,120.744s-120.744-54.165-120.744-120.744
			S185.413,63.127,251.991,63.127c12.902,0,25.598,2.023,37.734,6.011c3.943,1.298,8.191-0.85,9.486-4.793
			c1.296-3.943-0.85-8.19-4.793-9.486c-13.654-4.487-27.928-6.763-42.428-6.763c-74.866,0-135.774,60.908-135.774,135.774
			s60.908,135.774,135.774,135.774s135.774-60.908,135.774-135.774C387.765,138.922,365.562,96.954,328.373,71.604z"/>
	</g>
</g>
<g>
	<g>
		<path d="M395.669,319.115c26.673-51.305,40.194-96.786,40.194-135.244C435.863,82.484,353.379,0,251.992,0
			S68.121,82.484,68.121,183.871c0,32.162,9.497,69.406,28.227,110.696c14.818,32.666,35.444,68.004,61.305,105.033
			c43.912,62.874,88.464,109.647,88.908,110.112c2.917,3.049,7.945,3.049,10.862,0c0.239-0.25,22.888-24.007,51.563-60.098
			c14.332,13.815,33.799,22.338,55.231,22.338c43.925,0,79.661-35.736,79.661-79.661
			C443.878,359.531,423.996,331.336,395.669,319.115z M251.993,493.477c-13.083-14.298-47.804-53.47-82.138-102.653
			C113.133,309.568,83.15,238.004,83.15,183.871c0-93.099,75.742-168.841,168.841-168.841s168.841,75.742,168.841,168.841
			c0,36.581-13.36,80.509-39.693,130.586c-5.457-1.185-11.114-1.827-16.921-1.827c-43.925,0-79.661,35.736-79.661,79.661
			c0,16.992,5.365,32.746,14.466,45.693C278.275,464.249,260.531,484.152,251.993,493.477z M364.217,456.922
			c-35.637,0-64.63-28.993-64.63-64.63s28.993-64.63,64.63-64.63s64.63,28.994,64.63,64.63S399.855,456.922,364.217,456.922z"/>
	</g>
</g>
<g>
	<g>
		<path d="M404.298,368.744h-16.533v-16.533c0-4.15-3.365-7.515-7.515-7.515h-32.065c-4.15,0-7.515,3.365-7.515,7.515v16.533
			h-16.533c-4.15,0-7.515,3.365-7.515,7.515v32.065c0,4.15,3.365,7.515,7.515,7.515h16.533v16.533c0,4.15,3.365,7.515,7.515,7.515
			h32.065c4.15,0,7.515-3.365,7.515-7.515v-16.533h16.533c4.15,0,7.515-3.365,7.515-7.515v-32.065
			C411.814,372.109,408.449,368.744,404.298,368.744z M396.783,400.809H380.25c-4.15,0-7.515,3.365-7.515,7.515v16.533H355.7
			v-16.533c0-4.15-3.365-7.515-7.515-7.515h-16.533v-17.034h16.533c4.15,0,7.515-3.365,7.515-7.515v-16.533h17.034v16.533
			c0,4.15,3.365,7.515,7.515,7.515h16.533V400.809z"/>
	</g>
</g>
<g>
	<g>
		<path d="M251.991,160.323c-12.984,0-23.547,10.563-23.547,23.547s10.563,23.547,23.547,23.547
			c12.984,0,23.548-10.563,23.548-23.547S264.975,160.323,251.991,160.323z M251.991,192.388c-4.696,0-8.517-3.821-8.517-8.517
			s3.821-8.517,8.517-8.517s8.517,3.821,8.517,8.517S256.688,192.388,251.991,192.388z"/>
	</g>
</g>
<g>
	<g>
		<path d="M324.137,160.323c-12.984,0-23.547,10.563-23.547,23.547s10.563,23.547,23.547,23.547s23.548-10.563,23.548-23.547
			S337.121,160.323,324.137,160.323z M324.137,192.388c-4.696,0-8.517-3.821-8.517-8.517s3.821-8.517,8.517-8.517
			s8.517,3.821,8.517,8.517S328.833,192.388,324.137,192.388z"/>
	</g>
</g>
<g>
	<g>
		<path d="M179.846,160.323c-12.984,0-23.548,10.563-23.548,23.547s10.563,23.547,23.548,23.547
			c12.984,0,23.547-10.563,23.547-23.547S192.83,160.323,179.846,160.323z M179.846,192.388c-4.696,0-8.517-3.821-8.517-8.517
			s3.821-8.517,8.517-8.517s8.517,3.821,8.517,8.517S184.542,192.388,179.846,192.388z"/>
	</g>
</g>
<g>
</g>
<g>
</g>
<g>
</g>
<g>
</g>
<g>
</g>
<g>
</g>
<g>
</g>
<g>
</g>
<g>
</g>
<g>
</g>
<g>
</g>
<g>
</g>
<g>
</g>
<g>
</g>
<g>
</g>
</svg>
