<?xml version="1.0" encoding="iso-8859-1"?>
<!-- Generator: Adobe Illustrator 19.0.0, SVG Export Plug-In . SVG Version: 6.00 Build 0)  -->
<svg version="1.1" id="Capa_1" xmlns="http://www.w3.org/2000/svg" xmlns:xlink="http://www.w3.org/1999/xlink" x="0px" y="0px"
	 viewBox="0 0 512 512" style="enable-background:new 0 0 512 512;" xml:space="preserve">
<g>
	<g>
		<path d="M509.625,458.909L345.828,306.288c23.822-31.967,37.938-71.572,37.938-114.413C383.766,86.075,297.692,0,191.891,0
			S0.016,86.075,0.016,191.875S86.091,383.75,191.891,383.75c42.842,0,82.446-14.117,114.413-37.938l152.621,163.797
			c1.41,1.513,3.43,2.392,5.498,2.392c1.978,0,3.915-0.803,5.313-2.201l40.078-40.078
			C512.781,466.756,512.693,461.768,509.625,458.909z M191.891,368.72c-97.513,0-176.845-79.333-176.845-176.845
			S94.379,15.029,191.891,15.029s176.845,79.333,176.845,176.845S289.404,368.72,191.891,368.72z M318.023,336.342
			c6.514-5.695,12.64-11.821,18.335-18.335l39.76,37.047l-21.047,21.047L318.023,336.342z M365.323,387.103l21.799-21.799
			l19.425,18.101l-23.123,23.123L365.323,387.103z M464.615,493.667l-70.94-76.135l23.875-23.875l76.135,70.94L464.615,493.667z"/>
	</g>
</g>
<g>
	<g>
		<path d="M293.284,78.905c-3.088-2.772-7.839-2.519-10.612,0.57c-2.773,3.088-2.518,7.839,0.57,10.612
			c28.862,25.922,45.417,63.021,45.417,101.788c0,75.413-61.354,136.767-136.767,136.767S55.125,267.288,55.125,191.875
			S116.478,55.108,191.891,55.108c21.356,0,41.808,4.782,60.786,14.215c3.715,1.846,8.226,0.332,10.074-3.385
			c1.847-3.716,0.332-8.226-3.385-10.074c-21.074-10.474-43.777-15.786-67.475-15.786c-83.701,0-151.797,68.095-151.797,151.797
			s68.096,151.796,151.797,151.796s151.796-68.095,151.796-151.796C343.688,148.849,325.317,107.673,293.284,78.905z"/>
	</g>
</g>
<g>
	<g>
		<path d="M191.891,72.141c-52.762,0-95.687,42.925-95.687,95.687c0,75.105,87.541,139.633,91.267,142.343
			c2.605,1.895,6.234,1.896,8.839,0c3.726-2.71,91.267-67.239,91.267-142.343C287.578,115.066,244.653,72.141,191.891,72.141z
			 M191.891,294.596c-17.469-13.929-80.658-68.368-80.658-126.769c0-44.475,36.183-80.658,80.658-80.658
			s80.658,36.183,80.658,80.658C272.549,226.229,209.359,280.668,191.891,294.596z"/>
	</g>
</g>
<g>
	<g>
		<path d="M191.891,112.219c-30.663,0-55.609,24.946-55.609,55.609c0,30.663,24.946,55.609,55.609,55.609
			c30.663,0,55.609-24.946,55.609-55.609C247.5,137.165,222.554,112.219,191.891,112.219z M191.891,208.407
			c-22.376,0-40.579-18.204-40.579-40.579c0-22.376,18.204-40.579,40.579-40.579c22.376,0,40.579,18.204,40.579,40.579
			C232.47,190.203,214.267,208.407,191.891,208.407z"/>
	</g>
</g>
<g>
</g>
<g>
</g>
<g>
</g>
<g>
</g>
<g>
</g>
<g>
</g>
<g>
</g>
<g>
</g>
<g>
</g>
<g>
</g>
<g>
</g>
<g>
</g>
<g>
</g>
<g>
</g>
<g>
</g>
</svg>
