<?xml version="1.0" encoding="iso-8859-1"?>
<!-- Generator: Adobe Illustrator 19.0.0, SVG Export Plug-In . SVG Version: 6.00 Build 0)  -->
<svg version="1.1" id="Capa_1" xmlns="http://www.w3.org/2000/svg" xmlns:xlink="http://www.w3.org/1999/xlink" x="0px" y="0px"
	 viewBox="0 0 512 512" style="enable-background:new 0 0 512 512;" xml:space="preserve">
<g>
	<g>
		<path d="M511.265,501.243l-88.172-184.36c-1.248-2.61-3.885-4.272-6.779-4.272H263.515V158.946
			c40.41-3.8,72.141-37.904,72.141-79.291C335.656,35.734,299.923,0,256,0s-79.656,35.734-79.656,79.656
			c0,41.387,31.731,75.49,72.141,79.291v153.664H95.687c-2.895,0-5.531,1.662-6.779,4.272L0.735,501.243
			C-1.61,506.149,2.092,512,7.515,512h496.971C509.908,512,513.61,506.149,511.265,501.243z M191.374,79.656
			c0-35.635,28.992-64.626,64.626-64.626s64.626,28.992,64.626,64.626S291.635,144.282,256,144.282S191.374,115.29,191.374,79.656z
			 M19.438,496.971l80.984-169.331h148.063v17.033H115.893c-2.895,0-5.531,1.662-6.779,4.272L51.61,469.18
			c-2.346,4.906,1.357,10.757,6.779,10.757h306.824c4.151,0,7.515-3.365,7.515-7.515c0-4.15-3.364-7.515-7.515-7.515h-294.9
			l50.316-105.206h127.856v32.564c0,4.15,3.364,7.515,7.515,7.515s7.515-3.365,7.515-7.515v-32.564H391.37l50.316,105.206h-41.405
			c-4.151,0-7.515,3.365-7.515,7.515c0,4.15,3.364,7.515,7.515,7.515h53.329c5.423,0,9.125-5.851,6.779-10.757l-57.504-120.235
			c-1.248-2.61-3.885-4.272-6.779-4.272H263.515V327.64h148.062l80.985,169.331H19.438z"/>
	</g>
</g>
<g>
	<g>
		<path d="M256,32.063c-4.151,0-7.515,3.365-7.515,7.515c0,4.15,3.364,7.515,7.515,7.515c17.956,0,32.564,14.609,32.564,32.564
			c0,4.15,3.364,7.515,7.515,7.515c4.151,0,7.515-3.365,7.515-7.515C303.593,53.413,282.242,32.063,256,32.063z"/>
	</g>
</g>
<g>
	<g>
		<path d="M283.409,433.639l-10.605-5.302l10.605-5.302c3.711-1.856,5.216-6.369,3.36-10.082c-1.856-3.712-6.367-5.217-10.083-3.361
			L256,419.935l-20.686-10.343c-3.714-1.857-8.228-0.352-10.083,3.361c-1.857,3.712-0.352,8.226,3.361,10.082l10.605,5.302
			l-10.605,5.302c-3.427,1.713-5.03,5.871-3.643,9.441c1.58,4.067,6.457,5.955,10.365,4.001L256,436.738l20.686,10.343
			c3.915,1.957,8.777,0.062,10.365-4.001C288.445,439.513,286.83,435.349,283.409,433.639z"/>
	</g>
</g>
<g>
</g>
<g>
</g>
<g>
</g>
<g>
</g>
<g>
</g>
<g>
</g>
<g>
</g>
<g>
</g>
<g>
</g>
<g>
</g>
<g>
</g>
<g>
</g>
<g>
</g>
<g>
</g>
<g>
</g>
</svg>
