<?xml version="1.0" encoding="iso-8859-1"?>
<!-- Generator: Adobe Illustrator 19.0.0, SVG Export Plug-In . SVG Version: 6.00 Build 0)  -->
<svg version="1.1" id="Capa_1" xmlns="http://www.w3.org/2000/svg" xmlns:xlink="http://www.w3.org/1999/xlink" x="0px" y="0px"
	 viewBox="0 0 511.999 511.999" style="enable-background:new 0 0 511.999 511.999;" xml:space="preserve">
<g>
	<g>
		<path d="M255.999,0C154.611,0,72.128,82.484,72.128,183.871c0,32.162,9.497,69.406,28.227,110.696
			c14.817,32.666,35.444,68.004,61.306,105.033c43.912,62.874,88.463,109.647,88.908,110.112c2.917,3.049,7.945,3.049,10.862,0
			c0.445-0.465,44.996-47.238,88.908-110.112c25.862-37.03,46.489-72.367,61.306-105.033c18.73-41.291,28.227-78.534,28.227-110.696
			C439.87,82.484,357.386,0,255.999,0z M338.134,390.824c-34.333,49.183-69.052,88.354-82.136,102.652
			c-13.083-14.298-47.802-53.468-82.136-102.652c-56.722-81.256-86.705-152.819-86.705-206.953
			c0-93.099,75.742-168.841,168.841-168.841s168.841,75.742,168.841,168.841C424.839,238.004,394.857,309.568,338.134,390.824z"/>
	</g>
</g>
<g>
	<g>
		<path d="M340.859,77.878c-3.195-2.561-8.002-2.032-10.563,1.163c-2.561,3.195-2.032,8.003,1.163,10.564
			c28.779,23.069,45.283,57.428,45.283,94.265c0,66.578-54.165,120.744-120.744,120.744s-120.744-54.165-120.744-120.744
			S189.42,63.127,255.999,63.127c15.661,0,30.893,2.952,45.276,8.774c3.853,1.557,8.231-0.3,9.787-4.146
			c1.557-3.847-0.3-8.229-4.146-9.786c-16.184-6.55-33.313-9.872-50.917-9.872c-74.866,0-135.774,60.908-135.774,135.774
			s60.908,135.774,135.774,135.774s135.774-60.908,135.774-135.774C391.773,142.447,373.216,103.814,340.859,77.878z"/>
	</g>
</g>
<g>
	<g>
		<path d="M352.055,157.192c-1.006-3.096-3.892-5.193-7.147-5.193h-62.46l-19.302-59.402c-0.995-3.061-3.929-5.192-7.147-5.192
			s-6.152,2.131-7.147,5.192L229.549,152h-62.46c-3.168,0-6.065,2.064-7.1,5.058c-1.069,3.091,0.036,6.614,2.683,8.537
			l50.532,36.713l-19.302,59.403c-0.962,2.961,0.049,6.297,2.495,8.225c2.613,2.059,6.378,2.133,9.069,0.178l50.532-36.713
			l50.532,36.713c2.825,2.051,6.795,1.855,9.405-0.461c2.214-1.963,3.073-5.127,2.159-7.942l-19.302-59.403l50.532-36.713
			C351.959,163.681,353.06,160.288,352.055,157.192z M285.542,193.357c-2.634,1.914-3.737,5.306-2.73,8.403l13.841,42.598
			l-36.237-26.327c-2.605-1.892-6.229-1.892-8.834,0l-36.237,26.327l13.841-42.598c1.006-3.096-0.096-6.489-2.731-8.403
			l-36.236-26.327h44.79c3.256,0,6.141-2.096,7.147-5.192l13.841-42.599l13.841,42.599c1.006,3.096,3.892,5.192,7.147,5.192h44.79
			L285.542,193.357z"/>
	</g>
</g>
<g>
</g>
<g>
</g>
<g>
</g>
<g>
</g>
<g>
</g>
<g>
</g>
<g>
</g>
<g>
</g>
<g>
</g>
<g>
</g>
<g>
</g>
<g>
</g>
<g>
</g>
<g>
</g>
<g>
</g>
</svg>
