<?xml version="1.0" encoding="iso-8859-1"?>
<!-- Generator: Adobe Illustrator 19.0.0, SVG Export Plug-In . SVG Version: 6.00 Build 0)  -->
<svg version="1.1" id="Capa_1" xmlns="http://www.w3.org/2000/svg" xmlns:xlink="http://www.w3.org/1999/xlink" x="0px" y="0px"
	 viewBox="0 0 512 512" style="enable-background:new 0 0 512 512;" xml:space="preserve">
<g>
	<g>
		<path d="M507.083,56.573L354.786,0.464c-1.496-0.551-3.171-0.609-4.701-0.163L160.086,55.717L10.113,0.464
			C5.284-1.315,0,2.378,0,7.514v440.861c0,3.148,1.963,5.963,4.917,7.052l152.297,56.11c1.459,0.537,3.098,0.606,4.597,0.192
			l190.115-52.479l150.084,52.332c4.809,1.675,9.99-2.014,9.99-7.096V63.625C512,60.476,510.037,57.661,507.083,56.573z
			 M167.327,69.26l177.346-51.726v16.407L167.327,85.667V69.26z M152.297,493.708L15.029,443.136V18.292l137.268,50.573v16.47
			L41.906,49.357c-4.781-1.557-9.843,2.126-9.843,7.145v372.523c0,3.166,1.985,5.993,4.964,7.069L152.297,477.7V493.708z
			 M159.812,188.368c-4.15,0-7.515,3.365-7.515,7.515v265.838L47.092,423.748V66.855l105.206,34.286v60.174
			c0,4.15,3.365,7.515,7.515,7.515s7.515-3.365,7.515-7.515v-59.992l177.346-51.726v81.216
			c-15.864-11.68-35.444-18.593-56.611-18.593c-52.762,0-95.687,42.925-95.687,95.687c0,75.105,87.54,139.633,91.267,142.343
			c2.604,1.896,6.235,1.896,8.839,0c2.008-1.46,28.328-20.861,52.191-50.182v110.609l-177.346,51.727V195.882
			C167.327,191.732,163.962,188.368,159.812,188.368z M344.673,445.66l-177.346,48.956V478.06l177.346-51.727V445.66z
			 M288.063,334.674c-17.469-13.929-80.658-68.368-80.658-126.769c0-44.475,36.183-80.658,80.658-80.658
			s80.658,36.183,80.658,80.658C368.72,266.307,305.531,320.746,288.063,334.674z M383.75,207.906
			c0-24.278-9.094-46.469-24.047-63.358V50.79l105.206,43.233v356.634L359.703,411.11V280.047c0-0.175-0.014-0.347-0.026-0.518
			C373.405,258.292,383.75,233.723,383.75,207.906z M496.971,493.906l-137.268-47.863v-18.877l110.076,41.378
			c4.835,1.817,10.159-1.877,10.159-7.035V88.987c0-3.047-1.841-5.792-4.658-6.951L359.703,34.541v-16.25l137.268,50.573V493.906z"
			/>
	</g>
</g>
<g>
	<g>
		<path d="M288.063,152.297c-30.663,0-55.609,24.946-55.609,55.609s24.946,55.609,55.609,55.609s55.609-24.946,55.609-55.609
			S318.726,152.297,288.063,152.297z M288.063,248.485c-22.376,0-40.579-18.204-40.579-40.579c0-22.376,18.204-40.579,40.579-40.579
			c22.376,0,40.579,18.204,40.579,40.579C328.642,230.282,310.438,248.485,288.063,248.485z"/>
	</g>
</g>
<g>
	<g>
		<path d="M315.472,377.529l-10.605-5.302l10.605-5.302c3.711-1.856,5.216-6.369,3.361-10.082
			c-1.856-3.712-6.367-5.217-10.083-3.361l-20.687,10.343l-20.686-10.343c-3.713-1.858-8.227-0.351-10.083,3.361
			c-1.857,3.712-0.352,8.226,3.361,10.082l10.605,5.302l-10.605,5.302c-3.711,1.856-5.216,6.37-3.36,10.082
			c1.83,3.662,6.417,5.193,10.083,3.361l20.686-10.343l20.686,10.343c3.915,1.957,8.777,0.062,10.365-4.001
			C320.509,383.404,318.894,379.24,315.472,377.529z"/>
	</g>
</g>
<g>
</g>
<g>
</g>
<g>
</g>
<g>
</g>
<g>
</g>
<g>
</g>
<g>
</g>
<g>
</g>
<g>
</g>
<g>
</g>
<g>
</g>
<g>
</g>
<g>
</g>
<g>
</g>
<g>
</g>
</svg>
