<?xml version="1.0" encoding="iso-8859-1"?>
<!-- Generator: Adobe Illustrator 19.0.0, SVG Export Plug-In . SVG Version: 6.00 Build 0)  -->
<svg version="1.1" id="Layer_1" xmlns="http://www.w3.org/2000/svg" xmlns:xlink="http://www.w3.org/1999/xlink" x="0px" y="0px"
	 viewBox="0 0 504.114 504.114" style="enable-background:new 0 0 504.114 504.114;" xml:space="preserve">
<path style="fill:#B7C4C4;" d="M271.962,29.899c-65.371,45.403-81.566,135.2-36.187,200.57"/>
<path style="fill:#086CB7;" d="M241.581,238.81c4.616-3.182,5.766-9.531,2.568-14.155C202.023,164.011,217.1,80.382,277.783,38.264
	c4.6-3.19,5.766-9.555,2.552-14.171c-3.198-4.592-9.555-5.734-14.155-2.528c-69.892,48.498-87.261,144.841-38.739,214.717
	C230.64,240.874,236.981,242.024,241.581,238.81z"/>
<path style="fill:#1382CE;" d="M252.916,2.006c2.371-1.646,5.356-2.379,8.444-1.82l42.819,7.743l-7.696,42.835
	c-1.142,6.105-6.987,10.177-13.076,9.043c-6.136-1.079-10.185-6.908-9.09-13.036l3.742-20.708l-20.693-3.757
	c-6.12-1.103-10.185-6.924-9.058-13.068C248.828,6.189,250.553,3.653,252.916,2.006z"/>
<path style="fill:#086CB7;" d="M281.903,59.256l7.412-41.007l-40.999-7.389c-0.181,5.482,3.474,10.445,9.043,11.453l20.693,3.757
	l-3.742,20.708C273.333,52.363,276.72,57.491,281.903,59.256z"/>
<path style="fill:#B7C4C4;" d="M232.137,474.22c65.371-45.395,81.581-135.199,36.202-200.57"/>
<path style="fill:#086CB7;" d="M262.534,265.308c-4.616,3.19-5.782,9.539-2.568,14.163c42.126,60.644,27.034,144.274-33.642,186.392
	c-4.584,3.19-5.75,9.555-2.536,14.163c3.182,4.592,9.555,5.734,14.155,2.544c69.876-48.506,87.261-144.841,38.739-214.717
	C273.475,263.244,267.118,262.094,262.534,265.308z"/>
<path style="fill:#1382CE;" d="M251.199,502.112c-2.371,1.638-5.356,2.371-8.444,1.82l-42.819-7.735l7.696-42.835
	c1.142-6.105,6.987-10.185,13.076-9.043c6.12,1.079,10.169,6.908,9.074,13.036l-3.742,20.708l20.693,3.757
	c6.12,1.095,10.185,6.924,9.074,13.068C255.287,497.937,253.562,500.458,251.199,502.112z"/>
<path style="fill:#086CB7;" d="M222.212,444.863l-7.412,41.015l40.984,7.389c0.181-5.474-3.458-10.437-9.043-11.445l-20.693-3.757
	l3.742-20.708C230.766,451.755,227.395,446.619,222.212,444.863z"/>
<path style="fill:#B7C4C4;" d="M423.223,109.046c-78.32-14.123-153.293,37.927-167.416,116.248"/>
<path style="fill:#086CB7;" d="M254.011,235.289c5.522,1.016,10.831-2.655,11.831-8.2c13.107-72.657,82.889-121.123,155.585-108.008
	c5.506,0.993,10.831-2.678,11.815-8.216c1-5.498-2.694-10.799-8.216-11.8c-83.708-15.124-164.108,40.716-179.216,124.424
	C244.826,229.003,248.505,234.305,254.011,235.289z"/>
<path style="fill:#1382CE;" d="M429.469,75.852c2.844,0.504,5.474,2.119,7.278,4.695l24.781,35.753l-35.722,24.836
	c-5.12,3.513-12.138,2.261-15.644-2.844c-3.568-5.096-2.308-12.075,2.796-15.644l17.29-11.989l-11.981-17.298
	c-3.552-5.096-2.308-12.091,2.828-15.644C423.625,75.923,426.641,75.356,429.469,75.852z"/>
<path style="fill:#086CB7;" d="M409.501,136.843l34.233-23.765l-23.757-34.209c-4.017,3.742-4.939,9.838-1.709,14.486l11.981,17.298
	l-17.29,11.989C408.32,125.91,407.075,131.928,409.501,136.843z"/>
<path style="fill:#B7C4C4;" d="M80.876,395.073c78.336,14.123,153.293-37.919,167.432-116.232"/>
<path style="fill:#086CB7;" d="M250.104,268.845c-5.537-1.024-10.831,2.647-11.831,8.192
	c-13.107,72.657-82.905,121.131-155.601,108.008c-5.49-0.992-10.815,2.694-11.815,8.224c-0.985,5.49,2.71,10.791,8.231,11.8
	c83.692,15.116,164.108-40.716,179.216-124.432C259.288,275.107,255.61,269.822,250.104,268.845z"/>
<path style="fill:#1382CE;" d="M74.63,428.266c-2.828-0.52-5.459-2.119-7.263-4.687l-24.797-35.745l35.738-24.852
	c5.12-3.513,12.138-2.253,15.644,2.859c3.552,5.088,2.292,12.067-2.796,15.628l-17.29,11.997l11.981,17.29
	c3.552,5.096,2.308,12.091-2.828,15.659C80.49,428.203,77.473,428.778,74.63,428.266z"/>
<path style="fill:#086CB7;" d="M94.613,367.283L60.38,391.048l23.757,34.209c4.017-3.742,4.923-9.83,1.709-14.486l-11.981-17.29
	l17.29-11.997C95.795,378.216,97.039,372.198,94.613,367.283z"/>
<path id="SVGCleanerId_0" style="fill:#B7C4C4;" d="M474.226,271.972c-45.418-65.371-135.215-81.566-200.602-36.187"/>
<path id="SVGCleanerId_1" style="fill:#086CB7;" d="M265.306,241.583c3.182,4.624,9.539,5.782,14.155,2.56
	c60.644-42.102,144.258-27.026,186.4,33.658c3.182,4.584,9.539,5.742,14.171,2.536c4.584-3.19,5.727-9.555,2.521-14.163
	c-48.49-69.884-144.833-87.261-214.709-38.731C263.242,230.634,262.085,236.999,265.306,241.583z"/>
<path id="SVGCleanerId_2" style="fill:#1382CE;" d="M502.102,252.918c1.646,2.371,2.387,5.372,1.827,8.46l-7.751,42.827
	l-42.835-7.712c-6.105-1.126-10.169-6.979-9.043-13.068c1.095-6.12,6.908-10.169,13.044-9.09l20.693,3.757l3.773-20.708
	c1.095-6.105,6.924-10.177,13.06-9.058C497.92,248.83,500.456,250.563,502.102,252.918z"/>
<path id="SVGCleanerId_3" style="fill:#086CB7;" d="M444.861,281.913l41.015,7.404l7.389-40.976
	c-5.474-0.205-10.445,3.458-11.445,9.019l-3.773,20.708l-20.693-3.757C451.753,273.351,446.609,276.73,444.861,281.913z"/>
<path id="SVGCleanerId_4" style="fill:#B7C4C4;" d="M29.889,232.154c45.403,65.363,135.215,81.566,200.57,36.194"/>
<path id="SVGCleanerId_5" style="fill:#086CB7;" d="M238.793,262.551c-3.182-4.639-9.523-5.797-14.155-2.576
	c-60.629,42.118-144.274,27.034-186.384-33.65c-3.198-4.592-9.57-5.742-14.171-2.528c-4.584,3.174-5.727,9.539-2.536,14.163
	c48.506,69.876,144.833,87.261,214.709,38.723C240.872,273.469,242.014,267.144,238.793,262.551z"/>
<path id="SVGCleanerId_6" style="fill:#1382CE;" d="M1.996,251.209c-1.631-2.387-2.371-5.356-1.812-8.46l7.719-42.803l42.843,7.696
	c6.105,1.15,10.185,6.995,9.043,13.084c-1.079,6.112-6.908,10.153-13.028,9.074l-20.701-3.734l-3.757,20.693
	c-1.095,6.12-6.924,10.177-13.076,9.074C6.179,255.297,3.659,253.579,1.996,251.209z"/>
<path id="SVGCleanerId_7" style="fill:#086CB7;" d="M59.254,222.206l-41.015-7.389l-7.389,40.984
	c5.474,0.181,10.429-3.458,11.445-9.043l3.765-20.693l20.708,3.742C52.362,230.784,57.489,227.397,59.254,222.206z"/>
<g>
	<path id="SVGCleanerId_0_1_" style="fill:#B7C4C4;" d="M474.226,271.972c-45.418-65.371-135.215-81.566-200.602-36.187"/>
</g>
<g>
	<path id="SVGCleanerId_1_1_" style="fill:#086CB7;" d="M265.306,241.583c3.182,4.624,9.539,5.782,14.155,2.56
		c60.644-42.102,144.258-27.026,186.4,33.658c3.182,4.584,9.539,5.742,14.171,2.536c4.584-3.19,5.727-9.555,2.521-14.163
		c-48.49-69.884-144.833-87.261-214.709-38.731C263.242,230.634,262.085,236.999,265.306,241.583z"/>
</g>
<g>
	<path id="SVGCleanerId_2_1_" style="fill:#1382CE;" d="M502.102,252.918c1.646,2.371,2.387,5.372,1.827,8.46l-7.751,42.827
		l-42.835-7.712c-6.105-1.126-10.169-6.979-9.043-13.068c1.095-6.12,6.908-10.169,13.044-9.09l20.693,3.757l3.773-20.708
		c1.095-6.105,6.924-10.177,13.06-9.058C497.92,248.83,500.456,250.563,502.102,252.918z"/>
</g>
<g>
	<path id="SVGCleanerId_3_1_" style="fill:#086CB7;" d="M444.861,281.913l41.015,7.404l7.389-40.976
		c-5.474-0.205-10.445,3.458-11.445,9.019l-3.773,20.708l-20.693-3.757C451.753,273.351,446.609,276.73,444.861,281.913z"/>
</g>
<g>
	<path id="SVGCleanerId_4_1_" style="fill:#B7C4C4;" d="M29.889,232.154c45.403,65.363,135.215,81.566,200.57,36.194"/>
</g>
<g>
	<path id="SVGCleanerId_5_1_" style="fill:#086CB7;" d="M238.793,262.551c-3.182-4.639-9.523-5.797-14.155-2.576
		c-60.629,42.118-144.274,27.034-186.384-33.65c-3.198-4.592-9.57-5.742-14.171-2.528c-4.584,3.174-5.727,9.539-2.536,14.163
		c48.506,69.876,144.833,87.261,214.709,38.723C240.872,273.469,242.014,267.144,238.793,262.551z"/>
</g>
<g>
	<path id="SVGCleanerId_6_1_" style="fill:#1382CE;" d="M1.996,251.209c-1.631-2.387-2.371-5.356-1.812-8.46l7.719-42.803
		l42.843,7.696c6.105,1.15,10.185,6.995,9.043,13.084c-1.079,6.112-6.908,10.153-13.028,9.074l-20.701-3.734l-3.757,20.693
		c-1.095,6.12-6.924,10.177-13.076,9.074C6.179,255.297,3.659,253.579,1.996,251.209z"/>
</g>
<g>
	<path id="SVGCleanerId_7_1_" style="fill:#086CB7;" d="M59.254,222.206l-41.015-7.389l-7.389,40.984
		c5.474,0.181,10.429-3.458,11.445-9.043l3.765-20.693l20.708,3.742C52.362,230.784,57.489,227.397,59.254,222.206z"/>
</g>
<path style="fill:#B7C4C4;" d="M395.071,423.233c14.123-78.336-37.935-153.285-116.248-167.416"/>
<path style="fill:#086CB7;" d="M268.827,254.028c-1.016,5.53,2.662,10.831,8.2,11.815c72.665,13.107,121.123,82.897,108.016,155.601
	c-1,5.49,2.678,10.815,8.216,11.815c5.49,0.985,10.799-2.702,11.8-8.216c15.124-83.708-40.724-164.131-124.432-179.224
	C275.121,244.836,269.812,248.515,268.827,254.028z"/>
<path style="fill:#1382CE;" d="M428.256,429.479c-0.504,2.828-2.111,5.474-4.695,7.27l-35.753,24.797l-24.828-35.738
	c-3.521-5.112-2.261-12.13,2.844-15.636c5.088-3.56,12.06-2.308,15.644,2.788l11.981,17.29l17.306-11.981
	c5.088-3.552,12.091-2.308,15.644,2.828C428.193,423.626,428.768,426.651,428.256,429.479z"/>
<path style="fill:#086CB7;" d="M367.273,409.503l23.773,34.241l34.202-23.765c-3.742-4.017-9.83-4.931-14.478-1.709l-17.306,11.981
	l-11.981-17.29C378.214,408.33,372.196,407.085,367.273,409.503z"/>
<path style="fill:#B7C4C4;" d="M109.028,80.886C94.921,159.222,146.963,234.186,225.26,248.31"/>
<path style="fill:#086CB7;" d="M235.272,250.106c1.016-5.537-2.647-10.839-8.2-11.831c-72.649-13.099-121.123-82.897-108-155.585
	c0.985-5.506-2.694-10.831-8.231-11.823c-5.49-0.992-10.784,2.694-11.8,8.224c-15.124,83.716,40.708,164.116,124.432,179.208
	C229.009,259.29,234.287,255.635,235.272,250.106z"/>
<path style="fill:#1382CE;" d="M75.843,74.639c0.52-2.836,2.127-5.451,4.695-7.27l35.738-24.789l24.86,35.73
	c3.505,5.136,2.245,12.146-2.875,15.644c-5.081,3.56-12.06,2.3-15.612-2.796l-12.012-17.282L93.361,85.856
	c-5.104,3.568-12.091,2.308-15.659-2.82C75.906,80.492,75.331,77.491,75.843,74.639z"/>
<path style="fill:#086CB7;" d="M136.826,94.615L113.069,60.39L78.852,84.155c3.742,4.001,9.815,4.915,14.494,1.694l17.274-11.981
	l12.012,17.282C125.9,95.813,131.918,97.049,136.826,94.615z"/>
<circle style="fill:#1382CE;" cx="252.049" cy="252.051" r="36.108"/>
<path style="fill:#086CB7;" d="M226.52,226.522c14.108-14.1,36.966-14.1,51.058,0c14.108,14.1,14.108,36.959,0,51.058"/>
<g>
</g>
<g>
</g>
<g>
</g>
<g>
</g>
<g>
</g>
<g>
</g>
<g>
</g>
<g>
</g>
<g>
</g>
<g>
</g>
<g>
</g>
<g>
</g>
<g>
</g>
<g>
</g>
<g>
</g>
</svg>
