<?xml version="1.0" encoding="iso-8859-1"?>
<!-- Generator: Adobe Illustrator 19.0.0, SVG Export Plug-In . SVG Version: 6.00 Build 0)  -->
<svg version="1.1" id="Layer_1" xmlns="http://www.w3.org/2000/svg" xmlns:xlink="http://www.w3.org/1999/xlink" x="0px" y="0px"
	 viewBox="0 0 504.135 504.135" style="enable-background:new 0 0 504.135 504.135;" xml:space="preserve">
<path style="fill:#0258A0;" d="M252.052,252.721c-62.582,0-113.522-50.924-113.522-113.522c0-31.2,12.414-60.29,34.926-81.888
	c4.97-4.758,12.863-4.6,17.621,0.37c4.766,4.97,4.608,12.847-0.37,17.613c-17.566,16.864-27.254,39.55-27.254,63.905
	c0,48.845,39.755,88.6,88.6,88.6c48.861,0,88.615-39.755,88.615-88.6c0-48.861-39.755-88.6-88.615-88.6
	c-6.869,0-12.453-5.585-12.453-12.461s5.585-12.461,12.453-12.461c62.606,0,113.53,50.924,113.53,113.522
	S314.657,252.721,252.052,252.721z"/>
<path style="fill:#0575C1;" d="M250.374,75.569c-3.182,0-6.372-1.213-8.814-3.663l-34.123-34.123L241.56,3.645
	c4.876-4.86,12.753-4.86,17.629,0c4.868,4.876,4.868,12.768,0,17.629l-16.518,16.51l16.518,16.51c4.868,4.876,4.868,12.753,0,17.613
	C256.762,74.348,253.564,75.569,250.374,75.569z"/>
<g>
	<path style="fill:#0258A0;" d="M260.165,5.118l-32.658,32.658l32.658,32.65c3.639-4.876,3.45-11.705-0.977-16.14l-16.518-16.51
		l16.518-16.502C263.623,16.847,263.804,10.002,260.165,5.118z"/>
	<path style="fill:#0258A0;" d="M252.075,252.288c62.59,0,113.522,50.924,113.522,113.522c0,31.2-12.422,60.274-34.934,81.888
		c-4.955,4.758-12.855,4.6-17.605-0.37c-4.773-4.97-4.608-12.847,0.362-17.613c17.566-16.864,27.254-39.55,27.254-63.905
		c0-48.861-39.747-88.6-88.6-88.6c-48.868,0-88.623,39.739-88.623,88.6s39.755,88.6,88.623,88.6c6.877,0,12.453,5.585,12.453,12.461
		c0,6.877-5.577,12.461-12.453,12.461c-62.606,0-113.546-50.924-113.546-113.522S189.47,252.288,252.075,252.288z"/>
</g>
<path style="fill:#0575C1;" d="M242.725,428.566c3.198,0,6.38,1.213,8.799,3.663l34.146,34.123l-34.146,34.139
	c-4.852,4.86-12.737,4.86-17.605,0c-4.868-4.876-4.868-12.768,0-17.629l16.518-16.51l-16.518-16.51
	c-4.868-4.876-4.868-12.753,0-17.613C236.353,429.787,239.551,428.566,242.725,428.566z"/>
<g>
	<path style="fill:#0258A0;" d="M232.942,499.017l32.658-32.658l-32.658-32.65c-3.631,4.876-3.45,11.705,0.977,16.14l16.518,16.51
		l-16.518,16.502C229.492,487.288,229.311,494.133,232.942,499.017z"/>
	<path style="fill:#0258A0;" d="M252.28,252.06c0-62.582,50.932-113.522,113.538-113.522c31.2,0,60.266,12.414,81.881,34.942
		c4.758,4.955,4.616,12.847-0.37,17.597c-4.962,4.766-12.847,4.616-17.597-0.354c-16.88-17.566-39.55-27.262-63.905-27.262
		c-48.876,0-88.615,39.755-88.615,88.6c0,48.876,39.739,88.615,88.615,88.615c48.853,0,88.6-39.739,88.6-88.615
		c0-6.877,5.577-12.461,12.461-12.461c6.877,0,12.461,5.585,12.461,12.461c0,62.614-50.94,113.538-113.522,113.538
		C303.212,365.598,252.28,314.673,252.28,252.06z"/>
</g>
<path style="fill:#053260;" d="M278.242,264.891c-7.893-2.001-16.108-3.167-24.631-3.167c-0.276,0-0.544,0.031-0.835,0.031
	c4.608,54.059,47.159,97.414,100.888,103.172c0.039-1.016,0.158-1.985,0.158-3.001c0-7.782-0.969-15.289-2.639-22.552
	C313.444,333.042,283.788,302.874,278.242,264.891z"/>
<path style="fill:#0258A0;" d="M252.713,252.075c0,62.598-50.924,113.522-113.522,113.522c-31.2,0-60.274-12.414-81.888-34.926
	c-4.758-4.955-4.608-12.863,0.378-17.613c4.962-4.766,12.847-4.6,17.597,0.37c16.872,17.566,39.55,27.246,63.905,27.246
	c48.861,0,88.615-39.739,88.615-88.6s-39.755-88.615-88.615-88.615s-88.592,39.755-88.592,88.615
	c0,6.877-5.585,12.461-12.461,12.461s-12.461-5.585-12.461-12.461c0-62.598,50.932-113.538,113.522-113.538
	C201.789,138.537,252.713,189.477,252.713,252.075z"/>
<path style="fill:#053260;" d="M153.07,139.49c-0.158,2.308-0.339,4.616-0.339,6.987c0,6.294,0.646,12.43,1.796,18.416
	c38.046,6.664,67.765,37.628,72.539,76.28c7.467,1.827,15.234,2.907,23.268,2.907c0.677,0,1.315-0.095,1.993-0.095
	C248.46,189.785,206.492,146.044,153.07,139.49z"/>
<g>
	<path style="fill:#079BED;" d="M252.075,252.288c-8.389,0-16.549,0.985-24.411,2.71c-0.323,9.618-2.182,18.85-5.348,27.459
		c8.641-3.096,17.857-4.892,27.475-5.136c1.835-8.042,2.891-16.4,2.907-25.001C252.501,252.32,252.28,252.288,252.075,252.288z"/>
	<path style="fill:#079BED;" d="M163.61,362.888c0.323-9.618,2.174-18.849,5.341-27.459c-8.633,3.096-17.857,4.892-27.475,5.136
		c-1.835,8.042-2.891,16.4-2.907,25.001c0.205,0,0.417,0.032,0.63,0.032C147.572,365.598,155.733,364.613,163.61,362.888z"/>
	<path style="fill:#079BED;" d="M141.247,163.57c9.563,0.213,18.739,1.969,27.325,5.002c-3.033-8.586-4.781-17.755-5.002-27.325
		c-7.861-1.725-16.006-2.71-24.379-2.71c-0.213,0-0.417,0.047-0.614,0.047c0,0.197-0.047,0.402-0.047,0.614
		C138.529,147.564,139.514,155.709,141.247,163.57z"/>
	<path style="fill:#079BED;" d="M250.012,227.688c-9.547-0.213-18.731-1.969-27.333-5.002c3.048,8.586,4.797,17.77,5.018,27.325
		c7.861,1.741,15.982,2.71,24.355,2.71c0.213,0,0.433-0.032,0.638-0.032c0-0.197,0.024-0.417,0.024-0.614
		C252.713,243.702,251.752,235.565,250.012,227.688z"/>
</g>
<path style="fill:#0575C1;" d="M75.561,253.753c0,3.198-1.213,6.372-3.655,8.814L37.776,296.69L3.653,262.567
	c-4.86-4.876-4.86-12.753,0-17.629c4.868-4.86,12.753-4.86,17.621,0l16.502,16.526l16.518-16.526c4.868-4.86,12.753-4.86,17.613,0
	C74.348,247.365,75.561,250.571,75.561,253.753z"/>
<path style="fill:#0258A0;" d="M5.126,243.97l32.65,32.658l32.658-32.658c-4.876-3.631-11.713-3.458-16.14,0.969l-16.518,16.526
	l-16.502-16.526C16.839,240.504,9.994,240.339,5.126,243.97z"/>
<g>
	<path style="fill:#079BED;" d="M255.234,277.368c9.673,0.339,18.936,2.245,27.585,5.459c-3.214-8.649-5.112-17.92-5.451-27.601
		c-8.082-1.843-16.447-2.907-25.064-2.922C252.32,260.921,253.375,269.294,255.234,277.368z"/>
	<path style="fill:#079BED;" d="M362.659,340.517c-9.681-0.339-18.952-2.245-27.601-5.459c3.214,8.649,5.112,17.92,5.451,27.601
		c8.074,1.843,16.447,2.907,25.064,2.922C365.558,356.964,364.495,348.599,362.659,340.517z"/>
	<path style="fill:#079BED;" d="M335.421,168.95c8.609-3.167,17.825-5.018,27.443-5.341c1.741-7.877,2.718-16.03,2.718-24.418
		c0-0.213-0.032-0.433-0.032-0.63c-8.602,0.016-16.943,1.079-25.001,2.907C340.297,151.109,338.509,160.325,335.421,168.95z"/>
	<path style="fill:#079BED;" d="M282.449,222.324c-8.617,3.151-17.841,5.018-27.451,5.325c-1.733,7.877-2.718,16.03-2.718,24.418
		c0,0.213,0.039,0.433,0.039,0.646c8.602-0.016,16.943-1.079,25.001-2.907C277.557,240.165,279.369,230.949,282.449,222.324z"/>
</g>
<path style="fill:#0575C1;" d="M428.574,261.417c0-3.198,1.213-6.388,3.655-8.814l34.131-34.139l34.123,34.139
	c4.86,4.86,4.86,12.753,0,17.613c-4.876,4.876-12.753,4.876-17.629,0l-16.494-16.51l-16.518,16.51
	c-4.868,4.876-12.753,4.876-17.613,0C429.787,267.782,428.574,264.584,428.574,261.417z"/>
<path style="fill:#0258A0;" d="M499.009,271.201l-32.65-32.658l-32.658,32.658c4.876,3.631,11.705,3.45,16.14-0.985l16.518-16.51
	l16.494,16.51C487.288,274.643,494.133,274.832,499.009,271.201z"/>
<g>
</g>
<g>
</g>
<g>
</g>
<g>
</g>
<g>
</g>
<g>
</g>
<g>
</g>
<g>
</g>
<g>
</g>
<g>
</g>
<g>
</g>
<g>
</g>
<g>
</g>
<g>
</g>
<g>
</g>
</svg>
