<?xml version="1.0" encoding="iso-8859-1"?>
<!-- Generator: Adobe Illustrator 19.0.0, SVG Export Plug-In . SVG Version: 6.00 Build 0)  -->
<svg version="1.1" id="Layer_1" xmlns="http://www.w3.org/2000/svg" xmlns:xlink="http://www.w3.org/1999/xlink" x="0px" y="0px"
	 viewBox="0 0 504.123 504.123" style="enable-background:new 0 0 504.123 504.123;" xml:space="preserve">
<path style="fill:#064093;" d="M504.123,252.235c-11.311-58.911-119.8-141.399-252.062-141.399S11.311,193.331,0,252.235H504.123z"
	/>
<path style="fill:#05346D;" d="M0.008,251.88C11.311,310.784,119.8,393.279,252.062,393.279s240.75-82.495,252.062-141.399H0.008z"
	/>
<circle style="fill:#15E5AA;" cx="252.062" cy="252.062" r="112.404"/>
<path style="fill:#09C8D6;" d="M252.062,139.65c62.07,0,112.404,50.326,112.404,112.412c0,62.07-50.334,112.412-112.404,112.412"/>
<path style="fill:#00FFEC;" d="M252.062,372.957c-66.662,0-120.895-54.233-120.895-120.895s54.233-120.895,120.895-120.895
	s120.895,54.233,120.895,120.895S318.724,372.957,252.062,372.957z M252.062,148.141c-57.305,0-103.92,46.616-103.92,103.92
	s46.616,103.92,103.92,103.92s103.92-46.616,103.92-103.92S309.366,148.141,252.062,148.141z"/>
<g>
	<circle style="fill:#B0FFF7;" cx="252.062" cy="168.999" r="4.238"/>
	<circle style="fill:#B0FFF7;" cx="252.062" cy="335.163" r="4.238"/>
	<circle style="fill:#B0FFF7;" cx="310.8" cy="193.3" r="4.246"/>
	<circle style="fill:#B0FFF7;" cx="193.3" cy="310.792" r="4.246"/>
	<circle style="fill:#B0FFF7;" cx="335.163" cy="252.054" r="4.246"/>
	<path style="fill:#B0FFF7;" d="M169.007,256.299c-2.363,0-4.254-1.898-4.261-4.238c0.008-2.355,1.898-4.238,4.254-4.254
		c2.324,0.016,4.238,1.898,4.246,4.254C173.245,254.393,171.323,256.299,169.007,256.299z"/>
	<path style="fill:#B0FFF7;" d="M307.799,313.801c-1.662-1.654-1.662-4.356,0-6.002c1.662-1.67,4.348-1.654,6.002-0.016
		c1.654,1.678,1.654,4.34,0,6.018C312.147,315.447,309.461,315.455,307.799,313.801z"/>
	<circle style="fill:#B0FFF7;" cx="193.3" cy="193.3" r="4.246"/>
	<circle style="fill:#B0FFF7;" cx="210.55" cy="180.122" r="4.246"/>
	<circle style="fill:#B0FFF7;" cx="293.589" cy="324.001" r="4.238"/>
	<path style="fill:#B0FFF7;" d="M277.662,172.914c-0.614,2.269-2.93,3.623-5.183,3.001c-2.284-0.607-3.616-2.922-3.017-5.191
		c0.63-2.261,2.93-3.6,5.199-3.001C276.913,168.338,278.276,170.654,277.662,172.914z"/>
	<circle style="fill:#B0FFF7;" cx="230.565" cy="332.296" r="4.246"/>
	<circle style="fill:#B0FFF7;" cx="324.001" cy="210.55" r="4.238"/>
	<path style="fill:#B0FFF7;" d="M182.272,297.259c-2.056,1.174-4.64,0.48-5.805-1.536c-1.182-2.048-0.488-4.624,1.552-5.805
		c2.016-1.158,4.616-0.488,5.782,1.544C184.966,293.486,184.281,296.094,182.272,297.259z"/>
	<path style="fill:#B0FFF7;" d="M331.201,277.662c-2.253-0.614-3.616-2.946-2.985-5.191c0.599-2.284,2.914-3.616,5.167-3.017
		c2.284,0.614,3.616,2.93,3.017,5.207C335.785,276.913,333.477,278.268,331.201,277.662z"/>
	<path style="fill:#B0FFF7;" d="M170.74,234.661c-2.276-0.614-3.616-2.93-3.017-5.199c0.63-2.269,2.938-3.608,5.199-3.001
		c2.253,0.614,3.616,2.922,3.017,5.199C175.348,233.913,172.993,235.268,170.74,234.661z"/>
	<path style="fill:#B0FFF7;" d="M182.272,206.856c2.009,1.158,2.718,3.773,1.528,5.797c-1.15,2.016-3.773,2.718-5.782,1.544
		c-2.04-1.174-2.71-3.765-1.552-5.79C177.632,206.383,180.216,205.682,182.272,206.856z"/>
	<path style="fill:#B0FFF7;" d="M326.12,289.926c2.064,1.166,2.725,3.765,1.552,5.782c-1.166,2.04-3.757,2.733-5.79,1.552
		c-2.024-1.15-2.733-3.773-1.56-5.797C321.505,289.445,324.104,288.752,326.12,289.926z"/>
	<path style="fill:#B0FFF7;" d="M234.661,170.724c0.614,2.269-0.725,4.6-2.977,5.183c-2.292,0.622-4.608-0.725-5.222-2.993
		c-0.575-2.269,0.748-4.576,3.001-5.191C231.723,167.125,234.063,168.456,234.661,170.724z"/>
	<path style="fill:#B0FFF7;" d="M277.662,331.193c0.63,2.269-0.733,4.584-3.001,5.207c-2.261,0.599-4.569-0.74-5.199-3.009
		c-0.599-2.261,0.74-4.577,3.017-5.191C274.731,327.585,277.047,328.94,277.662,331.193z"/>
	<path style="fill:#B0FFF7;" d="M297.275,182.24c-1.15,2.024-3.773,2.733-5.79,1.544c-2.04-1.166-2.725-3.765-1.544-5.79
		c1.174-2.024,3.749-2.718,5.797-1.552C297.74,177.617,298.457,180.2,297.275,182.24z"/>
	<path style="fill:#B0FFF7;" d="M214.213,326.097c-1.174,2.048-3.781,2.733-5.797,1.575c-2.04-1.182-2.718-3.765-1.552-5.805
		c1.174-2.016,3.765-2.725,5.797-1.56C214.678,321.473,215.379,324.096,214.213,326.097z"/>
	<circle style="fill:#B0FFF7;" cx="332.304" cy="230.565" r="4.246"/>
	<circle style="fill:#B0FFF7;" cx="171.835" cy="273.566" r="4.238"/>
</g>
<g>
	<polyline style="fill:#09C8D6;" points="139.477,170.756 139.477,153.096 157.152,153.096 	"/>
	<polyline style="fill:#09C8D6;" points="157.152,351.027 139.477,351.027 139.477,333.351 	"/>
	<polyline style="fill:#09C8D6;" points="364.646,333.367 364.646,351.027 346.986,351.027 	"/>
	<polyline style="fill:#09C8D6;" points="346.986,153.096 364.646,153.096 364.646,170.772 	"/>
</g>
<circle style="fill:#06B6ED;" cx="252.062" cy="252.062" r="36.588"/>
<path style="fill:#0B9BD3;" d="M215.473,252.062c0-20.204,16.376-36.588,36.588-36.588s36.588,16.376,36.588,36.588"/>
<circle style="fill:none;stroke:#2CFAFF;stroke-miterlimit:10;" cx="252.062" cy="252.062" r="60.975"/>
<g>
	<polygon style="fill:#E86105;" points="240.53,63.299 252.077,103.597 263.609,63.299 	"/>
	<polygon style="fill:#E86105;" points="263.593,440.824 252.046,400.526 240.506,440.824 	"/>
</g>
<g>
	<path style="fill:#06B6ED;" d="M82.676,98.824c0,1.56-1.276,2.828-2.828,2.828H41.669c-1.56,0-2.82-1.268-2.82-2.828l0,0
		c0-1.56,1.26-2.828,2.82-2.828h38.179C81.4,95.996,82.676,97.264,82.676,98.824L82.676,98.824z"/>
	<path style="fill:#06B6ED;" d="M82.676,118.626c0,1.56-1.276,2.828-2.828,2.828H41.669c-1.56,0-2.82-1.268-2.82-2.828l0,0
		c0-1.56,1.26-2.828,2.82-2.828h38.179C81.4,115.791,82.676,117.059,82.676,118.626L82.676,118.626z"/>
	<path style="fill:#06B6ED;" d="M82.676,138.429c0,1.552-1.276,2.82-2.828,2.82H41.669c-1.56,0-2.82-1.268-2.82-2.82l0,0
		c0-1.567,1.26-2.836,2.82-2.836h38.179C81.4,135.593,82.676,136.862,82.676,138.429L82.676,138.429z"/>
	<circle style="fill:#06B6ED;" cx="435.168" cy="400.699" r="14.84"/>
	<circle style="fill:#06B6ED;" cx="387.789" cy="400.699" r="14.848"/>
</g>
<g>
</g>
<g>
</g>
<g>
</g>
<g>
</g>
<g>
</g>
<g>
</g>
<g>
</g>
<g>
</g>
<g>
</g>
<g>
</g>
<g>
</g>
<g>
</g>
<g>
</g>
<g>
</g>
<g>
</g>
</svg>
