<?xml version="1.0" encoding="iso-8859-1"?>
<!-- Generator: Adobe Illustrator 19.0.0, SVG Export Plug-In . SVG Version: 6.00 Build 0)  -->
<svg version="1.1" id="Layer_1" xmlns="http://www.w3.org/2000/svg" xmlns:xlink="http://www.w3.org/1999/xlink" x="0px" y="0px"
	 viewBox="0 0 504.123 504.123" style="enable-background:new 0 0 504.123 504.123;" xml:space="preserve">
<g>
	<path style="fill:#041D35;" d="M159.996,358.75c1.93,1.922,1.93,5.033,0,6.963l0,0c-1.922,1.922-5.033,1.922-6.955,0L1.953,214.626
		c-1.922-1.922-1.922-5.033,0.008-6.963l0,0c1.93-1.922,5.041-12.256,6.963-10.335L159.996,358.75z"/>
	<path style="fill:#041D35;" d="M344.127,358.75c-1.922,1.922-1.922,5.033,0,6.963l0,0c1.922,1.922,5.033,1.922,6.955,0
		l151.095-151.087c1.922-1.922,1.922-5.033-0.016-6.963l0,0c-1.922-1.922-5.033-12.256-6.955-10.335L344.127,358.75z"/>
</g>
<path style="fill:#FFC45C;" d="M23.694,199.936c12.965,0,24.017,8.027,28.546,19.354c4.529-11.327,15.588-19.354,28.57-19.354
	c12.95,0,23.977,8.027,28.546,19.354c4.513-11.327,15.588-19.354,28.507-19.354c12.958,0,24.001,8.027,28.554,19.354
	c4.537-11.327,15.588-19.354,28.57-19.354c12.965,0,23.985,8.027,28.53,19.354c4.569-11.327,15.581-19.354,28.562-19.354
	c12.95,0,24.001,8.027,28.514,19.354c4.553-11.327,15.588-19.354,28.546-19.354c12.981,0,24.025,8.027,28.562,19.354
	c4.545-11.327,15.588-19.354,28.562-19.354c12.95,0,23.993,8.027,28.522,19.354c4.584-11.327,15.596-19.354,28.562-19.354
	c12.958,0,24.009,8.027,28.562,19.354c4.537-11.327,15.565-19.354,28.538-19.354c9.586,0,18.007,4.458,23.678,11.327
	C479.902,94.078,376.383,5.912,252.077,5.912C127.724,5.912,24.253,94.078,0,211.263C5.656,204.394,14.092,199.936,23.694,199.936z"
	/>
<path style="fill:#F29A19;" d="M23.694,199.936c12.965,0,24.017,8.027,28.546,19.354c4.529-11.327,15.588-19.354,28.57-19.354
	c12.95,0,23.977,8.027,28.546,19.354c4.513-11.327,15.588-19.354,28.507-19.354c12.958,0,24.001,8.027,28.554,19.354
	c4.537-11.327,15.588-19.354,28.57-19.354c12.965,0,23.985,8.027,28.53,19.354c4.569-11.327,15.581-19.354,28.562-19.354
	c12.95,0,24.001,8.027,28.514,19.354c4.553-11.327,15.588-19.354,28.546-19.354c12.981,0,24.025,8.027,28.562,19.354
	c4.545-11.327,15.588-19.354,28.562-19.354c12.95,0,23.993,8.027,28.522,19.354c4.584-11.327,15.596-19.354,28.562-19.354
	c12.958,0,24.009,8.027,28.562,19.354c4.537-11.327,15.565-19.354,28.538-19.354c9.586,0,18.007,4.458,23.678,11.327
	C479.902,94.078,376.383,28.747,252.077,28.747C127.724,28.747,24.253,94.078,0,211.263
	C5.656,204.394,14.092,199.936,23.694,199.936z"/>
<path style="fill:#E88C07;" d="M108.859,218.273c0.158,0.354,0.323,0.654,0.488,1.016c4.513-11.327,15.588-19.354,28.507-19.354
	c12.958,0,24.001,8.027,28.554,19.354c4.537-11.327,15.588-19.354,28.57-19.354c12.965,0,23.985,8.027,28.53,19.354
	c4.569-11.327,15.581-19.354,28.562-19.354c12.95,0,24.001,8.027,28.514,19.354c4.553-11.327,15.588-19.354,28.546-19.354
	c12.981,0,24.025,8.027,28.562,19.354c4.545-11.327,15.588-19.354,28.562-19.354c12.95,0,23.993,8.027,28.522,19.354
	c0.158-0.362,0.37-0.662,0.504-1.016C372.027,93.692,316.755,5.912,252.077,5.912C187.408,5.912,132.104,93.692,108.859,218.273z"/>
<path style="fill:#EA5706;" d="M313.888,34.615c-19.795-3.781-40.472-5.86-61.81-5.86c-21.331,0-42.031,2.08-61.834,5.86
	c-36.738,35.509-66.064,101.463-81.384,183.658c0.158,0.354,0.323,0.654,0.488,1.016c4.513-11.327,15.588-19.354,28.507-19.354
	c12.958,0,24.001,8.027,28.554,19.354c4.537-11.327,15.588-19.354,28.57-19.354c12.965,0,23.985,8.027,28.53,19.354
	c4.569-11.327,15.581-19.354,28.562-19.354c12.95,0,24.001,8.027,28.514,19.354c4.553-11.327,15.588-19.354,28.546-19.354
	c12.981,0,24.025,8.027,28.562,19.354c4.545-11.327,15.588-19.354,28.562-19.354c12.95,0,23.993,8.027,28.522,19.354
	c0.158-0.362,0.37-0.662,0.504-1.016C379.951,136.078,350.602,70.124,313.888,34.615z"/>
<path style="fill:#AF8D5F;" d="M368.443,363.201c0,5.577-4.521,10.106-10.106,10.106H145.786c-5.585,0-10.106-4.529-10.106-10.106
	v-19.086c0-5.585,4.521-10.106,10.106-10.106h212.551c5.585,0,10.106,4.521,10.106,10.106L368.443,363.201L368.443,363.201z"/>
<path style="fill:#C69D6B;" d="M358.337,334.009H145.786c-5.585,0-10.106,4.521-10.106,10.106v11.075
	c0,5.593,4.521,10.106,10.106,10.106h212.551c5.585,0,10.106-4.513,10.106-10.106v-11.075
	C368.443,338.538,363.922,334.009,358.337,334.009z"/>
<g>
	<circle style="fill:#AF8D5F;" cx="152.174" cy="353.678" r="4.427"/>
	<circle style="fill:#AF8D5F;" cx="354.304" cy="353.678" r="4.427"/>
	<path style="fill:#AF8D5F;" d="M368.443,402.798c0,5.585-4.521,10.106-10.106,10.106H145.786c-5.585,0-10.106-4.521-10.106-10.106
		v-19.094c0-5.585,4.521-10.106,10.106-10.106h212.551c5.585,0,10.106,4.521,10.106,10.106L368.443,402.798L368.443,402.798z"/>
</g>
<path style="fill:#C69D6B;" d="M358.337,373.599H145.786c-5.585,0-10.106,4.521-10.106,10.106v11.083
	c0,5.585,4.521,10.106,10.106,10.106h212.551c5.585,0,10.106-4.521,10.106-10.106v-11.083
	C368.443,378.12,363.922,373.599,358.337,373.599z"/>
<g>
	<circle style="fill:#AF8D5F;" cx="152.174" cy="393.22" r="4.427"/>
	<circle style="fill:#AF8D5F;" cx="354.304" cy="393.22" r="4.427"/>
	<path style="fill:#AF8D5F;" d="M368.443,442.38c0,5.585-4.521,10.106-10.106,10.106H145.786c-5.585,0-10.106-4.521-10.106-10.106
		v-19.094c0-5.585,4.521-10.106,10.106-10.106h212.551c5.585,0,10.106,4.521,10.106,10.106L368.443,442.38L368.443,442.38z"/>
</g>
<path style="fill:#C69D6B;" d="M358.337,413.18H145.786c-5.585,0-10.106,4.521-10.106,10.106v11.091
	c0,5.585,4.521,10.106,10.106,10.106h212.551c5.585,0,10.106-4.521,10.106-10.106v-11.091
	C368.443,417.701,363.922,413.18,358.337,413.18z"/>
<g>
	<circle style="fill:#AF8D5F;" cx="152.174" cy="432.841" r="4.427"/>
	<circle style="fill:#AF8D5F;" cx="354.304" cy="432.841" r="4.427"/>
	<path style="fill:#AF8D5F;" d="M368.443,481.969c0,5.593-4.521,10.106-10.106,10.106H145.786c-5.585,0-10.106-4.513-10.106-10.106
		v-19.086c0-5.577,4.521-10.098,10.106-10.098h212.551c5.585,0,10.106,4.521,10.106,10.098L368.443,481.969L368.443,481.969z"/>
</g>
<path style="fill:#C69D6B;" d="M358.337,452.777H145.786c-5.585,0-10.106,4.521-10.106,10.098v11.083
	c0,5.585,4.521,10.106,10.106,10.106h212.551c5.585,0,10.106-4.521,10.106-10.106v-11.083
	C368.443,457.307,363.922,452.777,358.337,452.777z"/>
<g>
	<circle style="fill:#AF8D5F;" cx="152.174" cy="472.462" r="4.427"/>
	<circle style="fill:#AF8D5F;" cx="354.304" cy="472.462" r="4.427"/>
</g>
<path style="fill:#CC9D6E;" d="M188.109,327.865c5.404,0,9.767,4.38,9.767,9.759v150.827c0,5.404-4.372,9.759-9.767,9.759h-18.448
	c-5.404,0-9.767-4.364-9.767-9.759V337.625c0-5.388,4.372-9.759,9.767-9.759H188.109z"/>
<path style="fill:#E2B481;" d="M159.894,337.625v150.827c0,5.404,4.372,9.759,9.767,9.759h10.705c5.404,0,9.767-4.364,9.767-9.759
	V337.625c0-5.388-4.372-9.759-9.767-9.759h-10.705C164.265,327.865,159.894,332.245,159.894,337.625z"/>
<g>
	<circle style="fill:#AF8D5F;" cx="178.885" cy="473.722" r="4.269"/>
	<circle style="fill:#AF8D5F;" cx="178.885" cy="354.678" r="4.269"/>
</g>
<path style="fill:#CC9D6E;" d="M309.658,327.865c-5.388,0-9.752,4.38-9.752,9.759v150.827c0,5.404,4.372,9.759,9.752,9.759h18.464
	c5.388,0,9.767-4.364,9.767-9.759V337.625c0-5.388-4.387-9.759-9.767-9.759H309.658z"/>
<path style="fill:#E2B481;" d="M337.888,337.625v150.827c0,5.404-4.387,9.759-9.767,9.759h-10.72c-5.404,0-9.752-4.364-9.752-9.759
	V337.625c0-5.388,4.356-9.759,9.752-9.759h10.72C333.509,327.865,337.888,332.245,337.888,337.625z"/>
<g>
	<circle style="fill:#AF8D5F;" cx="318.889" cy="473.722" r="4.269"/>
	<circle style="fill:#AF8D5F;" cx="318.889" cy="354.678" r="4.269"/>
</g>
<g>
</g>
<g>
</g>
<g>
</g>
<g>
</g>
<g>
</g>
<g>
</g>
<g>
</g>
<g>
</g>
<g>
</g>
<g>
</g>
<g>
</g>
<g>
</g>
<g>
</g>
<g>
</g>
<g>
</g>
</svg>
