<?xml version="1.0" encoding="iso-8859-1"?>
<!-- Generator: Adobe Illustrator 19.0.0, SVG Export Plug-In . SVG Version: 6.00 Build 0)  -->
<svg version="1.1" id="Layer_1" xmlns="http://www.w3.org/2000/svg" xmlns:xlink="http://www.w3.org/1999/xlink" x="0px" y="0px"
	 viewBox="0 0 504.123 504.123" style="enable-background:new 0 0 504.123 504.123;" xml:space="preserve">
<g>
	<path style="fill:#90AFAC;" d="M105.354,149.496c0,4.356-3.521,7.877-7.877,7.877H56.123c-4.356,0-7.877-3.521-7.877-7.877v-13.785
		c0-4.356,3.521-7.877,7.877-7.877h41.354c4.356,0,7.877,3.521,7.877,7.877V149.496z"/>
	<path style="fill:#90AFAC;" d="M455.877,149.496c0,4.356-3.521,7.877-7.877,7.877h-41.354c-4.356,0-7.877-3.521-7.877-7.877
		v-13.785c0-4.356,3.521-7.877,7.877-7.877H448c4.356,0,7.877,3.521,7.877,7.877V149.496z"/>
</g>
<path style="fill:#BDDBD8;" d="M195.938,65.812h112.246c28.231,0,51.2,22.969,51.2,51.2v18.708c0,6.522-5.293,11.815-11.815,11.815
	c-6.522,0-11.815-5.293-11.815-11.815v-18.708c0-15.202-12.367-27.569-27.569-27.569H195.938c-15.202,0-27.569,12.367-27.569,27.569
	v18.708c0,6.522-5.293,11.815-11.815,11.815c-6.522,0-11.815-5.293-11.815-11.815v-18.708
	C144.738,88.781,167.708,65.812,195.938,65.812z"/>
<g>
	<path style="fill:#90AFAC;" d="M347.569,147.535c5.955,0,10.846-4.427,11.65-10.169c-1.709-26.711-23.906-47.923-51.035-47.923
		c15.202,0,27.569,12.367,27.569,27.569v18.708C335.754,142.241,341.047,147.535,347.569,147.535z"/>
	<path style="fill:#90AFAC;" d="M195.938,89.442c-27.12,0-49.341,21.22-51.035,47.923c0.803,5.742,5.695,10.169,11.65,10.169
		c6.522,0,11.815-5.293,11.815-11.815v-18.708C168.369,101.809,180.736,89.442,195.938,89.442z"/>
</g>
<path style="fill:#08375E;" d="M195.757,70.727c0-4.348,3.537-7.877,7.877-7.877h89.923c4.356,0,7.877,3.529,7.877,7.877v15.1
	c0,4.356-3.521,7.877-7.877,7.877h-89.923c-4.34,0-7.877-3.521-7.877-7.877V70.727z"/>
<path style="fill:#034B7C;" d="M203.634,93.704h89.923c4.356,0,7.877-3.521,7.877-7.877V85.74c0-4.348-3.521-7.877-7.877-7.877
	h-89.923c-4.34,0-7.877,3.529-7.877,7.877v0.087C195.757,90.183,199.294,93.704,203.634,93.704z"/>
<g>
	<path style="fill:#FF7C24;" d="M177.719,149.496c0,4.356-3.521,7.877-7.877,7.877h-28.554c-4.356,0-7.877-3.521-7.877-7.877
		v-14.769c0-4.356,3.521-7.877,7.877-7.877h28.554c4.356,0,7.877,3.521,7.877,7.877V149.496z"/>
	<path style="fill:#FF7C24;" d="M370.704,149.496c0,4.356-3.521,7.877-7.877,7.877h-28.554c-4.356,0-7.877-3.521-7.877-7.877
		v-14.769c0-4.356,3.521-7.877,7.877-7.877h28.554c4.356,0,7.877,3.521,7.877,7.877V149.496z"/>
	<path style="fill:#FF7C24;" d="M504.123,401.266c0,22.095-17.912,40.007-40.007,40.007H39.999C17.912,441.273,0,423.361,0,401.266
		V177.207C0,155.112,17.912,137.2,39.999,137.2h424.117c22.095,0,40.007,17.912,40.007,40.007V401.266z"/>
</g>
<path style="fill:#FF9827;" d="M464.116,137.192H39.999C17.912,137.192,0,155.104,0,177.199v9.704h504.123v-9.704
	C504.123,155.112,486.211,137.192,464.116,137.192z"/>
<g>
	<path style="fill:#DD620E;" d="M51.83,403.448c0,3.631-2.938,6.569-6.561,6.569l0,0c-3.623,0-6.561-2.938-6.561-6.569V175.017
		c0-3.631,2.938-6.569,6.561-6.569l0,0c3.623,0,6.561,2.938,6.561,6.569V403.448z"/>
	<path style="fill:#DD620E;" d="M97.784,403.448c0,3.631-2.938,6.569-6.561,6.569l0,0c-3.623,0-6.561-2.938-6.561-6.569V175.017
		c0-3.631,2.938-6.569,6.561-6.569l0,0c3.623,0,6.561,2.938,6.561,6.569V403.448z"/>
	<path style="fill:#DD620E;" d="M143.738,403.448c0,3.631-2.938,6.569-6.561,6.569l0,0c-3.623,0-6.561-2.938-6.561-6.569V175.017
		c0-3.631,2.938-6.569,6.561-6.569l0,0c3.623,0,6.561,2.938,6.561,6.569V403.448z"/>
	<path style="fill:#DD620E;" d="M189.692,403.448c0,3.631-2.938,6.569-6.561,6.569l0,0c-3.623,0-6.561-2.938-6.561-6.569V175.017
		c0-3.631,2.938-6.569,6.561-6.569l0,0c3.623,0,6.561,2.938,6.561,6.569V403.448z"/>
	<path style="fill:#DD620E;" d="M235.646,403.448c0,3.631-2.938,6.569-6.561,6.569l0,0c-3.623,0-6.561-2.938-6.561-6.569V175.017
		c0-3.631,2.938-6.569,6.561-6.569l0,0c3.623,0,6.561,2.938,6.561,6.569V403.448z"/>
	<path style="fill:#DD620E;" d="M281.6,403.448c0,3.631-2.938,6.569-6.561,6.569l0,0c-3.623,0-6.561-2.938-6.561-6.569V175.017
		c0-3.631,2.938-6.569,6.561-6.569l0,0c3.623,0,6.561,2.938,6.561,6.569V403.448z"/>
	<path style="fill:#DD620E;" d="M327.554,403.448c0,3.631-2.938,6.569-6.561,6.569l0,0c-3.623,0-6.561-2.938-6.561-6.569V175.017
		c0-3.631,2.938-6.569,6.561-6.569l0,0c3.623,0,6.561,2.938,6.561,6.569V403.448z"/>
	<path style="fill:#DD620E;" d="M373.508,403.448c0,3.631-2.938,6.569-6.561,6.569l0,0c-3.623,0-6.561-2.938-6.561-6.569V175.017
		c0-3.631,2.938-6.569,6.561-6.569l0,0c3.623,0,6.561,2.938,6.561,6.569V403.448z"/>
	<path style="fill:#DD620E;" d="M419.462,403.448c0,3.631-2.938,6.569-6.561,6.569l0,0c-3.623,0-6.561-2.938-6.561-6.569V175.017
		c0-3.631,2.938-6.569,6.561-6.569l0,0c3.623,0,6.561,2.938,6.561,6.569V403.448z"/>
	<path style="fill:#DD620E;" d="M465.416,403.448c0,3.631-2.938,6.569-6.561,6.569l0,0c-3.623,0-6.561-2.938-6.561-6.569V175.017
		c0-3.631,2.938-6.569,6.561-6.569l0,0c3.623,0,6.561,2.938,6.561,6.569V403.448z"/>
</g>
<path style="fill:#C65509;" d="M291.612,302.954c-4.71,0-9.106,1.402-12.776,3.875c-1.607-1.938-3.222-3.875-4.86-5.829v-0.047
	c-2.206-2.355-3.781-7.908-3.781-14.431c0-6.506,1.575-12.091,3.781-14.431v-0.024c1.638-1.938,3.253-3.907,4.86-5.829
	c3.671,2.45,8.066,3.891,12.776,3.891c12.658,0,22.993-10.335,22.993-23.001c0-12.69-10.335-23.001-22.993-23.001
	s-22.969,10.311-22.969,23.001c0,4.71,1.418,9.106,3.883,12.784c-2.339,1.938-4.687,3.907-7.01,5.86
	c-2.678,1.812-7.68,3.048-13.462,3.048c-5.766,0-10.752-1.229-13.462-3.048c-2.308-1.953-4.71-3.923-7.003-5.86
	c2.458-3.679,3.891-8.074,3.891-12.784c0-12.69-10.311-23.001-23.016-23.001c-12.619,0-22.969,10.311-22.969,23.001
	c0,12.658,10.35,23.001,22.969,23.001c4.766,0,9.153-1.449,12.792-3.891c1.599,1.922,3.253,3.891,4.884,5.829v0.032
	c2.229,2.339,3.742,7.924,3.742,14.431c0,6.522-1.504,12.075-3.742,14.431v0.032c-1.631,1.969-3.285,3.907-4.884,5.845
	c-3.639-2.473-8.042-3.875-12.792-3.875c-12.619,0-22.969,10.327-22.969,22.985c0,12.674,10.35,22.969,22.969,22.969
	c12.705,0,23.016-10.295,23.016-22.969c0-4.742-1.434-9.121-3.891-12.768c2.292-1.938,4.647-3.938,7.003-5.876
	c2.694-1.812,7.696-3.064,13.462-3.064c5.782,0,10.76,1.245,13.462,3.064c2.324,1.938,4.671,3.938,7.01,5.876
	c-2.465,3.647-3.883,8.034-3.883,12.768c0,12.674,10.311,22.969,22.969,22.969s22.993-10.295,22.993-22.969
	C314.604,313.281,304.278,302.954,291.612,302.954z"/>
<path style="fill:#DD620E;" d="M291.612,238.072c-10.287,0-18.913,6.837-21.811,16.211c0.654,2.001,1.56,3.899,2.725,5.632
	c-0.914,0.764-1.827,1.528-2.749,2.292c0.662,2.158,1.505,4.23,2.749,6.073c-0.685,0.559-1.363,1.142-2.04,1.701
	c0.575,1.355,1.229,2.67,2.04,3.875c-2.339,1.938-4.687,3.907-7.01,5.86c-2.678,1.812-7.68,3.048-13.462,3.048
	c-5.766,0-10.752-1.229-13.462-3.048c-2.308-1.953-4.71-3.923-7.003-5.86c0.819-1.205,1.465-2.521,2.032-3.868
	c-0.677-0.567-1.371-1.15-2.032-1.709c1.229-1.843,2.087-3.915,2.741-6.073c-0.914-0.764-1.835-1.528-2.741-2.292
	c1.15-1.733,2.064-3.631,2.725-5.64c-2.883-9.358-11.524-16.203-21.843-16.203c-10.185,0-18.81,6.743-21.756,16.03
	c2.97,9.247,11.579,16.022,21.756,16.022c4.766,0,9.153-1.449,12.792-3.891c1.599,1.922,3.253,3.891,4.884,5.829v0.032
	c2.229,2.339,3.742,7.924,3.742,14.431c0,1.465-0.102,2.844-0.244,4.183c0.15,1.339,0.244,2.725,0.244,4.183
	c0,0.969-0.095,1.867-0.165,2.788c0.071,0.922,0.165,1.82,0.165,2.788c0,6.522-1.504,12.075-3.742,14.431v0.032
	c-1.631,1.969-3.285,3.907-4.884,5.845c-3.639-2.473-8.042-3.875-12.792-3.875c-10.185,0-18.802,6.751-21.756,16.022
	c2.97,9.247,11.579,15.982,21.756,15.982c10.248,0,18.834-6.735,21.811-15.967c-0.654-2.079-1.497-4.064-2.686-5.821
	c0.67-0.559,1.363-1.142,2.032-1.717c-0.567-1.347-1.213-2.662-2.032-3.86c0.937-0.796,1.906-1.599,2.859-2.41
	c-0.662-2.135-1.631-4.143-2.859-5.963c2.292-1.938,4.647-3.938,7.003-5.876c2.694-1.812,7.696-3.064,13.462-3.064
	c5.782,0,10.76,1.245,13.462,3.064c2.324,1.938,4.671,3.938,7.01,5.876c-1.237,1.82-2.206,3.82-2.867,5.971
	c0.961,0.803,1.906,1.607,2.867,2.402c-0.819,1.197-1.473,2.513-2.04,3.86c0.677,0.575,1.355,1.15,2.04,1.717
	c-1.189,1.764-2.024,3.749-2.686,5.805c2.977,9.247,11.555,15.982,21.772,15.982s18.802-6.735,21.788-15.982
	c-2.946-9.271-11.555-16.022-21.788-16.022c-4.71,0-9.106,1.402-12.776,3.875c-1.607-1.938-3.222-3.875-4.86-5.829v-0.047
	c-2.206-2.355-3.781-7.908-3.781-14.431c0-0.969,0.102-1.867,0.165-2.788c-0.071-0.914-0.165-1.812-0.165-2.788
	c0-1.465,0.102-2.844,0.252-4.183c-0.158-1.339-0.252-2.725-0.252-4.183c0-6.506,1.575-12.091,3.781-14.431v-0.024
	c1.638-1.938,3.253-3.907,4.86-5.829c3.671,2.45,8.066,3.891,12.776,3.891c10.216,0,18.818-6.774,21.795-16.03
	C310.461,244.823,301.836,238.072,291.612,238.072z"/>
<g>
</g>
<g>
</g>
<g>
</g>
<g>
</g>
<g>
</g>
<g>
</g>
<g>
</g>
<g>
</g>
<g>
</g>
<g>
</g>
<g>
</g>
<g>
</g>
<g>
</g>
<g>
</g>
<g>
</g>
</svg>
