<?xml version="1.0" encoding="iso-8859-1"?>
<!-- Generator: Adobe Illustrator 19.0.0, SVG Export Plug-In . SVG Version: 6.00 Build 0)  -->
<svg version="1.1" id="Layer_1" xmlns="http://www.w3.org/2000/svg" xmlns:xlink="http://www.w3.org/1999/xlink" x="0px" y="0px"
	 viewBox="0 0 504.147 504.147" style="enable-background:new 0 0 504.147 504.147;" xml:space="preserve">
<polygon style="fill:#8E1700;" points="193.245,487.483 134.404,385.571 193.245,283.668 310.902,283.668 369.743,385.571 
	310.902,487.483 "/>
<polygon style="fill:#6B1105;" points="193.245,487.483 134.404,385.571 193.245,394.756 310.902,394.756 369.743,385.571 
	310.902,487.483 "/>
<path style="fill:#8E1700;" d="M278,263.991h-51.846c-1.804,4.017-4.356,8.586-7.373,13.044c-0.969,1.449-1.189,3.245-0.614,4.876
	c0.575,1.631,1.898,2.875,3.553,3.387c9.295,2.812,19.787,4.293,30.35,4.293s21.071-1.481,30.358-4.293
	c1.662-0.504,2.977-1.757,3.56-3.387c0.575-1.631,0.347-3.434-0.614-4.876C282.356,272.577,279.796,268,278,263.991z"/>
<ellipse style="fill:#E86105;" cx="252.069" cy="184.773" rx="100.061" ry="41.889"/>
<path style="fill:#B22504;" d="M352.13,184.773c0,23.142-44.796,41.889-100.061,41.889c-55.249,0-100.053-18.755-100.053-41.889"/>
<path style="fill:#E86105;" d="M215.733,175.328c0,15.368-12.438,27.829-27.806,27.829c-15.36,0-125.629-12.461-125.629-27.829
	c0-15.352,110.269-27.813,125.629-27.813C203.296,147.515,215.733,159.976,215.733,175.328z"/>
<path style="fill:#FF9827;" d="M187.92,147.515c15.368,0,27.806,12.461,27.806,27.813"/>
<g>
	<path style="fill:#B22504;" d="M215.733,175.328c0,15.368,17.912,48.065,2.544,48.065S62.291,190.704,62.291,175.328"/>
	<path style="fill:#B22504;" d="M90.025,181.866c0,8.862-7.176,16.03-16.022,16.03l0,0c-8.854,0-16.006-7.168-16.006-16.03V167.53
		c0-8.846,7.152-16.014,16.006-16.014l0,0c8.846,0,16.022,7.168,16.022,16.014C90.025,167.53,90.025,181.866,90.025,181.866z"/>
</g>
<path style="fill:#CC5200;" d="M90.025,166.065c0,8.846-7.176,16.014-16.022,16.014l0,0c-8.854,0-16.006-7.168-16.006-16.014
	v-14.336c0-8.846,7.152-16.03,16.006-16.03l0,0c8.846,0,16.022,7.184,16.022,16.03C90.025,151.729,90.025,166.065,90.025,166.065z"
	/>
<path style="fill:#B22504;" d="M58.494,151.729c1.694,7.018,7.979,12.233,15.51,12.233c7.53,0,13.816-5.215,15.518-12.233
	c-1.701-7.003-7.987-12.233-15.518-12.233C66.473,139.496,60.188,144.727,58.494,151.729z"/>
<path style="fill:#00B1FF;" d="M147.976,138.976c0,6.459-33.115,11.705-73.98,11.705C33.115,150.682,0,145.436,0,138.976
	s33.107-11.689,73.996-11.689C114.861,127.279,147.976,132.51,147.976,138.976z"/>
<ellipse style="fill:#0092FF;" cx="74.004" cy="138.961" rx="41.102" ry="11.705"/>
<path style="fill:#00CFFF;" d="M147.511,138.976c0,1.142-0.898,2.048-2.056,2.048H2.528c-1.119,0-2.024-0.906-2.024-2.048l0,0
	c0-1.142,0.906-2.064,2.024-2.064h142.927C146.605,136.913,147.511,137.834,147.511,138.976L147.511,138.976z"/>
<path style="fill:#B22504;" d="M90.293,124.759c0,4.695,6.294,8.523,1.56,8.523H56.139c-4.71,0,1.575-3.828,1.575-8.523l0,0
	c0-4.742,3.836-8.554,8.539-8.554h15.486C86.449,116.204,90.293,120.017,90.293,124.759L90.293,124.759z"/>
<path style="fill:#E86105;" d="M288.414,175.328c0,15.368,12.438,27.829,27.829,27.829c15.344,0,125.605-12.461,125.605-27.829
	c0-15.352-110.261-27.813-125.605-27.813C300.851,147.515,288.414,159.976,288.414,175.328z"/>
<path style="fill:#FF9827;" d="M316.243,147.515c-15.392,0-27.829,12.461-27.829,27.813"/>
<g>
	<path style="fill:#B22504;" d="M288.414,175.328c0,15.368-17.904,48.065-2.536,48.065c15.368,0,155.979-32.689,155.979-48.065"/>
	<path style="fill:#B22504;" d="M414.121,181.866c0,8.862,7.192,16.03,16.03,16.03l0,0c8.854,0,15.998-7.168,15.998-16.03V167.53
		c0-8.846-7.144-16.014-15.998-16.014l0,0c-8.838,0-16.03,7.168-16.03,16.014V181.866z"/>
</g>
<path style="fill:#CC5200;" d="M414.121,166.065c0,8.846,7.192,16.014,16.03,16.014l0,0c8.854,0,15.998-7.168,15.998-16.014v-14.336
	c0-8.846-7.144-16.03-15.998-16.03l0,0c-8.838,0-16.03,7.184-16.03,16.03V166.065z"/>
<path style="fill:#B22504;" d="M445.661,151.729c-1.694,7.018-7.979,12.233-15.51,12.233c-7.538,0-13.8-5.215-15.533-12.233
	c1.733-7.003,7.995-12.233,15.533-12.233C437.681,139.496,443.967,144.727,445.661,151.729z"/>
<ellipse style="fill:#00B1FF;" cx="430.167" cy="138.961" rx="73.98" ry="11.705"/>
<ellipse style="fill:#0092FF;" cx="430.167" cy="138.961" rx="41.102" ry="11.705"/>
<path style="fill:#00CFFF;" d="M356.643,138.976c0,1.142,0.906,2.048,2.04,2.048h142.935c1.126,0,2.048-0.906,2.048-2.048l0,0
	c0-1.142-0.922-2.064-2.048-2.064H358.684C357.557,136.913,356.643,137.834,356.643,138.976L356.643,138.976z"/>
<g>
	<path style="fill:#B22504;" d="M413.861,124.759c0,4.695-6.294,8.523-1.568,8.523h35.722c4.71,0-1.575-3.828-1.575-8.523l0,0
		c0-4.742-3.82-8.554-8.546-8.554h-15.478C417.697,116.204,413.861,120.017,413.861,124.759L413.861,124.759z"/>
	<path style="fill:#B22504;" d="M299.418,188.837h-15.265c-2.316,0-4.521,1.032-6.018,2.796c-2.143,2.521-11.902,6.262-26.073,6.262
		c-14.155,0-23.906-3.742-26.033-6.262c-1.505-1.772-3.718-2.796-6.034-2.796h-15.265c-4.364,0-7.877,3.521-7.877,7.877v16.14
		c0,2.001,0.772,3.938,2.135,5.404c3.009,3.182,7.168,4.506,11.209,5.782c7.696,2.434,8.531,3.434,8.531,6.294
		c0,6.412-6.081,19.952-14.809,32.91c-1.394,2.079-1.741,4.695-0.882,7.05c0.835,2.355,2.741,4.167,5.136,4.892
		c13.438,4.064,28.617,6.215,43.882,6.215c15.281,0,30.46-2.15,43.898-6.215c2.402-0.725,4.301-2.536,5.144-4.892
		c0.827-2.355,0.496-4.97-0.882-7.05c-8.72-12.958-14.809-26.49-14.809-32.91c0-2.859,0.835-3.86,8.523-6.294
		c4.033-1.276,8.192-2.599,11.209-5.782c1.371-1.465,2.135-3.403,2.135-5.404v-16.14
		C307.295,192.358,303.766,188.837,299.418,188.837z"/>
</g>
<g>
	<path style="fill:#FF9827;" d="M268.154,156.495c0,0.819-0.662,1.481-1.481,1.481h-29.192c-0.819,0-1.481-0.662-1.481-1.481l0,0
		c0-0.819,0.662-1.481,1.481-1.481h29.192C267.492,155.022,268.154,155.683,268.154,156.495L268.154,156.495z"/>
	<path style="fill:#FF9827;" d="M268.154,165.356c0,0.819-0.662,1.481-1.481,1.481h-29.192c-0.819,0-1.481-0.662-1.481-1.481l0,0
		c0-0.819,0.662-1.481,1.481-1.481h29.192C267.492,163.883,268.154,164.545,268.154,165.356L268.154,165.356z"/>
	<path style="fill:#FF9827;" d="M268.154,174.218c0,0.819-0.662,1.481-1.481,1.481h-29.192c-0.819,0-1.481-0.662-1.481-1.481l0,0
		c0-0.819,0.662-1.481,1.481-1.481h29.192C267.492,172.745,268.154,173.407,268.154,174.218L268.154,174.218z"/>
	<path style="fill:#FF9827;" d="M257.985,58.017c0,3.261-2.647,5.908-5.916,5.908l0,0c-3.253,0-5.9-2.647-5.9-5.908V22.571
		c0-3.261,2.647-5.908,5.9-5.908l0,0c3.269,0,5.916,2.647,5.916,5.908V58.017z"/>
	<path style="fill:#FF9827;" d="M180.547,80.16c2.316,2.308,2.316,6.065,0,8.365l0,0c-2.3,2.308-6.034,2.292-8.342-0.016
		l-25.072-25.064c-2.316-2.308-2.316-6.049,0-8.357l0,0c2.3-2.308,6.049-2.308,8.357,0L180.547,80.16z"/>
	<path style="fill:#FF9827;" d="M215.355,66.454c1.016,3.096-0.67,6.443-3.765,7.459l0,0c-3.104,1.016-6.435-0.677-7.467-3.781
		l-11.043-33.658c-1.016-3.111,0.662-6.443,3.773-7.459l0,0c3.111-1.016,6.428,0.662,7.459,3.773L215.355,66.454z"/>
	<path style="fill:#FF9827;" d="M323.6,80.16c-2.316,2.308-2.316,6.065,0,8.365l0,0c2.308,2.308,6.049,2.292,8.357-0.016
		l25.064-25.064c2.308-2.308,2.308-6.049,0-8.357l0,0c-2.308-2.308-6.049-2.308-8.357,0L323.6,80.16z"/>
	<path style="fill:#FF9827;" d="M288.799,66.454c-1.016,3.096,0.662,6.443,3.773,7.459l0,0c3.096,1.016,6.428-0.677,7.459-3.781
		l11.043-33.658c1.008-3.111-0.662-6.443-3.773-7.459l0,0c-3.111-1.016-6.428,0.662-7.459,3.773L288.799,66.454z"/>
	<path style="fill:#FF9827;" d="M290.052,425.326c0.354-0.882,0.677-1.788,0.953-2.718c0.284-0.898,0.504-1.835,0.717-2.781
		c0.165-0.733,0.347-1.449,0.457-2.198c0.276-1.78,0.449-3.584,0.449-5.459c0-22.134-16.549-31.169-30.815-36.525
		c-13.344-5.341-16.022-7.908-16.022-10.311c0-4.545,5.853-5.23,9.35-5.23c9.027,0,14.966,2.788,18.889,4.616l0.969,0.449
		c1.686,0.772,3.6,0.772,5.293,0.008c1.678-0.78,2.946-2.229,3.458-4.009l4.466-15.226c0.866-2.962-0.496-6.097-3.245-7.483
		c-5.947-2.97-12.312-4.844-19.322-5.679v-9.476c0-3.513-2.851-6.365-6.365-6.365h-13.58c-3.513,0-6.365,2.844-6.365,6.365v11.177
		c-1.827,0.536-3.568,1.205-5.246,1.93c-0.536,0.228-1.04,0.488-1.552,0.74c-1.142,0.551-2.229,1.142-3.293,1.78
		c-0.52,0.315-1.048,0.63-1.552,0.969c-1.111,0.748-2.15,1.544-3.143,2.379c-0.347,0.299-0.725,0.567-1.056,0.874
		c-1.142,1.032-2.166,2.135-3.135,3.277c-0.465,0.536-0.851,1.111-1.268,1.67c-0.551,0.748-1.079,1.512-1.56,2.316
		c-0.394,0.63-0.772,1.268-1.119,1.93c-0.457,0.866-0.835,1.772-1.205,2.686c-0.244,0.599-0.536,1.166-0.74,1.788l-0.008,0.016l0,0
		c-1.142,3.387-1.78,7.003-1.78,10.823c0,21.031,17.558,30.074,32.823,35.612c13.863,5.049,13.863,8.885,13.863,10.728
		c0,4.947-6.026,6.711-11.177,6.711c-7.459,0-15.691-2.332-22.583-6.396c-1.701-1-3.773-1.158-5.6-0.433
		c-1.82,0.733-3.23,2.261-3.757,4.159l-4.474,15.557c-0.772,2.67,0.276,5.522,2.592,7.05c5.884,3.931,14.706,6.782,23.977,7.893
		v10.153c0,3.513,2.844,6.365,6.372,6.365h13.58c3.513,0,6.357-2.844,6.357-6.365v-11.941c10.335-2.844,18.314-8.767,23.072-16.66
		l0,0c0.008-0.016,0.016-0.024,0.016-0.024c0.575-0.969,1.056-1.969,1.52-2.977C289.532,426.5,289.808,425.925,290.052,425.326z"/>
	<circle style="fill:#FF9827;" cx="186.77" cy="391.022" r="9.169"/>
	<circle style="fill:#FF9827;" cx="317.401" cy="391.022" r="9.169"/>
</g>
<g>
</g>
<g>
</g>
<g>
</g>
<g>
</g>
<g>
</g>
<g>
</g>
<g>
</g>
<g>
</g>
<g>
</g>
<g>
</g>
<g>
</g>
<g>
</g>
<g>
</g>
<g>
</g>
<g>
</g>
</svg>
