<?xml version="1.0" encoding="iso-8859-1"?>
<!-- Generator: Adobe Illustrator 19.0.0, SVG Export Plug-In . SVG Version: 6.00 Build 0)  -->
<svg version="1.1" id="Layer_1" xmlns="http://www.w3.org/2000/svg" xmlns:xlink="http://www.w3.org/1999/xlink" x="0px" y="0px"
	 viewBox="0 0 504.123 504.123" style="enable-background:new 0 0 504.123 504.123;" xml:space="preserve">
<path style="fill:#093568;" d="M252.062,484.431c-128.134,0-232.369-104.235-232.369-232.369S123.928,19.692,252.062,19.692
	s232.369,104.235,232.369,232.369S380.195,484.431,252.062,484.431z"/>
<path style="fill:#041D35;" d="M252.062,19.692c128.134,0,232.369,104.235,232.369,232.369S380.195,484.431,252.062,484.431"/>
<path style="fill:#0092FF;" d="M252.062,39.385c117.264,0,212.677,95.405,212.677,212.677s-95.413,212.677-212.677,212.677
	c-117.272,0-212.677-95.405-212.677-212.677S134.79,39.385,252.062,39.385 M252.062,0C112.845,0,0,112.853,0,252.062
	s112.845,252.062,252.062,252.062S504.123,391.27,504.123,252.062S391.278,0,252.062,0L252.062,0z"/>
<path style="fill:#0092FF;" d="M446.243,120.777H165.289V51.854c0-10.878-8.814-19.692-19.692-19.692s-19.692,8.814-19.692,19.692
	v407.631c0,10.878,10.169,15.1,21.047,15.1s18.337-4.222,18.337-15.1v-68.923h116.185v86.646c0,10.878,8.814,19.692,19.692,19.692
	c10.878,0,19.692-8.814,19.692-19.692V351.177H165.289V160.161h238.939v250.746c0,10.878,8.814,15.801,19.692,15.801
	c10.878,0,19.692-12.753,19.692-23.631V160.161h2.631c10.87,0,19.692-8.814,19.692-19.692
	C465.936,129.591,457.114,120.777,446.243,120.777z"/>
<circle style="fill:#8DF4FF;" cx="252.062" cy="252.062" r="137.846"/>
<path style="fill:#61DFE5;" d="M252.062,114.215c76.13,0,137.846,61.716,137.846,137.846s-61.716,137.846-137.846,137.846"/>
<path style="fill:#5ACBE5;" d="M125.905,196.624v110.876c21.354,48.506,69.766,82.408,126.157,82.408
	c25.08,0,48.538-6.806,68.797-18.519v-20.212H165.289V160.161h189.306c-16.171-18.03-36.927-31.831-60.558-39.385h-83.96
	C172.331,132.836,141.706,160.713,125.905,196.624z"/>
<path style="fill:#041D35;" d="M291.493,268.422c-4.71,0-9.074,1.441-12.737,3.883c-1.583-1.93-3.214-3.883-4.86-5.813v-0.032
	c-2.198-2.347-3.742-7.908-3.742-14.399c0-6.483,1.536-12.052,3.742-14.391v-0.032c1.646-1.938,3.277-3.891,4.86-5.813
	c3.663,2.45,8.034,3.875,12.753,3.875c12.635,0,22.906-10.279,22.906-22.914s-10.279-22.914-22.906-22.914
	c-12.642,0-22.922,10.279-22.922,22.914c0,4.71,1.434,9.09,3.875,12.737c-2.308,1.914-4.663,3.883-6.971,5.845
	c-2.694,1.804-7.68,3.033-13.43,3.033c-5.75,0-10.72-1.221-13.43-3.033c-2.292-1.961-4.663-3.931-6.971-5.845
	c2.45-3.647,3.875-8.034,3.875-12.737c0-12.635-10.279-22.914-22.922-22.914c-12.635,0-22.906,10.279-22.906,22.914
	s10.279,22.914,22.906,22.914c4.726,0,9.09-1.434,12.737-3.875c1.599,1.922,3.23,3.875,4.86,5.805v0.039
	c2.213,2.339,3.757,7.908,3.757,14.391c0,6.491-1.536,12.052-3.757,14.399v0.024c-1.631,1.938-3.261,3.891-4.86,5.821
	c-3.647-2.45-8.034-3.883-12.737-3.883c-12.635,0-22.906,10.287-22.906,22.922s10.279,22.906,22.906,22.906
	c12.642,0,22.922-10.279,22.922-22.906c0-4.726-1.434-9.09-3.875-12.745c2.308-1.906,4.663-3.883,6.971-5.845
	c2.694-1.804,7.68-3.033,13.43-3.033c5.75,0,10.721,1.221,13.43,3.033c2.292,1.961,4.663,3.938,6.971,5.845
	c-2.45,3.655-3.875,8.027-3.875,12.745c0,12.635,10.279,22.906,22.906,22.906c12.642,0,22.922-10.279,22.922-22.906
	C314.415,278.709,304.136,268.422,291.493,268.422z"/>
<g>
</g>
<g>
</g>
<g>
</g>
<g>
</g>
<g>
</g>
<g>
</g>
<g>
</g>
<g>
</g>
<g>
</g>
<g>
</g>
<g>
</g>
<g>
</g>
<g>
</g>
<g>
</g>
<g>
</g>
</svg>
