<?xml version="1.0" encoding="iso-8859-1"?>
<!-- Generator: Adobe Illustrator 19.0.0, SVG Export Plug-In . SVG Version: 6.00 Build 0)  -->
<svg version="1.1" id="Layer_1" xmlns="http://www.w3.org/2000/svg" xmlns:xlink="http://www.w3.org/1999/xlink" x="0px" y="0px"
	 viewBox="0 0 504.147 504.147" style="enable-background:new 0 0 504.147 504.147;" xml:space="preserve">
<path style="fill:#116FCE;" d="M297.149,458.709l-0.087,0.102l1.371,31.539h96.516l-13.06-70.987l53.681-58.589
	c0.473-0.504,0.796-1.103,1.197-1.623c2.859-2.418,5.018-5.679,5.923-9.586l14.383-61.18c1-4.301,0.323-8.57-1.536-12.225
	l-10.965-44.914c-1.883-7.759-9.704-12.532-17.503-10.626c-7.735,1.883-12.516,9.728-10.634,17.503l9.712,39.731l-5.805,19.795
	l-64.677,70.585c6.396-19.574,32.744-50.672,25.175-57.596c-12.729-11.681-15.187-15.147-30.263,1.308l-50.452,55.044
	c-0.118,0.15-0.205,0.315-0.331,0.473c-3.954,4.08-6.309,9.673-6.034,15.785l3.245,74.594
	C297.039,458.142,297.11,458.417,297.149,458.709z"/>
<path style="fill:#008CFF;" d="M455.538,276.177l-10.965-44.914c-1.883-7.759-9.704-12.532-17.503-10.626
	c-7.735,1.883-12.516,9.728-10.634,17.503l9.712,39.731l-5.805,19.795l-64.677,70.585c6.396-19.574,32.744-50.672,25.175-57.596
	c-12.729-11.681-15.187-15.147-30.263,1.308l-50.452,55.044c-0.118,0.15-0.205,0.315-0.331,0.473
	c-3.954,4.08-6.309,9.673-6.034,15.785l0.607,13.966l112.286-4.899l28.9-31.539c0.473-0.504,0.796-1.103,1.197-1.623
	c2.859-2.418,5.018-5.679,5.923-9.586l14.383-61.18C458.075,284.093,457.397,279.824,455.538,276.177z"/>
<path style="fill:#116FCE;" d="M206.982,458.709l0.079,0.102l-1.378,31.539h-96.5l13.052-70.987l-53.681-58.589
	c-0.473-0.504-0.796-1.103-1.205-1.623c-2.851-2.418-5.01-5.679-5.923-9.586l-14.368-61.18c-1.016-4.301-0.331-8.57,1.528-12.225
	l10.965-44.914c1.875-7.759,9.704-12.532,17.495-10.626c7.751,1.883,12.516,9.728,10.634,17.503l-9.704,39.731l5.797,19.795
	l64.685,70.585c-6.396-19.574-32.752-50.672-25.175-57.596c12.737-11.681,15.187-15.147,30.263,1.308l50.444,55.044
	c0.126,0.15,0.213,0.315,0.331,0.473c3.962,4.08,6.317,9.673,6.034,15.785l-3.237,74.594
	C207.084,458.142,207.006,458.417,206.982,458.709z"/>
<path style="fill:#008CFF;" d="M48.585,276.177l10.965-44.914c1.875-7.759,9.704-12.532,17.495-10.626
	c7.751,1.883,12.516,9.728,10.634,17.503l-9.704,39.731l5.797,19.795l64.685,70.585c-6.396-19.574-32.752-50.672-25.175-57.596
	c12.737-11.681,15.187-15.147,30.263,1.308l50.444,55.044c0.126,0.15,0.213,0.315,0.331,0.473c3.962,4.08,6.317,9.673,6.034,15.785
	l-0.599,13.966L97.461,392.33l-28.893-31.539c-0.473-0.504-0.796-1.103-1.205-1.623c-2.851-2.418-5.01-5.679-5.923-9.586
	l-14.368-61.18C46.041,284.093,46.726,279.824,48.585,276.177z"/>
<path style="fill:#0092FF;" d="M277.984,261.108h-51.846c-1.804,4.017-4.356,8.586-7.373,13.044
	c-0.969,1.449-1.197,3.245-0.614,4.876s1.906,2.875,3.552,3.387c9.295,2.812,19.787,4.293,30.358,4.293
	c10.555,0,21.063-1.481,30.358-4.293c1.654-0.504,2.97-1.757,3.553-3.387c0.575-1.631,0.347-3.434-0.614-4.876
	C282.34,269.694,279.788,265.125,277.984,261.108z"/>
<ellipse style="fill:#093568;" cx="252.062" cy="181.898" rx="100.061" ry="41.889"/>
<path style="fill:#041D35;" d="M352.122,181.898c0,23.142-44.804,41.889-100.061,41.889s-100.061-18.755-100.061-41.889"/>
<path style="fill:#093568;" d="M215.725,172.453c0,15.368-12.446,27.829-27.813,27.829S62.275,187.821,62.275,172.453
	c0-15.352,110.261-27.813,125.629-27.813S215.725,157.093,215.725,172.453z"/>
<path style="fill:#074584;" d="M187.904,144.632c15.368,0,27.813,12.461,27.813,27.813"/>
<g>
	<path style="fill:#041D35;" d="M215.725,172.453c0,15.368,17.904,48.065,2.536,48.065S62.275,187.829,62.275,172.453"/>
	<path style="fill:#041D35;" d="M90.01,178.991c0,8.862-7.176,16.03-16.022,16.03l0,0c-8.862,0-15.998-7.168-15.998-16.03v-14.336
		c0-8.846,7.136-16.014,15.998-16.014l0,0c8.846,0,16.022,7.168,16.022,16.014V178.991z"/>
</g>
<path style="fill:#093568;" d="M90.01,163.19c0,8.846-7.176,16.014-16.022,16.014l0,0c-8.862,0-15.998-7.168-15.998-16.014v-14.336
	c0-8.846,7.136-16.03,15.998-16.03l0,0c8.846,0,16.022,7.184,16.022,16.03V163.19z"/>
<path style="fill:#041D35;" d="M58.478,148.854c1.694,7.018,7.987,12.233,15.51,12.233c7.538,0,13.816-5.215,15.518-12.233
	c-1.701-7.003-7.979-12.233-15.518-12.233C66.465,136.621,60.172,141.852,58.478,148.854z"/>
<ellipse style="fill:#00B1FF;" cx="73.98" cy="136.094" rx="73.98" ry="11.705"/>
<ellipse style="fill:#0092FF;" cx="73.988" cy="136.094" rx="41.102" ry="11.705"/>
<path style="fill:#00CFFF;" d="M147.495,136.094c0,1.142-0.906,2.048-2.056,2.048H2.521c-1.126,0-2.032-0.906-2.032-2.048l0,0
	c0-1.142,0.906-2.064,2.032-2.064h142.919C146.582,134.038,147.495,134.959,147.495,136.094L147.495,136.094z"/>
<path style="fill:#041D35;" d="M90.277,121.884c0,4.695,6.294,8.523,1.56,8.523H56.123c-4.71,0,1.575-3.828,1.575-8.523l0,0
	c0-4.742,3.836-8.554,8.539-8.554h15.486C86.433,113.329,90.277,117.142,90.277,121.884L90.277,121.884z"/>
<path style="fill:#093568;" d="M288.398,172.453c0,15.368,12.446,27.829,27.829,27.829c15.344,0,125.605-12.461,125.605-27.829
	c0-15.352-110.261-27.813-125.605-27.813C300.843,144.632,288.398,157.093,288.398,172.453z"/>
<path style="fill:#074584;" d="M316.227,144.632c-15.384,0-27.829,12.461-27.829,27.813"/>
<g>
	<path style="fill:#041D35;" d="M288.398,172.453c0,15.368-17.904,48.065-2.536,48.065s155.979-32.689,155.979-48.065"/>
	<path style="fill:#041D35;" d="M414.106,178.991c0,8.862,7.184,16.03,16.03,16.03l0,0c8.854,0,15.998-7.168,15.998-16.03v-14.336
		c0-8.846-7.144-16.014-15.998-16.014l0,0c-8.846,0-16.03,7.168-16.03,16.014V178.991z"/>
</g>
<path style="fill:#093568;" d="M414.106,163.19c0,8.846,7.184,16.014,16.03,16.014l0,0c8.854,0,15.998-7.168,15.998-16.014v-14.336
	c0-8.846-7.144-16.03-15.998-16.03l0,0c-8.846,0-16.03,7.184-16.03,16.03V163.19z"/>
<path style="fill:#041D35;" d="M445.645,148.854c-1.694,7.018-7.979,12.233-15.51,12.233c-7.538,0-13.8-5.215-15.525-12.233
	c1.725-7.003,7.987-12.233,15.525-12.233C437.665,136.621,443.951,141.852,445.645,148.854z"/>
<ellipse style="fill:#00B1FF;" cx="430.159" cy="136.094" rx="73.988" ry="11.705"/>
<ellipse style="fill:#0092FF;" cx="430.159" cy="136.094" rx="41.102" ry="11.705"/>
<path style="fill:#00CFFF;" d="M356.628,136.094c0,1.142,0.906,2.048,2.048,2.048h142.927c1.126,0,2.048-0.906,2.048-2.048l0,0
	c0-1.142-0.922-2.064-2.048-2.064H358.676C357.541,134.038,356.628,134.959,356.628,136.094L356.628,136.094z"/>
<path style="fill:#041D35;" d="M413.846,121.884c0,4.695-6.294,8.523-1.568,8.523H448c4.71,0-1.575-3.828-1.575-8.523l0,0
	c0-4.742-3.82-8.554-8.546-8.554H422.4C417.69,113.329,413.846,117.142,413.846,121.884L413.846,121.884z"/>
<path style="fill:#081E34;" d="M299.402,185.954h-15.265c-2.316,0-4.521,1.032-6.018,2.796c-2.135,2.521-11.902,6.262-26.065,6.262
	c-14.171,0-23.914-3.742-26.049-6.262c-1.504-1.772-3.71-2.796-6.026-2.796h-15.258c-4.356,0-7.877,3.521-7.877,7.877v16.14
	c0,2.001,0.772,3.938,2.135,5.404c3.009,3.182,7.168,4.506,11.201,5.782c7.704,2.434,8.539,3.434,8.539,6.294
	c0,6.412-6.081,19.952-14.816,32.91c-1.386,2.08-1.725,4.695-0.874,7.05c0.835,2.355,2.741,4.167,5.136,4.892
	c13.438,4.064,28.617,6.215,43.89,6.215c15.273,0,30.46-2.15,43.89-6.215c2.402-0.725,4.293-2.536,5.144-4.892
	c0.835-2.355,0.496-4.97-0.882-7.05c-8.72-12.958-14.801-26.49-14.801-32.91c0-2.859,0.827-3.86,8.515-6.294
	c4.033-1.276,8.192-2.599,11.209-5.782c1.371-1.465,2.135-3.403,2.135-5.404v-16.14C307.279,189.483,303.75,185.954,299.402,185.954
	z"/>
<g>
	<path style="fill:#0092FF;" d="M268.138,153.62c0,0.819-0.662,1.481-1.481,1.481h-29.2c-0.819,0-1.481-0.662-1.481-1.481l0,0
		c0-0.819,0.662-1.481,1.481-1.481h29.2C267.477,152.139,268.138,152.8,268.138,153.62L268.138,153.62z"/>
	<path style="fill:#0092FF;" d="M268.138,162.481c0,0.819-0.662,1.481-1.481,1.481h-29.2c-0.819,0-1.481-0.662-1.481-1.481l0,0
		c0-0.819,0.662-1.481,1.481-1.481h29.2C267.477,161,268.138,161.662,268.138,162.481L268.138,162.481z"/>
	<path style="fill:#0092FF;" d="M268.138,171.343c0,0.819-0.662,1.481-1.481,1.481h-29.2c-0.819,0-1.481-0.662-1.481-1.481l0,0
		c0-0.819,0.662-1.481,1.481-1.481h29.2C267.477,169.862,268.138,170.524,268.138,171.343L268.138,171.343z"/>
</g>
<g>
	<path style="fill:#00B1FF;" d="M257.969,55.15c0,3.261-2.647,5.908-5.908,5.908l0,0c-3.261,0-5.908-2.647-5.908-5.908V19.704
		c0-3.261,2.647-5.908,5.908-5.908l0,0c3.261,0,5.908,2.647,5.908,5.908V55.15z"/>
	<path style="fill:#00B1FF;" d="M180.539,77.292c2.308,2.308,2.308,6.057,0,8.365l0,0c-2.308,2.308-6.049,2.3-8.357-0.008
		l-25.064-25.064c-2.308-2.308-2.308-6.049,0-8.357l0,0c2.308-2.308,6.049-2.308,8.357,0L180.539,77.292z"/>
	<path style="fill:#00B1FF;" d="M215.339,63.571c1.016,3.104-0.662,6.443-3.773,7.467l0,0c-3.096,1.016-6.428-0.685-7.459-3.781
		l-11.043-33.666c-1.016-3.111,0.662-6.435,3.773-7.459l0,0c3.111-1.016,6.428,0.67,7.459,3.773L215.339,63.571z"/>
	<path style="fill:#00B1FF;" d="M323.584,77.292c-2.308,2.308-2.308,6.057,0,8.365l0,0c2.308,2.308,6.049,2.3,8.357-0.008
		l25.064-25.064c2.308-2.308,2.308-6.049,0-8.357l0,0c-2.308-2.308-6.049-2.308-8.357,0L323.584,77.292z"/>
	<path style="fill:#00B1FF;" d="M288.784,63.571c-1.016,3.104,0.662,6.443,3.773,7.467l0,0c3.096,1.016,6.428-0.685,7.459-3.781
		l11.043-33.666c1.016-3.111-0.662-6.435-3.773-7.459l0,0c-3.111-1.016-6.428,0.67-7.459,3.773L288.784,63.571z"/>
</g>
<g>
</g>
<g>
</g>
<g>
</g>
<g>
</g>
<g>
</g>
<g>
</g>
<g>
</g>
<g>
</g>
<g>
</g>
<g>
</g>
<g>
</g>
<g>
</g>
<g>
</g>
<g>
</g>
<g>
</g>
</svg>
