<?xml version="1.0" encoding="iso-8859-1"?>
<!-- Generator: Adobe Illustrator 19.0.0, SVG Export Plug-In . SVG Version: 6.00 Build 0)  -->
<svg version="1.1" id="Layer_1" xmlns="http://www.w3.org/2000/svg" xmlns:xlink="http://www.w3.org/1999/xlink" x="0px" y="0px"
	 viewBox="0 0 504.139 504.139" style="enable-background:new 0 0 504.139 504.139;" xml:space="preserve">
<path style="fill:#0092FF;" d="M277.984,192.693h-51.846c-1.804,4.017-4.356,8.586-7.373,13.044
	c-0.969,1.449-1.189,3.245-0.614,4.876c0.583,1.631,1.906,2.875,3.552,3.387c9.295,2.812,19.787,4.293,30.358,4.293
	c10.555,0,21.063-1.481,30.358-4.293c1.654-0.504,2.97-1.757,3.553-3.387c0.575-1.631,0.347-3.434-0.614-4.876
	C282.34,201.279,279.788,196.71,277.984,192.693z"/>
<ellipse style="fill:#093568;" cx="252.062" cy="113.483" rx="100.061" ry="41.889"/>
<path style="fill:#041D35;" d="M352.122,113.483c0,23.142-44.804,41.889-100.061,41.889s-100.061-18.755-100.061-41.889"/>
<path style="fill:#093568;" d="M215.725,104.038c0,15.368-12.446,27.829-27.813,27.829c-15.36,0-125.629-12.461-125.629-27.829
	c0-15.352,110.269-27.813,125.629-27.813C203.28,76.217,215.725,88.678,215.725,104.038z"/>
<path style="fill:#074584;" d="M187.904,76.217c15.368,0,27.813,12.461,27.813,27.813"/>
<g>
	<path style="fill:#041D35;" d="M215.725,104.038c0,15.368,17.904,48.065,2.536,48.065S62.275,119.414,62.275,104.038"/>
	<path style="fill:#041D35;" d="M90.01,110.576c0,8.862-7.176,16.03-16.022,16.03l0,0c-8.854,0-16.006-7.168-16.006-16.03V96.24
		c0-8.846,7.152-16.014,16.006-16.014l0,0c8.846,0,16.022,7.168,16.022,16.014V110.576z"/>
</g>
<path style="fill:#093568;" d="M90.01,94.775c0,8.846-7.176,16.014-16.022,16.014l0,0c-8.854,0-16.006-7.168-16.006-16.014V80.439
	c0-8.846,7.152-16.03,16.006-16.03l0,0c8.846,0,16.022,7.184,16.022,16.03V94.775z"/>
<path style="fill:#041D35;" d="M58.478,80.431c1.694,7.018,7.987,12.233,15.51,12.233c7.538,0,13.816-5.215,15.518-12.233
	c-1.701-7.003-7.979-12.233-15.518-12.233C66.465,68.206,60.172,73.437,58.478,80.431z"/>
<ellipse style="fill:#00B1FF;" cx="73.98" cy="67.671" rx="73.98" ry="11.705"/>
<ellipse style="fill:#0092FF;" cx="73.988" cy="67.671" rx="41.102" ry="11.705"/>
<path style="fill:#00CFFF;" d="M147.495,67.679c0,1.142-0.906,2.048-2.056,2.048H2.521c-1.126,0-2.032-0.906-2.032-2.048l0,0
	c0-1.142,0.906-2.064,2.032-2.064h142.919C146.582,65.623,147.495,66.544,147.495,67.679L147.495,67.679z"/>
<path style="fill:#041D35;" d="M90.277,53.469c0,4.695,6.294,8.523,1.56,8.523H56.123c-4.71,0,1.575-3.828,1.575-8.523l0,0
	c0-4.742,3.836-8.554,8.539-8.554h15.486C86.433,44.914,90.277,48.727,90.277,53.469L90.277,53.469z"/>
<path style="fill:#093568;" d="M288.398,104.038c0,15.368,12.438,27.829,27.829,27.829c15.344,0,125.605-12.461,125.605-27.829
	c0-15.352-110.261-27.813-125.605-27.813C300.835,76.217,288.398,88.678,288.398,104.038z"/>
<path style="fill:#074584;" d="M316.227,76.217c-15.392,0-27.829,12.461-27.829,27.813"/>
<g>
	<path style="fill:#041D35;" d="M288.398,104.038c0,15.368-17.904,48.065-2.536,48.065s155.979-32.689,155.979-48.065"/>
	<path style="fill:#041D35;" d="M414.106,110.576c0,8.862,7.184,16.03,16.03,16.03l0,0c8.854,0,15.998-7.168,15.998-16.03V96.24
		c0-8.846-7.144-16.014-15.998-16.014l0,0c-8.846,0-16.03,7.168-16.03,16.014V110.576z"/>
</g>
<path style="fill:#093568;" d="M414.106,94.775c0,8.846,7.184,16.014,16.03,16.014l0,0c8.854,0,15.998-7.168,15.998-16.014V80.439
	c0-8.846-7.144-16.03-15.998-16.03l0,0c-8.846,0-16.03,7.184-16.03,16.03V94.775z"/>
<path style="fill:#041D35;" d="M445.645,80.431c-1.694,7.018-7.979,12.233-15.51,12.233c-7.538,0-13.8-5.215-15.525-12.233
	c1.725-7.003,7.987-12.233,15.525-12.233C437.665,68.206,443.951,73.437,445.645,80.431z"/>
<ellipse style="fill:#00B1FF;" cx="430.159" cy="67.671" rx="73.98" ry="11.705"/>
<ellipse style="fill:#0092FF;" cx="430.159" cy="67.671" rx="41.102" ry="11.705"/>
<path style="fill:#00CFFF;" d="M356.628,67.679c0,1.142,0.906,2.048,2.048,2.048h142.927c1.126,0,2.048-0.906,2.048-2.048l0,0
	c0-1.142-0.922-2.064-2.048-2.064H358.676C357.541,65.623,356.628,66.544,356.628,67.679L356.628,67.679z"/>
<path style="fill:#041D35;" d="M413.846,53.469c0,4.695-6.294,8.523-1.568,8.523H448c4.71,0-1.575-3.828-1.575-8.523l0,0
	c0-4.742-3.82-8.554-8.546-8.554H422.4C417.682,44.914,413.846,48.727,413.846,53.469L413.846,53.469z"/>
<path style="fill:#081E34;" d="M299.402,117.539h-15.265c-2.316,0-4.521,1.032-6.018,2.796c-2.135,2.521-11.902,6.262-26.065,6.262
	s-23.914-3.742-26.049-6.262c-1.497-1.772-3.71-2.796-6.026-2.796h-15.258c-4.356,0-7.877,3.521-7.877,7.877v16.14
	c0,2.001,0.772,3.938,2.135,5.404c3.009,3.182,7.168,4.506,11.209,5.782c7.696,2.434,8.531,3.434,8.531,6.294
	c0,6.412-6.081,19.952-14.809,32.91c-1.394,2.08-1.733,4.695-0.882,7.05c0.835,2.355,2.741,4.167,5.136,4.892
	c13.438,4.064,28.617,6.215,43.89,6.215s30.46-2.15,43.89-6.215c2.402-0.725,4.301-2.536,5.144-4.892
	c0.835-2.355,0.496-4.97-0.882-7.05c-8.72-12.958-14.809-26.49-14.809-32.91c0-2.859,0.835-3.86,8.523-6.294
	c4.033-1.276,8.192-2.599,11.209-5.782c1.371-1.465,2.135-3.403,2.135-5.404v-16.14C307.279,121.068,303.75,117.539,299.402,117.539
	z"/>
<g>
	<path style="fill:#0092FF;" d="M268.138,85.205c0,0.819-0.662,1.481-1.481,1.481h-29.2c-0.819,0-1.481-0.662-1.481-1.481l0,0
		c0-0.819,0.662-1.481,1.481-1.481h29.2C267.477,83.724,268.138,84.385,268.138,85.205L268.138,85.205z"/>
	<path style="fill:#0092FF;" d="M268.138,94.066c0,0.819-0.662,1.481-1.481,1.481h-29.2c-0.819,0-1.481-0.662-1.481-1.481l0,0
		c0-0.819,0.662-1.481,1.481-1.481h29.2C267.477,92.585,268.138,93.247,268.138,94.066L268.138,94.066z"/>
	<path style="fill:#0092FF;" d="M268.138,102.928c0,0.819-0.662,1.481-1.481,1.481h-29.2c-0.819,0-1.481-0.662-1.481-1.481l0,0
		c0-0.819,0.662-1.481,1.481-1.481h29.2C267.477,101.447,268.138,102.109,268.138,102.928L268.138,102.928z"/>
</g>
<polygon style="fill:#048934;" points="252.062,233.448 347.372,328.767 305.538,370.609 252.062,317.156 198.601,370.609 
	156.751,328.767 "/>
<polygon style="fill:#0AA53E;" points="252.062,295.495 305.538,348.948 336.542,317.936 252.062,233.448 167.582,317.936 
	198.601,348.948 "/>
<polygon style="fill:#FF9827;" points="252.062,357.51 287.846,393.295 272.14,409.009 252.062,388.939 231.983,409.009 
	216.277,393.295 "/>
<g>
	<polygon style="fill:#96CE1B;" points="252.062,407.725 287.846,443.51 272.14,459.225 252.062,439.154 231.983,459.225 
		216.277,443.51 	"/>
	<polygon style="fill:#96CE1B;" points="252.062,357.51 287.846,393.295 272.14,409.009 252.062,388.939 231.983,409.009 
		216.277,393.295 	"/>
</g>
<g>
	<polygon style="fill:#73B708;" points="252.062,388.939 272.14,409.009 280.631,400.518 252.062,371.948 223.492,400.518 
		231.983,409.009 	"/>
	<polygon style="fill:#73B708;" points="252.062,439.154 272.14,459.225 280.631,450.733 252.062,422.164 223.492,450.733 
		231.983,459.225 	"/>
</g>
<g>
</g>
<g>
</g>
<g>
</g>
<g>
</g>
<g>
</g>
<g>
</g>
<g>
</g>
<g>
</g>
<g>
</g>
<g>
</g>
<g>
</g>
<g>
</g>
<g>
</g>
<g>
</g>
<g>
</g>
</svg>
