<?xml version="1.0" encoding="iso-8859-1"?>
<!-- Generator: Adobe Illustrator 19.0.0, SVG Export Plug-In . SVG Version: 6.00 Build 0)  -->
<svg version="1.1" id="Layer_1" xmlns="http://www.w3.org/2000/svg" xmlns:xlink="http://www.w3.org/1999/xlink" x="0px" y="0px"
	 viewBox="0 0 504.123 504.123" style="enable-background:new 0 0 504.123 504.123;" xml:space="preserve">
<path style="fill:#00CFFF;" d="M92.633,177.499c-46.434,0-84.196-37.786-84.196-84.212S46.198,9.082,92.633,9.082
	s84.196,37.77,84.196,84.196S139.059,177.499,92.633,177.499z"/>
<path style="fill:#00B7FF;" d="M92.633,9.082c46.434,0,84.196,37.77,84.196,84.196s-37.77,84.22-84.196,84.22"/>
<path style="fill:#1791BC;" d="M92.633,17.503c41.858,0,75.792,33.926,75.792,75.784s-33.934,75.784-75.792,75.784
	c-41.85,0-75.784-33.926-75.784-75.784S50.775,17.503,92.633,17.503 M92.633,0.654c-51.074,0-92.625,41.551-92.625,92.633
	s41.543,92.633,92.625,92.633s92.633-41.551,92.633-92.633S143.707,0.654,92.633,0.654L92.633,0.654z"/>
<g>
	<path style="fill:none;stroke:#1791BC;stroke-linecap:round;stroke-linejoin:round;stroke-miterlimit:10;" d="M92.633,40.133
		c29.357,0,53.161,23.796,53.161,53.169"/>
	<path style="fill:none;stroke:#1791BC;stroke-linecap:round;stroke-linejoin:round;stroke-miterlimit:10;" d="M92.648,146.44
		c-29.373,0-53.169-23.796-53.169-53.153"/>
	<path style="fill:none;stroke:#1791BC;stroke-linecap:round;stroke-linejoin:round;stroke-miterlimit:10;" d="M92.633,61.393
		c17.605,0,31.894,14.273,31.894,31.894"/>
	<path style="fill:none;stroke:#1791BC;stroke-linecap:round;stroke-linejoin:round;stroke-miterlimit:10;" d="M92.648,125.18
		c-17.629,0-31.902-14.273-31.902-31.894"/>
</g>
<g>
	<circle style="fill:#093568;" cx="92.633" cy="93.286" r="18.944"/>
	<path style="fill:#093568;" d="M271.644,233.59c10.681,10.689,10.681,28.018,0,38.707c-10.681,10.689-28.026,10.689-38.715,0
		C222.247,261.608,79.344,101.376,90.033,90.679C100.706,79.99,260.962,222.901,271.644,233.59z"/>
</g>
<path style="fill:#041D35;" d="M90.041,90.687c10.665-10.689,170.921,132.214,181.61,142.911c10.689,10.697,10.681,28.018,0,38.707"
	/>
<path style="fill:#00CFFF;" d="M411.49,177.499c46.434,0,84.204-37.786,84.204-84.212S457.925,9.082,411.49,9.082
	s-84.204,37.77-84.204,84.204S365.064,177.499,411.49,177.499z"/>
<path style="fill:#00B7FF;" d="M411.49,9.082c-46.434,0-84.204,37.77-84.204,84.196s37.778,84.212,84.204,84.212"/>
<path style="fill:#1791BC;" d="M411.49,17.503c41.842,0,75.784,33.926,75.784,75.784s-33.942,75.784-75.784,75.784
	c-41.858,0-75.8-33.926-75.8-75.784S369.632,17.503,411.49,17.503 M411.49,0.654c-51.074,0-92.633,41.551-92.633,92.633
	s41.551,92.633,92.633,92.633s92.633-41.551,92.633-92.633S462.572,0.654,411.49,0.654L411.49,0.654z"/>
<g>
	<path style="fill:none;stroke:#1791BC;stroke-linecap:round;stroke-linejoin:round;stroke-miterlimit:10;" d="M411.49,40.133
		c-29.357,0-53.161,23.796-53.161,53.169"/>
	<path style="fill:none;stroke:#1791BC;stroke-linecap:round;stroke-linejoin:round;stroke-miterlimit:10;" d="M411.475,146.44
		c29.373,0,53.169-23.796,53.169-53.153"/>
	<path style="fill:none;stroke:#1791BC;stroke-linecap:round;stroke-linejoin:round;stroke-miterlimit:10;" d="M411.49,61.393
		c-17.605,0-31.894,14.273-31.894,31.894"/>
	<path style="fill:none;stroke:#1791BC;stroke-linecap:round;stroke-linejoin:round;stroke-miterlimit:10;" d="M411.475,125.18
		c17.629,0,31.902-14.273,31.902-31.894"/>
</g>
<g>
	<circle style="fill:#093568;" cx="411.49" cy="93.286" r="18.952"/>
	<path style="fill:#093568;" d="M232.48,233.59c-10.681,10.689-10.681,28.018,0,38.707c10.673,10.689,28.026,10.689,38.715,0
		c10.673-10.689,153.584-170.921,142.903-181.618C403.417,79.982,243.153,222.901,232.48,233.59z"/>
</g>
<path style="fill:#041D35;" d="M414.09,90.687c-10.681-10.689-170.937,132.214-181.618,142.911
	c-10.681,10.689-10.681,28.018,0,38.707"/>
<path style="fill:#00CFFF;" d="M411.483,326.625c46.427,0,84.204,37.786,84.204,84.212s-37.786,84.196-84.204,84.196
	c-46.434,0-84.204-37.77-84.204-84.196S365.056,326.625,411.483,326.625z"/>
<path style="fill:#00B7FF;" d="M411.483,495.041c-46.434,0-84.204-37.77-84.204-84.196s37.778-84.212,84.204-84.212"/>
<path style="fill:#1791BC;" d="M411.483,486.621c-41.858,0-75.792-33.926-75.792-75.784s33.934-75.784,75.792-75.784
	c41.85,0,75.792,33.926,75.792,75.784S453.341,486.621,411.483,486.621 M411.483,503.469c51.082,0,92.625-41.551,92.625-92.633
	s-41.535-92.633-92.625-92.633c-51.066,0-92.633,41.551-92.633,92.633S360.417,503.469,411.483,503.469L411.483,503.469z"/>
<g>
	<path style="fill:none;stroke:#1791BC;stroke-linecap:round;stroke-linejoin:round;stroke-miterlimit:10;" d="M411.483,463.99
		c-29.349,0-53.161-23.796-53.161-53.169"/>
	<path style="fill:none;stroke:#1791BC;stroke-linecap:round;stroke-linejoin:round;stroke-miterlimit:10;" d="M411.459,357.683
		c29.373,0,53.169,23.796,53.169,53.154"/>
	<path style="fill:none;stroke:#1791BC;stroke-linecap:round;stroke-linejoin:round;stroke-miterlimit:10;" d="M411.483,442.73
		c-17.597,0-31.894-14.273-31.894-31.894"/>
	<path style="fill:none;stroke:#1791BC;stroke-linecap:round;stroke-linejoin:round;stroke-miterlimit:10;" d="M411.459,378.943
		c17.636,0,31.909,14.273,31.909,31.894"/>
</g>
<g>
	<circle style="fill:#093568;" cx="411.483" cy="410.837" r="18.944"/>
	<path style="fill:#093568;" d="M232.48,270.533c-10.689-10.689-10.689-28.018,0-38.707c10.673-10.689,28.026-10.689,38.715,0
		c10.665,10.689,153.576,170.921,142.887,181.618C403.409,424.133,243.153,281.222,232.48,270.533z"/>
</g>
<path style="fill:#041D35;" d="M414.074,413.436c-10.665,10.689-170.921-132.214-181.602-142.911
	c-10.689-10.689-10.689-28.018,0-38.707"/>
<path style="fill:#00CFFF;" d="M92.625,326.625c-46.434,0-84.204,37.786-84.204,84.212s37.778,84.196,84.204,84.196
	s84.204-37.77,84.204-84.196S139.043,326.625,92.625,326.625z"/>
<path style="fill:#00B7FF;" d="M92.625,495.041c46.427,0,84.204-37.77,84.204-84.196s-37.786-84.212-84.204-84.212"/>
<path style="fill:#1791BC;" d="M92.625,486.621c-41.85,0-75.792-33.926-75.792-75.784s33.942-75.784,75.792-75.784
	c41.858,0,75.792,33.926,75.792,75.784S134.483,486.621,92.625,486.621 M92.625,503.469c51.082,0,92.633-41.551,92.633-92.633
	s-41.543-92.633-92.633-92.633C41.559,318.204,0,359.755,0,410.837S41.551,503.469,92.625,503.469L92.625,503.469z"/>
<g>
	<path style="fill:none;stroke:#1791BC;stroke-linecap:round;stroke-linejoin:round;stroke-miterlimit:10;" d="M92.625,463.99
		c29.365,0,53.161-23.796,53.161-53.169"/>
	<path style="fill:none;stroke:#1791BC;stroke-linecap:round;stroke-linejoin:round;stroke-miterlimit:10;" d="M92.64,357.683
		c-29.373,0-53.169,23.796-53.169,53.154"/>
	<path style="fill:none;stroke:#1791BC;stroke-linecap:round;stroke-linejoin:round;stroke-miterlimit:10;" d="M92.625,442.73
		c17.613,0,31.894-14.273,31.894-31.894"/>
	<path style="fill:none;stroke:#1791BC;stroke-linecap:round;stroke-linejoin:round;stroke-miterlimit:10;" d="M92.64,378.943
		c-17.629,0-31.902,14.273-31.902,31.894"/>
</g>
<g>
	<circle style="fill:#093568;" cx="92.625" cy="410.837" r="18.944"/>
	<path style="fill:#093568;" d="M271.644,270.533c10.673-10.689,10.673-28.018,0-38.707c-10.681-10.689-28.026-10.689-38.715,0
		C222.247,242.515,79.336,402.747,90.017,413.444C100.699,424.141,260.962,281.222,271.644,270.533z"/>
</g>
<g>
	<path style="fill:#041D35;" d="M90.025,413.436c10.681,10.689,170.937-132.214,181.626-142.911
		c10.673-10.689,10.673-28.018,0-38.707"/>
	<path style="fill:#041D35;" d="M325.167,252.062c0-26.238,6.262-48.719,15.179-58.203v-30.082h-28.467
		c-8.294,9.815-31.925,16.904-59.817,16.904c-27.892,0-51.523-7.081-59.817-16.904h-28.467v30.082
		c8.917,9.484,15.179,31.965,15.179,58.203c0,26.238-6.262,48.719-15.179,58.203v30.082h28.467
		c8.294-9.815,31.925-16.904,59.817-16.904c27.892,0,51.523,7.081,59.817,16.904h28.467v-30.082
		C331.429,300.78,325.167,278.3,325.167,252.062z"/>
</g>
<g>
	<path style="fill:#00B7FF;" d="M221.578,276.181c0,0.733-0.591,1.315-1.315,1.315h-18.377c-0.733,0-1.315-0.583-1.315-1.315l0,0
		c0-0.733,0.583-1.315,1.315-1.315h18.377C220.987,274.873,221.578,275.456,221.578,276.181L221.578,276.181z"/>
	<path style="fill:#00B7FF;" d="M221.578,288.658c0,0.733-0.591,1.315-1.315,1.315h-18.377c-0.733,0-1.315-0.583-1.315-1.315l0,0
		c0-0.733,0.583-1.315,1.315-1.315h18.377C220.987,287.342,221.578,287.925,221.578,288.658L221.578,288.658z"/>
	<path style="fill:#00B7FF;" d="M221.578,301.127c0,0.733-0.591,1.315-1.315,1.315h-18.377c-0.733,0-1.315-0.583-1.315-1.315l0,0
		c0-0.733,0.583-1.315,1.315-1.315h18.377C220.987,299.811,221.578,300.394,221.578,301.127L221.578,301.127z"/>
	<circle style="fill:#00B7FF;" cx="285.42" cy="219.892" r="14.438"/>
</g>
<g>
</g>
<g>
</g>
<g>
</g>
<g>
</g>
<g>
</g>
<g>
</g>
<g>
</g>
<g>
</g>
<g>
</g>
<g>
</g>
<g>
</g>
<g>
</g>
<g>
</g>
<g>
</g>
<g>
</g>
</svg>
