<?xml version="1.0" encoding="iso-8859-1"?>
<!-- Generator: Adobe Illustrator 19.0.0, SVG Export Plug-In . SVG Version: 6.00 Build 0)  -->
<svg version="1.1" id="Layer_1" xmlns="http://www.w3.org/2000/svg" xmlns:xlink="http://www.w3.org/1999/xlink" x="0px" y="0px"
	 viewBox="0 0 504.125 504.125" style="enable-background:new 0 0 504.125 504.125;" xml:space="preserve">
<g>
	<path style="fill:#39E3FF;" d="M198.65,87.024c0.197,0.788,0.583,1.465,1.126,2.001c0.969,0.985,2.434,1.449,3.875,1.111
		c10.461-2.442,21.244-3.915,32.028-4.38c2.292-0.118,4.08-2.048,3.97-4.34c-0.11-2.269-2.032-4.057-4.34-3.954
		c-11.28,0.488-22.583,2.032-33.54,4.584C199.54,82.566,198.138,84.795,198.65,87.024z"/>
	<path style="fill:#39E3FF;" d="M175.082,94.862c-0.89-2.119-3.371-3.064-5.443-2.135c-10.35,4.553-20.322,10.09-29.617,16.447
		c-1.89,1.292-2.371,3.868-1.095,5.758c0.158,0.213,0.307,0.41,0.488,0.599c1.386,1.378,3.6,1.615,5.278,0.48
		c8.862-6.073,18.385-11.351,28.262-15.707C175.067,99.391,176.004,96.941,175.082,94.862z"/>
	<path style="fill:#39E3FF;" d="M119.676,130.907c-1.615-1.615-4.34-1.52-5.971,0.102c-7.94,7.948-15.171,16.612-21.48,25.781
		c-1.15,1.678-0.906,3.883,0.48,5.278c0.165,0.165,0.386,0.339,0.583,0.488c1.89,1.292,4.474,0.819,5.766-1.063
		c6.034-8.751,12.926-17.046,20.724-24.836C121.417,135.034,121.291,132.521,119.676,130.907z"/>
	<path style="fill:#39E3FF;" d="M328.107,107.189c0.26,0.26,0.567,0.488,0.89,0.677c9.413,5.278,18.369,11.445,26.616,18.369
		c1.772,1.481,4.372,1.245,5.845-0.52c1.481-1.749,1.213-4.45-0.504-5.821c-8.665-7.263-18.03-13.737-27.892-19.251
		c-1.985-1.119-4.506-0.402-5.632,1.591C326.493,103.889,326.831,105.905,328.107,107.189z"/>
	<path style="fill:#39E3FF;" d="M265.651,86.118c0.614,0.614,1.418,1.04,2.355,1.182c10.665,1.497,21.244,3.994,31.46,7.436
		c2.166,0.74,4.521-0.449,5.262-2.607c0.725-2.174-0.465-4.521-2.615-5.254c-10.705-3.6-21.803-6.215-32.957-7.79
		c-2.276-0.315-4.356,1.26-4.695,3.521C264.281,83.96,264.753,85.22,265.651,86.118z"/>
	<path style="fill:#39E3FF;" d="M387.602,360.164c-1.142,1.678-0.906,3.899,0.48,5.293c0.181,0.173,0.37,0.331,0.567,0.48
		c1.89,1.3,4.474,0.827,5.782-1.048c6.412-9.311,11.997-19.243,16.581-29.531c0.937-2.095-0.016-4.561-2.095-5.474
		c-2.095-0.937-4.553,0-5.474,2.103C399.063,341.803,393.722,351.279,387.602,360.164z"/>
	<path style="fill:#39E3FF;" d="M409.665,205.485c3.387,10.232,5.829,20.842,7.278,31.516c0.142,0.929,0.567,1.757,1.182,2.379
		c0.89,0.874,2.166,1.355,3.489,1.174c2.261-0.315,3.86-2.41,3.552-4.679c-1.52-11.177-4.096-22.292-7.648-32.989
		c-0.709-2.206-3.064-3.387-5.23-2.647S408.94,203.319,409.665,205.485z"/>
	<path style="fill:#39E3FF;" d="M378.449,149.173c6.892,8.326,13.028,17.313,18.243,26.711c0.165,0.347,0.418,0.662,0.677,0.914
		c1.276,1.276,3.293,1.615,4.955,0.701c2.001-1.119,2.71-3.631,1.599-5.64c-5.443-9.838-11.878-19.259-19.094-27.979
		c-1.52-1.717-4.08-1.993-5.829-0.536C377.236,144.801,376.984,147.401,378.449,149.173z"/>
	<path style="fill:#39E3FF;" d="M413.785,301.355c-0.339,1.449,0.142,2.899,1.126,3.883c0.504,0.52,1.182,0.914,1.969,1.111
		c2.213,0.504,4.443-0.859,4.986-3.088c2.599-10.996,4.198-22.276,4.758-33.532c0.095-2.284-1.662-4.23-3.938-4.348
		c-2.292-0.11-4.23,1.654-4.34,3.931C417.818,280.08,416.282,290.863,413.785,301.355z"/>
	<path style="fill:#39E3FF;" d="M187.646,426.772c-10.248-3.434-20.196-7.83-29.57-13.076c-2.001-1.119-4.537-0.418-5.648,1.591
		c-0.922,1.662-0.599,3.671,0.677,4.955c0.276,0.268,0.583,0.496,0.906,0.685c9.846,5.506,20.275,10.114,30.988,13.698
		c2.166,0.725,4.521-0.449,5.246-2.615C190.986,429.836,189.82,427.496,187.646,426.772z"/>
	<path style="fill:#39E3FF;" d="M319.6,423.093c-0.89-2.103-3.371-3.056-5.443-2.119c-9.862,4.356-20.196,7.79-30.689,10.248
		c-2.229,0.512-3.615,2.733-3.096,4.97c0.181,0.788,0.583,1.457,1.111,1.977c0.985,0.985,2.434,1.465,3.875,1.119
		c10.988-2.56,21.803-6.168,32.122-10.728C319.584,427.63,320.522,425.188,319.6,423.093z"/>
	<path style="fill:#39E3FF;" d="M83.261,189.708c0.922-2.095-0.032-4.537-2.111-5.467c-2.095-0.937-4.537,0.024-5.459,2.111
		c-4.584,10.303-8.2,21.102-10.784,32.098c-0.354,1.457,0.11,2.907,1.095,3.883c0.52,0.528,1.197,0.914,1.985,1.103
		c2.213,0.52,4.458-0.859,4.986-3.088C75.447,209.849,78.897,199.546,83.261,189.708z"/>
	<path style="fill:#39E3FF;" d="M373.124,384.536c-1.631-1.615-4.261-1.607-5.86,0.016c-7.68,7.664-16.03,14.612-24.86,20.661
		c-1.89,1.308-2.387,3.875-1.095,5.766c0.165,0.213,0.323,0.417,0.488,0.583c1.386,1.386,3.616,1.638,5.278,0.488
		c9.263-6.349,18.015-13.619,26.049-21.646C374.739,388.789,374.739,386.158,373.124,384.536z"/>
	<path style="fill:#39E3FF;" d="M251.433,435.657c-10.768,0.488-21.646-0.008-32.327-1.505c-2.261-0.299-4.356,1.276-4.679,3.537
		c-0.181,1.339,0.307,2.623,1.166,3.505c0.63,0.614,1.449,1.048,2.371,1.166c11.185,1.56,22.552,2.079,33.847,1.568
		c2.276-0.102,4.049-2.048,3.954-4.332C255.663,437.319,253.726,435.547,251.433,435.657z"/>
	<path style="fill:#39E3FF;" d="M68.476,252.377c0.095-2.292-1.662-4.222-3.938-4.34c-2.292-0.11-4.246,1.654-4.356,3.954
		c-0.504,11.296,0,22.678,1.52,33.847c0.142,0.914,0.551,1.749,1.182,2.363c0.859,0.874,2.15,1.355,3.489,1.166
		c2.276-0.299,3.844-2.402,3.537-4.671C68.46,274.038,67.988,263.16,68.476,252.377z"/>
	<path style="fill:#39E3FF;" d="M131.436,395.366c-4.049-3.363-7.971-6.94-11.674-10.65c-3.891-4.261-7.696-8.034-11.201-12.257
		c-1.465-1.67-4.064-2.001-5.829-0.536c-1.757,1.465-2.016,4.072-0.536,5.837c3.663,4.427,7.924,8.68,11.705,12.824
		c3.875,3.883,8.003,7.633,12.217,11.154c1.757,1.449,4.387,1.221,5.845-0.536C133.421,399.439,133.153,396.847,131.436,395.366z"/>
	<path style="fill:#39E3FF;" d="M90.311,345.805c-5.246-9.405-9.633-19.369-13.044-29.601c-0.725-2.143-3.08-3.34-5.246-2.631
		c-2.15,0.74-3.34,3.088-2.615,5.254c3.568,10.72,8.168,21.134,13.659,31.011c0.181,0.347,0.417,0.654,0.677,0.914
		c1.276,1.276,3.293,1.615,4.939,0.693C90.697,350.334,91.406,347.798,90.311,345.805z"/>
</g>
<path style="fill:#0092FF;" d="M415.62,88.505c-94.956-94.956-249.462-94.956-344.403,0c-94.956,94.956-94.956,249.454,0,344.403
	c94.941,94.956,249.446,94.956,344.403,0C510.568,337.959,510.568,183.454,415.62,88.505z M82.938,421.195
	c-88.489-88.497-88.489-232.487,0-320.961c88.474-88.481,232.464-88.489,320.953,0c88.489,88.481,88.474,232.472,0,320.953
	S171.435,509.676,82.938,421.195z"/>
<path style="fill:#DD4400;" d="M248.322,262.01c-1.709,1.717-4.49,1.717-6.199,0l0,0c-1.725-1.725-1.725-4.49,0-6.207L495.067,2.844
	c1.725-1.717,4.49-1.717,6.215,0l0,0c1.709,1.717,1.725,4.49,0,6.207L248.322,262.01z"/>
<circle style="fill:#FF7C24;" cx="243.415" cy="260.71" r="37.313"/>
<circle style="fill:#DD4400;" cx="243.415" cy="260.71" r="20.496"/>
<circle style="fill:#FF7C24;" cx="387.988" cy="116.137" r="37.313"/>
<g>
	<circle style="fill:#DD4400;" cx="387.988" cy="116.137" r="20.496"/>
	<polygon style="fill:#DD4400;" points="504.125,0 504.125,62.913 476.493,62.921 476.493,27.632 441.204,27.632 441.204,0 	"/>
</g>
<g>
</g>
<g>
</g>
<g>
</g>
<g>
</g>
<g>
</g>
<g>
</g>
<g>
</g>
<g>
</g>
<g>
</g>
<g>
</g>
<g>
</g>
<g>
</g>
<g>
</g>
<g>
</g>
<g>
</g>
</svg>
