<?xml version="1.0" encoding="iso-8859-1"?>
<!-- Generator: Adobe Illustrator 19.0.0, SVG Export Plug-In . SVG Version: 6.00 Build 0)  -->
<svg version="1.1" id="Layer_1" xmlns="http://www.w3.org/2000/svg" xmlns:xlink="http://www.w3.org/1999/xlink" x="0px" y="0px"
	 viewBox="0 0 504.123 504.123" style="enable-background:new 0 0 504.123 504.123;" xml:space="preserve">
<path style="fill:#003E7C;" d="M252.062,494.371c-118.359,0-244.153-26.789-244.153-76.461c0-49.664,125.794-76.453,244.153-76.453
	c118.367,0,244.145,26.789,244.145,76.453C496.207,467.574,370.428,494.371,252.062,494.371z"/>
<g>
	<path style="fill:#34B2EA;" d="M252.062,349.365c130.465,0,236.237,30.689,236.237,68.545c0,37.864-105.771,68.553-236.237,68.553
		c-130.473,0-236.245-30.688-236.245-68.553C15.817,380.054,121.588,349.365,252.062,349.365 M252.062,333.548
		c-64.551,0-125.44,7.357-171.449,20.708C27.12,369.766,0,391.184,0,417.91c0,26.734,27.12,48.144,80.612,63.661
		c46.009,13.351,106.89,20.708,171.449,20.708s125.44-7.357,171.449-20.708c53.492-15.518,80.612-36.927,80.612-63.661
		c0-26.726-27.12-48.136-80.612-63.653C377.502,340.897,316.613,333.548,252.062,333.548L252.062,333.548z"/>
	<path style="fill:#34B2EA;" d="M252.062,377.045c84.173,0,152.434,15.927,152.434,35.604c0,19.645-68.261,35.596-152.434,35.596
		c-84.189,0-152.442-15.943-152.442-35.596C99.619,392.98,167.873,377.045,252.062,377.045 M252.062,369.136
		c-41.307,0-80.234,3.773-109.584,10.634c-34.154,7.971-50.759,18.723-50.759,32.878c0,14.139,16.605,24.883,50.759,32.863
		c29.373,6.861,68.277,10.642,109.584,10.642c41.291,0,80.203-3.773,109.584-10.642c34.154-7.979,50.759-18.723,50.759-32.863
		c0-14.155-16.605-24.907-50.759-32.878C332.28,372.917,293.368,369.136,252.062,369.136L252.062,369.136z"/>
	<path style="fill:#34B2EA;" d="M252.062,398.761c31.248,0,56.572,5.916,56.572,13.217c0,7.294-25.324,13.21-56.572,13.21
		c-31.256,0-56.572-5.916-56.572-13.21C195.489,404.677,220.806,398.761,252.062,398.761 M252.062,395.831
		c-15.336,0-29.783,1.402-40.676,3.946c-12.674,2.954-18.842,6.955-18.842,12.201c0,5.254,6.16,9.232,18.842,12.209
		c10.894,2.528,25.34,3.938,40.676,3.938c15.321,0,29.767-1.41,40.676-3.938c12.666-2.977,18.834-6.955,18.834-12.209
		c0-5.246-6.16-9.247-18.834-12.201C281.836,397.233,267.39,395.831,252.062,395.831L252.062,395.831z"/>
</g>
<path style="fill:#FF7C24;" d="M365.245,94.153c0,50.964-62.212,203.729-113.191,203.729c-50.972,0-113.184-152.773-113.184-203.729
	c0-50.987,62.212-92.31,113.184-92.31C303.033,1.843,365.245,43.166,365.245,94.153z"/>
<path style="fill:#EA5706;" d="M252.054,1.843c50.979,0,113.191,41.322,113.191,92.31c0,50.964-62.212,203.729-113.191,203.729"/>
<circle style="fill:#08375E;" cx="252.062" cy="99.651" r="57.769"/>
<path style="fill:#032135;" d="M252.062,41.882c31.909,0,57.769,25.86,57.769,57.769c0,31.902-25.86,57.761-57.769,57.761"/>
<g>
	<circle style="fill:#EA5706;" cx="252.062" cy="347.112" r="17.235"/>
	<circle style="fill:#EA5706;" cx="252.062" cy="395.611" r="10.09"/>
</g>
<g>
</g>
<g>
</g>
<g>
</g>
<g>
</g>
<g>
</g>
<g>
</g>
<g>
</g>
<g>
</g>
<g>
</g>
<g>
</g>
<g>
</g>
<g>
</g>
<g>
</g>
<g>
</g>
<g>
</g>
</svg>
