<?xml version="1.0" encoding="iso-8859-1"?>
<!-- Generator: Adobe Illustrator 19.0.0, SVG Export Plug-In . SVG Version: 6.00 Build 0)  -->
<svg version="1.1" id="Layer_1" xmlns="http://www.w3.org/2000/svg" xmlns:xlink="http://www.w3.org/1999/xlink" x="0px" y="0px"
	 viewBox="0 0 504.123 504.123" style="enable-background:new 0 0 504.123 504.123;" xml:space="preserve">
<polygon style="fill:#002A54;" points="143.317,7.365 134.164,0 120.946,0 111.612,9.342 134.51,215.032 143.868,224.382 
	243.015,281.206 252.152,213.063 "/>
<polygon style="fill:#003E7C;" points="134.164,0 120.946,0 111.612,9.342 134.51,215.032 134.841,215.363 251.845,215.363 
	252.152,213.063 143.317,7.365 "/>
<polyline style="fill:#00559B;" points="143.317,7.365 134.164,0 120.946,0 111.612,9.342 134.51,215.032 134.841,215.363 "/>
<g>
	<polyline style="fill:#006AB2;" points="143.317,7.365 134.164,0 120.946,0 111.612,9.342 	"/>
	<circle style="fill:#006AB2;" cx="172.28" cy="126.456" r="4.348"/>
	<circle style="fill:#006AB2;" cx="172.28" cy="152.852" r="4.348"/>
	<circle style="fill:#006AB2;" cx="172.28" cy="179.271" r="4.348"/>
</g>
<polygon style="fill:#002A54;" points="360.799,496.758 369.944,504.123 383.169,504.123 392.503,494.781 369.605,289.091 
	360.255,279.741 261.092,222.917 251.963,291.06 "/>
<polygon style="fill:#003E7C;" points="369.944,504.123 383.169,504.123 392.503,494.781 369.605,289.091 369.274,288.76 
	252.278,288.76 251.963,291.06 360.799,496.758 "/>
<polyline style="fill:#00559B;" points="360.799,496.758 369.944,504.123 383.169,504.123 392.503,494.781 369.605,289.091 
	369.274,288.76 "/>
<g>
	<polyline style="fill:#006AB2;" points="360.799,496.758 369.944,504.123 383.169,504.123 392.503,494.781 	"/>
	<circle style="fill:#006AB2;" cx="331.835" cy="377.698" r="4.348"/>
	<circle style="fill:#006AB2;" cx="331.835" cy="351.232" r="4.348"/>
	<circle style="fill:#006AB2;" cx="331.835" cy="324.852" r="4.348"/>
</g>
<circle style="fill:#093568;" cx="252.058" cy="252.062" r="42.11"/>
<path style="fill:#081E34;" d="M252.058,209.952c23.253,0,42.11,18.857,42.11,42.11s-18.857,42.11-42.11,42.11"/>
<path style="fill:#EA5706;" d="M252.058,306.208c-29.861,0-54.146-24.292-54.146-54.146s24.285-54.146,54.146-54.146
	s54.146,24.292,54.146,54.146S281.919,306.208,252.058,306.208z M252.058,221.987c-16.581,0-30.074,13.493-30.074,30.074
	s13.493,30.074,30.074,30.074s30.074-13.493,30.074-30.074S268.639,221.987,252.058,221.987z"/>
<path style="fill:#E88707;" d="M252.058,296.432c-24.466,0-44.371-19.905-44.371-44.371s19.897-44.371,44.371-44.371
	s44.371,19.905,44.371,44.371S276.523,296.432,252.058,296.432z M252.058,227.407c-13.588,0-24.647,11.059-24.647,24.655
	s11.059,24.655,24.647,24.655c13.596,0,24.655-11.059,24.655-24.655C276.712,238.466,265.653,227.407,252.058,227.407z"/>
<g>
	<path style="fill:#8DF4FF;" d="M252.058,486.676c-129.371,0-234.614-105.244-234.614-234.614c0-6.648,5.388-12.028,12.028-12.028
		S41.5,245.421,41.5,252.062c0,116.098,94.452,210.55,210.55,210.55c6.648,0,12.028,5.396,12.028,12.028
		C264.086,481.296,258.706,486.676,252.058,486.676z"/>
	<path style="fill:#8DF4FF;" d="M474.644,264.09c-6.64,0-12.028-5.388-12.028-12.028c0-116.098-94.452-210.55-210.55-210.55
		c-6.648,0-12.028-5.396-12.028-12.028c0-6.648,5.388-12.028,12.028-12.028c129.371,0,234.614,105.244,234.614,234.614
		C486.672,258.71,481.292,264.09,474.644,264.09z"/>
</g>
<g>
	<path style="fill:#39E3FF;" d="M252.058,423.519c-94.539,0-171.457-76.91-171.457-171.457c0-4.852,3.938-8.791,8.791-8.791
		c4.852,0,8.783,3.938,8.783,8.791c0,84.842,69.041,153.868,153.876,153.868c4.852,0,8.791,3.938,8.791,8.791
		C260.848,419.572,256.91,423.519,252.058,423.519z"/>
	<path style="fill:#39E3FF;" d="M414.716,260.86c-4.86,0-8.799-3.946-8.799-8.799c0-84.842-69.033-153.868-153.86-153.868
		c-4.86,0-8.799-3.938-8.799-8.783c0-4.852,3.938-8.799,8.799-8.799c94.539,0,171.457,76.91,171.457,171.457
		C423.515,256.914,419.576,260.86,414.716,260.86z"/>
</g>
<g>
	<path style="fill:#00CFFF;" d="M252.058,368.372c-64.134,0-116.311-52.169-116.311-116.311c0-3.3,2.662-5.963,5.971-5.963
		c3.293,0,5.955,2.662,5.955,5.963c0,57.565,46.836,104.377,104.385,104.377c3.293,0,5.971,2.67,5.971,5.971
		C258.028,365.702,255.35,368.372,252.058,368.372z"/>
	<path style="fill:#00CFFF;" d="M362.405,258.024c-3.293,0-5.963-2.662-5.963-5.963c0-57.549-46.828-104.377-104.385-104.377
		c-3.293,0-5.963-2.67-5.963-5.971c0-3.293,2.67-5.963,5.963-5.963c64.134,0,116.311,52.169,116.311,116.311
		C368.368,255.362,365.706,258.024,362.405,258.024z"/>
	<polygon style="fill:#00CFFF;" points="442.553,334.084 403.807,295.329 420.813,278.315 442.553,300.056 464.293,278.315 
		481.308,295.329 	"/>
	<polygon style="fill:#00CFFF;" points="61.546,170.039 100.301,208.794 83.295,225.808 61.546,204.067 39.822,225.808 
		22.808,208.794 	"/>
</g>
<g>
</g>
<g>
</g>
<g>
</g>
<g>
</g>
<g>
</g>
<g>
</g>
<g>
</g>
<g>
</g>
<g>
</g>
<g>
</g>
<g>
</g>
<g>
</g>
<g>
</g>
<g>
</g>
<g>
</g>
</svg>
