<?xml version="1.0" encoding="iso-8859-1"?>
<!-- Generator: Adobe Illustrator 19.0.0, SVG Export Plug-In . SVG Version: 6.00 Build 0)  -->
<svg version="1.1" id="Layer_1" xmlns="http://www.w3.org/2000/svg" xmlns:xlink="http://www.w3.org/1999/xlink" x="0px" y="0px"
	 viewBox="0 0 504.123 504.123" style="enable-background:new 0 0 504.123 504.123;" xml:space="preserve">
<path style="fill:#0258A0;" d="M252.062,488.369c-130.3,0-236.308-106.008-236.308-236.308S121.761,15.754,252.062,15.754
	s236.308,106.008,236.308,236.308S382.362,488.369,252.062,488.369z"/>
<path style="fill:#003E7C;" d="M252.062,15.754c130.3,0,236.308,106.008,236.308,236.308S382.362,488.369,252.062,488.369"/>
<path style="fill:#229BFF;" d="M252.062,31.508c121.612,0,220.554,98.942,220.554,220.554s-98.942,220.554-220.554,220.554
	S31.508,373.673,31.508,252.062S130.45,31.508,252.062,31.508 M252.062,0C112.853,0,0,112.845,0,252.062
	s112.853,252.062,252.062,252.062s252.062-112.845,252.062-252.062S391.27,0,252.062,0L252.062,0z"/>
<circle style="fill:#04345B;" cx="252.062" cy="246.815" r="143.124"/>
<path style="fill:#229BFF;" d="M252.062,393.846c-81.069,0-147.031-65.961-147.031-147.031S170.992,99.785,252.062,99.785
	s147.031,65.961,147.031,147.031S333.131,393.846,252.062,393.846z M252.062,107.662c-76.729,0-139.154,62.425-139.154,139.154
	s62.425,139.154,139.154,139.154s139.154-62.425,139.154-139.154S328.791,107.662,252.062,107.662z"/>
<circle style="fill:#031928;" cx="252.062" cy="246.823" r="76.477"/>
<path style="fill:#229BFF;" d="M252.062,327.223c-44.339,0-80.416-36.068-80.416-80.4c0-44.339,36.076-80.416,80.416-80.416
	s80.416,36.076,80.416,80.416C332.477,291.155,296.401,327.223,252.062,327.223z M252.062,174.285
	c-39.999,0-72.539,32.54-72.539,72.539c0,39.991,32.54,72.523,72.539,72.523s72.539-32.532,72.539-72.523
	C324.6,206.824,292.061,174.285,252.062,174.285z"/>
<circle style="fill:#FFB127;" cx="355.816" cy="150.812" r="20.181"/>
<path style="fill:#FF7C24;" d="M355.816,130.623c11.154,0,20.181,9.035,20.181,20.181s-9.027,20.181-20.181,20.181"/>
<circle style="fill:#FFB127;" cx="358.479" cy="214.819" r="10.335"/>
<path style="fill:#FF7C24;" d="M358.432,204.477c5.719,0,10.335,4.632,10.335,10.342c0,5.695-4.624,10.327-10.335,10.327"/>
<g>
	<path style="fill:#6ED6FF;" d="M255.874,113.853c0,2.111-1.709,3.812-3.812,3.812l0,0c-2.111,0-3.812-1.709-3.812-3.812V89.316
		c0-2.111,1.709-3.812,3.812-3.812l0,0c2.111,0,3.812,1.709,3.812,3.812V113.853z"/>
	<path style="fill:#6ED6FF;" d="M255.874,404.315c0,2.111-1.709,3.812-3.812,3.812l0,0c-2.111,0-3.812-1.709-3.812-3.812v-24.537
		c0-2.111,1.709-3.812,3.812-3.812l0,0c2.111,0,3.812,1.709,3.812,3.812V404.315z"/>
	<path style="fill:#6ED6FF;" d="M385.024,250.628c-2.111,0-3.812-1.709-3.812-3.812l0,0c0-2.111,1.709-3.812,3.812-3.812h24.537
		c2.111,0,3.812,1.709,3.812,3.812l0,0c0,2.111-1.709,3.812-3.812,3.812H385.024z"/>
	<path style="fill:#6ED6FF;" d="M94.562,250.628c-2.119,0-3.82-1.709-3.82-3.812l0,0c0-2.111,1.709-3.812,3.82-3.812h24.529
		c2.111,0,3.812,1.709,3.812,3.812l0,0c0,2.111-1.709,3.812-3.812,3.812H94.562z"/>
</g>
<g>
	<circle style="fill:#229BFF;" cx="252.062" cy="129.56" r="2.631"/>
	<circle style="fill:#229BFF;" cx="252.062" cy="143.659" r="2.631"/>
	<circle style="fill:#229BFF;" cx="252.062" cy="157.759" r="2.631"/>
	<circle style="fill:#229BFF;" cx="252.062" cy="337.054" r="2.631"/>
	<circle style="fill:#229BFF;" cx="252.062" cy="351.153" r="2.631"/>
	<circle style="fill:#229BFF;" cx="252.062" cy="365.277" r="2.631"/>
	<circle style="fill:#229BFF;" cx="335.399" cy="164.084" r="2.631"/>
	<circle style="fill:#229BFF;" cx="325.427" cy="174.048" r="2.631"/>
	<circle style="fill:#229BFF;" cx="315.455" cy="184.021" r="2.631"/>
	<circle style="fill:#229BFF;" cx="188.66" cy="310.808" r="2.631"/>
	<circle style="fill:#229BFF;" cx="178.727" cy="320.827" r="2.631"/>
	<circle style="fill:#229BFF;" cx="168.724" cy="330.752" r="2.631"/>
	<circle style="fill:#229BFF;" cx="369.9" cy="247.414" r="2.623"/>
	<circle style="fill:#229BFF;" cx="355.816" cy="247.414" r="2.623"/>
	<circle style="fill:#229BFF;" cx="341.717" cy="247.414" r="2.623"/>
	<circle style="fill:#229BFF;" cx="162.422" cy="247.406" r="2.631"/>
	<circle style="fill:#229BFF;" cx="148.299" cy="247.414" r="2.631"/>
	<circle style="fill:#229BFF;" cx="134.199" cy="247.414" r="2.631"/>
	<circle style="fill:#229BFF;" cx="335.399" cy="330.744" r="2.631"/>
	<circle style="fill:#229BFF;" cx="325.427" cy="320.748" r="2.631"/>
	<circle style="fill:#229BFF;" cx="315.463" cy="310.808" r="2.631"/>
	<path style="fill:#229BFF;" d="M186.817,185.872c-1.04-1.016-1.032-2.694,0-3.718c1.016-1.024,2.694-1.032,3.71-0.008
		c1.048,1.032,1.032,2.702,0,3.726C189.503,186.904,187.833,186.912,186.817,185.872z"/>
	<circle style="fill:#229BFF;" cx="178.727" cy="174.041" r="2.631"/>
	<circle style="fill:#229BFF;" cx="168.724" cy="164.068" r="2.631"/>
</g>
<g>
	<polygon style="fill:#04345B;" points="264.46,234.394 252.062,198.601 239.655,234.401 252.069,230.101 	"/>
	<polygon style="fill:#04345B;" points="264.476,259.214 252.069,263.515 239.648,259.206 252.062,295.03 	"/>
	<polygon style="fill:#04345B;" points="264.476,259.214 300.284,246.808 264.46,234.394 268.768,246.816 	"/>
	<polygon style="fill:#04345B;" points="239.655,234.401 203.855,246.808 239.648,259.206 235.355,246.816 	"/>
</g>
<g>
</g>
<g>
</g>
<g>
</g>
<g>
</g>
<g>
</g>
<g>
</g>
<g>
</g>
<g>
</g>
<g>
</g>
<g>
</g>
<g>
</g>
<g>
</g>
<g>
</g>
<g>
</g>
<g>
</g>
</svg>
