<?xml version="1.0" encoding="iso-8859-1"?>
<!-- Generator: Adobe Illustrator 19.0.0, SVG Export Plug-In . SVG Version: 6.00 Build 0)  -->
<svg version="1.1" id="Layer_1" xmlns="http://www.w3.org/2000/svg" xmlns:xlink="http://www.w3.org/1999/xlink" x="0px" y="0px"
	 viewBox="0 0 500.185 500.185" style="enable-background:new 0 0 500.185 500.185;" xml:space="preserve">
<path style="fill:#08375E;" d="M259.935,210.708c0,5.435-4.411,9.846-9.846,9.846l0,0c-5.435,0-9.846-4.411-9.846-9.846V33.477
	c0-5.435,4.411-9.846,9.846-9.846l0,0c5.435,0,9.846,4.411,9.846,9.846V210.708z"/>
<g>
	<path style="fill:#041D35;" d="M302.596,212.677c0,8.696-7.05,15.754-15.754,15.754h-73.515c-8.696,0-15.754-7.058-15.754-15.754
		v-43.323c0-8.696,7.058-15.754,15.754-15.754h73.515c8.704,0,15.754,7.058,15.754,15.754V212.677z"/>
	<path style="fill:#041D35;" d="M429.871,461.43c0,21.402-17.353,38.754-38.754,38.754H109.06
		c-21.402,0-38.754-17.353-38.754-38.754V215.985c0-21.402,17.353-38.754,38.754-38.754h282.065
		c21.402,0,38.754,17.353,38.754,38.754V461.43H429.871z"/>
</g>
<path style="fill:#08375E;" d="M391.117,177.231H109.06c-21.402,0-38.754,17.353-38.754,38.754v99.722
	c0,21.402,17.353,38.754,38.754,38.754h282.065c21.402,0,38.754-17.353,38.754-38.754v-99.722
	C429.871,194.584,412.518,177.231,391.117,177.231z"/>
<path style="fill:#074A77;" d="M109.06,177.231c-10.122,0-19.267,3.978-26.167,10.335c6.9,6.365,16.045,10.335,26.167,10.335
	h282.065c10.122,0,19.267-3.978,26.167-10.335c-6.9-6.365-16.045-10.335-26.167-10.335H109.06z"/>
<circle style="fill:#041D35;" cx="345.596" cy="278.528" r="56.367"/>
<path style="fill:#1675B5;" d="M345.596,338.873c-33.264,0-60.306-27.057-60.306-60.306c0-33.249,27.049-60.306,60.306-60.306
	s60.306,27.057,60.306,60.306C405.902,311.816,378.852,338.873,345.596,338.873z M345.596,226.131
	c-28.908,0-52.429,23.52-52.429,52.429s23.52,52.429,52.429,52.429s52.429-23.52,52.429-52.429S374.504,226.131,345.596,226.131z"/>
<path style="fill:#E88C07;" d="M374.197,266.925h-16.959v-16.967c0-2.954-2.379-5.325-5.333-5.325h-12.635
	c-2.938,0-5.325,2.371-5.325,5.325v16.967h-16.967c-2.938,0-5.309,2.371-5.309,5.325v12.642c0,2.93,2.371,5.325,5.309,5.325h16.967
	v16.959c0,2.938,2.387,5.317,5.325,5.317h12.635c2.954,0,5.333-2.379,5.333-5.317v-16.959h16.959c2.954,0,5.325-2.395,5.325-5.325
	V272.25C379.522,269.296,377.151,266.925,374.197,266.925z"/>
<path style="fill:#EA5706;" d="M374.197,273.944h-16.959v-7.026v-9.941c0-2.954-2.379-5.325-5.333-5.325h-12.635
	c-2.938,0-5.325,2.371-5.325,5.325v9.941v7.026h-16.967c-2.938,0-5.309,2.379-5.309,5.333v5.616c0,2.93,2.371,5.325,5.309,5.325
	h16.967v7.034v9.933c0,2.938,2.387,5.317,5.325,5.317h12.635c2.954,0,5.333-2.379,5.333-5.317v-9.933v-7.034h16.959
	c2.954,0,5.325-2.395,5.325-5.325v-5.616C379.522,276.322,377.151,273.944,374.197,273.944z"/>
<g>
	<circle style="fill:#175077;" cx="345.596" cy="236.142" r="2.458"/>
	<circle style="fill:#175077;" cx="345.596" cy="320.977" r="2.458"/>
	<circle style="fill:#175077;" cx="388.013" cy="278.528" r="2.458"/>
	<circle style="fill:#175077;" cx="303.179" cy="278.528" r="2.458"/>
	<circle style="fill:#175077;" cx="375.568" cy="248.596" r="2.458"/>
	<circle style="fill:#175077;" cx="315.601" cy="308.555" r="2.458"/>
	<path style="fill:#175077;" d="M373.851,310.304c-0.961-0.961-0.961-2.521,0-3.482c0.953-0.961,2.521-0.961,3.466,0
		c0.985,0.969,0.969,2.521,0,3.482C376.371,311.257,374.812,311.264,373.851,310.304z"/>
	<circle style="fill:#175077;" cx="315.601" cy="248.596" r="2.458"/>
</g>
<circle style="fill:#041D35;" cx="154.581" cy="278.528" r="56.367"/>
<path style="fill:#1675B5;" d="M154.581,338.873c-33.264,0-60.306-27.057-60.306-60.306c0-33.249,27.049-60.306,60.306-60.306
	s60.306,27.057,60.306,60.306C214.886,311.816,187.837,338.873,154.581,338.873z M154.581,226.131
	c-28.908,0-52.429,23.52-52.429,52.429s23.52,52.429,52.429,52.429s52.429-23.52,52.429-52.429S183.489,226.131,154.581,226.131z"/>
<g>
	<circle style="fill:#175077;" cx="154.581" cy="236.142" r="2.458"/>
	<circle style="fill:#175077;" cx="154.581" cy="320.977" r="2.458"/>
	<circle style="fill:#175077;" cx="196.998" cy="278.528" r="2.458"/>
	<circle style="fill:#175077;" cx="112.163" cy="278.528" r="2.458"/>
	<circle style="fill:#175077;" cx="184.552" cy="248.596" r="2.458"/>
	<circle style="fill:#175077;" cx="124.585" cy="308.555" r="2.458"/>
	<path style="fill:#175077;" d="M182.835,310.304c-0.961-0.961-0.961-2.521,0-3.482c0.945-0.961,2.521-0.961,3.466,0
		c0.985,0.969,0.969,2.521,0,3.482C185.356,311.257,183.796,311.264,182.835,310.304z"/>
	<circle style="fill:#175077;" cx="124.585" cy="248.596" r="2.458"/>
</g>
<path style="fill:#0B4B77;" d="M164.183,278.56c0,5.301-4.293,9.602-9.602,9.602c-5.309,0-9.602-4.301-9.602-9.602
	c0-5.301,4.293-19.818,9.602-19.818C159.89,258.741,164.183,273.258,164.183,278.56z"/>
<path style="fill:#08375E;" d="M154.581,258.749c5.309,0,9.602,14.517,9.602,19.818c0,5.301-4.293,9.602-9.602,9.602"/>
<circle style="fill:#E88C07;" cx="154.581" cy="253.456" r="22.15"/>
<path style="fill:#EA5706;" d="M176.738,253.456c0,12.233-9.925,22.15-22.15,22.15s-22.15-9.925-22.15-22.15
	s9.925,2.458,22.15,2.458S176.738,241.223,176.738,253.456z"/>
<path style="fill:#FFC45C;" d="M161.961,239.608c0,2.599-3.387,0.417-7.554,0.417c-4.167,0-7.546,2.182-7.546-0.417
	c0-2.599,3.379-4.703,7.546-4.703C158.574,234.906,161.961,237.009,161.961,239.608z"/>
<g>
	<path style="fill:#074A77;" d="M276.996,377.439c0,1.993-1.615,3.608-3.6,3.608h-46.6c-2.001,0-3.615-1.615-3.615-3.608l0,0
		c0-2.001,1.615-3.615,3.615-3.615h46.6C275.381,373.823,276.996,375.438,276.996,377.439L276.996,377.439z"/>
	<path style="fill:#074A77;" d="M276.996,391.877c0,1.993-1.615,3.608-3.6,3.608h-46.6c-2.001,0-3.615-1.615-3.615-3.608l0,0
		c0-2.001,1.615-3.616,3.615-3.616h46.6C275.381,388.261,276.996,389.876,276.996,391.877L276.996,391.877z"/>
	<path style="fill:#074A77;" d="M276.996,406.315c0,1.993-1.615,3.608-3.6,3.608h-46.6c-2.001,0-3.615-1.615-3.615-3.608l0,0
		c0-2.001,1.615-3.616,3.615-3.616h46.6C275.381,402.7,276.996,404.315,276.996,406.315L276.996,406.315z"/>
	<path style="fill:#074A77;" d="M276.996,420.754c0,1.993-1.615,3.608-3.6,3.608h-46.6c-2.001,0-3.615-1.615-3.615-3.608l0,0
		c0-2.001,1.615-3.616,3.615-3.616h46.6C275.381,417.138,276.996,418.753,276.996,420.754L276.996,420.754z"/>
	<path style="fill:#074A77;" d="M276.996,435.192c0,1.993-1.615,3.608-3.6,3.608h-46.6c-2.001,0-3.615-1.615-3.615-3.608l0,0
		c0-2.001,1.615-3.616,3.615-3.616h46.6C275.381,431.577,276.996,433.191,276.996,435.192L276.996,435.192z"/>
</g>
<g>
	<path style="fill:#08375E;" d="M136.33,459.611c-1.386,0-2.678,0.418-3.757,1.142c-0.473-0.567-0.945-1.142-1.434-1.709v-0.016
		c-0.638-0.693-1.111-2.324-1.111-4.238s0.473-3.553,1.111-4.238v-0.016c0.488-0.567,0.961-1.15,1.434-1.709
		c1.079,0.717,2.371,1.142,3.757,1.142c3.726,0,6.751-3.033,6.751-6.751s-3.033-6.751-6.751-6.751s-6.758,3.017-6.758,6.743
		c0,1.386,0.425,2.678,1.15,3.757c-0.685,0.567-1.386,1.15-2.056,1.725c-0.796,0.536-2.261,0.89-3.962,0.89
		c-1.694,0-3.151-0.354-3.954-0.89c-0.677-0.575-1.378-1.15-2.048-1.725c0.717-1.079,1.134-2.371,1.134-3.757
		c0-3.726-3.025-6.751-6.751-6.751c-3.718,0-6.743,3.033-6.743,6.751c0,3.718,3.033,6.751,6.743,6.751
		c1.402,0,2.686-0.425,3.749-1.142c0.488,0.559,0.953,1.142,1.449,1.709v0.016c0.654,0.685,1.103,2.324,1.103,4.238
		s-0.449,3.545-1.103,4.238v0.008c-0.488,0.575-0.961,1.15-1.449,1.717c-1.063-0.725-2.355-1.142-3.749-1.142
		c-3.718,0-6.743,3.033-6.743,6.751c0,3.718,3.033,6.743,6.743,6.743c3.734,0,6.751-3.025,6.751-6.743
		c0-1.394-0.417-2.686-1.134-3.757c0.67-0.567,1.363-1.15,2.048-1.725c0.796-0.536,2.261-0.898,3.954-0.898
		c1.701,0,3.159,0.362,3.962,0.898c0.67,0.567,1.371,1.15,2.056,1.725c-0.725,1.071-1.15,2.363-1.15,3.757
		c0,3.726,3.033,6.743,6.751,6.743s6.751-3.025,6.751-6.743C143.073,462.635,140.048,459.611,136.33,459.611z"/>
	<circle style="fill:#08375E;" cx="250.088" cy="21.662" r="21.662"/>
</g>
<g>
</g>
<g>
</g>
<g>
</g>
<g>
</g>
<g>
</g>
<g>
</g>
<g>
</g>
<g>
</g>
<g>
</g>
<g>
</g>
<g>
</g>
<g>
</g>
<g>
</g>
<g>
</g>
<g>
</g>
</svg>
