<?xml version="1.0" encoding="iso-8859-1"?>
<!-- Generator: Adobe Illustrator 19.0.0, SVG Export Plug-In . SVG Version: 6.00 Build 0)  -->
<svg version="1.1" id="Layer_1" xmlns="http://www.w3.org/2000/svg" xmlns:xlink="http://www.w3.org/1999/xlink" x="0px" y="0px"
	 viewBox="0 0 504.123 504.123" style="enable-background:new 0 0 504.123 504.123;" xml:space="preserve">
<circle style="fill:#0258A0;" cx="252.058" cy="252.062" r="135.877"/>
<path style="fill:#064093;" d="M155.975,155.979c53.067-53.059,139.091-53.059,192.165,0c53.059,53.067,53.059,139.091,0,192.165"/>
<path style="fill:#229BFF;" d="M286.039,0C219.29,0,165.01,54.296,165.01,121.021c0,33.28,13.21,64.291,37.226,87.308
	c5.301,5.073,13.714,4.923,18.779-0.386c5.081-5.301,4.923-13.69-0.394-18.779c-18.723-17.991-29.05-42.173-29.05-68.143
	c0-52.066,42.386-94.436,94.46-94.436c52.106,0,94.468,42.37,94.468,94.436c0,52.09-42.362,94.468-94.452,94.452
	c-7.349,0.008-13.296,5.955-13.296,13.296c0,7.326,5.955,13.281,13.296,13.281c66.725,0,121.029-54.296,121.013-121.029
	C407.06,54.296,352.764,0,286.039,0z"/>
<path style="fill:#48BEFF;" d="M284.235,188.865c-3.411,0-6.79,1.3-9.397,3.907l-36.383,36.391l36.383,36.383
	c5.191,5.175,13.611,5.175,18.794,0c5.207-5.191,5.207-13.611,0.008-18.786l-17.597-17.597l17.589-17.605
	c5.207-5.199,5.207-13.596,0-18.786C291.04,190.165,287.63,188.865,284.235,188.865z"/>
<g>
	<path style="fill:#229BFF;" d="M294.68,263.964l-34.824-34.8l34.824-34.824c3.868,5.199,3.686,12.493-1.055,17.219l-17.589,17.605
		l17.597,17.597C298.366,251.494,298.547,258.781,294.68,263.964z"/>
	<path style="fill:#229BFF;" d="M218.092,504.123c66.741,0.008,121.029-54.28,121.029-121.013c0-33.288-13.225-64.299-37.234-87.308
		c-5.293-5.081-13.722-4.923-18.786,0.386c-5.073,5.293-4.907,13.69,0.425,18.779c18.7,17.983,29.026,42.173,29.019,68.135
		c0.008,52.074-42.362,94.46-94.452,94.46c-52.098,0.008-94.468-42.386-94.468-94.46c0-52.09,42.37-94.46,94.468-94.46
		c7.357,0,13.296-5.947,13.296-13.296c-0.016-7.326-5.963-13.28-13.296-13.28c-66.741,0-121.029,54.296-121.029,121.029
		S151.367,504.123,218.092,504.123z"/>
</g>
<path style="fill:#48BEFF;" d="M219.88,315.258c3.403-0.008,6.79-1.3,9.421-3.915l36.36-36.352l-36.36-36.415
	c-5.215-5.167-13.627-5.167-18.81,0.024c-5.191,5.183-5.191,13.588,0,18.779l17.597,17.597l-17.597,17.605
	c-5.191,5.191-5.191,13.58,0,18.779C213.075,313.958,216.485,315.258,219.88,315.258z"/>
<path style="fill:#229BFF;" d="M209.443,240.16l34.832,34.816l-34.832,34.808c-3.868-5.207-3.671-12.485,1.056-17.203l17.597-17.605
	l-17.597-17.597C205.773,252.644,205.576,245.335,209.443,240.16z"/>
<g>
</g>
<g>
</g>
<g>
</g>
<g>
</g>
<g>
</g>
<g>
</g>
<g>
</g>
<g>
</g>
<g>
</g>
<g>
</g>
<g>
</g>
<g>
</g>
<g>
</g>
<g>
</g>
<g>
</g>
</svg>
