<?xml version="1.0" encoding="iso-8859-1"?>
<!-- Generator: Adobe Illustrator 19.0.0, SVG Export Plug-In . SVG Version: 6.00 Build 0)  -->
<svg version="1.1" id="Layer_1" xmlns="http://www.w3.org/2000/svg" xmlns:xlink="http://www.w3.org/1999/xlink" x="0px" y="0px"
	 viewBox="0 0 492.308 492.308" style="enable-background:new 0 0 492.308 492.308;" xml:space="preserve">
<path style="fill:#8BF7F7;" d="M246.154,492.308C110.419,492.308,0,381.881,0,246.154S110.419,0,246.154,0
	c135.727,0,246.154,110.427,246.154,246.154S381.881,492.308,246.154,492.308z"/>
<path style="fill:#61DFE5;" d="M246.154,0c135.727,0,246.154,110.427,246.154,246.154S381.881,492.308,246.154,492.308"/>
<path style="fill:#229BFF;" d="M246.138,53.004c-44.891,0-81.392,36.525-81.392,81.392c0,22.386,8.885,43.236,25.041,58.722
	c3.552,3.403,9.216,3.3,12.635-0.26c3.411-3.576,3.293-9.208-0.276-12.635c-12.587-12.099-19.527-28.365-19.527-45.828
	c0-35.013,28.491-63.512,63.504-63.512c35.044,0,63.535,28.499,63.535,63.512c0,35.029-28.491,63.527-63.519,63.527
	c-4.939,0-8.94,4.001-8.94,8.94c0,4.923,4.001,8.925,8.94,8.925c44.875,0,81.392-36.525,81.384-81.392
	C327.522,89.529,291.013,53.004,246.138,53.004z"/>
<path style="fill:#48BEFF;" d="M244.925,180.019c-2.276,0-4.576,0.874-6.325,2.639l-24.458,24.466l24.458,24.474
	c3.489,3.474,9.153,3.474,12.635,0c3.505-3.505,3.505-9.153,0.016-12.642l-11.831-11.831l11.815-11.839
	c3.505-3.489,3.505-9.145,0-12.635C249.502,180.894,247.217,180.019,244.925,180.019z"/>
<g>
	<path style="fill:#229BFF;" d="M251.951,230.534l-23.426-23.41l23.426-23.418c2.584,3.497,2.465,8.389-0.725,11.579l-11.815,11.839
		l11.831,11.831C254.425,222.145,254.535,227.037,251.951,230.534z"/>
	<path style="fill:#229BFF;" d="M92.57,368.191c31.728,31.736,83.369,31.752,115.105,0.016
		c15.833-15.833,24.292-36.864,23.796-59.227c-0.102-4.931-4.175-8.869-9.106-8.751c-4.923,0.102-8.846,4.175-8.728,9.129
		c0.347,17.447-6.254,33.855-18.59,46.198c-24.765,24.781-65.079,24.781-89.844,0c-24.781-24.765-24.765-65.071,0-89.828
		c24.773-24.781,65.063-24.781,89.844,0c3.489,3.49,9.137,3.49,12.642,0c3.474-3.489,3.474-9.153-0.016-12.642
		c-31.736-31.72-83.377-31.72-115.105,0C60.841,284.822,60.841,336.455,92.57,368.191z"/>
</g>
<path style="fill:#48BEFF;" d="M180.838,276.299c1.623,1.599,3.852,2.599,6.357,2.599l34.58,0.016l0.016-34.603
	c-0.016-4.947-4.017-8.956-8.956-8.94c-4.939-0.016-8.925,3.994-8.925,8.94v16.738h-16.746c-4.947,0-8.925,3.978-8.925,8.925
	C178.223,272.439,179.232,274.668,180.838,276.299z"/>
<g>
	<path style="fill:#229BFF;" d="M211.582,235.622l0.016,33.107h-33.122c0.646-4.317,4.191-7.68,8.688-7.68h16.746v-16.738
		C203.91,239.805,207.289,236.237,211.582,235.622z"/>
	<path style="fill:#229BFF;" d="M423.542,310.65c0.016-44.883-36.502-81.392-81.384-81.392c-22.386,0-43.229,8.885-58.715,25.033
		c-3.411,3.56-3.316,9.232,0.268,12.635c3.552,3.426,9.2,3.308,12.619-0.284c12.099-12.579,28.373-19.519,45.828-19.519
		c35.021-0.008,63.52,28.499,63.527,63.527c0,35.029-28.507,63.527-63.527,63.527c-35.029,0-63.52-28.499-63.52-63.527
		c0-4.947-4.001-8.94-8.94-8.956c-4.939,0.016-8.94,4.025-8.94,8.956c0,44.867,36.525,81.392,81.4,81.392
		C387.04,392.042,423.542,355.517,423.542,310.65z"/>
</g>
<path style="fill:#48BEFF;" d="M296.645,307.57c0-2.284-0.851-4.561-2.615-6.341l-24.45-24.45l-24.497,24.45
	c-3.474,3.505-3.474,9.169,0.016,12.642c3.489,3.489,9.137,3.489,12.635,0l11.847-11.831l11.831,11.831
	c3.489,3.489,9.137,3.489,12.635,0C295.794,312.147,296.645,309.862,296.645,307.57z"/>
<g>
	<path style="fill:#229BFF;" d="M246.154,314.581l23.418-23.418l23.402,23.418c-3.489,2.623-8.389,2.473-11.571-0.701
		l-11.831-11.831l-11.847,11.831C254.535,317.054,249.628,317.204,246.154,314.581z"/>
	<path style="fill:#229BFF;" d="M246.154,492.308C110.419,492.308,0,381.881,0,246.154S110.419,0,246.154,0
		c135.727,0,246.154,110.427,246.154,246.154S381.881,492.308,246.154,492.308z M246.154,15.754
		c-127.047,0-230.4,103.353-230.4,230.4s103.353,230.4,230.4,230.4s230.4-103.353,230.4-230.4S373.201,15.754,246.154,15.754z"/>
</g>
<g>
</g>
<g>
</g>
<g>
</g>
<g>
</g>
<g>
</g>
<g>
</g>
<g>
</g>
<g>
</g>
<g>
</g>
<g>
</g>
<g>
</g>
<g>
</g>
<g>
</g>
<g>
</g>
<g>
</g>
</svg>
