<?xml version="1.0" encoding="iso-8859-1"?>
<!-- Generator: Adobe Illustrator 19.0.0, SVG Export Plug-In . SVG Version: 6.00 Build 0)  -->
<svg version="1.1" id="Layer_1" xmlns="http://www.w3.org/2000/svg" xmlns:xlink="http://www.w3.org/1999/xlink" x="0px" y="0px"
	 viewBox="0 0 504.123 504.123" style="enable-background:new 0 0 504.123 504.123;" xml:space="preserve">
<path style="fill:#00233F;" d="M363.843,309.374l2.985-7.971l-42.055-17.644l-3.56,2.402v-52.232
	c20.086-28.751,33.445-68.458,33.445-110.324c0-4.766-0.197-9.279-0.536-13.603c1.087-5.356,1.646-10.894,1.646-16.557
	c0-44.142-34.336-80.156-77.769-82.983c-3.426-3.71-8.294-6.049-13.737-6.049h-24.418c-5.427,0-10.295,2.339-13.729,6.049
	c-43.425,2.812-77.8,38.849-77.8,82.983c0,5.742,0.575,11.327,1.686,16.723c-0.339,4.261-0.536,8.704-0.536,13.43
	c0,41.842,13.351,81.542,33.43,110.293v52.263l-3.552-2.402l-42.039,17.644l2.977,7.971L0,360.377v139.335h245.106v-0.063
	l0.055,0.063h6.396h1.024h6.38l0.079-0.095v0.095h245.083V360.377L363.843,309.374z"/>
<polygon style="fill:#05346D;" points="396.666,499.712 182.894,285.948 182.894,286.161 179.342,283.758 137.303,301.41 
	140.28,309.374 0,360.377 0,499.712 245.106,499.712 245.106,499.657 245.161,499.712 251.557,499.712 252.574,499.712 
	258.954,499.712 259.033,499.625 259.033,499.712 "/>
<path style="fill:#15E5AA;" d="M102.928,484.943H87.174V171.835c0-21.173,17.227-38.4,38.4-38.4v15.754
	c-12.485,0-22.646,10.169-22.646,22.646C102.928,171.835,102.928,484.943,102.928,484.943z"/>
<path style="fill:#09C8D6;" d="M87.174,186.281v298.661h15.754V186.281v-14.446c0-12.477,10.161-22.646,22.646-22.646v-1.308
	C104.401,147.881,87.174,165.1,87.174,186.281z"/>
<path style="fill:#FF7C24;" d="M344.489,102.101c0,12.768-10.35,23.142-23.142,23.142H183.501
	c-12.784,0-23.142-10.366-23.142-23.142l0,0c0-12.784,10.35-23.142,23.142-23.142h137.846
	C334.139,78.958,344.489,89.316,344.489,102.101L344.489,102.101z"/>
<path style="fill:#09C8D6;" d="M383.015,142.147c0,15.494-12.572,28.058-28.058,28.058H149.173
	c-15.494,0-28.058-12.572-28.058-28.058l0,0c0-15.51,12.572-28.058,28.058-28.058h205.785
	C370.444,114.081,383.015,126.637,383.015,142.147L383.015,142.147z"/>
<path style="fill:#0B9BD3;" d="M383.015,142.147L383.015,142.147c0,15.494-12.572,28.058-28.058,28.058H149.173
	c-15.494,0-28.058-12.572-28.058-28.058l0,0"/>
<path style="fill:#FF7C24;" d="M362.835,179.066c0,6.711-5.435,12.138-12.138,12.138h-197.27c-6.711,0-12.146-5.427-12.146-12.138
	V105.22c0-6.711,5.435-12.154,12.146-12.154h197.278c6.703,0,12.138,5.443,12.138,12.154v73.846H362.835z"/>
<path style="fill:#FF9827;" d="M350.696,93.066h-197.27c-6.711,0-12.146,5.443-12.146,12.154v57.431
	c0,6.711,5.435,12.138,12.146,12.138h197.278c6.703,0,12.138-5.427,12.138-12.138V105.22
	C362.835,98.517,357.4,93.066,350.696,93.066z"/>
<path style="fill:#FFB829;" d="M350.696,174.789c6.703,0,12.138-5.427,12.138-12.138V105.22c0-6.711-5.435-12.154-12.138-12.154
	h-197.27c-6.711,0-12.146,5.443-12.146,12.154"/>
<circle style="fill:#15E5AA;" cx="160.366" cy="106.819" r="6.892"/>
<path style="fill:#09C8D6;" d="M167.259,106.85c0,3.812-3.088,6.892-6.892,6.892s-6.892-3.08-6.892-6.892"/>
<circle style="fill:#15E5AA;" cx="182.28" cy="106.819" r="6.892"/>
<path style="fill:#09C8D6;" d="M189.172,106.85c0,3.812-3.088,6.892-6.892,6.892c-3.805,0-6.892-3.08-6.892-6.892"/>
<circle style="fill:#15E5AA;" cx="204.186" cy="106.819" r="6.892"/>
<path style="fill:#09C8D6;" d="M211.078,106.85c0,3.812-3.088,6.892-6.892,6.892s-6.892-3.08-6.892-6.892"/>
<g>
	<path style="fill:#FF9827;" d="M105.567,240.435c0,1.449-1.182,2.615-2.631,2.615H87.843c-1.465,0-2.631-1.166-2.631-2.615l0,0
		c0-1.449,1.166-2.631,2.631-2.631h15.092C104.385,237.804,105.567,238.994,105.567,240.435L105.567,240.435z"/>
	<path style="fill:#FF9827;" d="M105.567,257.497c0,1.449-1.182,2.631-2.631,2.631H87.843c-1.465,0-2.631-1.182-2.631-2.631l0,0
		c0-1.449,1.166-2.615,2.631-2.615h15.092C104.385,254.881,105.567,256.055,105.567,257.497L105.567,257.497z"/>
	<path style="fill:#FF9827;" d="M105.567,274.574c0,1.449-1.182,2.615-2.631,2.615H87.843c-1.465,0-2.631-1.166-2.631-2.615l0,0
		c0-1.449,1.166-2.631,2.631-2.631h15.092C104.385,271.943,105.567,273.132,105.567,274.574L105.567,274.574z"/>
</g>
<path style="fill:#FFB829;" d="M66.828,116.358c-25.34,0-45.938-20.598-45.938-45.938s20.598-45.954,45.938-45.954
	s45.946,20.614,45.946,45.954S92.168,116.358,66.828,116.358z M66.828,32.343c-20.984,0-38.061,17.077-38.061,38.077
	c0,20.984,17.077,38.061,38.061,38.061c20.992,0,38.069-17.077,38.069-38.061C104.897,49.42,87.82,32.343,66.828,32.343z"/>
<g>
	<path style="fill:#09C8D6;" d="M492.843,102.392c0,1.449-1.166,2.615-2.615,2.615h-95.2c-1.449,0-2.615-1.166-2.615-2.615l0,0
		c0-1.449,1.166-2.615,2.615-2.615h95.2C491.678,99.777,492.843,100.943,492.843,102.392L492.843,102.392z"/>
	<path style="fill:#09C8D6;" d="M492.843,122.266c0,1.449-1.166,2.615-2.615,2.615h-95.2c-1.449,0-2.615-1.166-2.615-2.615l0,0
		c0-1.449,1.166-2.615,2.615-2.615h95.2C491.678,119.65,492.843,120.824,492.843,122.266L492.843,122.266z"/>
	<path style="fill:#09C8D6;" d="M492.843,142.147c0,1.449-1.166,2.615-2.615,2.615h-95.2c-1.449,0-2.615-1.166-2.615-2.615l0,0
		c0-1.449,1.166-2.615,2.615-2.615h95.2C491.678,139.532,492.843,140.698,492.843,142.147L492.843,142.147z"/>
	<path style="fill:#09C8D6;" d="M492.843,162.02c0,1.434-1.166,2.615-2.615,2.615h-95.2c-1.449,0-2.615-1.182-2.615-2.615l0,0
		c0-1.449,1.166-2.615,2.615-2.615h95.2C491.678,159.405,492.843,160.579,492.843,162.02L492.843,162.02z"/>
	<path style="fill:#09C8D6;" d="M492.843,181.902c0,1.434-1.166,2.599-2.615,2.599h-57.541c-1.449,0-2.615-1.166-2.615-2.599l0,0
		c0-1.449,1.166-2.631,2.615-2.631h57.541C491.678,179.271,492.843,180.452,492.843,181.902L492.843,181.902z"/>
</g>
<g>
	<polygon style="fill:#E86105;" points="435.184,20.33 442.628,46.332 450.079,20.33 	"/>
	<polygon style="fill:#E86105;" points="450.064,263.948 442.612,237.93 435.184,263.948 	"/>
</g>
<g>
	<path style="fill:#15E5AA;" d="M69.136,79.281c0,1.276-1.04,2.308-2.316,2.308l0,0c-1.26,0-2.292-1.032-2.292-2.308V62.866
		c0-1.26,1.032-2.292,2.292-2.292l0,0c1.276,0,2.316,1.032,2.316,2.292V79.281z"/>
	<path style="fill:#15E5AA;" d="M58.62,73.374c-1.26,0-2.284-1.016-2.284-2.292l0,0c0-1.26,1.024-2.292,2.284-2.292h16.423
		c1.245,0,2.284,1.032,2.284,2.292l0,0c0,1.276-1.04,2.292-2.284,2.292H58.62z"/>
</g>
<g>
</g>
<g>
</g>
<g>
</g>
<g>
</g>
<g>
</g>
<g>
</g>
<g>
</g>
<g>
</g>
<g>
</g>
<g>
</g>
<g>
</g>
<g>
</g>
<g>
</g>
<g>
</g>
<g>
</g>
</svg>
