<?xml version="1.0" encoding="iso-8859-1"?>
<!-- Generator: Adobe Illustrator 19.0.0, SVG Export Plug-In . SVG Version: 6.00 Build 0)  -->
<svg version="1.1" id="Capa_1" xmlns="http://www.w3.org/2000/svg" xmlns:xlink="http://www.w3.org/1999/xlink" x="0px" y="0px"
	 viewBox="0 0 512 512" style="enable-background:new 0 0 512 512;" xml:space="preserve">
<g>
	<g>
		<path d="M509.67,327.139L397.091,221.127c14.616-20.772,23.212-46.072,23.212-73.345c0-70.446-57.312-127.758-127.758-127.758
			c-51.042,0-95.181,30.092-115.628,73.463c-48.24,5.527-92.758,28.466-125.452,64.692c-1.674,1.856-3.301,3.746-4.9,5.655
			c-0.009,0.011-0.018,0.021-0.026,0.031C16.48,199.786,0,245.014,0,292.073C0,402.3,89.676,491.976,199.903,491.976
			s199.903-89.677,199.903-199.903c0-1.259-0.029-2.521-0.052-3.783l72.148,76.617c2.866,3.043,7.829,3.118,10.785,0.162
			l27.146-27.145C512.786,334.969,512.711,330.003,509.67,327.139z M292.545,35.054c62.157,0,112.727,50.57,112.727,112.727
			s-50.57,112.727-112.727,112.727s-112.727-50.57-112.727-112.727S230.388,35.054,292.545,35.054z M15.03,292.073
			c0-6.487,0.345-12.898,0.996-19.221l58.412-4.868c2.348,6.806,6.595,18.865,11.245,30.821
			c4.156,10.688,7.833,19.246,10.929,25.437c4.823,9.647,8.823,15.284,14.882,15.424c3.927,0.732,17.47,9.301,29.883,18.208
			l-56.373,78.922C42.398,402.897,15.03,350.624,15.03,292.073z M97.133,445.673l60.788-85.103c2.373-3.322,1.66-7.931-1.606-10.38
			c-14.16-10.62-32.312-23.098-42.005-25.234c-5.336-6.568-18.174-39.287-27.521-67.325c-1.096-3.288-4.283-5.407-7.754-5.112
			l-60.806,5.067c5.413-28.811,17.5-55.337,34.674-77.834l29.459,29.457c1.181,1.181,2.724,1.936,4.381,2.143l60.62,7.577
			l53.393,83.903l7.364,44.178l-30.344,60.688l-56.72,51.564C112.723,455.317,104.728,450.771,97.133,445.673z M199.903,476.946
			c-22.324,0-43.736-3.978-63.566-11.262l52.589-47.807c0.687-0.624,1.252-1.37,1.666-2.199l32.065-64.129
			c0.71-1.421,0.952-3.03,0.691-4.597l-8.016-48.097c-0.166-0.995-0.531-1.947-1.073-2.799l-56.113-88.178
			c-1.202-1.89-3.185-3.145-5.407-3.423l-61.571-7.697l-28.626-28.625c27.493-30.5,65.131-51.835,108.107-58.632
			c-3.806,12.091-5.862,24.95-5.862,38.282c0,60.089,41.703,110.614,97.685,124.174c-21.969,28.474-21.987,33.053-21.987,36.149
			c0,8.57,12.566,46.936,16.418,58.49c0.822,2.466,2.86,4.332,5.389,4.934l92.122,21.933
			C321.33,443.708,264.43,476.946,199.903,476.946z M362.524,379.942l-92.674-22.065c-6.8-20.677-13.732-43.852-14.299-49.268
			c0.646-1.666,4.269-9.06,23.721-33.757c4.364,0.453,8.792,0.687,13.273,0.687c27.273,0,52.573-8.595,73.345-23.212l17.729,18.827
			c0.006,0.077,0.005,0.152,0.013,0.229c0.76,6.825,1.144,13.786,1.144,20.689C384.776,323.856,376.712,353.791,362.524,379.942z
			 M377.694,242.939c3.517-3.15,6.858-6.492,10.009-10.008l24.486,23.059l-11.437,11.437L377.694,242.939z M411.062,278.374
			l12.075-12.075l14.339,13.503l-12.911,12.912L411.062,278.374z M477.534,348.964l-42.661-45.302l13.55-13.55l45.303,42.66
			L477.534,348.964z"/>
	</g>
</g>
<g>
	<g>
		<path d="M363.177,83.219c-2.802-3.064-7.555-3.277-10.617-0.474c-3.063,2.801-3.276,7.554-0.474,10.617
			c13.62,14.894,21.122,34.22,21.122,54.419c0,44.478-36.185,80.663-80.663,80.663s-80.663-36.185-80.663-80.663
			s36.185-80.663,80.663-80.663c11.763,0,23.1,2.473,33.693,7.351c3.769,1.736,8.234,0.086,9.969-3.683
			c1.735-3.771,0.087-8.234-3.683-9.969c-12.58-5.792-26.031-8.729-39.979-8.729c-52.765,0-95.693,42.928-95.693,95.693
			c0,52.765,42.929,95.693,95.694,95.693s95.693-42.928,95.693-95.693C388.238,123.82,379.338,100.891,363.177,83.219z"/>
	</g>
</g>
<g>
	<g>
		<path d="M292.545,86.157c-26.244,0-47.596,21.352-47.596,47.596c0,32.796,40.556,73.729,42.281,75.456
			c2.895,2.893,7.734,2.893,10.628,0c1.727-1.727,42.281-42.659,42.281-75.456C340.141,107.508,318.789,86.157,292.545,86.157z
			 M292.545,192.938c-12.367-13.764-32.566-40.227-32.566-59.184c0-17.957,14.609-32.566,32.566-32.566s32.566,14.608,32.566,32.566
			C325.111,152.712,304.911,179.176,292.545,192.938z"/>
	</g>
</g>
<g>
	<g>
		<path d="M292.545,111.208c-12.431,0-22.545,10.114-22.545,22.545s10.114,22.546,22.545,22.546s22.545-10.114,22.545-22.546
			S304.976,111.208,292.545,111.208z M292.545,141.269c-4.144,0-7.515-3.371-7.515-7.515s3.371-7.515,7.515-7.515
			s7.515,3.371,7.515,7.515S296.69,141.269,292.545,141.269z"/>
	</g>
</g>
<g>
</g>
<g>
</g>
<g>
</g>
<g>
</g>
<g>
</g>
<g>
</g>
<g>
</g>
<g>
</g>
<g>
</g>
<g>
</g>
<g>
</g>
<g>
</g>
<g>
</g>
<g>
</g>
<g>
</g>
</svg>
