<?xml version="1.0" encoding="iso-8859-1"?>
<!-- Generator: Adobe Illustrator 19.0.0, SVG Export Plug-In . SVG Version: 6.00 Build 0)  -->
<svg version="1.1" id="Capa_1" xmlns="http://www.w3.org/2000/svg" xmlns:xlink="http://www.w3.org/1999/xlink" x="0px" y="0px"
	 viewBox="0 0 512 512" style="enable-background:new 0 0 512 512;" xml:space="preserve">
<g>
	<g>
		<path d="M485.528,226.918l-53.857-53.857V56.555c0-4.147-3.36-7.507-7.507-7.507l-117.007-1.001L261.309,2.198
			c-2.933-2.931-7.685-2.931-10.617,0l-45.849,45.849L87.836,49.048c-4.147,0-7.507,3.36-7.507,7.507v116.507l-53.857,53.857
			c-1.385,1.397-2.198,3.338-2.198,5.309v88.085c0,4.147,3.36,7.507,7.507,7.507c4.147,0,7.507-3.36,7.507-7.507v-74.744
			l414.099,251.417H39.288V356.849c0-4.147-3.36-7.507-7.507-7.507c-4.147,0-7.507,3.36-7.507,7.507v147.644
			c0,4.147,3.36,7.507,7.507,7.507h448.417c4.091,0,7.528-3.41,7.528-7.507V232.227
			C487.726,230.262,486.917,228.307,485.528,226.918z M80.328,252.919l-36.477-22.147l36.477-36.476V252.919z M431.672,194.298
			l36.477,36.475l-36.477,22.147V194.298z M256,18.124l29.922,29.923h-59.844L256,18.124z M95.343,262.035V64.063h321.314v197.972
			L256,359.576L95.343,262.035z M472.712,491.152L270.466,368.36l202.245-122.792V491.152z"/>
	</g>
</g>
<g>
	<g>
		<path d="M256,88.586c-52.71,0-95.593,42.883-95.593,95.593c0,75.03,87.454,139.496,91.178,142.204
			c2.603,1.893,6.228,1.893,8.831,0c3.724-2.708,91.178-67.174,91.178-142.204C351.593,131.469,308.71,88.586,256,88.586z
			 M256,310.825c-17.452-13.917-80.579-68.301-80.579-126.645c0-44.431,36.147-80.579,80.579-80.579s80.579,36.147,80.579,80.579
			C336.579,242.524,273.451,296.91,256,310.825z"/>
	</g>
</g>
<g>
	<g>
		<path d="M256,128.626c-30.633,0-55.554,24.921-55.554,55.554s24.921,55.554,55.554,55.554s55.554-24.921,55.554-55.554
			S286.633,128.626,256,128.626z M256,224.719c-22.354,0-40.54-18.186-40.54-40.54s18.186-40.54,40.54-40.54
			s40.54,18.186,40.54,40.54S278.354,224.719,256,224.719z"/>
	</g>
</g>
<g>
</g>
<g>
</g>
<g>
</g>
<g>
</g>
<g>
</g>
<g>
</g>
<g>
</g>
<g>
</g>
<g>
</g>
<g>
</g>
<g>
</g>
<g>
</g>
<g>
</g>
<g>
</g>
<g>
</g>
</svg>
