<?xml version="1.0" encoding="iso-8859-1"?>
<!-- Generator: Adobe Illustrator 19.0.0, SVG Export Plug-In . SVG Version: 6.00 Build 0)  -->
<svg version="1.1" id="Capa_1" xmlns="http://www.w3.org/2000/svg" xmlns:xlink="http://www.w3.org/1999/xlink" x="0px" y="0px"
	 viewBox="0 0 512 512" style="enable-background:new 0 0 512 512;" xml:space="preserve">
<g>
	<g>
		<path d="M504.243,248.743h-68.554c-9.754-27.94-36.356-48.047-67.579-48.047c-31.224,0-57.826,20.107-67.579,48.047h-36.689
			V119.842c7.51,0.426,14.964,1.46,22.245,3.096c4.043,0.912,8.062-1.634,8.971-5.679c0.909-4.046-1.634-8.062-5.679-8.971
			c-8.358-1.878-16.918-3.039-25.537-3.479V39.691c10.034,0.358,20.038,1.393,29.835,3.111c4.092,0.713,7.975-2.015,8.692-6.099
			c0.716-4.084-2.015-7.975-6.099-8.691c-10.649-1.867-21.525-2.978-32.428-3.343V7.507c0-4.147-3.361-7.507-7.507-7.507
			s-7.507,3.36-7.507,7.507v17.138c-59.208,1.789-114.61,25.678-156.682,67.75c-41.993,41.992-65.869,97.266-67.738,156.348H7.758
			c-4.146,0-7.507,3.36-7.507,7.507s3.361,7.507,7.507,7.507h16.649c1.868,59.082,25.745,114.356,67.738,156.348
			c42.072,42.072,97.474,65.961,156.682,67.75v16.637c0,4.147,3.361,7.507,7.507,7.507c4.146,0,7.507-3.36,7.507-7.507v-16.661
			c59.825-1.97,115.562-26.428,157.676-69.407c2.902-2.961,2.855-7.715-0.107-10.615c-2.961-2.902-7.714-2.856-10.615,0.107
			c-39.267,40.072-91.197,62.927-146.954,64.89v-65.121c31.237-1.62,61.283-12.879,85.863-32.206
			c7.175,8.238,12.364,13.472,13.096,14.204c2.892,2.89,7.726,2.89,10.617,0c2.705-2.706,66.261-66.843,66.261-117.419
			c0-2.881-0.191-5.716-0.524-8.508h33.423c-1.42,41.816-14.692,81.842-38.613,116.188c-2.155,3.095-1.631,7.45,1.21,9.935
			c3.323,2.908,8.588,2.269,11.111-1.354c25.682-36.877,39.886-79.869,41.311-124.769h16.644c4.147,0,7.507-3.36,7.507-7.507
			S508.39,248.743,504.243,248.743z M248.827,39.67v65.109c-18.805,0.864-36.954,5.124-54.1,12.717
			c-7.698-15.91-24.002-26.908-42.829-26.908c-26.217,0-47.546,21.33-47.546,47.546c0,15.173,8.69,32.086,18.191,46.047
			c-10.729,19.845-16.867,41.941-17.985,64.561H39.433C43.324,135.093,135.135,43.388,248.827,39.67z M146.591,213.513
			c2.89,2.89,7.727,2.89,10.616,0c1.725-1.726,42.238-42.615,42.238-75.378c0-2.069-0.147-4.104-0.405-6.104
			c15.742-7.237,32.448-11.342,49.787-12.225v65.235c-33.637,3.363-60.482,30.111-64,63.702h-65.237
			c0.974-17.75,5.389-35.119,12.969-51.089C139.892,206.76,145.946,212.868,146.591,213.513z M119.367,138.135
			c0-17.938,14.594-32.532,32.532-32.532c17.938,0,32.532,14.593,32.532,32.532c0,18.938-20.18,45.375-32.532,59.123
			c-4.14-4.607-9.158-10.642-14.001-17.34c-0.231-0.396-0.5-0.771-0.805-1.122C127.796,165.741,119.367,150.374,119.367,138.135z
			 M248.827,472.831c-113.691-3.719-205.503-95.423-209.393-209.073h65.108c1.384,28.603,10.67,55.824,27.103,79.304
			c-2.101,5.363-3.268,11.191-3.268,17.29c0,32.762,40.514,73.652,42.238,75.378c2.89,2.89,7.727,2.89,10.616,0
			c1.036-1.036,16.052-16.191,27.888-35.227c12.838,4.171,26.146,6.594,39.708,7.225V472.831z M143.391,360.352
			c0-17.939,14.594-32.532,32.532-32.532c17.938,0,32.532,14.593,32.532,32.532c0,18.938-20.18,45.375-32.532,59.123
			C163.568,405.725,143.391,379.289,143.391,360.352z M248.827,392.692c-11.024-0.569-21.853-2.449-32.347-5.617
			c4.174-8.896,6.989-18.092,6.989-26.723c0-26.217-21.33-47.546-47.546-47.546c-14.175,0-26.912,6.243-35.631,16.115
			c-12.381-19.637-19.446-41.878-20.698-65.163h65.233c3.518,33.591,30.365,60.339,64,63.702V392.692z M248.827,312.335
			c-25.346-3.225-45.496-23.279-48.869-48.577h48.869V312.335z M248.827,248.743h-48.869c3.372-25.299,23.523-45.352,48.869-48.577
			V248.743z M263.842,263.758h33.221c-0.332,2.793-0.523,5.628-0.523,8.508c0,6.547,1.072,13.322,2.932,20.161
			c-9.104,10.966-21.691,17.919-35.63,19.826V263.758z M263.842,392.65v-65.273c15.431-1.722,29.957-8.465,41.24-19.06
			c8.806,20.577,22.911,40.597,34.988,55.642C318.196,381.042,291.557,391.054,263.842,392.65z M368.11,373.469
			c-14.996-16.27-56.555-64.659-56.555-101.203c0-31.184,25.371-56.555,56.555-56.555s56.555,25.371,56.555,56.555
			C424.665,308.81,383.106,357.199,368.11,373.469z"/>
	</g>
</g>
<g>
	<g>
		<path d="M151.899,115.613c-12.419,0-22.522,10.104-22.522,22.522c0,12.418,10.103,22.522,22.522,22.522
			s22.522-10.104,22.522-22.522C174.421,125.717,164.318,115.613,151.899,115.613z M151.899,145.642
			c-4.14,0-7.507-3.367-7.507-7.507c0-4.14,3.367-7.507,7.507-7.507c4.14,0,7.507,3.367,7.507,7.507
			C159.406,142.275,156.039,145.642,151.899,145.642z"/>
	</g>
</g>
<g>
	<g>
		<path d="M175.922,337.83c-12.419,0-22.522,10.104-22.522,22.522c0,12.418,10.103,22.522,22.522,22.522
			s22.522-10.104,22.522-22.522C198.444,347.934,188.341,337.83,175.922,337.83z M175.922,367.859c-4.14,0-7.507-3.367-7.507-7.507
			c0-4.14,3.367-7.507,7.507-7.507c4.14,0,7.507,3.367,7.507,7.507C183.43,364.492,180.062,367.859,175.922,367.859z"/>
	</g>
</g>
<g>
	<g>
		<path d="M368.11,232.727c-21.801,0-39.539,17.737-39.539,39.539c0,21.801,17.737,39.539,39.539,39.539
			c21.801,0,39.539-17.737,39.539-39.539C407.649,250.465,389.911,232.727,368.11,232.727z M368.11,296.79
			c-13.523,0-24.524-11.001-24.524-24.524c0-13.523,11.001-24.524,24.524-24.524c13.523,0,24.524,11.001,24.524,24.524
			C392.634,285.789,381.633,296.79,368.11,296.79z"/>
	</g>
</g>
<g>
</g>
<g>
</g>
<g>
</g>
<g>
</g>
<g>
</g>
<g>
</g>
<g>
</g>
<g>
</g>
<g>
</g>
<g>
</g>
<g>
</g>
<g>
</g>
<g>
</g>
<g>
</g>
<g>
</g>
</svg>
