<?xml version="1.0" encoding="iso-8859-1"?>
<!-- Generator: Adobe Illustrator 19.0.0, SVG Export Plug-In . SVG Version: 6.00 Build 0)  -->
<svg version="1.1" id="Capa_1" xmlns="http://www.w3.org/2000/svg" xmlns:xlink="http://www.w3.org/1999/xlink" x="0px" y="0px"
	 viewBox="0 0 512 512" style="enable-background:new 0 0 512 512;" xml:space="preserve">
<g>
	<g>
		<path d="M488.454,104.203H23.546C10.563,104.203,0,114.766,0,127.75V384.25c0,12.983,10.563,23.546,23.546,23.546h464.908
			c12.983,0,23.546-10.563,23.546-23.546V127.75C512,114.766,501.437,104.203,488.454,104.203z M344.673,119.233v25.049h-112.72
			c-4.15,0-7.515,3.364-7.515,7.515v14.648l-37.769-47.211H344.673z M384.751,159.311v193.378H239.468V159.311H384.751z
			 M79.155,119.233h88.268l57.015,71.27v9.888h-19.649c-6.455-18.637-24.172-32.063-44.977-32.063s-38.523,13.425-44.977,32.063
			H79.155V119.233z M192.376,215.922c0,18.957-20.199,45.42-32.564,59.181c-12.366-13.763-32.564-40.225-32.564-59.181
			c0-17.956,14.609-32.564,32.564-32.564S192.376,197.966,192.376,215.922z M79.155,270.658l21.936,38.061l-21.936,2.041V270.658z
			 M64.125,392.767H23.546c-4.696,0-8.517-3.82-8.517-8.517V127.75c0-4.696,3.82-8.517,8.517-8.517h40.579V392.767z
			 M104.204,392.767H79.155v-66.912l25.049-2.331V392.767z M91.078,261.247l-11.923-20.688v-25.138h33.078
			c-0.002,0.167-0.013,0.334-0.013,0.501c0,32.794,40.553,73.724,42.28,75.451c2.893,2.893,7.734,2.893,10.627,0
			c1.726-1.727,42.28-42.657,42.28-75.451c0-0.167-0.011-0.334-0.013-0.501h17.046v81.825l-106.884,9.942L91.078,261.247z
			 M119.233,392.767v-70.641l99.951-9.297l-39.969,79.938H119.233z M196.018,392.767l28.421-56.84v24.276
			c0,4.151,3.365,7.515,7.515,7.515h135.63l0.193,0.388l12.331,24.661H196.018z M432.845,392.767H396.91l-12.524-25.049h7.88
			c4.15,0,7.515-3.364,7.515-7.515v-62.868c0.055-0.027,0.107-0.063,0.162-0.091c0.195-0.098,0.387-0.208,0.576-0.325
			c0.05-0.032,0.103-0.053,0.153-0.086l0.072-0.048c0.002-0.001,0.003-0.002,0.005-0.003l32.096-21.397V392.767z M496.971,384.25
			c0,4.696-3.82,8.517-8.517,8.517h-40.579V179.851c0-4.151-3.365-7.515-7.515-7.515c-4.15,0-7.515,3.364-7.515,7.515v77.471
			l-33.065,22.042V151.796c0-4.151-3.365-7.515-7.515-7.515h-32.564v-25.049h73.143v24.882c0,4.151,3.365,7.515,7.515,7.515
			c4.15,0,7.515-3.364,7.515-7.515v-24.882h40.579c4.696,0,8.517,3.82,8.517,8.517V384.25z"/>
	</g>
</g>
<g>
	<g>
		<circle cx="39.577" cy="256" r="7.515"/>
	</g>
</g>
<g>
	<g>
		<circle cx="40.078" cy="224.438" r="7.515"/>
	</g>
</g>
<g>
	<g>
		<circle cx="40.078" cy="287.562" r="7.515"/>
	</g>
</g>
<g>
	<g>
		<path d="M472.423,224.438c-4.15,0-7.515,3.364-7.515,7.515v48.094c0,4.151,3.365,7.515,7.515,7.515
			c4.15,0,7.515-3.364,7.515-7.515v-48.094C479.937,227.802,476.573,224.438,472.423,224.438z"/>
	</g>
</g>
<g>
	<g>
		<path d="M159.812,193.378c-12.431,0-22.544,10.114-22.544,22.544c0,12.43,10.113,22.544,22.544,22.544
			s22.544-10.114,22.544-22.544C182.356,203.491,172.243,193.378,159.812,193.378z M159.812,223.436
			c-4.144,0-7.515-3.371-7.515-7.515c0-4.144,3.371-7.515,7.515-7.515s7.515,3.371,7.515,7.515
			C167.327,220.066,163.956,223.436,159.812,223.436z"/>
	</g>
</g>
<g>
	<g>
		<path d="M288.063,192.376h-16.031c-4.15,0-7.515,3.364-7.515,7.515c0,4.151,3.365,7.515,7.515,7.515h16.031
			c4.15,0,7.515-3.364,7.515-7.515C295.577,195.739,292.213,192.376,288.063,192.376z"/>
	</g>
</g>
<g>
	<g>
		<path d="M352.188,192.376h-32.063c-4.15,0-7.515,3.364-7.515,7.515c0,4.151,3.365,7.515,7.515,7.515h32.063
			c4.15,0,7.515-3.364,7.515-7.515C359.703,195.739,356.338,192.376,352.188,192.376z"/>
	</g>
</g>
<g>
	<g>
		<path d="M352.188,224.438h-80.157c-4.15,0-7.515,3.364-7.515,7.515c0,4.151,3.365,7.515,7.515,7.515h80.157
			c4.15,0,7.515-3.364,7.515-7.515C359.703,227.802,356.338,224.438,352.188,224.438z"/>
	</g>
</g>
<g>
	<g>
		<path d="M352.188,264.517h-80.157c-4.15,0-7.515,3.364-7.515,7.515s3.365,7.515,7.515,7.515h80.157
			c4.15,0,7.515-3.364,7.515-7.515S356.338,264.517,352.188,264.517z"/>
	</g>
</g>
<g>
	<g>
		<path d="M352.188,304.595h-80.157c-4.15,0-7.515,3.364-7.515,7.515c0,4.151,3.365,7.515,7.515,7.515h80.157
			c4.15,0,7.515-3.364,7.515-7.515C359.703,307.958,356.338,304.595,352.188,304.595z"/>
	</g>
</g>
<g>
</g>
<g>
</g>
<g>
</g>
<g>
</g>
<g>
</g>
<g>
</g>
<g>
</g>
<g>
</g>
<g>
</g>
<g>
</g>
<g>
</g>
<g>
</g>
<g>
</g>
<g>
</g>
<g>
</g>
</svg>
