<?xml version="1.0" encoding="iso-8859-1"?>
<!-- Generator: Adobe Illustrator 19.0.0, SVG Export Plug-In . SVG Version: 6.00 Build 0)  -->
<svg version="1.1" id="Capa_1" xmlns="http://www.w3.org/2000/svg" xmlns:xlink="http://www.w3.org/1999/xlink" x="0px" y="0px"
	 viewBox="0 0 512 512" style="enable-background:new 0 0 512 512;" xml:space="preserve">
<g>
	<g>
		<path d="M384.251,0H127.75c-12.983,0-23.546,10.563-23.546,23.546v464.908c0,12.983,10.563,23.546,23.546,23.546h256.501
			c12.983,0,23.546-10.563,23.546-23.546V23.546C407.796,10.563,397.234,0,384.251,0z M392.767,488.454
			c0,4.696-3.82,8.517-8.517,8.517H127.75c-4.696,0-8.517-3.82-8.517-8.517v-40.579h273.534V488.454z M392.767,64.125H179.851
			c-4.15,0-7.515,3.364-7.515,7.515c0,4.151,3.365,7.515,7.515,7.515h212.916v353.691H119.233V79.155h25.55
			c4.15,0,7.515-3.364,7.515-7.515c0-4.151-3.365-7.515-7.515-7.515h-25.55V23.546c0-4.696,3.82-8.517,8.517-8.517h256.501
			c4.696,0,8.517,3.82,8.517,8.517V64.125z"/>
	</g>
</g>
<g>
	<g>
		<circle cx="256" cy="39.577" r="7.515"/>
	</g>
</g>
<g>
	<g>
		<circle cx="287.562" cy="40.078" r="7.515"/>
	</g>
</g>
<g>
	<g>
		<circle cx="224.438" cy="40.078" r="7.515"/>
	</g>
</g>
<g>
	<g>
		<path d="M280.047,464.908h-48.094c-4.15,0-7.515,3.364-7.515,7.515c0,4.151,3.365,7.515,7.515,7.515h48.094
			c4.151,0,7.515-3.364,7.515-7.515C287.562,468.272,284.198,464.908,280.047,464.908z"/>
	</g>
</g>
<g>
	<g>
		<path d="M256,96.188c-52.762,0-95.687,42.925-95.687,95.687c0,75.104,87.541,139.633,91.267,142.343
			c2.606,1.895,6.233,1.896,8.839,0c3.727-2.71,91.267-67.239,91.267-142.343C351.687,139.113,308.762,96.188,256,96.188z
			 M256,318.643c-17.469-13.93-80.658-68.368-80.658-126.769c0-44.475,36.183-80.658,80.658-80.658s80.658,36.183,80.658,80.658
			C336.658,250.276,273.468,304.715,256,318.643z"/>
	</g>
</g>
<g>
	<g>
		<path d="M256,136.266c-30.663,0-55.609,24.946-55.609,55.609s24.946,55.609,55.609,55.609s55.609-24.946,55.609-55.609
			S286.663,136.266,256,136.266z M256,232.454c-22.376,0-40.579-18.204-40.579-40.579c0-22.376,18.204-40.579,40.579-40.579
			c22.376,0,40.579,18.204,40.579,40.579C296.579,214.25,278.376,232.454,256,232.454z"/>
	</g>
</g>
<g>
	<g>
		<path d="M294.074,339.663c-2.49-3.319-7.201-3.992-10.521-1.503L256,358.826l-27.554-20.665
			c-3.319-2.488-8.031-1.817-10.521,1.503s-1.817,8.031,1.503,10.521l32.063,24.047c2.642,1.981,6.375,1.982,9.018,0l32.063-24.047
			C295.891,347.694,296.564,342.983,294.074,339.663z"/>
	</g>
</g>
<g>
	<g>
		<path d="M294.074,371.726c-2.49-3.318-7.201-3.992-10.521-1.503L256,390.888l-27.554-20.665
			c-3.319-2.488-8.031-1.817-10.521,1.503s-1.817,8.031,1.503,10.521l32.063,24.047c2.642,1.981,6.375,1.982,9.018,0l32.063-24.047
			C295.891,379.757,296.564,375.045,294.074,371.726z"/>
	</g>
</g>
<g>
	<g>
		<circle cx="256" cy="175.843" r="7.515"/>
	</g>
</g>
<g>
	<g>
		<path d="M256,192.376c-4.15,0-7.515,3.364-7.515,7.515v16.031c0,4.151,3.365,7.515,7.515,7.515c4.151,0,7.515-3.364,7.515-7.515
			V199.89C263.515,195.739,260.151,192.376,256,192.376z"/>
	</g>
</g>
<g>
</g>
<g>
</g>
<g>
</g>
<g>
</g>
<g>
</g>
<g>
</g>
<g>
</g>
<g>
</g>
<g>
</g>
<g>
</g>
<g>
</g>
<g>
</g>
<g>
</g>
<g>
</g>
<g>
</g>
</svg>
