<?xml version="1.0" encoding="iso-8859-1"?>
<!-- Generator: Adobe Illustrator 19.0.0, SVG Export Plug-In . SVG Version: 6.00 Build 0)  -->
<svg version="1.1" id="Capa_1" xmlns="http://www.w3.org/2000/svg" xmlns:xlink="http://www.w3.org/1999/xlink" x="0px" y="0px"
	 viewBox="0 0 512 512" style="enable-background:new 0 0 512 512;" xml:space="preserve">
<g>
	<g>
		<path d="M256,345.205c-4.15,0-7.515,3.364-7.515,7.515v47.092c0,13.536-11.013,24.548-24.548,24.548h-88.172
			c-2.017,0-3.948,0.811-5.361,2.249l-42.552,43.326l-0.682-38.195c-0.073-4.098-3.416-7.38-7.514-7.38H39.577
			c-13.535,0-24.548-11.011-24.548-24.548V232.484c0-13.536,11.013-24.548,24.548-24.548h84.498c4.15,0,7.515-3.364,7.515-7.515
			s-3.365-7.515-7.515-7.515H39.577C17.755,192.907,0,210.662,0,232.484v167.327c0,21.823,17.755,39.577,39.577,39.577h32.697
			l0.871,48.729c0.115,6.506,8.297,9.794,12.875,5.131l52.898-53.86h85.019c21.823,0,39.577-17.755,39.577-39.577v-47.092
			C263.515,348.568,260.15,345.205,256,345.205z"/>
	</g>
</g>
<g>
	<g>
		<path d="M135.765,305.126h-16.031c-12.983,0-23.546,10.563-23.546,23.546v56.11c0,12.983,10.563,23.546,23.546,23.546h16.031
			c12.983,0,23.546-10.563,23.546-23.546v-56.11C159.311,315.689,148.749,305.126,135.765,305.126z M144.282,384.782
			c0,4.696-3.82,8.517-8.517,8.517h-16.031c-4.696,0-8.517-3.82-8.517-8.517v-56.11c0-4.696,3.82-8.517,8.517-8.517h16.031
			c4.696,0,8.517,3.82,8.517,8.517V384.782z"/>
	</g>
</g>
<g>
	<g>
		<path d="M152.927,255.58c-4.008-1.086-8.134,1.283-9.218,5.289c-1.944,7.18-8.508,12.195-15.959,12.195
			c-9.116,0-16.532-7.417-16.532-16.532c0-9.116,7.417-16.532,16.532-16.532c1.473,0,2.933,0.192,4.339,0.573
			c4.007,1.082,8.132-1.286,9.215-5.292c1.084-4.007-1.286-8.133-5.292-9.216c-2.685-0.726-5.465-1.094-8.262-1.094
			c-17.403,0-31.562,14.159-31.562,31.562c0,17.403,14.159,31.562,31.562,31.562c14.224,0,26.752-9.58,30.466-23.297
			C159.301,260.791,156.932,256.665,152.927,255.58z"/>
	</g>
</g>
<g>
	<g>
		<path d="M445.71,53.479c-3.364-2.433-8.061-1.677-10.494,1.685c-2.433,3.362-1.678,8.061,1.684,10.493
			c38.176,27.614,60.07,67.969,60.07,110.717c0,54.481-35.141,103.841-91.708,128.815c-2.722,1.202-4.48,3.899-4.48,6.874v40.348
			l-37.043-31.751c-1.659-1.422-3.853-2.049-6.018-1.724c-9.717,1.474-19.669,2.221-29.581,2.221
			c-93.093,0-168.83-64.949-168.83-144.783s75.737-144.783,168.83-144.783c27.083,0,52.95,5.336,76.884,15.861
			c3.798,1.674,8.233-0.055,9.904-3.854c1.67-3.799-0.055-8.234-3.854-9.904c-25.852-11.369-53.756-17.133-82.934-17.133
			c-101.38,0-183.859,71.692-183.859,159.812s82.479,159.812,183.859,159.812c9.5,0,19.037-0.639,28.402-1.9l46.864,40.169
			c4.787,4.104,12.405,0.565,12.405-5.705v-51.857c27.752-13.1,51.219-32.222,68.079-55.528C502.28,235.947,512,206.558,512,176.375
			C512,128.748,487.838,83.954,445.71,53.479z"/>
	</g>
</g>
<g>
	<g>
		<path d="M328.141,56.641c-52.762,0-95.687,42.925-95.687,95.687c0,75.104,87.541,139.633,91.267,142.343
			c2.606,1.895,6.233,1.895,8.839,0c3.726-2.71,91.267-67.239,91.267-142.343C423.828,99.566,380.903,56.641,328.141,56.641z
			 M328.141,279.097c-17.469-13.93-80.658-68.368-80.658-126.769c0-44.475,36.183-80.658,80.658-80.658
			c44.475,0,80.658,36.183,80.658,80.658C408.798,210.729,345.608,265.168,328.141,279.097z"/>
	</g>
</g>
<g>
	<g>
		<path d="M328.141,96.719c-30.663,0-55.609,24.946-55.609,55.609s24.946,55.609,55.609,55.609
			c30.663,0,55.609-24.946,55.609-55.609S358.804,96.719,328.141,96.719z M328.141,192.907c-22.376,0-40.579-18.204-40.579-40.579
			c0-22.376,18.204-40.579,40.579-40.579c22.376,0,40.579,18.204,40.579,40.579C368.72,174.704,350.517,192.907,328.141,192.907z"/>
	</g>
</g>
<g>
</g>
<g>
</g>
<g>
</g>
<g>
</g>
<g>
</g>
<g>
</g>
<g>
</g>
<g>
</g>
<g>
</g>
<g>
</g>
<g>
</g>
<g>
</g>
<g>
</g>
<g>
</g>
<g>
</g>
</svg>
