<?xml version="1.0" encoding="iso-8859-1"?>
<!-- Generator: Adobe Illustrator 19.0.0, SVG Export Plug-In . SVG Version: 6.00 Build 0)  -->
<svg version="1.1" id="Capa_1" xmlns="http://www.w3.org/2000/svg" xmlns:xlink="http://www.w3.org/1999/xlink" x="0px" y="0px"
	 viewBox="0 0 511.999 511.999" style="enable-background:new 0 0 511.999 511.999;" xml:space="preserve">
<g>
	<g>
		<path d="M256,0C154.613,0,72.129,82.484,72.129,183.871c0,32.162,9.497,69.406,28.227,110.696
			c14.818,32.666,35.444,68.004,61.305,105.033c43.912,62.874,88.464,109.647,88.908,110.112c2.917,3.049,7.945,3.049,10.862,0
			c0.445-0.465,44.997-47.238,88.908-110.112c25.861-37.03,46.488-72.367,61.305-105.033c18.73-41.291,28.227-78.534,28.227-110.696
			C439.871,82.484,357.386,0,256,0z M338.135,390.824c-34.333,49.183-69.052,88.354-82.136,102.652
			c-13.083-14.298-47.802-53.468-82.136-102.652c-56.722-81.256-86.705-152.819-86.705-206.953
			C87.159,90.772,162.901,15.03,256,15.03S424.84,90.772,424.84,183.871C424.84,238.004,394.859,309.568,338.135,390.824z"/>
	</g>
</g>
<g>
	<g>
		<path d="M354.753,90.692c-2.848-3.017-7.604-3.154-10.623-0.307c-3.018,2.849-3.155,7.605-0.307,10.623
			c21.229,22.491,32.92,51.919,32.92,82.862c0,66.578-54.165,120.744-120.744,120.744s-120.744-54.165-120.744-120.744
			S189.421,63.127,256,63.127c21.208,0,42.063,5.573,60.313,16.117c3.593,2.075,8.19,0.847,10.267-2.748
			c2.076-3.593,0.847-8.19-2.748-10.267C303.3,54.368,279.844,48.097,256,48.097c-74.866,0-135.774,60.908-135.774,135.774
			S181.134,319.645,256,319.645s135.774-60.908,135.774-135.774C391.774,149.076,378.626,115.984,354.753,90.692z"/>
	</g>
</g>
<g>
	<g>
		<path d="M320.129,128.259H191.87c-4.15,0-7.515,3.365-7.515,7.515V248c0,4.15,3.365,7.515,7.515,7.515h128.259
			c4.15,0,7.515-3.365,7.515-7.515V135.774C327.644,131.624,324.279,128.259,320.129,128.259z M239.466,143.289h33.067v34.556
			l-12.365-8.244c-2.497-1.664-5.84-1.665-8.337,0l-12.365,8.244V143.289z M312.614,240.485H199.385v-97.196h25.051v48.598
			c0,5.882,6.779,9.524,11.684,6.253L256,184.886l19.88,13.254c4.91,3.275,11.684-0.378,11.684-6.253v-48.598h25.051V240.485z"/>
	</g>
</g>
<g>
	<g>
		<path d="M223.935,208.421c-4.15,0-7.515,3.365-7.515,7.515v8.016c0,4.15,3.365,7.515,7.515,7.515s7.515-3.365,7.515-7.515v-8.016
			C231.45,211.785,228.085,208.421,223.935,208.421z"/>
	</g>
</g>
<g>
	<g>
		<path d="M247.983,208.421c-4.15,0-7.515,3.365-7.515,7.515v8.016c0,4.15,3.365,7.515,7.515,7.515s7.515-3.365,7.515-7.515v-8.016
			C255.499,211.785,252.134,208.421,247.983,208.421z"/>
	</g>
</g>
<g>
	<g>
		<path d="M288.064,208.421c-4.15,0-7.515,3.365-7.515,7.515v8.016c0,4.15,3.365,7.515,7.515,7.515s7.515-3.365,7.515-7.515v-8.016
			C295.579,211.785,292.215,208.421,288.064,208.421z"/>
	</g>
</g>
<g>
</g>
<g>
</g>
<g>
</g>
<g>
</g>
<g>
</g>
<g>
</g>
<g>
</g>
<g>
</g>
<g>
</g>
<g>
</g>
<g>
</g>
<g>
</g>
<g>
</g>
<g>
</g>
<g>
</g>
</svg>
