<?xml version="1.0" encoding="iso-8859-1"?>
<!-- Generator: Adobe Illustrator 19.0.0, SVG Export Plug-In . SVG Version: 6.00 Build 0)  -->
<svg version="1.1" id="Capa_1" xmlns="http://www.w3.org/2000/svg" xmlns:xlink="http://www.w3.org/1999/xlink" x="0px" y="0px"
	 viewBox="0 0 512 512" style="enable-background:new 0 0 512 512;" xml:space="preserve">
<g>
	<g>
		<path d="M480.438,16.031H31.562C14.159,16.031,0,30.19,0,47.593V384.25c0,17.403,14.159,31.562,31.562,31.562h175.403
			l-5.921,65.127h-17.185c-4.15,0-7.515,3.365-7.515,7.515c0,4.15,3.365,7.515,7.515,7.515h144.282c4.15,0,7.515-3.365,7.515-7.515
			c0-4.15-3.365-7.515-7.515-7.515h-17.185l-5.921-65.127h175.403c17.403,0,31.562-14.159,31.562-31.562V47.593
			C512,30.19,497.841,16.031,480.438,16.031z M216.135,480.939l5.921-65.127h67.889l5.921,65.127H216.135z M496.971,352.689h-56.944
			c-4.15,0-7.515,3.365-7.515,7.515c0,4.15,3.365,7.515,7.515,7.515h56.944v16.532c0,9.116-7.417,16.532-16.532,16.532H31.562
			c-9.116,0-16.532-7.417-16.532-16.532v-16.532h389.26c4.15,0,7.515-3.365,7.515-7.515c0-4.15-3.365-7.515-7.515-7.515H15.029
			V79.155h481.941V352.689z M496.971,64.125H15.029V47.593c0-9.116,7.417-16.532,16.532-16.532h448.877
			c9.116,0,16.532,7.417,16.532,16.532V64.125z"/>
	</g>
</g>
<g>
	<g>
		<path d="M272.031,376.736h-32.063c-4.15,0-7.515,3.365-7.515,7.515s3.365,7.515,7.515,7.515h32.063
			c4.15,0,7.515-3.365,7.515-7.515S276.181,376.736,272.031,376.736z"/>
	</g>
</g>
<g>
	<g>
		<path d="M264.016,40.078h-16.031c-4.15,0-7.515,3.365-7.515,7.515s3.365,7.515,7.515,7.515h16.031c4.15,0,7.515-3.365,7.515-7.515
			S268.166,40.078,264.016,40.078z"/>
	</g>
</g>
<g>
	<g>
		<path d="M169.075,324.193l-49.386-95.687c-2.745-5.319-10.61-5.32-13.355,0l-49.387,95.687c-2.998,5.808,2.687,12.568,8.919,10.62
			l47.145-14.733l47.145,14.733C166.399,336.762,172.07,329.995,169.075,324.193z M115.253,305.034c-1.46-0.456-3.024-0.456-4.484,0
			l-32.217,10.068l34.459-66.764l34.459,66.764L115.253,305.034z"/>
	</g>
</g>
<g>
	<g>
		<path d="M400.282,96.188c-26.242,0-47.593,21.351-47.593,47.593c0,32.794,40.553,73.725,42.28,75.45
			c2.893,2.894,7.735,2.894,10.627,0c1.726-1.725,42.28-42.656,42.28-75.45C447.875,117.539,426.524,96.188,400.282,96.188z
			 M400.282,202.961c-12.366-13.763-32.564-40.225-32.564-59.181c0-17.955,14.609-32.564,32.564-32.564s32.564,14.609,32.564,32.564
			C432.845,162.738,412.646,189.201,400.282,202.961z"/>
	</g>
</g>
<g>
	<g>
		<path d="M400.282,121.237c-12.431,0-22.544,10.113-22.544,22.544s10.113,22.544,22.544,22.544s22.544-10.113,22.544-22.544
			S412.713,121.237,400.282,121.237z M400.282,151.295c-4.144,0-7.515-3.371-7.515-7.515s3.371-7.515,7.515-7.515
			s7.515,3.371,7.515,7.515S404.426,151.295,400.282,151.295z"/>
	</g>
</g>
<g>
	<g>
		<path d="M111.718,188.368c-4.15,0-7.515,3.365-7.515,7.515v4.008c0,4.15,3.365,7.515,7.515,7.515s7.515-3.365,7.515-7.515v-4.008
			C119.233,191.732,115.868,188.368,111.718,188.368z"/>
	</g>
</g>
<g>
	<g>
		<path d="M199.89,199.911c-4.15,0-7.515,3.365-7.515,7.515v8.295c0,4.15,3.365,7.515,7.515,7.515c4.15,0,7.515-3.365,7.515-7.515
			v-8.295C207.405,203.275,204.041,199.911,199.89,199.911z"/>
	</g>
</g>
<g>
	<g>
		<path d="M111.718,146.891c-4.15,0-7.515,3.365-7.515,7.515v8.295c0,4.15,3.365,7.515,7.515,7.515s7.515-3.365,7.515-7.515v-8.295
			C119.233,150.255,115.868,146.891,111.718,146.891z"/>
	</g>
</g>
<g>
	<g>
		<path d="M131.6,113.175c-2.377-3.403-7.062-4.234-10.464-1.857c-2.797,1.954-5.333,4.263-7.542,6.865
			c-2.685,3.164-2.297,7.906,0.868,10.592c3.123,2.65,7.944,2.254,10.592-0.867c1.374-1.619,2.952-3.055,4.69-4.269
			C133.146,121.262,133.977,116.578,131.6,113.175z"/>
	</g>
</g>
<g>
	<g>
		<path d="M199.89,158.434c-4.15,0-7.515,3.365-7.515,7.515v8.295c0,4.15,3.365,7.515,7.515,7.515c4.15,0,7.515-3.365,7.515-7.515
			v-8.295C207.405,161.799,204.041,158.434,199.89,158.434z"/>
	</g>
</g>
<g>
	<g>
		<path d="M288.063,270.316c-4.15,0-7.515,3.365-7.515,7.515v8.295c0,4.15,3.365,7.515,7.515,7.515s7.515-3.365,7.515-7.515v-8.295
			C295.577,273.681,292.213,270.316,288.063,270.316z"/>
	</g>
</g>
<g>
	<g>
		<path d="M298.217,231.418c-3.393-2.389-8.082-1.576-10.47,1.818c-1.971,2.798-3.57,5.841-4.753,9.043
			c-1.759,4.76,1.801,10.01,6.885,10.119c2.362,0.05,4.665-1.045,6.11-2.916c0.841-1.088,1.21-2.385,1.771-3.619
			c0.632-1.392,1.396-2.723,2.275-3.973C302.425,238.495,301.61,233.808,298.217,231.418z"/>
	</g>
</g>
<g>
	<g>
		<path d="M330.87,216.423h-8.295c-4.15,0-7.515,3.365-7.515,7.515s3.365,7.515,7.515,7.515h8.295c4.15,0,7.515-3.365,7.515-7.515
			S335.02,216.423,330.87,216.423z"/>
	</g>
</g>
<g>
	<g>
		<path d="M165.725,104.203h-8.295c-4.15,0-7.515,3.365-7.515,7.515s3.365,7.515,7.515,7.515h8.295c4.15,0,7.515-3.365,7.515-7.515
			S169.875,104.203,165.725,104.203z"/>
	</g>
</g>
<g>
	<g>
		<path d="M280.229,310.358c-2.334-3.429-7.008-4.319-10.44-1.983c-1.263,0.86-2.607,1.602-4.008,2.211
			c-1.174,0.51-2.411,0.842-3.469,1.585c-1.852,1.301-3.038,3.425-3.179,5.683c-0.329,5.278,5.005,9.306,9.994,7.553
			c3.22-1.131,6.287-2.682,9.119-4.609C281.676,318.464,282.565,313.789,280.229,310.358z"/>
	</g>
</g>
<g>
	<g>
		<path d="M199.89,241.387c-4.15,0-7.515,3.365-7.515,7.515v8.295c0,4.15,3.365,7.515,7.515,7.515c4.15,0,7.515-3.365,7.515-7.515
			v-8.295C207.405,244.752,204.041,241.387,199.89,241.387z"/>
	</g>
</g>
<g>
	<g>
		<path d="M205.104,130.455c-1.148-3.212-2.714-6.269-4.653-9.088c-2.353-3.419-7.032-4.284-10.45-1.931
			c-3.419,2.353-4.283,7.032-1.931,10.45c1.202,1.747,2.172,3.641,2.883,5.629c1.098,3.071,3.991,4.986,7.076,4.986
			C203.151,140.501,206.823,135.264,205.104,130.455z"/>
	</g>
</g>
<g>
	<g>
		<path d="M208.728,296.039c-0.684-1.995-1.108-4.08-1.259-6.198c-0.296-4.14-3.896-7.265-8.031-6.961
			c-4.14,0.296-7.256,3.891-6.961,8.031c0.243,3.415,0.929,6.782,2.036,10.008c1.07,3.117,3.986,5.077,7.107,5.077
			C206.702,305.996,210.374,300.835,208.728,296.039z"/>
	</g>
</g>
<g>
	<g>
		<path d="M233.657,312.611h-1.704c-1.692,0-3.381-0.172-5.017-0.511c-4.062-0.843-8.041,1.768-8.883,5.832
			c-0.843,4.064,1.768,8.041,5.832,8.883c2.638,0.547,5.352,0.825,8.068,0.825h1.704c4.15,0,7.515-3.365,7.515-7.515
			S237.807,312.611,233.657,312.611z"/>
	</g>
</g>
<g>
	<g>
		<path d="M368.219,216.423h-4.008c-4.15,0-7.515,3.365-7.515,7.515s3.365,7.515,7.515,7.515h4.008c4.15,0,7.515-3.365,7.515-7.515
			S372.369,216.423,368.219,216.423z"/>
	</g>
</g>
<g>
</g>
<g>
</g>
<g>
</g>
<g>
</g>
<g>
</g>
<g>
</g>
<g>
</g>
<g>
</g>
<g>
</g>
<g>
</g>
<g>
</g>
<g>
</g>
<g>
</g>
<g>
</g>
<g>
</g>
</svg>
