<?xml version="1.0" encoding="iso-8859-1"?>
<!-- Generator: Adobe Illustrator 19.0.0, SVG Export Plug-In . SVG Version: 6.00 Build 0)  -->
<svg version="1.1" id="Capa_1" xmlns="http://www.w3.org/2000/svg" xmlns:xlink="http://www.w3.org/1999/xlink" x="0px" y="0px"
	 viewBox="0 0 511.999 511.999" style="enable-background:new 0 0 511.999 511.999;" xml:space="preserve">
<g>
	<g>
		<path d="M473.774,210.623l-26.754-26.752l26.751-26.751c4.636-4.637,1.237-12.829-5.315-12.829h-56.113
			c-1.993,0-3.904,0.792-5.315,2.201l-5.908,5.908C386.149,65.955,310.613,0,219.955,0C118.567,0,36.084,82.484,36.084,183.871
			c0,32.162,9.497,69.406,28.227,110.696c14.817,32.666,35.443,68.004,61.306,105.033c43.912,62.874,88.462,109.647,88.908,110.112
			c2.917,3.049,7.945,3.049,10.862,0c0.445-0.465,44.996-47.238,88.908-110.112c25.862-37.03,46.489-72.367,61.306-105.033
			c12.909-28.458,21.429-54.993,25.48-79.267l5.95,5.95c1.41,1.41,3.321,2.201,5.315,2.201h56.113
			C475.009,223.452,478.41,215.26,473.774,210.623z M172.548,64.419c1.301,3.94,5.551,6.081,9.493,4.778
			c12.192-4.027,24.947-6.069,37.913-6.069c64.054,0,116.609,50.138,120.503,113.228h-25.104
			c-3.652-46.785-41.098-84.232-87.884-87.884v-8.811c0-4.15-3.364-7.515-7.515-7.515c-4.151,0-7.515,3.365-7.515,7.515v8.811
			c-46.786,3.652-84.232,41.098-87.884,87.884h-8.811c-4.151,0-7.515,3.365-7.515,7.515s3.364,7.515,7.515,7.515h8.811
			c3.652,46.785,41.098,84.232,87.884,87.884v8.811c0,4.15,3.364,7.515,7.515,7.515c4.151,0,7.515-3.365,7.515-7.515v-8.811
			c46.786-3.652,84.232-41.098,87.884-87.884h25.104c-3.894,63.09-56.449,113.228-120.503,113.228
			c-66.578,0-120.744-54.165-120.744-120.744c0-39.208,19.158-76.126,51.248-98.752c3.392-2.392,4.202-7.08,1.812-10.472
			s-7.079-4.203-10.473-1.812c-36.078,25.438-57.616,66.947-57.616,111.036c0,74.866,60.908,135.774,135.774,135.774
			c72.344,0,131.649-56.875,135.563-128.259h21.648l10.571,10.571c-5.727,51.575-35.029,116.355-85.647,188.866
			c-34.333,49.183-69.052,88.354-82.136,102.652c-13.083-14.298-47.802-53.468-82.136-102.652
			c-56.722-81.256-86.705-152.819-86.705-206.953c0-93.099,75.742-168.841,168.841-168.841c86.961,0,158.77,66.087,167.861,150.675
			l-10.651,10.651h-21.648c-3.914-71.384-63.219-128.259-135.563-128.259c-14.571,0-28.913,2.298-42.628,6.829
			C173.385,56.227,171.246,60.478,172.548,64.419z M219.955,191.386h23.368c-3.182,9.871-12.452,17.034-23.368,17.034
			c-13.537,0-24.549-11.013-24.549-24.55s11.012-24.549,24.549-24.549c10.916,0,20.187,7.163,23.368,17.034h-23.368
			c-4.151,0-7.515,3.365-7.515,7.515S215.804,191.386,219.955,191.386z M219.955,144.291c-21.824,0-39.58,17.756-39.58,39.58
			s17.756,39.58,39.58,39.58c19.255,0,35.333-13.823,38.855-32.065h41.446c-3.574,38.49-34.296,69.211-72.785,72.785V248
			c0-4.15-3.364-7.515-7.515-7.515s-7.515,3.365-7.515,7.515v16.171c-38.49-3.574-69.211-34.296-72.785-72.785h16.171
			c4.151,0,7.515-3.365,7.515-7.515s-3.364-7.515-7.515-7.515h-16.171c3.574-38.49,34.296-69.211,72.785-72.785v16.171
			c0,4.15,3.364,7.515,7.515,7.515s7.515-3.365,7.515-7.515v-16.171c38.49,3.574,69.211,34.296,72.785,72.785H258.81
			C255.288,158.114,239.209,144.291,219.955,144.291z M415.456,159.321h34.857l-17.034,17.034H403.66
			c-0.067-1.663-0.155-3.32-0.267-4.971L415.456,159.321z M415.456,208.421l-12.088-12.088c0.119-1.663,0.198-3.307,0.272-4.946
			h29.641l17.034,17.034H415.456z"/>
	</g>
</g>
<g>
</g>
<g>
</g>
<g>
</g>
<g>
</g>
<g>
</g>
<g>
</g>
<g>
</g>
<g>
</g>
<g>
</g>
<g>
</g>
<g>
</g>
<g>
</g>
<g>
</g>
<g>
</g>
<g>
</g>
</svg>
