<?xml version="1.0" encoding="iso-8859-1"?>
<!-- Generator: Adobe Illustrator 19.0.0, SVG Export Plug-In . SVG Version: 6.00 Build 0)  -->
<svg version="1.1" id="Capa_1" xmlns="http://www.w3.org/2000/svg" xmlns:xlink="http://www.w3.org/1999/xlink" x="0px" y="0px"
	 viewBox="0 0 512.001 512.001" style="enable-background:new 0 0 512.001 512.001;" xml:space="preserve">
<g>
	<g>
		<path d="M256.001,96.153c-88.14,0-159.848,71.707-159.848,159.848s71.708,159.848,159.848,159.848s159.848-71.707,159.848-159.848
			S344.141,96.153,256.001,96.153z M256.001,400.816c-79.852,0-144.815-64.963-144.815-144.815s64.963-144.815,144.815-144.815
			s144.815,64.963,144.815,144.815S335.852,400.816,256.001,400.816z"/>
	</g>
</g>
<g>
	<g>
		<path d="M332.68,153.778c-3.319-2.491-8.03-1.824-10.524,1.495c-2.493,3.319-1.824,8.031,1.494,10.524
			c28.659,21.53,45.095,54.407,45.095,90.202c0,62.168-50.577,112.746-112.745,112.746c-62.168,0-112.746-50.577-112.746-112.746
			S193.832,143.254,256,143.254c12.899,0,25.544,2.158,37.584,6.414c3.919,1.382,8.208-0.668,9.592-4.582
			c1.384-3.914-0.667-8.208-4.581-9.592c-13.654-4.827-27.985-7.274-42.595-7.274c-70.457,0-127.778,57.321-127.778,127.778
			S185.543,383.777,256,383.777s127.778-57.321,127.778-127.778C383.78,215.434,365.155,178.174,332.68,153.778z"/>
	</g>
</g>
<g>
	<g>
		<path d="M324.125,201.522l-64.14-40.087c-2.437-1.524-5.53-1.524-7.966,0l-64.14,40.087c-2.198,1.374-3.533,3.782-3.533,6.374
			v104.227c0,4.151,3.364,7.516,7.516,7.516h40.087c4.152,0,7.516-3.365,7.516-7.516V255.5h33.072v56.623
			c-0.001,4.151,3.363,7.516,7.515,7.516h40.087c4.152,0,7.516-3.365,7.516-7.516V207.896
			C327.657,205.304,326.322,202.896,324.125,201.522z M312.625,304.607H287.57v-56.623c0-4.151-3.364-7.516-7.516-7.516h-48.105
			c-4.152,0-7.516,3.365-7.516,7.516v56.623h-25.055v-92.545l56.623-35.39l56.623,35.39V304.607z"/>
	</g>
</g>
<g>
	<g>
		<path d="M309.006,73.415L262.255,3.29c-2.923-4.386-9.584-4.387-12.507,0l-46.75,70.126c-3.754,5.631,1.621,13.151,8.154,11.442
			c14.58-3.809,29.669-5.742,44.85-5.742c15.18,0,30.27,1.932,44.85,5.742C307.39,86.566,312.757,79.044,309.006,73.415z
			 M256.001,64.083c-10.174,0-20.312,0.801-30.307,2.388l30.307-45.461l30.307,45.461C276.312,64.884,266.175,64.083,256.001,64.083
			z"/>
	</g>
</g>
<g>
	<g>
		<path d="M79.115,256.001c0-15.182,1.932-30.272,5.741-44.849c1.709-6.529-5.811-11.911-11.441-8.155L3.29,249.746
			c-4.387,2.922-4.387,9.585,0,12.507l70.126,46.75c5.64,3.763,13.146-1.631,11.441-8.153
			C81.047,286.273,79.115,271.183,79.115,256.001z M66.47,286.308l-45.461-30.307l45.461-30.307
			c-1.587,9.994-2.388,20.132-2.388,30.307C64.083,266.175,64.883,276.313,66.47,286.308z"/>
	</g>
</g>
<g>
	<g>
		<path d="M300.851,427.145c-14.579,3.809-29.669,5.742-44.85,5.742c-15.181,0-30.271-1.931-44.85-5.742
			c-6.531-1.704-11.91,5.808-8.155,11.442l46.75,70.125c2.923,4.386,9.584,4.387,12.507,0l46.75-70.125
			C312.76,432.953,307.382,425.441,300.851,427.145z M256.001,490.992l-30.307-45.461c19.989,3.174,40.626,3.174,60.614,0
			L256.001,490.992z"/>
	</g>
</g>
<g>
	<g>
		<path d="M508.712,249.746l-70.126-46.75c-5.63-3.755-13.15,1.622-11.441,8.155c3.809,14.577,5.742,29.667,5.742,44.849
			c0,15.182-1.932,30.272-5.742,44.85c-1.704,6.522,5.8,11.917,11.441,8.155l70.126-46.75
			C513.097,259.332,513.097,252.67,508.712,249.746z M445.531,286.308c1.588-9.995,2.388-20.133,2.388-30.307
			c0-10.174-0.801-20.313-2.388-30.307l45.461,30.307L445.531,286.308z"/>
	</g>
</g>
<g>
	<g>
		<path d="M149.18,105.486c-2.539-3.283-7.261-3.884-10.544-1.344c-2.184,1.691-4.363,3.455-6.479,5.242
			c-5.225,4.417-2.017,13.256,4.856,13.256c1.714,0,3.438-0.583,4.849-1.776c1.951-1.65,3.962-3.277,5.976-4.835
			C151.119,113.49,151.721,108.768,149.18,105.486z"/>
	</g>
</g>
<g>
	<g>
		<path d="M119.251,132.068c-3.185-2.662-7.925-2.237-10.587,0.947c-1.775,2.125-3.529,4.317-5.211,6.517
			c-3.699,4.838-0.162,12.082,5.964,12.082c2.172,0,4.247-0.957,5.677-2.586c1.79-2.038,3.362-4.29,5.104-6.374
			C122.86,139.47,122.436,134.73,119.251,132.068z"/>
	</g>
</g>
<g>
	<g>
		<path d="M93.436,163.717c-2.644-0.415-5.286,0.609-6.992,2.655c-1.6,1.918-2.426,4.332-3.496,6.555
			c-1.302,2.705-2.414,5.256-1.21,8.23c1.133,2.805,3.929,4.696,6.96,4.696c2.833,0,5.547-1.61,6.821-4.348
			c1.082-2.328,2.226-4.652,3.398-6.907C101.243,170.128,98.427,164.5,93.436,163.717z"/>
	</g>
</g>
<g>
	<g>
		<path d="M184.109,85.973c-1.773-3.753-6.252-5.358-10.007-3.586c-2.614,1.236-5.357,2.423-7.825,3.935
			c-1.893,1.159-3.206,3.132-3.547,5.327c-0.691,4.454,2.936,8.627,7.433,8.627c1.181,0,2.38-0.28,3.498-0.868
			c2.254-1.189,4.564-2.341,6.863-3.427C184.277,94.206,185.883,89.726,184.109,85.973z"/>
	</g>
</g>
<g>
	<g>
		<path d="M148.664,396.607c-2.028-1.55-4.05-3.167-6.009-4.804c-3.185-2.662-7.925-2.238-10.587,0.947s-2.237,7.925,0.947,10.587
			c2.125,1.775,4.317,3.529,6.517,5.211c2.996,2.29,7.314,1.848,9.946-0.795C152.602,404.619,152.172,399.291,148.664,396.607z"/>
	</g>
</g>
<g>
	<g>
		<path d="M120.865,370.139c-1.651-1.95-3.277-3.961-4.835-5.975c-2.541-3.282-7.262-3.884-10.544-1.343
			c-3.283,2.54-3.884,7.261-1.344,10.544c1.691,2.184,3.455,4.363,5.242,6.479c2.431,2.875,6.644,3.343,9.791,1.372
			C122.962,378.845,123.763,373.569,120.865,370.139z"/>
	</g>
</g>
<g>
	<g>
		<path d="M99.406,338.34c-1.188-2.254-2.341-4.564-3.427-6.863c-1.774-3.753-6.254-5.359-10.007-3.585
			c-3.753,1.773-5.358,6.252-3.586,10.007c1.18,2.495,2.431,5.002,3.721,7.45c1.875,3.557,6.45,5.031,10.033,3.198
			C99.821,346.664,101.34,342.012,99.406,338.34z"/>
	</g>
</g>
<g>
	<g>
		<path d="M181.505,416.481c-2.328-1.082-4.652-2.226-6.907-3.398c-4.47-2.325-10.098,0.491-10.881,5.482
			c-0.415,2.644,0.609,5.286,2.655,6.992c1.918,1.6,4.332,2.426,6.555,3.497c2.705,1.301,5.256,2.413,8.23,1.21
			C187.125,427.847,187.333,419.191,181.505,416.481z"/>
	</g>
</g>
<g>
	<g>
		<path d="M402.585,360.386c-2.262,0-4.497,1.016-5.977,2.951c-1.55,2.028-3.167,4.05-4.804,6.009
			c-2.627,3.143-2.195,7.961,0.947,10.587c3.143,2.627,7.961,2.195,10.587-0.947c1.775-2.125,3.529-4.317,5.211-6.517
			C412.249,367.632,408.711,360.386,402.585,360.386z"/>
	</g>
</g>
<g>
	<g>
		<path d="M430.264,330.844c-1.134-2.804-3.93-4.696-6.961-4.696c-2.833,0-5.547,1.61-6.821,4.348
			c-1.082,2.328-2.226,4.652-3.398,6.907c-2.085,4.008,0.049,9.206,4.342,10.607c2.45,0.8,5.196,0.237,7.166-1.414
			c2.281-1.913,3.214-4.928,4.463-7.522C430.355,336.369,431.468,333.817,430.264,330.844z"/>
	</g>
</g>
<g>
	<g>
		<path d="M374.989,389.36c-1.714,0-3.438,0.583-4.849,1.776c-1.371,1.16-2.76,2.298-4.166,3.415
			c-1.096,0.872-2.308,1.662-3.172,2.783c-1.464,1.903-1.929,4.465-1.233,6.763c1.503,4.959,7.703,6.93,11.796,3.762
			c2.184-1.691,4.363-3.455,6.479-5.242C385.07,398.2,381.862,389.36,374.989,389.36z"/>
	</g>
</g>
<g>
	<g>
		<path d="M349.226,417.808c-0.682-3.492-3.832-6.082-7.388-6.082c-1.181,0-2.38,0.28-3.498,0.868
			c-1.584,0.836-3.183,1.647-4.792,2.433c-1.258,0.614-2.61,1.124-3.693,2.033c-1.84,1.542-2.846,3.944-2.662,6.337
			c0.399,5.167,6.027,8.425,10.707,6.217c2.495-1.18,5.002-2.431,7.45-3.721C348.248,424.366,349.854,421.025,349.226,417.808z"/>
	</g>
</g>
<g>
	<g>
		<path d="M429.615,174.102c-1.18-2.495-2.431-5.002-3.721-7.45c-1.527-2.897-4.868-4.503-8.085-3.875
			c-3.492,0.68-6.082,3.831-6.082,7.387c0,1.181,0.28,2.38,0.868,3.498c1.189,2.254,2.341,4.564,3.427,6.863
			c1.75,3.703,6.304,5.335,10.007,3.585C429.734,182.359,431.363,177.806,429.615,174.102z"/>
	</g>
</g>
<g>
	<g>
		<path d="M346.082,86.854c-1.936-1.894-4.619-2.756-7.009-3.906c-2.705-1.302-5.256-2.414-8.23-1.21
			c-2.803,1.135-4.695,3.93-4.695,6.961c0,2.833,1.61,5.547,4.348,6.821c2.328,1.082,4.652,2.226,6.907,3.398
			c4.47,2.325,10.098-0.491,10.881-5.482C348.661,91.034,347.818,88.551,346.082,86.854z"/>
	</g>
</g>
<g>
	<g>
		<path d="M378.987,108.664c-2.125-1.775-4.317-3.529-6.517-5.211c-4.838-3.698-12.082-0.161-12.082,5.965
			c-0.001,2.261,1.015,4.496,2.95,5.976c2.028,1.55,4.05,3.167,6.009,4.804c3.143,2.627,7.961,2.195,10.587-0.947
			C382.561,116.108,382.129,111.29,378.987,108.664z"/>
	</g>
</g>
<g>
	<g>
		<path d="M407.86,138.635c-1.691-2.184-3.454-4.363-5.242-6.479c-4.418-5.224-13.257-2.017-13.257,4.857
			c0,1.714,0.583,3.437,1.776,4.849c1.651,1.95,3.277,3.961,4.836,5.975c2.541,3.282,7.262,3.884,10.544,1.343
			C409.799,146.64,410.401,141.918,407.86,138.635z"/>
	</g>
</g>
<g>
</g>
<g>
</g>
<g>
</g>
<g>
</g>
<g>
</g>
<g>
</g>
<g>
</g>
<g>
</g>
<g>
</g>
<g>
</g>
<g>
</g>
<g>
</g>
<g>
</g>
<g>
</g>
<g>
</g>
</svg>
