<?xml version="1.0" encoding="iso-8859-1"?>
<!-- Generator: Adobe Illustrator 19.0.0, SVG Export Plug-In . SVG Version: 6.00 Build 0)  -->
<svg version="1.1" id="Capa_1" xmlns="http://www.w3.org/2000/svg" xmlns:xlink="http://www.w3.org/1999/xlink" x="0px" y="0px"
	 viewBox="0 0 512 512" style="enable-background:new 0 0 512 512;" xml:space="preserve">
<g>
	<g>
		<path d="M384.251,0H127.75c-12.983,0-23.546,10.563-23.546,23.546v464.908c0,12.983,10.563,23.546,23.546,23.546h256.501
			c12.983,0,23.546-10.563,23.546-23.546V23.546C407.796,10.563,397.234,0,384.251,0z M392.767,488.454
			c0,4.696-3.82,8.517-8.517,8.517H127.75c-4.696,0-8.517-3.82-8.517-8.517v-40.579h273.534V488.454z M392.767,64.125h-204.9
			c-4.151,0-7.515,3.365-7.515,7.515c0,4.15,3.364,7.515,7.515,7.515h204.9v353.691H119.233V79.155h33.065
			c4.151,0,7.515-3.365,7.515-7.515c0-4.15-3.364-7.515-7.515-7.515h-33.065V23.546c0-4.696,3.82-8.517,8.517-8.517h256.501
			c4.696,0,8.517,3.82,8.517,8.517V64.125z"/>
	</g>
</g>
<g>
	<g>
		<circle cx="256" cy="39.577" r="7.515"/>
	</g>
</g>
<g>
	<g>
		<circle cx="287.562" cy="40.078" r="7.515"/>
	</g>
</g>
<g>
	<g>
		<circle cx="224.438" cy="40.078" r="7.515"/>
	</g>
</g>
<g>
	<g>
		<path d="M280.047,464.908h-48.094c-4.151,0-7.515,3.365-7.515,7.515c0,4.15,3.364,7.515,7.515,7.515h48.094
			c4.151,0,7.515-3.365,7.515-7.515C287.562,468.273,284.198,464.908,280.047,464.908z"/>
	</g>
</g>
<g>
	<g>
		<path d="M256,216.423c-39.502,0-71.64,32.138-71.64,71.64c0,50.625,63.618,114.825,66.326,117.533
			c2.895,2.894,7.734,2.894,10.628,0c2.708-2.707,66.327-66.908,66.327-117.533C327.64,248.56,295.502,216.423,256,216.423z
			 M256,389.365c-15.01-16.286-56.611-64.722-56.611-101.302c0-31.215,25.396-56.611,56.611-56.611s56.611,25.396,56.611,56.611
			C312.611,324.642,271.01,373.079,256,389.365z"/>
	</g>
</g>
<g>
	<g>
		<path d="M256,248.485c-21.823,0-39.577,17.755-39.577,39.577S234.177,327.64,256,327.64s39.577-17.755,39.577-39.577
			S277.823,248.485,256,248.485z M256,312.611c-13.536,0-24.548-11.012-24.548-24.548s11.012-24.548,24.548-24.548
			s24.548,11.013,24.548,24.548S269.536,312.611,256,312.611z"/>
	</g>
</g>
<g>
	<g>
		<path d="M346.333,133.606c-24.13-24.13-56.211-37.418-90.333-37.418s-66.203,13.288-90.332,37.417
			c-2.895,2.895-2.895,7.732,0,10.627c2.896,2.896,7.732,2.896,10.628,0.001c21.29-21.291,49.596-33.016,79.705-33.016
			c30.109,0,58.415,11.725,79.705,33.016c3.057,3.056,8.217,2.851,11.028-0.431C349.25,140.861,349.069,136.341,346.333,133.606z"/>
	</g>
</g>
<g>
	<g>
		<path d="M289.653,190.286c-8.989-8.991-20.94-13.941-33.653-13.941s-24.664,4.951-33.654,13.94
			c-2.896,2.896-2.895,7.732,0.001,10.628c2.896,2.896,7.732,2.894,10.627,0c6.15-6.151,14.327-9.538,23.025-9.538
			c8.698,0,16.876,3.387,23.025,9.538c1.468,1.467,3.391,2.201,5.314,2.201C290.909,203.114,294.282,194.915,289.653,190.286z"/>
	</g>
</g>
<g>
	<g>
		<path d="M317.993,161.945c-16.558-16.559-38.575-25.679-61.993-25.679s-45.435,9.12-61.993,25.678
			c-2.896,2.896-2.894,7.732,0.001,10.627c2.896,2.896,7.731,2.895,10.627,0c13.72-13.719,31.962-21.276,51.365-21.276
			s37.646,7.557,51.365,21.277c1.467,1.468,3.39,2.201,5.313,2.201C319.25,174.773,322.622,166.574,317.993,161.945z"/>
	</g>
</g>
<g>
</g>
<g>
</g>
<g>
</g>
<g>
</g>
<g>
</g>
<g>
</g>
<g>
</g>
<g>
</g>
<g>
</g>
<g>
</g>
<g>
</g>
<g>
</g>
<g>
</g>
<g>
</g>
<g>
</g>
</svg>
