<?xml version="1.0" encoding="iso-8859-1"?>
<!-- Generator: Adobe Illustrator 19.0.0, SVG Export Plug-In . SVG Version: 6.00 Build 0)  -->
<svg version="1.1" id="Capa_1" xmlns="http://www.w3.org/2000/svg" xmlns:xlink="http://www.w3.org/1999/xlink" x="0px" y="0px"
	 viewBox="0 0 512 512" style="enable-background:new 0 0 512 512;" xml:space="preserve">
<g>
	<g>
		<path d="M384.251,0H127.75c-12.983,0-23.546,10.563-23.546,23.546v464.908c0,12.983,10.563,23.546,23.546,23.546h256.501
			c12.983,0,23.546-10.563,23.546-23.546V23.546C407.796,10.563,397.234,0,384.251,0z M392.767,488.454
			c0,4.696-3.82,8.517-8.517,8.517H127.75c-4.696,0-8.517-3.82-8.517-8.517v-40.579h273.534V488.454z M392.767,64.125h-204.9
			c-4.151,0-7.515,3.365-7.515,7.515c0,4.15,3.364,7.515,7.515,7.515h204.9v353.691H119.233V79.155h33.065
			c4.151,0,7.515-3.365,7.515-7.515c0-4.15-3.364-7.515-7.515-7.515h-33.065V23.546c0-4.696,3.82-8.517,8.517-8.517h256.501
			c4.696,0,8.517,3.82,8.517,8.517V64.125z"/>
	</g>
</g>
<g>
	<g>
		<circle cx="256" cy="39.577" r="7.515"/>
	</g>
</g>
<g>
	<g>
		<circle cx="287.562" cy="40.078" r="7.515"/>
	</g>
</g>
<g>
	<g>
		<circle cx="224.438" cy="40.078" r="7.515"/>
	</g>
</g>
<g>
	<g>
		<path d="M280.047,464.908h-48.094c-4.151,0-7.515,3.365-7.515,7.515c0,4.15,3.364,7.515,7.515,7.515h48.094
			c4.151,0,7.515-3.365,7.515-7.515C287.562,468.273,284.198,464.908,280.047,464.908z"/>
	</g>
</g>
<g>
	<g>
		<path d="M183.859,290.568c-26.242,0-47.593,21.351-47.593,47.593c0,32.794,40.553,73.725,42.279,75.45
			c2.895,2.894,7.734,2.894,10.628,0c1.726-1.725,42.28-42.656,42.28-75.45C231.452,311.918,210.101,290.568,183.859,290.568z
			 M183.859,397.341c-12.366-13.763-32.564-40.225-32.564-59.181c0-17.955,14.608-32.564,32.564-32.564
			c17.956,0,32.564,14.609,32.564,32.564C216.423,357.117,196.224,383.58,183.859,397.341z"/>
	</g>
</g>
<g>
	<g>
		<path d="M183.859,315.616c-12.43,0-22.544,10.113-22.544,22.544s10.114,22.544,22.544,22.544c12.43,0,22.544-10.113,22.544-22.544
			S196.289,315.616,183.859,315.616z M183.859,345.675c-4.144,0-7.515-3.371-7.515-7.515s3.371-7.515,7.515-7.515
			c4.144,0,7.515,3.371,7.515,7.515S188.003,345.675,183.859,345.675z"/>
	</g>
</g>
<g>
	<g>
		<path d="M328.141,96.188c-26.242,0-47.593,21.351-47.593,47.593c0,32.794,40.553,73.725,42.279,75.45
			c1.411,1.41,3.322,2.201,5.314,2.201c1.993,0,3.904-0.792,5.314-2.201c1.725-1.725,42.279-42.656,42.279-75.45
			C375.734,117.539,354.383,96.188,328.141,96.188z M328.141,202.961c-12.366-13.763-32.564-40.225-32.564-59.181
			c0-17.955,14.608-32.564,32.564-32.564c17.956,0,32.564,14.609,32.564,32.564C360.705,162.738,340.506,189.201,328.141,202.961z"
			/>
	</g>
</g>
<g>
	<g>
		<path d="M328.062,121.257c-12.43,0-22.544,10.113-22.544,22.544s10.114,22.544,22.544,22.544c12.43,0,22.544-10.113,22.544-22.544
			S340.492,121.257,328.062,121.257z M328.062,151.316c-4.144,0-7.515-3.371-7.515-7.515s3.371-7.515,7.515-7.515
			c4.144,0,7.515,3.371,7.515,7.515S332.206,151.316,328.062,151.316z"/>
	</g>
</g>
<g>
	<g>
		<path d="M235.961,400.783h-4.008c-4.151,0-7.515,3.365-7.515,7.515c0,4.15,3.364,7.515,7.515,7.515h4.008
			c4.151,0,7.515-3.365,7.515-7.515C243.476,404.147,240.112,400.783,235.961,400.783z"/>
	</g>
</g>
<g>
	<g>
		<path d="M313.755,400.783h-7.78c-4.151,0-7.515,3.365-7.515,7.515c0,4.15,3.364,7.515,7.515,7.515h7.78
			c4.151,0,7.515-3.365,7.515-7.515C321.27,404.147,317.905,400.783,313.755,400.783z"/>
	</g>
</g>
<g>
	<g>
		<path d="M320.678,320.626h-7.779c-4.151,0-7.515,3.365-7.515,7.515c0,4.15,3.364,7.515,7.515,7.515h7.779
			c4.151,0,7.515-3.365,7.515-7.515C328.193,323.991,324.828,320.626,320.678,320.626z"/>
	</g>
</g>
<g>
	<g>
		<path d="M274.857,400.783h-7.779c-4.151,0-7.515,3.365-7.515,7.515c0,4.15,3.364,7.515,7.515,7.515h7.779
			c4.151,0,7.515-3.365,7.515-7.515C282.372,404.147,279.008,400.783,274.857,400.783z"/>
	</g>
</g>
<g>
	<g>
		<path d="M258.647,302.05c-0.905-1.899-1.625-3.891-2.142-5.922c-1.023-4.023-5.116-6.453-9.135-5.431
			c-4.022,1.023-6.453,5.113-5.431,9.135c0.756,2.979,1.813,5.901,3.139,8.683c1.856,3.892,6.766,5.43,10.515,3.291
			C258.965,309.883,260.315,305.552,258.647,302.05z"/>
	</g>
</g>
<g>
	<g>
		<path d="M282.974,320.231c-2.078-0.326-4.13-0.856-6.098-1.576c-3.9-1.425-8.212,0.578-9.639,4.475
			c-1.428,3.898,0.575,8.213,4.474,9.64c2.886,1.056,5.891,1.834,8.935,2.31c4.154,0.649,8.129-2.366,8.626-6.54
			C289.744,324.581,286.911,320.85,282.974,320.231z"/>
	</g>
</g>
<g>
	<g>
		<path d="M262.894,255.983c-3.118-2.738-7.867-2.429-10.605,0.69c-2.028,2.311-3.84,4.827-5.383,7.48
			c-2.089,3.587-0.874,8.187,2.712,10.275c2.551,1.484,5.812,1.318,8.199-0.415c1.234-0.897,1.915-2.086,2.714-3.348
			c0.91-1.436,1.932-2.8,3.053-4.078C266.321,263.469,266.013,258.72,262.894,255.983z"/>
	</g>
</g>
<g>
	<g>
		<path d="M375.732,367.738c-0.028-4.132-3.388-7.463-7.514-7.463c-0.018,0-0.035,0-0.053,0c-4.15,0.028-7.492,3.416-7.463,7.566
			l0.002,0.378c0,2-0.182,4.001-0.54,5.947c-0.721,3.92,1.861,7.829,5.753,8.695c4.104,0.914,8.266-1.839,9.028-5.974
			c0.523-2.842,0.789-5.758,0.789-8.669L375.732,367.738z"/>
	</g>
</g>
<g>
	<g>
		<path d="M292.855,240.47h-4.795c-1.178,0-2.366,0.044-3.53,0.129c-4.139,0.305-7.247,3.906-6.944,8.046
			c0.289,3.952,3.585,6.965,7.486,6.965c0.185,0,0.372-0.007,0.559-0.021c0.802-0.059,1.621-0.089,2.433-0.089h4.791
			c4.151,0,7.515-3.365,7.515-7.515C300.37,243.834,297.006,240.47,292.855,240.47z"/>
	</g>
</g>
<g>
	<g>
		<path d="M357.293,396.722c-2.386-3.397-7.071-4.215-10.468-1.83c-1.318,0.926-2.705,1.753-4.145,2.474
			c-1.108,0.554-2.245,0.987-3.196,1.805c-1.715,1.476-2.687,3.706-2.607,5.967c0.186,5.227,5.773,8.724,10.56,6.599
			c2.808-1.247,5.51-2.776,8.029-4.546C358.86,404.805,359.679,400.117,357.293,396.722z"/>
	</g>
</g>
<g>
	<g>
		<path d="M361.746,334.519c-2.177-2.171-4.574-4.14-7.123-5.848c-3.445-2.312-8.115-1.39-10.426,2.057
			c-2.312,3.448-1.391,8.116,2.057,10.426c1.745,1.169,3.388,2.518,4.88,4.007c3.06,3.052,8.22,2.84,11.026-0.446
			C364.674,341.771,364.486,337.252,361.746,334.519z"/>
	</g>
</g>
<g>
	<g>
		<path d="M328.141,240.47h-4.008c-4.151,0-7.515,3.365-7.515,7.515c0,4.15,3.364,7.515,7.515,7.515h4.008
			c4.151,0,7.515-3.365,7.515-7.515C335.656,243.834,332.292,240.47,328.141,240.47z"/>
	</g>
</g>
<g>
</g>
<g>
</g>
<g>
</g>
<g>
</g>
<g>
</g>
<g>
</g>
<g>
</g>
<g>
</g>
<g>
</g>
<g>
</g>
<g>
</g>
<g>
</g>
<g>
</g>
<g>
</g>
<g>
</g>
</svg>
