<?xml version="1.0" encoding="iso-8859-1"?>
<!-- Generator: Adobe Illustrator 19.0.0, SVG Export Plug-In . SVG Version: 6.00 Build 0)  -->
<svg version="1.1" id="Capa_1" xmlns="http://www.w3.org/2000/svg" xmlns:xlink="http://www.w3.org/1999/xlink" x="0px" y="0px"
	 viewBox="0 0 512.001 512.001" style="enable-background:new 0 0 512.001 512.001;" xml:space="preserve">
<g>
	<g>
		<path d="M424.21,0c-43.9,0-79.617,35.716-79.617,79.617c0,41.367,31.715,75.453,72.106,79.252v97.006
			c0,4.148,3.363,7.511,7.511,7.511s7.511-3.363,7.511-7.511v-97.006c40.39-3.799,72.106-37.885,72.106-79.252
			C503.827,35.716,468.111,0,424.21,0z M424.21,144.211c-35.617,0-64.595-28.977-64.595-64.595s28.977-64.595,64.595-64.595
			s64.595,28.977,64.595,64.595S459.828,144.211,424.21,144.211z"/>
	</g>
</g>
<g>
	<g>
		<path d="M424.21,32.047c-4.148,0-7.511,3.363-7.511,7.511s3.363,7.511,7.511,7.511c17.946,0,32.548,14.601,32.548,32.548
			c0,4.093,3.418,7.511,7.511,7.511c4.093,0,7.511-3.418,7.511-7.511C471.78,53.387,450.44,32.047,424.21,32.047z"/>
	</g>
</g>
<g>
	<g>
		<path d="M451.604,289.216l-10.599-5.3l10.599-5.3c3.71-1.855,5.215-6.366,3.359-10.077s-6.365-5.215-10.077-3.359l-20.676,10.338
			l-20.676-10.338c-3.711-1.857-8.222-0.351-10.077,3.359c-1.856,3.71-0.352,8.222,3.359,10.077l10.6,5.3l-10.599,5.3
			c-3.59,1.795-5.168,6.343-3.409,9.96c1.806,3.712,6.417,5.332,10.127,3.476l20.676-10.338l20.676,10.338
			c3.912,1.957,8.772,0.062,10.359-3.999C456.639,295.087,455.024,290.925,451.604,289.216z"/>
	</g>
</g>
<g>
	<g>
		<path d="M170.761,315.087c-0.164-2.806-1.881-5.285-4.45-6.425c-2.569-1.141-5.559-0.753-7.75,1.008l-80.246,64.413
			c-3.235,2.597-3.753,7.324-1.156,10.558c2.596,3.234,7.324,3.753,10.558,1.156l68.897-55.303l9.171,156.534l-54.841-48.18
			c-1.148-1.008-2.577-1.643-4.095-1.819l-72.516-8.381L61.677,406.7c3.192-2.562,3.717-7.368,1.156-10.558
			c-2.562-3.192-7.368-3.718-10.558-1.156L10.91,428.187c-5.099,4.093-2.641,12.569,3.84,13.319l88.045,10.176l66.585,58.498
			c4.915,4.319,12.837,0.421,12.456-6.082L170.761,315.087z"/>
	</g>
</g>
<g>
	<g>
		<path d="M167.834,272.399c-4.148,0-7.511,3.363-7.511,7.511v8.012c0,4.148,3.363,7.511,7.511,7.511s7.511-3.363,7.511-7.511
			v-8.012C175.345,275.762,171.982,272.399,167.834,272.399z"/>
	</g>
</g>
<g>
	<g>
		<path d="M287.723,146.897c-3.834-4.76-8.265-9.018-13.17-12.658c-3.332-2.471-8.035-1.774-10.507,1.557
			c-2.472,3.332-1.775,8.036,1.557,10.507c3.882,2.879,7.388,6.249,10.422,10.016c1.484,1.843,3.659,2.8,5.855,2.8
			C288.082,159.12,291.596,151.704,287.723,146.897z"/>
	</g>
</g>
<g>
	<g>
		<path d="M240.894,120.733c-6.021-0.753-12.246-0.738-18.258,0.042c-4.114,0.534-7.016,4.301-6.482,8.414
			c0.491,3.786,3.72,6.546,7.439,6.546c0.321,0,0.648-0.021,0.975-0.063c4.758-0.616,9.697-0.628,14.461-0.033
			c4.118,0.517,7.87-2.406,8.384-6.521C247.931,125.001,245.01,121.248,240.894,120.733z"/>
	</g>
</g>
<g>
	<g>
		<path d="M302.566,179.987c-0.679-4.093-4.551-6.857-8.639-6.18c-4.092,0.679-6.859,4.547-6.18,8.639
			c0.508,3.06,0.765,6.201,0.765,9.336v5.793h-0.001c0,4.148,3.363,7.511,7.511,7.511c4.148,0,7.511-3.363,7.511-7.511v-5.793
			C303.533,187.825,303.208,183.857,302.566,179.987z"/>
	</g>
</g>
<g>
	<g>
		<path d="M199.558,135.944c-2.488-3.32-7.195-3.996-10.515-1.51c-4.889,3.661-9.302,7.941-13.113,12.718
			c-2.348,2.943-2.114,7.317,0.548,9.985c3.127,3.134,8.436,2.842,11.195-0.615c3.015-3.781,6.507-7.166,10.375-10.063
			C201.368,143.972,202.045,139.264,199.558,135.944z"/>
	</g>
</g>
<g>
	<g>
		<path d="M296.022,272.107c-4.148,0-7.511,3.363-7.511,7.511v16.409c0,4.148,3.363,7.511,7.511,7.511
			c4.148,0,7.511-3.363,7.511-7.511v-16.409C303.533,275.47,300.17,272.107,296.022,272.107z"/>
	</g>
</g>
<g>
	<g>
		<path d="M167.834,223.172c-4.148,0-7.511,3.363-7.511,7.511v16.409c0,4.149,3.363,7.511,7.511,7.511s7.511-3.363,7.511-7.511
			v-16.409C175.345,226.535,171.982,223.172,167.834,223.172z"/>
	</g>
</g>
<g>
	<g>
		<path d="M169.849,174.089c-4.095-0.663-7.951,2.125-8.611,6.22c-0.607,3.768-0.915,7.627-0.915,11.472v6.085
			c0,4.148,3.363,7.511,7.511,7.511s7.511-3.363,7.511-7.511v-6.085c0-3.047,0.243-6.101,0.724-9.081
			C176.729,178.605,173.944,174.75,169.849,174.089z"/>
	</g>
</g>
<g>
	<g>
		<path d="M404.649,446.786c-2.497-3.311-7.205-3.974-10.519-1.477c-3.867,2.913-8.088,5.318-12.549,7.148
			c-3.587,1.472-5.495,5.586-4.29,9.274c1.337,4.094,6.002,6.261,9.995,4.623c5.649-2.318,10.993-5.363,15.885-9.049
			C406.483,454.808,407.145,450.099,404.649,446.786z"/>
	</g>
</g>
<g>
	<g>
		<path d="M296.022,321.334c-4.148,0-7.511,3.363-7.511,7.511v16.409c0,4.148,3.363,7.511,7.511,7.511
			c4.148,0,7.511-3.363,7.511-7.511v-16.409C303.533,324.697,300.17,321.334,296.022,321.334z"/>
	</g>
</g>
<g>
	<g>
		<path d="M424.21,353.487c-4.148,0-7.511,3.363-7.511,7.511v16.409c0,4.148,3.363,7.511,7.511,7.511s7.511-3.363,7.511-7.511
			v-16.409C431.721,356.85,428.358,353.487,424.21,353.487z"/>
	</g>
</g>
<g>
	<g>
		<path d="M353.176,456.248c-4.798-0.586-9.501-1.788-13.98-3.57c-3.857-1.538-8.222,0.346-9.757,4.199
			c-1.535,3.854,0.346,8.222,4.199,9.757c5.678,2.261,11.64,3.784,17.718,4.527c4.115,0.502,7.959-2.561,8.38-6.686
			C360.147,460.456,357.19,456.738,353.176,456.248z"/>
	</g>
</g>
<g>
	<g>
		<path d="M424.594,402.762c-4.099-0.65-7.944,2.148-8.593,6.245c-0.755,4.771-2.123,9.429-4.066,13.843
			c-1.561,3.549-0.081,7.835,3.345,9.655c3.809,2.024,8.67,0.339,10.405-3.604c2.463-5.597,4.197-11.501,5.154-17.547
			C431.487,407.257,428.691,403.41,424.594,402.762z"/>
	</g>
</g>
<g>
	<g>
		<path d="M316.128,435.678c-3.048-3.763-5.602-7.898-7.59-12.29c-1.711-3.779-6.163-5.455-9.94-3.745
			c-3.78,1.711-5.456,6.16-3.747,9.94c2.517,5.561,5.748,10.794,9.604,15.553c2.754,3.398,7.974,3.685,11.097,0.631
			C318.285,443.095,318.53,438.645,316.128,435.678z"/>
	</g>
</g>
<g>
	<g>
		<path d="M296.022,222.88c-4.148,0-7.511,3.363-7.511,7.511v16.409c0,4.148,3.363,7.511,7.511,7.511
			c4.148,0,7.511-3.363,7.511-7.511v-16.409C303.533,226.243,300.17,222.88,296.022,222.88z"/>
	</g>
</g>
<g>
	<g>
		<path d="M296.022,370.56c-4.148,0-7.511,3.363-7.511,7.511v16.409c0,4.148,3.363,7.511,7.511,7.511
			c4.148,0,7.511-3.363,7.511-7.511v-16.409C303.533,373.923,300.17,370.56,296.022,370.56z"/>
	</g>
</g>
<g>
	<g>
		<path d="M424.21,312.458c-4.148,0-7.511,3.363-7.511,7.511v8.012c0,4.148,3.363,7.511,7.511,7.511s7.511-3.363,7.511-7.511v-8.012
			C431.721,315.821,428.358,312.458,424.21,312.458z"/>
	</g>
</g>
<g>
</g>
<g>
</g>
<g>
</g>
<g>
</g>
<g>
</g>
<g>
</g>
<g>
</g>
<g>
</g>
<g>
</g>
<g>
</g>
<g>
</g>
<g>
</g>
<g>
</g>
<g>
</g>
<g>
</g>
</svg>
