<?xml version="1.0" encoding="iso-8859-1"?>
<!-- Generator: Adobe Illustrator 19.0.0, SVG Export Plug-In . SVG Version: 6.00 Build 0)  -->
<svg version="1.1" id="Capa_1" xmlns="http://www.w3.org/2000/svg" xmlns:xlink="http://www.w3.org/1999/xlink" x="0px" y="0px"
	 viewBox="0 0 512 512" style="enable-background:new 0 0 512 512;" xml:space="preserve">
<g>
	<g>
		<path d="M506.955,248.845L385.271,206.52l69.817-139.632c1.431-2.862,0.855-6.413-1.408-8.676
			c-2.263-2.263-5.815-2.839-8.676-1.408L305.372,126.62L263.047,4.936c-2.274-6.594-11.914-6.567-14.199,0L206.523,126.62
			L66.891,56.804c-2.862-1.432-6.414-0.855-8.676,1.408c-2.263,2.263-2.839,5.815-1.408,8.676l69.817,139.632L4.938,248.845
			c-6.587,2.281-6.574,11.912,0,14.199l121.684,42.325L56.807,445.001c-1.36,2.719-0.917,6.072,1.098,8.346
			c2.232,2.517,5.972,3.246,8.985,1.738l139.632-69.816l42.325,121.684c1.029,2.983,3.942,5.034,7.085,5.046
			c3.147,0.012,6.08-2.075,7.113-5.046l42.325-121.684l139.632,69.816c3.013,1.507,6.753,0.78,8.986-1.738
			c2.016-2.274,2.458-5.627,1.098-8.346l-69.817-139.632l121.684-42.325c2.964-1.027,5.012-3.905,5.042-7.032
			C512.022,252.83,509.966,249.893,506.955,248.845z M431.558,80.333L370.954,201.54L325.99,185.9l-15.64-44.964L431.558,80.333z
			 M80.336,80.333l121.207,60.603l-15.64,44.964l-44.964,15.64L80.336,80.333z M189.826,200.453l47.976,47.975H51.896
			L189.826,200.453z M51.896,263.461h185.905l-47.975,47.975L51.896,263.461z M80.336,431.555l60.603-121.207l44.964,15.64
			l15.64,44.964L80.336,431.555z M248.431,459.995l-47.975-137.929l47.975-47.976V459.995z M255.947,140.194
			c-4.151,0-7.516,3.365-7.516,7.516v90.089l-47.975-47.976l47.975-137.93v60.74c0,4.151,3.365,7.516,7.516,7.516
			c4.151,0,7.516-3.365,7.516-7.516v-60.74l47.975,137.93l-47.975,47.976v-90.089C263.464,143.56,260.098,140.194,255.947,140.194z
			 M263.464,459.996V274.09l47.975,47.976L263.464,459.996z M431.558,431.555l-121.206-60.603l15.64-44.964l44.964-15.64
			L431.558,431.555z M322.069,311.436l-47.976-47.975h185.905L322.069,311.436z M274.093,248.428l47.976-47.975l137.93,47.975
			H274.093z"/>
	</g>
</g>
<g>
</g>
<g>
</g>
<g>
</g>
<g>
</g>
<g>
</g>
<g>
</g>
<g>
</g>
<g>
</g>
<g>
</g>
<g>
</g>
<g>
</g>
<g>
</g>
<g>
</g>
<g>
</g>
<g>
</g>
</svg>
