<?xml version="1.0" encoding="iso-8859-1"?>
<!-- Generator: Adobe Illustrator 19.0.0, SVG Export Plug-In . SVG Version: 6.00 Build 0)  -->
<svg version="1.1" id="Capa_1" xmlns="http://www.w3.org/2000/svg" xmlns:xlink="http://www.w3.org/1999/xlink" x="0px" y="0px"
	 viewBox="0 0 511.999 511.999" style="enable-background:new 0 0 511.999 511.999;" xml:space="preserve">
<g>
	<g>
		<path d="M255.999,0C154.611,0,72.128,82.484,72.128,183.871c0,32.162,9.497,69.406,28.227,110.696
			c14.817,32.666,35.444,68.004,61.306,105.033c43.912,62.874,88.463,109.647,88.908,110.112c2.917,3.049,7.945,3.049,10.862,0
			c0.445-0.465,44.996-47.238,88.908-110.112c25.862-37.03,46.489-72.367,61.306-105.033c18.73-41.291,28.227-78.534,28.227-110.696
			C439.87,82.484,357.386,0,255.999,0z M338.134,390.824c-34.333,49.183-69.052,88.354-82.136,102.652
			c-13.083-14.298-47.802-53.468-82.136-102.652c-56.722-81.256-86.705-152.819-86.705-206.953
			c0-93.099,75.742-168.841,168.841-168.841s168.841,75.742,168.841,168.841C424.839,238.004,394.857,309.568,338.134,390.824z"/>
	</g>
</g>
<g>
	<g>
		<path d="M332.373,71.599c-2.785-1.899-5.634-3.795-8.601-5.4c-2.143-1.16-4.729-1.257-6.93-0.183
			c-4.529,2.206-5.607,8.384-2.099,11.996c1.152,1.186,2.724,1.897,4.12,2.751c1.708,1.044,3.391,2.13,5.045,3.258
			c33.084,22.546,52.835,59.874,52.835,99.852c0,66.578-54.165,120.744-120.744,120.744S135.255,250.45,135.255,183.872
			S189.42,63.127,255.999,63.127c10.228,0,20.386,1.28,30.193,3.804c4.022,1.038,8.117-1.386,9.151-5.405
			c1.034-4.02-1.386-8.117-5.406-9.151c-11.029-2.839-22.447-4.279-33.938-4.279c-74.866,0-135.774,60.908-135.774,135.774
			s60.908,135.775,135.774,135.775s135.774-60.908,135.774-135.774C391.773,138.918,369.567,96.947,332.373,71.599z"/>
	</g>
</g>
<g>
	<g>
		<path d="M350.189,147.298l-24.049-32.065c-2.701-3.601-8.14-3.992-11.327-0.805l-82.863,82.864l-26.75-26.752
			c-2.646-2.645-6.833-2.941-9.824-0.698l-32.065,24.049c-3.763,2.822-3.978,8.571-0.439,11.669l64.129,56.113
			c2.86,2.502,7.278,2.437,10.062-0.148l112.226-104.21C352.11,154.697,352.496,150.374,350.189,147.298z M231.801,245.9
			l-52.053-45.547l19.433-14.575l27.455,27.455c2.936,2.935,7.693,2.935,10.628,0l82.051-82.051l14.791,19.721L231.801,245.9z"/>
	</g>
</g>
<g>
</g>
<g>
</g>
<g>
</g>
<g>
</g>
<g>
</g>
<g>
</g>
<g>
</g>
<g>
</g>
<g>
</g>
<g>
</g>
<g>
</g>
<g>
</g>
<g>
</g>
<g>
</g>
<g>
</g>
</svg>
