<?xml version="1.0" encoding="iso-8859-1"?>
<!-- Generator: Adobe Illustrator 19.0.0, SVG Export Plug-In . SVG Version: 6.00 Build 0)  -->
<svg version="1.1" id="Capa_1" xmlns="http://www.w3.org/2000/svg" xmlns:xlink="http://www.w3.org/1999/xlink" x="0px" y="0px"
	 viewBox="0 0 512 512" style="enable-background:new 0 0 512 512;" xml:space="preserve">
<g>
	<g>
		<path d="M455.173,116.755c7.146-14.644,12.04-29.831,12.04-43.976C467.213,32.649,434.564,0,394.433,0
			c-25.981,0-48.812,13.695-61.692,34.235c-14.118-4.131-28.683-7.003-43.358-8.514c-4.187-0.435-7.944,2.618-8.376,6.813
			c-0.432,4.194,2.619,7.944,6.813,8.375c12.886,1.326,25.685,3.762,38.13,7.247c-2.775,7.695-4.295,15.984-4.295,24.623
			c0,51.43,64.63,116.651,67.38,119.402c2.941,2.94,7.857,2.94,10.797,0c1.737-1.738,28.148-28.389,47.379-60.746
			c15.693,20.932,27.472,43.934,35.101,68.333L371.58,211.424c-1.976,0.209-3.794,1.179-5.066,2.706
			c-1.147,1.376-28.233,33.928-42.104,54.776c-15.689,1.044-30.038,7.065-41.459,16.519l-1.439-8.632l-9.84-58.699
			c-0.3-1.793-1.23-3.418-2.621-4.587l-59.038-49.538c-1.126-0.945-2.502-1.544-3.961-1.726l-60.492-7.562
			c-7.433-21.253-24.454-38.027-45.859-45.126C140.365,67.335,194.554,42.693,253.3,39.95c4.212-0.196,7.466-3.77,7.27-7.981
			c-0.196-4.211-3.77-7.486-7.981-7.27c-33.172,1.548-65.07,9.657-94.809,24.098c-28.825,13.998-54.288,33.268-75.684,57.274
			c-1.734-0.124-3.479-0.21-5.244-0.21c-40.13,0-72.779,32.649-72.779,72.779c0,18.131,8.036,37.974,18.558,56.192
			c-1.505,10.99-2.272,22.218-2.272,33.383c0,65.118,25.359,126.337,71.403,172.382C137.806,486.641,199.026,512,264.143,512
			c65.118,0,126.337-25.359,172.382-71.403c46.045-46.045,71.403-107.265,71.403-172.382
			C507.928,212.571,489.685,160.218,455.173,116.755z M394.433,175.692c-15.249-16.545-57.511-65.752-57.511-102.913
			c0-31.711,25.799-57.511,57.511-57.511s57.511,25.799,57.511,57.511C451.944,109.941,409.682,159.148,394.433,175.692z
			 M329.288,283.992c31.711,0,57.511,25.799,57.511,57.511c0,37.161-42.262,86.368-57.511,102.913
			c-15.249-16.545-57.511-65.752-57.511-102.913C271.777,309.792,297.577,283.992,329.288,283.992z M19.34,178.64
			c0-31.711,25.799-57.511,57.511-57.511s57.511,25.8,57.511,57.511c0,37.161-42.261,86.368-57.511,102.913
			C61.601,265.008,19.34,215.801,19.34,178.64z M35.626,268.215c0-4.223,0.121-8.456,0.352-12.68
			c16.738,23.614,34.078,41.111,35.475,42.507c2.939,2.94,7.858,2.94,10.796,0c1.436-1.436,19.736-19.901,36.901-44.537
			l29.782,67.009c0.637,1.435,1.702,2.638,3.049,3.446l43.963,26.378l-19.743,59.829l-51.143,39.231
			C70.716,407.583,35.626,341.924,35.626,268.215z M138.033,458.685l49.324-37.836c1.215-0.932,2.122-2.21,2.603-3.665l22.394-67.86
			c1.119-3.39-0.261-7.102-3.321-8.938l-47.129-28.278l-32.832-73.873c11.489-19.127,20.559-40.329,20.559-59.595
			c0-2.746-0.167-5.453-0.464-8.121l52.757,6.595l55.156,46.281l9.373,55.915l3.383,20.296
			c-8.381,11.856-13.326,26.305-13.326,41.898c0,10.148,2.523,20.833,6.584,31.469l-21.494,61.036l-72.934,41.795
			C157.986,470.871,147.75,465.14,138.033,458.685z M264.143,496.732c-27.232,0-53.362-4.797-77.602-13.576l65.112-37.312
			c1.589-0.911,2.797-2.361,3.405-4.088l17.251-48.986c19.323,35.597,49.714,66.267,51.581,68.135c2.941,2.94,7.857,2.94,10.797,0
			c2.143-2.143,41.841-42.203,59.278-84.119l62.412,14.86C415.676,454.815,344.714,496.732,264.143,496.732z M399.006,362.292
			c1.94-7.052,3.062-14.04,3.062-20.788c0-35.692-25.834-65.444-59.78-71.594c11.722-16.386,28.337-36.763,33.989-43.627
			l110.145-11.594c4.128,17.31,6.238,35.227,6.238,53.525c0,39.723-10.196,77.107-28.098,109.686L399.006,362.292z"/>
	</g>
</g>
<g>
	<g>
		<path d="M329.288,301.296c-22.17,0-40.207,18.037-40.207,40.207s18.037,40.207,40.207,40.207s40.207-18.037,40.207-40.207
			S351.458,301.296,329.288,301.296z M329.288,366.441c-13.752,0-24.938-11.188-24.938-24.938s11.187-24.938,24.938-24.938
			c13.752,0,24.938,11.188,24.938,24.938S343.04,366.441,329.288,366.441z"/>
	</g>
</g>
<g>
	<g>
		<path d="M394.433,32.573c-22.17,0-40.207,18.037-40.207,40.207c0,22.17,18.037,40.207,40.207,40.207
			c22.17,0,40.207-18.037,40.207-40.207C434.64,50.61,416.603,32.573,394.433,32.573z M394.433,97.718
			c-13.752,0-24.938-11.188-24.938-24.938c0-13.751,11.187-24.938,24.938-24.938c13.752,0,24.938,11.188,24.938,24.938
			C419.372,86.53,408.185,97.718,394.433,97.718z"/>
	</g>
</g>
<g>
	<g>
		<path d="M76.851,138.433c-22.17,0-40.207,18.037-40.207,40.207c0,22.17,18.037,40.207,40.207,40.207
			c22.17,0,40.207-18.037,40.207-40.207C117.058,156.47,99.021,138.433,76.851,138.433z M76.851,203.579
			c-13.751,0-24.938-11.188-24.938-24.938c0-13.751,11.188-24.938,24.938-24.938c13.751,0,24.938,11.188,24.938,24.938
			C101.789,192.391,90.602,203.579,76.851,203.579z"/>
	</g>
</g>
<g>
</g>
<g>
</g>
<g>
</g>
<g>
</g>
<g>
</g>
<g>
</g>
<g>
</g>
<g>
</g>
<g>
</g>
<g>
</g>
<g>
</g>
<g>
</g>
<g>
</g>
<g>
</g>
<g>
</g>
</svg>
