<?xml version="1.0" encoding="iso-8859-1"?>
<!-- Generator: Adobe Illustrator 19.0.0, SVG Export Plug-In . SVG Version: 6.00 Build 0)  -->
<svg version="1.1" id="Capa_1" xmlns="http://www.w3.org/2000/svg" xmlns:xlink="http://www.w3.org/1999/xlink" x="0px" y="0px"
	 viewBox="0 0 512 512" style="enable-background:new 0 0 512 512;" xml:space="preserve">
<g>
	<g>
		<path d="M400.282,252.493c-8.465,0-16.832,0.943-24.994,2.81c0.297-3.774,0.446-7.559,0.446-11.327
			c0-79.281-64.5-143.781-143.781-143.781s-143.781,64.5-143.781,143.781c0,3.633,0.138,7.287,0.413,10.925
			c-23.57,4.974-45.03,17.531-61.032,35.847C9.785,311.087,0,337.176,0,364.211C0,425.813,50.117,475.93,111.718,475.93h221.099
			c4.15,0,7.515-3.365,7.515-7.515c0-4.15-3.365-7.515-7.515-7.515H111.718c-53.314,0-96.689-43.375-96.689-96.689
			c0-47.763,35.594-88.902,82.794-95.691c4.055-0.583,6.895-4.306,6.386-8.371c-0.669-5.341-1.008-10.783-1.008-16.173
			c0-70.994,57.758-128.751,128.751-128.751s128.752,57.758,128.752,128.751c0,6.82-0.545,13.701-1.622,20.449
			c-0.876,5.493,4.592,10.099,9.855,8.292c10.066-3.447,20.611-5.195,31.343-5.195c53.314,0,96.689,43.375,96.689,96.689
			c0,53.314-43.374,96.689-96.688,96.689h-31.061c-4.15,0-7.515,3.365-7.515,7.515c0,4.15,3.365,7.515,7.515,7.515h31.061
			C461.883,475.93,512,425.813,512,364.211S461.883,252.493,400.282,252.493z"/>
	</g>
</g>
<g>
	<g>
		<path d="M231.953,148.29c-52.762,0-95.687,42.925-95.687,95.687c0,75.105,87.541,139.633,91.267,142.343
			c2.605,1.895,6.234,1.896,8.839,0c3.726-2.71,91.267-67.238,91.267-142.343C327.64,191.214,284.715,148.29,231.953,148.29z
			 M231.953,370.745c-17.469-13.929-80.658-68.368-80.658-126.769c0-44.475,36.183-80.658,80.658-80.658
			c44.475,0,80.658,36.183,80.658,80.658C312.611,302.378,249.42,356.817,231.953,370.745z"/>
	</g>
</g>
<g>
	<g>
		<path d="M231.953,188.368c-30.663,0-55.609,24.946-55.609,55.609c0,30.663,24.946,55.609,55.609,55.609
			c30.663,0,55.609-24.946,55.609-55.609C287.562,213.314,262.616,188.368,231.953,188.368z M231.953,284.556
			c-22.376,0-40.579-18.204-40.579-40.579c0-22.376,18.204-40.579,40.579-40.579c22.376,0,40.579,18.204,40.579,40.579
			C272.532,266.352,254.329,284.556,231.953,284.556z"/>
	</g>
</g>
<g>
	<g>
		<path d="M352.188,124.243c-4.15,0-7.515,3.365-7.515,7.515c0,4.15,3.365,7.515,7.515,7.515c17.955,0,32.564,14.609,32.564,32.564
			c0,4.15,3.365,7.515,7.515,7.515c4.15,0,7.515-3.365,7.515-7.515C399.781,145.593,378.43,124.243,352.188,124.243z"/>
	</g>
</g>
<g>
	<g>
		<path d="M352.188,84.164c-4.15,0-7.515,3.365-7.515,7.515c0,4.15,3.365,7.515,7.515,7.515c40.055,0,72.642,32.587,72.642,72.642
			c0,4.15,3.365,7.515,7.515,7.515s7.515-3.365,7.515-7.515C439.859,123.493,400.53,84.164,352.188,84.164z"/>
	</g>
</g>
<g>
	<g>
		<path d="M352.188,36.07c-4.15,0-7.515,3.365-7.515,7.515c0,4.15,3.365,7.515,7.515,7.515c66.574,0,120.736,54.162,120.736,120.736
			c0,4.15,3.365,7.515,7.515,7.515s7.515-3.365,7.515-7.515C487.953,96.974,427.049,36.07,352.188,36.07z"/>
	</g>
</g>
<g>
	<g>
		<circle cx="231.953" cy="412.305" r="7.515"/>
	</g>
</g>
<g>
	<g>
		<circle cx="271.53" cy="412.806" r="7.515"/>
	</g>
</g>
<g>
	<g>
		<circle cx="192.376" cy="412.806" r="7.515"/>
	</g>
</g>
<g>
</g>
<g>
</g>
<g>
</g>
<g>
</g>
<g>
</g>
<g>
</g>
<g>
</g>
<g>
</g>
<g>
</g>
<g>
</g>
<g>
</g>
<g>
</g>
<g>
</g>
<g>
</g>
<g>
</g>
</svg>
