<?xml version="1.0" encoding="iso-8859-1"?>
<!-- Generator: Adobe Illustrator 19.0.0, SVG Export Plug-In . SVG Version: 6.00 Build 0)  -->
<svg version="1.1" id="Capa_1" xmlns="http://www.w3.org/2000/svg" xmlns:xlink="http://www.w3.org/1999/xlink" x="0px" y="0px"
	 viewBox="0 0 512 512" style="enable-background:new 0 0 512 512;" xml:space="preserve">
<g>
	<g>
		<path d="M504.51,64.125H311.634V7.515c0-4.15-3.365-7.515-7.515-7.515H7.54C3.39,0,0.025,3.365,0.025,7.515v496.971
			c0,4.15,3.365,7.515,7.515,7.515h32.063c4.15,0,7.515-3.365,7.515-7.515V239.468h153.299v56.611c0,4.087,3.433,7.515,7.515,7.515
			h288.564c6.42,0,9.884-7.939,5.494-12.642l-106.9-114.536l114.343-99.098c0.255-0.22,0.494-0.469,0.716-0.721
			C514.336,71.837,510.848,64.125,504.51,64.125z M32.088,496.971H15.054V239.468h17.033V496.971z M379.354,170.165
			c-3.16,2.741-3.429,7.747-0.572,10.806l100.42,107.592H232.751l75.538-50.358c2.07-1.359,3.347-3.784,3.347-6.252v-91.846
			c0-4.15-3.365-7.515-7.515-7.515c-4.15,0-7.515,3.365-7.515,7.515v84.332H15.055V15.029h281.549v89.341
			c0,4.15,3.365,7.515,7.515,7.515c4.15,0,7.515-3.365,7.515-7.515V79.155h172.732L379.354,170.165z M215.446,282.037v-42.569
			h63.854L215.446,282.037z"/>
	</g>
</g>
<g>
	<g>
		<path d="M151.822,144.282c-17.403,0-31.562,14.159-31.562,31.562s14.159,31.562,31.562,31.562
			c17.403,0,31.562-14.159,31.562-31.562S169.225,144.282,151.822,144.282z M151.822,192.376c-9.116,0-16.532-7.417-16.532-16.532
			s7.416-16.532,16.532-16.532c9.116,0,16.532,7.417,16.532,16.532S160.937,192.376,151.822,192.376z"/>
	</g>
</g>
<g>
	<g>
		<path d="M208.147,95.471c-15.045-15.044-35.048-23.331-56.325-23.331s-41.28,8.286-56.325,23.331
			c-2.896,2.895-2.896,7.732,0,10.627c2.895,2.895,7.732,2.895,10.627,0c12.207-12.206,28.436-18.928,45.698-18.928
			s33.491,6.722,45.697,18.929c3.056,3.056,8.216,2.851,11.026-0.431C211.064,102.727,210.882,98.208,208.147,95.471z"/>
	</g>
</g>
<g>
	<g>
		<path d="M179.806,123.812c-7.475-7.475-17.414-11.592-27.986-11.592c-10.572,0-20.51,4.117-27.986,11.592
			c-2.896,2.895-2.896,7.732,0,10.627c2.896,2.895,7.733,2.895,10.629,0c4.636-4.636,10.801-7.19,17.358-7.19
			s12.722,2.553,17.358,7.19c1.467,1.467,3.391,2.201,5.313,2.201c1.923,0,3.847-0.733,5.313-2.201
			C182.741,131.504,182.741,126.746,179.806,123.812z"/>
	</g>
</g>
<g>
	<g>
		<path d="M236.485,67.132c-22.614-22.615-52.682-35.07-84.663-35.07c-31.982,0-62.05,12.454-84.664,35.07
			c-2.896,2.895-2.896,7.732,0,10.627c2.895,2.895,7.732,2.895,10.627,0c19.777-19.776,46.07-30.667,74.038-30.667
			c27.968,0,54.261,10.891,74.037,30.667c3.056,3.056,8.216,2.851,11.027-0.431C239.404,74.387,239.221,69.867,236.485,67.132z"/>
	</g>
</g>
<g>
</g>
<g>
</g>
<g>
</g>
<g>
</g>
<g>
</g>
<g>
</g>
<g>
</g>
<g>
</g>
<g>
</g>
<g>
</g>
<g>
</g>
<g>
</g>
<g>
</g>
<g>
</g>
<g>
</g>
</svg>
