<?xml version="1.0" encoding="iso-8859-1"?>
<!-- Generator: Adobe Illustrator 19.0.0, SVG Export Plug-In . SVG Version: 6.00 Build 0)  -->
<svg version="1.1" id="Capa_1" xmlns="http://www.w3.org/2000/svg" xmlns:xlink="http://www.w3.org/1999/xlink" x="0px" y="0px"
	 viewBox="0 0 512 512" style="enable-background:new 0 0 512 512;" xml:space="preserve">
<g>
	<g>
		<path d="M95.687,0C42.925,0,0,42.925,0,95.687C0,170.792,87.541,235.32,91.267,238.03c2.605,1.895,6.234,1.896,8.839,0
			c3.726-2.71,91.267-67.238,91.267-142.343C191.374,42.925,148.449,0,95.687,0z M95.687,222.456
			c-17.469-13.929-80.658-68.368-80.658-126.769c0-44.475,36.183-80.658,80.658-80.658s80.658,36.183,80.658,80.658
			C176.344,154.088,113.154,208.527,95.687,222.456z"/>
	</g>
</g>
<g>
	<g>
		<path d="M149.099,80.167c-1.156-3.986-5.326-6.278-9.311-5.123c-3.986,1.156-6.279,5.325-5.123,9.311
			c1.062,3.662,1.601,7.476,1.601,11.332c0,22.376-18.204,40.579-40.579,40.579c-22.376,0-40.579-18.204-40.579-40.579
			c0-22.376,18.204-40.579,40.579-40.579c6.559,0,12.816,1.514,18.596,4.501c3.687,1.905,8.221,0.46,10.126-3.226
			c1.905-3.687,0.46-8.221-3.226-10.126c-7.822-4.042-16.638-6.178-25.496-6.178c-30.663,0-55.609,24.946-55.609,55.609
			s24.946,55.609,55.609,55.609s55.609-24.946,55.609-55.609C151.295,90.413,150.556,85.19,149.099,80.167z"/>
	</g>
</g>
<g>
	<g>
		<path d="M416.313,272.532c-52.762,0-95.687,42.925-95.687,95.687c0,75.105,87.541,139.633,91.267,142.343
			c2.605,1.895,6.234,1.896,8.839,0c3.726-2.71,91.267-67.238,91.267-142.343C512,315.457,469.075,272.532,416.313,272.532z
			 M416.313,494.988c-17.469-13.929-80.658-68.368-80.658-126.769c0-44.475,36.183-80.658,80.658-80.658
			s80.658,36.183,80.658,80.658C496.971,426.62,433.78,481.06,416.313,494.988z"/>
	</g>
</g>
<g>
	<g>
		<path d="M416.313,312.611c-6.137,0-12.172,0.995-17.935,2.958c-3.877,1.321-6.011,5.66-4.691,9.537
			c1.32,3.876,5.66,6.011,9.537,4.691c4.199-1.431,8.604-2.155,13.09-2.155c22.376,0,40.579,18.204,40.579,40.579
			c0,22.376-18.204,40.578-40.579,40.578c-22.376,0-40.579-18.204-40.579-40.579c0-7.11,1.863-14.103,5.388-20.221
			c2.071-3.596,0.836-8.191-2.76-10.263c-3.596-2.07-8.19-0.836-10.263,2.76c-4.836,8.398-7.393,17.985-7.393,27.724
			c0,30.663,24.946,55.609,55.609,55.609s55.609-24.946,55.609-55.609S446.976,312.611,416.313,312.611z"/>
	</g>
</g>
<g>
	<g>
		<path d="M151.796,224.438h-8.016c-4.15,0-7.515,3.365-7.515,7.515c0,4.15,3.365,7.515,7.515,7.515h8.016
			c4.15,0,7.515-3.365,7.515-7.515C159.311,227.803,155.947,224.438,151.796,224.438z"/>
	</g>
</g>
<g>
	<g>
		<path d="M76.425,360.704h-0.778c-5.79,0-11.564,0.658-17.158,1.956c-3.939,0.914-6.487,4.925-5.652,8.877
			c0.858,4.063,5.006,6.699,9.049,5.763c4.482-1.04,9.112-1.567,13.761-1.567h0.778c4.15,0,7.515-3.365,7.515-7.515
			S80.575,360.704,76.425,360.704z"/>
	</g>
</g>
<g>
	<g>
		<path d="M9.225,419.355c-4.117-0.581-7.909,2.286-8.487,6.396C0.25,429.238,0,432.803,0,436.352c0,2.504,0.124,5.031,0.369,7.511
			c0.383,3.88,3.651,6.778,7.47,6.778c0.246,0,0.496-0.012,0.746-0.037c4.129-0.408,7.148-4.086,6.74-8.216
			c-0.196-1.992-0.296-4.023-0.296-6.035c0-2.852,0.199-5.715,0.592-8.512C16.199,423.732,13.334,419.932,9.225,419.355z"/>
	</g>
</g>
<g>
	<g>
		<path d="M273.086,343.365c-2.913-2.958-7.67-2.995-10.627-0.082c-3.466,3.413-7.334,6.404-11.5,8.89
			c-3.564,2.127-4.728,6.741-2.6,10.305c1.407,2.357,3.901,3.663,6.46,3.663c1.311,0,2.638-0.343,3.846-1.064
			c5.195-3.102,10.02-6.831,14.339-11.086C275.962,351.08,275.998,346.321,273.086,343.365z"/>
	</g>
</g>
<g>
	<g>
		<path d="M73.845,496.945c-4.875-0.142-9.709-0.866-14.369-2.152c-4-1.105-8.139,1.242-9.244,5.243
			c-1.105,4.001,1.243,8.139,5.243,9.244c5.82,1.607,11.854,2.512,17.932,2.689c0.075,0.002,0.148,0.003,0.222,0.003
			c4.049,0,7.389-3.222,7.508-7.296C81.259,500.527,77.994,497.065,73.845,496.945z"/>
	</g>
</g>
<g>
	<g>
		<path d="M122.754,496.971h-16.376c-4.15,0-7.515,3.365-7.515,7.515c0,4.15,3.365,7.515,7.515,7.515h16.376
			c4.15,0,7.515-3.365,7.515-7.515C130.268,500.335,126.904,496.971,122.754,496.971z"/>
	</g>
</g>
<g>
	<g>
		<path d="M34.309,480.691c-3.556-3.318-6.71-7.058-9.374-11.117c-2.277-3.47-6.937-4.436-10.406-2.157
			c-3.469,2.277-4.436,6.937-2.157,10.406c3.323,5.06,7.254,9.722,11.687,13.857c1.449,1.352,3.288,2.02,5.124,2.02
			C35.882,493.7,39.188,485.241,34.309,480.691z"/>
	</g>
</g>
<g>
	<g>
		<path d="M36.968,379.755c-2.704-3.146-7.449-3.506-10.597-0.802c-4.595,3.948-8.714,8.445-12.241,13.364
			c-2.199,3.068-1.733,7.435,1.075,9.96c3.287,2.956,8.565,2.388,11.139-1.203c2.829-3.947,6.134-7.555,9.821-10.723
			C39.314,387.647,39.672,382.902,36.968,379.755z"/>
	</g>
</g>
<g>
	<g>
		<path d="M319.265,496.971h-16.376c-4.15,0-7.515,3.365-7.515,7.515c0,4.15,3.365,7.515,7.515,7.515h16.376
			c4.15,0,7.515-3.365,7.515-7.515C326.779,500.335,323.415,496.971,319.265,496.971z"/>
	</g>
</g>
<g>
	<g>
		<path d="M231.308,367.69c-0.232-4.144-3.779-7.315-7.923-7.083c-1.146,0.064-2.308,0.097-3.455,0.097h-12.497
			c-4.15,0-7.515,3.365-7.515,7.515s3.365,7.515,7.515,7.515h12.497c1.426,0,2.872-0.041,4.296-0.12
			C228.37,375.381,231.54,371.834,231.308,367.69z"/>
	</g>
</g>
<g>
	<g>
		<path d="M252.298,231.695c-5.484-2.599-11.277-4.53-17.221-5.738c-4.066-0.827-8.035,1.799-8.861,5.866
			c-0.828,4.067,1.799,8.035,5.866,8.861c4.755,0.967,9.391,2.512,13.778,4.592c3.705,1.755,8.256,0.127,10.01-3.572
			C257.647,237.954,256.048,233.472,252.298,231.695z"/>
	</g>
</g>
<g>
	<g>
		<path d="M125.553,360.704h-16.376c-4.15,0-7.515,3.365-7.515,7.515s3.365,7.515,7.515,7.515h16.376
			c4.15,0,7.515-3.365,7.515-7.515S129.703,360.704,125.553,360.704z"/>
	</g>
</g>
<g>
	<g>
		<path d="M289.38,270.057c-2.404-5.553-5.482-10.818-9.149-15.652c-2.507-3.305-7.221-3.954-10.529-1.445
			c-3.306,2.508-3.953,7.222-1.445,10.529c2.939,3.873,5.405,8.092,7.33,12.539c1.712,3.956,6.566,5.67,10.388,3.669
			C289.415,277.897,290.921,273.617,289.38,270.057z"/>
	</g>
</g>
<g>
	<g>
		<path d="M288.423,297.519c-4.145-0.306-7.735,2.819-8.032,6.96c-0.348,4.855-1.277,9.653-2.765,14.258
			c-1.209,3.746,0.775,7.9,4.445,9.319c3.974,1.536,8.55-0.651,9.857-4.7c1.859-5.755,3.021-11.745,3.454-17.805
			C295.679,301.411,292.562,297.815,288.423,297.519z"/>
	</g>
</g>
<g>
	<g>
		<path d="M270.137,496.971h-16.376c-4.15,0-7.515,3.365-7.515,7.515c0,4.15,3.365,7.515,7.515,7.515h16.376
			c4.15,0,7.515-3.365,7.515-7.515C277.651,500.335,274.287,496.971,270.137,496.971z"/>
	</g>
</g>
<g>
	<g>
		<path d="M174.68,360.704h-16.376c-4.15,0-7.515,3.365-7.515,7.515s3.365,7.515,7.515,7.515h16.376c4.15,0,7.515-3.365,7.515-7.515
			S178.83,360.704,174.68,360.704z"/>
	</g>
</g>
<g>
	<g>
		<path d="M221.01,496.971h-16.376c-4.15,0-7.515,3.365-7.515,7.515c0,4.15,3.365,7.515,7.515,7.515h16.376
			c4.15,0,7.515-3.365,7.515-7.515C228.524,500.335,225.16,496.971,221.01,496.971z"/>
	</g>
</g>
<g>
	<g>
		<path d="M171.882,496.971h-16.376c-4.15,0-7.515,3.365-7.515,7.515c0,4.15,3.365,7.515,7.515,7.515h16.376
			c4.15,0,7.515-3.365,7.515-7.515C179.396,500.335,176.032,496.971,171.882,496.971z"/>
	</g>
</g>
<g>
	<g>
		<path d="M200.924,224.438h-16.376c-4.15,0-7.515,3.365-7.515,7.515c0,4.15,3.365,7.515,7.515,7.515h16.376
			c4.15,0,7.515-3.365,7.515-7.515C208.439,227.803,205.075,224.438,200.924,224.438z"/>
	</g>
</g>
<g>
	<g>
		<path d="M360.203,496.971h-8.016c-4.15,0-7.515,3.365-7.515,7.515c0,4.15,3.365,7.515,7.515,7.515h8.016
			c4.15,0,7.515-3.365,7.515-7.515C367.718,500.335,364.354,496.971,360.203,496.971z"/>
	</g>
</g>
<g>
</g>
<g>
</g>
<g>
</g>
<g>
</g>
<g>
</g>
<g>
</g>
<g>
</g>
<g>
</g>
<g>
</g>
<g>
</g>
<g>
</g>
<g>
</g>
<g>
</g>
<g>
</g>
<g>
</g>
</svg>
