<svg height="464pt" viewBox="-8 0 464 464" width="464pt" xmlns="http://www.w3.org/2000/svg"><path d="m128 416v32h-48c-8.835938 0-16-7.164062-16-16s7.164062-16 16-16zm0 0" fill="#7d8d9c"/><path d="m128 448v-32l64-16v64zm0 0" fill="#394d5c"/><path d="m192 48h64v416h-64zm0 0" fill="#7d8d9c"/><path d="m224 0c17.671875 0 32 14.328125 32 32v16h-64v-16c0-17.671875 14.328125-32 32-32zm0 0" fill="#394d5c"/><path d="m72 328c-46.398438 0-72-51.144531-72-144s25.601562-144 72-144v16c-50.542969 0-56 89.511719-56 128s5.457031 128 56 128zm0 0" fill="#dd3e46"/><path d="m120 296c-36.113281 0-56-39.777344-56-112s19.886719-112 56-112v16c-36.105469 0-40 67.136719-40 96s3.894531 96 40 96zm0 0" fill="#dd3e46"/><path d="m168 264c-25.792969 0-40-28.40625-40-80s14.207031-80 40-80v16c-22.273438 0-24 48.984375-24 64s1.726562 64 24 64zm0 0" fill="#dd3e46"/><path d="m376 328v-16c50.542969 0 56-89.511719 56-128s-5.457031-128-56-128v-16c46.398438 0 72 51.144531 72 144s-25.601562 144-72 144zm0 0" fill="#dd3e46"/><path d="m328 296v-16c36.105469 0 40-67.136719 40-96s-3.894531-96-40-96v-16c36.113281 0 56 39.777344 56 112s-19.886719 112-56 112zm0 0" fill="#dd3e46"/><path d="m280 264v-16c22.273438 0 24-48.984375 24-64s-1.726562-64-24-64v-16c25.792969 0 40 28.40625 40 80s-14.207031 80-40 80zm0 0" fill="#dd3e46"/><g fill="#394d5c"><path d="m216 72h40v16h-40zm0 0"/><path d="m216 104h40v16h-40zm0 0"/><path d="m216 136h40v16h-40zm0 0"/><path d="m216 168h40v16h-40zm0 0"/><path d="m216 200h40v16h-40zm0 0"/><path d="m216 232h40v16h-40zm0 0"/><path d="m216 264h40v16h-40zm0 0"/><path d="m216 296h40v16h-40zm0 0"/><path d="m216 328h40v16h-40zm0 0"/><path d="m216 360h40v16h-40zm0 0"/><path d="m216 392h40v16h-40zm0 0"/><path d="m216 424h40v16h-40zm0 0"/></g></svg>