<svg height="464pt" viewBox="-96 0 464 464" width="464pt" xmlns="http://www.w3.org/2000/svg"><path d="m56 0h160v59.046875h-160zm0 0" fill="#143441"/><path d="m0 48h272v416h-272zm0 0" fill="#394d5c"/><path d="m32 80h208v352h-208zm0 0" fill="#7d8d9c"/><path d="m200 336v56h-64v16h80v-72zm0 0" fill="#394d5c"/><path d="m104 392h16v16h-16zm0 0" fill="#394d5c"/><path d="m136 214.863281 48-45.253906-24-22.625-48 45.246094-24 22.632812 24 22.625 24 22.632813-48 45.253906 24 22.625 48-45.257812 24-22.621094-24-22.632813zm0 0" fill="#fcf05a"/></svg>