<svg height="464pt" viewBox="0 -40 464 464" width="464pt" xmlns="http://www.w3.org/2000/svg"><path d="m0 176h464v208h-464zm0 0" fill="#fc8535"/><path d="m0 80h464v96h-464zm0 0" fill="#e1462b"/><path d="m296 0h-160v80h32v-48h128v48h32v-80zm0 0" fill="#143441"/><path d="m88 144h48v64h-48zm0 0" fill="#394d5c"/><path d="m328 144h48v64h-48zm0 0" fill="#394d5c"/><path d="m144 240h176v64h-176zm0 0" fill="#fcf05a"/><g fill="#fff"><path d="m40 344v-72h-16v88h64v-16zm0 0"/><path d="m104 344h16v16h-16zm0 0"/></g></svg>