<svg height="464pt" viewBox="0 0 464 464" width="464pt" xmlns="http://www.w3.org/2000/svg"><path d="m64 0c8.835938 0 16 7.164062 16 16v192h-32v-192c0-8.835938 7.164062-16 16-16zm0 0" fill="#7d8d9c"/><path d="m400 0c8.835938 0 16 7.164062 16 16v192h-32v-192c0-8.835938 7.164062-16 16-16zm0 0" fill="#7d8d9c"/><path d="m336 240v72h-208v-72h-128v176c0 26.507812 21.492188 48 48 48h16c26.507812 0 48-21.492188 48-48h240c0 26.507812 21.492188 48 48 48h16c26.507812 0 48-21.492188 48-48v-176zm0 0" fill="#394d5c"/><path d="m128 152h208v160h-208zm0 0" fill="#7fcac9"/><path d="m144 344h48v32h-48zm0 0" fill="#e1462b"/><path d="m272 344h48v32h-48zm0 0" fill="#e1462b"/><path d="m88 360c0 13.253906-10.746094 24-24 24s-24-10.746094-24-24 10.746094-24 24-24 24 10.746094 24 24zm0 0" fill="#7d8d9c"/><path d="m424 360c0 13.253906-10.746094 24-24 24s-24-10.746094-24-24 10.746094-24 24-24 24 10.746094 24 24zm0 0" fill="#7d8d9c"/><g fill="#394d5c"><path d="m152 176h16v16h-16zm0 0"/><path d="m184 176h16v16h-16zm0 0"/><path d="m264 272h16v16h-16zm0 0"/><path d="m296 272h16v16h-16zm0 0"/><path d="m256 232c0 13.253906-10.746094 24-24 24s-24-10.746094-24-24 10.746094-24 24-24 24 10.746094 24 24zm0 0"/><path d="m152 224h64v16h-64zm0 0"/><path d="m248 224h64v16h-64zm0 0"/></g><path d="m56 296h16v64h-16zm0 0" fill="#cfdfe8"/><path d="m392 296h16v64h-16zm0 0" fill="#cfdfe8"/><path d="m88 288c0 13.253906-10.746094 24-24 24s-24-10.746094-24-24 10.746094-24 24-24 24 10.746094 24 24zm0 0" fill="#7fcac9"/><path d="m424 288c0 13.253906-10.746094 24-24 24s-24-10.746094-24-24 10.746094-24 24-24 24 10.746094 24 24zm0 0" fill="#7fcac9"/><path d="m250.34375 126.222656c-10.269531-9.789062-26.417969-9.789062-36.6875 0l-11.3125-11.3125c16.375-16.382812 42.9375-16.382812 59.3125 0zm0 0" fill="#dd3e46"/><path d="m266.34375 94.222656c-18.96875-18.960937-49.71875-18.960937-68.6875 0l-11.3125-11.3125c25.214844-25.214844 66.097656-25.214844 91.3125 0zm0 0" fill="#dd3e46"/><path d="m32 208h64v32h-64zm0 0" fill="#fc8535"/><path d="m368 208h64v32h-64zm0 0" fill="#fc8535"/></svg>