<svg height="464pt" viewBox="0 -16 464 464" width="464pt" xmlns="http://www.w3.org/2000/svg"><path d="m72 0c8.835938 0 16 7.164062 16 16v24h-32v-24c0-8.835938 7.164062-16 16-16zm0 0" fill="#195c85"/><path d="m392 0c8.835938 0 16 7.164062 16 16v24h-32v-24c0-8.835938 7.164062-16 16-16zm0 0" fill="#195c85"/><path d="m64 208h336c17.671875 0 32 14.328125 32 32v160c0 17.671875-14.328125 32-32 32h-336c-17.671875 0-32-14.328125-32-32v-160c0-17.671875 14.328125-32 32-32zm0 0" fill="#7fcac9"/><path d="m160 240v-32h-160v224h64v-32h-32v-160zm0 0" fill="#7d8d9c"/><path d="m304 208v32h128v160h-32v32h64v-224zm0 0" fill="#7d8d9c"/><path d="m312 32-8 32h-144l-8-32h-120c-17.671875 0-32 14.328125-32 32v144h160v-32h144v32h160v-144c0-17.671875-14.328125-32-32-32zm0 0" fill="#394d5c"/><path d="m400 320c0 13.253906-10.746094 24-24 24s-24-10.746094-24-24 10.746094-24 24-24 24 10.746094 24 24zm0 0" fill="#fff"/><path d="m120 120c0 22.089844-17.910156 40-40 40s-40-17.910156-40-40 17.910156-40 40-40 40 17.910156 40 40zm0 0" fill="#aabece"/><path d="m432 120c0 22.089844-17.910156 40-40 40s-40-17.910156-40-40 17.910156-40 40-40 40 17.910156 40 40zm0 0" fill="#aabece"/><path d="m72 112h16v16h-16zm0 0" fill="#394d5c"/><path d="m384 112h16v16h-16zm0 0" fill="#394d5c"/><path d="m192 120c0 8.835938-7.164062 16-16 16s-16-7.164062-16-16 7.164062-16 16-16 16 7.164062 16 16zm0 0" fill="#aabece"/><path d="m304 120c0 8.835938-7.164062 16-16 16s-16-7.164062-16-16 7.164062-16 16-16 16 7.164062 16 16zm0 0" fill="#aabece"/><path d="m64 336c-4.417969 0-8-3.582031-8-8v-56c0-4.417969 3.582031-8 8-8s8 3.582031 8 8v56c0 4.417969-3.582031 8-8 8zm0 0" fill="#fff"/><path d="m64 376c-4.417969 0-8-3.582031-8-8v-8c0-4.417969 3.582031-8 8-8s8 3.582031 8 8v8c0 4.417969-3.582031 8-8 8zm0 0" fill="#fff"/><path d="m160 312h144v16h-144zm0 0" fill="#394d5c"/><path d="m224 248h16v144h-16zm0 0" fill="#394d5c"/><g fill="#dd3e46"><path d="m112 392h16v16h-16zm0 0"/><path d="m144 392h16v16h-16zm0 0"/><path d="m176 392h16v16h-16zm0 0"/><path d="m272 392h16v16h-16zm0 0"/><path d="m304 392h16v16h-16zm0 0"/><path d="m336 392h16v16h-16zm0 0"/></g></svg>