<svg height="464pt" viewBox="0 0 464 464" width="464pt" xmlns="http://www.w3.org/2000/svg"><path d="m0 0h464v464h-464z" fill="#7d8d9c"/><path d="m96 64c0 17.671875-14.328125 32-32 32s-32-14.328125-32-32 14.328125-32 32-32 32 14.328125 32 32zm0 0" fill="#394d5c"/><path d="m96 400c0 17.671875-14.328125 32-32 32s-32-14.328125-32-32 14.328125-32 32-32 32 14.328125 32 32zm0 0" fill="#394d5c"/><path d="m432 400c0 17.671875-14.328125 32-32 32s-32-14.328125-32-32 14.328125-32 32-32 32 14.328125 32 32zm0 0" fill="#394d5c"/><path d="m152 384h32v48h-32zm0 0" fill="#143441"/><path d="m184 384h32v48h-32zm0 0" fill="#cfdfe8"/><path d="m216 384h32v48h-32zm0 0" fill="#143441"/><path d="m248 384h32v48h-32zm0 0" fill="#cfdfe8"/><path d="m280 384h32v48h-32zm0 0" fill="#143441"/><g fill="#394d5c"><path d="m120 112h16v32h-16zm0 0"/><path d="m152 112h16v32h-16zm0 0"/><path d="m184 112h16v32h-16zm0 0"/><path d="m216 112h16v32h-16zm0 0"/><path d="m248 112h16v32h-16zm0 0"/><path d="m280 112h16v32h-16zm0 0"/><path d="m96 296h32v16h-32zm0 0"/><path d="m96 264h32v16h-32zm0 0"/><path d="m96 232h32v16h-32zm0 0"/><path d="m96 200h32v16h-32zm0 0"/><path d="m96 168h32v16h-32zm0 0"/><path d="m96 136h32v16h-32zm0 0"/><path d="m280 304h16v32h-16zm0 0"/><path d="m248 304h16v32h-16zm0 0"/><path d="m216 304h16v32h-16zm0 0"/><path d="m184 304h16v32h-16zm0 0"/><path d="m152 304h16v32h-16zm0 0"/><path d="m120 304h16v32h-16zm0 0"/><path d="m280 136h32v16h-32zm0 0"/><path d="m280 168h32v16h-32zm0 0"/><path d="m280 200h32v16h-32zm0 0"/><path d="m280 232h32v16h-32zm0 0"/><path d="m280 264h32v16h-32zm0 0"/><path d="m280 296h32v16h-32zm0 0"/></g><path d="m128 48h32v32h-32zm0 0" fill="#143441"/><path d="m400 24c-19 .023438-35.371094 13.386719-39.199219 32h-176.800781v16h176.800781c4.210938 20.625 23.683594 34.457031 44.542969 31.640625s35.96875-21.316406 34.558594-42.316406c-1.410156-21.003907-18.851563-37.320313-39.902344-37.324219zm0 0" fill="#143441"/><path d="m360 344c0 8.835938-7.164062 16-16 16s-16-7.164062-16-16 7.164062-16 16-16 16 7.164062 16 16zm0 0" fill="#cfdfe8"/><path d="m408 128h-48c-8.835938 0-16 7.164062-16 16s7.164062 16 16 16h32v160c0 8.835938 7.164062 16 16 16s16-7.164062 16-16v-176c-.027344-8.824219-7.175781-15.972656-16-16zm0 0" fill="#cfdfe8"/><path d="m56 128c8.835938 0 16 7.164062 16 16v176c0 8.835938-7.164062 16-16 16s-16-7.164062-16-16v-176c0-8.835938 7.164062-16 16-16zm0 0" fill="#cfdfe8"/><path d="m336 184h16v120h-16zm0 0" fill="#143441"/><path d="m344 184h24v16h-24zm0 0" fill="#143441"/><path d="m344 288h24v16h-24zm0 0" fill="#143441"/><path d="m120 136h176v176h-176zm0 0" fill="#143441"/></svg>