<svg height="464pt" viewBox="0 0 464 464" width="464pt" xmlns="http://www.w3.org/2000/svg"><path d="m0 176h416v240h-416zm0 0" fill="#7d8d9c"/><g fill="#394d5c"><path d="m416 128h-304v48h304v240h-304v48h352v-336zm0 0"/><path d="m96 216h152v16h-152zm0 0"/><path d="m96 360h152v16h-152zm0 0"/></g><path d="m200 48h96v80h-96zm0 0" fill="#7d8d9c"/><path d="m184 0h128v48h-128zm0 0" fill="#143441"/><path d="m392 296c0 53.019531-42.980469 96-96 96s-96-42.980469-96-96 42.980469-96 96-96 96 42.980469 96 96zm0 0" fill="#143441"/><path d="m48 280h128v32h-128zm0 0" fill="#394d5c"/><path d="m352 296c0 30.929688-25.070312 56-56 56s-56-25.070312-56-56 25.070312-56 56-56 56 25.070312 56 56zm0 0" fill="#cfdfe8"/><path d="m319.601562 318.625-11.3125-11.3125c6.246094-6.25 6.246094-16.375 0-22.625l11.3125-11.3125c12.492188 12.496094 12.492188 32.753906 0 45.25zm0 0" fill="#143441"/><path d="m96 296c0 17.671875-14.328125 32-32 32s-32-14.328125-32-32 14.328125-32 32-32 32 14.328125 32 32zm0 0" fill="#143441"/></svg>