<svg height="480pt" viewBox="0 -28 480 480" width="480pt" xmlns="http://www.w3.org/2000/svg"><path d="m80 200v-32h-32v64h120v-32zm0 0" fill="#394d5c"/><path d="m136 72v-32h-32v64h112v-32zm0 0" fill="#394d5c"/><path d="m400 200v-32h32v64h-120v-32zm0 0" fill="#394d5c"/><path d="m344 72v-32h32v64h-112v-32zm0 0" fill="#394d5c"/><path d="m320 144v120h-160v-120c-.042969-41.101562 31.066406-75.542969 71.960938-79.675781 40.890624-4.128907 78.261718 23.398437 86.4375 63.675781 1.058593 5.269531 1.597656 10.628906 1.601562 16zm0 0" fill="#7d8d9c"/><path d="m128 152c0-13.253906-28.652344-24-64-24s-64 10.746094-64 24 28.652344 24 64 24 64-10.746094 64-24zm0 0" fill="#195c85"/><path d="m192 24c0-13.253906-32.234375-24-72-24s-72 10.746094-72 24 32.234375 24 72 24 72-10.746094 72-24zm0 0" fill="#195c85"/><path d="m432 24c0-13.253906-32.234375-24-72-24s-72 10.746094-72 24 32.234375 24 72 24 72-10.746094 72-24zm0 0" fill="#195c85"/><path d="m480 152c0-13.253906-28.652344-24-64-24s-64 10.746094-64 24 28.652344 24 64 24 64-10.746094 64-24zm0 0" fill="#195c85"/><path d="m280 296h-80l-24-32h128zm0 0" fill="#394d5c"/><path d="m224 296h32v48h-32zm0 0" fill="#7d8d9c"/><g fill="#394d5c"><path d="m208 128v16h-48c-.003906-5.375.535156-10.734375 1.601562-16zm0 0"/><path d="m160 160h48v16h-48zm0 0"/><path d="m160 224h48v16h-48zm0 0"/><path d="m160 192h48v16h-48zm0 0"/><path d="m320 144h-48v-16h46.398438c1.058593 5.269531 1.597656 10.628906 1.601562 16zm0 0"/><path d="m272 160h48v16h-48zm0 0"/><path d="m272 224h48v16h-48zm0 0"/><path d="m272 192h48v16h-48zm0 0"/><path d="m288 376c0 26.507812-21.492188 48-48 48s-48-21.492188-48-48 21.492188-48 48-48 48 21.492188 48 48zm0 0"/></g><path d="m256 376c0 8.835938-7.164062 16-16 16s-16-7.164062-16-16 7.164062-16 16-16 16 7.164062 16 16zm0 0" fill="#7d8d9c"/></svg>