<svg height="464pt" viewBox="0 -79 464 464" width="464pt" xmlns="http://www.w3.org/2000/svg"><path d="m296 305.90625h-128l-48-88h224zm0 0" fill="#394d5c"/><path d="m232 97.90625c39.453125 0 75.753906 21.550781 94.648438 56.183594l17.351562 31.816406h-224l17.351562-31.816406c18.894532-34.632813 55.195313-56.183594 94.648438-56.183594zm0 0" fill="#394d5c"/><path d="m0 185.90625h176v32h-176zm0 0" fill="#7d8d9c"/><path d="m288 185.90625h176v32h-176zm0 0" fill="#7d8d9c"/><path d="m304 201.90625c0 39.765625-32.234375 72-72 72s-72-32.234375-72-72 32.234375-72 72-72 72 32.234375 72 72zm0 0" fill="#cfdfe8"/><path d="m256 201.90625c0 13.253906-10.746094 24-24 24s-24-10.746094-24-24 10.746094-24 24-24 24 10.746094 24 24zm0 0" fill="#7d8d9c"/><g fill="#394d5c"><path d="m96 97.90625v72c0 17.671875-14.328125 32-32 32v-72c0-17.671875 14.328125-32 32-32zm0 0"/><path d="m64 201.90625v72c0 17.671875-14.328125 32-32 32v-72c0-17.671875 14.328125-32 32-32zm0 0"/><path d="m400 201.90625c-17.671875 0-32-14.328125-32-32v-72c17.671875 0 32 14.328125 32 32zm0 0"/><path d="m432 305.90625c-17.671875 0-32-14.328125-32-32v-72c17.671875 0 32 14.328125 32 32zm0 0"/></g><path d="m250.34375 63.5625c-10.136719-10.113281-26.550781-10.113281-36.6875 0l-11.3125-11.3125c16.386719-16.359375 42.925781-16.359375 59.3125 0zm0 0" fill="#dd3e46"/><path d="m266.34375 30.1875c-18.988281-18.921875-49.699219-18.921875-68.6875 0l-11.3125-11.3125c25.234375-25.167969 66.078125-25.167969 91.3125 0zm0 0" fill="#dd3e46"/></svg>