<svg height="480pt" viewBox="0 -4 480 480" width="480pt" xmlns="http://www.w3.org/2000/svg"><path d="m64 24h32v96h-32zm0 0" fill="#cfdfe8"/><path d="m384 24h32v96h-32zm0 0" fill="#cfdfe8"/><path d="m191.710938 167.710938-22.621094-22.621094-97.089844 94.910156v136h32v-120.566406zm0 0" fill="#7d8d9c"/><path d="m288.289062 167.710938 22.621094-22.621094 97.089844 94.910156v136h-32v-120.566406zm0 0" fill="#7d8d9c"/><path d="m440 184h-400l-32-32v-32h464v32zm0 0" fill="#394d5c"/><path d="m160 24c0-13.253906-35.816406-24-80-24s-80 10.746094-80 24 35.816406 24 80 24 80-10.746094 80-24zm0 0" fill="#195c85"/><path d="m480 24c0-13.253906-35.816406-24-80-24s-80 10.746094-80 24 35.816406 24 80 24 80-10.746094 80-24zm0 0" fill="#195c85"/><path d="m184 184h112c0 26.511719-29.488281 48-56 48s-56-21.488281-56-48zm0 0" fill="#7fcac9"/><path d="m136 264h208v208h-208zm0 0" fill="#cfdfe8"/><path d="m56 376h80v32h-80zm0 0" fill="#394d5c"/><path d="m296 352h-40v-40h-32v40h-40v32h40v40h32v-40h40zm0 0" fill="#e1462b"/><path d="m424 408h-80v-32h80zm0 0" fill="#394d5c"/></svg>