<svg height="472pt" viewBox="0 0 472 472" width="472pt" xmlns="http://www.w3.org/2000/svg"><path d="m224 48h-16v48h48v-16h-32zm0 0" fill="#7d8d9c"/><path d="m432 40v40h-24v16h40v-56zm0 0" fill="#7d8d9c"/><path d="m0 200h192v272h-192zm0 0" fill="#fc8535"/><path d="m192 248h128v224h-128zm0 0" fill="#e1462b"/><path d="m320 200h144v272h-144zm0 0" fill="#fc8535"/><path d="m127.199219 120c.503906-1.734375.773437-3.53125.800781-5.335938-.265625-12.035156-10.230469-21.578124-22.265625-21.328124-2.394531.027343-4.773437.429687-7.046875 1.191406-4.914062-13.90625-18.28125-23.015625-33.019531-22.507813-14.738281.507813-27.445313 10.519531-31.386719 24.734375-3.605469-2.234375-7.761719-3.417968-12-3.417968-12.042969-.257813-22.015625 9.289062-22.28125 21.328124.0273438 1.804688.296875 3.601563.800781 5.335938zm0 0" fill="#7fcac9"/><g fill="#e1462b"><path d="m32 232h48v48h-48zm0 0"/><path d="m112 232h48v48h-48zm0 0"/><path d="m32 312h48v48h-48zm0 0"/><path d="m112 312h48v48h-48zm0 0"/><path d="m32 392h48v48h-48zm0 0"/><path d="m112 392h48v48h-48zm0 0"/></g><path d="m224 280h32v32h-32zm0 0" fill="#fc8535"/><path d="m256 344h32v32h-32zm0 0" fill="#fc8535"/><path d="m376 344h32v32h-32zm0 0" fill="#e1462b"/><path d="m376 408h32v32h-32zm0 0" fill="#e1462b"/><path d="m224 408h32v32h-32zm0 0" fill="#fc8535"/><path d="m432 272c0 22.089844-17.910156 40-40 40s-40-17.910156-40-40 17.910156-40 40-40 40 17.910156 40 40zm0 0" fill="#e1462b"/><path d="m408 108.871094-17.175781 3.960937c-41.335938 9.558594-84.3125 9.558594-125.648438 0l-17.175781-3.960937v-36.871094h160zm0 0" fill="#394d5c"/><path d="m336 144v-24h-16v24h-16v16h48v-16zm0 0" fill="#7d8d9c"/><path d="m256 0h-48c-13.253906 0-24 10.746094-24 24s10.746094 24 24 24h48c13.253906 0 24-10.746094 24-24s-10.746094-24-24-24zm0 0" fill="#195c85"/><path d="m448 0h-48c-13.253906 0-24 10.746094-24 24s10.746094 24 24 24h48c13.253906 0 24-10.746094 24-24s-10.746094-24-24-24zm0 0" fill="#195c85"/></svg>