<svg height="464pt" viewBox="0 0 464 464" width="464pt" xmlns="http://www.w3.org/2000/svg"><path d="m0 128h464v336h-464zm0 0" fill="#cfdfe8"/><path d="m384 304h48v32h-48zm0 0" fill="#7d8d9c"/><path d="m384 368h48v64h-48zm0 0" fill="#7d8d9c"/><path d="m384 160h48v48h-48zm0 0" fill="#7d8d9c"/><path d="m352 240v-112h-32v112h-320v32h32v192h32v-192h256v192h32v-192h112v-32zm0 0" fill="#394d5c"/><g fill="#7d8d9c"><path d="m256 304h32v32h-32zm0 0"/><path d="m256 368h32v64h-32zm0 0"/><path d="m192 304h32v32h-32zm0 0"/><path d="m176 160h32v48h-32zm0 0"/></g><path d="m240 160h48v48h-48zm0 0" fill="#7fcac9"/><path d="m96 304h64v128h-64zm0 0" fill="#7d8d9c"/><path d="m192 368h32v64h-32zm0 0" fill="#7d8d9c"/><path d="m32 160h112v48h-112zm0 0" fill="#7d8d9c"/><path d="m264 160-51.257812-70.664062c-10.699219-17.292969-11.65625-38.898438-2.53125-57.066407 9.125-18.171875 27.027343-30.308593 47.285156-32.054687 1.777344-.1445315 3.574218-.214844 5.390625-.214844 1.816406 0 3.609375.0703125 5.394531.214844 44.71875 3.527344 71.773438 54.167968 45.238281 89.386718zm0 0" fill="#e1462b"/><path d="m284 60c0 11.046875-8.953125 20-20 20s-20-8.953125-20-20 8.953125-20 20-20 20 8.953125 20 20zm0 0" fill="#fcf05a"/></svg>