<svg height="464pt" viewBox="0 -16 464 464" width="464pt" xmlns="http://www.w3.org/2000/svg"><path d="m344 296h-224l21-48h182zm0 0" fill="#7d8d9c"/><path d="m0 128h464v48h-464zm0 0" fill="#7d8d9c"/><path d="m120 296h224v55c0 44.734375-36.265625 81-81 81h-62c-44.734375 0-81-36.265625-81-81zm0 0" fill="#394d5c"/><path d="m144 208h176v40h-176zm0 0" fill="#cfdfe8"/><path d="m184 96h96v112h-96zm0 0" fill="#143441"/><path d="m280 96h-96v-24c0-39.769531 8.230469-72 48-72s48 32.230469 48 72zm0 0" fill="#394d5c"/><g fill="#cfdfe8"><path d="m120 320h64v16h-64zm0 0"/><path d="m208 320h16v16h-16zm0 0"/><path d="m240 320h16v16h-16zm0 0"/><path d="m272 320h16v16h-16zm0 0"/><path d="m304 320h16v16h-16zm0 0"/></g><path d="m248 48c0 8.835938-7.164062 16-16 16s-16-7.164062-16-16 7.164062-16 16-16 16 7.164062 16 16zm0 0" fill="#fff"/></svg>