<svg height="464pt" viewBox="0 -40 464 464" width="464pt" xmlns="http://www.w3.org/2000/svg"><path d="m0 0h464v384h-464zm0 0" fill="#fc8535"/><path d="m32 32h160v80h-160zm0 0" fill="#e1462b"/><path d="m32 144h160v120h-160zm0 0" fill="#c8d952"/><path d="m32 296h160v56h-160zm0 0" fill="#e1462b"/><path d="m240 32h192v160h-192zm0 0" fill="#c8d952"/><path d="m240 224h192v128h-192zm0 0" fill="#c8d952"/><g fill="#fff"><path d="m124.964844 215.402344 6.0625-14.816406 176.003906 72.003906-6.0625 14.8125zm0 0"/><path d="m124.804688 184.640625 184.019531-79.957031 6.375 14.675781-184.019531 79.957031zm0 0"/><path d="m328.019531 136.53125 15.972657-1.0625 8 119.996094-15.972657 1.066406zm0 0"/></g><path d="m376 288c0 22.089844-17.910156 40-40 40s-40-17.910156-40-40 17.910156-40 40-40 40 17.910156 40 40zm0 0" fill="#195c85"/><path d="m136 204c0 19.882812-16.117188 36-36 36s-36-16.117188-36-36 16.117188-36 36-36 36 16.117188 36 36zm0 0" fill="#195c85"/><path d="m376 104c0 22.089844-17.910156 40-40 40s-40-17.910156-40-40 17.910156-40 40-40 40 17.910156 40 40zm0 0" fill="#195c85"/></svg>