<svg height="469pt" viewBox="-2 0 469 469.29124" width="469pt" xmlns="http://www.w3.org/2000/svg"><path d="m464.144531 466.316406h-256l56-136h200zm0 0" fill="#c8d952"/><path d="m64.144531 466.316406h-64v-136h120zm0 0" fill="#c8d952"/><path d="m464.144531 202.316406h-192l-64-200h256zm0 0" fill="#c8d952"/><path d="m464.144531 234.316406h-224l-72-232h-64l64 232h-168v64h168l-64 168h64l72-168h224zm0 0" fill="#cfdfe8"/><path d="m352.144531 266.316406-48-92.890625c-9.957031-31.527343 18.351563-59.109375 49.832031-59.109375 31.480469 0 56.121094 27.582032 46.160157 59.109375zm0 0" fill="#e1462b"/><path d="m368.144531 162.316406c0 8.835938-7.164062 16-16 16-8.835937 0-16-7.164062-16-16 0-8.835937 7.164063-16 16-16 8.835938 0 16 7.164063 16 16zm0 0" fill="#fcf05a"/><g fill="#7d8d9c"><path d="m.144531 258.316406h32v16h-32zm0 0"/><path d="m48.144531 258.316406h32v16h-32zm0 0"/><path d="m96.144531 258.316406h32v16h-32zm0 0"/><path d="m144.144531 258.316406h32v16h-32zm0 0"/><path d="m192.144531 258.316406h32v16h-32zm0 0"/><path d="m240.144531 258.316406h32v16h-32zm0 0"/><path d="m288.144531 258.316406h32v16h-32zm0 0"/><path d="m128.707031 463.34375 63.601563-158.957031 14.859375 5.949219-63.597657 158.957031zm0 0"/><path d="m128.484375 4.640625 15.308594-4.640625 67.890625 224.03125-15.3125 4.636719zm0 0"/></g><path d="m48.144531 74.316406h-48l24-72zm0 0" fill="#195c85"/><path d="m.144531 74.316406h48l-24 72zm0 0" fill="#e1462b"/></svg>