<svg height="464pt" viewBox="0 0 464 464" width="464pt" xmlns="http://www.w3.org/2000/svg"><path d="m464 232c0 128.128906-103.871094 232-232 232s-232-103.871094-232-232 103.871094-232 232-232 232 103.871094 232 232zm0 0" fill="#e1462b"/><path d="m424 232c0 106.039062-85.960938 192-192 192s-192-85.960938-192-192 85.960938-192 192-192 192 85.960938 192 192zm0 0" fill="#fff"/><path d="m144 200h176v32h-176zm0 0" fill="#7d8d9c"/><path d="m136 328h-32l48-96h32zm0 0" fill="#394d5c"/><path d="m328 328h32l-48-96h-32zm0 0" fill="#394d5c"/><g fill="#143441"><path d="m168 160h16v40h-16zm0 0"/><path d="m280 160h16v40h-16zm0 0"/><path d="m200 128h-48c-13.253906 0-24 10.746094-24 24s10.746094 24 24 24h48c13.253906 0 24-10.746094 24-24s-10.746094-24-24-24zm0 0"/><path d="m312 128h-48c-13.253906 0-24 10.746094-24 24s10.746094 24 24 24h48c13.253906 0 24-10.746094 24-24s-10.746094-24-24-24zm0 0"/><path d="m208 232h48v48h-48zm0 0"/></g><path d="m232 329.921875c-11.125.019531-21.796875-4.394531-29.65625-12.265625l11.3125-11.3125c10.136719 10.113281 26.550781 10.113281 36.6875 0l11.3125 11.3125c-7.859375 7.871094-18.53125 12.285156-29.65625 12.265625zm0 0" fill="#fc8535"/><path d="m232 368.535156c-17.125.03125-33.554688-6.765625-45.65625-18.878906l11.3125-11.3125c18.984375 18.929688 49.703125 18.929688 68.6875 0l11.3125 11.3125c-12.101562 12.113281-28.53125 18.910156-45.65625 18.878906zm0 0" fill="#fc8535"/><path d="m87.679688 365.011719 281.332031-281.335938 11.3125 11.316407-281.332031 281.332031zm0 0" fill="#e1462b"/></svg>