<svg height="465pt" viewBox="0 0 465 465" width="465pt" xmlns="http://www.w3.org/2000/svg"><path d="m465 232c0 128.128906-103.871094 232-232 232s-232-103.871094-232-232 103.871094-232 232-232 232 103.871094 232 232zm0 0" fill="#7fcac9"/><path d="m216 240-192-168-24-72 72 24 168 192zm0 0" fill="#195c85"/><path d="m224 248 168 192 72 24-24-72-192-168zm0 0" fill="#195c85"/><path d="m288 232c0 30.929688-25.070312 56-56 56s-56-25.070312-56-56 25.070312-56 56-56 56 25.070312 56 56zm0 0" fill="#394d5c"/><path d="m256 232c0 13.253906-10.746094 24-24 24s-24-10.746094-24-24 10.746094-24 24-24 24 10.746094 24 24zm0 0" fill="#cfdfe8"/><g fill="#fff"><path d="m424 232h-16c-.109375-97.15625-78.84375-175.890625-176-176v-16c105.988281.125 191.875 86.011719 192 192zm0 0"/><path d="m232 424c-105.988281-.125-191.875-86.011719-192-192h16c.109375 97.15625 78.84375 175.890625 176 176zm0 0"/><path d="m232 384c-79.398438 0-144-68.183594-144-152h16c0 74.992188 57.425781 136 128 136zm0 0"/><path d="m384 232h-16c0-70.574219-61.007812-128-136-128v-16c83.816406 0 152 64.601562 152 144zm0 0"/></g></svg>