<svg height="464pt" viewBox="0 0 464 464" width="464pt" xmlns="http://www.w3.org/2000/svg"><path d="m464 232c0 128.128906-103.871094 232-232 232s-232-103.871094-232-232 103.871094-232 232-232 232 103.871094 232 232zm0 0" fill="#7fcac9"/><path d="m424 232c0 106.039062-85.960938 192-192 192s-192-85.960938-192-192 85.960938-192 192-192 192 85.960938 192 192zm0 0" fill="#cfdfe8"/><path d="m232 0c17.671875 0 32 14.328125 32 32v128c0 17.671875-14.328125 32-32 32s-32-14.328125-32-32v-128c0-17.671875 14.328125-32 32-32zm0 0" fill="#143441"/><path d="m224 48h16v144h-16zm0 0" fill="#7d8d9c"/><path d="m464 232c0 17.671875-14.328125 32-32 32h-128c-17.671875 0-32-14.328125-32-32s14.328125-32 32-32h128c17.671875 0 32 14.328125 32 32zm0 0" fill="#143441"/><path d="m272 224h144v16h-144zm0 0" fill="#7d8d9c"/><path d="m0 232c0-17.671875 14.328125-32 32-32h128c17.671875 0 32 14.328125 32 32s-14.328125 32-32 32h-128c-17.671875 0-32-14.328125-32-32zm0 0" fill="#143441"/><path d="m48 224h144v16h-144zm0 0" fill="#7d8d9c"/><path d="m232 464c-17.671875 0-32-14.328125-32-32v-128c0-17.671875 14.328125-32 32-32s32 14.328125 32 32v128c0 17.671875-14.328125 32-32 32zm0 0" fill="#143441"/><g fill="#7d8d9c"><path d="m224 272h16v144h-16zm0 0"/><path d="m174.265625 375.808594c-69.601563-15.472656-85.433594-83.199219-86.074219-86.074219l15.617188-3.488281c.558594 2.472656 14.398437 60.714844 73.925781 73.945312zm0 0"/><path d="m360.191406 177.753906c-.558594-2.472656-14.398437-60.714844-73.925781-73.945312l3.46875-15.617188c69.601563 15.472656 85.433594 83.199219 86.074219 86.074219zm0 0"/><path d="m173.472656 327.59375c-17.183594-6.335938-30.730468-19.882812-37.066406-37.066406l15.203125-5.085938c4.773437 12.390625 14.5625 22.1875 26.949219 26.964844zm0 0"/><path d="m312.425781 178.558594c-4.773437-12.390625-14.566406-22.1875-26.953125-26.964844l5.054688-15.203125c17.183594 6.335937 30.730468 19.882813 37.066406 37.066406zm0 0"/></g><path d="m280 232c0 26.507812-21.492188 48-48 48s-48-21.492188-48-48 21.492188-48 48-48 48 21.492188 48 48zm0 0" fill="#143441"/><path d="m248 232c0 8.835938-7.164062 16-16 16s-16-7.164062-16-16 7.164062-16 16-16 16 7.164062 16 16zm0 0" fill="#cfdfe8"/></svg>