<svg height="464pt" viewBox="0 0 464 464" width="464pt" xmlns="http://www.w3.org/2000/svg"><path d="m0 0h464v464h-464z" fill="#7fcac9"/><path d="m432 232c0 110.457031-89.542969 200-200 200s-200-89.542969-200-200 89.542969-200 200-200 200 89.542969 200 200zm0 0" fill="#c8d952"/><path d="m232 32c-110.457031 0-200 89.542969-200 200s89.542969 200 200 200 200-89.542969 200-200h-200zm0 0" fill="#55b56a"/><path d="m352 232c0 66.273438-53.726562 120-120 120s-120-53.726562-120-120 53.726562-120 120-120 120 53.726562 120 120zm0 0" fill="#fff"/><path d="m272 232c0 22.089844-17.910156 40-40 40s-40-17.910156-40-40 17.910156-40 40-40 40 17.910156 40 40zm0 0" fill="#7fcac9"/><g fill="#394d5c"><path d="m0 224h464v16h-464zm0 0"/><path d="m224 0h16v464h-16zm0 0"/><path d="m152 208h16v48h-16zm0 0"/><path d="m296 208h16v48h-16zm0 0"/><path d="m376 208h16v48h-16zm0 0"/><path d="m72 208h16v48h-16zm0 0"/><path d="m226.34375 237.65625 11.3125-11.316406 192 192-11.3125 11.3125zm0 0"/></g><path d="m360 280c0 8.835938-7.164062 16-16 16s-16-7.164062-16-16 7.164062-16 16-16 16 7.164062 16 16zm0 0" fill="#e1462b"/><path d="m208 296h48v16h-48zm0 0" fill="#394d5c"/><path d="m208 376h48v16h-48zm0 0" fill="#394d5c"/><path d="m208 152h48v16h-48zm0 0" fill="#394d5c"/><path d="m208 72h48v16h-48zm0 0" fill="#394d5c"/><path d="m24 424h32v16h-32zm0 0" fill="#dd3e46"/><path d="m72 424h16v16h-16zm0 0" fill="#dd3e46"/><path d="m24 392h48v16h-48zm0 0" fill="#dd3e46"/><path d="m408 16h32v16h-32zm0 0" fill="#dd3e46"/><path d="m384 48h56v16h-56zm0 0" fill="#dd3e46"/></svg>