<svg height="464pt" viewBox="-72 0 464 464" width="464pt" xmlns="http://www.w3.org/2000/svg"><path d="m0 0h320v464h-320zm0 0" fill="#fc8535"/><path d="m320 80h-96v-80zm0 0" fill="#e1462b"/><path d="m48 112h224v120h-224zm0 0" fill="#fcf05a"/><path d="m96 264h-48c-4.417969 0-8 3.582031-8 8v96h16v-48h16v48h16v-48h8c4.417969 0 8-3.582031 8-8v-40c0-4.417969-3.582031-8-8-8zm-8 40h-32v-24h32zm0 0" fill="#394d5c"/><path d="m176 264h-48c-4.417969 0-8 3.582031-8 8v96h16v-48h32v48h16v-96c0-4.417969-3.582031-8-8-8zm-40 40v-24h32v24zm0 0" fill="#394d5c"/><path d="m264 264v75.6875l-16.648438-38.839844c-1.261718-2.941406-4.152343-4.84375-7.351562-4.84375s-6.089844 1.902344-7.351562 4.84375l-16.648438 38.839844v-75.6875h-16v96c0 4.417969 3.582031 8 8 8h8c3.199219 0 6.089844-1.90625 7.351562-4.847656l16.648438-38.839844 16.648438 38.839844c1.261718 2.941406 4.152343 4.847656 7.351562 4.847656h8c4.417969 0 8-3.582031 8-8v-96zm0 0" fill="#394d5c"/><g fill="#fff"><path d="m280 400v24h-32v16h48v-40zm0 0"/><path d="m216 424h16v16h-16zm0 0"/><path d="m72 24h-48v40h16v-24h32zm0 0"/><path d="m88 24h16v16h-16zm0 0"/><path d="m120 24h16v16h-16zm0 0"/></g></svg>