<svg height="464pt" viewBox="0 -40 464 464" width="464pt" xmlns="http://www.w3.org/2000/svg"><path d="m0 0h464v384h-464zm0 0" fill="#55b56a"/><path d="m360 192c0 70.691406-57.308594 128-128 128s-128-57.308594-128-128 57.308594-128 128-128 128 57.308594 128 128zm0 0" fill="#c8d952"/><path d="m208 192v-16h-168v-32h-16v80h16v-32zm0 0" fill="#394d5c"/><path d="m240 208h-16v136h-32v16h80v-16h-32zm0 0" fill="#394d5c"/><path d="m224 160h16v-120h32v-16h-80v16h32zm0 0" fill="#394d5c"/><path d="m424 144v32h-168v16h168v32h16v-80zm0 0" fill="#394d5c"/><path d="m32 32h32v32h-32zm0 0" fill="#fcf05a"/><path d="m352 312h80v32h-80zm0 0" fill="#fcf05a"/><g fill="#fff"><path d="m24 344h16v16h-16zm0 0"/><path d="m56 344h16v16h-16zm0 0"/><path d="m88 344h16v16h-16zm0 0"/><path d="m120 344h16v16h-16zm0 0"/><path d="m40 312h16v16h-16zm0 0"/><path d="m72 312h16v16h-16zm0 0"/><path d="m104 312h16v16h-16zm0 0"/><path d="m344 24h96v16h-96zm0 0"/><path d="m360 56h80v16h-80zm0 0"/></g></svg>