<svg height="464pt" viewBox="0 -31 464 463" width="464pt" xmlns="http://www.w3.org/2000/svg"><path d="m16 192.5h432v208h-432zm0 0" fill="#fc8535"/><path d="m0 96.5h464v96h-464zm0 0" fill="#e1462b"/><path d="m312 .5h-192v96h32v-64h160v64h32v-96zm0 0" fill="#143441"/><path d="m344 272.5h59.304688c-9.796876-24.140625-33.25-39.9375-59.304688-39.9375s-49.507812 15.796875-59.304688 39.9375h-156.878906c-10.332031-13.773438-28.316406-19.390625-44.648437-13.949219-16.335938 5.445313-27.351563 20.730469-27.351563 37.949219s11.015625 32.503906 27.351563 37.949219c16.332031 5.441406 34.316406-.175781 44.648437-13.949219h156.878906c9.796876 24.140625 33.25 39.9375 59.304688 39.9375s49.507812-15.796875 59.304688-39.9375h-59.304688zm0 0" fill="#143441"/><g fill="#fff"><path d="m24 120.5h16v48h-16zm0 0"/><path d="m32 120.5h48v16h-48zm0 0"/><path d="m96 120.5h32v16h-32zm0 0"/></g></svg>